<svg width="398" height="76" viewBox="0 0 398 76" fill="none" xmlns="http://www.w3.org/2000/svg">
<path d="M24.64 9.51989H52V17.5199H24.64V9.51989ZM55.04 4.95989H75.2V13.4399H55.04V4.95989ZM54.48 26.3999H76.48V34.9599H54.48V26.3999ZM23.12 25.2799H53.2V33.5999H23.12V25.2799ZM33.68 0.639891H42.8V30.0799H33.68V0.639891ZM23.6 42.9599H52.64V51.1199H23.6V42.9599ZM33.6 34.9599H42.64V63.4399L33.6 64.8799V34.9599ZM21.44 61.7599C24.2667 61.4932 27.44 61.1999 30.96 60.8799C34.5334 60.5599 38.2667 60.2132 42.16 59.8399C46.1067 59.4666 50.0267 59.0666 53.92 58.6399L54.16 66.9599C48.6134 67.5999 43.04 68.2132 37.44 68.7999C31.84 69.4399 26.8267 69.9999 22.4 70.4799L21.44 61.7599ZM61.04 29.9999H70.48V65.1999C70.48 67.4932 70.24 69.3332 69.76 70.7199C69.28 72.1599 68.2934 73.2532 66.8 73.9999C65.4134 74.7466 63.7067 75.2266 61.68 75.4399C59.6534 75.6532 57.2534 75.7599 54.48 75.7599C54.3734 74.3732 54.0534 72.7732 53.52 70.9599C53.04 69.1466 52.48 67.5466 51.84 66.1599C53.4934 66.2132 55.0667 66.2666 56.56 66.3199C58.0534 66.3199 59.0934 66.2932 59.68 66.2399C60.2134 66.2399 60.56 66.1599 60.72 65.9999C60.9334 65.8399 61.04 65.5199 61.04 65.0399V29.9999ZM14.4 0.639891L23.04 3.83989C21.6 6.18656 19.9467 8.53322 18.08 10.8799C16.2134 13.2266 14.2134 15.4666 12.08 17.5999C10 19.7332 7.92004 21.5999 5.84004 23.1999C5.46671 22.5599 4.96004 21.7866 4.32004 20.8799C3.73337 19.9732 3.12004 19.0932 2.48004 18.2399C1.89337 17.3332 1.36004 16.6132 0.880039 16.0799C2.58671 14.7466 4.29337 13.2266 6.00004 11.5199C7.76004 9.75989 9.36004 7.94656 10.8 6.07989C12.2934 4.21322 13.4934 2.39989 14.4 0.639891ZM10 34.9599L17.52 27.4399L18.8 27.9199V75.8399H10V34.9599ZM16.24 17.5999L24.72 20.4799C23.2267 23.8932 21.4134 27.3332 19.28 30.7999C17.1467 34.2132 14.88 37.4399 12.48 40.4799C10.08 43.4666 7.62671 46.1066 5.12004 48.3999C4.85337 47.7066 4.40004 46.7999 3.76004 45.6799C3.17337 44.5066 2.53337 43.3599 1.84004 42.2399C1.14671 41.1199 0.533372 40.2132 3.90708e-05 39.5199C3.14671 36.8532 6.16004 33.5732 9.04004 29.6799C11.9734 25.7866 14.3734 21.7599 16.24 17.5999ZM91.6 11.8399C93.0934 11.9999 94.7734 12.1332 96.64 12.2399C98.5067 12.2932 100.107 12.3199 101.44 12.3199H141.76C142.933 12.3199 144.213 12.3199 145.6 12.3199C147.04 12.2666 148.107 12.2132 148.8 12.1599C148.747 13.0666 148.693 14.2399 148.64 15.6799C148.587 17.0666 148.56 18.3466 148.56 19.5199V60.9599C148.56 62.3466 148.587 63.9732 148.64 65.8399C148.747 67.7066 148.827 69.2266 148.88 70.3999H137.28C137.333 69.2266 137.36 67.9466 137.36 66.5599C137.413 65.1199 137.44 63.6799 137.44 62.2399V22.6399H101.52C99.8134 22.6399 98 22.6666 96.08 22.7199C94.2134 22.7732 92.72 22.8532 91.6 22.9599V11.8399ZM90.56 55.2799C91.9467 55.3866 93.4934 55.4932 95.2 55.5999C96.96 55.7066 98.7467 55.7599 100.56 55.7599H143.76V66.2399H100.88C99.3334 66.2399 97.5467 66.2932 95.52 66.3999C93.5467 66.5066 91.8934 66.6132 90.56 66.7199V55.2799ZM174.64 65.4399C175.12 64.4266 175.413 63.5466 175.52 62.7999C175.627 62.0532 175.68 61.1999 175.68 60.2399C175.68 59.2266 175.68 57.6799 175.68 55.5999C175.68 53.5199 175.68 51.1199 175.68 48.3999C175.68 45.6266 175.68 42.7199 175.68 39.6799C175.68 36.6399 175.68 33.6532 175.68 30.7199C175.68 27.7866 175.68 25.1199 175.68 22.7199C175.68 20.3199 175.68 18.3732 175.68 16.8799C175.68 15.8666 175.627 14.7999 175.52 13.6799C175.467 12.5599 175.36 11.4932 175.2 10.4799C175.093 9.41322 174.96 8.50656 174.8 7.75989H187.36C187.147 9.30656 186.96 10.8266 186.8 12.3199C186.64 13.8132 186.56 15.3332 186.56 16.8799C186.56 18.1599 186.56 19.7599 186.56 21.6799C186.56 23.5466 186.56 25.6266 186.56 27.9199C186.56 30.2132 186.56 32.5866 186.56 35.0399C186.56 37.4932 186.56 39.9199 186.56 42.3199C186.56 44.7199 186.56 46.9866 186.56 49.1199C186.56 51.2532 186.56 53.1199 186.56 54.7199C186.56 56.3199 186.56 57.5732 186.56 58.4799C189.813 57.5199 193.28 56.2132 196.96 54.5599C200.693 52.8532 204.427 50.8532 208.16 48.5599C211.947 46.2132 215.493 43.6532 218.8 40.8799C222.16 38.1066 225.12 35.1466 227.68 31.9999L233.36 41.0399C227.92 47.5999 221.173 53.2799 213.12 58.0799C205.12 62.8266 196.4 66.7466 186.96 69.8399C186.427 70.0532 185.733 70.3199 184.88 70.6399C184.027 70.9599 183.147 71.4132 182.24 71.9999L174.64 65.4399ZM262.72 66.6399H301.68V73.7599H262.72V66.6399ZM274.16 17.4399H283.44V27.1199H274.16V17.4399ZM244.64 22.9599H314.24V38.9599H304.8V30.1599H253.68V38.9599H244.64V22.9599ZM262.4 33.5199H301.52V51.4399H262.4V44.6399H292V40.3999H262.4V33.5199ZM262.8 55.1199H307.6V75.8399H298.08V62.1599H262.8V55.1199ZM257.12 33.5199H266.24V75.9199H257.12V33.5199ZM252.64 6.23989H277.92V13.8399H252.64V6.23989ZM285.04 6.23989H316.08V13.8399H285.04V6.23989ZM253.04 -0.000110626L261.92 2.47989C260.373 6.05322 258.4 9.54656 256 12.9599C253.653 16.3199 251.307 19.1732 248.96 21.5199C248.373 20.9866 247.6 20.3999 246.64 19.7599C245.68 19.1199 244.72 18.4799 243.76 17.8399C242.8 17.1999 241.92 16.6932 241.12 16.3199C243.573 14.3466 245.867 11.8932 248 8.95989C250.133 6.02655 251.813 3.03989 253.04 -0.000110626ZM285.6 -0.000110626L294.72 2.23989C293.28 5.70656 291.413 9.01322 289.12 12.1599C286.827 15.2532 284.48 17.8399 282.08 19.9199C281.387 19.4399 280.533 18.9332 279.52 18.3999C278.56 17.8132 277.547 17.2532 276.48 16.7199C275.413 16.1332 274.48 15.6799 273.68 15.3599C276.24 13.5466 278.56 11.2799 280.64 8.55989C282.773 5.78656 284.427 2.93322 285.6 -0.000110626ZM255.68 12.1599L263.84 9.91989C264.8 11.3066 265.76 12.8799 266.72 14.6399C267.733 16.3466 268.507 17.8132 269.04 19.0399L260.4 21.5199C260.027 20.2932 259.36 18.7999 258.4 17.0399C257.493 15.2266 256.587 13.5999 255.68 12.1599ZM291.36 12.3199L299.84 10.0799C301.013 11.4132 302.187 12.9332 303.36 14.6399C304.587 16.3466 305.52 17.8666 306.16 19.1999L297.28 21.6799C296.8 20.3999 295.973 18.8799 294.8 17.1199C293.627 15.3599 292.48 13.7599 291.36 12.3199ZM360.16 26.4799V33.2799H384.32V26.4799H360.16ZM360.16 12.1599V18.8799H384.32V12.1599H360.16ZM351.44 4.07989H393.52V41.4399H351.44V4.07989ZM350.96 48.3199H394.32V56.9599H350.96V48.3199ZM345.36 64.5599H397.04V73.2799H345.36V64.5599ZM321.92 5.27989H348.48V14.1599H321.92V5.27989ZM322.64 28.3199H347.12V37.1199H322.64V28.3199ZM320.96 58.7199C323.307 58.0799 325.92 57.3599 328.8 56.5599C331.733 55.7066 334.827 54.7732 338.08 53.7599C341.333 52.6932 344.533 51.6532 347.68 50.6399L349.36 59.7599C344.88 61.2532 340.347 62.7732 335.76 64.3199C331.173 65.8666 326.96 67.2532 323.12 68.4799L320.96 58.7199ZM330.72 8.79989H339.92V57.9199L330.72 59.4399V8.79989ZM368.4 7.51989H376.48V37.5999H377.36V68.6399H367.52V37.5999H368.4V7.51989Z" fill="#374151"/>
</svg>
