<svg width="234" height="76" viewBox="0 0 234 76" fill="none" xmlns="http://www.w3.org/2000/svg">
<path d="M24.64 8.88H52V16.88H24.64V8.88ZM55.04 4.31999H75.2V12.8H55.04V4.31999ZM54.48 25.76H76.48V34.32H54.48V25.76ZM23.12 24.64H53.2V32.96H23.12V24.64ZM33.68 -1.90735e-06H42.8V29.44H33.68V-1.90735e-06ZM23.6 42.32H52.64V50.48H23.6V42.32ZM33.6 34.32H42.64V62.8L33.6 64.24V34.32ZM21.44 61.12C24.2667 60.8533 27.44 60.56 30.96 60.24C34.5334 59.92 38.2667 59.5733 42.16 59.2C46.1067 58.8267 50.0267 58.4267 53.92 58L54.16 66.32C48.6134 66.96 43.04 67.5733 37.44 68.16C31.84 68.8 26.8267 69.36 22.4 69.84L21.44 61.12ZM61.04 29.36H70.48V64.56C70.48 66.8533 70.24 68.6933 69.76 70.08C69.28 71.52 68.2934 72.6133 66.8 73.36C65.4134 74.1067 63.7067 74.5867 61.68 74.8C59.6534 75.0133 57.2534 75.12 54.48 75.12C54.3734 73.7333 54.0534 72.1333 53.52 70.32C53.04 68.5067 52.48 66.9067 51.84 65.52C53.4934 65.5733 55.0667 65.6267 56.56 65.68C58.0534 65.68 59.0934 65.6533 59.68 65.6C60.2134 65.6 60.56 65.52 60.72 65.36C60.9334 65.2 61.04 64.88 61.04 64.4V29.36ZM14.4 -1.90735e-06L23.04 3.2C21.6 5.54666 19.9467 7.89333 18.08 10.24C16.2134 12.5867 14.2134 14.8267 12.08 16.96C10 19.0933 7.92004 20.96 5.84004 22.56C5.46671 21.92 4.96004 21.1467 4.32004 20.24C3.73337 19.3333 3.12004 18.4533 2.48004 17.6C1.89337 16.6933 1.36004 15.9733 0.880039 15.44C2.58671 14.1067 4.29337 12.5867 6.00004 10.88C7.76004 9.12 9.36004 7.30666 10.8 5.43999C12.2934 3.57333 13.4934 1.76 14.4 -1.90735e-06ZM10 34.32L17.52 26.8L18.8 27.28V75.2H10V34.32ZM16.24 16.96L24.72 19.84C23.2267 23.2533 21.4134 26.6933 19.28 30.16C17.1467 33.5733 14.88 36.8 12.48 39.84C10.08 42.8267 7.62671 45.4667 5.12004 47.76C4.85337 47.0667 4.40004 46.16 3.76004 45.04C3.17337 43.8667 2.53337 42.72 1.84004 41.6C1.14671 40.48 0.533372 39.5733 3.90708e-05 38.88C3.14671 36.2133 6.16004 32.9333 9.04004 29.04C11.9734 25.1467 14.3734 21.12 16.24 16.96ZM91.6 11.2C93.0934 11.36 94.7734 11.4933 96.64 11.6C98.5067 11.6533 100.107 11.68 101.44 11.68H141.76C142.933 11.68 144.213 11.68 145.6 11.68C147.04 11.6267 148.107 11.5733 148.8 11.52C148.747 12.4267 148.693 13.6 148.64 15.04C148.587 16.4267 148.56 17.7067 148.56 18.88V60.32C148.56 61.7067 148.587 63.3333 148.64 65.2C148.747 67.0667 148.827 68.5867 148.88 69.76H137.28C137.333 68.5867 137.36 67.3067 137.36 65.92C137.413 64.48 137.44 63.04 137.44 61.6V22H101.52C99.8134 22 98 22.0267 96.08 22.08C94.2134 22.1333 92.72 22.2133 91.6 22.32V11.2ZM90.56 54.64C91.9467 54.7467 93.4934 54.8533 95.2 54.96C96.96 55.0667 98.7467 55.12 100.56 55.12H143.76V65.6H100.88C99.3334 65.6 97.5467 65.6533 95.52 65.76C93.5467 65.8667 91.8934 65.9733 90.56 66.08V54.64ZM174.64 64.8C175.12 63.7867 175.413 62.9067 175.52 62.16C175.627 61.4133 175.68 60.56 175.68 59.6C175.68 58.5867 175.68 57.04 175.68 54.96C175.68 52.88 175.68 50.48 175.68 47.76C175.68 44.9867 175.68 42.08 175.68 39.04C175.68 36 175.68 33.0133 175.68 30.08C175.68 27.1467 175.68 24.48 175.68 22.08C175.68 19.68 175.68 17.7333 175.68 16.24C175.68 15.2267 175.627 14.16 175.52 13.04C175.467 11.92 175.36 10.8533 175.2 9.84C175.093 8.77333 174.96 7.86666 174.8 7.12H187.36C187.147 8.66666 186.96 10.1867 186.8 11.68C186.64 13.1733 186.56 14.6933 186.56 16.24C186.56 17.52 186.56 19.12 186.56 21.04C186.56 22.9067 186.56 24.9867 186.56 27.28C186.56 29.5733 186.56 31.9467 186.56 34.4C186.56 36.8533 186.56 39.28 186.56 41.68C186.56 44.08 186.56 46.3467 186.56 48.48C186.56 50.6133 186.56 52.48 186.56 54.08C186.56 55.68 186.56 56.9333 186.56 57.84C189.813 56.88 193.28 55.5733 196.96 53.92C200.693 52.2133 204.427 50.2133 208.16 47.92C211.947 45.5733 215.493 43.0133 218.8 40.24C222.16 37.4667 225.12 34.5067 227.68 31.36L233.36 40.4C227.92 46.96 221.173 52.64 213.12 57.44C205.12 62.1867 196.4 66.1067 186.96 69.2C186.427 69.4133 185.733 69.68 184.88 70C184.027 70.32 183.147 70.7733 182.24 71.36L174.64 64.8Z" fill="#374151"/>
</svg>
