<?xml version="1.0" encoding="UTF-8" standalone="no"?>
<!DOCTYPE svg PUBLIC "-//W3C//DTD SVG 1.1//EN"
 "http://www.w3.org/Graphics/SVG/1.1/DTD/svg11.dtd">
<!-- Generated by graphviz version 12.1.2 (20240928.0832)
 -->
<!-- Title: auth.refresh_tokens Pages: 1 -->
<svg width="593pt" height="1033pt"
 viewBox="0.00 0.00 593.28 1033.20" xmlns="http://www.w3.org/2000/svg" xmlns:xlink="http://www.w3.org/1999/xlink">
<g id="graph0" class="graph" transform="scale(1 1) rotate(0) translate(4 1029.2)">
<title>auth.refresh_tokens</title>
<polygon fill="white" stroke="none" points="-4,4 -4,-1029.2 589.28,-1029.2 589.28,4 -4,4"/>
<!-- auth.refresh_tokens -->
<g id="node1" class="node">
<title>auth.refresh_tokens</title>
<polygon fill="#efefef" stroke="none" points="259.14,-943.4 259.14,-979 539.08,-979 539.08,-943.4 259.14,-943.4"/>
<polygon fill="none" stroke="black" points="259.14,-943.4 259.14,-979 539.08,-979 539.08,-943.4 259.14,-943.4"/>
<text text-anchor="start" x="266.14" y="-956.8" font-family="Arial Bold" font-size="18.00">auth.refresh_tokens</text>
<text text-anchor="start" x="407.59" y="-956.8" font-family="Arial" font-size="14.00">    </text>
<text text-anchor="start" x="438.71" y="-956.8" font-family="Arial" font-size="14.00" fill="#666666">[BASE TABLE]</text>
<polygon fill="none" stroke="black" points="259.14,-912.6 259.14,-943.4 539.08,-943.4 539.08,-912.6 259.14,-912.6"/>
<text text-anchor="start" x="266.14" y="-924.8" font-family="Arial" font-size="14.00">instance_id </text>
<text text-anchor="start" x="340.85" y="-924.8" font-family="Arial" font-size="14.00" fill="#666666">[uuid]</text>
<polygon fill="none" stroke="black" points="259.14,-881.8 259.14,-912.6 539.08,-912.6 539.08,-881.8 259.14,-881.8"/>
<text text-anchor="start" x="266.14" y="-894" font-family="Arial" font-size="14.00">id </text>
<text text-anchor="start" x="280.92" y="-894" font-family="Arial" font-size="14.00" fill="#666666">[bigint]</text>
<polygon fill="none" stroke="black" points="259.14,-851 259.14,-881.8 539.08,-881.8 539.08,-851 259.14,-851"/>
<text text-anchor="start" x="266.14" y="-863.2" font-family="Arial" font-size="14.00">token </text>
<text text-anchor="start" x="304.27" y="-863.2" font-family="Arial" font-size="14.00" fill="#666666">[varchar(255)]</text>
<polygon fill="none" stroke="black" points="259.14,-820.2 259.14,-851 539.08,-851 539.08,-820.2 259.14,-820.2"/>
<text text-anchor="start" x="266.14" y="-832.4" font-family="Arial" font-size="14.00">user_id </text>
<text text-anchor="start" x="315.94" y="-832.4" font-family="Arial" font-size="14.00" fill="#666666">[varchar(255)]</text>
<polygon fill="none" stroke="black" points="259.14,-789.4 259.14,-820.2 539.08,-820.2 539.08,-789.4 259.14,-789.4"/>
<text text-anchor="start" x="266.14" y="-801.6" font-family="Arial" font-size="14.00">revoked </text>
<text text-anchor="start" x="319.83" y="-801.6" font-family="Arial" font-size="14.00" fill="#666666">[boolean]</text>
<polygon fill="none" stroke="black" points="259.14,-758.6 259.14,-789.4 539.08,-789.4 539.08,-758.6 259.14,-758.6"/>
<text text-anchor="start" x="266.14" y="-770.8" font-family="Arial" font-size="14.00">created_at </text>
<text text-anchor="start" x="336.19" y="-770.8" font-family="Arial" font-size="14.00" fill="#666666">[timestamp with time zone]</text>
<polygon fill="none" stroke="black" points="259.14,-727.8 259.14,-758.6 539.08,-758.6 539.08,-727.8 259.14,-727.8"/>
<text text-anchor="start" x="266.14" y="-740" font-family="Arial" font-size="14.00">updated_at </text>
<text text-anchor="start" x="340.1" y="-740" font-family="Arial" font-size="14.00" fill="#666666">[timestamp with time zone]</text>
<polygon fill="none" stroke="black" points="259.14,-697 259.14,-727.8 539.08,-727.8 539.08,-697 259.14,-697"/>
<text text-anchor="start" x="266.14" y="-709.2" font-family="Arial" font-size="14.00">parent </text>
<text text-anchor="start" x="309.72" y="-709.2" font-family="Arial" font-size="14.00" fill="#666666">[varchar(255)]</text>
<polygon fill="none" stroke="black" points="259.14,-666.2 259.14,-697 539.08,-697 539.08,-666.2 259.14,-666.2"/>
<text text-anchor="start" x="266.14" y="-678.4" font-family="Arial" font-size="14.00">session_id </text>
<text text-anchor="start" x="336.18" y="-678.4" font-family="Arial" font-size="14.00" fill="#666666">[uuid]</text>
<polygon fill="none" stroke="black" stroke-width="3" points="257.64,-664.7 257.64,-980.5 540.58,-980.5 540.58,-664.7 257.64,-664.7"/>
</g>
<!-- auth.sessions -->
<g id="node2" class="node">
<title>auth.sessions</title>
<polygon fill="#efefef" stroke="none" points="258.27,-505.2 258.27,-540.8 539.95,-540.8 539.95,-505.2 258.27,-505.2"/>
<polygon fill="none" stroke="black" points="258.27,-505.2 258.27,-540.8 539.95,-540.8 539.95,-505.2 258.27,-505.2"/>
<text text-anchor="start" x="289.61" y="-518.6" font-family="Arial Bold" font-size="18.00">auth.sessions</text>
<text text-anchor="start" x="384.11" y="-518.6" font-family="Arial" font-size="14.00">    </text>
<text text-anchor="start" x="415.23" y="-518.6" font-family="Arial" font-size="14.00" fill="#666666">[BASE TABLE]</text>
<polygon fill="none" stroke="black" points="258.27,-474.4 258.27,-505.2 539.95,-505.2 539.95,-474.4 258.27,-474.4"/>
<text text-anchor="start" x="265.27" y="-486.6" font-family="Arial" font-size="14.00">id </text>
<text text-anchor="start" x="280.05" y="-486.6" font-family="Arial" font-size="14.00" fill="#666666">[uuid]</text>
<polygon fill="none" stroke="black" points="258.27,-443.6 258.27,-474.4 539.95,-474.4 539.95,-443.6 258.27,-443.6"/>
<text text-anchor="start" x="265.27" y="-455.8" font-family="Arial" font-size="14.00">user_id </text>
<text text-anchor="start" x="315.07" y="-455.8" font-family="Arial" font-size="14.00" fill="#666666">[uuid]</text>
<polygon fill="none" stroke="black" points="258.27,-412.8 258.27,-443.6 539.95,-443.6 539.95,-412.8 258.27,-412.8"/>
<text text-anchor="start" x="265.27" y="-425" font-family="Arial" font-size="14.00">created_at </text>
<text text-anchor="start" x="335.31" y="-425" font-family="Arial" font-size="14.00" fill="#666666">[timestamp with time zone]</text>
<polygon fill="none" stroke="black" points="258.27,-382 258.27,-412.8 539.95,-412.8 539.95,-382 258.27,-382"/>
<text text-anchor="start" x="265.27" y="-394.2" font-family="Arial" font-size="14.00">updated_at </text>
<text text-anchor="start" x="339.22" y="-394.2" font-family="Arial" font-size="14.00" fill="#666666">[timestamp with time zone]</text>
<polygon fill="none" stroke="black" points="258.27,-351.2 258.27,-382 539.95,-382 539.95,-351.2 258.27,-351.2"/>
<text text-anchor="start" x="265.27" y="-363.4" font-family="Arial" font-size="14.00">factor_id </text>
<text text-anchor="start" x="322.85" y="-363.4" font-family="Arial" font-size="14.00" fill="#666666">[uuid]</text>
<polygon fill="none" stroke="black" points="258.27,-320.4 258.27,-351.2 539.95,-351.2 539.95,-320.4 258.27,-320.4"/>
<text text-anchor="start" x="265.27" y="-332.6" font-family="Arial" font-size="14.00">aal </text>
<text text-anchor="start" x="287.84" y="-332.6" font-family="Arial" font-size="14.00" fill="#666666">[auth.aal_level]</text>
<polygon fill="none" stroke="black" points="258.27,-289.6 258.27,-320.4 539.95,-320.4 539.95,-289.6 258.27,-289.6"/>
<text text-anchor="start" x="265.27" y="-301.8" font-family="Arial" font-size="14.00">not_after </text>
<text text-anchor="start" x="324.42" y="-301.8" font-family="Arial" font-size="14.00" fill="#666666">[timestamp with time zone]</text>
<polygon fill="none" stroke="black" points="258.27,-258.8 258.27,-289.6 539.95,-289.6 539.95,-258.8 258.27,-258.8"/>
<text text-anchor="start" x="265.27" y="-271" font-family="Arial" font-size="14.00">refreshed_at </text>
<text text-anchor="start" x="347.76" y="-271" font-family="Arial" font-size="14.00" fill="#666666">[timestamp without time zone]</text>
<polygon fill="none" stroke="black" points="258.27,-228 258.27,-258.8 539.95,-258.8 539.95,-228 258.27,-228"/>
<text text-anchor="start" x="265.27" y="-240.2" font-family="Arial" font-size="14.00">user_agent </text>
<text text-anchor="start" x="339.21" y="-240.2" font-family="Arial" font-size="14.00" fill="#666666">[text]</text>
<polygon fill="none" stroke="black" points="258.27,-197.2 258.27,-228 539.95,-228 539.95,-197.2 258.27,-197.2"/>
<text text-anchor="start" x="265.27" y="-209.4" font-family="Arial" font-size="14.00">ip </text>
<text text-anchor="start" x="280.05" y="-209.4" font-family="Arial" font-size="14.00" fill="#666666">[inet]</text>
<polygon fill="none" stroke="black" points="258.27,-166.4 258.27,-197.2 539.95,-197.2 539.95,-166.4 258.27,-166.4"/>
<text text-anchor="start" x="265.27" y="-178.6" font-family="Arial" font-size="14.00">tag </text>
<text text-anchor="start" x="288.62" y="-178.6" font-family="Arial" font-size="14.00" fill="#666666">[text]</text>
<polygon fill="none" stroke="black" points="258.27,-135.6 258.27,-166.4 539.95,-166.4 539.95,-135.6 258.27,-135.6"/>
<text text-anchor="start" x="265.27" y="-147.8" font-family="Arial" font-size="14.00">oauth_client_id </text>
<text text-anchor="start" x="363.34" y="-147.8" font-family="Arial" font-size="14.00" fill="#666666">[uuid]</text>
<polygon fill="none" stroke="black" points="258.27,-104.8 258.27,-135.6 539.95,-135.6 539.95,-104.8 258.27,-104.8"/>
<text text-anchor="start" x="265.27" y="-117" font-family="Arial" font-size="14.00">refresh_token_hmac_key </text>
<text text-anchor="start" x="426.36" y="-117" font-family="Arial" font-size="14.00" fill="#666666">[text]</text>
<polygon fill="none" stroke="black" points="258.27,-74 258.27,-104.8 539.95,-104.8 539.95,-74 258.27,-74"/>
<text text-anchor="start" x="265.27" y="-86.2" font-family="Arial" font-size="14.00">refresh_token_counter </text>
<text text-anchor="start" x="409.25" y="-86.2" font-family="Arial" font-size="14.00" fill="#666666">[bigint]</text>
<polygon fill="none" stroke="black" points="258.27,-43.2 258.27,-74 539.95,-74 539.95,-43.2 258.27,-43.2"/>
<text text-anchor="start" x="265.27" y="-55.4" font-family="Arial" font-size="14.00">scopes </text>
<text text-anchor="start" x="313.51" y="-55.4" font-family="Arial" font-size="14.00" fill="#666666">[text]</text>
</g>
<!-- auth.refresh_tokens&#45;&gt;auth.sessions -->
<g id="edge1" class="edge">
<title>auth.refresh_tokens:session_id&#45;&gt;auth.sessions:id</title>
<path fill="none" stroke="black" d="M399.89,-655.13C409.53,-598.07 505.32,-643.2 539.95,-584 561.09,-547.86 582.82,-489.8 540.95,-489.8"/>
<polygon fill="black" stroke="black" points="399.91,-654.9 394.65,-664.52 399.5,-660.22 399.16,-664.53 399.16,-664.53 399.16,-664.53 399.5,-660.22 403.62,-665.22 399.91,-654.9"/>
<text text-anchor="start" x="7" y="-675.2" font-family="Arial" font-size="10.00">FOREIGN KEY (session_id) REFERENCES auth.sessions(id) ON DELETE CASCADE</text>
</g>
</g>
</svg>
