<?xml version="1.0" encoding="UTF-8" standalone="no"?>
<!DOCTYPE svg PUBLIC "-//W3C//DTD SVG 1.1//EN"
 "http://www.w3.org/Graphics/SVG/1.1/DTD/svg11.dtd">
<!-- Generated by graphviz version 12.1.2 (20240928.0832)
 -->
<!-- Title: auth.mfa_amr_claims Pages: 1 -->
<svg width="749pt" height="910pt"
 viewBox="0.00 0.00 749.24 910.00" xmlns="http://www.w3.org/2000/svg" xmlns:xlink="http://www.w3.org/1999/xlink">
<g id="graph0" class="graph" transform="scale(1 1) rotate(0) translate(4 906)">
<title>auth.mfa_amr_claims</title>
<polygon fill="white" stroke="none" points="-4,4 -4,-906 745.24,-906 745.24,4 -4,4"/>
<!-- auth.mfa_amr_claims -->
<g id="node1" class="node">
<title>auth.mfa_amr_claims</title>
<polygon fill="#efefef" stroke="none" points="46.2,-820.2 46.2,-855.8 341.13,-855.8 341.13,-820.2 46.2,-820.2"/>
<polygon fill="none" stroke="black" points="46.2,-820.2 46.2,-855.8 341.13,-855.8 341.13,-820.2 46.2,-820.2"/>
<text text-anchor="start" x="53.2" y="-833.6" font-family="Arial Bold" font-size="18.00">auth.mfa_amr_claims</text>
<text text-anchor="start" x="209.65" y="-833.6" font-family="Arial" font-size="14.00">    </text>
<text text-anchor="start" x="240.76" y="-833.6" font-family="Arial" font-size="14.00" fill="#666666">[BASE TABLE]</text>
<polygon fill="none" stroke="black" points="46.2,-789.4 46.2,-820.2 341.13,-820.2 341.13,-789.4 46.2,-789.4"/>
<text text-anchor="start" x="53.2" y="-801.6" font-family="Arial" font-size="14.00">session_id </text>
<text text-anchor="start" x="123.24" y="-801.6" font-family="Arial" font-size="14.00" fill="#666666">[uuid]</text>
<polygon fill="none" stroke="black" points="46.2,-758.6 46.2,-789.4 341.13,-789.4 341.13,-758.6 46.2,-758.6"/>
<text text-anchor="start" x="53.2" y="-770.8" font-family="Arial" font-size="14.00">created_at </text>
<text text-anchor="start" x="123.25" y="-770.8" font-family="Arial" font-size="14.00" fill="#666666">[timestamp with time zone]</text>
<polygon fill="none" stroke="black" points="46.2,-727.8 46.2,-758.6 341.13,-758.6 341.13,-727.8 46.2,-727.8"/>
<text text-anchor="start" x="53.2" y="-740" font-family="Arial" font-size="14.00">updated_at </text>
<text text-anchor="start" x="127.16" y="-740" font-family="Arial" font-size="14.00" fill="#666666">[timestamp with time zone]</text>
<polygon fill="none" stroke="black" points="46.2,-697 46.2,-727.8 341.13,-727.8 341.13,-697 46.2,-697"/>
<text text-anchor="start" x="53.2" y="-709.2" font-family="Arial" font-size="14.00">authentication_method </text>
<text text-anchor="start" x="198.75" y="-709.2" font-family="Arial" font-size="14.00" fill="#666666">[text]</text>
<polygon fill="none" stroke="black" points="46.2,-666.2 46.2,-697 341.13,-697 341.13,-666.2 46.2,-666.2"/>
<text text-anchor="start" x="53.2" y="-678.4" font-family="Arial" font-size="14.00">id </text>
<text text-anchor="start" x="67.99" y="-678.4" font-family="Arial" font-size="14.00" fill="#666666">[uuid]</text>
<polygon fill="none" stroke="black" stroke-width="3" points="44.7,-664.7 44.7,-857.3 342.63,-857.3 342.63,-664.7 44.7,-664.7"/>
</g>
<!-- auth.sessions -->
<g id="node2" class="node">
<title>auth.sessions</title>
<polygon fill="#efefef" stroke="none" points="52.83,-505.2 52.83,-540.8 334.51,-540.8 334.51,-505.2 52.83,-505.2"/>
<polygon fill="none" stroke="black" points="52.83,-505.2 52.83,-540.8 334.51,-540.8 334.51,-505.2 52.83,-505.2"/>
<text text-anchor="start" x="84.17" y="-518.6" font-family="Arial Bold" font-size="18.00">auth.sessions</text>
<text text-anchor="start" x="178.67" y="-518.6" font-family="Arial" font-size="14.00">    </text>
<text text-anchor="start" x="209.79" y="-518.6" font-family="Arial" font-size="14.00" fill="#666666">[BASE TABLE]</text>
<polygon fill="none" stroke="black" points="52.83,-474.4 52.83,-505.2 334.51,-505.2 334.51,-474.4 52.83,-474.4"/>
<text text-anchor="start" x="59.83" y="-486.6" font-family="Arial" font-size="14.00">id </text>
<text text-anchor="start" x="74.61" y="-486.6" font-family="Arial" font-size="14.00" fill="#666666">[uuid]</text>
<polygon fill="none" stroke="black" points="52.83,-443.6 52.83,-474.4 334.51,-474.4 334.51,-443.6 52.83,-443.6"/>
<text text-anchor="start" x="59.83" y="-455.8" font-family="Arial" font-size="14.00">user_id </text>
<text text-anchor="start" x="109.63" y="-455.8" font-family="Arial" font-size="14.00" fill="#666666">[uuid]</text>
<polygon fill="none" stroke="black" points="52.83,-412.8 52.83,-443.6 334.51,-443.6 334.51,-412.8 52.83,-412.8"/>
<text text-anchor="start" x="59.83" y="-425" font-family="Arial" font-size="14.00">created_at </text>
<text text-anchor="start" x="129.87" y="-425" font-family="Arial" font-size="14.00" fill="#666666">[timestamp with time zone]</text>
<polygon fill="none" stroke="black" points="52.83,-382 52.83,-412.8 334.51,-412.8 334.51,-382 52.83,-382"/>
<text text-anchor="start" x="59.83" y="-394.2" font-family="Arial" font-size="14.00">updated_at </text>
<text text-anchor="start" x="133.78" y="-394.2" font-family="Arial" font-size="14.00" fill="#666666">[timestamp with time zone]</text>
<polygon fill="none" stroke="black" points="52.83,-351.2 52.83,-382 334.51,-382 334.51,-351.2 52.83,-351.2"/>
<text text-anchor="start" x="59.83" y="-363.4" font-family="Arial" font-size="14.00">factor_id </text>
<text text-anchor="start" x="117.41" y="-363.4" font-family="Arial" font-size="14.00" fill="#666666">[uuid]</text>
<polygon fill="none" stroke="black" points="52.83,-320.4 52.83,-351.2 334.51,-351.2 334.51,-320.4 52.83,-320.4"/>
<text text-anchor="start" x="59.83" y="-332.6" font-family="Arial" font-size="14.00">aal </text>
<text text-anchor="start" x="82.4" y="-332.6" font-family="Arial" font-size="14.00" fill="#666666">[auth.aal_level]</text>
<polygon fill="none" stroke="black" points="52.83,-289.6 52.83,-320.4 334.51,-320.4 334.51,-289.6 52.83,-289.6"/>
<text text-anchor="start" x="59.83" y="-301.8" font-family="Arial" font-size="14.00">not_after </text>
<text text-anchor="start" x="118.98" y="-301.8" font-family="Arial" font-size="14.00" fill="#666666">[timestamp with time zone]</text>
<polygon fill="none" stroke="black" points="52.83,-258.8 52.83,-289.6 334.51,-289.6 334.51,-258.8 52.83,-258.8"/>
<text text-anchor="start" x="59.83" y="-271" font-family="Arial" font-size="14.00">refreshed_at </text>
<text text-anchor="start" x="142.32" y="-271" font-family="Arial" font-size="14.00" fill="#666666">[timestamp without time zone]</text>
<polygon fill="none" stroke="black" points="52.83,-228 52.83,-258.8 334.51,-258.8 334.51,-228 52.83,-228"/>
<text text-anchor="start" x="59.83" y="-240.2" font-family="Arial" font-size="14.00">user_agent </text>
<text text-anchor="start" x="133.77" y="-240.2" font-family="Arial" font-size="14.00" fill="#666666">[text]</text>
<polygon fill="none" stroke="black" points="52.83,-197.2 52.83,-228 334.51,-228 334.51,-197.2 52.83,-197.2"/>
<text text-anchor="start" x="59.83" y="-209.4" font-family="Arial" font-size="14.00">ip </text>
<text text-anchor="start" x="74.61" y="-209.4" font-family="Arial" font-size="14.00" fill="#666666">[inet]</text>
<polygon fill="none" stroke="black" points="52.83,-166.4 52.83,-197.2 334.51,-197.2 334.51,-166.4 52.83,-166.4"/>
<text text-anchor="start" x="59.83" y="-178.6" font-family="Arial" font-size="14.00">tag </text>
<text text-anchor="start" x="83.18" y="-178.6" font-family="Arial" font-size="14.00" fill="#666666">[text]</text>
<polygon fill="none" stroke="black" points="52.83,-135.6 52.83,-166.4 334.51,-166.4 334.51,-135.6 52.83,-135.6"/>
<text text-anchor="start" x="59.83" y="-147.8" font-family="Arial" font-size="14.00">oauth_client_id </text>
<text text-anchor="start" x="157.9" y="-147.8" font-family="Arial" font-size="14.00" fill="#666666">[uuid]</text>
<polygon fill="none" stroke="black" points="52.83,-104.8 52.83,-135.6 334.51,-135.6 334.51,-104.8 52.83,-104.8"/>
<text text-anchor="start" x="59.83" y="-117" font-family="Arial" font-size="14.00">refresh_token_hmac_key </text>
<text text-anchor="start" x="220.92" y="-117" font-family="Arial" font-size="14.00" fill="#666666">[text]</text>
<polygon fill="none" stroke="black" points="52.83,-74 52.83,-104.8 334.51,-104.8 334.51,-74 52.83,-74"/>
<text text-anchor="start" x="59.83" y="-86.2" font-family="Arial" font-size="14.00">refresh_token_counter </text>
<text text-anchor="start" x="203.8" y="-86.2" font-family="Arial" font-size="14.00" fill="#666666">[bigint]</text>
<polygon fill="none" stroke="black" points="52.83,-43.2 52.83,-74 334.51,-74 334.51,-43.2 52.83,-43.2"/>
<text text-anchor="start" x="59.83" y="-55.4" font-family="Arial" font-size="14.00">scopes </text>
<text text-anchor="start" x="108.07" y="-55.4" font-family="Arial" font-size="14.00" fill="#666666">[text]</text>
</g>
<!-- auth.mfa_amr_claims&#45;&gt;auth.sessions -->
<g id="edge1" class="edge">
<title>auth.mfa_amr_claims:session_id&#45;&gt;auth.sessions:id</title>
<path fill="none" stroke="black" d="M352.21,-802.45C411.31,-773.62 401.97,-489.8 335.51,-489.8"/>
<polygon fill="black" stroke="black" points="352.2,-802.45 341.44,-800.34 347,-803.66 342.79,-804.65 342.79,-804.65 342.79,-804.65 347,-803.66 343.48,-809.11 352.2,-802.45"/>
<text text-anchor="start" x="349.13" y="-814.8" font-family="Arial" font-size="10.00">FOREIGN KEY (session_id) REFERENCES auth.sessions(id) ON DELETE CASCADE</text>
</g>
</g>
</svg>
