<?xml version="1.0" encoding="UTF-8" standalone="no"?>
<!DOCTYPE svg PUBLIC "-//W3C//DTD SVG 1.1//EN"
 "http://www.w3.org/Graphics/SVG/1.1/DTD/svg11.dtd">
<!-- Generated by graphviz version 12.1.2 (20240928.0832)
 -->
<!-- Title: auth.oauth_clients Pages: 1 -->
<svg width="1424pt" height="1187pt"
 viewBox="0.00 0.00 1424.41 1187.20" xmlns="http://www.w3.org/2000/svg" xmlns:xlink="http://www.w3.org/1999/xlink">
<g id="graph0" class="graph" transform="scale(1 1) rotate(0) translate(4 1183.2)">
<title>auth.oauth_clients</title>
<polygon fill="white" stroke="none" points="-4,4 -4,-1183.2 1420.41,-1183.2 1420.41,4 -4,4"/>
<!-- auth.oauth_clients -->
<g id="node1" class="node">
<title>auth.oauth_clients</title>
<polygon fill="#efefef" stroke="none" points="570,-415.8 570,-451.4 876.63,-451.4 876.63,-415.8 570,-415.8"/>
<polygon fill="none" stroke="black" points="570,-415.8 570,-451.4 876.63,-451.4 876.63,-415.8 570,-415.8"/>
<text text-anchor="start" x="595.34" y="-429.2" font-family="Arial Bold" font-size="18.00">auth.oauth_clients</text>
<text text-anchor="start" x="726.8" y="-429.2" font-family="Arial" font-size="14.00">    </text>
<text text-anchor="start" x="757.92" y="-429.2" font-family="Arial" font-size="14.00" fill="#666666">[BASE TABLE]</text>
<polygon fill="none" stroke="black" points="570,-385 570,-415.8 876.63,-415.8 876.63,-385 570,-385"/>
<text text-anchor="start" x="577" y="-397.2" font-family="Arial" font-size="14.00">id </text>
<text text-anchor="start" x="591.79" y="-397.2" font-family="Arial" font-size="14.00" fill="#666666">[uuid]</text>
<polygon fill="none" stroke="black" points="570,-354.2 570,-385 876.63,-385 876.63,-354.2 570,-354.2"/>
<text text-anchor="start" x="577" y="-366.4" font-family="Arial" font-size="14.00">client_secret_hash </text>
<text text-anchor="start" x="697.63" y="-366.4" font-family="Arial" font-size="14.00" fill="#666666">[text]</text>
<polygon fill="none" stroke="black" points="570,-323.4 570,-354.2 876.63,-354.2 876.63,-323.4 570,-323.4"/>
<text text-anchor="start" x="577" y="-335.6" font-family="Arial" font-size="14.00">registration_type </text>
<text text-anchor="start" x="684.39" y="-335.6" font-family="Arial" font-size="14.00" fill="#666666">[auth.oauth_registration_type]</text>
<polygon fill="none" stroke="black" points="570,-292.6 570,-323.4 876.63,-323.4 876.63,-292.6 570,-292.6"/>
<text text-anchor="start" x="577" y="-304.8" font-family="Arial" font-size="14.00">redirect_uris </text>
<text text-anchor="start" x="657.92" y="-304.8" font-family="Arial" font-size="14.00" fill="#666666">[text]</text>
<polygon fill="none" stroke="black" points="570,-261.8 570,-292.6 876.63,-292.6 876.63,-261.8 570,-261.8"/>
<text text-anchor="start" x="577" y="-274" font-family="Arial" font-size="14.00">grant_types </text>
<text text-anchor="start" x="654.05" y="-274" font-family="Arial" font-size="14.00" fill="#666666">[text]</text>
<polygon fill="none" stroke="black" points="570,-231 570,-261.8 876.63,-261.8 876.63,-231 570,-231"/>
<text text-anchor="start" x="577" y="-243.2" font-family="Arial" font-size="14.00">client_name </text>
<text text-anchor="start" x="656.38" y="-243.2" font-family="Arial" font-size="14.00" fill="#666666">[text]</text>
<polygon fill="none" stroke="black" points="570,-200.2 570,-231 876.63,-231 876.63,-200.2 570,-200.2"/>
<text text-anchor="start" x="577" y="-212.4" font-family="Arial" font-size="14.00">client_uri </text>
<text text-anchor="start" x="636.92" y="-212.4" font-family="Arial" font-size="14.00" fill="#666666">[text]</text>
<polygon fill="none" stroke="black" points="570,-169.4 570,-200.2 876.63,-200.2 876.63,-169.4 570,-169.4"/>
<text text-anchor="start" x="577" y="-181.6" font-family="Arial" font-size="14.00">logo_uri </text>
<text text-anchor="start" x="630.7" y="-181.6" font-family="Arial" font-size="14.00" fill="#666666">[text]</text>
<polygon fill="none" stroke="black" points="570,-138.6 570,-169.4 876.63,-169.4 876.63,-138.6 570,-138.6"/>
<text text-anchor="start" x="577" y="-150.8" font-family="Arial" font-size="14.00">created_at </text>
<text text-anchor="start" x="647.05" y="-150.8" font-family="Arial" font-size="14.00" fill="#666666">[timestamp with time zone]</text>
<polygon fill="none" stroke="black" points="570,-107.8 570,-138.6 876.63,-138.6 876.63,-107.8 570,-107.8"/>
<text text-anchor="start" x="577" y="-120" font-family="Arial" font-size="14.00">updated_at </text>
<text text-anchor="start" x="650.96" y="-120" font-family="Arial" font-size="14.00" fill="#666666">[timestamp with time zone]</text>
<polygon fill="none" stroke="black" points="570,-77 570,-107.8 876.63,-107.8 876.63,-77 570,-77"/>
<text text-anchor="start" x="577" y="-89.2" font-family="Arial" font-size="14.00">deleted_at </text>
<text text-anchor="start" x="646.28" y="-89.2" font-family="Arial" font-size="14.00" fill="#666666">[timestamp with time zone]</text>
<polygon fill="none" stroke="black" points="570,-46.2 570,-77 876.63,-77 876.63,-46.2 570,-46.2"/>
<text text-anchor="start" x="577" y="-58.4" font-family="Arial" font-size="14.00">client_type </text>
<text text-anchor="start" x="647.82" y="-58.4" font-family="Arial" font-size="14.00" fill="#666666">[auth.oauth_client_type]</text>
<polygon fill="none" stroke="black" stroke-width="3" points="568.5,-44.7 568.5,-452.9 878.13,-452.9 878.13,-44.7 568.5,-44.7"/>
</g>
<!-- auth.sessions -->
<g id="node2" class="node">
<title>auth.sessions</title>
<polygon fill="#efefef" stroke="none" points="156.47,-1069.6 156.47,-1105.2 438.16,-1105.2 438.16,-1069.6 156.47,-1069.6"/>
<polygon fill="none" stroke="black" points="156.47,-1069.6 156.47,-1105.2 438.16,-1105.2 438.16,-1069.6 156.47,-1069.6"/>
<text text-anchor="start" x="187.82" y="-1083" font-family="Arial Bold" font-size="18.00">auth.sessions</text>
<text text-anchor="start" x="282.32" y="-1083" font-family="Arial" font-size="14.00">    </text>
<text text-anchor="start" x="313.44" y="-1083" font-family="Arial" font-size="14.00" fill="#666666">[BASE TABLE]</text>
<polygon fill="none" stroke="black" points="156.47,-1038.8 156.47,-1069.6 438.16,-1069.6 438.16,-1038.8 156.47,-1038.8"/>
<text text-anchor="start" x="163.47" y="-1051" font-family="Arial" font-size="14.00">id </text>
<text text-anchor="start" x="178.26" y="-1051" font-family="Arial" font-size="14.00" fill="#666666">[uuid]</text>
<polygon fill="none" stroke="black" points="156.47,-1008 156.47,-1038.8 438.16,-1038.8 438.16,-1008 156.47,-1008"/>
<text text-anchor="start" x="163.47" y="-1020.2" font-family="Arial" font-size="14.00">user_id </text>
<text text-anchor="start" x="213.28" y="-1020.2" font-family="Arial" font-size="14.00" fill="#666666">[uuid]</text>
<polygon fill="none" stroke="black" points="156.47,-977.2 156.47,-1008 438.16,-1008 438.16,-977.2 156.47,-977.2"/>
<text text-anchor="start" x="163.47" y="-989.4" font-family="Arial" font-size="14.00">created_at </text>
<text text-anchor="start" x="233.52" y="-989.4" font-family="Arial" font-size="14.00" fill="#666666">[timestamp with time zone]</text>
<polygon fill="none" stroke="black" points="156.47,-946.4 156.47,-977.2 438.16,-977.2 438.16,-946.4 156.47,-946.4"/>
<text text-anchor="start" x="163.47" y="-958.6" font-family="Arial" font-size="14.00">updated_at </text>
<text text-anchor="start" x="237.43" y="-958.6" font-family="Arial" font-size="14.00" fill="#666666">[timestamp with time zone]</text>
<polygon fill="none" stroke="black" points="156.47,-915.6 156.47,-946.4 438.16,-946.4 438.16,-915.6 156.47,-915.6"/>
<text text-anchor="start" x="163.47" y="-927.8" font-family="Arial" font-size="14.00">factor_id </text>
<text text-anchor="start" x="221.06" y="-927.8" font-family="Arial" font-size="14.00" fill="#666666">[uuid]</text>
<polygon fill="none" stroke="black" points="156.47,-884.8 156.47,-915.6 438.16,-915.6 438.16,-884.8 156.47,-884.8"/>
<text text-anchor="start" x="163.47" y="-897" font-family="Arial" font-size="14.00">aal </text>
<text text-anchor="start" x="186.05" y="-897" font-family="Arial" font-size="14.00" fill="#666666">[auth.aal_level]</text>
<polygon fill="none" stroke="black" points="156.47,-854 156.47,-884.8 438.16,-884.8 438.16,-854 156.47,-854"/>
<text text-anchor="start" x="163.47" y="-866.2" font-family="Arial" font-size="14.00">not_after </text>
<text text-anchor="start" x="222.63" y="-866.2" font-family="Arial" font-size="14.00" fill="#666666">[timestamp with time zone]</text>
<polygon fill="none" stroke="black" points="156.47,-823.2 156.47,-854 438.16,-854 438.16,-823.2 156.47,-823.2"/>
<text text-anchor="start" x="163.47" y="-835.4" font-family="Arial" font-size="14.00">refreshed_at </text>
<text text-anchor="start" x="245.97" y="-835.4" font-family="Arial" font-size="14.00" fill="#666666">[timestamp without time zone]</text>
<polygon fill="none" stroke="black" points="156.47,-792.4 156.47,-823.2 438.16,-823.2 438.16,-792.4 156.47,-792.4"/>
<text text-anchor="start" x="163.47" y="-804.6" font-family="Arial" font-size="14.00">user_agent </text>
<text text-anchor="start" x="237.42" y="-804.6" font-family="Arial" font-size="14.00" fill="#666666">[text]</text>
<polygon fill="none" stroke="black" points="156.47,-761.6 156.47,-792.4 438.16,-792.4 438.16,-761.6 156.47,-761.6"/>
<text text-anchor="start" x="163.47" y="-773.8" font-family="Arial" font-size="14.00">ip </text>
<text text-anchor="start" x="178.26" y="-773.8" font-family="Arial" font-size="14.00" fill="#666666">[inet]</text>
<polygon fill="none" stroke="black" points="156.47,-730.8 156.47,-761.6 438.16,-761.6 438.16,-730.8 156.47,-730.8"/>
<text text-anchor="start" x="163.47" y="-743" font-family="Arial" font-size="14.00">tag </text>
<text text-anchor="start" x="186.83" y="-743" font-family="Arial" font-size="14.00" fill="#666666">[text]</text>
<polygon fill="none" stroke="black" points="156.47,-700 156.47,-730.8 438.16,-730.8 438.16,-700 156.47,-700"/>
<text text-anchor="start" x="163.47" y="-712.2" font-family="Arial" font-size="14.00">oauth_client_id </text>
<text text-anchor="start" x="261.55" y="-712.2" font-family="Arial" font-size="14.00" fill="#666666">[uuid]</text>
<polygon fill="none" stroke="black" points="156.47,-669.2 156.47,-700 438.16,-700 438.16,-669.2 156.47,-669.2"/>
<text text-anchor="start" x="163.47" y="-681.4" font-family="Arial" font-size="14.00">refresh_token_hmac_key </text>
<text text-anchor="start" x="324.56" y="-681.4" font-family="Arial" font-size="14.00" fill="#666666">[text]</text>
<polygon fill="none" stroke="black" points="156.47,-638.4 156.47,-669.2 438.16,-669.2 438.16,-638.4 156.47,-638.4"/>
<text text-anchor="start" x="163.47" y="-650.6" font-family="Arial" font-size="14.00">refresh_token_counter </text>
<text text-anchor="start" x="307.45" y="-650.6" font-family="Arial" font-size="14.00" fill="#666666">[bigint]</text>
<polygon fill="none" stroke="black" points="156.47,-607.6 156.47,-638.4 438.16,-638.4 438.16,-607.6 156.47,-607.6"/>
<text text-anchor="start" x="163.47" y="-619.8" font-family="Arial" font-size="14.00">scopes </text>
<text text-anchor="start" x="211.72" y="-619.8" font-family="Arial" font-size="14.00" fill="#666666">[text]</text>
</g>
<!-- auth.sessions&#45;&gt;auth.oauth_clients -->
<g id="edge1" class="edge">
<title>auth.sessions:oauth_client_id&#45;&gt;auth.oauth_clients:id</title>
<path fill="none" stroke="black" d="M449.17,-714.83C517.62,-706.46 458.74,-607.47 490.32,-533.6 517.34,-470.38 500.24,-400.4 569,-400.4"/>
<polygon fill="black" stroke="black" points="449.47,-714.81 439.23,-710.89 444.15,-715.12 439.82,-715.36 439.82,-715.36 439.82,-715.36 444.15,-715.12 439.75,-719.87 449.47,-714.81"/>
<text text-anchor="start" x="7" y="-725.4" font-family="Arial" font-size="10.00">FOREIGN KEY (oauth_client_id) REFERENCES auth.oauth_clients(id) ON DELETE CASCADE</text>
</g>
<!-- auth.oauth_authorizations -->
<g id="node3" class="node">
<title>auth.oauth_authorizations</title>
<polygon fill="#efefef" stroke="none" points="542.35,-1100.4 542.35,-1136 904.28,-1136 904.28,-1100.4 542.35,-1100.4"/>
<polygon fill="none" stroke="black" points="542.35,-1100.4 542.35,-1136 904.28,-1136 904.28,-1100.4 542.35,-1100.4"/>
<text text-anchor="start" x="567.85" y="-1113.8" font-family="Arial Bold" font-size="18.00">auth.oauth_authorizations</text>
<text text-anchor="start" x="754.3" y="-1113.8" font-family="Arial" font-size="14.00">    </text>
<text text-anchor="start" x="785.41" y="-1113.8" font-family="Arial" font-size="14.00" fill="#666666">[BASE TABLE]</text>
<polygon fill="none" stroke="black" points="542.35,-1069.6 542.35,-1100.4 904.28,-1100.4 904.28,-1069.6 542.35,-1069.6"/>
<text text-anchor="start" x="549.35" y="-1081.8" font-family="Arial" font-size="14.00">id </text>
<text text-anchor="start" x="564.13" y="-1081.8" font-family="Arial" font-size="14.00" fill="#666666">[uuid]</text>
<polygon fill="none" stroke="black" points="542.35,-1038.8 542.35,-1069.6 904.28,-1069.6 904.28,-1038.8 542.35,-1038.8"/>
<text text-anchor="start" x="549.35" y="-1051" font-family="Arial" font-size="14.00">authorization_id </text>
<text text-anchor="start" x="652.08" y="-1051" font-family="Arial" font-size="14.00" fill="#666666">[text]</text>
<polygon fill="none" stroke="black" points="542.35,-1008 542.35,-1038.8 904.28,-1038.8 904.28,-1008 542.35,-1008"/>
<text text-anchor="start" x="549.35" y="-1020.2" font-family="Arial" font-size="14.00">client_id </text>
<text text-anchor="start" x="604.6" y="-1020.2" font-family="Arial" font-size="14.00" fill="#666666">[uuid]</text>
<polygon fill="none" stroke="black" points="542.35,-977.2 542.35,-1008 904.28,-1008 904.28,-977.2 542.35,-977.2"/>
<text text-anchor="start" x="549.35" y="-989.4" font-family="Arial" font-size="14.00">user_id </text>
<text text-anchor="start" x="599.15" y="-989.4" font-family="Arial" font-size="14.00" fill="#666666">[uuid]</text>
<polygon fill="none" stroke="black" points="542.35,-946.4 542.35,-977.2 904.28,-977.2 904.28,-946.4 542.35,-946.4"/>
<text text-anchor="start" x="549.35" y="-958.6" font-family="Arial" font-size="14.00">redirect_uri </text>
<text text-anchor="start" x="623.26" y="-958.6" font-family="Arial" font-size="14.00" fill="#666666">[text]</text>
<polygon fill="none" stroke="black" points="542.35,-915.6 542.35,-946.4 904.28,-946.4 904.28,-915.6 542.35,-915.6"/>
<text text-anchor="start" x="549.35" y="-927.8" font-family="Arial" font-size="14.00">scope </text>
<text text-anchor="start" x="590.6" y="-927.8" font-family="Arial" font-size="14.00" fill="#666666">[text]</text>
<polygon fill="none" stroke="black" points="542.35,-884.8 542.35,-915.6 904.28,-915.6 904.28,-884.8 542.35,-884.8"/>
<text text-anchor="start" x="549.35" y="-897" font-family="Arial" font-size="14.00">state </text>
<text text-anchor="start" x="583.59" y="-897" font-family="Arial" font-size="14.00" fill="#666666">[text]</text>
<polygon fill="none" stroke="black" points="542.35,-854 542.35,-884.8 904.28,-884.8 904.28,-854 542.35,-854"/>
<text text-anchor="start" x="549.35" y="-866.2" font-family="Arial" font-size="14.00">resource </text>
<text text-anchor="start" x="607.71" y="-866.2" font-family="Arial" font-size="14.00" fill="#666666">[text]</text>
<polygon fill="none" stroke="black" points="542.35,-823.2 542.35,-854 904.28,-854 904.28,-823.2 542.35,-823.2"/>
<text text-anchor="start" x="549.35" y="-835.4" font-family="Arial" font-size="14.00">code_challenge </text>
<text text-anchor="start" x="651.32" y="-835.4" font-family="Arial" font-size="14.00" fill="#666666">[text]</text>
<polygon fill="none" stroke="black" points="542.35,-792.4 542.35,-823.2 904.28,-823.2 904.28,-792.4 542.35,-792.4"/>
<text text-anchor="start" x="549.35" y="-804.6" font-family="Arial" font-size="14.00">code_challenge_method </text>
<text text-anchor="start" x="705.8" y="-804.6" font-family="Arial" font-size="14.00" fill="#666666">[auth.code_challenge_method]</text>
<polygon fill="none" stroke="black" points="542.35,-761.6 542.35,-792.4 904.28,-792.4 904.28,-761.6 542.35,-761.6"/>
<text text-anchor="start" x="549.35" y="-773.8" font-family="Arial" font-size="14.00">response_type </text>
<text text-anchor="start" x="645.08" y="-773.8" font-family="Arial" font-size="14.00" fill="#666666">[auth.oauth_response_type]</text>
<polygon fill="none" stroke="black" points="542.35,-730.8 542.35,-761.6 904.28,-761.6 904.28,-730.8 542.35,-730.8"/>
<text text-anchor="start" x="549.35" y="-743" font-family="Arial" font-size="14.00">status </text>
<text text-anchor="start" x="590.59" y="-743" font-family="Arial" font-size="14.00" fill="#666666">[auth.oauth_authorization_status]</text>
<polygon fill="none" stroke="black" points="542.35,-700 542.35,-730.8 904.28,-730.8 904.28,-700 542.35,-700"/>
<text text-anchor="start" x="549.35" y="-712.2" font-family="Arial" font-size="14.00">authorization_code </text>
<text text-anchor="start" x="671.55" y="-712.2" font-family="Arial" font-size="14.00" fill="#666666">[text]</text>
<polygon fill="none" stroke="black" points="542.35,-669.2 542.35,-700 904.28,-700 904.28,-669.2 542.35,-669.2"/>
<text text-anchor="start" x="549.35" y="-681.4" font-family="Arial" font-size="14.00">created_at </text>
<text text-anchor="start" x="619.4" y="-681.4" font-family="Arial" font-size="14.00" fill="#666666">[timestamp with time zone]</text>
<polygon fill="none" stroke="black" points="542.35,-638.4 542.35,-669.2 904.28,-669.2 904.28,-638.4 542.35,-638.4"/>
<text text-anchor="start" x="549.35" y="-650.6" font-family="Arial" font-size="14.00">expires_at </text>
<text text-anchor="start" x="617.83" y="-650.6" font-family="Arial" font-size="14.00" fill="#666666">[timestamp with time zone]</text>
<polygon fill="none" stroke="black" points="542.35,-607.6 542.35,-638.4 904.28,-638.4 904.28,-607.6 542.35,-607.6"/>
<text text-anchor="start" x="549.35" y="-619.8" font-family="Arial" font-size="14.00">approved_at </text>
<text text-anchor="start" x="631.08" y="-619.8" font-family="Arial" font-size="14.00" fill="#666666">[timestamp with time zone]</text>
<polygon fill="none" stroke="black" points="542.35,-576.8 542.35,-607.6 904.28,-607.6 904.28,-576.8 542.35,-576.8"/>
<text text-anchor="start" x="549.35" y="-589" font-family="Arial" font-size="14.00">nonce </text>
<text text-anchor="start" x="591.38" y="-589" font-family="Arial" font-size="14.00" fill="#666666">[text]</text>
</g>
<!-- auth.oauth_authorizations&#45;&gt;auth.oauth_clients -->
<g id="edge2" class="edge">
<title>auth.oauth_authorizations:client_id&#45;&gt;auth.oauth_clients:id</title>
<path fill="none" stroke="black" d="M914.75,-1019.09C971.77,-964.05 943.54,-400.4 877.63,-400.4"/>
<polygon fill="black" stroke="black" points="914.69,-1019.12 903.72,-1019.17 909.83,-1021.33 905.89,-1023.12 905.89,-1023.12 905.89,-1023.12 909.83,-1021.33 907.45,-1027.36 914.69,-1019.12"/>
<text text-anchor="start" x="912.28" y="-1033.4" font-family="Arial" font-size="10.00">FOREIGN KEY (client_id) REFERENCES auth.oauth_clients(id) ON DELETE CASCADE</text>
</g>
<!-- auth.oauth_consents -->
<g id="node4" class="node">
<title>auth.oauth_consents</title>
<polygon fill="#efefef" stroke="none" points="1008.84,-931 1008.84,-966.6 1293.79,-966.6 1293.79,-931 1008.84,-931"/>
<polygon fill="none" stroke="black" points="1008.84,-931 1008.84,-966.6 1293.79,-966.6 1293.79,-931 1008.84,-931"/>
<text text-anchor="start" x="1015.84" y="-944.4" font-family="Arial Bold" font-size="18.00">auth.oauth_consents</text>
<text text-anchor="start" x="1162.31" y="-944.4" font-family="Arial" font-size="14.00">    </text>
<text text-anchor="start" x="1193.42" y="-944.4" font-family="Arial" font-size="14.00" fill="#666666">[BASE TABLE]</text>
<polygon fill="none" stroke="black" points="1008.84,-900.2 1008.84,-931 1293.79,-931 1293.79,-900.2 1008.84,-900.2"/>
<text text-anchor="start" x="1015.84" y="-912.4" font-family="Arial" font-size="14.00">id </text>
<text text-anchor="start" x="1030.62" y="-912.4" font-family="Arial" font-size="14.00" fill="#666666">[uuid]</text>
<polygon fill="none" stroke="black" points="1008.84,-869.4 1008.84,-900.2 1293.79,-900.2 1293.79,-869.4 1008.84,-869.4"/>
<text text-anchor="start" x="1015.84" y="-881.6" font-family="Arial" font-size="14.00">user_id </text>
<text text-anchor="start" x="1065.64" y="-881.6" font-family="Arial" font-size="14.00" fill="#666666">[uuid]</text>
<polygon fill="none" stroke="black" points="1008.84,-838.6 1008.84,-869.4 1293.79,-869.4 1293.79,-838.6 1008.84,-838.6"/>
<text text-anchor="start" x="1015.84" y="-850.8" font-family="Arial" font-size="14.00">client_id </text>
<text text-anchor="start" x="1071.09" y="-850.8" font-family="Arial" font-size="14.00" fill="#666666">[uuid]</text>
<polygon fill="none" stroke="black" points="1008.84,-807.8 1008.84,-838.6 1293.79,-838.6 1293.79,-807.8 1008.84,-807.8"/>
<text text-anchor="start" x="1015.84" y="-820" font-family="Arial" font-size="14.00">scopes </text>
<text text-anchor="start" x="1064.08" y="-820" font-family="Arial" font-size="14.00" fill="#666666">[text]</text>
<polygon fill="none" stroke="black" points="1008.84,-777 1008.84,-807.8 1293.79,-807.8 1293.79,-777 1008.84,-777"/>
<text text-anchor="start" x="1015.84" y="-789.2" font-family="Arial" font-size="14.00">granted_at </text>
<text text-anchor="start" x="1086.67" y="-789.2" font-family="Arial" font-size="14.00" fill="#666666">[timestamp with time zone]</text>
<polygon fill="none" stroke="black" points="1008.84,-746.2 1008.84,-777 1293.79,-777 1293.79,-746.2 1008.84,-746.2"/>
<text text-anchor="start" x="1015.84" y="-758.4" font-family="Arial" font-size="14.00">revoked_at </text>
<text text-anchor="start" x="1088.99" y="-758.4" font-family="Arial" font-size="14.00" fill="#666666">[timestamp with time zone]</text>
</g>
<!-- auth.oauth_consents&#45;&gt;auth.oauth_clients -->
<g id="edge3" class="edge">
<title>auth.oauth_consents:client_id&#45;&gt;auth.oauth_clients:id</title>
<path fill="none" stroke="black" d="M997.73,-852.1C940.12,-828.82 979.56,-597.98 956.32,-533.6 932.96,-468.93 946.39,-400.4 877.63,-400.4"/>
<polygon fill="black" stroke="black" points="997.68,-852.09 1006.68,-858.36 1002.92,-853.08 1007.18,-853.88 1007.18,-853.88 1007.18,-853.88 1002.92,-853.08 1008.34,-849.52 997.68,-852.09"/>
<text text-anchor="start" x="1014.84" y="-864" font-family="Arial" font-size="10.00">FOREIGN KEY (client_id) REFERENCES auth.oauth_clients(id) ON DELETE CASCADE</text>
</g>
</g>
</svg>
