<?xml version="1.0" encoding="UTF-8" standalone="no"?>
<!DOCTYPE svg PUBLIC "-//W3C//DTD SVG 1.1//EN"
 "http://www.w3.org/Graphics/SVG/1.1/DTD/svg11.dtd">
<!-- Generated by graphviz version 12.1.2 (20240928.0832)
 -->
<!-- Title: auth.oauth_consents Pages: 1 -->
<svg width="1074pt" height="1557pt"
 viewBox="0.00 0.00 1073.73 1556.80" xmlns="http://www.w3.org/2000/svg" xmlns:xlink="http://www.w3.org/1999/xlink">
<g id="graph0" class="graph" transform="scale(1 1) rotate(0) translate(4 1552.8)">
<title>auth.oauth_consents</title>
<polygon fill="white" stroke="none" points="-4,4 -4,-1552.8 1069.73,-1552.8 1069.73,4 -4,4"/>
<!-- auth.oauth_consents -->
<g id="node1" class="node">
<title>auth.oauth_consents</title>
<polygon fill="#efefef" stroke="none" points="371.2,-1467 371.2,-1502.6 656.16,-1502.6 656.16,-1467 371.2,-1467"/>
<polygon fill="none" stroke="black" points="371.2,-1467 371.2,-1502.6 656.16,-1502.6 656.16,-1467 371.2,-1467"/>
<text text-anchor="start" x="378.2" y="-1480.4" font-family="Arial Bold" font-size="18.00">auth.oauth_consents</text>
<text text-anchor="start" x="524.67" y="-1480.4" font-family="Arial" font-size="14.00">    </text>
<text text-anchor="start" x="555.79" y="-1480.4" font-family="Arial" font-size="14.00" fill="#666666">[BASE TABLE]</text>
<polygon fill="none" stroke="black" points="371.2,-1436.2 371.2,-1467 656.16,-1467 656.16,-1436.2 371.2,-1436.2"/>
<text text-anchor="start" x="378.2" y="-1448.4" font-family="Arial" font-size="14.00">id </text>
<text text-anchor="start" x="392.99" y="-1448.4" font-family="Arial" font-size="14.00" fill="#666666">[uuid]</text>
<polygon fill="none" stroke="black" points="371.2,-1405.4 371.2,-1436.2 656.16,-1436.2 656.16,-1405.4 371.2,-1405.4"/>
<text text-anchor="start" x="378.2" y="-1417.6" font-family="Arial" font-size="14.00">user_id </text>
<text text-anchor="start" x="428.01" y="-1417.6" font-family="Arial" font-size="14.00" fill="#666666">[uuid]</text>
<polygon fill="none" stroke="black" points="371.2,-1374.6 371.2,-1405.4 656.16,-1405.4 656.16,-1374.6 371.2,-1374.6"/>
<text text-anchor="start" x="378.2" y="-1386.8" font-family="Arial" font-size="14.00">client_id </text>
<text text-anchor="start" x="433.46" y="-1386.8" font-family="Arial" font-size="14.00" fill="#666666">[uuid]</text>
<polygon fill="none" stroke="black" points="371.2,-1343.8 371.2,-1374.6 656.16,-1374.6 656.16,-1343.8 371.2,-1343.8"/>
<text text-anchor="start" x="378.2" y="-1356" font-family="Arial" font-size="14.00">scopes </text>
<text text-anchor="start" x="426.45" y="-1356" font-family="Arial" font-size="14.00" fill="#666666">[text]</text>
<polygon fill="none" stroke="black" points="371.2,-1313 371.2,-1343.8 656.16,-1343.8 656.16,-1313 371.2,-1313"/>
<text text-anchor="start" x="378.2" y="-1325.2" font-family="Arial" font-size="14.00">granted_at </text>
<text text-anchor="start" x="449.04" y="-1325.2" font-family="Arial" font-size="14.00" fill="#666666">[timestamp with time zone]</text>
<polygon fill="none" stroke="black" points="371.2,-1282.2 371.2,-1313 656.16,-1313 656.16,-1282.2 371.2,-1282.2"/>
<text text-anchor="start" x="378.2" y="-1294.4" font-family="Arial" font-size="14.00">revoked_at </text>
<text text-anchor="start" x="451.36" y="-1294.4" font-family="Arial" font-size="14.00" fill="#666666">[timestamp with time zone]</text>
<polygon fill="none" stroke="black" stroke-width="3" points="369.7,-1280.7 369.7,-1504.1 657.66,-1504.1 657.66,-1280.7 369.7,-1280.7"/>
</g>
<!-- auth.users -->
<g id="node2" class="node">
<title>auth.users</title>
<polygon fill="#efefef" stroke="none" points="132.21,-1121.2 132.21,-1156.8 469.16,-1156.8 469.16,-1121.2 132.21,-1121.2"/>
<polygon fill="none" stroke="black" points="132.21,-1121.2 132.21,-1156.8 469.16,-1156.8 469.16,-1121.2 132.21,-1121.2"/>
<text text-anchor="start" x="202.19" y="-1134.6" font-family="Arial Bold" font-size="18.00">auth.users</text>
<text text-anchor="start" x="274.68" y="-1134.6" font-family="Arial" font-size="14.00">    </text>
<text text-anchor="start" x="305.79" y="-1134.6" font-family="Arial" font-size="14.00" fill="#666666">[BASE TABLE]</text>
<polygon fill="none" stroke="black" points="132.21,-1090.4 132.21,-1121.2 469.16,-1121.2 469.16,-1090.4 132.21,-1090.4"/>
<text text-anchor="start" x="139.21" y="-1102.6" font-family="Arial" font-size="14.00">instance_id </text>
<text text-anchor="start" x="213.92" y="-1102.6" font-family="Arial" font-size="14.00" fill="#666666">[uuid]</text>
<polygon fill="none" stroke="black" points="132.21,-1059.6 132.21,-1090.4 469.16,-1090.4 469.16,-1059.6 132.21,-1059.6"/>
<text text-anchor="start" x="139.21" y="-1071.8" font-family="Arial" font-size="14.00">id </text>
<text text-anchor="start" x="153.99" y="-1071.8" font-family="Arial" font-size="14.00" fill="#666666">[uuid]</text>
<polygon fill="none" stroke="black" points="132.21,-1028.8 132.21,-1059.6 469.16,-1059.6 469.16,-1028.8 132.21,-1028.8"/>
<text text-anchor="start" x="139.21" y="-1041" font-family="Arial" font-size="14.00">aud </text>
<text text-anchor="start" x="166.45" y="-1041" font-family="Arial" font-size="14.00" fill="#666666">[varchar(255)]</text>
<polygon fill="none" stroke="black" points="132.21,-998 132.21,-1028.8 469.16,-1028.8 469.16,-998 132.21,-998"/>
<text text-anchor="start" x="139.21" y="-1010.2" font-family="Arial" font-size="14.00">role </text>
<text text-anchor="start" x="166.44" y="-1010.2" font-family="Arial" font-size="14.00" fill="#666666">[varchar(255)]</text>
<polygon fill="none" stroke="black" points="132.21,-967.2 132.21,-998 469.16,-998 469.16,-967.2 132.21,-967.2"/>
<text text-anchor="start" x="139.21" y="-979.4" font-family="Arial" font-size="14.00">email </text>
<text text-anchor="start" x="176.55" y="-979.4" font-family="Arial" font-size="14.00" fill="#666666">[varchar(255)]</text>
<polygon fill="none" stroke="black" points="132.21,-936.4 132.21,-967.2 469.16,-967.2 469.16,-936.4 132.21,-936.4"/>
<text text-anchor="start" x="139.21" y="-948.6" font-family="Arial" font-size="14.00">encrypted_password </text>
<text text-anchor="start" x="272.28" y="-948.6" font-family="Arial" font-size="14.00" fill="#666666">[varchar(255)]</text>
<polygon fill="none" stroke="black" points="132.21,-905.6 132.21,-936.4 469.16,-936.4 469.16,-905.6 132.21,-905.6"/>
<text text-anchor="start" x="139.21" y="-917.8" font-family="Arial" font-size="14.00">email_confirmed_at </text>
<text text-anchor="start" x="265.27" y="-917.8" font-family="Arial" font-size="14.00" fill="#666666">[timestamp with time zone]</text>
<polygon fill="none" stroke="black" points="132.21,-874.8 132.21,-905.6 469.16,-905.6 469.16,-874.8 132.21,-874.8"/>
<text text-anchor="start" x="139.21" y="-887" font-family="Arial" font-size="14.00">invited_at </text>
<text text-anchor="start" x="203.03" y="-887" font-family="Arial" font-size="14.00" fill="#666666">[timestamp with time zone]</text>
<polygon fill="none" stroke="black" points="132.21,-844 132.21,-874.8 469.16,-874.8 469.16,-844 132.21,-844"/>
<text text-anchor="start" x="139.21" y="-856.2" font-family="Arial" font-size="14.00">confirmation_token </text>
<text text-anchor="start" x="261.38" y="-856.2" font-family="Arial" font-size="14.00" fill="#666666">[varchar(255)]</text>
<polygon fill="none" stroke="black" points="132.21,-813.2 132.21,-844 469.16,-844 469.16,-813.2 132.21,-813.2"/>
<text text-anchor="start" x="139.21" y="-825.4" font-family="Arial" font-size="14.00">confirmation_sent_at </text>
<text text-anchor="start" x="273.06" y="-825.4" font-family="Arial" font-size="14.00" fill="#666666">[timestamp with time zone]</text>
<polygon fill="none" stroke="black" points="132.21,-782.4 132.21,-813.2 469.16,-813.2 469.16,-782.4 132.21,-782.4"/>
<text text-anchor="start" x="139.21" y="-794.6" font-family="Arial" font-size="14.00">recovery_token </text>
<text text-anchor="start" x="238.81" y="-794.6" font-family="Arial" font-size="14.00" fill="#666666">[varchar(255)]</text>
<polygon fill="none" stroke="black" points="132.21,-751.6 132.21,-782.4 469.16,-782.4 469.16,-751.6 132.21,-751.6"/>
<text text-anchor="start" x="139.21" y="-763.8" font-family="Arial" font-size="14.00">recovery_sent_at </text>
<text text-anchor="start" x="250.49" y="-763.8" font-family="Arial" font-size="14.00" fill="#666666">[timestamp with time zone]</text>
<polygon fill="none" stroke="black" points="132.21,-720.8 132.21,-751.6 469.16,-751.6 469.16,-720.8 132.21,-720.8"/>
<text text-anchor="start" x="139.21" y="-733" font-family="Arial" font-size="14.00">email_change_token_new </text>
<text text-anchor="start" x="305.77" y="-733" font-family="Arial" font-size="14.00" fill="#666666">[varchar(255)]</text>
<polygon fill="none" stroke="black" points="132.21,-690 132.21,-720.8 469.16,-720.8 469.16,-690 132.21,-690"/>
<text text-anchor="start" x="139.21" y="-702.2" font-family="Arial" font-size="14.00">email_change </text>
<text text-anchor="start" x="230.27" y="-702.2" font-family="Arial" font-size="14.00" fill="#666666">[varchar(255)]</text>
<polygon fill="none" stroke="black" points="132.21,-659.2 132.21,-690 469.16,-690 469.16,-659.2 132.21,-659.2"/>
<text text-anchor="start" x="139.21" y="-671.4" font-family="Arial" font-size="14.00">email_change_sent_at </text>
<text text-anchor="start" x="283.98" y="-671.4" font-family="Arial" font-size="14.00" fill="#666666">[timestamp with time zone]</text>
<polygon fill="none" stroke="black" points="132.21,-628.4 132.21,-659.2 469.16,-659.2 469.16,-628.4 132.21,-628.4"/>
<text text-anchor="start" x="139.21" y="-640.6" font-family="Arial" font-size="14.00">last_sign_in_at </text>
<text text-anchor="start" x="236.49" y="-640.6" font-family="Arial" font-size="14.00" fill="#666666">[timestamp with time zone]</text>
<polygon fill="none" stroke="black" points="132.21,-597.6 132.21,-628.4 469.16,-628.4 469.16,-597.6 132.21,-597.6"/>
<text text-anchor="start" x="139.21" y="-609.8" font-family="Arial" font-size="14.00">raw_app_meta_data </text>
<text text-anchor="start" x="270.74" y="-609.8" font-family="Arial" font-size="14.00" fill="#666666">[jsonb]</text>
<polygon fill="none" stroke="black" points="132.21,-566.8 132.21,-597.6 469.16,-597.6 469.16,-566.8 132.21,-566.8"/>
<text text-anchor="start" x="139.21" y="-579" font-family="Arial" font-size="14.00">raw_user_meta_data </text>
<text text-anchor="start" x="274.62" y="-579" font-family="Arial" font-size="14.00" fill="#666666">[jsonb]</text>
<polygon fill="none" stroke="black" points="132.21,-536 132.21,-566.8 469.16,-566.8 469.16,-536 132.21,-536"/>
<text text-anchor="start" x="139.21" y="-548.2" font-family="Arial" font-size="14.00">is_super_admin </text>
<text text-anchor="start" x="241.93" y="-548.2" font-family="Arial" font-size="14.00" fill="#666666">[boolean]</text>
<polygon fill="none" stroke="black" points="132.21,-505.2 132.21,-536 469.16,-536 469.16,-505.2 132.21,-505.2"/>
<text text-anchor="start" x="139.21" y="-517.4" font-family="Arial" font-size="14.00">created_at </text>
<text text-anchor="start" x="209.25" y="-517.4" font-family="Arial" font-size="14.00" fill="#666666">[timestamp with time zone]</text>
<polygon fill="none" stroke="black" points="132.21,-474.4 132.21,-505.2 469.16,-505.2 469.16,-474.4 132.21,-474.4"/>
<text text-anchor="start" x="139.21" y="-486.6" font-family="Arial" font-size="14.00">updated_at </text>
<text text-anchor="start" x="213.16" y="-486.6" font-family="Arial" font-size="14.00" fill="#666666">[timestamp with time zone]</text>
<polygon fill="none" stroke="black" points="132.21,-443.6 132.21,-474.4 469.16,-474.4 469.16,-443.6 132.21,-443.6"/>
<text text-anchor="start" x="139.21" y="-455.8" font-family="Arial" font-size="14.00">phone </text>
<text text-anchor="start" x="182.03" y="-455.8" font-family="Arial" font-size="14.00" fill="#666666">[text]</text>
<polygon fill="none" stroke="black" points="132.21,-412.8 132.21,-443.6 469.16,-443.6 469.16,-412.8 132.21,-412.8"/>
<text text-anchor="start" x="139.21" y="-425" font-family="Arial" font-size="14.00">phone_confirmed_at </text>
<text text-anchor="start" x="270.74" y="-425" font-family="Arial" font-size="14.00" fill="#666666">[timestamp with time zone]</text>
<polygon fill="none" stroke="black" points="132.21,-382 132.21,-412.8 469.16,-412.8 469.16,-382 132.21,-382"/>
<text text-anchor="start" x="139.21" y="-394.2" font-family="Arial" font-size="14.00">phone_change </text>
<text text-anchor="start" x="235.74" y="-394.2" font-family="Arial" font-size="14.00" fill="#666666">[text]</text>
<polygon fill="none" stroke="black" points="132.21,-351.2 132.21,-382 469.16,-382 469.16,-351.2 132.21,-351.2"/>
<text text-anchor="start" x="139.21" y="-363.4" font-family="Arial" font-size="14.00">phone_change_token </text>
<text text-anchor="start" x="277.78" y="-363.4" font-family="Arial" font-size="14.00" fill="#666666">[varchar(255)]</text>
<polygon fill="none" stroke="black" points="132.21,-320.4 132.21,-351.2 469.16,-351.2 469.16,-320.4 132.21,-320.4"/>
<text text-anchor="start" x="139.21" y="-332.6" font-family="Arial" font-size="14.00">phone_change_sent_at </text>
<text text-anchor="start" x="289.45" y="-332.6" font-family="Arial" font-size="14.00" fill="#666666">[timestamp with time zone]</text>
<polygon fill="none" stroke="black" points="132.21,-289.6 132.21,-320.4 469.16,-320.4 469.16,-289.6 132.21,-289.6"/>
<text text-anchor="start" x="139.21" y="-301.8" font-family="Arial" font-size="14.00">confirmed_at </text>
<text text-anchor="start" x="224.03" y="-301.8" font-family="Arial" font-size="14.00" fill="#666666">[timestamp with time zone]</text>
<polygon fill="none" stroke="black" points="132.21,-258.8 132.21,-289.6 469.16,-289.6 469.16,-258.8 132.21,-258.8"/>
<text text-anchor="start" x="139.21" y="-271" font-family="Arial" font-size="14.00">email_change_token_current </text>
<text text-anchor="start" x="323.66" y="-271" font-family="Arial" font-size="14.00" fill="#666666">[varchar(255)]</text>
<polygon fill="none" stroke="black" points="132.21,-228 132.21,-258.8 469.16,-258.8 469.16,-228 132.21,-228"/>
<text text-anchor="start" x="139.21" y="-240.2" font-family="Arial" font-size="14.00">email_change_confirm_status </text>
<text text-anchor="start" x="329.09" y="-240.2" font-family="Arial" font-size="14.00" fill="#666666">[smallint]</text>
<polygon fill="none" stroke="black" points="132.21,-197.2 132.21,-228 469.16,-228 469.16,-197.2 132.21,-197.2"/>
<text text-anchor="start" x="139.21" y="-209.4" font-family="Arial" font-size="14.00">banned_until </text>
<text text-anchor="start" x="223.28" y="-209.4" font-family="Arial" font-size="14.00" fill="#666666">[timestamp with time zone]</text>
<polygon fill="none" stroke="black" points="132.21,-166.4 132.21,-197.2 469.16,-197.2 469.16,-166.4 132.21,-166.4"/>
<text text-anchor="start" x="139.21" y="-178.6" font-family="Arial" font-size="14.00">reauthentication_token </text>
<text text-anchor="start" x="284.76" y="-178.6" font-family="Arial" font-size="14.00" fill="#666666">[varchar(255)]</text>
<polygon fill="none" stroke="black" points="132.21,-135.6 132.21,-166.4 469.16,-166.4 469.16,-135.6 132.21,-135.6"/>
<text text-anchor="start" x="139.21" y="-147.8" font-family="Arial" font-size="14.00">reauthentication_sent_at </text>
<text text-anchor="start" x="296.43" y="-147.8" font-family="Arial" font-size="14.00" fill="#666666">[timestamp with time zone]</text>
<polygon fill="none" stroke="black" points="132.21,-104.8 132.21,-135.6 469.16,-135.6 469.16,-104.8 132.21,-104.8"/>
<text text-anchor="start" x="139.21" y="-117" font-family="Arial" font-size="14.00">is_sso_user </text>
<text text-anchor="start" x="217.8" y="-117" font-family="Arial" font-size="14.00" fill="#666666">[boolean]</text>
<polygon fill="none" stroke="black" points="132.21,-74 132.21,-104.8 469.16,-104.8 469.16,-74 132.21,-74"/>
<text text-anchor="start" x="139.21" y="-86.2" font-family="Arial" font-size="14.00">deleted_at </text>
<text text-anchor="start" x="208.49" y="-86.2" font-family="Arial" font-size="14.00" fill="#666666">[timestamp with time zone]</text>
<polygon fill="none" stroke="black" points="132.21,-43.2 132.21,-74 469.16,-74 469.16,-43.2 132.21,-43.2"/>
<text text-anchor="start" x="139.21" y="-55.4" font-family="Arial" font-size="14.00">is_anonymous </text>
<text text-anchor="start" x="233.37" y="-55.4" font-family="Arial" font-size="14.00" fill="#666666">[boolean]</text>
</g>
<!-- auth.oauth_consents&#45;&gt;auth.users -->
<g id="edge1" class="edge">
<title>auth.oauth_consents:user_id&#45;&gt;auth.users:id</title>
<path fill="none" stroke="black" d="M359.84,-1420.1C291.32,-1410.34 326.13,-1300.21 371.2,-1236 397.85,-1198.04 442.46,-1237.93 469.16,-1200 501.13,-1154.57 525.71,-1075 470.16,-1075"/>
<polygon fill="black" stroke="black" points="359.89,-1420.11 369.57,-1425.27 365.21,-1420.46 369.53,-1420.76 369.53,-1420.76 369.53,-1420.76 365.21,-1420.46 370.17,-1416.29 359.89,-1420.11"/>
<text text-anchor="start" x="7" y="-1430.8" font-family="Arial" font-size="10.00">FOREIGN KEY (user_id) REFERENCES auth.users(id) ON DELETE CASCADE</text>
</g>
<!-- auth.oauth_clients -->
<g id="node3" class="node">
<title>auth.oauth_clients</title>
<polygon fill="#efefef" stroke="none" points="573.36,-767 573.36,-802.6 880,-802.6 880,-767 573.36,-767"/>
<polygon fill="none" stroke="black" points="573.36,-767 573.36,-802.6 880,-802.6 880,-767 573.36,-767"/>
<text text-anchor="start" x="598.7" y="-780.4" font-family="Arial Bold" font-size="18.00">auth.oauth_clients</text>
<text text-anchor="start" x="730.17" y="-780.4" font-family="Arial" font-size="14.00">    </text>
<text text-anchor="start" x="761.29" y="-780.4" font-family="Arial" font-size="14.00" fill="#666666">[BASE TABLE]</text>
<polygon fill="none" stroke="black" points="573.36,-736.2 573.36,-767 880,-767 880,-736.2 573.36,-736.2"/>
<text text-anchor="start" x="580.36" y="-748.4" font-family="Arial" font-size="14.00">id </text>
<text text-anchor="start" x="595.15" y="-748.4" font-family="Arial" font-size="14.00" fill="#666666">[uuid]</text>
<polygon fill="none" stroke="black" points="573.36,-705.4 573.36,-736.2 880,-736.2 880,-705.4 573.36,-705.4"/>
<text text-anchor="start" x="580.36" y="-717.6" font-family="Arial" font-size="14.00">client_secret_hash </text>
<text text-anchor="start" x="700.99" y="-717.6" font-family="Arial" font-size="14.00" fill="#666666">[text]</text>
<polygon fill="none" stroke="black" points="573.36,-674.6 573.36,-705.4 880,-705.4 880,-674.6 573.36,-674.6"/>
<text text-anchor="start" x="580.36" y="-686.8" font-family="Arial" font-size="14.00">registration_type </text>
<text text-anchor="start" x="687.76" y="-686.8" font-family="Arial" font-size="14.00" fill="#666666">[auth.oauth_registration_type]</text>
<polygon fill="none" stroke="black" points="573.36,-643.8 573.36,-674.6 880,-674.6 880,-643.8 573.36,-643.8"/>
<text text-anchor="start" x="580.36" y="-656" font-family="Arial" font-size="14.00">redirect_uris </text>
<text text-anchor="start" x="661.28" y="-656" font-family="Arial" font-size="14.00" fill="#666666">[text]</text>
<polygon fill="none" stroke="black" points="573.36,-613 573.36,-643.8 880,-643.8 880,-613 573.36,-613"/>
<text text-anchor="start" x="580.36" y="-625.2" font-family="Arial" font-size="14.00">grant_types </text>
<text text-anchor="start" x="657.41" y="-625.2" font-family="Arial" font-size="14.00" fill="#666666">[text]</text>
<polygon fill="none" stroke="black" points="573.36,-582.2 573.36,-613 880,-613 880,-582.2 573.36,-582.2"/>
<text text-anchor="start" x="580.36" y="-594.4" font-family="Arial" font-size="14.00">client_name </text>
<text text-anchor="start" x="659.74" y="-594.4" font-family="Arial" font-size="14.00" fill="#666666">[text]</text>
<polygon fill="none" stroke="black" points="573.36,-551.4 573.36,-582.2 880,-582.2 880,-551.4 573.36,-551.4"/>
<text text-anchor="start" x="580.36" y="-563.6" font-family="Arial" font-size="14.00">client_uri </text>
<text text-anchor="start" x="640.28" y="-563.6" font-family="Arial" font-size="14.00" fill="#666666">[text]</text>
<polygon fill="none" stroke="black" points="573.36,-520.6 573.36,-551.4 880,-551.4 880,-520.6 573.36,-520.6"/>
<text text-anchor="start" x="580.36" y="-532.8" font-family="Arial" font-size="14.00">logo_uri </text>
<text text-anchor="start" x="634.07" y="-532.8" font-family="Arial" font-size="14.00" fill="#666666">[text]</text>
<polygon fill="none" stroke="black" points="573.36,-489.8 573.36,-520.6 880,-520.6 880,-489.8 573.36,-489.8"/>
<text text-anchor="start" x="580.36" y="-502" font-family="Arial" font-size="14.00">created_at </text>
<text text-anchor="start" x="650.41" y="-502" font-family="Arial" font-size="14.00" fill="#666666">[timestamp with time zone]</text>
<polygon fill="none" stroke="black" points="573.36,-459 573.36,-489.8 880,-489.8 880,-459 573.36,-459"/>
<text text-anchor="start" x="580.36" y="-471.2" font-family="Arial" font-size="14.00">updated_at </text>
<text text-anchor="start" x="654.32" y="-471.2" font-family="Arial" font-size="14.00" fill="#666666">[timestamp with time zone]</text>
<polygon fill="none" stroke="black" points="573.36,-428.2 573.36,-459 880,-459 880,-428.2 573.36,-428.2"/>
<text text-anchor="start" x="580.36" y="-440.4" font-family="Arial" font-size="14.00">deleted_at </text>
<text text-anchor="start" x="649.65" y="-440.4" font-family="Arial" font-size="14.00" fill="#666666">[timestamp with time zone]</text>
<polygon fill="none" stroke="black" points="573.36,-397.4 573.36,-428.2 880,-428.2 880,-397.4 573.36,-397.4"/>
<text text-anchor="start" x="580.36" y="-409.6" font-family="Arial" font-size="14.00">client_type </text>
<text text-anchor="start" x="651.18" y="-409.6" font-family="Arial" font-size="14.00" fill="#666666">[auth.oauth_client_type]</text>
</g>
<!-- auth.oauth_consents&#45;&gt;auth.oauth_clients -->
<g id="edge2" class="edge">
<title>auth.oauth_consents:client_id&#45;&gt;auth.oauth_clients:id</title>
<path fill="none" stroke="black" d="M667.43,-1388.69C781.06,-1356.78 433.03,-751.6 572.36,-751.6"/>
<polygon fill="black" stroke="black" points="667.41,-1388.69 656.92,-1385.49 662.12,-1389.37 657.82,-1389.92 657.82,-1389.92 657.82,-1389.92 662.12,-1389.37 658.06,-1394.42 667.41,-1388.69"/>
<text text-anchor="start" x="664.16" y="-1400" font-family="Arial" font-size="10.00">FOREIGN KEY (client_id) REFERENCES auth.oauth_clients(id) ON DELETE CASCADE</text>
</g>
</g>
</svg>
