<?xml version="1.0" encoding="UTF-8" standalone="no"?>
<!DOCTYPE svg PUBLIC "-//W3C//DTD SVG 1.1//EN"
 "http://www.w3.org/Graphics/SVG/1.1/DTD/svg11.dtd">
<!-- Generated by graphviz version 12.1.2 (20240928.0832)
 -->
<!-- Title: auth.sso_providers Pages: 1 -->
<svg width="1391pt" height="725pt"
 viewBox="0.00 0.00 1391.13 725.20" xmlns="http://www.w3.org/2000/svg" xmlns:xlink="http://www.w3.org/1999/xlink">
<g id="graph0" class="graph" transform="scale(1 1) rotate(0) translate(4 721.2)">
<title>auth.sso_providers</title>
<polygon fill="white" stroke="none" points="-4,4 -4,-721.2 1387.13,-721.2 1387.13,4 -4,4"/>
<!-- auth.sso_providers -->
<g id="node1" class="node">
<title>auth.sso_providers</title>
<polygon fill="#efefef" stroke="none" points="554.32,-200.2 554.32,-235.8 828.29,-235.8 828.29,-200.2 554.32,-200.2"/>
<polygon fill="none" stroke="black" points="554.32,-200.2 554.32,-235.8 828.29,-235.8 828.29,-200.2 554.32,-200.2"/>
<text text-anchor="start" x="561.32" y="-213.6" font-family="Arial Bold" font-size="18.00">auth.sso_providers</text>
<text text-anchor="start" x="696.8" y="-213.6" font-family="Arial" font-size="14.00">    </text>
<text text-anchor="start" x="727.92" y="-213.6" font-family="Arial" font-size="14.00" fill="#666666">[BASE TABLE]</text>
<polygon fill="none" stroke="black" points="554.32,-169.4 554.32,-200.2 828.29,-200.2 828.29,-169.4 554.32,-169.4"/>
<text text-anchor="start" x="561.32" y="-181.6" font-family="Arial" font-size="14.00">id </text>
<text text-anchor="start" x="576.1" y="-181.6" font-family="Arial" font-size="14.00" fill="#666666">[uuid]</text>
<polygon fill="none" stroke="black" points="554.32,-138.6 554.32,-169.4 828.29,-169.4 828.29,-138.6 554.32,-138.6"/>
<text text-anchor="start" x="561.32" y="-150.8" font-family="Arial" font-size="14.00">resource_id </text>
<text text-anchor="start" x="638.36" y="-150.8" font-family="Arial" font-size="14.00" fill="#666666">[text]</text>
<polygon fill="none" stroke="black" points="554.32,-107.8 554.32,-138.6 828.29,-138.6 828.29,-107.8 554.32,-107.8"/>
<text text-anchor="start" x="561.32" y="-120" font-family="Arial" font-size="14.00">created_at </text>
<text text-anchor="start" x="631.37" y="-120" font-family="Arial" font-size="14.00" fill="#666666">[timestamp with time zone]</text>
<polygon fill="none" stroke="black" points="554.32,-77 554.32,-107.8 828.29,-107.8 828.29,-77 554.32,-77"/>
<text text-anchor="start" x="561.32" y="-89.2" font-family="Arial" font-size="14.00">updated_at </text>
<text text-anchor="start" x="635.28" y="-89.2" font-family="Arial" font-size="14.00" fill="#666666">[timestamp with time zone]</text>
<polygon fill="none" stroke="black" points="554.32,-46.2 554.32,-77 828.29,-77 828.29,-46.2 554.32,-46.2"/>
<text text-anchor="start" x="561.32" y="-58.4" font-family="Arial" font-size="14.00">disabled </text>
<text text-anchor="start" x="617.36" y="-58.4" font-family="Arial" font-size="14.00" fill="#666666">[boolean]</text>
<polygon fill="none" stroke="black" stroke-width="3" points="552.82,-44.7 552.82,-237.3 829.79,-237.3 829.79,-44.7 552.82,-44.7"/>
</g>
<!-- auth.sso_domains -->
<g id="node2" class="node">
<title>auth.sso_domains</title>
<polygon fill="#efefef" stroke="none" points="177.81,-576.8 177.81,-612.4 444.8,-612.4 444.8,-576.8 177.81,-576.8"/>
<polygon fill="none" stroke="black" points="177.81,-576.8 177.81,-612.4 444.8,-612.4 444.8,-576.8 177.81,-576.8"/>
<text text-anchor="start" x="184.81" y="-590.2" font-family="Arial Bold" font-size="18.00">auth.sso_domains</text>
<text text-anchor="start" x="313.31" y="-590.2" font-family="Arial" font-size="14.00">    </text>
<text text-anchor="start" x="344.42" y="-590.2" font-family="Arial" font-size="14.00" fill="#666666">[BASE TABLE]</text>
<polygon fill="none" stroke="black" points="177.81,-546 177.81,-576.8 444.8,-576.8 444.8,-546 177.81,-546"/>
<text text-anchor="start" x="184.81" y="-558.2" font-family="Arial" font-size="14.00">id </text>
<text text-anchor="start" x="199.6" y="-558.2" font-family="Arial" font-size="14.00" fill="#666666">[uuid]</text>
<polygon fill="none" stroke="black" points="177.81,-515.2 177.81,-546 444.8,-546 444.8,-515.2 177.81,-515.2"/>
<text text-anchor="start" x="184.81" y="-527.4" font-family="Arial" font-size="14.00">sso_provider_id </text>
<text text-anchor="start" x="287.54" y="-527.4" font-family="Arial" font-size="14.00" fill="#666666">[uuid]</text>
<polygon fill="none" stroke="black" points="177.81,-484.4 177.81,-515.2 444.8,-515.2 444.8,-484.4 177.81,-484.4"/>
<text text-anchor="start" x="184.81" y="-496.6" font-family="Arial" font-size="14.00">domain </text>
<text text-anchor="start" x="234.62" y="-496.6" font-family="Arial" font-size="14.00" fill="#666666">[text]</text>
<polygon fill="none" stroke="black" points="177.81,-453.6 177.81,-484.4 444.8,-484.4 444.8,-453.6 177.81,-453.6"/>
<text text-anchor="start" x="184.81" y="-465.8" font-family="Arial" font-size="14.00">created_at </text>
<text text-anchor="start" x="254.86" y="-465.8" font-family="Arial" font-size="14.00" fill="#666666">[timestamp with time zone]</text>
<polygon fill="none" stroke="black" points="177.81,-422.8 177.81,-453.6 444.8,-453.6 444.8,-422.8 177.81,-422.8"/>
<text text-anchor="start" x="184.81" y="-435" font-family="Arial" font-size="14.00">updated_at </text>
<text text-anchor="start" x="258.77" y="-435" font-family="Arial" font-size="14.00" fill="#666666">[timestamp with time zone]</text>
</g>
<!-- auth.sso_domains&#45;&gt;auth.sso_providers -->
<g id="edge1" class="edge">
<title>auth.sso_domains:sso_provider_id&#45;&gt;auth.sso_providers:id</title>
<path fill="none" stroke="black" d="M455.62,-527.97C492.54,-506.55 482.21,-360.69 496.3,-318 516.49,-256.85 488.92,-184.8 553.32,-184.8"/>
<polygon fill="black" stroke="black" points="455.78,-527.92 444.95,-526.17 450.63,-529.31 446.44,-530.43 446.44,-530.43 446.44,-530.43 450.63,-529.31 447.29,-534.86 455.78,-527.92"/>
<text text-anchor="start" x="7" y="-540.6" font-family="Arial" font-size="10.00">FOREIGN KEY (sso_provider_id) REFERENCES auth.sso_providers(id) ON DELETE CASCADE</text>
</g>
<!-- auth.saml_providers -->
<g id="node3" class="node">
<title>auth.saml_providers</title>
<polygon fill="#efefef" stroke="none" points="548.82,-638.4 548.82,-674 833.78,-674 833.78,-638.4 548.82,-638.4"/>
<polygon fill="none" stroke="black" points="548.82,-638.4 548.82,-674 833.78,-674 833.78,-638.4 548.82,-638.4"/>
<text text-anchor="start" x="555.82" y="-651.8" font-family="Arial Bold" font-size="18.00">auth.saml_providers</text>
<text text-anchor="start" x="702.29" y="-651.8" font-family="Arial" font-size="14.00">    </text>
<text text-anchor="start" x="733.41" y="-651.8" font-family="Arial" font-size="14.00" fill="#666666">[BASE TABLE]</text>
<polygon fill="none" stroke="black" points="548.82,-607.6 548.82,-638.4 833.78,-638.4 833.78,-607.6 548.82,-607.6"/>
<text text-anchor="start" x="555.82" y="-619.8" font-family="Arial" font-size="14.00">id </text>
<text text-anchor="start" x="570.61" y="-619.8" font-family="Arial" font-size="14.00" fill="#666666">[uuid]</text>
<polygon fill="none" stroke="black" points="548.82,-576.8 548.82,-607.6 833.78,-607.6 833.78,-576.8 548.82,-576.8"/>
<text text-anchor="start" x="555.82" y="-589" font-family="Arial" font-size="14.00">sso_provider_id </text>
<text text-anchor="start" x="658.55" y="-589" font-family="Arial" font-size="14.00" fill="#666666">[uuid]</text>
<polygon fill="none" stroke="black" points="548.82,-546 548.82,-576.8 833.78,-576.8 833.78,-546 548.82,-546"/>
<text text-anchor="start" x="555.82" y="-558.2" font-family="Arial" font-size="14.00">entity_id </text>
<text text-anchor="start" x="611.86" y="-558.2" font-family="Arial" font-size="14.00" fill="#666666">[text]</text>
<polygon fill="none" stroke="black" points="548.82,-515.2 548.82,-546 833.78,-546 833.78,-515.2 548.82,-515.2"/>
<text text-anchor="start" x="555.82" y="-527.4" font-family="Arial" font-size="14.00">metadata_xml </text>
<text text-anchor="start" x="647.65" y="-527.4" font-family="Arial" font-size="14.00" fill="#666666">[text]</text>
<polygon fill="none" stroke="black" points="548.82,-484.4 548.82,-515.2 833.78,-515.2 833.78,-484.4 548.82,-484.4"/>
<text text-anchor="start" x="555.82" y="-496.6" font-family="Arial" font-size="14.00">metadata_url </text>
<text text-anchor="start" x="641.43" y="-496.6" font-family="Arial" font-size="14.00" fill="#666666">[text]</text>
<polygon fill="none" stroke="black" points="548.82,-453.6 548.82,-484.4 833.78,-484.4 833.78,-453.6 548.82,-453.6"/>
<text text-anchor="start" x="555.82" y="-465.8" font-family="Arial" font-size="14.00">attribute_mapping </text>
<text text-anchor="start" x="671.79" y="-465.8" font-family="Arial" font-size="14.00" fill="#666666">[jsonb]</text>
<polygon fill="none" stroke="black" points="548.82,-422.8 548.82,-453.6 833.78,-453.6 833.78,-422.8 548.82,-422.8"/>
<text text-anchor="start" x="555.82" y="-435" font-family="Arial" font-size="14.00">created_at </text>
<text text-anchor="start" x="625.87" y="-435" font-family="Arial" font-size="14.00" fill="#666666">[timestamp with time zone]</text>
<polygon fill="none" stroke="black" points="548.82,-392 548.82,-422.8 833.78,-422.8 833.78,-392 548.82,-392"/>
<text text-anchor="start" x="555.82" y="-404.2" font-family="Arial" font-size="14.00">updated_at </text>
<text text-anchor="start" x="629.78" y="-404.2" font-family="Arial" font-size="14.00" fill="#666666">[timestamp with time zone]</text>
<polygon fill="none" stroke="black" points="548.82,-361.2 548.82,-392 833.78,-392 833.78,-361.2 548.82,-361.2"/>
<text text-anchor="start" x="555.82" y="-373.4" font-family="Arial" font-size="14.00">name_id_format </text>
<text text-anchor="start" x="660.88" y="-373.4" font-family="Arial" font-size="14.00" fill="#666666">[text]</text>
</g>
<!-- auth.saml_providers&#45;&gt;auth.sso_providers -->
<g id="edge2" class="edge">
<title>auth.saml_providers:sso_provider_id&#45;&gt;auth.sso_providers:id</title>
<path fill="none" stroke="black" d="M843.36,-586.75C879.12,-538.4 871.47,-184.8 829.29,-184.8"/>
<polygon fill="black" stroke="black" points="843.51,-586.66 832.65,-588.22 839,-589.52 835.35,-591.84 835.35,-591.84 835.35,-591.84 839,-589.52 837.48,-595.82 843.51,-586.66"/>
<text text-anchor="start" x="395.99" y="-602.2" font-family="Arial" font-size="10.00">FOREIGN KEY (sso_provider_id) REFERENCES auth.sso_providers(id) ON DELETE CASCADE</text>
</g>
<!-- auth.saml_relay_states -->
<g id="node4" class="node">
<title>auth.saml_relay_states</title>
<polygon fill="#efefef" stroke="none" points="938.33,-623 938.33,-658.6 1240.27,-658.6 1240.27,-623 938.33,-623"/>
<polygon fill="none" stroke="black" points="938.33,-623 938.33,-658.6 1240.27,-658.6 1240.27,-623 938.33,-623"/>
<text text-anchor="start" x="945.33" y="-636.4" font-family="Arial Bold" font-size="18.00">auth.saml_relay_states</text>
<text text-anchor="start" x="1108.78" y="-636.4" font-family="Arial" font-size="14.00">    </text>
<text text-anchor="start" x="1139.9" y="-636.4" font-family="Arial" font-size="14.00" fill="#666666">[BASE TABLE]</text>
<polygon fill="none" stroke="black" points="938.33,-592.2 938.33,-623 1240.27,-623 1240.27,-592.2 938.33,-592.2"/>
<text text-anchor="start" x="945.33" y="-604.4" font-family="Arial" font-size="14.00">id </text>
<text text-anchor="start" x="960.12" y="-604.4" font-family="Arial" font-size="14.00" fill="#666666">[uuid]</text>
<polygon fill="none" stroke="black" points="938.33,-561.4 938.33,-592.2 1240.27,-592.2 1240.27,-561.4 938.33,-561.4"/>
<text text-anchor="start" x="945.33" y="-573.6" font-family="Arial" font-size="14.00">sso_provider_id </text>
<text text-anchor="start" x="1048.06" y="-573.6" font-family="Arial" font-size="14.00" fill="#666666">[uuid]</text>
<polygon fill="none" stroke="black" points="938.33,-530.6 938.33,-561.4 1240.27,-561.4 1240.27,-530.6 938.33,-530.6"/>
<text text-anchor="start" x="945.33" y="-542.8" font-family="Arial" font-size="14.00">request_id </text>
<text text-anchor="start" x="1014.6" y="-542.8" font-family="Arial" font-size="14.00" fill="#666666">[text]</text>
<polygon fill="none" stroke="black" points="938.33,-499.8 938.33,-530.6 1240.27,-530.6 1240.27,-499.8 938.33,-499.8"/>
<text text-anchor="start" x="945.33" y="-512" font-family="Arial" font-size="14.00">for_email </text>
<text text-anchor="start" x="1006.8" y="-512" font-family="Arial" font-size="14.00" fill="#666666">[text]</text>
<polygon fill="none" stroke="black" points="938.33,-469 938.33,-499.8 1240.27,-499.8 1240.27,-469 938.33,-469"/>
<text text-anchor="start" x="945.33" y="-481.2" font-family="Arial" font-size="14.00">redirect_to </text>
<text text-anchor="start" x="1015.37" y="-481.2" font-family="Arial" font-size="14.00" fill="#666666">[text]</text>
<polygon fill="none" stroke="black" points="938.33,-438.2 938.33,-469 1240.27,-469 1240.27,-438.2 938.33,-438.2"/>
<text text-anchor="start" x="945.33" y="-450.4" font-family="Arial" font-size="14.00">created_at </text>
<text text-anchor="start" x="1015.38" y="-450.4" font-family="Arial" font-size="14.00" fill="#666666">[timestamp with time zone]</text>
<polygon fill="none" stroke="black" points="938.33,-407.4 938.33,-438.2 1240.27,-438.2 1240.27,-407.4 938.33,-407.4"/>
<text text-anchor="start" x="945.33" y="-419.6" font-family="Arial" font-size="14.00">updated_at </text>
<text text-anchor="start" x="1019.29" y="-419.6" font-family="Arial" font-size="14.00" fill="#666666">[timestamp with time zone]</text>
<polygon fill="none" stroke="black" points="938.33,-376.6 938.33,-407.4 1240.27,-407.4 1240.27,-376.6 938.33,-376.6"/>
<text text-anchor="start" x="945.33" y="-388.8" font-family="Arial" font-size="14.00">flow_state_id </text>
<text text-anchor="start" x="1030.94" y="-388.8" font-family="Arial" font-size="14.00" fill="#666666">[uuid]</text>
</g>
<!-- auth.saml_relay_states&#45;&gt;auth.sso_providers -->
<g id="edge3" class="edge">
<title>auth.saml_relay_states:sso_provider_id&#45;&gt;auth.sso_providers:id</title>
<path fill="none" stroke="black" d="M927.29,-574.51C881.66,-552.02 902.52,-370.51 886.3,-318 867.3,-256.47 893.69,-184.8 829.29,-184.8"/>
<polygon fill="black" stroke="black" points="927.26,-574.5 936.01,-581.11 932.46,-575.69 936.68,-576.65 936.68,-576.65 936.68,-576.65 932.46,-575.69 938.01,-572.34 927.26,-574.5"/>
<text text-anchor="start" x="944.33" y="-586.8" font-family="Arial" font-size="10.00">FOREIGN KEY (sso_provider_id) REFERENCES auth.sso_providers(id) ON DELETE CASCADE</text>
</g>
</g>
</svg>
