<?xml version="1.0" encoding="UTF-8" standalone="no"?>
<!DOCTYPE svg PUBLIC "-//W3C//DTD SVG 1.1//EN"
 "http://www.w3.org/Graphics/SVG/1.1/DTD/svg11.dtd">
<!-- Generated by graphviz version 12.1.2 (20240928.0832)
 -->
<!-- Title: auth.users Pages: 1 -->
<svg width="2509pt" height="1896pt"
 viewBox="0.00 0.00 2509.42 1895.60" xmlns="http://www.w3.org/2000/svg" xmlns:xlink="http://www.w3.org/1999/xlink">
<g id="graph0" class="graph" transform="scale(1 1) rotate(0) translate(4 1891.6)">
<title>auth.users</title>
<polygon fill="white" stroke="none" points="-4,4 -4,-1891.6 2505.42,-1891.6 2505.42,4 -4,4"/>
<!-- auth.users -->
<g id="node1" class="node">
<title>auth.users</title>
<polygon fill="#efefef" stroke="none" points="1042.22,-1124.2 1042.22,-1159.8 1379.17,-1159.8 1379.17,-1124.2 1042.22,-1124.2"/>
<polygon fill="none" stroke="black" points="1042.22,-1124.2 1042.22,-1159.8 1379.17,-1159.8 1379.17,-1124.2 1042.22,-1124.2"/>
<text text-anchor="start" x="1112.21" y="-1137.6" font-family="Arial Bold" font-size="18.00">auth.users</text>
<text text-anchor="start" x="1184.69" y="-1137.6" font-family="Arial" font-size="14.00">    </text>
<text text-anchor="start" x="1215.81" y="-1137.6" font-family="Arial" font-size="14.00" fill="#666666">[BASE TABLE]</text>
<polygon fill="none" stroke="black" points="1042.22,-1093.4 1042.22,-1124.2 1379.17,-1124.2 1379.17,-1093.4 1042.22,-1093.4"/>
<text text-anchor="start" x="1049.22" y="-1105.6" font-family="Arial" font-size="14.00">instance_id </text>
<text text-anchor="start" x="1123.94" y="-1105.6" font-family="Arial" font-size="14.00" fill="#666666">[uuid]</text>
<polygon fill="none" stroke="black" points="1042.22,-1062.6 1042.22,-1093.4 1379.17,-1093.4 1379.17,-1062.6 1042.22,-1062.6"/>
<text text-anchor="start" x="1049.22" y="-1074.8" font-family="Arial" font-size="14.00">id </text>
<text text-anchor="start" x="1064.01" y="-1074.8" font-family="Arial" font-size="14.00" fill="#666666">[uuid]</text>
<polygon fill="none" stroke="black" points="1042.22,-1031.8 1042.22,-1062.6 1379.17,-1062.6 1379.17,-1031.8 1042.22,-1031.8"/>
<text text-anchor="start" x="1049.22" y="-1044" font-family="Arial" font-size="14.00">aud </text>
<text text-anchor="start" x="1076.47" y="-1044" font-family="Arial" font-size="14.00" fill="#666666">[varchar(255)]</text>
<polygon fill="none" stroke="black" points="1042.22,-1001 1042.22,-1031.8 1379.17,-1031.8 1379.17,-1001 1042.22,-1001"/>
<text text-anchor="start" x="1049.22" y="-1013.2" font-family="Arial" font-size="14.00">role </text>
<text text-anchor="start" x="1076.45" y="-1013.2" font-family="Arial" font-size="14.00" fill="#666666">[varchar(255)]</text>
<polygon fill="none" stroke="black" points="1042.22,-970.2 1042.22,-1001 1379.17,-1001 1379.17,-970.2 1042.22,-970.2"/>
<text text-anchor="start" x="1049.22" y="-982.4" font-family="Arial" font-size="14.00">email </text>
<text text-anchor="start" x="1086.56" y="-982.4" font-family="Arial" font-size="14.00" fill="#666666">[varchar(255)]</text>
<polygon fill="none" stroke="black" points="1042.22,-939.4 1042.22,-970.2 1379.17,-970.2 1379.17,-939.4 1042.22,-939.4"/>
<text text-anchor="start" x="1049.22" y="-951.6" font-family="Arial" font-size="14.00">encrypted_password </text>
<text text-anchor="start" x="1182.29" y="-951.6" font-family="Arial" font-size="14.00" fill="#666666">[varchar(255)]</text>
<polygon fill="none" stroke="black" points="1042.22,-908.6 1042.22,-939.4 1379.17,-939.4 1379.17,-908.6 1042.22,-908.6"/>
<text text-anchor="start" x="1049.22" y="-920.8" font-family="Arial" font-size="14.00">email_confirmed_at </text>
<text text-anchor="start" x="1175.28" y="-920.8" font-family="Arial" font-size="14.00" fill="#666666">[timestamp with time zone]</text>
<polygon fill="none" stroke="black" points="1042.22,-877.8 1042.22,-908.6 1379.17,-908.6 1379.17,-877.8 1042.22,-877.8"/>
<text text-anchor="start" x="1049.22" y="-890" font-family="Arial" font-size="14.00">invited_at </text>
<text text-anchor="start" x="1113.04" y="-890" font-family="Arial" font-size="14.00" fill="#666666">[timestamp with time zone]</text>
<polygon fill="none" stroke="black" points="1042.22,-847 1042.22,-877.8 1379.17,-877.8 1379.17,-847 1042.22,-847"/>
<text text-anchor="start" x="1049.22" y="-859.2" font-family="Arial" font-size="14.00">confirmation_token </text>
<text text-anchor="start" x="1171.4" y="-859.2" font-family="Arial" font-size="14.00" fill="#666666">[varchar(255)]</text>
<polygon fill="none" stroke="black" points="1042.22,-816.2 1042.22,-847 1379.17,-847 1379.17,-816.2 1042.22,-816.2"/>
<text text-anchor="start" x="1049.22" y="-828.4" font-family="Arial" font-size="14.00">confirmation_sent_at </text>
<text text-anchor="start" x="1183.07" y="-828.4" font-family="Arial" font-size="14.00" fill="#666666">[timestamp with time zone]</text>
<polygon fill="none" stroke="black" points="1042.22,-785.4 1042.22,-816.2 1379.17,-816.2 1379.17,-785.4 1042.22,-785.4"/>
<text text-anchor="start" x="1049.22" y="-797.6" font-family="Arial" font-size="14.00">recovery_token </text>
<text text-anchor="start" x="1148.83" y="-797.6" font-family="Arial" font-size="14.00" fill="#666666">[varchar(255)]</text>
<polygon fill="none" stroke="black" points="1042.22,-754.6 1042.22,-785.4 1379.17,-785.4 1379.17,-754.6 1042.22,-754.6"/>
<text text-anchor="start" x="1049.22" y="-766.8" font-family="Arial" font-size="14.00">recovery_sent_at </text>
<text text-anchor="start" x="1160.5" y="-766.8" font-family="Arial" font-size="14.00" fill="#666666">[timestamp with time zone]</text>
<polygon fill="none" stroke="black" points="1042.22,-723.8 1042.22,-754.6 1379.17,-754.6 1379.17,-723.8 1042.22,-723.8"/>
<text text-anchor="start" x="1049.22" y="-736" font-family="Arial" font-size="14.00">email_change_token_new </text>
<text text-anchor="start" x="1215.78" y="-736" font-family="Arial" font-size="14.00" fill="#666666">[varchar(255)]</text>
<polygon fill="none" stroke="black" points="1042.22,-693 1042.22,-723.8 1379.17,-723.8 1379.17,-693 1042.22,-693"/>
<text text-anchor="start" x="1049.22" y="-705.2" font-family="Arial" font-size="14.00">email_change </text>
<text text-anchor="start" x="1140.28" y="-705.2" font-family="Arial" font-size="14.00" fill="#666666">[varchar(255)]</text>
<polygon fill="none" stroke="black" points="1042.22,-662.2 1042.22,-693 1379.17,-693 1379.17,-662.2 1042.22,-662.2"/>
<text text-anchor="start" x="1049.22" y="-674.4" font-family="Arial" font-size="14.00">email_change_sent_at </text>
<text text-anchor="start" x="1193.99" y="-674.4" font-family="Arial" font-size="14.00" fill="#666666">[timestamp with time zone]</text>
<polygon fill="none" stroke="black" points="1042.22,-631.4 1042.22,-662.2 1379.17,-662.2 1379.17,-631.4 1042.22,-631.4"/>
<text text-anchor="start" x="1049.22" y="-643.6" font-family="Arial" font-size="14.00">last_sign_in_at </text>
<text text-anchor="start" x="1146.51" y="-643.6" font-family="Arial" font-size="14.00" fill="#666666">[timestamp with time zone]</text>
<polygon fill="none" stroke="black" points="1042.22,-600.6 1042.22,-631.4 1379.17,-631.4 1379.17,-600.6 1042.22,-600.6"/>
<text text-anchor="start" x="1049.22" y="-612.8" font-family="Arial" font-size="14.00">raw_app_meta_data </text>
<text text-anchor="start" x="1180.76" y="-612.8" font-family="Arial" font-size="14.00" fill="#666666">[jsonb]</text>
<polygon fill="none" stroke="black" points="1042.22,-569.8 1042.22,-600.6 1379.17,-600.6 1379.17,-569.8 1042.22,-569.8"/>
<text text-anchor="start" x="1049.22" y="-582" font-family="Arial" font-size="14.00">raw_user_meta_data </text>
<text text-anchor="start" x="1184.63" y="-582" font-family="Arial" font-size="14.00" fill="#666666">[jsonb]</text>
<polygon fill="none" stroke="black" points="1042.22,-539 1042.22,-569.8 1379.17,-569.8 1379.17,-539 1042.22,-539"/>
<text text-anchor="start" x="1049.22" y="-551.2" font-family="Arial" font-size="14.00">is_super_admin </text>
<text text-anchor="start" x="1151.94" y="-551.2" font-family="Arial" font-size="14.00" fill="#666666">[boolean]</text>
<polygon fill="none" stroke="black" points="1042.22,-508.2 1042.22,-539 1379.17,-539 1379.17,-508.2 1042.22,-508.2"/>
<text text-anchor="start" x="1049.22" y="-520.4" font-family="Arial" font-size="14.00">created_at </text>
<text text-anchor="start" x="1119.27" y="-520.4" font-family="Arial" font-size="14.00" fill="#666666">[timestamp with time zone]</text>
<polygon fill="none" stroke="black" points="1042.22,-477.4 1042.22,-508.2 1379.17,-508.2 1379.17,-477.4 1042.22,-477.4"/>
<text text-anchor="start" x="1049.22" y="-489.6" font-family="Arial" font-size="14.00">updated_at </text>
<text text-anchor="start" x="1123.18" y="-489.6" font-family="Arial" font-size="14.00" fill="#666666">[timestamp with time zone]</text>
<polygon fill="none" stroke="black" points="1042.22,-446.6 1042.22,-477.4 1379.17,-477.4 1379.17,-446.6 1042.22,-446.6"/>
<text text-anchor="start" x="1049.22" y="-458.8" font-family="Arial" font-size="14.00">phone </text>
<text text-anchor="start" x="1092.04" y="-458.8" font-family="Arial" font-size="14.00" fill="#666666">[text]</text>
<polygon fill="none" stroke="black" points="1042.22,-415.8 1042.22,-446.6 1379.17,-446.6 1379.17,-415.8 1042.22,-415.8"/>
<text text-anchor="start" x="1049.22" y="-428" font-family="Arial" font-size="14.00">phone_confirmed_at </text>
<text text-anchor="start" x="1180.76" y="-428" font-family="Arial" font-size="14.00" fill="#666666">[timestamp with time zone]</text>
<polygon fill="none" stroke="black" points="1042.22,-385 1042.22,-415.8 1379.17,-415.8 1379.17,-385 1042.22,-385"/>
<text text-anchor="start" x="1049.22" y="-397.2" font-family="Arial" font-size="14.00">phone_change </text>
<text text-anchor="start" x="1145.76" y="-397.2" font-family="Arial" font-size="14.00" fill="#666666">[text]</text>
<polygon fill="none" stroke="black" points="1042.22,-354.2 1042.22,-385 1379.17,-385 1379.17,-354.2 1042.22,-354.2"/>
<text text-anchor="start" x="1049.22" y="-366.4" font-family="Arial" font-size="14.00">phone_change_token </text>
<text text-anchor="start" x="1187.79" y="-366.4" font-family="Arial" font-size="14.00" fill="#666666">[varchar(255)]</text>
<polygon fill="none" stroke="black" points="1042.22,-323.4 1042.22,-354.2 1379.17,-354.2 1379.17,-323.4 1042.22,-323.4"/>
<text text-anchor="start" x="1049.22" y="-335.6" font-family="Arial" font-size="14.00">phone_change_sent_at </text>
<text text-anchor="start" x="1199.47" y="-335.6" font-family="Arial" font-size="14.00" fill="#666666">[timestamp with time zone]</text>
<polygon fill="none" stroke="black" points="1042.22,-292.6 1042.22,-323.4 1379.17,-323.4 1379.17,-292.6 1042.22,-292.6"/>
<text text-anchor="start" x="1049.22" y="-304.8" font-family="Arial" font-size="14.00">confirmed_at </text>
<text text-anchor="start" x="1134.04" y="-304.8" font-family="Arial" font-size="14.00" fill="#666666">[timestamp with time zone]</text>
<polygon fill="none" stroke="black" points="1042.22,-261.8 1042.22,-292.6 1379.17,-292.6 1379.17,-261.8 1042.22,-261.8"/>
<text text-anchor="start" x="1049.22" y="-274" font-family="Arial" font-size="14.00">email_change_token_current </text>
<text text-anchor="start" x="1233.67" y="-274" font-family="Arial" font-size="14.00" fill="#666666">[varchar(255)]</text>
<polygon fill="none" stroke="black" points="1042.22,-231 1042.22,-261.8 1379.17,-261.8 1379.17,-231 1042.22,-231"/>
<text text-anchor="start" x="1049.22" y="-243.2" font-family="Arial" font-size="14.00">email_change_confirm_status </text>
<text text-anchor="start" x="1239.1" y="-243.2" font-family="Arial" font-size="14.00" fill="#666666">[smallint]</text>
<polygon fill="none" stroke="black" points="1042.22,-200.2 1042.22,-231 1379.17,-231 1379.17,-200.2 1042.22,-200.2"/>
<text text-anchor="start" x="1049.22" y="-212.4" font-family="Arial" font-size="14.00">banned_until </text>
<text text-anchor="start" x="1133.29" y="-212.4" font-family="Arial" font-size="14.00" fill="#666666">[timestamp with time zone]</text>
<polygon fill="none" stroke="black" points="1042.22,-169.4 1042.22,-200.2 1379.17,-200.2 1379.17,-169.4 1042.22,-169.4"/>
<text text-anchor="start" x="1049.22" y="-181.6" font-family="Arial" font-size="14.00">reauthentication_token </text>
<text text-anchor="start" x="1194.77" y="-181.6" font-family="Arial" font-size="14.00" fill="#666666">[varchar(255)]</text>
<polygon fill="none" stroke="black" points="1042.22,-138.6 1042.22,-169.4 1379.17,-169.4 1379.17,-138.6 1042.22,-138.6"/>
<text text-anchor="start" x="1049.22" y="-150.8" font-family="Arial" font-size="14.00">reauthentication_sent_at </text>
<text text-anchor="start" x="1206.45" y="-150.8" font-family="Arial" font-size="14.00" fill="#666666">[timestamp with time zone]</text>
<polygon fill="none" stroke="black" points="1042.22,-107.8 1042.22,-138.6 1379.17,-138.6 1379.17,-107.8 1042.22,-107.8"/>
<text text-anchor="start" x="1049.22" y="-120" font-family="Arial" font-size="14.00">is_sso_user </text>
<text text-anchor="start" x="1127.81" y="-120" font-family="Arial" font-size="14.00" fill="#666666">[boolean]</text>
<polygon fill="none" stroke="black" points="1042.22,-77 1042.22,-107.8 1379.17,-107.8 1379.17,-77 1042.22,-77"/>
<text text-anchor="start" x="1049.22" y="-89.2" font-family="Arial" font-size="14.00">deleted_at </text>
<text text-anchor="start" x="1118.5" y="-89.2" font-family="Arial" font-size="14.00" fill="#666666">[timestamp with time zone]</text>
<polygon fill="none" stroke="black" points="1042.22,-46.2 1042.22,-77 1379.17,-77 1379.17,-46.2 1042.22,-46.2"/>
<text text-anchor="start" x="1049.22" y="-58.4" font-family="Arial" font-size="14.00">is_anonymous </text>
<text text-anchor="start" x="1143.38" y="-58.4" font-family="Arial" font-size="14.00" fill="#666666">[boolean]</text>
<polygon fill="none" stroke="black" stroke-width="3" points="1040.72,-44.7 1040.72,-1161.3 1380.67,-1161.3 1380.67,-44.7 1040.72,-44.7"/>
</g>
<!-- auth.identities -->
<g id="node2" class="node">
<title>auth.identities</title>
<polygon fill="#efefef" stroke="none" points="92.19,-1685.6 92.19,-1721.2 369.2,-1721.2 369.2,-1685.6 92.19,-1685.6"/>
<polygon fill="none" stroke="black" points="92.19,-1685.6 92.19,-1721.2 369.2,-1721.2 369.2,-1685.6 92.19,-1685.6"/>
<text text-anchor="start" x="117.71" y="-1699" font-family="Arial Bold" font-size="18.00">auth.identities</text>
<text text-anchor="start" x="219.19" y="-1699" font-family="Arial" font-size="14.00">    </text>
<text text-anchor="start" x="250.31" y="-1699" font-family="Arial" font-size="14.00" fill="#666666">[BASE TABLE]</text>
<polygon fill="none" stroke="black" points="92.19,-1654.8 92.19,-1685.6 369.2,-1685.6 369.2,-1654.8 92.19,-1654.8"/>
<text text-anchor="start" x="99.19" y="-1667" font-family="Arial" font-size="14.00">provider_id </text>
<text text-anchor="start" x="172.34" y="-1667" font-family="Arial" font-size="14.00" fill="#666666">[text]</text>
<polygon fill="none" stroke="black" points="92.19,-1624 92.19,-1654.8 369.2,-1654.8 369.2,-1624 92.19,-1624"/>
<text text-anchor="start" x="99.19" y="-1636.2" font-family="Arial" font-size="14.00">user_id </text>
<text text-anchor="start" x="149" y="-1636.2" font-family="Arial" font-size="14.00" fill="#666666">[uuid]</text>
<polygon fill="none" stroke="black" points="92.19,-1593.2 92.19,-1624 369.2,-1624 369.2,-1593.2 92.19,-1593.2"/>
<text text-anchor="start" x="99.19" y="-1605.4" font-family="Arial" font-size="14.00">identity_data </text>
<text text-anchor="start" x="182.47" y="-1605.4" font-family="Arial" font-size="14.00" fill="#666666">[jsonb]</text>
<polygon fill="none" stroke="black" points="92.19,-1562.4 92.19,-1593.2 369.2,-1593.2 369.2,-1562.4 92.19,-1562.4"/>
<text text-anchor="start" x="99.19" y="-1574.6" font-family="Arial" font-size="14.00">provider </text>
<text text-anchor="start" x="153.66" y="-1574.6" font-family="Arial" font-size="14.00" fill="#666666">[text]</text>
<polygon fill="none" stroke="black" points="92.19,-1531.6 92.19,-1562.4 369.2,-1562.4 369.2,-1531.6 92.19,-1531.6"/>
<text text-anchor="start" x="99.19" y="-1543.8" font-family="Arial" font-size="14.00">last_sign_in_at </text>
<text text-anchor="start" x="196.48" y="-1543.8" font-family="Arial" font-size="14.00" fill="#666666">[timestamp with time zone]</text>
<polygon fill="none" stroke="black" points="92.19,-1500.8 92.19,-1531.6 369.2,-1531.6 369.2,-1500.8 92.19,-1500.8"/>
<text text-anchor="start" x="99.19" y="-1513" font-family="Arial" font-size="14.00">created_at </text>
<text text-anchor="start" x="169.24" y="-1513" font-family="Arial" font-size="14.00" fill="#666666">[timestamp with time zone]</text>
<polygon fill="none" stroke="black" points="92.19,-1470 92.19,-1500.8 369.2,-1500.8 369.2,-1470 92.19,-1470"/>
<text text-anchor="start" x="99.19" y="-1482.2" font-family="Arial" font-size="14.00">updated_at </text>
<text text-anchor="start" x="173.15" y="-1482.2" font-family="Arial" font-size="14.00" fill="#666666">[timestamp with time zone]</text>
<polygon fill="none" stroke="black" points="92.19,-1439.2 92.19,-1470 369.2,-1470 369.2,-1439.2 92.19,-1439.2"/>
<text text-anchor="start" x="99.19" y="-1451.4" font-family="Arial" font-size="14.00">email </text>
<text text-anchor="start" x="136.53" y="-1451.4" font-family="Arial" font-size="14.00" fill="#666666">[text]</text>
<polygon fill="none" stroke="black" points="92.19,-1408.4 92.19,-1439.2 369.2,-1439.2 369.2,-1408.4 92.19,-1408.4"/>
<text text-anchor="start" x="99.19" y="-1420.6" font-family="Arial" font-size="14.00">id </text>
<text text-anchor="start" x="113.97" y="-1420.6" font-family="Arial" font-size="14.00" fill="#666666">[uuid]</text>
</g>
<!-- auth.identities&#45;&gt;auth.users -->
<g id="edge1" class="edge">
<title>auth.identities:user_id&#45;&gt;auth.users:id</title>
<path fill="none" stroke="black" d="M380.25,-1637.77C451.61,-1612.73 365.36,-1306.18 421.69,-1242 515.65,-1134.97 898.81,-1078 1041.22,-1078"/>
<polygon fill="black" stroke="black" points="380.4,-1637.75 369.81,-1634.9 375.14,-1638.6 370.86,-1639.29 370.86,-1639.29 370.86,-1639.29 375.14,-1638.6 371.25,-1643.79 380.4,-1637.75"/>
<text text-anchor="start" x="7" y="-1649.4" font-family="Arial" font-size="10.00">FOREIGN KEY (user_id) REFERENCES auth.users(id) ON DELETE CASCADE</text>
</g>
<!-- auth.sessions -->
<g id="node3" class="node">
<title>auth.sessions</title>
<polygon fill="#efefef" stroke="none" points="473.85,-1778 473.85,-1813.6 755.54,-1813.6 755.54,-1778 473.85,-1778"/>
<polygon fill="none" stroke="black" points="473.85,-1778 473.85,-1813.6 755.54,-1813.6 755.54,-1778 473.85,-1778"/>
<text text-anchor="start" x="505.2" y="-1791.4" font-family="Arial Bold" font-size="18.00">auth.sessions</text>
<text text-anchor="start" x="599.7" y="-1791.4" font-family="Arial" font-size="14.00">    </text>
<text text-anchor="start" x="630.82" y="-1791.4" font-family="Arial" font-size="14.00" fill="#666666">[BASE TABLE]</text>
<polygon fill="none" stroke="black" points="473.85,-1747.2 473.85,-1778 755.54,-1778 755.54,-1747.2 473.85,-1747.2"/>
<text text-anchor="start" x="480.85" y="-1759.4" font-family="Arial" font-size="14.00">id </text>
<text text-anchor="start" x="495.64" y="-1759.4" font-family="Arial" font-size="14.00" fill="#666666">[uuid]</text>
<polygon fill="none" stroke="black" points="473.85,-1716.4 473.85,-1747.2 755.54,-1747.2 755.54,-1716.4 473.85,-1716.4"/>
<text text-anchor="start" x="480.85" y="-1728.6" font-family="Arial" font-size="14.00">user_id </text>
<text text-anchor="start" x="530.66" y="-1728.6" font-family="Arial" font-size="14.00" fill="#666666">[uuid]</text>
<polygon fill="none" stroke="black" points="473.85,-1685.6 473.85,-1716.4 755.54,-1716.4 755.54,-1685.6 473.85,-1685.6"/>
<text text-anchor="start" x="480.85" y="-1697.8" font-family="Arial" font-size="14.00">created_at </text>
<text text-anchor="start" x="550.9" y="-1697.8" font-family="Arial" font-size="14.00" fill="#666666">[timestamp with time zone]</text>
<polygon fill="none" stroke="black" points="473.85,-1654.8 473.85,-1685.6 755.54,-1685.6 755.54,-1654.8 473.85,-1654.8"/>
<text text-anchor="start" x="480.85" y="-1667" font-family="Arial" font-size="14.00">updated_at </text>
<text text-anchor="start" x="554.81" y="-1667" font-family="Arial" font-size="14.00" fill="#666666">[timestamp with time zone]</text>
<polygon fill="none" stroke="black" points="473.85,-1624 473.85,-1654.8 755.54,-1654.8 755.54,-1624 473.85,-1624"/>
<text text-anchor="start" x="480.85" y="-1636.2" font-family="Arial" font-size="14.00">factor_id </text>
<text text-anchor="start" x="538.44" y="-1636.2" font-family="Arial" font-size="14.00" fill="#666666">[uuid]</text>
<polygon fill="none" stroke="black" points="473.85,-1593.2 473.85,-1624 755.54,-1624 755.54,-1593.2 473.85,-1593.2"/>
<text text-anchor="start" x="480.85" y="-1605.4" font-family="Arial" font-size="14.00">aal </text>
<text text-anchor="start" x="503.43" y="-1605.4" font-family="Arial" font-size="14.00" fill="#666666">[auth.aal_level]</text>
<polygon fill="none" stroke="black" points="473.85,-1562.4 473.85,-1593.2 755.54,-1593.2 755.54,-1562.4 473.85,-1562.4"/>
<text text-anchor="start" x="480.85" y="-1574.6" font-family="Arial" font-size="14.00">not_after </text>
<text text-anchor="start" x="540.01" y="-1574.6" font-family="Arial" font-size="14.00" fill="#666666">[timestamp with time zone]</text>
<polygon fill="none" stroke="black" points="473.85,-1531.6 473.85,-1562.4 755.54,-1562.4 755.54,-1531.6 473.85,-1531.6"/>
<text text-anchor="start" x="480.85" y="-1543.8" font-family="Arial" font-size="14.00">refreshed_at </text>
<text text-anchor="start" x="563.35" y="-1543.8" font-family="Arial" font-size="14.00" fill="#666666">[timestamp without time zone]</text>
<polygon fill="none" stroke="black" points="473.85,-1500.8 473.85,-1531.6 755.54,-1531.6 755.54,-1500.8 473.85,-1500.8"/>
<text text-anchor="start" x="480.85" y="-1513" font-family="Arial" font-size="14.00">user_agent </text>
<text text-anchor="start" x="554.8" y="-1513" font-family="Arial" font-size="14.00" fill="#666666">[text]</text>
<polygon fill="none" stroke="black" points="473.85,-1470 473.85,-1500.8 755.54,-1500.8 755.54,-1470 473.85,-1470"/>
<text text-anchor="start" x="480.85" y="-1482.2" font-family="Arial" font-size="14.00">ip </text>
<text text-anchor="start" x="495.64" y="-1482.2" font-family="Arial" font-size="14.00" fill="#666666">[inet]</text>
<polygon fill="none" stroke="black" points="473.85,-1439.2 473.85,-1470 755.54,-1470 755.54,-1439.2 473.85,-1439.2"/>
<text text-anchor="start" x="480.85" y="-1451.4" font-family="Arial" font-size="14.00">tag </text>
<text text-anchor="start" x="504.21" y="-1451.4" font-family="Arial" font-size="14.00" fill="#666666">[text]</text>
<polygon fill="none" stroke="black" points="473.85,-1408.4 473.85,-1439.2 755.54,-1439.2 755.54,-1408.4 473.85,-1408.4"/>
<text text-anchor="start" x="480.85" y="-1420.6" font-family="Arial" font-size="14.00">oauth_client_id </text>
<text text-anchor="start" x="578.93" y="-1420.6" font-family="Arial" font-size="14.00" fill="#666666">[uuid]</text>
<polygon fill="none" stroke="black" points="473.85,-1377.6 473.85,-1408.4 755.54,-1408.4 755.54,-1377.6 473.85,-1377.6"/>
<text text-anchor="start" x="480.85" y="-1389.8" font-family="Arial" font-size="14.00">refresh_token_hmac_key </text>
<text text-anchor="start" x="641.94" y="-1389.8" font-family="Arial" font-size="14.00" fill="#666666">[text]</text>
<polygon fill="none" stroke="black" points="473.85,-1346.8 473.85,-1377.6 755.54,-1377.6 755.54,-1346.8 473.85,-1346.8"/>
<text text-anchor="start" x="480.85" y="-1359" font-family="Arial" font-size="14.00">refresh_token_counter </text>
<text text-anchor="start" x="624.83" y="-1359" font-family="Arial" font-size="14.00" fill="#666666">[bigint]</text>
<polygon fill="none" stroke="black" points="473.85,-1316 473.85,-1346.8 755.54,-1346.8 755.54,-1316 473.85,-1316"/>
<text text-anchor="start" x="480.85" y="-1328.2" font-family="Arial" font-size="14.00">scopes </text>
<text text-anchor="start" x="529.1" y="-1328.2" font-family="Arial" font-size="14.00" fill="#666666">[text]</text>
</g>
<!-- auth.sessions&#45;&gt;auth.users -->
<g id="edge2" class="edge">
<title>auth.sessions:user_id&#45;&gt;auth.users:id</title>
<path fill="none" stroke="black" d="M766.71,-1730.52C858.61,-1705.87 754.09,-1333.22 807.69,-1242 871.95,-1132.66 914.39,-1078 1041.22,-1078"/>
<polygon fill="black" stroke="black" points="766.79,-1730.51 756.3,-1727.29 761.5,-1731.17 757.2,-1731.72 757.2,-1731.72 757.2,-1731.72 761.5,-1731.17 757.43,-1736.22 766.79,-1730.51"/>
<text text-anchor="start" x="578.44" y="-1715.8" font-family="Arial" font-size="10.00">FOREIGN KEY (user_id) REFERENCES auth.users(id) ON DELETE CASCADE</text>
</g>
<!-- auth.mfa_factors -->
<g id="node4" class="node">
<title>auth.mfa_factors</title>
<polygon fill="#efefef" stroke="none" points="859.51,-1747.2 859.51,-1782.8 1159.88,-1782.8 1159.88,-1747.2 859.51,-1747.2"/>
<polygon fill="none" stroke="black" points="859.51,-1747.2 859.51,-1782.8 1159.88,-1782.8 1159.88,-1747.2 859.51,-1747.2"/>
<text text-anchor="start" x="886.73" y="-1760.6" font-family="Arial Bold" font-size="18.00">auth.mfa_factors</text>
<text text-anchor="start" x="1008.17" y="-1760.6" font-family="Arial" font-size="14.00">    </text>
<text text-anchor="start" x="1039.29" y="-1760.6" font-family="Arial" font-size="14.00" fill="#666666">[BASE TABLE]</text>
<polygon fill="none" stroke="black" points="859.51,-1716.4 859.51,-1747.2 1159.88,-1747.2 1159.88,-1716.4 859.51,-1716.4"/>
<text text-anchor="start" x="866.51" y="-1728.6" font-family="Arial" font-size="14.00">id </text>
<text text-anchor="start" x="881.3" y="-1728.6" font-family="Arial" font-size="14.00" fill="#666666">[uuid]</text>
<polygon fill="none" stroke="black" points="859.51,-1685.6 859.51,-1716.4 1159.88,-1716.4 1159.88,-1685.6 859.51,-1685.6"/>
<text text-anchor="start" x="866.51" y="-1697.8" font-family="Arial" font-size="14.00">user_id </text>
<text text-anchor="start" x="916.32" y="-1697.8" font-family="Arial" font-size="14.00" fill="#666666">[uuid]</text>
<polygon fill="none" stroke="black" points="859.51,-1654.8 859.51,-1685.6 1159.88,-1685.6 1159.88,-1654.8 859.51,-1654.8"/>
<text text-anchor="start" x="866.51" y="-1667" font-family="Arial" font-size="14.00">friendly_name </text>
<text text-anchor="start" x="958.34" y="-1667" font-family="Arial" font-size="14.00" fill="#666666">[text]</text>
<polygon fill="none" stroke="black" points="859.51,-1624 859.51,-1654.8 1159.88,-1654.8 1159.88,-1624 859.51,-1624"/>
<text text-anchor="start" x="866.51" y="-1636.2" font-family="Arial" font-size="14.00">factor_type </text>
<text text-anchor="start" x="939.66" y="-1636.2" font-family="Arial" font-size="14.00" fill="#666666">[auth.factor_type]</text>
<polygon fill="none" stroke="black" points="859.51,-1593.2 859.51,-1624 1159.88,-1624 1159.88,-1593.2 859.51,-1593.2"/>
<text text-anchor="start" x="866.51" y="-1605.4" font-family="Arial" font-size="14.00">status </text>
<text text-anchor="start" x="907.75" y="-1605.4" font-family="Arial" font-size="14.00" fill="#666666">[auth.factor_status]</text>
<polygon fill="none" stroke="black" points="859.51,-1562.4 859.51,-1593.2 1159.88,-1593.2 1159.88,-1562.4 859.51,-1562.4"/>
<text text-anchor="start" x="866.51" y="-1574.6" font-family="Arial" font-size="14.00">created_at </text>
<text text-anchor="start" x="936.56" y="-1574.6" font-family="Arial" font-size="14.00" fill="#666666">[timestamp with time zone]</text>
<polygon fill="none" stroke="black" points="859.51,-1531.6 859.51,-1562.4 1159.88,-1562.4 1159.88,-1531.6 859.51,-1531.6"/>
<text text-anchor="start" x="866.51" y="-1543.8" font-family="Arial" font-size="14.00">updated_at </text>
<text text-anchor="start" x="940.47" y="-1543.8" font-family="Arial" font-size="14.00" fill="#666666">[timestamp with time zone]</text>
<polygon fill="none" stroke="black" points="859.51,-1500.8 859.51,-1531.6 1159.88,-1531.6 1159.88,-1500.8 859.51,-1500.8"/>
<text text-anchor="start" x="866.51" y="-1513" font-family="Arial" font-size="14.00">secret </text>
<text text-anchor="start" x="908.52" y="-1513" font-family="Arial" font-size="14.00" fill="#666666">[text]</text>
<polygon fill="none" stroke="black" points="859.51,-1470 859.51,-1500.8 1159.88,-1500.8 1159.88,-1470 859.51,-1470"/>
<text text-anchor="start" x="866.51" y="-1482.2" font-family="Arial" font-size="14.00">phone </text>
<text text-anchor="start" x="909.33" y="-1482.2" font-family="Arial" font-size="14.00" fill="#666666">[text]</text>
<polygon fill="none" stroke="black" points="859.51,-1439.2 859.51,-1470 1159.88,-1470 1159.88,-1439.2 859.51,-1439.2"/>
<text text-anchor="start" x="866.51" y="-1451.4" font-family="Arial" font-size="14.00">last_challenged_at </text>
<text text-anchor="start" x="987.16" y="-1451.4" font-family="Arial" font-size="14.00" fill="#666666">[timestamp with time zone]</text>
<polygon fill="none" stroke="black" points="859.51,-1408.4 859.51,-1439.2 1159.88,-1439.2 1159.88,-1408.4 859.51,-1408.4"/>
<text text-anchor="start" x="866.51" y="-1420.6" font-family="Arial" font-size="14.00">web_authn_credential </text>
<text text-anchor="start" x="1007.39" y="-1420.6" font-family="Arial" font-size="14.00" fill="#666666">[jsonb]</text>
<polygon fill="none" stroke="black" points="859.51,-1377.6 859.51,-1408.4 1159.88,-1408.4 1159.88,-1377.6 859.51,-1377.6"/>
<text text-anchor="start" x="866.51" y="-1389.8" font-family="Arial" font-size="14.00">web_authn_aaguid </text>
<text text-anchor="start" x="988.73" y="-1389.8" font-family="Arial" font-size="14.00" fill="#666666">[uuid]</text>
<polygon fill="none" stroke="black" points="859.51,-1346.8 859.51,-1377.6 1159.88,-1377.6 1159.88,-1346.8 859.51,-1346.8"/>
<text text-anchor="start" x="866.51" y="-1359" font-family="Arial" font-size="14.00">last_webauthn_challenge_data </text>
<text text-anchor="start" x="1063.45" y="-1359" font-family="Arial" font-size="14.00" fill="#666666">[jsonb]</text>
</g>
<!-- auth.mfa_factors&#45;&gt;auth.users -->
<g id="edge3" class="edge">
<title>auth.mfa_factors:user_id&#45;&gt;auth.users:id</title>
<path fill="none" stroke="black" d="M1171.05,-1699.44C1244.98,-1675.35 1195.98,-1380.21 1159.88,-1303.6 1130.91,-1242.14 1071.35,-1267.38 1042.22,-1206 1017.83,-1154.6 984.33,-1078 1041.22,-1078"/>
<polygon fill="black" stroke="black" points="1171.09,-1699.43 1160.53,-1696.5 1165.82,-1700.24 1161.54,-1700.9 1161.54,-1700.9 1161.54,-1700.9 1165.82,-1700.24 1161.9,-1705.4 1171.09,-1699.43"/>
<text text-anchor="start" x="1167.88" y="-1711" font-family="Arial" font-size="10.00">FOREIGN KEY (user_id) REFERENCES auth.users(id) ON DELETE CASCADE</text>
</g>
<!-- auth.one_time_tokens -->
<g id="node5" class="node">
<title>auth.one_time_tokens</title>
<polygon fill="#efefef" stroke="none" points="1264.22,-1654.8 1264.22,-1690.4 1561.17,-1690.4 1561.17,-1654.8 1264.22,-1654.8"/>
<polygon fill="none" stroke="black" points="1264.22,-1654.8 1264.22,-1690.4 1561.17,-1690.4 1561.17,-1654.8 1264.22,-1654.8"/>
<text text-anchor="start" x="1271.22" y="-1668.2" font-family="Arial Bold" font-size="18.00">auth.one_time_tokens</text>
<text text-anchor="start" x="1429.68" y="-1668.2" font-family="Arial" font-size="14.00">    </text>
<text text-anchor="start" x="1460.8" y="-1668.2" font-family="Arial" font-size="14.00" fill="#666666">[BASE TABLE]</text>
<polygon fill="none" stroke="black" points="1264.22,-1624 1264.22,-1654.8 1561.17,-1654.8 1561.17,-1624 1264.22,-1624"/>
<text text-anchor="start" x="1271.22" y="-1636.2" font-family="Arial" font-size="14.00">id </text>
<text text-anchor="start" x="1286" y="-1636.2" font-family="Arial" font-size="14.00" fill="#666666">[uuid]</text>
<polygon fill="none" stroke="black" points="1264.22,-1593.2 1264.22,-1624 1561.17,-1624 1561.17,-1593.2 1264.22,-1593.2"/>
<text text-anchor="start" x="1271.22" y="-1605.4" font-family="Arial" font-size="14.00">user_id </text>
<text text-anchor="start" x="1321.02" y="-1605.4" font-family="Arial" font-size="14.00" fill="#666666">[uuid]</text>
<polygon fill="none" stroke="black" points="1264.22,-1562.4 1264.22,-1593.2 1561.17,-1593.2 1561.17,-1562.4 1264.22,-1562.4"/>
<text text-anchor="start" x="1271.22" y="-1574.6" font-family="Arial" font-size="14.00">token_type </text>
<text text-anchor="start" x="1343.6" y="-1574.6" font-family="Arial" font-size="14.00" fill="#666666">[auth.one_time_token_type]</text>
<polygon fill="none" stroke="black" points="1264.22,-1531.6 1264.22,-1562.4 1561.17,-1562.4 1561.17,-1531.6 1264.22,-1531.6"/>
<text text-anchor="start" x="1271.22" y="-1543.8" font-family="Arial" font-size="14.00">token_hash </text>
<text text-anchor="start" x="1347.5" y="-1543.8" font-family="Arial" font-size="14.00" fill="#666666">[text]</text>
<polygon fill="none" stroke="black" points="1264.22,-1500.8 1264.22,-1531.6 1561.17,-1531.6 1561.17,-1500.8 1264.22,-1500.8"/>
<text text-anchor="start" x="1271.22" y="-1513" font-family="Arial" font-size="14.00">relates_to </text>
<text text-anchor="start" x="1336.59" y="-1513" font-family="Arial" font-size="14.00" fill="#666666">[text]</text>
<polygon fill="none" stroke="black" points="1264.22,-1470 1264.22,-1500.8 1561.17,-1500.8 1561.17,-1470 1264.22,-1470"/>
<text text-anchor="start" x="1271.22" y="-1482.2" font-family="Arial" font-size="14.00">created_at </text>
<text text-anchor="start" x="1341.26" y="-1482.2" font-family="Arial" font-size="14.00" fill="#666666">[timestamp without time zone]</text>
<polygon fill="none" stroke="black" points="1264.22,-1439.2 1264.22,-1470 1561.17,-1470 1561.17,-1439.2 1264.22,-1439.2"/>
<text text-anchor="start" x="1271.22" y="-1451.4" font-family="Arial" font-size="14.00">updated_at </text>
<text text-anchor="start" x="1345.17" y="-1451.4" font-family="Arial" font-size="14.00" fill="#666666">[timestamp without time zone]</text>
</g>
<!-- auth.one_time_tokens&#45;&gt;auth.users -->
<g id="edge4" class="edge">
<title>auth.one_time_tokens:user_id&#45;&gt;auth.users:id</title>
<path fill="none" stroke="black" d="M1252.88,-1608.05C1174.12,-1599.14 1239.61,-1483.4 1264.22,-1396 1290.96,-1301 1352.28,-1300.96 1379.17,-1206 1394.67,-1151.26 1437.06,-1078 1380.17,-1078"/>
<polygon fill="black" stroke="black" points="1252.9,-1608.05 1262.64,-1613.08 1258.22,-1608.34 1262.55,-1608.56 1262.55,-1608.56 1262.55,-1608.56 1258.22,-1608.34 1263.12,-1604.09 1252.9,-1608.05"/>
<text text-anchor="start" x="1270.22" y="-1618.6" font-family="Arial" font-size="10.00">FOREIGN KEY (user_id) REFERENCES auth.users(id) ON DELETE CASCADE</text>
</g>
<!-- auth.oauth_authorizations -->
<g id="node6" class="node">
<title>auth.oauth_authorizations</title>
<polygon fill="#efefef" stroke="none" points="1665.73,-1808.8 1665.73,-1844.4 2027.66,-1844.4 2027.66,-1808.8 1665.73,-1808.8"/>
<polygon fill="none" stroke="black" points="1665.73,-1808.8 1665.73,-1844.4 2027.66,-1844.4 2027.66,-1808.8 1665.73,-1808.8"/>
<text text-anchor="start" x="1691.22" y="-1822.2" font-family="Arial Bold" font-size="18.00">auth.oauth_authorizations</text>
<text text-anchor="start" x="1877.68" y="-1822.2" font-family="Arial" font-size="14.00">    </text>
<text text-anchor="start" x="1908.79" y="-1822.2" font-family="Arial" font-size="14.00" fill="#666666">[BASE TABLE]</text>
<polygon fill="none" stroke="black" points="1665.73,-1778 1665.73,-1808.8 2027.66,-1808.8 2027.66,-1778 1665.73,-1778"/>
<text text-anchor="start" x="1672.73" y="-1790.2" font-family="Arial" font-size="14.00">id </text>
<text text-anchor="start" x="1687.51" y="-1790.2" font-family="Arial" font-size="14.00" fill="#666666">[uuid]</text>
<polygon fill="none" stroke="black" points="1665.73,-1747.2 1665.73,-1778 2027.66,-1778 2027.66,-1747.2 1665.73,-1747.2"/>
<text text-anchor="start" x="1672.73" y="-1759.4" font-family="Arial" font-size="14.00">authorization_id </text>
<text text-anchor="start" x="1775.46" y="-1759.4" font-family="Arial" font-size="14.00" fill="#666666">[text]</text>
<polygon fill="none" stroke="black" points="1665.73,-1716.4 1665.73,-1747.2 2027.66,-1747.2 2027.66,-1716.4 1665.73,-1716.4"/>
<text text-anchor="start" x="1672.73" y="-1728.6" font-family="Arial" font-size="14.00">client_id </text>
<text text-anchor="start" x="1727.98" y="-1728.6" font-family="Arial" font-size="14.00" fill="#666666">[uuid]</text>
<polygon fill="none" stroke="black" points="1665.73,-1685.6 1665.73,-1716.4 2027.66,-1716.4 2027.66,-1685.6 1665.73,-1685.6"/>
<text text-anchor="start" x="1672.73" y="-1697.8" font-family="Arial" font-size="14.00">user_id </text>
<text text-anchor="start" x="1722.53" y="-1697.8" font-family="Arial" font-size="14.00" fill="#666666">[uuid]</text>
<polygon fill="none" stroke="black" points="1665.73,-1654.8 1665.73,-1685.6 2027.66,-1685.6 2027.66,-1654.8 1665.73,-1654.8"/>
<text text-anchor="start" x="1672.73" y="-1667" font-family="Arial" font-size="14.00">redirect_uri </text>
<text text-anchor="start" x="1746.64" y="-1667" font-family="Arial" font-size="14.00" fill="#666666">[text]</text>
<polygon fill="none" stroke="black" points="1665.73,-1624 1665.73,-1654.8 2027.66,-1654.8 2027.66,-1624 1665.73,-1624"/>
<text text-anchor="start" x="1672.73" y="-1636.2" font-family="Arial" font-size="14.00">scope </text>
<text text-anchor="start" x="1713.98" y="-1636.2" font-family="Arial" font-size="14.00" fill="#666666">[text]</text>
<polygon fill="none" stroke="black" points="1665.73,-1593.2 1665.73,-1624 2027.66,-1624 2027.66,-1593.2 1665.73,-1593.2"/>
<text text-anchor="start" x="1672.73" y="-1605.4" font-family="Arial" font-size="14.00">state </text>
<text text-anchor="start" x="1706.97" y="-1605.4" font-family="Arial" font-size="14.00" fill="#666666">[text]</text>
<polygon fill="none" stroke="black" points="1665.73,-1562.4 1665.73,-1593.2 2027.66,-1593.2 2027.66,-1562.4 1665.73,-1562.4"/>
<text text-anchor="start" x="1672.73" y="-1574.6" font-family="Arial" font-size="14.00">resource </text>
<text text-anchor="start" x="1731.09" y="-1574.6" font-family="Arial" font-size="14.00" fill="#666666">[text]</text>
<polygon fill="none" stroke="black" points="1665.73,-1531.6 1665.73,-1562.4 2027.66,-1562.4 2027.66,-1531.6 1665.73,-1531.6"/>
<text text-anchor="start" x="1672.73" y="-1543.8" font-family="Arial" font-size="14.00">code_challenge </text>
<text text-anchor="start" x="1774.7" y="-1543.8" font-family="Arial" font-size="14.00" fill="#666666">[text]</text>
<polygon fill="none" stroke="black" points="1665.73,-1500.8 1665.73,-1531.6 2027.66,-1531.6 2027.66,-1500.8 1665.73,-1500.8"/>
<text text-anchor="start" x="1672.73" y="-1513" font-family="Arial" font-size="14.00">code_challenge_method </text>
<text text-anchor="start" x="1829.18" y="-1513" font-family="Arial" font-size="14.00" fill="#666666">[auth.code_challenge_method]</text>
<polygon fill="none" stroke="black" points="1665.73,-1470 1665.73,-1500.8 2027.66,-1500.8 2027.66,-1470 1665.73,-1470"/>
<text text-anchor="start" x="1672.73" y="-1482.2" font-family="Arial" font-size="14.00">response_type </text>
<text text-anchor="start" x="1768.46" y="-1482.2" font-family="Arial" font-size="14.00" fill="#666666">[auth.oauth_response_type]</text>
<polygon fill="none" stroke="black" points="1665.73,-1439.2 1665.73,-1470 2027.66,-1470 2027.66,-1439.2 1665.73,-1439.2"/>
<text text-anchor="start" x="1672.73" y="-1451.4" font-family="Arial" font-size="14.00">status </text>
<text text-anchor="start" x="1713.97" y="-1451.4" font-family="Arial" font-size="14.00" fill="#666666">[auth.oauth_authorization_status]</text>
<polygon fill="none" stroke="black" points="1665.73,-1408.4 1665.73,-1439.2 2027.66,-1439.2 2027.66,-1408.4 1665.73,-1408.4"/>
<text text-anchor="start" x="1672.73" y="-1420.6" font-family="Arial" font-size="14.00">authorization_code </text>
<text text-anchor="start" x="1794.93" y="-1420.6" font-family="Arial" font-size="14.00" fill="#666666">[text]</text>
<polygon fill="none" stroke="black" points="1665.73,-1377.6 1665.73,-1408.4 2027.66,-1408.4 2027.66,-1377.6 1665.73,-1377.6"/>
<text text-anchor="start" x="1672.73" y="-1389.8" font-family="Arial" font-size="14.00">created_at </text>
<text text-anchor="start" x="1742.77" y="-1389.8" font-family="Arial" font-size="14.00" fill="#666666">[timestamp with time zone]</text>
<polygon fill="none" stroke="black" points="1665.73,-1346.8 1665.73,-1377.6 2027.66,-1377.6 2027.66,-1346.8 1665.73,-1346.8"/>
<text text-anchor="start" x="1672.73" y="-1359" font-family="Arial" font-size="14.00">expires_at </text>
<text text-anchor="start" x="1741.21" y="-1359" font-family="Arial" font-size="14.00" fill="#666666">[timestamp with time zone]</text>
<polygon fill="none" stroke="black" points="1665.73,-1316 1665.73,-1346.8 2027.66,-1346.8 2027.66,-1316 1665.73,-1316"/>
<text text-anchor="start" x="1672.73" y="-1328.2" font-family="Arial" font-size="14.00">approved_at </text>
<text text-anchor="start" x="1754.46" y="-1328.2" font-family="Arial" font-size="14.00" fill="#666666">[timestamp with time zone]</text>
<polygon fill="none" stroke="black" points="1665.73,-1285.2 1665.73,-1316 2027.66,-1316 2027.66,-1285.2 1665.73,-1285.2"/>
<text text-anchor="start" x="1672.73" y="-1297.4" font-family="Arial" font-size="14.00">nonce </text>
<text text-anchor="start" x="1714.76" y="-1297.4" font-family="Arial" font-size="14.00" fill="#666666">[text]</text>
</g>
<!-- auth.oauth_authorizations&#45;&gt;auth.users -->
<g id="edge5" class="edge">
<title>auth.oauth_authorizations:user_id&#45;&gt;auth.users:id</title>
<path fill="none" stroke="black" d="M1654.39,-1699.58C1569.4,-1674.58 1664.1,-1327.12 1613.69,-1242 1549.07,-1132.87 1507,-1078 1380.17,-1078"/>
<polygon fill="black" stroke="black" points="1654.49,-1699.59 1663.78,-1705.41 1659.77,-1700.32 1664.06,-1700.91 1664.06,-1700.91 1664.06,-1700.91 1659.77,-1700.32 1665.01,-1696.5 1654.49,-1699.59"/>
<text text-anchor="start" x="1394.08" y="-1685" font-family="Arial" font-size="10.00">FOREIGN KEY (user_id) REFERENCES auth.users(id) ON DELETE CASCADE</text>
</g>
<!-- auth.oauth_consents -->
<g id="node7" class="node">
<title>auth.oauth_consents</title>
<polygon fill="#efefef" stroke="none" points="2132.22,-1639.4 2132.22,-1675 2417.17,-1675 2417.17,-1639.4 2132.22,-1639.4"/>
<polygon fill="none" stroke="black" points="2132.22,-1639.4 2132.22,-1675 2417.17,-1675 2417.17,-1639.4 2132.22,-1639.4"/>
<text text-anchor="start" x="2139.22" y="-1652.8" font-family="Arial Bold" font-size="18.00">auth.oauth_consents</text>
<text text-anchor="start" x="2285.69" y="-1652.8" font-family="Arial" font-size="14.00">    </text>
<text text-anchor="start" x="2316.8" y="-1652.8" font-family="Arial" font-size="14.00" fill="#666666">[BASE TABLE]</text>
<polygon fill="none" stroke="black" points="2132.22,-1608.6 2132.22,-1639.4 2417.17,-1639.4 2417.17,-1608.6 2132.22,-1608.6"/>
<text text-anchor="start" x="2139.22" y="-1620.8" font-family="Arial" font-size="14.00">id </text>
<text text-anchor="start" x="2154" y="-1620.8" font-family="Arial" font-size="14.00" fill="#666666">[uuid]</text>
<polygon fill="none" stroke="black" points="2132.22,-1577.8 2132.22,-1608.6 2417.17,-1608.6 2417.17,-1577.8 2132.22,-1577.8"/>
<text text-anchor="start" x="2139.22" y="-1590" font-family="Arial" font-size="14.00">user_id </text>
<text text-anchor="start" x="2189.02" y="-1590" font-family="Arial" font-size="14.00" fill="#666666">[uuid]</text>
<polygon fill="none" stroke="black" points="2132.22,-1547 2132.22,-1577.8 2417.17,-1577.8 2417.17,-1547 2132.22,-1547"/>
<text text-anchor="start" x="2139.22" y="-1559.2" font-family="Arial" font-size="14.00">client_id </text>
<text text-anchor="start" x="2194.47" y="-1559.2" font-family="Arial" font-size="14.00" fill="#666666">[uuid]</text>
<polygon fill="none" stroke="black" points="2132.22,-1516.2 2132.22,-1547 2417.17,-1547 2417.17,-1516.2 2132.22,-1516.2"/>
<text text-anchor="start" x="2139.22" y="-1528.4" font-family="Arial" font-size="14.00">scopes </text>
<text text-anchor="start" x="2187.46" y="-1528.4" font-family="Arial" font-size="14.00" fill="#666666">[text]</text>
<polygon fill="none" stroke="black" points="2132.22,-1485.4 2132.22,-1516.2 2417.17,-1516.2 2417.17,-1485.4 2132.22,-1485.4"/>
<text text-anchor="start" x="2139.22" y="-1497.6" font-family="Arial" font-size="14.00">granted_at </text>
<text text-anchor="start" x="2210.05" y="-1497.6" font-family="Arial" font-size="14.00" fill="#666666">[timestamp with time zone]</text>
<polygon fill="none" stroke="black" points="2132.22,-1454.6 2132.22,-1485.4 2417.17,-1485.4 2417.17,-1454.6 2132.22,-1454.6"/>
<text text-anchor="start" x="2139.22" y="-1466.8" font-family="Arial" font-size="14.00">revoked_at </text>
<text text-anchor="start" x="2212.37" y="-1466.8" font-family="Arial" font-size="14.00" fill="#666666">[timestamp with time zone]</text>
</g>
<!-- auth.oauth_consents&#45;&gt;auth.users -->
<g id="edge6" class="edge">
<title>auth.oauth_consents:user_id&#45;&gt;auth.users:id</title>
<path fill="none" stroke="black" d="M2121.14,-1591.32C2059.61,-1566.24 2130.56,-1297.36 2079.69,-1242 1971.67,-1124.43 1539.83,-1078 1380.17,-1078"/>
<polygon fill="black" stroke="black" points="2121.06,-1591.31 2130.06,-1597.56 2126.3,-1592.28 2130.56,-1593.08 2130.56,-1593.08 2130.56,-1593.08 2126.3,-1592.28 2131.71,-1588.71 2121.06,-1591.31"/>
<text text-anchor="start" x="2138.22" y="-1603.2" font-family="Arial" font-size="10.00">FOREIGN KEY (user_id) REFERENCES auth.users(id) ON DELETE CASCADE</text>
</g>
</g>
</svg>
