<?xml version="1.0" encoding="UTF-8" standalone="no"?>
<!DOCTYPE svg PUBLIC "-//W3C//DTD SVG 1.1//EN"
 "http://www.w3.org/Graphics/SVG/1.1/DTD/svg11.dtd">
<!-- Generated by graphviz version 12.1.2 (20240928.0832)
 -->
<!-- Title: auth.oauth_client_states Pages: 1 -->
<svg width="412pt" height="259pt"
 viewBox="0.00 0.00 412.34 259.20" xmlns="http://www.w3.org/2000/svg" xmlns:xlink="http://www.w3.org/1999/xlink">
<g id="graph0" class="graph" transform="scale(1 1) rotate(0) translate(4 255.2)">
<title>auth.oauth_client_states</title>
<polygon fill="white" stroke="none" points="-4,4 -4,-255.2 408.34,-255.2 408.34,4 -4,4"/>
<!-- auth.oauth_client_states -->
<g id="node1" class="node">
<title>auth.oauth_client_states</title>
<polygon fill="#efefef" stroke="none" points="46.2,-169.4 46.2,-205 358.14,-205 358.14,-169.4 46.2,-169.4"/>
<polygon fill="none" stroke="black" points="46.2,-169.4 46.2,-205 358.14,-205 358.14,-169.4 46.2,-169.4"/>
<text text-anchor="start" x="53.2" y="-182.8" font-family="Arial Bold" font-size="18.00">auth.oauth_client_states</text>
<text text-anchor="start" x="226.65" y="-182.8" font-family="Arial" font-size="14.00">    </text>
<text text-anchor="start" x="257.77" y="-182.8" font-family="Arial" font-size="14.00" fill="#666666">[BASE TABLE]</text>
<polygon fill="none" stroke="black" points="46.2,-138.6 46.2,-169.4 358.14,-169.4 358.14,-138.6 46.2,-138.6"/>
<text text-anchor="start" x="53.2" y="-150.8" font-family="Arial" font-size="14.00">id </text>
<text text-anchor="start" x="67.99" y="-150.8" font-family="Arial" font-size="14.00" fill="#666666">[uuid]</text>
<polygon fill="none" stroke="black" points="46.2,-107.8 46.2,-138.6 358.14,-138.6 358.14,-107.8 46.2,-107.8"/>
<text text-anchor="start" x="53.2" y="-120" font-family="Arial" font-size="14.00">provider_type </text>
<text text-anchor="start" x="141.92" y="-120" font-family="Arial" font-size="14.00" fill="#666666">[text]</text>
<polygon fill="none" stroke="black" points="46.2,-77 46.2,-107.8 358.14,-107.8 358.14,-77 46.2,-77"/>
<text text-anchor="start" x="53.2" y="-89.2" font-family="Arial" font-size="14.00">code_verifier </text>
<text text-anchor="start" x="137.24" y="-89.2" font-family="Arial" font-size="14.00" fill="#666666">[text]</text>
<polygon fill="none" stroke="black" points="46.2,-46.2 46.2,-77 358.14,-77 358.14,-46.2 46.2,-46.2"/>
<text text-anchor="start" x="53.2" y="-58.4" font-family="Arial" font-size="14.00">created_at </text>
<text text-anchor="start" x="123.25" y="-58.4" font-family="Arial" font-size="14.00" fill="#666666">[timestamp with time zone]</text>
<polygon fill="none" stroke="black" stroke-width="3" points="44.7,-44.7 44.7,-206.5 359.64,-206.5 359.64,-44.7 44.7,-44.7"/>
</g>
</g>
</svg>
