<?xml version="1.0" encoding="UTF-8" standalone="no"?>
<!DOCTYPE svg PUBLIC "-//W3C//DTD SVG 1.1//EN"
 "http://www.w3.org/Graphics/SVG/1.1/DTD/svg11.dtd">
<!-- Generated by graphviz version 12.1.2 (20240928.0832)
 -->
<!-- Title: auth.identities Pages: 1 -->
<svg width="729pt" height="1649pt"
 viewBox="0.00 0.00 729.38 1649.20" xmlns="http://www.w3.org/2000/svg" xmlns:xlink="http://www.w3.org/1999/xlink">
<g id="graph0" class="graph" transform="scale(1 1) rotate(0) translate(4 1645.2)">
<title>auth.identities</title>
<polygon fill="white" stroke="none" points="-4,4 -4,-1645.2 725.38,-1645.2 725.38,4 -4,4"/>
<!-- auth.identities -->
<g id="node1" class="node">
<title>auth.identities</title>
<polygon fill="#efefef" stroke="none" points="73.17,-1559.4 73.17,-1595 350.18,-1595 350.18,-1559.4 73.17,-1559.4"/>
<polygon fill="none" stroke="black" points="73.17,-1559.4 73.17,-1595 350.18,-1595 350.18,-1559.4 73.17,-1559.4"/>
<text text-anchor="start" x="98.69" y="-1572.8" font-family="Arial Bold" font-size="18.00">auth.identities</text>
<text text-anchor="start" x="200.17" y="-1572.8" font-family="Arial" font-size="14.00">    </text>
<text text-anchor="start" x="231.29" y="-1572.8" font-family="Arial" font-size="14.00" fill="#666666">[BASE TABLE]</text>
<polygon fill="none" stroke="black" points="73.17,-1528.6 73.17,-1559.4 350.18,-1559.4 350.18,-1528.6 73.17,-1528.6"/>
<text text-anchor="start" x="80.17" y="-1540.8" font-family="Arial" font-size="14.00">provider_id </text>
<text text-anchor="start" x="153.32" y="-1540.8" font-family="Arial" font-size="14.00" fill="#666666">[text]</text>
<polygon fill="none" stroke="black" points="73.17,-1497.8 73.17,-1528.6 350.18,-1528.6 350.18,-1497.8 73.17,-1497.8"/>
<text text-anchor="start" x="80.17" y="-1510" font-family="Arial" font-size="14.00">user_id </text>
<text text-anchor="start" x="129.98" y="-1510" font-family="Arial" font-size="14.00" fill="#666666">[uuid]</text>
<polygon fill="none" stroke="black" points="73.17,-1467 73.17,-1497.8 350.18,-1497.8 350.18,-1467 73.17,-1467"/>
<text text-anchor="start" x="80.17" y="-1479.2" font-family="Arial" font-size="14.00">identity_data </text>
<text text-anchor="start" x="163.45" y="-1479.2" font-family="Arial" font-size="14.00" fill="#666666">[jsonb]</text>
<polygon fill="none" stroke="black" points="73.17,-1436.2 73.17,-1467 350.18,-1467 350.18,-1436.2 73.17,-1436.2"/>
<text text-anchor="start" x="80.17" y="-1448.4" font-family="Arial" font-size="14.00">provider </text>
<text text-anchor="start" x="134.64" y="-1448.4" font-family="Arial" font-size="14.00" fill="#666666">[text]</text>
<polygon fill="none" stroke="black" points="73.17,-1405.4 73.17,-1436.2 350.18,-1436.2 350.18,-1405.4 73.17,-1405.4"/>
<text text-anchor="start" x="80.17" y="-1417.6" font-family="Arial" font-size="14.00">last_sign_in_at </text>
<text text-anchor="start" x="177.46" y="-1417.6" font-family="Arial" font-size="14.00" fill="#666666">[timestamp with time zone]</text>
<polygon fill="none" stroke="black" points="73.17,-1374.6 73.17,-1405.4 350.18,-1405.4 350.18,-1374.6 73.17,-1374.6"/>
<text text-anchor="start" x="80.17" y="-1386.8" font-family="Arial" font-size="14.00">created_at </text>
<text text-anchor="start" x="150.22" y="-1386.8" font-family="Arial" font-size="14.00" fill="#666666">[timestamp with time zone]</text>
<polygon fill="none" stroke="black" points="73.17,-1343.8 73.17,-1374.6 350.18,-1374.6 350.18,-1343.8 73.17,-1343.8"/>
<text text-anchor="start" x="80.17" y="-1356" font-family="Arial" font-size="14.00">updated_at </text>
<text text-anchor="start" x="154.13" y="-1356" font-family="Arial" font-size="14.00" fill="#666666">[timestamp with time zone]</text>
<polygon fill="none" stroke="black" points="73.17,-1313 73.17,-1343.8 350.18,-1343.8 350.18,-1313 73.17,-1313"/>
<text text-anchor="start" x="80.17" y="-1325.2" font-family="Arial" font-size="14.00">email </text>
<text text-anchor="start" x="117.51" y="-1325.2" font-family="Arial" font-size="14.00" fill="#666666">[text]</text>
<polygon fill="none" stroke="black" points="73.17,-1282.2 73.17,-1313 350.18,-1313 350.18,-1282.2 73.17,-1282.2"/>
<text text-anchor="start" x="80.17" y="-1294.4" font-family="Arial" font-size="14.00">id </text>
<text text-anchor="start" x="94.95" y="-1294.4" font-family="Arial" font-size="14.00" fill="#666666">[uuid]</text>
<polygon fill="none" stroke="black" stroke-width="3" points="71.67,-1280.7 71.67,-1596.5 351.68,-1596.5 351.68,-1280.7 71.67,-1280.7"/>
</g>
<!-- auth.users -->
<g id="node2" class="node">
<title>auth.users</title>
<polygon fill="#efefef" stroke="none" points="43.2,-1121.2 43.2,-1156.8 380.15,-1156.8 380.15,-1121.2 43.2,-1121.2"/>
<polygon fill="none" stroke="black" points="43.2,-1121.2 43.2,-1156.8 380.15,-1156.8 380.15,-1121.2 43.2,-1121.2"/>
<text text-anchor="start" x="113.19" y="-1134.6" font-family="Arial Bold" font-size="18.00">auth.users</text>
<text text-anchor="start" x="185.67" y="-1134.6" font-family="Arial" font-size="14.00">    </text>
<text text-anchor="start" x="216.79" y="-1134.6" font-family="Arial" font-size="14.00" fill="#666666">[BASE TABLE]</text>
<polygon fill="none" stroke="black" points="43.2,-1090.4 43.2,-1121.2 380.15,-1121.2 380.15,-1090.4 43.2,-1090.4"/>
<text text-anchor="start" x="50.2" y="-1102.6" font-family="Arial" font-size="14.00">instance_id </text>
<text text-anchor="start" x="124.92" y="-1102.6" font-family="Arial" font-size="14.00" fill="#666666">[uuid]</text>
<polygon fill="none" stroke="black" points="43.2,-1059.6 43.2,-1090.4 380.15,-1090.4 380.15,-1059.6 43.2,-1059.6"/>
<text text-anchor="start" x="50.2" y="-1071.8" font-family="Arial" font-size="14.00">id </text>
<text text-anchor="start" x="64.99" y="-1071.8" font-family="Arial" font-size="14.00" fill="#666666">[uuid]</text>
<polygon fill="none" stroke="black" points="43.2,-1028.8 43.2,-1059.6 380.15,-1059.6 380.15,-1028.8 43.2,-1028.8"/>
<text text-anchor="start" x="50.2" y="-1041" font-family="Arial" font-size="14.00">aud </text>
<text text-anchor="start" x="77.45" y="-1041" font-family="Arial" font-size="14.00" fill="#666666">[varchar(255)]</text>
<polygon fill="none" stroke="black" points="43.2,-998 43.2,-1028.8 380.15,-1028.8 380.15,-998 43.2,-998"/>
<text text-anchor="start" x="50.2" y="-1010.2" font-family="Arial" font-size="14.00">role </text>
<text text-anchor="start" x="77.43" y="-1010.2" font-family="Arial" font-size="14.00" fill="#666666">[varchar(255)]</text>
<polygon fill="none" stroke="black" points="43.2,-967.2 43.2,-998 380.15,-998 380.15,-967.2 43.2,-967.2"/>
<text text-anchor="start" x="50.2" y="-979.4" font-family="Arial" font-size="14.00">email </text>
<text text-anchor="start" x="87.54" y="-979.4" font-family="Arial" font-size="14.00" fill="#666666">[varchar(255)]</text>
<polygon fill="none" stroke="black" points="43.2,-936.4 43.2,-967.2 380.15,-967.2 380.15,-936.4 43.2,-936.4"/>
<text text-anchor="start" x="50.2" y="-948.6" font-family="Arial" font-size="14.00">encrypted_password </text>
<text text-anchor="start" x="183.28" y="-948.6" font-family="Arial" font-size="14.00" fill="#666666">[varchar(255)]</text>
<polygon fill="none" stroke="black" points="43.2,-905.6 43.2,-936.4 380.15,-936.4 380.15,-905.6 43.2,-905.6"/>
<text text-anchor="start" x="50.2" y="-917.8" font-family="Arial" font-size="14.00">email_confirmed_at </text>
<text text-anchor="start" x="176.26" y="-917.8" font-family="Arial" font-size="14.00" fill="#666666">[timestamp with time zone]</text>
<polygon fill="none" stroke="black" points="43.2,-874.8 43.2,-905.6 380.15,-905.6 380.15,-874.8 43.2,-874.8"/>
<text text-anchor="start" x="50.2" y="-887" font-family="Arial" font-size="14.00">invited_at </text>
<text text-anchor="start" x="114.02" y="-887" font-family="Arial" font-size="14.00" fill="#666666">[timestamp with time zone]</text>
<polygon fill="none" stroke="black" points="43.2,-844 43.2,-874.8 380.15,-874.8 380.15,-844 43.2,-844"/>
<text text-anchor="start" x="50.2" y="-856.2" font-family="Arial" font-size="14.00">confirmation_token </text>
<text text-anchor="start" x="172.38" y="-856.2" font-family="Arial" font-size="14.00" fill="#666666">[varchar(255)]</text>
<polygon fill="none" stroke="black" points="43.2,-813.2 43.2,-844 380.15,-844 380.15,-813.2 43.2,-813.2"/>
<text text-anchor="start" x="50.2" y="-825.4" font-family="Arial" font-size="14.00">confirmation_sent_at </text>
<text text-anchor="start" x="184.05" y="-825.4" font-family="Arial" font-size="14.00" fill="#666666">[timestamp with time zone]</text>
<polygon fill="none" stroke="black" points="43.2,-782.4 43.2,-813.2 380.15,-813.2 380.15,-782.4 43.2,-782.4"/>
<text text-anchor="start" x="50.2" y="-794.6" font-family="Arial" font-size="14.00">recovery_token </text>
<text text-anchor="start" x="149.81" y="-794.6" font-family="Arial" font-size="14.00" fill="#666666">[varchar(255)]</text>
<polygon fill="none" stroke="black" points="43.2,-751.6 43.2,-782.4 380.15,-782.4 380.15,-751.6 43.2,-751.6"/>
<text text-anchor="start" x="50.2" y="-763.8" font-family="Arial" font-size="14.00">recovery_sent_at </text>
<text text-anchor="start" x="161.48" y="-763.8" font-family="Arial" font-size="14.00" fill="#666666">[timestamp with time zone]</text>
<polygon fill="none" stroke="black" points="43.2,-720.8 43.2,-751.6 380.15,-751.6 380.15,-720.8 43.2,-720.8"/>
<text text-anchor="start" x="50.2" y="-733" font-family="Arial" font-size="14.00">email_change_token_new </text>
<text text-anchor="start" x="216.76" y="-733" font-family="Arial" font-size="14.00" fill="#666666">[varchar(255)]</text>
<polygon fill="none" stroke="black" points="43.2,-690 43.2,-720.8 380.15,-720.8 380.15,-690 43.2,-690"/>
<text text-anchor="start" x="50.2" y="-702.2" font-family="Arial" font-size="14.00">email_change </text>
<text text-anchor="start" x="141.26" y="-702.2" font-family="Arial" font-size="14.00" fill="#666666">[varchar(255)]</text>
<polygon fill="none" stroke="black" points="43.2,-659.2 43.2,-690 380.15,-690 380.15,-659.2 43.2,-659.2"/>
<text text-anchor="start" x="50.2" y="-671.4" font-family="Arial" font-size="14.00">email_change_sent_at </text>
<text text-anchor="start" x="194.97" y="-671.4" font-family="Arial" font-size="14.00" fill="#666666">[timestamp with time zone]</text>
<polygon fill="none" stroke="black" points="43.2,-628.4 43.2,-659.2 380.15,-659.2 380.15,-628.4 43.2,-628.4"/>
<text text-anchor="start" x="50.2" y="-640.6" font-family="Arial" font-size="14.00">last_sign_in_at </text>
<text text-anchor="start" x="147.49" y="-640.6" font-family="Arial" font-size="14.00" fill="#666666">[timestamp with time zone]</text>
<polygon fill="none" stroke="black" points="43.2,-597.6 43.2,-628.4 380.15,-628.4 380.15,-597.6 43.2,-597.6"/>
<text text-anchor="start" x="50.2" y="-609.8" font-family="Arial" font-size="14.00">raw_app_meta_data </text>
<text text-anchor="start" x="181.74" y="-609.8" font-family="Arial" font-size="14.00" fill="#666666">[jsonb]</text>
<polygon fill="none" stroke="black" points="43.2,-566.8 43.2,-597.6 380.15,-597.6 380.15,-566.8 43.2,-566.8"/>
<text text-anchor="start" x="50.2" y="-579" font-family="Arial" font-size="14.00">raw_user_meta_data </text>
<text text-anchor="start" x="185.61" y="-579" font-family="Arial" font-size="14.00" fill="#666666">[jsonb]</text>
<polygon fill="none" stroke="black" points="43.2,-536 43.2,-566.8 380.15,-566.8 380.15,-536 43.2,-536"/>
<text text-anchor="start" x="50.2" y="-548.2" font-family="Arial" font-size="14.00">is_super_admin </text>
<text text-anchor="start" x="152.92" y="-548.2" font-family="Arial" font-size="14.00" fill="#666666">[boolean]</text>
<polygon fill="none" stroke="black" points="43.2,-505.2 43.2,-536 380.15,-536 380.15,-505.2 43.2,-505.2"/>
<text text-anchor="start" x="50.2" y="-517.4" font-family="Arial" font-size="14.00">created_at </text>
<text text-anchor="start" x="120.25" y="-517.4" font-family="Arial" font-size="14.00" fill="#666666">[timestamp with time zone]</text>
<polygon fill="none" stroke="black" points="43.2,-474.4 43.2,-505.2 380.15,-505.2 380.15,-474.4 43.2,-474.4"/>
<text text-anchor="start" x="50.2" y="-486.6" font-family="Arial" font-size="14.00">updated_at </text>
<text text-anchor="start" x="124.16" y="-486.6" font-family="Arial" font-size="14.00" fill="#666666">[timestamp with time zone]</text>
<polygon fill="none" stroke="black" points="43.2,-443.6 43.2,-474.4 380.15,-474.4 380.15,-443.6 43.2,-443.6"/>
<text text-anchor="start" x="50.2" y="-455.8" font-family="Arial" font-size="14.00">phone </text>
<text text-anchor="start" x="93.02" y="-455.8" font-family="Arial" font-size="14.00" fill="#666666">[text]</text>
<polygon fill="none" stroke="black" points="43.2,-412.8 43.2,-443.6 380.15,-443.6 380.15,-412.8 43.2,-412.8"/>
<text text-anchor="start" x="50.2" y="-425" font-family="Arial" font-size="14.00">phone_confirmed_at </text>
<text text-anchor="start" x="181.74" y="-425" font-family="Arial" font-size="14.00" fill="#666666">[timestamp with time zone]</text>
<polygon fill="none" stroke="black" points="43.2,-382 43.2,-412.8 380.15,-412.8 380.15,-382 43.2,-382"/>
<text text-anchor="start" x="50.2" y="-394.2" font-family="Arial" font-size="14.00">phone_change </text>
<text text-anchor="start" x="146.74" y="-394.2" font-family="Arial" font-size="14.00" fill="#666666">[text]</text>
<polygon fill="none" stroke="black" points="43.2,-351.2 43.2,-382 380.15,-382 380.15,-351.2 43.2,-351.2"/>
<text text-anchor="start" x="50.2" y="-363.4" font-family="Arial" font-size="14.00">phone_change_token </text>
<text text-anchor="start" x="188.77" y="-363.4" font-family="Arial" font-size="14.00" fill="#666666">[varchar(255)]</text>
<polygon fill="none" stroke="black" points="43.2,-320.4 43.2,-351.2 380.15,-351.2 380.15,-320.4 43.2,-320.4"/>
<text text-anchor="start" x="50.2" y="-332.6" font-family="Arial" font-size="14.00">phone_change_sent_at </text>
<text text-anchor="start" x="200.45" y="-332.6" font-family="Arial" font-size="14.00" fill="#666666">[timestamp with time zone]</text>
<polygon fill="none" stroke="black" points="43.2,-289.6 43.2,-320.4 380.15,-320.4 380.15,-289.6 43.2,-289.6"/>
<text text-anchor="start" x="50.2" y="-301.8" font-family="Arial" font-size="14.00">confirmed_at </text>
<text text-anchor="start" x="135.02" y="-301.8" font-family="Arial" font-size="14.00" fill="#666666">[timestamp with time zone]</text>
<polygon fill="none" stroke="black" points="43.2,-258.8 43.2,-289.6 380.15,-289.6 380.15,-258.8 43.2,-258.8"/>
<text text-anchor="start" x="50.2" y="-271" font-family="Arial" font-size="14.00">email_change_token_current </text>
<text text-anchor="start" x="234.65" y="-271" font-family="Arial" font-size="14.00" fill="#666666">[varchar(255)]</text>
<polygon fill="none" stroke="black" points="43.2,-228 43.2,-258.8 380.15,-258.8 380.15,-228 43.2,-228"/>
<text text-anchor="start" x="50.2" y="-240.2" font-family="Arial" font-size="14.00">email_change_confirm_status </text>
<text text-anchor="start" x="240.08" y="-240.2" font-family="Arial" font-size="14.00" fill="#666666">[smallint]</text>
<polygon fill="none" stroke="black" points="43.2,-197.2 43.2,-228 380.15,-228 380.15,-197.2 43.2,-197.2"/>
<text text-anchor="start" x="50.2" y="-209.4" font-family="Arial" font-size="14.00">banned_until </text>
<text text-anchor="start" x="134.28" y="-209.4" font-family="Arial" font-size="14.00" fill="#666666">[timestamp with time zone]</text>
<polygon fill="none" stroke="black" points="43.2,-166.4 43.2,-197.2 380.15,-197.2 380.15,-166.4 43.2,-166.4"/>
<text text-anchor="start" x="50.2" y="-178.6" font-family="Arial" font-size="14.00">reauthentication_token </text>
<text text-anchor="start" x="195.75" y="-178.6" font-family="Arial" font-size="14.00" fill="#666666">[varchar(255)]</text>
<polygon fill="none" stroke="black" points="43.2,-135.6 43.2,-166.4 380.15,-166.4 380.15,-135.6 43.2,-135.6"/>
<text text-anchor="start" x="50.2" y="-147.8" font-family="Arial" font-size="14.00">reauthentication_sent_at </text>
<text text-anchor="start" x="207.43" y="-147.8" font-family="Arial" font-size="14.00" fill="#666666">[timestamp with time zone]</text>
<polygon fill="none" stroke="black" points="43.2,-104.8 43.2,-135.6 380.15,-135.6 380.15,-104.8 43.2,-104.8"/>
<text text-anchor="start" x="50.2" y="-117" font-family="Arial" font-size="14.00">is_sso_user </text>
<text text-anchor="start" x="128.79" y="-117" font-family="Arial" font-size="14.00" fill="#666666">[boolean]</text>
<polygon fill="none" stroke="black" points="43.2,-74 43.2,-104.8 380.15,-104.8 380.15,-74 43.2,-74"/>
<text text-anchor="start" x="50.2" y="-86.2" font-family="Arial" font-size="14.00">deleted_at </text>
<text text-anchor="start" x="119.48" y="-86.2" font-family="Arial" font-size="14.00" fill="#666666">[timestamp with time zone]</text>
<polygon fill="none" stroke="black" points="43.2,-43.2 43.2,-74 380.15,-74 380.15,-43.2 43.2,-43.2"/>
<text text-anchor="start" x="50.2" y="-55.4" font-family="Arial" font-size="14.00">is_anonymous </text>
<text text-anchor="start" x="144.37" y="-55.4" font-family="Arial" font-size="14.00" fill="#666666">[boolean]</text>
</g>
<!-- auth.identities&#45;&gt;auth.users -->
<g id="edge1" class="edge">
<title>auth.identities:user_id&#45;&gt;auth.users:id</title>
<path fill="none" stroke="black" d="M360.1,-1508.28C403.42,-1460.14 426.9,-1075 381.15,-1075"/>
<polygon fill="black" stroke="black" points="360.23,-1508.21 349.3,-1509.1 355.56,-1510.78 351.77,-1512.88 351.77,-1512.88 351.77,-1512.88 355.56,-1510.78 353.65,-1516.98 360.23,-1508.21"/>
<text text-anchor="start" x="358.18" y="-1523.2" font-family="Arial" font-size="10.00">FOREIGN KEY (user_id) REFERENCES auth.users(id) ON DELETE CASCADE</text>
</g>
</g>
</svg>
