<?xml version="1.0" encoding="UTF-8" standalone="no"?>
<!DOCTYPE svg PUBLIC "-//W3C//DTD SVG 1.1//EN"
 "http://www.w3.org/Graphics/SVG/1.1/DTD/svg11.dtd">
<!-- Generated by graphviz version 12.1.2 (20240928.0832)
 -->
<!-- Title: auth.sso_domains Pages: 1 -->
<svg width="768pt" height="602pt"
 viewBox="0.00 0.00 768.48 602.00" xmlns="http://www.w3.org/2000/svg" xmlns:xlink="http://www.w3.org/1999/xlink">
<g id="graph0" class="graph" transform="scale(1 1) rotate(0) translate(4 598)">
<title>auth.sso_domains</title>
<polygon fill="white" stroke="none" points="-4,4 -4,-598 764.48,-598 764.48,4 -4,4"/>
<!-- auth.sso_domains -->
<g id="node1" class="node">
<title>auth.sso_domains</title>
<polygon fill="#efefef" stroke="none" points="46.69,-512.2 46.69,-547.8 313.68,-547.8 313.68,-512.2 46.69,-512.2"/>
<polygon fill="none" stroke="black" points="46.69,-512.2 46.69,-547.8 313.68,-547.8 313.68,-512.2 46.69,-512.2"/>
<text text-anchor="start" x="53.69" y="-525.6" font-family="Arial Bold" font-size="18.00">auth.sso_domains</text>
<text text-anchor="start" x="182.19" y="-525.6" font-family="Arial" font-size="14.00">    </text>
<text text-anchor="start" x="213.31" y="-525.6" font-family="Arial" font-size="14.00" fill="#666666">[BASE TABLE]</text>
<polygon fill="none" stroke="black" points="46.69,-481.4 46.69,-512.2 313.68,-512.2 313.68,-481.4 46.69,-481.4"/>
<text text-anchor="start" x="53.69" y="-493.6" font-family="Arial" font-size="14.00">id </text>
<text text-anchor="start" x="68.48" y="-493.6" font-family="Arial" font-size="14.00" fill="#666666">[uuid]</text>
<polygon fill="none" stroke="black" points="46.69,-450.6 46.69,-481.4 313.68,-481.4 313.68,-450.6 46.69,-450.6"/>
<text text-anchor="start" x="53.69" y="-462.8" font-family="Arial" font-size="14.00">sso_provider_id </text>
<text text-anchor="start" x="156.42" y="-462.8" font-family="Arial" font-size="14.00" fill="#666666">[uuid]</text>
<polygon fill="none" stroke="black" points="46.69,-419.8 46.69,-450.6 313.68,-450.6 313.68,-419.8 46.69,-419.8"/>
<text text-anchor="start" x="53.69" y="-432" font-family="Arial" font-size="14.00">domain </text>
<text text-anchor="start" x="103.5" y="-432" font-family="Arial" font-size="14.00" fill="#666666">[text]</text>
<polygon fill="none" stroke="black" points="46.69,-389 46.69,-419.8 313.68,-419.8 313.68,-389 46.69,-389"/>
<text text-anchor="start" x="53.69" y="-401.2" font-family="Arial" font-size="14.00">created_at </text>
<text text-anchor="start" x="123.74" y="-401.2" font-family="Arial" font-size="14.00" fill="#666666">[timestamp with time zone]</text>
<polygon fill="none" stroke="black" points="46.69,-358.2 46.69,-389 313.68,-389 313.68,-358.2 46.69,-358.2"/>
<text text-anchor="start" x="53.69" y="-370.4" font-family="Arial" font-size="14.00">updated_at </text>
<text text-anchor="start" x="127.65" y="-370.4" font-family="Arial" font-size="14.00" fill="#666666">[timestamp with time zone]</text>
<polygon fill="none" stroke="black" stroke-width="3" points="45.19,-356.7 45.19,-549.3 315.18,-549.3 315.18,-356.7 45.19,-356.7"/>
</g>
<!-- auth.sso_providers -->
<g id="node2" class="node">
<title>auth.sso_providers</title>
<polygon fill="#efefef" stroke="none" points="43.2,-197.2 43.2,-232.8 317.17,-232.8 317.17,-197.2 43.2,-197.2"/>
<polygon fill="none" stroke="black" points="43.2,-197.2 43.2,-232.8 317.17,-232.8 317.17,-197.2 43.2,-197.2"/>
<text text-anchor="start" x="50.2" y="-210.6" font-family="Arial Bold" font-size="18.00">auth.sso_providers</text>
<text text-anchor="start" x="185.68" y="-210.6" font-family="Arial" font-size="14.00">    </text>
<text text-anchor="start" x="216.8" y="-210.6" font-family="Arial" font-size="14.00" fill="#666666">[BASE TABLE]</text>
<polygon fill="none" stroke="black" points="43.2,-166.4 43.2,-197.2 317.17,-197.2 317.17,-166.4 43.2,-166.4"/>
<text text-anchor="start" x="50.2" y="-178.6" font-family="Arial" font-size="14.00">id </text>
<text text-anchor="start" x="64.99" y="-178.6" font-family="Arial" font-size="14.00" fill="#666666">[uuid]</text>
<polygon fill="none" stroke="black" points="43.2,-135.6 43.2,-166.4 317.17,-166.4 317.17,-135.6 43.2,-135.6"/>
<text text-anchor="start" x="50.2" y="-147.8" font-family="Arial" font-size="14.00">resource_id </text>
<text text-anchor="start" x="127.24" y="-147.8" font-family="Arial" font-size="14.00" fill="#666666">[text]</text>
<polygon fill="none" stroke="black" points="43.2,-104.8 43.2,-135.6 317.17,-135.6 317.17,-104.8 43.2,-104.8"/>
<text text-anchor="start" x="50.2" y="-117" font-family="Arial" font-size="14.00">created_at </text>
<text text-anchor="start" x="120.25" y="-117" font-family="Arial" font-size="14.00" fill="#666666">[timestamp with time zone]</text>
<polygon fill="none" stroke="black" points="43.2,-74 43.2,-104.8 317.17,-104.8 317.17,-74 43.2,-74"/>
<text text-anchor="start" x="50.2" y="-86.2" font-family="Arial" font-size="14.00">updated_at </text>
<text text-anchor="start" x="124.16" y="-86.2" font-family="Arial" font-size="14.00" fill="#666666">[timestamp with time zone]</text>
<polygon fill="none" stroke="black" points="43.2,-43.2 43.2,-74 317.17,-74 317.17,-43.2 43.2,-43.2"/>
<text text-anchor="start" x="50.2" y="-55.4" font-family="Arial" font-size="14.00">disabled </text>
<text text-anchor="start" x="106.24" y="-55.4" font-family="Arial" font-size="14.00" fill="#666666">[boolean]</text>
</g>
<!-- auth.sso_domains&#45;&gt;auth.sso_providers -->
<g id="edge1" class="edge">
<title>auth.sso_domains:sso_provider_id&#45;&gt;auth.sso_providers:id</title>
<path fill="none" stroke="black" d="M324.5,-463.54C378.02,-435.77 377.88,-181.8 318.17,-181.8"/>
<polygon fill="black" stroke="black" points="324.7,-463.49 313.91,-461.55 319.53,-464.79 315.33,-465.84 315.33,-465.84 315.33,-465.84 319.53,-464.79 316.1,-470.28 324.7,-463.49"/>
<text text-anchor="start" x="321.68" y="-476" font-family="Arial" font-size="10.00">FOREIGN KEY (sso_provider_id) REFERENCES auth.sso_providers(id) ON DELETE CASCADE</text>
</g>
</g>
</svg>
