<?xml version="1.0" encoding="UTF-8" standalone="no"?>
<!DOCTYPE svg PUBLIC "-//W3C//DTD SVG 1.1//EN"
 "http://www.w3.org/Graphics/SVG/1.1/DTD/svg11.dtd">
<!-- Generated by graphviz version 12.1.2 (20240928.0832)
 -->
<!-- Title: auth.oauth_authorizations Pages: 1 -->
<svg width="1151pt" height="1896pt"
 viewBox="0.00 0.00 1150.71 1895.60" xmlns="http://www.w3.org/2000/svg" xmlns:xlink="http://www.w3.org/1999/xlink">
<g id="graph0" class="graph" transform="scale(1 1) rotate(0) translate(4 1891.6)">
<title>auth.oauth_authorizations</title>
<polygon fill="white" stroke="none" points="-4,4 -4,-1891.6 1146.71,-1891.6 1146.71,4 -4,4"/>
<!-- auth.oauth_authorizations -->
<g id="node1" class="node">
<title>auth.oauth_authorizations</title>
<polygon fill="#efefef" stroke="none" points="409.57,-1805.8 409.57,-1841.4 771.51,-1841.4 771.51,-1805.8 409.57,-1805.8"/>
<polygon fill="none" stroke="black" points="409.57,-1805.8 409.57,-1841.4 771.51,-1841.4 771.51,-1805.8 409.57,-1805.8"/>
<text text-anchor="start" x="435.07" y="-1819.2" font-family="Arial Bold" font-size="18.00">auth.oauth_authorizations</text>
<text text-anchor="start" x="621.52" y="-1819.2" font-family="Arial" font-size="14.00">    </text>
<text text-anchor="start" x="652.64" y="-1819.2" font-family="Arial" font-size="14.00" fill="#666666">[BASE TABLE]</text>
<polygon fill="none" stroke="black" points="409.57,-1775 409.57,-1805.8 771.51,-1805.8 771.51,-1775 409.57,-1775"/>
<text text-anchor="start" x="416.57" y="-1787.2" font-family="Arial" font-size="14.00">id </text>
<text text-anchor="start" x="431.36" y="-1787.2" font-family="Arial" font-size="14.00" fill="#666666">[uuid]</text>
<polygon fill="none" stroke="black" points="409.57,-1744.2 409.57,-1775 771.51,-1775 771.51,-1744.2 409.57,-1744.2"/>
<text text-anchor="start" x="416.57" y="-1756.4" font-family="Arial" font-size="14.00">authorization_id </text>
<text text-anchor="start" x="519.31" y="-1756.4" font-family="Arial" font-size="14.00" fill="#666666">[text]</text>
<polygon fill="none" stroke="black" points="409.57,-1713.4 409.57,-1744.2 771.51,-1744.2 771.51,-1713.4 409.57,-1713.4"/>
<text text-anchor="start" x="416.57" y="-1725.6" font-family="Arial" font-size="14.00">client_id </text>
<text text-anchor="start" x="471.83" y="-1725.6" font-family="Arial" font-size="14.00" fill="#666666">[uuid]</text>
<polygon fill="none" stroke="black" points="409.57,-1682.6 409.57,-1713.4 771.51,-1713.4 771.51,-1682.6 409.57,-1682.6"/>
<text text-anchor="start" x="416.57" y="-1694.8" font-family="Arial" font-size="14.00">user_id </text>
<text text-anchor="start" x="466.38" y="-1694.8" font-family="Arial" font-size="14.00" fill="#666666">[uuid]</text>
<polygon fill="none" stroke="black" points="409.57,-1651.8 409.57,-1682.6 771.51,-1682.6 771.51,-1651.8 409.57,-1651.8"/>
<text text-anchor="start" x="416.57" y="-1664" font-family="Arial" font-size="14.00">redirect_uri </text>
<text text-anchor="start" x="490.49" y="-1664" font-family="Arial" font-size="14.00" fill="#666666">[text]</text>
<polygon fill="none" stroke="black" points="409.57,-1621 409.57,-1651.8 771.51,-1651.8 771.51,-1621 409.57,-1621"/>
<text text-anchor="start" x="416.57" y="-1633.2" font-family="Arial" font-size="14.00">scope </text>
<text text-anchor="start" x="457.82" y="-1633.2" font-family="Arial" font-size="14.00" fill="#666666">[text]</text>
<polygon fill="none" stroke="black" points="409.57,-1590.2 409.57,-1621 771.51,-1621 771.51,-1590.2 409.57,-1590.2"/>
<text text-anchor="start" x="416.57" y="-1602.4" font-family="Arial" font-size="14.00">state </text>
<text text-anchor="start" x="450.81" y="-1602.4" font-family="Arial" font-size="14.00" fill="#666666">[text]</text>
<polygon fill="none" stroke="black" points="409.57,-1559.4 409.57,-1590.2 771.51,-1590.2 771.51,-1559.4 409.57,-1559.4"/>
<text text-anchor="start" x="416.57" y="-1571.6" font-family="Arial" font-size="14.00">resource </text>
<text text-anchor="start" x="474.93" y="-1571.6" font-family="Arial" font-size="14.00" fill="#666666">[text]</text>
<polygon fill="none" stroke="black" points="409.57,-1528.6 409.57,-1559.4 771.51,-1559.4 771.51,-1528.6 409.57,-1528.6"/>
<text text-anchor="start" x="416.57" y="-1540.8" font-family="Arial" font-size="14.00">code_challenge </text>
<text text-anchor="start" x="518.54" y="-1540.8" font-family="Arial" font-size="14.00" fill="#666666">[text]</text>
<polygon fill="none" stroke="black" points="409.57,-1497.8 409.57,-1528.6 771.51,-1528.6 771.51,-1497.8 409.57,-1497.8"/>
<text text-anchor="start" x="416.57" y="-1510" font-family="Arial" font-size="14.00">code_challenge_method </text>
<text text-anchor="start" x="573.02" y="-1510" font-family="Arial" font-size="14.00" fill="#666666">[auth.code_challenge_method]</text>
<polygon fill="none" stroke="black" points="409.57,-1467 409.57,-1497.8 771.51,-1497.8 771.51,-1467 409.57,-1467"/>
<text text-anchor="start" x="416.57" y="-1479.2" font-family="Arial" font-size="14.00">response_type </text>
<text text-anchor="start" x="512.3" y="-1479.2" font-family="Arial" font-size="14.00" fill="#666666">[auth.oauth_response_type]</text>
<polygon fill="none" stroke="black" points="409.57,-1436.2 409.57,-1467 771.51,-1467 771.51,-1436.2 409.57,-1436.2"/>
<text text-anchor="start" x="416.57" y="-1448.4" font-family="Arial" font-size="14.00">status </text>
<text text-anchor="start" x="457.81" y="-1448.4" font-family="Arial" font-size="14.00" fill="#666666">[auth.oauth_authorization_status]</text>
<polygon fill="none" stroke="black" points="409.57,-1405.4 409.57,-1436.2 771.51,-1436.2 771.51,-1405.4 409.57,-1405.4"/>
<text text-anchor="start" x="416.57" y="-1417.6" font-family="Arial" font-size="14.00">authorization_code </text>
<text text-anchor="start" x="538.77" y="-1417.6" font-family="Arial" font-size="14.00" fill="#666666">[text]</text>
<polygon fill="none" stroke="black" points="409.57,-1374.6 409.57,-1405.4 771.51,-1405.4 771.51,-1374.6 409.57,-1374.6"/>
<text text-anchor="start" x="416.57" y="-1386.8" font-family="Arial" font-size="14.00">created_at </text>
<text text-anchor="start" x="486.62" y="-1386.8" font-family="Arial" font-size="14.00" fill="#666666">[timestamp with time zone]</text>
<polygon fill="none" stroke="black" points="409.57,-1343.8 409.57,-1374.6 771.51,-1374.6 771.51,-1343.8 409.57,-1343.8"/>
<text text-anchor="start" x="416.57" y="-1356" font-family="Arial" font-size="14.00">expires_at </text>
<text text-anchor="start" x="485.05" y="-1356" font-family="Arial" font-size="14.00" fill="#666666">[timestamp with time zone]</text>
<polygon fill="none" stroke="black" points="409.57,-1313 409.57,-1343.8 771.51,-1343.8 771.51,-1313 409.57,-1313"/>
<text text-anchor="start" x="416.57" y="-1325.2" font-family="Arial" font-size="14.00">approved_at </text>
<text text-anchor="start" x="498.3" y="-1325.2" font-family="Arial" font-size="14.00" fill="#666666">[timestamp with time zone]</text>
<polygon fill="none" stroke="black" points="409.57,-1282.2 409.57,-1313 771.51,-1313 771.51,-1282.2 409.57,-1282.2"/>
<text text-anchor="start" x="416.57" y="-1294.4" font-family="Arial" font-size="14.00">nonce </text>
<text text-anchor="start" x="458.6" y="-1294.4" font-family="Arial" font-size="14.00" fill="#666666">[text]</text>
<polygon fill="none" stroke="black" stroke-width="3" points="408.07,-1280.7 408.07,-1842.9 773.01,-1842.9 773.01,-1280.7 408.07,-1280.7"/>
</g>
<!-- auth.oauth_clients -->
<g id="node2" class="node">
<title>auth.oauth_clients</title>
<polygon fill="#efefef" stroke="none" points="224.22,-767 224.22,-802.6 530.85,-802.6 530.85,-767 224.22,-767"/>
<polygon fill="none" stroke="black" points="224.22,-767 224.22,-802.6 530.85,-802.6 530.85,-767 224.22,-767"/>
<text text-anchor="start" x="249.56" y="-780.4" font-family="Arial Bold" font-size="18.00">auth.oauth_clients</text>
<text text-anchor="start" x="381.03" y="-780.4" font-family="Arial" font-size="14.00">    </text>
<text text-anchor="start" x="412.14" y="-780.4" font-family="Arial" font-size="14.00" fill="#666666">[BASE TABLE]</text>
<polygon fill="none" stroke="black" points="224.22,-736.2 224.22,-767 530.85,-767 530.85,-736.2 224.22,-736.2"/>
<text text-anchor="start" x="231.22" y="-748.4" font-family="Arial" font-size="14.00">id </text>
<text text-anchor="start" x="246.01" y="-748.4" font-family="Arial" font-size="14.00" fill="#666666">[uuid]</text>
<polygon fill="none" stroke="black" points="224.22,-705.4 224.22,-736.2 530.85,-736.2 530.85,-705.4 224.22,-705.4"/>
<text text-anchor="start" x="231.22" y="-717.6" font-family="Arial" font-size="14.00">client_secret_hash </text>
<text text-anchor="start" x="351.85" y="-717.6" font-family="Arial" font-size="14.00" fill="#666666">[text]</text>
<polygon fill="none" stroke="black" points="224.22,-674.6 224.22,-705.4 530.85,-705.4 530.85,-674.6 224.22,-674.6"/>
<text text-anchor="start" x="231.22" y="-686.8" font-family="Arial" font-size="14.00">registration_type </text>
<text text-anchor="start" x="338.61" y="-686.8" font-family="Arial" font-size="14.00" fill="#666666">[auth.oauth_registration_type]</text>
<polygon fill="none" stroke="black" points="224.22,-643.8 224.22,-674.6 530.85,-674.6 530.85,-643.8 224.22,-643.8"/>
<text text-anchor="start" x="231.22" y="-656" font-family="Arial" font-size="14.00">redirect_uris </text>
<text text-anchor="start" x="312.14" y="-656" font-family="Arial" font-size="14.00" fill="#666666">[text]</text>
<polygon fill="none" stroke="black" points="224.22,-613 224.22,-643.8 530.85,-643.8 530.85,-613 224.22,-613"/>
<text text-anchor="start" x="231.22" y="-625.2" font-family="Arial" font-size="14.00">grant_types </text>
<text text-anchor="start" x="308.27" y="-625.2" font-family="Arial" font-size="14.00" fill="#666666">[text]</text>
<polygon fill="none" stroke="black" points="224.22,-582.2 224.22,-613 530.85,-613 530.85,-582.2 224.22,-582.2"/>
<text text-anchor="start" x="231.22" y="-594.4" font-family="Arial" font-size="14.00">client_name </text>
<text text-anchor="start" x="310.6" y="-594.4" font-family="Arial" font-size="14.00" fill="#666666">[text]</text>
<polygon fill="none" stroke="black" points="224.22,-551.4 224.22,-582.2 530.85,-582.2 530.85,-551.4 224.22,-551.4"/>
<text text-anchor="start" x="231.22" y="-563.6" font-family="Arial" font-size="14.00">client_uri </text>
<text text-anchor="start" x="291.14" y="-563.6" font-family="Arial" font-size="14.00" fill="#666666">[text]</text>
<polygon fill="none" stroke="black" points="224.22,-520.6 224.22,-551.4 530.85,-551.4 530.85,-520.6 224.22,-520.6"/>
<text text-anchor="start" x="231.22" y="-532.8" font-family="Arial" font-size="14.00">logo_uri </text>
<text text-anchor="start" x="284.92" y="-532.8" font-family="Arial" font-size="14.00" fill="#666666">[text]</text>
<polygon fill="none" stroke="black" points="224.22,-489.8 224.22,-520.6 530.85,-520.6 530.85,-489.8 224.22,-489.8"/>
<text text-anchor="start" x="231.22" y="-502" font-family="Arial" font-size="14.00">created_at </text>
<text text-anchor="start" x="301.27" y="-502" font-family="Arial" font-size="14.00" fill="#666666">[timestamp with time zone]</text>
<polygon fill="none" stroke="black" points="224.22,-459 224.22,-489.8 530.85,-489.8 530.85,-459 224.22,-459"/>
<text text-anchor="start" x="231.22" y="-471.2" font-family="Arial" font-size="14.00">updated_at </text>
<text text-anchor="start" x="305.18" y="-471.2" font-family="Arial" font-size="14.00" fill="#666666">[timestamp with time zone]</text>
<polygon fill="none" stroke="black" points="224.22,-428.2 224.22,-459 530.85,-459 530.85,-428.2 224.22,-428.2"/>
<text text-anchor="start" x="231.22" y="-440.4" font-family="Arial" font-size="14.00">deleted_at </text>
<text text-anchor="start" x="300.5" y="-440.4" font-family="Arial" font-size="14.00" fill="#666666">[timestamp with time zone]</text>
<polygon fill="none" stroke="black" points="224.22,-397.4 224.22,-428.2 530.85,-428.2 530.85,-397.4 224.22,-397.4"/>
<text text-anchor="start" x="231.22" y="-409.6" font-family="Arial" font-size="14.00">client_type </text>
<text text-anchor="start" x="302.04" y="-409.6" font-family="Arial" font-size="14.00" fill="#666666">[auth.oauth_client_type]</text>
</g>
<!-- auth.oauth_authorizations&#45;&gt;auth.oauth_clients -->
<g id="edge1" class="edge">
<title>auth.oauth_authorizations:client_id&#45;&gt;auth.oauth_clients:id</title>
<path fill="none" stroke="black" d="M398.32,-1728.69C20.38,-1720.17 469.85,-1233.74 530.85,-845.8 537.36,-804.44 573.72,-751.6 531.85,-751.6"/>
<polygon fill="black" stroke="black" points="398.24,-1728.69 408.19,-1733.3 403.57,-1728.74 407.9,-1728.79 407.9,-1728.79 407.9,-1728.79 403.57,-1728.74 408.29,-1724.3 398.24,-1728.69"/>
<text text-anchor="start" x="7" y="-1738.8" font-family="Arial" font-size="10.00">FOREIGN KEY (client_id) REFERENCES auth.oauth_clients(id) ON DELETE CASCADE</text>
</g>
<!-- auth.users -->
<g id="node3" class="node">
<title>auth.users</title>
<polygon fill="#efefef" stroke="none" points="635.06,-1121.2 635.06,-1156.8 972.01,-1156.8 972.01,-1121.2 635.06,-1121.2"/>
<polygon fill="none" stroke="black" points="635.06,-1121.2 635.06,-1156.8 972.01,-1156.8 972.01,-1121.2 635.06,-1121.2"/>
<text text-anchor="start" x="705.05" y="-1134.6" font-family="Arial Bold" font-size="18.00">auth.users</text>
<text text-anchor="start" x="777.54" y="-1134.6" font-family="Arial" font-size="14.00">    </text>
<text text-anchor="start" x="808.65" y="-1134.6" font-family="Arial" font-size="14.00" fill="#666666">[BASE TABLE]</text>
<polygon fill="none" stroke="black" points="635.06,-1090.4 635.06,-1121.2 972.01,-1121.2 972.01,-1090.4 635.06,-1090.4"/>
<text text-anchor="start" x="642.06" y="-1102.6" font-family="Arial" font-size="14.00">instance_id </text>
<text text-anchor="start" x="716.78" y="-1102.6" font-family="Arial" font-size="14.00" fill="#666666">[uuid]</text>
<polygon fill="none" stroke="black" points="635.06,-1059.6 635.06,-1090.4 972.01,-1090.4 972.01,-1059.6 635.06,-1059.6"/>
<text text-anchor="start" x="642.06" y="-1071.8" font-family="Arial" font-size="14.00">id </text>
<text text-anchor="start" x="656.85" y="-1071.8" font-family="Arial" font-size="14.00" fill="#666666">[uuid]</text>
<polygon fill="none" stroke="black" points="635.06,-1028.8 635.06,-1059.6 972.01,-1059.6 972.01,-1028.8 635.06,-1028.8"/>
<text text-anchor="start" x="642.06" y="-1041" font-family="Arial" font-size="14.00">aud </text>
<text text-anchor="start" x="669.31" y="-1041" font-family="Arial" font-size="14.00" fill="#666666">[varchar(255)]</text>
<polygon fill="none" stroke="black" points="635.06,-998 635.06,-1028.8 972.01,-1028.8 972.01,-998 635.06,-998"/>
<text text-anchor="start" x="642.06" y="-1010.2" font-family="Arial" font-size="14.00">role </text>
<text text-anchor="start" x="669.3" y="-1010.2" font-family="Arial" font-size="14.00" fill="#666666">[varchar(255)]</text>
<polygon fill="none" stroke="black" points="635.06,-967.2 635.06,-998 972.01,-998 972.01,-967.2 635.06,-967.2"/>
<text text-anchor="start" x="642.06" y="-979.4" font-family="Arial" font-size="14.00">email </text>
<text text-anchor="start" x="679.41" y="-979.4" font-family="Arial" font-size="14.00" fill="#666666">[varchar(255)]</text>
<polygon fill="none" stroke="black" points="635.06,-936.4 635.06,-967.2 972.01,-967.2 972.01,-936.4 635.06,-936.4"/>
<text text-anchor="start" x="642.06" y="-948.6" font-family="Arial" font-size="14.00">encrypted_password </text>
<text text-anchor="start" x="775.14" y="-948.6" font-family="Arial" font-size="14.00" fill="#666666">[varchar(255)]</text>
<polygon fill="none" stroke="black" points="635.06,-905.6 635.06,-936.4 972.01,-936.4 972.01,-905.6 635.06,-905.6"/>
<text text-anchor="start" x="642.06" y="-917.8" font-family="Arial" font-size="14.00">email_confirmed_at </text>
<text text-anchor="start" x="768.12" y="-917.8" font-family="Arial" font-size="14.00" fill="#666666">[timestamp with time zone]</text>
<polygon fill="none" stroke="black" points="635.06,-874.8 635.06,-905.6 972.01,-905.6 972.01,-874.8 635.06,-874.8"/>
<text text-anchor="start" x="642.06" y="-887" font-family="Arial" font-size="14.00">invited_at </text>
<text text-anchor="start" x="705.88" y="-887" font-family="Arial" font-size="14.00" fill="#666666">[timestamp with time zone]</text>
<polygon fill="none" stroke="black" points="635.06,-844 635.06,-874.8 972.01,-874.8 972.01,-844 635.06,-844"/>
<text text-anchor="start" x="642.06" y="-856.2" font-family="Arial" font-size="14.00">confirmation_token </text>
<text text-anchor="start" x="764.24" y="-856.2" font-family="Arial" font-size="14.00" fill="#666666">[varchar(255)]</text>
<polygon fill="none" stroke="black" points="635.06,-813.2 635.06,-844 972.01,-844 972.01,-813.2 635.06,-813.2"/>
<text text-anchor="start" x="642.06" y="-825.4" font-family="Arial" font-size="14.00">confirmation_sent_at </text>
<text text-anchor="start" x="775.92" y="-825.4" font-family="Arial" font-size="14.00" fill="#666666">[timestamp with time zone]</text>
<polygon fill="none" stroke="black" points="635.06,-782.4 635.06,-813.2 972.01,-813.2 972.01,-782.4 635.06,-782.4"/>
<text text-anchor="start" x="642.06" y="-794.6" font-family="Arial" font-size="14.00">recovery_token </text>
<text text-anchor="start" x="741.67" y="-794.6" font-family="Arial" font-size="14.00" fill="#666666">[varchar(255)]</text>
<polygon fill="none" stroke="black" points="635.06,-751.6 635.06,-782.4 972.01,-782.4 972.01,-751.6 635.06,-751.6"/>
<text text-anchor="start" x="642.06" y="-763.8" font-family="Arial" font-size="14.00">recovery_sent_at </text>
<text text-anchor="start" x="753.35" y="-763.8" font-family="Arial" font-size="14.00" fill="#666666">[timestamp with time zone]</text>
<polygon fill="none" stroke="black" points="635.06,-720.8 635.06,-751.6 972.01,-751.6 972.01,-720.8 635.06,-720.8"/>
<text text-anchor="start" x="642.06" y="-733" font-family="Arial" font-size="14.00">email_change_token_new </text>
<text text-anchor="start" x="808.63" y="-733" font-family="Arial" font-size="14.00" fill="#666666">[varchar(255)]</text>
<polygon fill="none" stroke="black" points="635.06,-690 635.06,-720.8 972.01,-720.8 972.01,-690 635.06,-690"/>
<text text-anchor="start" x="642.06" y="-702.2" font-family="Arial" font-size="14.00">email_change </text>
<text text-anchor="start" x="733.12" y="-702.2" font-family="Arial" font-size="14.00" fill="#666666">[varchar(255)]</text>
<polygon fill="none" stroke="black" points="635.06,-659.2 635.06,-690 972.01,-690 972.01,-659.2 635.06,-659.2"/>
<text text-anchor="start" x="642.06" y="-671.4" font-family="Arial" font-size="14.00">email_change_sent_at </text>
<text text-anchor="start" x="786.83" y="-671.4" font-family="Arial" font-size="14.00" fill="#666666">[timestamp with time zone]</text>
<polygon fill="none" stroke="black" points="635.06,-628.4 635.06,-659.2 972.01,-659.2 972.01,-628.4 635.06,-628.4"/>
<text text-anchor="start" x="642.06" y="-640.6" font-family="Arial" font-size="14.00">last_sign_in_at </text>
<text text-anchor="start" x="739.35" y="-640.6" font-family="Arial" font-size="14.00" fill="#666666">[timestamp with time zone]</text>
<polygon fill="none" stroke="black" points="635.06,-597.6 635.06,-628.4 972.01,-628.4 972.01,-597.6 635.06,-597.6"/>
<text text-anchor="start" x="642.06" y="-609.8" font-family="Arial" font-size="14.00">raw_app_meta_data </text>
<text text-anchor="start" x="773.6" y="-609.8" font-family="Arial" font-size="14.00" fill="#666666">[jsonb]</text>
<polygon fill="none" stroke="black" points="635.06,-566.8 635.06,-597.6 972.01,-597.6 972.01,-566.8 635.06,-566.8"/>
<text text-anchor="start" x="642.06" y="-579" font-family="Arial" font-size="14.00">raw_user_meta_data </text>
<text text-anchor="start" x="777.48" y="-579" font-family="Arial" font-size="14.00" fill="#666666">[jsonb]</text>
<polygon fill="none" stroke="black" points="635.06,-536 635.06,-566.8 972.01,-566.8 972.01,-536 635.06,-536"/>
<text text-anchor="start" x="642.06" y="-548.2" font-family="Arial" font-size="14.00">is_super_admin </text>
<text text-anchor="start" x="744.79" y="-548.2" font-family="Arial" font-size="14.00" fill="#666666">[boolean]</text>
<polygon fill="none" stroke="black" points="635.06,-505.2 635.06,-536 972.01,-536 972.01,-505.2 635.06,-505.2"/>
<text text-anchor="start" x="642.06" y="-517.4" font-family="Arial" font-size="14.00">created_at </text>
<text text-anchor="start" x="712.11" y="-517.4" font-family="Arial" font-size="14.00" fill="#666666">[timestamp with time zone]</text>
<polygon fill="none" stroke="black" points="635.06,-474.4 635.06,-505.2 972.01,-505.2 972.01,-474.4 635.06,-474.4"/>
<text text-anchor="start" x="642.06" y="-486.6" font-family="Arial" font-size="14.00">updated_at </text>
<text text-anchor="start" x="716.02" y="-486.6" font-family="Arial" font-size="14.00" fill="#666666">[timestamp with time zone]</text>
<polygon fill="none" stroke="black" points="635.06,-443.6 635.06,-474.4 972.01,-474.4 972.01,-443.6 635.06,-443.6"/>
<text text-anchor="start" x="642.06" y="-455.8" font-family="Arial" font-size="14.00">phone </text>
<text text-anchor="start" x="684.88" y="-455.8" font-family="Arial" font-size="14.00" fill="#666666">[text]</text>
<polygon fill="none" stroke="black" points="635.06,-412.8 635.06,-443.6 972.01,-443.6 972.01,-412.8 635.06,-412.8"/>
<text text-anchor="start" x="642.06" y="-425" font-family="Arial" font-size="14.00">phone_confirmed_at </text>
<text text-anchor="start" x="773.6" y="-425" font-family="Arial" font-size="14.00" fill="#666666">[timestamp with time zone]</text>
<polygon fill="none" stroke="black" points="635.06,-382 635.06,-412.8 972.01,-412.8 972.01,-382 635.06,-382"/>
<text text-anchor="start" x="642.06" y="-394.2" font-family="Arial" font-size="14.00">phone_change </text>
<text text-anchor="start" x="738.6" y="-394.2" font-family="Arial" font-size="14.00" fill="#666666">[text]</text>
<polygon fill="none" stroke="black" points="635.06,-351.2 635.06,-382 972.01,-382 972.01,-351.2 635.06,-351.2"/>
<text text-anchor="start" x="642.06" y="-363.4" font-family="Arial" font-size="14.00">phone_change_token </text>
<text text-anchor="start" x="780.63" y="-363.4" font-family="Arial" font-size="14.00" fill="#666666">[varchar(255)]</text>
<polygon fill="none" stroke="black" points="635.06,-320.4 635.06,-351.2 972.01,-351.2 972.01,-320.4 635.06,-320.4"/>
<text text-anchor="start" x="642.06" y="-332.6" font-family="Arial" font-size="14.00">phone_change_sent_at </text>
<text text-anchor="start" x="792.31" y="-332.6" font-family="Arial" font-size="14.00" fill="#666666">[timestamp with time zone]</text>
<polygon fill="none" stroke="black" points="635.06,-289.6 635.06,-320.4 972.01,-320.4 972.01,-289.6 635.06,-289.6"/>
<text text-anchor="start" x="642.06" y="-301.8" font-family="Arial" font-size="14.00">confirmed_at </text>
<text text-anchor="start" x="726.88" y="-301.8" font-family="Arial" font-size="14.00" fill="#666666">[timestamp with time zone]</text>
<polygon fill="none" stroke="black" points="635.06,-258.8 635.06,-289.6 972.01,-289.6 972.01,-258.8 635.06,-258.8"/>
<text text-anchor="start" x="642.06" y="-271" font-family="Arial" font-size="14.00">email_change_token_current </text>
<text text-anchor="start" x="826.52" y="-271" font-family="Arial" font-size="14.00" fill="#666666">[varchar(255)]</text>
<polygon fill="none" stroke="black" points="635.06,-228 635.06,-258.8 972.01,-258.8 972.01,-228 635.06,-228"/>
<text text-anchor="start" x="642.06" y="-240.2" font-family="Arial" font-size="14.00">email_change_confirm_status </text>
<text text-anchor="start" x="831.94" y="-240.2" font-family="Arial" font-size="14.00" fill="#666666">[smallint]</text>
<polygon fill="none" stroke="black" points="635.06,-197.2 635.06,-228 972.01,-228 972.01,-197.2 635.06,-197.2"/>
<text text-anchor="start" x="642.06" y="-209.4" font-family="Arial" font-size="14.00">banned_until </text>
<text text-anchor="start" x="726.14" y="-209.4" font-family="Arial" font-size="14.00" fill="#666666">[timestamp with time zone]</text>
<polygon fill="none" stroke="black" points="635.06,-166.4 635.06,-197.2 972.01,-197.2 972.01,-166.4 635.06,-166.4"/>
<text text-anchor="start" x="642.06" y="-178.6" font-family="Arial" font-size="14.00">reauthentication_token </text>
<text text-anchor="start" x="787.61" y="-178.6" font-family="Arial" font-size="14.00" fill="#666666">[varchar(255)]</text>
<polygon fill="none" stroke="black" points="635.06,-135.6 635.06,-166.4 972.01,-166.4 972.01,-135.6 635.06,-135.6"/>
<text text-anchor="start" x="642.06" y="-147.8" font-family="Arial" font-size="14.00">reauthentication_sent_at </text>
<text text-anchor="start" x="799.29" y="-147.8" font-family="Arial" font-size="14.00" fill="#666666">[timestamp with time zone]</text>
<polygon fill="none" stroke="black" points="635.06,-104.8 635.06,-135.6 972.01,-135.6 972.01,-104.8 635.06,-104.8"/>
<text text-anchor="start" x="642.06" y="-117" font-family="Arial" font-size="14.00">is_sso_user </text>
<text text-anchor="start" x="720.66" y="-117" font-family="Arial" font-size="14.00" fill="#666666">[boolean]</text>
<polygon fill="none" stroke="black" points="635.06,-74 635.06,-104.8 972.01,-104.8 972.01,-74 635.06,-74"/>
<text text-anchor="start" x="642.06" y="-86.2" font-family="Arial" font-size="14.00">deleted_at </text>
<text text-anchor="start" x="711.35" y="-86.2" font-family="Arial" font-size="14.00" fill="#666666">[timestamp with time zone]</text>
<polygon fill="none" stroke="black" points="635.06,-43.2 635.06,-74 972.01,-74 972.01,-43.2 635.06,-43.2"/>
<text text-anchor="start" x="642.06" y="-55.4" font-family="Arial" font-size="14.00">is_anonymous </text>
<text text-anchor="start" x="736.23" y="-55.4" font-family="Arial" font-size="14.00" fill="#666666">[boolean]</text>
</g>
<!-- auth.oauth_authorizations&#45;&gt;auth.users -->
<g id="edge2" class="edge">
<title>auth.oauth_authorizations:user_id&#45;&gt;auth.users:id</title>
<path fill="none" stroke="black" d="M782.78,-1697.74C975.06,-1687.8 894.85,-1395.75 771.51,-1236 733.18,-1186.36 673.54,-1249.53 635.06,-1200 600.98,-1156.12 578.51,-1075 634.06,-1075"/>
<polygon fill="black" stroke="black" points="782.84,-1697.74 772.73,-1693.49 777.5,-1697.87 773.17,-1697.98 773.17,-1697.98 773.17,-1697.98 777.5,-1697.87 772.95,-1702.49 782.84,-1697.74"/>
<text text-anchor="start" x="779.51" y="-1708" font-family="Arial" font-size="10.00">FOREIGN KEY (user_id) REFERENCES auth.users(id) ON DELETE CASCADE</text>
</g>
</g>
</svg>
