<?xml version="1.0" encoding="UTF-8" standalone="no"?>
<!DOCTYPE svg PUBLIC "-//W3C//DTD SVG 1.1//EN"
 "http://www.w3.org/Graphics/SVG/1.1/DTD/svg11.dtd">
<!-- Generated by graphviz version 12.1.2 (20240928.0832)
 -->
<!-- Title: auth.sessions Pages: 1 -->
<svg width="1101pt" height="2269pt"
 viewBox="0.00 0.00 1101.04 2269.20" xmlns="http://www.w3.org/2000/svg" xmlns:xlink="http://www.w3.org/1999/xlink">
<g id="graph0" class="graph" transform="scale(1 1) rotate(0) translate(4 2265.2)">
<title>auth.sessions</title>
<polygon fill="white" stroke="none" points="-4,4 -4,-2265.2 1097.04,-2265.2 1097.04,4 -4,4"/>
<!-- auth.sessions -->
<g id="node1" class="node">
<title>auth.sessions</title>
<polygon fill="#efefef" stroke="none" points="371.2,-1744.2 371.2,-1779.8 652.88,-1779.8 652.88,-1744.2 371.2,-1744.2"/>
<polygon fill="none" stroke="black" points="371.2,-1744.2 371.2,-1779.8 652.88,-1779.8 652.88,-1744.2 371.2,-1744.2"/>
<text text-anchor="start" x="402.55" y="-1757.6" font-family="Arial Bold" font-size="18.00">auth.sessions</text>
<text text-anchor="start" x="497.05" y="-1757.6" font-family="Arial" font-size="14.00">    </text>
<text text-anchor="start" x="528.16" y="-1757.6" font-family="Arial" font-size="14.00" fill="#666666">[BASE TABLE]</text>
<polygon fill="none" stroke="black" points="371.2,-1713.4 371.2,-1744.2 652.88,-1744.2 652.88,-1713.4 371.2,-1713.4"/>
<text text-anchor="start" x="378.2" y="-1725.6" font-family="Arial" font-size="14.00">id </text>
<text text-anchor="start" x="392.99" y="-1725.6" font-family="Arial" font-size="14.00" fill="#666666">[uuid]</text>
<polygon fill="none" stroke="black" points="371.2,-1682.6 371.2,-1713.4 652.88,-1713.4 652.88,-1682.6 371.2,-1682.6"/>
<text text-anchor="start" x="378.2" y="-1694.8" font-family="Arial" font-size="14.00">user_id </text>
<text text-anchor="start" x="428.01" y="-1694.8" font-family="Arial" font-size="14.00" fill="#666666">[uuid]</text>
<polygon fill="none" stroke="black" points="371.2,-1651.8 371.2,-1682.6 652.88,-1682.6 652.88,-1651.8 371.2,-1651.8"/>
<text text-anchor="start" x="378.2" y="-1664" font-family="Arial" font-size="14.00">created_at </text>
<text text-anchor="start" x="448.25" y="-1664" font-family="Arial" font-size="14.00" fill="#666666">[timestamp with time zone]</text>
<polygon fill="none" stroke="black" points="371.2,-1621 371.2,-1651.8 652.88,-1651.8 652.88,-1621 371.2,-1621"/>
<text text-anchor="start" x="378.2" y="-1633.2" font-family="Arial" font-size="14.00">updated_at </text>
<text text-anchor="start" x="452.16" y="-1633.2" font-family="Arial" font-size="14.00" fill="#666666">[timestamp with time zone]</text>
<polygon fill="none" stroke="black" points="371.2,-1590.2 371.2,-1621 652.88,-1621 652.88,-1590.2 371.2,-1590.2"/>
<text text-anchor="start" x="378.2" y="-1602.4" font-family="Arial" font-size="14.00">factor_id </text>
<text text-anchor="start" x="435.79" y="-1602.4" font-family="Arial" font-size="14.00" fill="#666666">[uuid]</text>
<polygon fill="none" stroke="black" points="371.2,-1559.4 371.2,-1590.2 652.88,-1590.2 652.88,-1559.4 371.2,-1559.4"/>
<text text-anchor="start" x="378.2" y="-1571.6" font-family="Arial" font-size="14.00">aal </text>
<text text-anchor="start" x="400.77" y="-1571.6" font-family="Arial" font-size="14.00" fill="#666666">[auth.aal_level]</text>
<polygon fill="none" stroke="black" points="371.2,-1528.6 371.2,-1559.4 652.88,-1559.4 652.88,-1528.6 371.2,-1528.6"/>
<text text-anchor="start" x="378.2" y="-1540.8" font-family="Arial" font-size="14.00">not_after </text>
<text text-anchor="start" x="437.35" y="-1540.8" font-family="Arial" font-size="14.00" fill="#666666">[timestamp with time zone]</text>
<polygon fill="none" stroke="black" points="371.2,-1497.8 371.2,-1528.6 652.88,-1528.6 652.88,-1497.8 371.2,-1497.8"/>
<text text-anchor="start" x="378.2" y="-1510" font-family="Arial" font-size="14.00">refreshed_at </text>
<text text-anchor="start" x="460.7" y="-1510" font-family="Arial" font-size="14.00" fill="#666666">[timestamp without time zone]</text>
<polygon fill="none" stroke="black" points="371.2,-1467 371.2,-1497.8 652.88,-1497.8 652.88,-1467 371.2,-1467"/>
<text text-anchor="start" x="378.2" y="-1479.2" font-family="Arial" font-size="14.00">user_agent </text>
<text text-anchor="start" x="452.15" y="-1479.2" font-family="Arial" font-size="14.00" fill="#666666">[text]</text>
<polygon fill="none" stroke="black" points="371.2,-1436.2 371.2,-1467 652.88,-1467 652.88,-1436.2 371.2,-1436.2"/>
<text text-anchor="start" x="378.2" y="-1448.4" font-family="Arial" font-size="14.00">ip </text>
<text text-anchor="start" x="392.99" y="-1448.4" font-family="Arial" font-size="14.00" fill="#666666">[inet]</text>
<polygon fill="none" stroke="black" points="371.2,-1405.4 371.2,-1436.2 652.88,-1436.2 652.88,-1405.4 371.2,-1405.4"/>
<text text-anchor="start" x="378.2" y="-1417.6" font-family="Arial" font-size="14.00">tag </text>
<text text-anchor="start" x="401.55" y="-1417.6" font-family="Arial" font-size="14.00" fill="#666666">[text]</text>
<polygon fill="none" stroke="black" points="371.2,-1374.6 371.2,-1405.4 652.88,-1405.4 652.88,-1374.6 371.2,-1374.6"/>
<text text-anchor="start" x="378.2" y="-1386.8" font-family="Arial" font-size="14.00">oauth_client_id </text>
<text text-anchor="start" x="476.28" y="-1386.8" font-family="Arial" font-size="14.00" fill="#666666">[uuid]</text>
<polygon fill="none" stroke="black" points="371.2,-1343.8 371.2,-1374.6 652.88,-1374.6 652.88,-1343.8 371.2,-1343.8"/>
<text text-anchor="start" x="378.2" y="-1356" font-family="Arial" font-size="14.00">refresh_token_hmac_key </text>
<text text-anchor="start" x="539.29" y="-1356" font-family="Arial" font-size="14.00" fill="#666666">[text]</text>
<polygon fill="none" stroke="black" points="371.2,-1313 371.2,-1343.8 652.88,-1343.8 652.88,-1313 371.2,-1313"/>
<text text-anchor="start" x="378.2" y="-1325.2" font-family="Arial" font-size="14.00">refresh_token_counter </text>
<text text-anchor="start" x="522.18" y="-1325.2" font-family="Arial" font-size="14.00" fill="#666666">[bigint]</text>
<polygon fill="none" stroke="black" points="371.2,-1282.2 371.2,-1313 652.88,-1313 652.88,-1282.2 371.2,-1282.2"/>
<text text-anchor="start" x="378.2" y="-1294.4" font-family="Arial" font-size="14.00">scopes </text>
<text text-anchor="start" x="426.45" y="-1294.4" font-family="Arial" font-size="14.00" fill="#666666">[text]</text>
<polygon fill="none" stroke="black" stroke-width="3" points="369.7,-1280.7 369.7,-1781.3 654.38,-1781.3 654.38,-1280.7 369.7,-1280.7"/>
</g>
<!-- auth.users -->
<g id="node4" class="node">
<title>auth.users</title>
<polygon fill="#efefef" stroke="none" points="130.57,-1121.2 130.57,-1156.8 467.52,-1156.8 467.52,-1121.2 130.57,-1121.2"/>
<polygon fill="none" stroke="black" points="130.57,-1121.2 130.57,-1156.8 467.52,-1156.8 467.52,-1121.2 130.57,-1121.2"/>
<text text-anchor="start" x="200.56" y="-1134.6" font-family="Arial Bold" font-size="18.00">auth.users</text>
<text text-anchor="start" x="273.04" y="-1134.6" font-family="Arial" font-size="14.00">    </text>
<text text-anchor="start" x="304.16" y="-1134.6" font-family="Arial" font-size="14.00" fill="#666666">[BASE TABLE]</text>
<polygon fill="none" stroke="black" points="130.57,-1090.4 130.57,-1121.2 467.52,-1121.2 467.52,-1090.4 130.57,-1090.4"/>
<text text-anchor="start" x="137.57" y="-1102.6" font-family="Arial" font-size="14.00">instance_id </text>
<text text-anchor="start" x="212.28" y="-1102.6" font-family="Arial" font-size="14.00" fill="#666666">[uuid]</text>
<polygon fill="none" stroke="black" points="130.57,-1059.6 130.57,-1090.4 467.52,-1090.4 467.52,-1059.6 130.57,-1059.6"/>
<text text-anchor="start" x="137.57" y="-1071.8" font-family="Arial" font-size="14.00">id </text>
<text text-anchor="start" x="152.35" y="-1071.8" font-family="Arial" font-size="14.00" fill="#666666">[uuid]</text>
<polygon fill="none" stroke="black" points="130.57,-1028.8 130.57,-1059.6 467.52,-1059.6 467.52,-1028.8 130.57,-1028.8"/>
<text text-anchor="start" x="137.57" y="-1041" font-family="Arial" font-size="14.00">aud </text>
<text text-anchor="start" x="164.81" y="-1041" font-family="Arial" font-size="14.00" fill="#666666">[varchar(255)]</text>
<polygon fill="none" stroke="black" points="130.57,-998 130.57,-1028.8 467.52,-1028.8 467.52,-998 130.57,-998"/>
<text text-anchor="start" x="137.57" y="-1010.2" font-family="Arial" font-size="14.00">role </text>
<text text-anchor="start" x="164.8" y="-1010.2" font-family="Arial" font-size="14.00" fill="#666666">[varchar(255)]</text>
<polygon fill="none" stroke="black" points="130.57,-967.2 130.57,-998 467.52,-998 467.52,-967.2 130.57,-967.2"/>
<text text-anchor="start" x="137.57" y="-979.4" font-family="Arial" font-size="14.00">email </text>
<text text-anchor="start" x="174.91" y="-979.4" font-family="Arial" font-size="14.00" fill="#666666">[varchar(255)]</text>
<polygon fill="none" stroke="black" points="130.57,-936.4 130.57,-967.2 467.52,-967.2 467.52,-936.4 130.57,-936.4"/>
<text text-anchor="start" x="137.57" y="-948.6" font-family="Arial" font-size="14.00">encrypted_password </text>
<text text-anchor="start" x="270.64" y="-948.6" font-family="Arial" font-size="14.00" fill="#666666">[varchar(255)]</text>
<polygon fill="none" stroke="black" points="130.57,-905.6 130.57,-936.4 467.52,-936.4 467.52,-905.6 130.57,-905.6"/>
<text text-anchor="start" x="137.57" y="-917.8" font-family="Arial" font-size="14.00">email_confirmed_at </text>
<text text-anchor="start" x="263.63" y="-917.8" font-family="Arial" font-size="14.00" fill="#666666">[timestamp with time zone]</text>
<polygon fill="none" stroke="black" points="130.57,-874.8 130.57,-905.6 467.52,-905.6 467.52,-874.8 130.57,-874.8"/>
<text text-anchor="start" x="137.57" y="-887" font-family="Arial" font-size="14.00">invited_at </text>
<text text-anchor="start" x="201.39" y="-887" font-family="Arial" font-size="14.00" fill="#666666">[timestamp with time zone]</text>
<polygon fill="none" stroke="black" points="130.57,-844 130.57,-874.8 467.52,-874.8 467.52,-844 130.57,-844"/>
<text text-anchor="start" x="137.57" y="-856.2" font-family="Arial" font-size="14.00">confirmation_token </text>
<text text-anchor="start" x="259.75" y="-856.2" font-family="Arial" font-size="14.00" fill="#666666">[varchar(255)]</text>
<polygon fill="none" stroke="black" points="130.57,-813.2 130.57,-844 467.52,-844 467.52,-813.2 130.57,-813.2"/>
<text text-anchor="start" x="137.57" y="-825.4" font-family="Arial" font-size="14.00">confirmation_sent_at </text>
<text text-anchor="start" x="271.42" y="-825.4" font-family="Arial" font-size="14.00" fill="#666666">[timestamp with time zone]</text>
<polygon fill="none" stroke="black" points="130.57,-782.4 130.57,-813.2 467.52,-813.2 467.52,-782.4 130.57,-782.4"/>
<text text-anchor="start" x="137.57" y="-794.6" font-family="Arial" font-size="14.00">recovery_token </text>
<text text-anchor="start" x="237.17" y="-794.6" font-family="Arial" font-size="14.00" fill="#666666">[varchar(255)]</text>
<polygon fill="none" stroke="black" points="130.57,-751.6 130.57,-782.4 467.52,-782.4 467.52,-751.6 130.57,-751.6"/>
<text text-anchor="start" x="137.57" y="-763.8" font-family="Arial" font-size="14.00">recovery_sent_at </text>
<text text-anchor="start" x="248.85" y="-763.8" font-family="Arial" font-size="14.00" fill="#666666">[timestamp with time zone]</text>
<polygon fill="none" stroke="black" points="130.57,-720.8 130.57,-751.6 467.52,-751.6 467.52,-720.8 130.57,-720.8"/>
<text text-anchor="start" x="137.57" y="-733" font-family="Arial" font-size="14.00">email_change_token_new </text>
<text text-anchor="start" x="304.13" y="-733" font-family="Arial" font-size="14.00" fill="#666666">[varchar(255)]</text>
<polygon fill="none" stroke="black" points="130.57,-690 130.57,-720.8 467.52,-720.8 467.52,-690 130.57,-690"/>
<text text-anchor="start" x="137.57" y="-702.2" font-family="Arial" font-size="14.00">email_change </text>
<text text-anchor="start" x="228.63" y="-702.2" font-family="Arial" font-size="14.00" fill="#666666">[varchar(255)]</text>
<polygon fill="none" stroke="black" points="130.57,-659.2 130.57,-690 467.52,-690 467.52,-659.2 130.57,-659.2"/>
<text text-anchor="start" x="137.57" y="-671.4" font-family="Arial" font-size="14.00">email_change_sent_at </text>
<text text-anchor="start" x="282.34" y="-671.4" font-family="Arial" font-size="14.00" fill="#666666">[timestamp with time zone]</text>
<polygon fill="none" stroke="black" points="130.57,-628.4 130.57,-659.2 467.52,-659.2 467.52,-628.4 130.57,-628.4"/>
<text text-anchor="start" x="137.57" y="-640.6" font-family="Arial" font-size="14.00">last_sign_in_at </text>
<text text-anchor="start" x="234.86" y="-640.6" font-family="Arial" font-size="14.00" fill="#666666">[timestamp with time zone]</text>
<polygon fill="none" stroke="black" points="130.57,-597.6 130.57,-628.4 467.52,-628.4 467.52,-597.6 130.57,-597.6"/>
<text text-anchor="start" x="137.57" y="-609.8" font-family="Arial" font-size="14.00">raw_app_meta_data </text>
<text text-anchor="start" x="269.1" y="-609.8" font-family="Arial" font-size="14.00" fill="#666666">[jsonb]</text>
<polygon fill="none" stroke="black" points="130.57,-566.8 130.57,-597.6 467.52,-597.6 467.52,-566.8 130.57,-566.8"/>
<text text-anchor="start" x="137.57" y="-579" font-family="Arial" font-size="14.00">raw_user_meta_data </text>
<text text-anchor="start" x="272.98" y="-579" font-family="Arial" font-size="14.00" fill="#666666">[jsonb]</text>
<polygon fill="none" stroke="black" points="130.57,-536 130.57,-566.8 467.52,-566.8 467.52,-536 130.57,-536"/>
<text text-anchor="start" x="137.57" y="-548.2" font-family="Arial" font-size="14.00">is_super_admin </text>
<text text-anchor="start" x="240.29" y="-548.2" font-family="Arial" font-size="14.00" fill="#666666">[boolean]</text>
<polygon fill="none" stroke="black" points="130.57,-505.2 130.57,-536 467.52,-536 467.52,-505.2 130.57,-505.2"/>
<text text-anchor="start" x="137.57" y="-517.4" font-family="Arial" font-size="14.00">created_at </text>
<text text-anchor="start" x="207.61" y="-517.4" font-family="Arial" font-size="14.00" fill="#666666">[timestamp with time zone]</text>
<polygon fill="none" stroke="black" points="130.57,-474.4 130.57,-505.2 467.52,-505.2 467.52,-474.4 130.57,-474.4"/>
<text text-anchor="start" x="137.57" y="-486.6" font-family="Arial" font-size="14.00">updated_at </text>
<text text-anchor="start" x="211.52" y="-486.6" font-family="Arial" font-size="14.00" fill="#666666">[timestamp with time zone]</text>
<polygon fill="none" stroke="black" points="130.57,-443.6 130.57,-474.4 467.52,-474.4 467.52,-443.6 130.57,-443.6"/>
<text text-anchor="start" x="137.57" y="-455.8" font-family="Arial" font-size="14.00">phone </text>
<text text-anchor="start" x="180.39" y="-455.8" font-family="Arial" font-size="14.00" fill="#666666">[text]</text>
<polygon fill="none" stroke="black" points="130.57,-412.8 130.57,-443.6 467.52,-443.6 467.52,-412.8 130.57,-412.8"/>
<text text-anchor="start" x="137.57" y="-425" font-family="Arial" font-size="14.00">phone_confirmed_at </text>
<text text-anchor="start" x="269.1" y="-425" font-family="Arial" font-size="14.00" fill="#666666">[timestamp with time zone]</text>
<polygon fill="none" stroke="black" points="130.57,-382 130.57,-412.8 467.52,-412.8 467.52,-382 130.57,-382"/>
<text text-anchor="start" x="137.57" y="-394.2" font-family="Arial" font-size="14.00">phone_change </text>
<text text-anchor="start" x="234.1" y="-394.2" font-family="Arial" font-size="14.00" fill="#666666">[text]</text>
<polygon fill="none" stroke="black" points="130.57,-351.2 130.57,-382 467.52,-382 467.52,-351.2 130.57,-351.2"/>
<text text-anchor="start" x="137.57" y="-363.4" font-family="Arial" font-size="14.00">phone_change_token </text>
<text text-anchor="start" x="276.14" y="-363.4" font-family="Arial" font-size="14.00" fill="#666666">[varchar(255)]</text>
<polygon fill="none" stroke="black" points="130.57,-320.4 130.57,-351.2 467.52,-351.2 467.52,-320.4 130.57,-320.4"/>
<text text-anchor="start" x="137.57" y="-332.6" font-family="Arial" font-size="14.00">phone_change_sent_at </text>
<text text-anchor="start" x="287.81" y="-332.6" font-family="Arial" font-size="14.00" fill="#666666">[timestamp with time zone]</text>
<polygon fill="none" stroke="black" points="130.57,-289.6 130.57,-320.4 467.52,-320.4 467.52,-289.6 130.57,-289.6"/>
<text text-anchor="start" x="137.57" y="-301.8" font-family="Arial" font-size="14.00">confirmed_at </text>
<text text-anchor="start" x="222.39" y="-301.8" font-family="Arial" font-size="14.00" fill="#666666">[timestamp with time zone]</text>
<polygon fill="none" stroke="black" points="130.57,-258.8 130.57,-289.6 467.52,-289.6 467.52,-258.8 130.57,-258.8"/>
<text text-anchor="start" x="137.57" y="-271" font-family="Arial" font-size="14.00">email_change_token_current </text>
<text text-anchor="start" x="322.02" y="-271" font-family="Arial" font-size="14.00" fill="#666666">[varchar(255)]</text>
<polygon fill="none" stroke="black" points="130.57,-228 130.57,-258.8 467.52,-258.8 467.52,-228 130.57,-228"/>
<text text-anchor="start" x="137.57" y="-240.2" font-family="Arial" font-size="14.00">email_change_confirm_status </text>
<text text-anchor="start" x="327.45" y="-240.2" font-family="Arial" font-size="14.00" fill="#666666">[smallint]</text>
<polygon fill="none" stroke="black" points="130.57,-197.2 130.57,-228 467.52,-228 467.52,-197.2 130.57,-197.2"/>
<text text-anchor="start" x="137.57" y="-209.4" font-family="Arial" font-size="14.00">banned_until </text>
<text text-anchor="start" x="221.64" y="-209.4" font-family="Arial" font-size="14.00" fill="#666666">[timestamp with time zone]</text>
<polygon fill="none" stroke="black" points="130.57,-166.4 130.57,-197.2 467.52,-197.2 467.52,-166.4 130.57,-166.4"/>
<text text-anchor="start" x="137.57" y="-178.6" font-family="Arial" font-size="14.00">reauthentication_token </text>
<text text-anchor="start" x="283.12" y="-178.6" font-family="Arial" font-size="14.00" fill="#666666">[varchar(255)]</text>
<polygon fill="none" stroke="black" points="130.57,-135.6 130.57,-166.4 467.52,-166.4 467.52,-135.6 130.57,-135.6"/>
<text text-anchor="start" x="137.57" y="-147.8" font-family="Arial" font-size="14.00">reauthentication_sent_at </text>
<text text-anchor="start" x="294.79" y="-147.8" font-family="Arial" font-size="14.00" fill="#666666">[timestamp with time zone]</text>
<polygon fill="none" stroke="black" points="130.57,-104.8 130.57,-135.6 467.52,-135.6 467.52,-104.8 130.57,-104.8"/>
<text text-anchor="start" x="137.57" y="-117" font-family="Arial" font-size="14.00">is_sso_user </text>
<text text-anchor="start" x="216.16" y="-117" font-family="Arial" font-size="14.00" fill="#666666">[boolean]</text>
<polygon fill="none" stroke="black" points="130.57,-74 130.57,-104.8 467.52,-104.8 467.52,-74 130.57,-74"/>
<text text-anchor="start" x="137.57" y="-86.2" font-family="Arial" font-size="14.00">deleted_at </text>
<text text-anchor="start" x="206.85" y="-86.2" font-family="Arial" font-size="14.00" fill="#666666">[timestamp with time zone]</text>
<polygon fill="none" stroke="black" points="130.57,-43.2 130.57,-74 467.52,-74 467.52,-43.2 130.57,-43.2"/>
<text text-anchor="start" x="137.57" y="-55.4" font-family="Arial" font-size="14.00">is_anonymous </text>
<text text-anchor="start" x="231.73" y="-55.4" font-family="Arial" font-size="14.00" fill="#666666">[boolean]</text>
</g>
<!-- auth.sessions&#45;&gt;auth.users -->
<g id="edge3" class="edge">
<title>auth.sessions:user_id&#45;&gt;auth.users:id</title>
<path fill="none" stroke="black" d="M359.93,-1697.74C167.92,-1688.01 255.97,-1401.7 371.2,-1236 397.29,-1198.48 441.32,-1237.44 467.52,-1200 499.37,-1154.48 524.07,-1075 468.52,-1075"/>
<polygon fill="black" stroke="black" points="359.87,-1697.74 369.76,-1702.49 365.2,-1697.88 369.53,-1697.98 369.53,-1697.98 369.53,-1697.98 365.2,-1697.88 369.98,-1693.49 359.87,-1697.74"/>
<text text-anchor="start" x="7" y="-1708" font-family="Arial" font-size="10.00">FOREIGN KEY (user_id) REFERENCES auth.users(id) ON DELETE CASCADE</text>
</g>
<!-- auth.oauth_clients -->
<g id="node5" class="node">
<title>auth.oauth_clients</title>
<polygon fill="#efefef" stroke="none" points="571.73,-767 571.73,-802.6 878.36,-802.6 878.36,-767 571.73,-767"/>
<polygon fill="none" stroke="black" points="571.73,-767 571.73,-802.6 878.36,-802.6 878.36,-767 571.73,-767"/>
<text text-anchor="start" x="597.06" y="-780.4" font-family="Arial Bold" font-size="18.00">auth.oauth_clients</text>
<text text-anchor="start" x="728.53" y="-780.4" font-family="Arial" font-size="14.00">    </text>
<text text-anchor="start" x="759.65" y="-780.4" font-family="Arial" font-size="14.00" fill="#666666">[BASE TABLE]</text>
<polygon fill="none" stroke="black" points="571.73,-736.2 571.73,-767 878.36,-767 878.36,-736.2 571.73,-736.2"/>
<text text-anchor="start" x="578.73" y="-748.4" font-family="Arial" font-size="14.00">id </text>
<text text-anchor="start" x="593.51" y="-748.4" font-family="Arial" font-size="14.00" fill="#666666">[uuid]</text>
<polygon fill="none" stroke="black" points="571.73,-705.4 571.73,-736.2 878.36,-736.2 878.36,-705.4 571.73,-705.4"/>
<text text-anchor="start" x="578.73" y="-717.6" font-family="Arial" font-size="14.00">client_secret_hash </text>
<text text-anchor="start" x="699.35" y="-717.6" font-family="Arial" font-size="14.00" fill="#666666">[text]</text>
<polygon fill="none" stroke="black" points="571.73,-674.6 571.73,-705.4 878.36,-705.4 878.36,-674.6 571.73,-674.6"/>
<text text-anchor="start" x="578.73" y="-686.8" font-family="Arial" font-size="14.00">registration_type </text>
<text text-anchor="start" x="686.12" y="-686.8" font-family="Arial" font-size="14.00" fill="#666666">[auth.oauth_registration_type]</text>
<polygon fill="none" stroke="black" points="571.73,-643.8 571.73,-674.6 878.36,-674.6 878.36,-643.8 571.73,-643.8"/>
<text text-anchor="start" x="578.73" y="-656" font-family="Arial" font-size="14.00">redirect_uris </text>
<text text-anchor="start" x="659.64" y="-656" font-family="Arial" font-size="14.00" fill="#666666">[text]</text>
<polygon fill="none" stroke="black" points="571.73,-613 571.73,-643.8 878.36,-643.8 878.36,-613 571.73,-613"/>
<text text-anchor="start" x="578.73" y="-625.2" font-family="Arial" font-size="14.00">grant_types </text>
<text text-anchor="start" x="655.77" y="-625.2" font-family="Arial" font-size="14.00" fill="#666666">[text]</text>
<polygon fill="none" stroke="black" points="571.73,-582.2 571.73,-613 878.36,-613 878.36,-582.2 571.73,-582.2"/>
<text text-anchor="start" x="578.73" y="-594.4" font-family="Arial" font-size="14.00">client_name </text>
<text text-anchor="start" x="658.1" y="-594.4" font-family="Arial" font-size="14.00" fill="#666666">[text]</text>
<polygon fill="none" stroke="black" points="571.73,-551.4 571.73,-582.2 878.36,-582.2 878.36,-551.4 571.73,-551.4"/>
<text text-anchor="start" x="578.73" y="-563.6" font-family="Arial" font-size="14.00">client_uri </text>
<text text-anchor="start" x="638.64" y="-563.6" font-family="Arial" font-size="14.00" fill="#666666">[text]</text>
<polygon fill="none" stroke="black" points="571.73,-520.6 571.73,-551.4 878.36,-551.4 878.36,-520.6 571.73,-520.6"/>
<text text-anchor="start" x="578.73" y="-532.8" font-family="Arial" font-size="14.00">logo_uri </text>
<text text-anchor="start" x="632.43" y="-532.8" font-family="Arial" font-size="14.00" fill="#666666">[text]</text>
<polygon fill="none" stroke="black" points="571.73,-489.8 571.73,-520.6 878.36,-520.6 878.36,-489.8 571.73,-489.8"/>
<text text-anchor="start" x="578.73" y="-502" font-family="Arial" font-size="14.00">created_at </text>
<text text-anchor="start" x="648.77" y="-502" font-family="Arial" font-size="14.00" fill="#666666">[timestamp with time zone]</text>
<polygon fill="none" stroke="black" points="571.73,-459 571.73,-489.8 878.36,-489.8 878.36,-459 571.73,-459"/>
<text text-anchor="start" x="578.73" y="-471.2" font-family="Arial" font-size="14.00">updated_at </text>
<text text-anchor="start" x="652.68" y="-471.2" font-family="Arial" font-size="14.00" fill="#666666">[timestamp with time zone]</text>
<polygon fill="none" stroke="black" points="571.73,-428.2 571.73,-459 878.36,-459 878.36,-428.2 571.73,-428.2"/>
<text text-anchor="start" x="578.73" y="-440.4" font-family="Arial" font-size="14.00">deleted_at </text>
<text text-anchor="start" x="648.01" y="-440.4" font-family="Arial" font-size="14.00" fill="#666666">[timestamp with time zone]</text>
<polygon fill="none" stroke="black" points="571.73,-397.4 571.73,-428.2 878.36,-428.2 878.36,-397.4 571.73,-397.4"/>
<text text-anchor="start" x="578.73" y="-409.6" font-family="Arial" font-size="14.00">client_type </text>
<text text-anchor="start" x="649.55" y="-409.6" font-family="Arial" font-size="14.00" fill="#666666">[auth.oauth_client_type]</text>
</g>
<!-- auth.sessions&#45;&gt;auth.oauth_clients -->
<g id="edge4" class="edge">
<title>auth.sessions:oauth_client_id&#45;&gt;auth.oauth_clients:id</title>
<path fill="none" stroke="black" d="M664.15,-1388.69C777.83,-1356.78 431.43,-751.6 570.73,-751.6"/>
<polygon fill="black" stroke="black" points="664.13,-1388.69 653.65,-1385.49 658.84,-1389.37 654.55,-1389.92 654.55,-1389.92 654.55,-1389.92 658.84,-1389.37 654.78,-1394.42 664.13,-1388.69"/>
<text text-anchor="start" x="660.88" y="-1400" font-family="Arial" font-size="10.00">FOREIGN KEY (oauth_client_id) REFERENCES auth.oauth_clients(id) ON DELETE CASCADE</text>
</g>
<!-- auth.refresh_tokens -->
<g id="node2" class="node">
<title>auth.refresh_tokens</title>
<polygon fill="#efefef" stroke="none" points="176.07,-2182.4 176.07,-2218 456.01,-2218 456.01,-2182.4 176.07,-2182.4"/>
<polygon fill="none" stroke="black" points="176.07,-2182.4 176.07,-2218 456.01,-2218 456.01,-2182.4 176.07,-2182.4"/>
<text text-anchor="start" x="183.07" y="-2195.8" font-family="Arial Bold" font-size="18.00">auth.refresh_tokens</text>
<text text-anchor="start" x="324.52" y="-2195.8" font-family="Arial" font-size="14.00">    </text>
<text text-anchor="start" x="355.64" y="-2195.8" font-family="Arial" font-size="14.00" fill="#666666">[BASE TABLE]</text>
<polygon fill="none" stroke="black" points="176.07,-2151.6 176.07,-2182.4 456.01,-2182.4 456.01,-2151.6 176.07,-2151.6"/>
<text text-anchor="start" x="183.07" y="-2163.8" font-family="Arial" font-size="14.00">instance_id </text>
<text text-anchor="start" x="257.79" y="-2163.8" font-family="Arial" font-size="14.00" fill="#666666">[uuid]</text>
<polygon fill="none" stroke="black" points="176.07,-2120.8 176.07,-2151.6 456.01,-2151.6 456.01,-2120.8 176.07,-2120.8"/>
<text text-anchor="start" x="183.07" y="-2133" font-family="Arial" font-size="14.00">id </text>
<text text-anchor="start" x="197.86" y="-2133" font-family="Arial" font-size="14.00" fill="#666666">[bigint]</text>
<polygon fill="none" stroke="black" points="176.07,-2090 176.07,-2120.8 456.01,-2120.8 456.01,-2090 176.07,-2090"/>
<text text-anchor="start" x="183.07" y="-2102.2" font-family="Arial" font-size="14.00">token </text>
<text text-anchor="start" x="221.21" y="-2102.2" font-family="Arial" font-size="14.00" fill="#666666">[varchar(255)]</text>
<polygon fill="none" stroke="black" points="176.07,-2059.2 176.07,-2090 456.01,-2090 456.01,-2059.2 176.07,-2059.2"/>
<text text-anchor="start" x="183.07" y="-2071.4" font-family="Arial" font-size="14.00">user_id </text>
<text text-anchor="start" x="232.88" y="-2071.4" font-family="Arial" font-size="14.00" fill="#666666">[varchar(255)]</text>
<polygon fill="none" stroke="black" points="176.07,-2028.4 176.07,-2059.2 456.01,-2059.2 456.01,-2028.4 176.07,-2028.4"/>
<text text-anchor="start" x="183.07" y="-2040.6" font-family="Arial" font-size="14.00">revoked </text>
<text text-anchor="start" x="236.77" y="-2040.6" font-family="Arial" font-size="14.00" fill="#666666">[boolean]</text>
<polygon fill="none" stroke="black" points="176.07,-1997.6 176.07,-2028.4 456.01,-2028.4 456.01,-1997.6 176.07,-1997.6"/>
<text text-anchor="start" x="183.07" y="-2009.8" font-family="Arial" font-size="14.00">created_at </text>
<text text-anchor="start" x="253.12" y="-2009.8" font-family="Arial" font-size="14.00" fill="#666666">[timestamp with time zone]</text>
<polygon fill="none" stroke="black" points="176.07,-1966.8 176.07,-1997.6 456.01,-1997.6 456.01,-1966.8 176.07,-1966.8"/>
<text text-anchor="start" x="183.07" y="-1979" font-family="Arial" font-size="14.00">updated_at </text>
<text text-anchor="start" x="257.03" y="-1979" font-family="Arial" font-size="14.00" fill="#666666">[timestamp with time zone]</text>
<polygon fill="none" stroke="black" points="176.07,-1936 176.07,-1966.8 456.01,-1966.8 456.01,-1936 176.07,-1936"/>
<text text-anchor="start" x="183.07" y="-1948.2" font-family="Arial" font-size="14.00">parent </text>
<text text-anchor="start" x="226.66" y="-1948.2" font-family="Arial" font-size="14.00" fill="#666666">[varchar(255)]</text>
<polygon fill="none" stroke="black" points="176.07,-1905.2 176.07,-1936 456.01,-1936 456.01,-1905.2 176.07,-1905.2"/>
<text text-anchor="start" x="183.07" y="-1917.4" font-family="Arial" font-size="14.00">session_id </text>
<text text-anchor="start" x="253.11" y="-1917.4" font-family="Arial" font-size="14.00" fill="#666666">[uuid]</text>
</g>
<!-- auth.refresh_tokens&#45;&gt;auth.sessions -->
<g id="edge1" class="edge">
<title>auth.refresh_tokens:session_id&#45;&gt;auth.sessions:id</title>
<path fill="none" stroke="black" d="M466.88,-1917.84C478.91,-1908.87 468.18,-1880.05 456.01,-1862 433.12,-1828.05 393.98,-1860.03 371.2,-1826 347.17,-1790.1 327,-1728.8 370.2,-1728.8"/>
<polygon fill="black" stroke="black" points="466.97,-1917.82 456.12,-1916.18 461.83,-1919.26 457.66,-1920.42 457.66,-1920.42 457.66,-1920.42 461.83,-1919.26 458.54,-1924.84 466.97,-1917.82"/>
<text text-anchor="start" x="464.01" y="-1904.6" font-family="Arial" font-size="10.00">FOREIGN KEY (session_id) REFERENCES auth.sessions(id) ON DELETE CASCADE</text>
</g>
<!-- auth.mfa_amr_claims -->
<g id="node3" class="node">
<title>auth.mfa_amr_claims</title>
<polygon fill="#efefef" stroke="none" points="560.57,-2120.8 560.57,-2156.4 855.51,-2156.4 855.51,-2120.8 560.57,-2120.8"/>
<polygon fill="none" stroke="black" points="560.57,-2120.8 560.57,-2156.4 855.51,-2156.4 855.51,-2120.8 560.57,-2120.8"/>
<text text-anchor="start" x="567.57" y="-2134.2" font-family="Arial Bold" font-size="18.00">auth.mfa_amr_claims</text>
<text text-anchor="start" x="724.02" y="-2134.2" font-family="Arial" font-size="14.00">    </text>
<text text-anchor="start" x="755.14" y="-2134.2" font-family="Arial" font-size="14.00" fill="#666666">[BASE TABLE]</text>
<polygon fill="none" stroke="black" points="560.57,-2090 560.57,-2120.8 855.51,-2120.8 855.51,-2090 560.57,-2090"/>
<text text-anchor="start" x="567.57" y="-2102.2" font-family="Arial" font-size="14.00">session_id </text>
<text text-anchor="start" x="637.62" y="-2102.2" font-family="Arial" font-size="14.00" fill="#666666">[uuid]</text>
<polygon fill="none" stroke="black" points="560.57,-2059.2 560.57,-2090 855.51,-2090 855.51,-2059.2 560.57,-2059.2"/>
<text text-anchor="start" x="567.57" y="-2071.4" font-family="Arial" font-size="14.00">created_at </text>
<text text-anchor="start" x="637.62" y="-2071.4" font-family="Arial" font-size="14.00" fill="#666666">[timestamp with time zone]</text>
<polygon fill="none" stroke="black" points="560.57,-2028.4 560.57,-2059.2 855.51,-2059.2 855.51,-2028.4 560.57,-2028.4"/>
<text text-anchor="start" x="567.57" y="-2040.6" font-family="Arial" font-size="14.00">updated_at </text>
<text text-anchor="start" x="641.53" y="-2040.6" font-family="Arial" font-size="14.00" fill="#666666">[timestamp with time zone]</text>
<polygon fill="none" stroke="black" points="560.57,-1997.6 560.57,-2028.4 855.51,-2028.4 855.51,-1997.6 560.57,-1997.6"/>
<text text-anchor="start" x="567.57" y="-2009.8" font-family="Arial" font-size="14.00">authentication_method </text>
<text text-anchor="start" x="713.13" y="-2009.8" font-family="Arial" font-size="14.00" fill="#666666">[text]</text>
<polygon fill="none" stroke="black" points="560.57,-1966.8 560.57,-1997.6 855.51,-1997.6 855.51,-1966.8 560.57,-1966.8"/>
<text text-anchor="start" x="567.57" y="-1979" font-family="Arial" font-size="14.00">id </text>
<text text-anchor="start" x="582.36" y="-1979" font-family="Arial" font-size="14.00" fill="#666666">[uuid]</text>
</g>
<!-- auth.mfa_amr_claims&#45;&gt;auth.sessions -->
<g id="edge2" class="edge">
<title>auth.mfa_amr_claims:session_id&#45;&gt;auth.sessions:id</title>
<path fill="none" stroke="black" d="M549.47,-2104.77C483.38,-2095.87 531.84,-1995.22 560.57,-1923.6 582.8,-1868.19 630.52,-1881.36 652.88,-1826 669.06,-1785.94 697.09,-1728.8 653.88,-1728.8"/>
<polygon fill="black" stroke="black" points="549.26,-2104.75 558.96,-2109.87 554.58,-2105.09 558.91,-2105.36 558.91,-2105.36 558.91,-2105.36 554.58,-2105.09 559.52,-2100.89 549.26,-2104.75"/>
<text text-anchor="start" x="566.57" y="-2115.4" font-family="Arial" font-size="10.00">FOREIGN KEY (session_id) REFERENCES auth.sessions(id) ON DELETE CASCADE</text>
</g>
</g>
</svg>
