<?xml version="1.0" encoding="UTF-8" standalone="no"?>
<!DOCTYPE svg PUBLIC "-//W3C//DTD SVG 1.1//EN"
 "http://www.w3.org/Graphics/SVG/1.1/DTD/svg11.dtd">
<!-- Generated by graphviz version 12.1.2 (20240928.0832)
 -->
<!-- Title: auth.mfa_challenges Pages: 1 -->
<svg width="749pt" height="910pt"
 viewBox="0.00 0.00 749.40 910.00" xmlns="http://www.w3.org/2000/svg" xmlns:xlink="http://www.w3.org/1999/xlink">
<g id="graph0" class="graph" transform="scale(1 1) rotate(0) translate(4 906)">
<title>auth.mfa_challenges</title>
<polygon fill="white" stroke="none" points="-4,4 -4,-906 745.4,-906 745.4,4 -4,4"/>
<!-- auth.mfa_challenges -->
<g id="node1" class="node">
<title>auth.mfa_challenges</title>
<polygon fill="#efefef" stroke="none" points="49.92,-820.2 49.92,-855.8 336.85,-855.8 336.85,-820.2 49.92,-820.2"/>
<polygon fill="none" stroke="black" points="49.92,-820.2 49.92,-855.8 336.85,-855.8 336.85,-820.2 49.92,-820.2"/>
<text text-anchor="start" x="56.92" y="-833.6" font-family="Arial Bold" font-size="18.00">auth.mfa_challenges</text>
<text text-anchor="start" x="205.36" y="-833.6" font-family="Arial" font-size="14.00">    </text>
<text text-anchor="start" x="236.48" y="-833.6" font-family="Arial" font-size="14.00" fill="#666666">[BASE TABLE]</text>
<polygon fill="none" stroke="black" points="49.92,-789.4 49.92,-820.2 336.85,-820.2 336.85,-789.4 49.92,-789.4"/>
<text text-anchor="start" x="56.92" y="-801.6" font-family="Arial" font-size="14.00">id </text>
<text text-anchor="start" x="71.71" y="-801.6" font-family="Arial" font-size="14.00" fill="#666666">[uuid]</text>
<polygon fill="none" stroke="black" points="49.92,-758.6 49.92,-789.4 336.85,-789.4 336.85,-758.6 49.92,-758.6"/>
<text text-anchor="start" x="56.92" y="-770.8" font-family="Arial" font-size="14.00">factor_id </text>
<text text-anchor="start" x="114.51" y="-770.8" font-family="Arial" font-size="14.00" fill="#666666">[uuid]</text>
<polygon fill="none" stroke="black" points="49.92,-727.8 49.92,-758.6 336.85,-758.6 336.85,-727.8 49.92,-727.8"/>
<text text-anchor="start" x="56.92" y="-740" font-family="Arial" font-size="14.00">created_at </text>
<text text-anchor="start" x="126.97" y="-740" font-family="Arial" font-size="14.00" fill="#666666">[timestamp with time zone]</text>
<polygon fill="none" stroke="black" points="49.92,-697 49.92,-727.8 336.85,-727.8 336.85,-697 49.92,-697"/>
<text text-anchor="start" x="56.92" y="-709.2" font-family="Arial" font-size="14.00">verified_at </text>
<text text-anchor="start" x="125.4" y="-709.2" font-family="Arial" font-size="14.00" fill="#666666">[timestamp with time zone]</text>
<polygon fill="none" stroke="black" points="49.92,-666.2 49.92,-697 336.85,-697 336.85,-666.2 49.92,-666.2"/>
<text text-anchor="start" x="56.92" y="-678.4" font-family="Arial" font-size="14.00">ip_address </text>
<text text-anchor="start" x="129.3" y="-678.4" font-family="Arial" font-size="14.00" fill="#666666">[inet]</text>
<polygon fill="none" stroke="black" points="49.92,-635.4 49.92,-666.2 336.85,-666.2 336.85,-635.4 49.92,-635.4"/>
<text text-anchor="start" x="56.92" y="-647.6" font-family="Arial" font-size="14.00">otp_code </text>
<text text-anchor="start" x="118.42" y="-647.6" font-family="Arial" font-size="14.00" fill="#666666">[text]</text>
<polygon fill="none" stroke="black" points="49.92,-604.6 49.92,-635.4 336.85,-635.4 336.85,-604.6 49.92,-604.6"/>
<text text-anchor="start" x="56.92" y="-616.8" font-family="Arial" font-size="14.00">web_authn_session_data </text>
<text text-anchor="start" x="219.6" y="-616.8" font-family="Arial" font-size="14.00" fill="#666666">[jsonb]</text>
<polygon fill="none" stroke="black" stroke-width="3" points="48.42,-603.1 48.42,-857.3 338.35,-857.3 338.35,-603.1 48.42,-603.1"/>
</g>
<!-- auth.mfa_factors -->
<g id="node2" class="node">
<title>auth.mfa_factors</title>
<polygon fill="#efefef" stroke="none" points="43.2,-443.6 43.2,-479.2 343.57,-479.2 343.57,-443.6 43.2,-443.6"/>
<polygon fill="none" stroke="black" points="43.2,-443.6 43.2,-479.2 343.57,-479.2 343.57,-443.6 43.2,-443.6"/>
<text text-anchor="start" x="70.42" y="-457" font-family="Arial Bold" font-size="18.00">auth.mfa_factors</text>
<text text-anchor="start" x="191.86" y="-457" font-family="Arial" font-size="14.00">    </text>
<text text-anchor="start" x="222.98" y="-457" font-family="Arial" font-size="14.00" fill="#666666">[BASE TABLE]</text>
<polygon fill="none" stroke="black" points="43.2,-412.8 43.2,-443.6 343.57,-443.6 343.57,-412.8 43.2,-412.8"/>
<text text-anchor="start" x="50.2" y="-425" font-family="Arial" font-size="14.00">id </text>
<text text-anchor="start" x="64.99" y="-425" font-family="Arial" font-size="14.00" fill="#666666">[uuid]</text>
<polygon fill="none" stroke="black" points="43.2,-382 43.2,-412.8 343.57,-412.8 343.57,-382 43.2,-382"/>
<text text-anchor="start" x="50.2" y="-394.2" font-family="Arial" font-size="14.00">user_id </text>
<text text-anchor="start" x="100.01" y="-394.2" font-family="Arial" font-size="14.00" fill="#666666">[uuid]</text>
<polygon fill="none" stroke="black" points="43.2,-351.2 43.2,-382 343.57,-382 343.57,-351.2 43.2,-351.2"/>
<text text-anchor="start" x="50.2" y="-363.4" font-family="Arial" font-size="14.00">friendly_name </text>
<text text-anchor="start" x="142.03" y="-363.4" font-family="Arial" font-size="14.00" fill="#666666">[text]</text>
<polygon fill="none" stroke="black" points="43.2,-320.4 43.2,-351.2 343.57,-351.2 343.57,-320.4 43.2,-320.4"/>
<text text-anchor="start" x="50.2" y="-332.6" font-family="Arial" font-size="14.00">factor_type </text>
<text text-anchor="start" x="123.35" y="-332.6" font-family="Arial" font-size="14.00" fill="#666666">[auth.factor_type]</text>
<polygon fill="none" stroke="black" points="43.2,-289.6 43.2,-320.4 343.57,-320.4 343.57,-289.6 43.2,-289.6"/>
<text text-anchor="start" x="50.2" y="-301.8" font-family="Arial" font-size="14.00">status </text>
<text text-anchor="start" x="91.44" y="-301.8" font-family="Arial" font-size="14.00" fill="#666666">[auth.factor_status]</text>
<polygon fill="none" stroke="black" points="43.2,-258.8 43.2,-289.6 343.57,-289.6 343.57,-258.8 43.2,-258.8"/>
<text text-anchor="start" x="50.2" y="-271" font-family="Arial" font-size="14.00">created_at </text>
<text text-anchor="start" x="120.25" y="-271" font-family="Arial" font-size="14.00" fill="#666666">[timestamp with time zone]</text>
<polygon fill="none" stroke="black" points="43.2,-228 43.2,-258.8 343.57,-258.8 343.57,-228 43.2,-228"/>
<text text-anchor="start" x="50.2" y="-240.2" font-family="Arial" font-size="14.00">updated_at </text>
<text text-anchor="start" x="124.16" y="-240.2" font-family="Arial" font-size="14.00" fill="#666666">[timestamp with time zone]</text>
<polygon fill="none" stroke="black" points="43.2,-197.2 43.2,-228 343.57,-228 343.57,-197.2 43.2,-197.2"/>
<text text-anchor="start" x="50.2" y="-209.4" font-family="Arial" font-size="14.00">secret </text>
<text text-anchor="start" x="92.21" y="-209.4" font-family="Arial" font-size="14.00" fill="#666666">[text]</text>
<polygon fill="none" stroke="black" points="43.2,-166.4 43.2,-197.2 343.57,-197.2 343.57,-166.4 43.2,-166.4"/>
<text text-anchor="start" x="50.2" y="-178.6" font-family="Arial" font-size="14.00">phone </text>
<text text-anchor="start" x="93.02" y="-178.6" font-family="Arial" font-size="14.00" fill="#666666">[text]</text>
<polygon fill="none" stroke="black" points="43.2,-135.6 43.2,-166.4 343.57,-166.4 343.57,-135.6 43.2,-135.6"/>
<text text-anchor="start" x="50.2" y="-147.8" font-family="Arial" font-size="14.00">last_challenged_at </text>
<text text-anchor="start" x="170.85" y="-147.8" font-family="Arial" font-size="14.00" fill="#666666">[timestamp with time zone]</text>
<polygon fill="none" stroke="black" points="43.2,-104.8 43.2,-135.6 343.57,-135.6 343.57,-104.8 43.2,-104.8"/>
<text text-anchor="start" x="50.2" y="-117" font-family="Arial" font-size="14.00">web_authn_credential </text>
<text text-anchor="start" x="191.08" y="-117" font-family="Arial" font-size="14.00" fill="#666666">[jsonb]</text>
<polygon fill="none" stroke="black" points="43.2,-74 43.2,-104.8 343.57,-104.8 343.57,-74 43.2,-74"/>
<text text-anchor="start" x="50.2" y="-86.2" font-family="Arial" font-size="14.00">web_authn_aaguid </text>
<text text-anchor="start" x="172.42" y="-86.2" font-family="Arial" font-size="14.00" fill="#666666">[uuid]</text>
<polygon fill="none" stroke="black" points="43.2,-43.2 43.2,-74 343.57,-74 343.57,-43.2 43.2,-43.2"/>
<text text-anchor="start" x="50.2" y="-55.4" font-family="Arial" font-size="14.00">last_webauthn_challenge_data </text>
<text text-anchor="start" x="247.14" y="-55.4" font-family="Arial" font-size="14.00" fill="#666666">[jsonb]</text>
</g>
<!-- auth.mfa_challenges&#45;&gt;auth.mfa_factors -->
<g id="edge1" class="edge">
<title>auth.mfa_challenges:factor_id&#45;&gt;auth.mfa_factors:id</title>
<path fill="none" stroke="black" d="M347.78,-771.97C415.14,-743.63 417.98,-428.2 344.57,-428.2"/>
<polygon fill="black" stroke="black" points="347.97,-771.93 337.28,-769.52 342.75,-773 338.5,-773.87 338.5,-773.87 338.5,-773.87 342.75,-773 339.08,-778.34 347.97,-771.93"/>
<text text-anchor="start" x="344.85" y="-784" font-family="Arial" font-size="10.00">FOREIGN KEY (factor_id) REFERENCES auth.mfa_factors(id) ON DELETE CASCADE</text>
</g>
</g>
</svg>
