<?xml version="1.0" encoding="UTF-8" standalone="no"?>
<!DOCTYPE svg PUBLIC "-//W3C//DTD SVG 1.1//EN"
 "http://www.w3.org/Graphics/SVG/1.1/DTD/svg11.dtd">
<!-- Generated by graphviz version 12.1.2 (20240928.0832)
 -->
<!-- Title: auth.mfa_factors Pages: 1 -->
<svg width="768pt" height="2146pt"
 viewBox="0.00 0.00 767.68 2146.00" xmlns="http://www.w3.org/2000/svg" xmlns:xlink="http://www.w3.org/1999/xlink">
<g id="graph0" class="graph" transform="scale(1 1) rotate(0) translate(4 2142)">
<title>auth.mfa_factors</title>
<polygon fill="white" stroke="none" points="-4,4 -4,-2142 763.68,-2142 763.68,4 -4,4"/>
<!-- auth.mfa_factors -->
<g id="node1" class="node">
<title>auth.mfa_factors</title>
<polygon fill="#efefef" stroke="none" points="61.49,-1682.6 61.49,-1718.2 361.86,-1718.2 361.86,-1682.6 61.49,-1682.6"/>
<polygon fill="none" stroke="black" points="61.49,-1682.6 61.49,-1718.2 361.86,-1718.2 361.86,-1682.6 61.49,-1682.6"/>
<text text-anchor="start" x="88.71" y="-1696" font-family="Arial Bold" font-size="18.00">auth.mfa_factors</text>
<text text-anchor="start" x="210.15" y="-1696" font-family="Arial" font-size="14.00">    </text>
<text text-anchor="start" x="241.27" y="-1696" font-family="Arial" font-size="14.00" fill="#666666">[BASE TABLE]</text>
<polygon fill="none" stroke="black" points="61.49,-1651.8 61.49,-1682.6 361.86,-1682.6 361.86,-1651.8 61.49,-1651.8"/>
<text text-anchor="start" x="68.49" y="-1664" font-family="Arial" font-size="14.00">id </text>
<text text-anchor="start" x="83.28" y="-1664" font-family="Arial" font-size="14.00" fill="#666666">[uuid]</text>
<polygon fill="none" stroke="black" points="61.49,-1621 61.49,-1651.8 361.86,-1651.8 361.86,-1621 61.49,-1621"/>
<text text-anchor="start" x="68.49" y="-1633.2" font-family="Arial" font-size="14.00">user_id </text>
<text text-anchor="start" x="118.3" y="-1633.2" font-family="Arial" font-size="14.00" fill="#666666">[uuid]</text>
<polygon fill="none" stroke="black" points="61.49,-1590.2 61.49,-1621 361.86,-1621 361.86,-1590.2 61.49,-1590.2"/>
<text text-anchor="start" x="68.49" y="-1602.4" font-family="Arial" font-size="14.00">friendly_name </text>
<text text-anchor="start" x="160.32" y="-1602.4" font-family="Arial" font-size="14.00" fill="#666666">[text]</text>
<polygon fill="none" stroke="black" points="61.49,-1559.4 61.49,-1590.2 361.86,-1590.2 361.86,-1559.4 61.49,-1559.4"/>
<text text-anchor="start" x="68.49" y="-1571.6" font-family="Arial" font-size="14.00">factor_type </text>
<text text-anchor="start" x="141.64" y="-1571.6" font-family="Arial" font-size="14.00" fill="#666666">[auth.factor_type]</text>
<polygon fill="none" stroke="black" points="61.49,-1528.6 61.49,-1559.4 361.86,-1559.4 361.86,-1528.6 61.49,-1528.6"/>
<text text-anchor="start" x="68.49" y="-1540.8" font-family="Arial" font-size="14.00">status </text>
<text text-anchor="start" x="109.73" y="-1540.8" font-family="Arial" font-size="14.00" fill="#666666">[auth.factor_status]</text>
<polygon fill="none" stroke="black" points="61.49,-1497.8 61.49,-1528.6 361.86,-1528.6 361.86,-1497.8 61.49,-1497.8"/>
<text text-anchor="start" x="68.49" y="-1510" font-family="Arial" font-size="14.00">created_at </text>
<text text-anchor="start" x="138.54" y="-1510" font-family="Arial" font-size="14.00" fill="#666666">[timestamp with time zone]</text>
<polygon fill="none" stroke="black" points="61.49,-1467 61.49,-1497.8 361.86,-1497.8 361.86,-1467 61.49,-1467"/>
<text text-anchor="start" x="68.49" y="-1479.2" font-family="Arial" font-size="14.00">updated_at </text>
<text text-anchor="start" x="142.45" y="-1479.2" font-family="Arial" font-size="14.00" fill="#666666">[timestamp with time zone]</text>
<polygon fill="none" stroke="black" points="61.49,-1436.2 61.49,-1467 361.86,-1467 361.86,-1436.2 61.49,-1436.2"/>
<text text-anchor="start" x="68.49" y="-1448.4" font-family="Arial" font-size="14.00">secret </text>
<text text-anchor="start" x="110.5" y="-1448.4" font-family="Arial" font-size="14.00" fill="#666666">[text]</text>
<polygon fill="none" stroke="black" points="61.49,-1405.4 61.49,-1436.2 361.86,-1436.2 361.86,-1405.4 61.49,-1405.4"/>
<text text-anchor="start" x="68.49" y="-1417.6" font-family="Arial" font-size="14.00">phone </text>
<text text-anchor="start" x="111.31" y="-1417.6" font-family="Arial" font-size="14.00" fill="#666666">[text]</text>
<polygon fill="none" stroke="black" points="61.49,-1374.6 61.49,-1405.4 361.86,-1405.4 361.86,-1374.6 61.49,-1374.6"/>
<text text-anchor="start" x="68.49" y="-1386.8" font-family="Arial" font-size="14.00">last_challenged_at </text>
<text text-anchor="start" x="189.14" y="-1386.8" font-family="Arial" font-size="14.00" fill="#666666">[timestamp with time zone]</text>
<polygon fill="none" stroke="black" points="61.49,-1343.8 61.49,-1374.6 361.86,-1374.6 361.86,-1343.8 61.49,-1343.8"/>
<text text-anchor="start" x="68.49" y="-1356" font-family="Arial" font-size="14.00">web_authn_credential </text>
<text text-anchor="start" x="209.37" y="-1356" font-family="Arial" font-size="14.00" fill="#666666">[jsonb]</text>
<polygon fill="none" stroke="black" points="61.49,-1313 61.49,-1343.8 361.86,-1343.8 361.86,-1313 61.49,-1313"/>
<text text-anchor="start" x="68.49" y="-1325.2" font-family="Arial" font-size="14.00">web_authn_aaguid </text>
<text text-anchor="start" x="190.71" y="-1325.2" font-family="Arial" font-size="14.00" fill="#666666">[uuid]</text>
<polygon fill="none" stroke="black" points="61.49,-1282.2 61.49,-1313 361.86,-1313 361.86,-1282.2 61.49,-1282.2"/>
<text text-anchor="start" x="68.49" y="-1294.4" font-family="Arial" font-size="14.00">last_webauthn_challenge_data </text>
<text text-anchor="start" x="265.43" y="-1294.4" font-family="Arial" font-size="14.00" fill="#666666">[jsonb]</text>
<polygon fill="none" stroke="black" stroke-width="3" points="59.99,-1280.7 59.99,-1719.7 363.36,-1719.7 363.36,-1280.7 59.99,-1280.7"/>
</g>
<!-- auth.users -->
<g id="node3" class="node">
<title>auth.users</title>
<polygon fill="#efefef" stroke="none" points="43.2,-1121.2 43.2,-1156.8 380.15,-1156.8 380.15,-1121.2 43.2,-1121.2"/>
<polygon fill="none" stroke="black" points="43.2,-1121.2 43.2,-1156.8 380.15,-1156.8 380.15,-1121.2 43.2,-1121.2"/>
<text text-anchor="start" x="113.19" y="-1134.6" font-family="Arial Bold" font-size="18.00">auth.users</text>
<text text-anchor="start" x="185.67" y="-1134.6" font-family="Arial" font-size="14.00">    </text>
<text text-anchor="start" x="216.79" y="-1134.6" font-family="Arial" font-size="14.00" fill="#666666">[BASE TABLE]</text>
<polygon fill="none" stroke="black" points="43.2,-1090.4 43.2,-1121.2 380.15,-1121.2 380.15,-1090.4 43.2,-1090.4"/>
<text text-anchor="start" x="50.2" y="-1102.6" font-family="Arial" font-size="14.00">instance_id </text>
<text text-anchor="start" x="124.92" y="-1102.6" font-family="Arial" font-size="14.00" fill="#666666">[uuid]</text>
<polygon fill="none" stroke="black" points="43.2,-1059.6 43.2,-1090.4 380.15,-1090.4 380.15,-1059.6 43.2,-1059.6"/>
<text text-anchor="start" x="50.2" y="-1071.8" font-family="Arial" font-size="14.00">id </text>
<text text-anchor="start" x="64.99" y="-1071.8" font-family="Arial" font-size="14.00" fill="#666666">[uuid]</text>
<polygon fill="none" stroke="black" points="43.2,-1028.8 43.2,-1059.6 380.15,-1059.6 380.15,-1028.8 43.2,-1028.8"/>
<text text-anchor="start" x="50.2" y="-1041" font-family="Arial" font-size="14.00">aud </text>
<text text-anchor="start" x="77.45" y="-1041" font-family="Arial" font-size="14.00" fill="#666666">[varchar(255)]</text>
<polygon fill="none" stroke="black" points="43.2,-998 43.2,-1028.8 380.15,-1028.8 380.15,-998 43.2,-998"/>
<text text-anchor="start" x="50.2" y="-1010.2" font-family="Arial" font-size="14.00">role </text>
<text text-anchor="start" x="77.43" y="-1010.2" font-family="Arial" font-size="14.00" fill="#666666">[varchar(255)]</text>
<polygon fill="none" stroke="black" points="43.2,-967.2 43.2,-998 380.15,-998 380.15,-967.2 43.2,-967.2"/>
<text text-anchor="start" x="50.2" y="-979.4" font-family="Arial" font-size="14.00">email </text>
<text text-anchor="start" x="87.54" y="-979.4" font-family="Arial" font-size="14.00" fill="#666666">[varchar(255)]</text>
<polygon fill="none" stroke="black" points="43.2,-936.4 43.2,-967.2 380.15,-967.2 380.15,-936.4 43.2,-936.4"/>
<text text-anchor="start" x="50.2" y="-948.6" font-family="Arial" font-size="14.00">encrypted_password </text>
<text text-anchor="start" x="183.28" y="-948.6" font-family="Arial" font-size="14.00" fill="#666666">[varchar(255)]</text>
<polygon fill="none" stroke="black" points="43.2,-905.6 43.2,-936.4 380.15,-936.4 380.15,-905.6 43.2,-905.6"/>
<text text-anchor="start" x="50.2" y="-917.8" font-family="Arial" font-size="14.00">email_confirmed_at </text>
<text text-anchor="start" x="176.26" y="-917.8" font-family="Arial" font-size="14.00" fill="#666666">[timestamp with time zone]</text>
<polygon fill="none" stroke="black" points="43.2,-874.8 43.2,-905.6 380.15,-905.6 380.15,-874.8 43.2,-874.8"/>
<text text-anchor="start" x="50.2" y="-887" font-family="Arial" font-size="14.00">invited_at </text>
<text text-anchor="start" x="114.02" y="-887" font-family="Arial" font-size="14.00" fill="#666666">[timestamp with time zone]</text>
<polygon fill="none" stroke="black" points="43.2,-844 43.2,-874.8 380.15,-874.8 380.15,-844 43.2,-844"/>
<text text-anchor="start" x="50.2" y="-856.2" font-family="Arial" font-size="14.00">confirmation_token </text>
<text text-anchor="start" x="172.38" y="-856.2" font-family="Arial" font-size="14.00" fill="#666666">[varchar(255)]</text>
<polygon fill="none" stroke="black" points="43.2,-813.2 43.2,-844 380.15,-844 380.15,-813.2 43.2,-813.2"/>
<text text-anchor="start" x="50.2" y="-825.4" font-family="Arial" font-size="14.00">confirmation_sent_at </text>
<text text-anchor="start" x="184.05" y="-825.4" font-family="Arial" font-size="14.00" fill="#666666">[timestamp with time zone]</text>
<polygon fill="none" stroke="black" points="43.2,-782.4 43.2,-813.2 380.15,-813.2 380.15,-782.4 43.2,-782.4"/>
<text text-anchor="start" x="50.2" y="-794.6" font-family="Arial" font-size="14.00">recovery_token </text>
<text text-anchor="start" x="149.81" y="-794.6" font-family="Arial" font-size="14.00" fill="#666666">[varchar(255)]</text>
<polygon fill="none" stroke="black" points="43.2,-751.6 43.2,-782.4 380.15,-782.4 380.15,-751.6 43.2,-751.6"/>
<text text-anchor="start" x="50.2" y="-763.8" font-family="Arial" font-size="14.00">recovery_sent_at </text>
<text text-anchor="start" x="161.48" y="-763.8" font-family="Arial" font-size="14.00" fill="#666666">[timestamp with time zone]</text>
<polygon fill="none" stroke="black" points="43.2,-720.8 43.2,-751.6 380.15,-751.6 380.15,-720.8 43.2,-720.8"/>
<text text-anchor="start" x="50.2" y="-733" font-family="Arial" font-size="14.00">email_change_token_new </text>
<text text-anchor="start" x="216.76" y="-733" font-family="Arial" font-size="14.00" fill="#666666">[varchar(255)]</text>
<polygon fill="none" stroke="black" points="43.2,-690 43.2,-720.8 380.15,-720.8 380.15,-690 43.2,-690"/>
<text text-anchor="start" x="50.2" y="-702.2" font-family="Arial" font-size="14.00">email_change </text>
<text text-anchor="start" x="141.26" y="-702.2" font-family="Arial" font-size="14.00" fill="#666666">[varchar(255)]</text>
<polygon fill="none" stroke="black" points="43.2,-659.2 43.2,-690 380.15,-690 380.15,-659.2 43.2,-659.2"/>
<text text-anchor="start" x="50.2" y="-671.4" font-family="Arial" font-size="14.00">email_change_sent_at </text>
<text text-anchor="start" x="194.97" y="-671.4" font-family="Arial" font-size="14.00" fill="#666666">[timestamp with time zone]</text>
<polygon fill="none" stroke="black" points="43.2,-628.4 43.2,-659.2 380.15,-659.2 380.15,-628.4 43.2,-628.4"/>
<text text-anchor="start" x="50.2" y="-640.6" font-family="Arial" font-size="14.00">last_sign_in_at </text>
<text text-anchor="start" x="147.49" y="-640.6" font-family="Arial" font-size="14.00" fill="#666666">[timestamp with time zone]</text>
<polygon fill="none" stroke="black" points="43.2,-597.6 43.2,-628.4 380.15,-628.4 380.15,-597.6 43.2,-597.6"/>
<text text-anchor="start" x="50.2" y="-609.8" font-family="Arial" font-size="14.00">raw_app_meta_data </text>
<text text-anchor="start" x="181.74" y="-609.8" font-family="Arial" font-size="14.00" fill="#666666">[jsonb]</text>
<polygon fill="none" stroke="black" points="43.2,-566.8 43.2,-597.6 380.15,-597.6 380.15,-566.8 43.2,-566.8"/>
<text text-anchor="start" x="50.2" y="-579" font-family="Arial" font-size="14.00">raw_user_meta_data </text>
<text text-anchor="start" x="185.61" y="-579" font-family="Arial" font-size="14.00" fill="#666666">[jsonb]</text>
<polygon fill="none" stroke="black" points="43.2,-536 43.2,-566.8 380.15,-566.8 380.15,-536 43.2,-536"/>
<text text-anchor="start" x="50.2" y="-548.2" font-family="Arial" font-size="14.00">is_super_admin </text>
<text text-anchor="start" x="152.92" y="-548.2" font-family="Arial" font-size="14.00" fill="#666666">[boolean]</text>
<polygon fill="none" stroke="black" points="43.2,-505.2 43.2,-536 380.15,-536 380.15,-505.2 43.2,-505.2"/>
<text text-anchor="start" x="50.2" y="-517.4" font-family="Arial" font-size="14.00">created_at </text>
<text text-anchor="start" x="120.25" y="-517.4" font-family="Arial" font-size="14.00" fill="#666666">[timestamp with time zone]</text>
<polygon fill="none" stroke="black" points="43.2,-474.4 43.2,-505.2 380.15,-505.2 380.15,-474.4 43.2,-474.4"/>
<text text-anchor="start" x="50.2" y="-486.6" font-family="Arial" font-size="14.00">updated_at </text>
<text text-anchor="start" x="124.16" y="-486.6" font-family="Arial" font-size="14.00" fill="#666666">[timestamp with time zone]</text>
<polygon fill="none" stroke="black" points="43.2,-443.6 43.2,-474.4 380.15,-474.4 380.15,-443.6 43.2,-443.6"/>
<text text-anchor="start" x="50.2" y="-455.8" font-family="Arial" font-size="14.00">phone </text>
<text text-anchor="start" x="93.02" y="-455.8" font-family="Arial" font-size="14.00" fill="#666666">[text]</text>
<polygon fill="none" stroke="black" points="43.2,-412.8 43.2,-443.6 380.15,-443.6 380.15,-412.8 43.2,-412.8"/>
<text text-anchor="start" x="50.2" y="-425" font-family="Arial" font-size="14.00">phone_confirmed_at </text>
<text text-anchor="start" x="181.74" y="-425" font-family="Arial" font-size="14.00" fill="#666666">[timestamp with time zone]</text>
<polygon fill="none" stroke="black" points="43.2,-382 43.2,-412.8 380.15,-412.8 380.15,-382 43.2,-382"/>
<text text-anchor="start" x="50.2" y="-394.2" font-family="Arial" font-size="14.00">phone_change </text>
<text text-anchor="start" x="146.74" y="-394.2" font-family="Arial" font-size="14.00" fill="#666666">[text]</text>
<polygon fill="none" stroke="black" points="43.2,-351.2 43.2,-382 380.15,-382 380.15,-351.2 43.2,-351.2"/>
<text text-anchor="start" x="50.2" y="-363.4" font-family="Arial" font-size="14.00">phone_change_token </text>
<text text-anchor="start" x="188.77" y="-363.4" font-family="Arial" font-size="14.00" fill="#666666">[varchar(255)]</text>
<polygon fill="none" stroke="black" points="43.2,-320.4 43.2,-351.2 380.15,-351.2 380.15,-320.4 43.2,-320.4"/>
<text text-anchor="start" x="50.2" y="-332.6" font-family="Arial" font-size="14.00">phone_change_sent_at </text>
<text text-anchor="start" x="200.45" y="-332.6" font-family="Arial" font-size="14.00" fill="#666666">[timestamp with time zone]</text>
<polygon fill="none" stroke="black" points="43.2,-289.6 43.2,-320.4 380.15,-320.4 380.15,-289.6 43.2,-289.6"/>
<text text-anchor="start" x="50.2" y="-301.8" font-family="Arial" font-size="14.00">confirmed_at </text>
<text text-anchor="start" x="135.02" y="-301.8" font-family="Arial" font-size="14.00" fill="#666666">[timestamp with time zone]</text>
<polygon fill="none" stroke="black" points="43.2,-258.8 43.2,-289.6 380.15,-289.6 380.15,-258.8 43.2,-258.8"/>
<text text-anchor="start" x="50.2" y="-271" font-family="Arial" font-size="14.00">email_change_token_current </text>
<text text-anchor="start" x="234.65" y="-271" font-family="Arial" font-size="14.00" fill="#666666">[varchar(255)]</text>
<polygon fill="none" stroke="black" points="43.2,-228 43.2,-258.8 380.15,-258.8 380.15,-228 43.2,-228"/>
<text text-anchor="start" x="50.2" y="-240.2" font-family="Arial" font-size="14.00">email_change_confirm_status </text>
<text text-anchor="start" x="240.08" y="-240.2" font-family="Arial" font-size="14.00" fill="#666666">[smallint]</text>
<polygon fill="none" stroke="black" points="43.2,-197.2 43.2,-228 380.15,-228 380.15,-197.2 43.2,-197.2"/>
<text text-anchor="start" x="50.2" y="-209.4" font-family="Arial" font-size="14.00">banned_until </text>
<text text-anchor="start" x="134.28" y="-209.4" font-family="Arial" font-size="14.00" fill="#666666">[timestamp with time zone]</text>
<polygon fill="none" stroke="black" points="43.2,-166.4 43.2,-197.2 380.15,-197.2 380.15,-166.4 43.2,-166.4"/>
<text text-anchor="start" x="50.2" y="-178.6" font-family="Arial" font-size="14.00">reauthentication_token </text>
<text text-anchor="start" x="195.75" y="-178.6" font-family="Arial" font-size="14.00" fill="#666666">[varchar(255)]</text>
<polygon fill="none" stroke="black" points="43.2,-135.6 43.2,-166.4 380.15,-166.4 380.15,-135.6 43.2,-135.6"/>
<text text-anchor="start" x="50.2" y="-147.8" font-family="Arial" font-size="14.00">reauthentication_sent_at </text>
<text text-anchor="start" x="207.43" y="-147.8" font-family="Arial" font-size="14.00" fill="#666666">[timestamp with time zone]</text>
<polygon fill="none" stroke="black" points="43.2,-104.8 43.2,-135.6 380.15,-135.6 380.15,-104.8 43.2,-104.8"/>
<text text-anchor="start" x="50.2" y="-117" font-family="Arial" font-size="14.00">is_sso_user </text>
<text text-anchor="start" x="128.79" y="-117" font-family="Arial" font-size="14.00" fill="#666666">[boolean]</text>
<polygon fill="none" stroke="black" points="43.2,-74 43.2,-104.8 380.15,-104.8 380.15,-74 43.2,-74"/>
<text text-anchor="start" x="50.2" y="-86.2" font-family="Arial" font-size="14.00">deleted_at </text>
<text text-anchor="start" x="119.48" y="-86.2" font-family="Arial" font-size="14.00" fill="#666666">[timestamp with time zone]</text>
<polygon fill="none" stroke="black" points="43.2,-43.2 43.2,-74 380.15,-74 380.15,-43.2 43.2,-43.2"/>
<text text-anchor="start" x="50.2" y="-55.4" font-family="Arial" font-size="14.00">is_anonymous </text>
<text text-anchor="start" x="144.37" y="-55.4" font-family="Arial" font-size="14.00" fill="#666666">[boolean]</text>
</g>
<!-- auth.mfa_factors&#45;&gt;auth.users -->
<g id="edge2" class="edge">
<title>auth.mfa_factors:user_id&#45;&gt;auth.users:id</title>
<path fill="none" stroke="black" d="M372.02,-1632.2C426.92,-1580.83 440.39,-1075 381.15,-1075"/>
<polygon fill="black" stroke="black" points="372.26,-1632.1 361.29,-1632.17 367.41,-1634.32 363.47,-1636.12 363.47,-1636.12 363.47,-1636.12 367.41,-1634.32 365.04,-1640.35 372.26,-1632.1"/>
<text text-anchor="start" x="369.86" y="-1646.4" font-family="Arial" font-size="10.00">FOREIGN KEY (user_id) REFERENCES auth.users(id) ON DELETE CASCADE</text>
</g>
<!-- auth.mfa_challenges -->
<g id="node2" class="node">
<title>auth.mfa_challenges</title>
<polygon fill="#efefef" stroke="none" points="68.21,-2059.2 68.21,-2094.8 355.14,-2094.8 355.14,-2059.2 68.21,-2059.2"/>
<polygon fill="none" stroke="black" points="68.21,-2059.2 68.21,-2094.8 355.14,-2094.8 355.14,-2059.2 68.21,-2059.2"/>
<text text-anchor="start" x="75.21" y="-2072.6" font-family="Arial Bold" font-size="18.00">auth.mfa_challenges</text>
<text text-anchor="start" x="223.65" y="-2072.6" font-family="Arial" font-size="14.00">    </text>
<text text-anchor="start" x="254.77" y="-2072.6" font-family="Arial" font-size="14.00" fill="#666666">[BASE TABLE]</text>
<polygon fill="none" stroke="black" points="68.21,-2028.4 68.21,-2059.2 355.14,-2059.2 355.14,-2028.4 68.21,-2028.4"/>
<text text-anchor="start" x="75.21" y="-2040.6" font-family="Arial" font-size="14.00">id </text>
<text text-anchor="start" x="90" y="-2040.6" font-family="Arial" font-size="14.00" fill="#666666">[uuid]</text>
<polygon fill="none" stroke="black" points="68.21,-1997.6 68.21,-2028.4 355.14,-2028.4 355.14,-1997.6 68.21,-1997.6"/>
<text text-anchor="start" x="75.21" y="-2009.8" font-family="Arial" font-size="14.00">factor_id </text>
<text text-anchor="start" x="132.8" y="-2009.8" font-family="Arial" font-size="14.00" fill="#666666">[uuid]</text>
<polygon fill="none" stroke="black" points="68.21,-1966.8 68.21,-1997.6 355.14,-1997.6 355.14,-1966.8 68.21,-1966.8"/>
<text text-anchor="start" x="75.21" y="-1979" font-family="Arial" font-size="14.00">created_at </text>
<text text-anchor="start" x="145.26" y="-1979" font-family="Arial" font-size="14.00" fill="#666666">[timestamp with time zone]</text>
<polygon fill="none" stroke="black" points="68.21,-1936 68.21,-1966.8 355.14,-1966.8 355.14,-1936 68.21,-1936"/>
<text text-anchor="start" x="75.21" y="-1948.2" font-family="Arial" font-size="14.00">verified_at </text>
<text text-anchor="start" x="143.69" y="-1948.2" font-family="Arial" font-size="14.00" fill="#666666">[timestamp with time zone]</text>
<polygon fill="none" stroke="black" points="68.21,-1905.2 68.21,-1936 355.14,-1936 355.14,-1905.2 68.21,-1905.2"/>
<text text-anchor="start" x="75.21" y="-1917.4" font-family="Arial" font-size="14.00">ip_address </text>
<text text-anchor="start" x="147.59" y="-1917.4" font-family="Arial" font-size="14.00" fill="#666666">[inet]</text>
<polygon fill="none" stroke="black" points="68.21,-1874.4 68.21,-1905.2 355.14,-1905.2 355.14,-1874.4 68.21,-1874.4"/>
<text text-anchor="start" x="75.21" y="-1886.6" font-family="Arial" font-size="14.00">otp_code </text>
<text text-anchor="start" x="136.71" y="-1886.6" font-family="Arial" font-size="14.00" fill="#666666">[text]</text>
<polygon fill="none" stroke="black" points="68.21,-1843.6 68.21,-1874.4 355.14,-1874.4 355.14,-1843.6 68.21,-1843.6"/>
<text text-anchor="start" x="75.21" y="-1855.8" font-family="Arial" font-size="14.00">web_authn_session_data </text>
<text text-anchor="start" x="237.89" y="-1855.8" font-family="Arial" font-size="14.00" fill="#666666">[jsonb]</text>
</g>
<!-- auth.mfa_challenges&#45;&gt;auth.mfa_factors -->
<g id="edge1" class="edge">
<title>auth.mfa_challenges:factor_id&#45;&gt;auth.mfa_factors:id</title>
<path fill="none" stroke="black" d="M366.07,-2010.97C433.43,-1982.63 436.27,-1667.2 362.86,-1667.2"/>
<polygon fill="black" stroke="black" points="366.26,-2010.93 355.57,-2008.52 361.04,-2012 356.79,-2012.87 356.79,-2012.87 356.79,-2012.87 361.04,-2012 357.37,-2017.34 366.26,-2010.93"/>
<text text-anchor="start" x="363.14" y="-2023" font-family="Arial" font-size="10.00">FOREIGN KEY (factor_id) REFERENCES auth.mfa_factors(id) ON DELETE CASCADE</text>
</g>
</g>
</svg>
