<?xml version="1.0" encoding="UTF-8" standalone="no"?>
<!DOCTYPE svg PUBLIC "-//W3C//DTD SVG 1.1//EN"
 "http://www.w3.org/Graphics/SVG/1.1/DTD/svg11.dtd">
<!-- Generated by graphviz version 12.1.2 (20240928.0832)
 -->
<!-- Title: auth.saml_providers Pages: 1 -->
<svg width="786pt" height="725pt"
 viewBox="0.00 0.00 785.96 725.20" xmlns="http://www.w3.org/2000/svg" xmlns:xlink="http://www.w3.org/1999/xlink">
<g id="graph0" class="graph" transform="scale(1 1) rotate(0) translate(4 721.2)">
<title>auth.saml_providers</title>
<polygon fill="white" stroke="none" points="-4,4 -4,-721.2 781.96,-721.2 781.96,4 -4,4"/>
<!-- auth.saml_providers -->
<g id="node1" class="node">
<title>auth.saml_providers</title>
<polygon fill="#efefef" stroke="none" points="46.2,-635.4 46.2,-671 331.16,-671 331.16,-635.4 46.2,-635.4"/>
<polygon fill="none" stroke="black" points="46.2,-635.4 46.2,-671 331.16,-671 331.16,-635.4 46.2,-635.4"/>
<text text-anchor="start" x="53.2" y="-648.8" font-family="Arial Bold" font-size="18.00">auth.saml_providers</text>
<text text-anchor="start" x="199.67" y="-648.8" font-family="Arial" font-size="14.00">    </text>
<text text-anchor="start" x="230.79" y="-648.8" font-family="Arial" font-size="14.00" fill="#666666">[BASE TABLE]</text>
<polygon fill="none" stroke="black" points="46.2,-604.6 46.2,-635.4 331.16,-635.4 331.16,-604.6 46.2,-604.6"/>
<text text-anchor="start" x="53.2" y="-616.8" font-family="Arial" font-size="14.00">id </text>
<text text-anchor="start" x="67.99" y="-616.8" font-family="Arial" font-size="14.00" fill="#666666">[uuid]</text>
<polygon fill="none" stroke="black" points="46.2,-573.8 46.2,-604.6 331.16,-604.6 331.16,-573.8 46.2,-573.8"/>
<text text-anchor="start" x="53.2" y="-586" font-family="Arial" font-size="14.00">sso_provider_id </text>
<text text-anchor="start" x="155.92" y="-586" font-family="Arial" font-size="14.00" fill="#666666">[uuid]</text>
<polygon fill="none" stroke="black" points="46.2,-543 46.2,-573.8 331.16,-573.8 331.16,-543 46.2,-543"/>
<text text-anchor="start" x="53.2" y="-555.2" font-family="Arial" font-size="14.00">entity_id </text>
<text text-anchor="start" x="109.23" y="-555.2" font-family="Arial" font-size="14.00" fill="#666666">[text]</text>
<polygon fill="none" stroke="black" points="46.2,-512.2 46.2,-543 331.16,-543 331.16,-512.2 46.2,-512.2"/>
<text text-anchor="start" x="53.2" y="-524.4" font-family="Arial" font-size="14.00">metadata_xml </text>
<text text-anchor="start" x="145.02" y="-524.4" font-family="Arial" font-size="14.00" fill="#666666">[text]</text>
<polygon fill="none" stroke="black" points="46.2,-481.4 46.2,-512.2 331.16,-512.2 331.16,-481.4 46.2,-481.4"/>
<text text-anchor="start" x="53.2" y="-493.6" font-family="Arial" font-size="14.00">metadata_url </text>
<text text-anchor="start" x="138.81" y="-493.6" font-family="Arial" font-size="14.00" fill="#666666">[text]</text>
<polygon fill="none" stroke="black" points="46.2,-450.6 46.2,-481.4 331.16,-481.4 331.16,-450.6 46.2,-450.6"/>
<text text-anchor="start" x="53.2" y="-462.8" font-family="Arial" font-size="14.00">attribute_mapping </text>
<text text-anchor="start" x="169.16" y="-462.8" font-family="Arial" font-size="14.00" fill="#666666">[jsonb]</text>
<polygon fill="none" stroke="black" points="46.2,-419.8 46.2,-450.6 331.16,-450.6 331.16,-419.8 46.2,-419.8"/>
<text text-anchor="start" x="53.2" y="-432" font-family="Arial" font-size="14.00">created_at </text>
<text text-anchor="start" x="123.25" y="-432" font-family="Arial" font-size="14.00" fill="#666666">[timestamp with time zone]</text>
<polygon fill="none" stroke="black" points="46.2,-389 46.2,-419.8 331.16,-419.8 331.16,-389 46.2,-389"/>
<text text-anchor="start" x="53.2" y="-401.2" font-family="Arial" font-size="14.00">updated_at </text>
<text text-anchor="start" x="127.16" y="-401.2" font-family="Arial" font-size="14.00" fill="#666666">[timestamp with time zone]</text>
<polygon fill="none" stroke="black" points="46.2,-358.2 46.2,-389 331.16,-389 331.16,-358.2 46.2,-358.2"/>
<text text-anchor="start" x="53.2" y="-370.4" font-family="Arial" font-size="14.00">name_id_format </text>
<text text-anchor="start" x="158.25" y="-370.4" font-family="Arial" font-size="14.00" fill="#666666">[text]</text>
<polygon fill="none" stroke="black" stroke-width="3" points="44.7,-356.7 44.7,-672.5 332.66,-672.5 332.66,-356.7 44.7,-356.7"/>
</g>
<!-- auth.sso_providers -->
<g id="node2" class="node">
<title>auth.sso_providers</title>
<polygon fill="#efefef" stroke="none" points="51.69,-197.2 51.69,-232.8 325.67,-232.8 325.67,-197.2 51.69,-197.2"/>
<polygon fill="none" stroke="black" points="51.69,-197.2 51.69,-232.8 325.67,-232.8 325.67,-197.2 51.69,-197.2"/>
<text text-anchor="start" x="58.69" y="-210.6" font-family="Arial Bold" font-size="18.00">auth.sso_providers</text>
<text text-anchor="start" x="194.18" y="-210.6" font-family="Arial" font-size="14.00">    </text>
<text text-anchor="start" x="225.29" y="-210.6" font-family="Arial" font-size="14.00" fill="#666666">[BASE TABLE]</text>
<polygon fill="none" stroke="black" points="51.69,-166.4 51.69,-197.2 325.67,-197.2 325.67,-166.4 51.69,-166.4"/>
<text text-anchor="start" x="58.69" y="-178.6" font-family="Arial" font-size="14.00">id </text>
<text text-anchor="start" x="73.48" y="-178.6" font-family="Arial" font-size="14.00" fill="#666666">[uuid]</text>
<polygon fill="none" stroke="black" points="51.69,-135.6 51.69,-166.4 325.67,-166.4 325.67,-135.6 51.69,-135.6"/>
<text text-anchor="start" x="58.69" y="-147.8" font-family="Arial" font-size="14.00">resource_id </text>
<text text-anchor="start" x="135.73" y="-147.8" font-family="Arial" font-size="14.00" fill="#666666">[text]</text>
<polygon fill="none" stroke="black" points="51.69,-104.8 51.69,-135.6 325.67,-135.6 325.67,-104.8 51.69,-104.8"/>
<text text-anchor="start" x="58.69" y="-117" font-family="Arial" font-size="14.00">created_at </text>
<text text-anchor="start" x="128.74" y="-117" font-family="Arial" font-size="14.00" fill="#666666">[timestamp with time zone]</text>
<polygon fill="none" stroke="black" points="51.69,-74 51.69,-104.8 325.67,-104.8 325.67,-74 51.69,-74"/>
<text text-anchor="start" x="58.69" y="-86.2" font-family="Arial" font-size="14.00">updated_at </text>
<text text-anchor="start" x="132.65" y="-86.2" font-family="Arial" font-size="14.00" fill="#666666">[timestamp with time zone]</text>
<polygon fill="none" stroke="black" points="51.69,-43.2 51.69,-74 325.67,-74 325.67,-43.2 51.69,-43.2"/>
<text text-anchor="start" x="58.69" y="-55.4" font-family="Arial" font-size="14.00">disabled </text>
<text text-anchor="start" x="114.73" y="-55.4" font-family="Arial" font-size="14.00" fill="#666666">[boolean]</text>
</g>
<!-- auth.saml_providers&#45;&gt;auth.sso_providers -->
<g id="edge1" class="edge">
<title>auth.saml_providers:sso_provider_id&#45;&gt;auth.sso_providers:id</title>
<path fill="none" stroke="black" d="M342.33,-587.38C422.14,-557.99 413.67,-181.8 326.67,-181.8"/>
<polygon fill="black" stroke="black" points="342.33,-587.38 331.7,-584.71 337.08,-588.32 332.82,-589.08 332.82,-589.08 332.82,-589.08 337.08,-588.32 333.28,-593.57 342.33,-587.38"/>
<text text-anchor="start" x="339.16" y="-599.2" font-family="Arial" font-size="10.00">FOREIGN KEY (sso_provider_id) REFERENCES auth.sso_providers(id) ON DELETE CASCADE</text>
</g>
</g>
</svg>
