<?xml version="1.0" encoding="UTF-8" standalone="no"?>
<!DOCTYPE svg PUBLIC "-//W3C//DTD SVG 1.1//EN"
 "http://www.w3.org/Graphics/SVG/1.1/DTD/svg11.dtd">
<!-- Generated by graphviz version 12.1.2 (20240928.0832)
 -->
<!-- Title: auth.flow_state Pages: 1 -->
<svg width="652pt" height="910pt"
 viewBox="0.00 0.00 651.51 910.00" xmlns="http://www.w3.org/2000/svg" xmlns:xlink="http://www.w3.org/1999/xlink">
<g id="graph0" class="graph" transform="scale(1 1) rotate(0) translate(4 906)">
<title>auth.flow_state</title>
<polygon fill="white" stroke="none" points="-4,4 -4,-906 647.51,-906 647.51,4 -4,4"/>
<!-- auth.flow_state -->
<g id="node1" class="node">
<title>auth.flow_state</title>
<polygon fill="#efefef" stroke="none" points="235.38,-415.8 235.38,-451.4 597.31,-451.4 597.31,-415.8 235.38,-415.8"/>
<polygon fill="none" stroke="black" points="235.38,-415.8 235.38,-451.4 597.31,-451.4 597.31,-415.8 235.38,-415.8"/>
<text text-anchor="start" x="298.86" y="-429.2" font-family="Arial Bold" font-size="18.00">auth.flow_state</text>
<text text-anchor="start" x="409.33" y="-429.2" font-family="Arial" font-size="14.00">    </text>
<text text-anchor="start" x="440.45" y="-429.2" font-family="Arial" font-size="14.00" fill="#666666">[BASE TABLE]</text>
<polygon fill="none" stroke="black" points="235.38,-385 235.38,-415.8 597.31,-415.8 597.31,-385 235.38,-385"/>
<text text-anchor="start" x="242.38" y="-397.2" font-family="Arial" font-size="14.00">id </text>
<text text-anchor="start" x="257.16" y="-397.2" font-family="Arial" font-size="14.00" fill="#666666">[uuid]</text>
<polygon fill="none" stroke="black" points="235.38,-354.2 235.38,-385 597.31,-385 597.31,-354.2 235.38,-354.2"/>
<text text-anchor="start" x="242.38" y="-366.4" font-family="Arial" font-size="14.00">user_id </text>
<text text-anchor="start" x="292.18" y="-366.4" font-family="Arial" font-size="14.00" fill="#666666">[uuid]</text>
<polygon fill="none" stroke="black" points="235.38,-323.4 235.38,-354.2 597.31,-354.2 597.31,-323.4 235.38,-323.4"/>
<text text-anchor="start" x="242.38" y="-335.6" font-family="Arial" font-size="14.00">auth_code </text>
<text text-anchor="start" x="311.66" y="-335.6" font-family="Arial" font-size="14.00" fill="#666666">[text]</text>
<polygon fill="none" stroke="black" points="235.38,-292.6 235.38,-323.4 597.31,-323.4 597.31,-292.6 235.38,-292.6"/>
<text text-anchor="start" x="242.38" y="-304.8" font-family="Arial" font-size="14.00">code_challenge_method </text>
<text text-anchor="start" x="398.83" y="-304.8" font-family="Arial" font-size="14.00" fill="#666666">[auth.code_challenge_method]</text>
<polygon fill="none" stroke="black" points="235.38,-261.8 235.38,-292.6 597.31,-292.6 597.31,-261.8 235.38,-261.8"/>
<text text-anchor="start" x="242.38" y="-274" font-family="Arial" font-size="14.00">code_challenge </text>
<text text-anchor="start" x="344.35" y="-274" font-family="Arial" font-size="14.00" fill="#666666">[text]</text>
<polygon fill="none" stroke="black" points="235.38,-231 235.38,-261.8 597.31,-261.8 597.31,-231 235.38,-231"/>
<text text-anchor="start" x="242.38" y="-243.2" font-family="Arial" font-size="14.00">provider_type </text>
<text text-anchor="start" x="331.09" y="-243.2" font-family="Arial" font-size="14.00" fill="#666666">[text]</text>
<polygon fill="none" stroke="black" points="235.38,-200.2 235.38,-231 597.31,-231 597.31,-200.2 235.38,-200.2"/>
<text text-anchor="start" x="242.38" y="-212.4" font-family="Arial" font-size="14.00">provider_access_token </text>
<text text-anchor="start" x="390.24" y="-212.4" font-family="Arial" font-size="14.00" fill="#666666">[text]</text>
<polygon fill="none" stroke="black" points="235.38,-169.4 235.38,-200.2 597.31,-200.2 597.31,-169.4 235.38,-169.4"/>
<text text-anchor="start" x="242.38" y="-181.6" font-family="Arial" font-size="14.00">provider_refresh_token </text>
<text text-anchor="start" x="390.24" y="-181.6" font-family="Arial" font-size="14.00" fill="#666666">[text]</text>
<polygon fill="none" stroke="black" points="235.38,-138.6 235.38,-169.4 597.31,-169.4 597.31,-138.6 235.38,-138.6"/>
<text text-anchor="start" x="242.38" y="-150.8" font-family="Arial" font-size="14.00">created_at </text>
<text text-anchor="start" x="312.42" y="-150.8" font-family="Arial" font-size="14.00" fill="#666666">[timestamp with time zone]</text>
<polygon fill="none" stroke="black" points="235.38,-107.8 235.38,-138.6 597.31,-138.6 597.31,-107.8 235.38,-107.8"/>
<text text-anchor="start" x="242.38" y="-120" font-family="Arial" font-size="14.00">updated_at </text>
<text text-anchor="start" x="316.33" y="-120" font-family="Arial" font-size="14.00" fill="#666666">[timestamp with time zone]</text>
<polygon fill="none" stroke="black" points="235.38,-77 235.38,-107.8 597.31,-107.8 597.31,-77 235.38,-77"/>
<text text-anchor="start" x="242.38" y="-89.2" font-family="Arial" font-size="14.00">authentication_method </text>
<text text-anchor="start" x="387.93" y="-89.2" font-family="Arial" font-size="14.00" fill="#666666">[text]</text>
<polygon fill="none" stroke="black" points="235.38,-46.2 235.38,-77 597.31,-77 597.31,-46.2 235.38,-46.2"/>
<text text-anchor="start" x="242.38" y="-58.4" font-family="Arial" font-size="14.00">auth_code_issued_at </text>
<text text-anchor="start" x="379.38" y="-58.4" font-family="Arial" font-size="14.00" fill="#666666">[timestamp with time zone]</text>
<polygon fill="none" stroke="black" stroke-width="3" points="233.88,-44.7 233.88,-452.9 598.81,-452.9 598.81,-44.7 233.88,-44.7"/>
</g>
<!-- auth.saml_relay_states -->
<g id="node2" class="node">
<title>auth.saml_relay_states</title>
<polygon fill="#efefef" stroke="none" points="265.37,-823.2 265.37,-858.8 567.31,-858.8 567.31,-823.2 265.37,-823.2"/>
<polygon fill="none" stroke="black" points="265.37,-823.2 265.37,-858.8 567.31,-858.8 567.31,-823.2 265.37,-823.2"/>
<text text-anchor="start" x="272.37" y="-836.6" font-family="Arial Bold" font-size="18.00">auth.saml_relay_states</text>
<text text-anchor="start" x="435.82" y="-836.6" font-family="Arial" font-size="14.00">    </text>
<text text-anchor="start" x="466.94" y="-836.6" font-family="Arial" font-size="14.00" fill="#666666">[BASE TABLE]</text>
<polygon fill="none" stroke="black" points="265.37,-792.4 265.37,-823.2 567.31,-823.2 567.31,-792.4 265.37,-792.4"/>
<text text-anchor="start" x="272.37" y="-804.6" font-family="Arial" font-size="14.00">id </text>
<text text-anchor="start" x="287.16" y="-804.6" font-family="Arial" font-size="14.00" fill="#666666">[uuid]</text>
<polygon fill="none" stroke="black" points="265.37,-761.6 265.37,-792.4 567.31,-792.4 567.31,-761.6 265.37,-761.6"/>
<text text-anchor="start" x="272.37" y="-773.8" font-family="Arial" font-size="14.00">sso_provider_id </text>
<text text-anchor="start" x="375.1" y="-773.8" font-family="Arial" font-size="14.00" fill="#666666">[uuid]</text>
<polygon fill="none" stroke="black" points="265.37,-730.8 265.37,-761.6 567.31,-761.6 567.31,-730.8 265.37,-730.8"/>
<text text-anchor="start" x="272.37" y="-743" font-family="Arial" font-size="14.00">request_id </text>
<text text-anchor="start" x="341.64" y="-743" font-family="Arial" font-size="14.00" fill="#666666">[text]</text>
<polygon fill="none" stroke="black" points="265.37,-700 265.37,-730.8 567.31,-730.8 567.31,-700 265.37,-700"/>
<text text-anchor="start" x="272.37" y="-712.2" font-family="Arial" font-size="14.00">for_email </text>
<text text-anchor="start" x="333.84" y="-712.2" font-family="Arial" font-size="14.00" fill="#666666">[text]</text>
<polygon fill="none" stroke="black" points="265.37,-669.2 265.37,-700 567.31,-700 567.31,-669.2 265.37,-669.2"/>
<text text-anchor="start" x="272.37" y="-681.4" font-family="Arial" font-size="14.00">redirect_to </text>
<text text-anchor="start" x="342.41" y="-681.4" font-family="Arial" font-size="14.00" fill="#666666">[text]</text>
<polygon fill="none" stroke="black" points="265.37,-638.4 265.37,-669.2 567.31,-669.2 567.31,-638.4 265.37,-638.4"/>
<text text-anchor="start" x="272.37" y="-650.6" font-family="Arial" font-size="14.00">created_at </text>
<text text-anchor="start" x="342.42" y="-650.6" font-family="Arial" font-size="14.00" fill="#666666">[timestamp with time zone]</text>
<polygon fill="none" stroke="black" points="265.37,-607.6 265.37,-638.4 567.31,-638.4 567.31,-607.6 265.37,-607.6"/>
<text text-anchor="start" x="272.37" y="-619.8" font-family="Arial" font-size="14.00">updated_at </text>
<text text-anchor="start" x="346.33" y="-619.8" font-family="Arial" font-size="14.00" fill="#666666">[timestamp with time zone]</text>
<polygon fill="none" stroke="black" points="265.37,-576.8 265.37,-607.6 567.31,-607.6 567.31,-576.8 265.37,-576.8"/>
<text text-anchor="start" x="272.37" y="-589" font-family="Arial" font-size="14.00">flow_state_id </text>
<text text-anchor="start" x="357.98" y="-589" font-family="Arial" font-size="14.00" fill="#666666">[uuid]</text>
</g>
<!-- auth.saml_relay_states&#45;&gt;auth.flow_state -->
<g id="edge1" class="edge">
<title>auth.saml_relay_states:flow_state_id&#45;&gt;auth.flow_state:id</title>
<path fill="none" stroke="black" d="M417.06,-565.42C427.57,-494.98 550.9,-567.44 597.31,-497.6 621.23,-461.62 641.51,-400.4 598.31,-400.4"/>
<polygon fill="black" stroke="black" points="417.06,-565.49 411.88,-575.16 416.69,-570.81 416.39,-575.13 416.39,-575.13 416.39,-575.13 416.69,-570.81 420.86,-575.78 417.06,-565.49"/>
<text text-anchor="start" x="7" y="-585.8" font-family="Arial" font-size="10.00">FOREIGN KEY (flow_state_id) REFERENCES auth.flow_state(id) ON DELETE CASCADE</text>
</g>
</g>
</svg>
