<?xml version="1.0" encoding="UTF-8" standalone="no"?>
<!DOCTYPE svg PUBLIC "-//W3C//DTD SVG 1.1//EN"
 "http://www.w3.org/Graphics/SVG/1.1/DTD/svg11.dtd">
<!-- Generated by graphviz version 12.1.2 (20240928.0832)
 -->
<!-- Title: auth.saml_relay_states Pages: 1 -->
<svg width="1174pt" height="910pt"
 viewBox="0.00 0.00 1174.08 910.00" xmlns="http://www.w3.org/2000/svg" xmlns:xlink="http://www.w3.org/1999/xlink">
<g id="graph0" class="graph" transform="scale(1 1) rotate(0) translate(4 906)">
<title>auth.saml_relay_states</title>
<polygon fill="white" stroke="none" points="-4,4 -4,-906 1170.08,-906 1170.08,4 -4,4"/>
<!-- auth.saml_relay_states -->
<g id="node1" class="node">
<title>auth.saml_relay_states</title>
<polygon fill="#efefef" stroke="none" points="446.8,-820.2 446.8,-855.8 748.74,-855.8 748.74,-820.2 446.8,-820.2"/>
<polygon fill="none" stroke="black" points="446.8,-820.2 446.8,-855.8 748.74,-855.8 748.74,-820.2 446.8,-820.2"/>
<text text-anchor="start" x="453.8" y="-833.6" font-family="Arial Bold" font-size="18.00">auth.saml_relay_states</text>
<text text-anchor="start" x="617.25" y="-833.6" font-family="Arial" font-size="14.00">    </text>
<text text-anchor="start" x="648.36" y="-833.6" font-family="Arial" font-size="14.00" fill="#666666">[BASE TABLE]</text>
<polygon fill="none" stroke="black" points="446.8,-789.4 446.8,-820.2 748.74,-820.2 748.74,-789.4 446.8,-789.4"/>
<text text-anchor="start" x="453.8" y="-801.6" font-family="Arial" font-size="14.00">id </text>
<text text-anchor="start" x="468.58" y="-801.6" font-family="Arial" font-size="14.00" fill="#666666">[uuid]</text>
<polygon fill="none" stroke="black" points="446.8,-758.6 446.8,-789.4 748.74,-789.4 748.74,-758.6 446.8,-758.6"/>
<text text-anchor="start" x="453.8" y="-770.8" font-family="Arial" font-size="14.00">sso_provider_id </text>
<text text-anchor="start" x="556.52" y="-770.8" font-family="Arial" font-size="14.00" fill="#666666">[uuid]</text>
<polygon fill="none" stroke="black" points="446.8,-727.8 446.8,-758.6 748.74,-758.6 748.74,-727.8 446.8,-727.8"/>
<text text-anchor="start" x="453.8" y="-740" font-family="Arial" font-size="14.00">request_id </text>
<text text-anchor="start" x="523.07" y="-740" font-family="Arial" font-size="14.00" fill="#666666">[text]</text>
<polygon fill="none" stroke="black" points="446.8,-697 446.8,-727.8 748.74,-727.8 748.74,-697 446.8,-697"/>
<text text-anchor="start" x="453.8" y="-709.2" font-family="Arial" font-size="14.00">for_email </text>
<text text-anchor="start" x="515.27" y="-709.2" font-family="Arial" font-size="14.00" fill="#666666">[text]</text>
<polygon fill="none" stroke="black" points="446.8,-666.2 446.8,-697 748.74,-697 748.74,-666.2 446.8,-666.2"/>
<text text-anchor="start" x="453.8" y="-678.4" font-family="Arial" font-size="14.00">redirect_to </text>
<text text-anchor="start" x="523.83" y="-678.4" font-family="Arial" font-size="14.00" fill="#666666">[text]</text>
<polygon fill="none" stroke="black" points="446.8,-635.4 446.8,-666.2 748.74,-666.2 748.74,-635.4 446.8,-635.4"/>
<text text-anchor="start" x="453.8" y="-647.6" font-family="Arial" font-size="14.00">created_at </text>
<text text-anchor="start" x="523.84" y="-647.6" font-family="Arial" font-size="14.00" fill="#666666">[timestamp with time zone]</text>
<polygon fill="none" stroke="black" points="446.8,-604.6 446.8,-635.4 748.74,-635.4 748.74,-604.6 446.8,-604.6"/>
<text text-anchor="start" x="453.8" y="-616.8" font-family="Arial" font-size="14.00">updated_at </text>
<text text-anchor="start" x="527.75" y="-616.8" font-family="Arial" font-size="14.00" fill="#666666">[timestamp with time zone]</text>
<polygon fill="none" stroke="black" points="446.8,-573.8 446.8,-604.6 748.74,-604.6 748.74,-573.8 446.8,-573.8"/>
<text text-anchor="start" x="453.8" y="-586" font-family="Arial" font-size="14.00">flow_state_id </text>
<text text-anchor="start" x="539.4" y="-586" font-family="Arial" font-size="14.00" fill="#666666">[uuid]</text>
<polygon fill="none" stroke="black" stroke-width="3" points="445.3,-572.3 445.3,-857.3 750.24,-857.3 750.24,-572.3 445.3,-572.3"/>
</g>
<!-- auth.sso_providers -->
<g id="node2" class="node">
<title>auth.sso_providers</title>
<polygon fill="#efefef" stroke="none" points="249.78,-305 249.78,-340.6 523.75,-340.6 523.75,-305 249.78,-305"/>
<polygon fill="none" stroke="black" points="249.78,-305 249.78,-340.6 523.75,-340.6 523.75,-305 249.78,-305"/>
<text text-anchor="start" x="256.78" y="-318.4" font-family="Arial Bold" font-size="18.00">auth.sso_providers</text>
<text text-anchor="start" x="392.26" y="-318.4" font-family="Arial" font-size="14.00">    </text>
<text text-anchor="start" x="423.38" y="-318.4" font-family="Arial" font-size="14.00" fill="#666666">[BASE TABLE]</text>
<polygon fill="none" stroke="black" points="249.78,-274.2 249.78,-305 523.75,-305 523.75,-274.2 249.78,-274.2"/>
<text text-anchor="start" x="256.78" y="-286.4" font-family="Arial" font-size="14.00">id </text>
<text text-anchor="start" x="271.57" y="-286.4" font-family="Arial" font-size="14.00" fill="#666666">[uuid]</text>
<polygon fill="none" stroke="black" points="249.78,-243.4 249.78,-274.2 523.75,-274.2 523.75,-243.4 249.78,-243.4"/>
<text text-anchor="start" x="256.78" y="-255.6" font-family="Arial" font-size="14.00">resource_id </text>
<text text-anchor="start" x="333.82" y="-255.6" font-family="Arial" font-size="14.00" fill="#666666">[text]</text>
<polygon fill="none" stroke="black" points="249.78,-212.6 249.78,-243.4 523.75,-243.4 523.75,-212.6 249.78,-212.6"/>
<text text-anchor="start" x="256.78" y="-224.8" font-family="Arial" font-size="14.00">created_at </text>
<text text-anchor="start" x="326.83" y="-224.8" font-family="Arial" font-size="14.00" fill="#666666">[timestamp with time zone]</text>
<polygon fill="none" stroke="black" points="249.78,-181.8 249.78,-212.6 523.75,-212.6 523.75,-181.8 249.78,-181.8"/>
<text text-anchor="start" x="256.78" y="-194" font-family="Arial" font-size="14.00">updated_at </text>
<text text-anchor="start" x="330.74" y="-194" font-family="Arial" font-size="14.00" fill="#666666">[timestamp with time zone]</text>
<polygon fill="none" stroke="black" points="249.78,-151 249.78,-181.8 523.75,-181.8 523.75,-151 249.78,-151"/>
<text text-anchor="start" x="256.78" y="-163.2" font-family="Arial" font-size="14.00">disabled </text>
<text text-anchor="start" x="312.82" y="-163.2" font-family="Arial" font-size="14.00" fill="#666666">[boolean]</text>
</g>
<!-- auth.saml_relay_states&#45;&gt;auth.sso_providers -->
<g id="edge1" class="edge">
<title>auth.saml_relay_states:sso_provider_id&#45;&gt;auth.sso_providers:id</title>
<path fill="none" stroke="black" d="M435.52,-773.54C341.78,-764.73 420.84,-630.24 446.8,-527.6 464.57,-457.33 505.75,-454.02 523.75,-383.8 534.15,-343.24 566.62,-289.6 524.75,-289.6"/>
<polygon fill="black" stroke="black" points="435.47,-773.54 445.26,-778.48 440.8,-773.78 445.13,-773.97 445.13,-773.97 445.13,-773.97 440.8,-773.78 445.66,-769.49 435.47,-773.54"/>
<text text-anchor="start" x="7" y="-784" font-family="Arial" font-size="10.00">FOREIGN KEY (sso_provider_id) REFERENCES auth.sso_providers(id) ON DELETE CASCADE</text>
</g>
<!-- auth.flow_state -->
<g id="node3" class="node">
<title>auth.flow_state</title>
<polygon fill="#efefef" stroke="none" points="627.8,-412.8 627.8,-448.4 989.73,-448.4 989.73,-412.8 627.8,-412.8"/>
<polygon fill="none" stroke="black" points="627.8,-412.8 627.8,-448.4 989.73,-448.4 989.73,-412.8 627.8,-412.8"/>
<text text-anchor="start" x="691.29" y="-426.2" font-family="Arial Bold" font-size="18.00">auth.flow_state</text>
<text text-anchor="start" x="801.76" y="-426.2" font-family="Arial" font-size="14.00">    </text>
<text text-anchor="start" x="832.87" y="-426.2" font-family="Arial" font-size="14.00" fill="#666666">[BASE TABLE]</text>
<polygon fill="none" stroke="black" points="627.8,-382 627.8,-412.8 989.73,-412.8 989.73,-382 627.8,-382"/>
<text text-anchor="start" x="634.8" y="-394.2" font-family="Arial" font-size="14.00">id </text>
<text text-anchor="start" x="649.58" y="-394.2" font-family="Arial" font-size="14.00" fill="#666666">[uuid]</text>
<polygon fill="none" stroke="black" points="627.8,-351.2 627.8,-382 989.73,-382 989.73,-351.2 627.8,-351.2"/>
<text text-anchor="start" x="634.8" y="-363.4" font-family="Arial" font-size="14.00">user_id </text>
<text text-anchor="start" x="684.61" y="-363.4" font-family="Arial" font-size="14.00" fill="#666666">[uuid]</text>
<polygon fill="none" stroke="black" points="627.8,-320.4 627.8,-351.2 989.73,-351.2 989.73,-320.4 627.8,-320.4"/>
<text text-anchor="start" x="634.8" y="-332.6" font-family="Arial" font-size="14.00">auth_code </text>
<text text-anchor="start" x="704.08" y="-332.6" font-family="Arial" font-size="14.00" fill="#666666">[text]</text>
<polygon fill="none" stroke="black" points="627.8,-289.6 627.8,-320.4 989.73,-320.4 989.73,-289.6 627.8,-289.6"/>
<text text-anchor="start" x="634.8" y="-301.8" font-family="Arial" font-size="14.00">code_challenge_method </text>
<text text-anchor="start" x="791.25" y="-301.8" font-family="Arial" font-size="14.00" fill="#666666">[auth.code_challenge_method]</text>
<polygon fill="none" stroke="black" points="627.8,-258.8 627.8,-289.6 989.73,-289.6 989.73,-258.8 627.8,-258.8"/>
<text text-anchor="start" x="634.8" y="-271" font-family="Arial" font-size="14.00">code_challenge </text>
<text text-anchor="start" x="736.77" y="-271" font-family="Arial" font-size="14.00" fill="#666666">[text]</text>
<polygon fill="none" stroke="black" points="627.8,-228 627.8,-258.8 989.73,-258.8 989.73,-228 627.8,-228"/>
<text text-anchor="start" x="634.8" y="-240.2" font-family="Arial" font-size="14.00">provider_type </text>
<text text-anchor="start" x="723.52" y="-240.2" font-family="Arial" font-size="14.00" fill="#666666">[text]</text>
<polygon fill="none" stroke="black" points="627.8,-197.2 627.8,-228 989.73,-228 989.73,-197.2 627.8,-197.2"/>
<text text-anchor="start" x="634.8" y="-209.4" font-family="Arial" font-size="14.00">provider_access_token </text>
<text text-anchor="start" x="782.66" y="-209.4" font-family="Arial" font-size="14.00" fill="#666666">[text]</text>
<polygon fill="none" stroke="black" points="627.8,-166.4 627.8,-197.2 989.73,-197.2 989.73,-166.4 627.8,-166.4"/>
<text text-anchor="start" x="634.8" y="-178.6" font-family="Arial" font-size="14.00">provider_refresh_token </text>
<text text-anchor="start" x="782.66" y="-178.6" font-family="Arial" font-size="14.00" fill="#666666">[text]</text>
<polygon fill="none" stroke="black" points="627.8,-135.6 627.8,-166.4 989.73,-166.4 989.73,-135.6 627.8,-135.6"/>
<text text-anchor="start" x="634.8" y="-147.8" font-family="Arial" font-size="14.00">created_at </text>
<text text-anchor="start" x="704.85" y="-147.8" font-family="Arial" font-size="14.00" fill="#666666">[timestamp with time zone]</text>
<polygon fill="none" stroke="black" points="627.8,-104.8 627.8,-135.6 989.73,-135.6 989.73,-104.8 627.8,-104.8"/>
<text text-anchor="start" x="634.8" y="-117" font-family="Arial" font-size="14.00">updated_at </text>
<text text-anchor="start" x="708.76" y="-117" font-family="Arial" font-size="14.00" fill="#666666">[timestamp with time zone]</text>
<polygon fill="none" stroke="black" points="627.8,-74 627.8,-104.8 989.73,-104.8 989.73,-74 627.8,-74"/>
<text text-anchor="start" x="634.8" y="-86.2" font-family="Arial" font-size="14.00">authentication_method </text>
<text text-anchor="start" x="780.35" y="-86.2" font-family="Arial" font-size="14.00" fill="#666666">[text]</text>
<polygon fill="none" stroke="black" points="627.8,-43.2 627.8,-74 989.73,-74 989.73,-43.2 627.8,-43.2"/>
<text text-anchor="start" x="634.8" y="-55.4" font-family="Arial" font-size="14.00">auth_code_issued_at </text>
<text text-anchor="start" x="771.8" y="-55.4" font-family="Arial" font-size="14.00" fill="#666666">[timestamp with time zone]</text>
</g>
<!-- auth.saml_relay_states&#45;&gt;auth.flow_state -->
<g id="edge2" class="edge">
<title>auth.saml_relay_states:flow_state_id&#45;&gt;auth.flow_state:id</title>
<path fill="none" stroke="black" d="M759.45,-586.76C773.5,-577.79 762.83,-546.18 748.74,-527.6 714.85,-482.92 661.56,-536.38 627.8,-491.6 602.59,-458.17 584.93,-397.4 626.8,-397.4"/>
<polygon fill="black" stroke="black" points="759.76,-586.68 748.96,-584.75 754.59,-587.98 750.39,-589.04 750.39,-589.04 750.39,-589.04 754.59,-587.98 751.16,-593.48 759.76,-586.68"/>
<text text-anchor="start" x="756.74" y="-599.2" font-family="Arial" font-size="10.00">FOREIGN KEY (flow_state_id) REFERENCES auth.flow_state(id) ON DELETE CASCADE</text>
</g>
</g>
</svg>
