<?xml version="1.0" encoding="UTF-8" standalone="no"?>
<!DOCTYPE svg PUBLIC "-//W3C//DTD SVG 1.1//EN"
 "http://www.w3.org/Graphics/SVG/1.1/DTD/svg11.dtd">
<!-- Generated by graphviz version 12.1.2 (20240928.0832)
 -->
<!-- Title: net.http_request_queue Pages: 1 -->
<svg width="406pt" height="321pt"
 viewBox="0.00 0.00 406.34 320.80" xmlns="http://www.w3.org/2000/svg" xmlns:xlink="http://www.w3.org/1999/xlink">
<g id="graph0" class="graph" transform="scale(1 1) rotate(0) translate(4 316.8)">
<title>net.http_request_queue</title>
<polygon fill="white" stroke="none" points="-4,4 -4,-316.8 402.34,-316.8 402.34,4 -4,4"/>
<!-- net.http_request_queue -->
<g id="node1" class="node">
<title>net.http_request_queue</title>
<polygon fill="#efefef" stroke="none" points="46.2,-231 46.2,-266.6 352.14,-266.6 352.14,-231 46.2,-231"/>
<polygon fill="none" stroke="black" points="46.2,-231 46.2,-266.6 352.14,-266.6 352.14,-231 46.2,-231"/>
<text text-anchor="start" x="53.2" y="-244.4" font-family="Arial Bold" font-size="18.00">net.http_request_queue</text>
<text text-anchor="start" x="220.65" y="-244.4" font-family="Arial" font-size="14.00">    </text>
<text text-anchor="start" x="251.77" y="-244.4" font-family="Arial" font-size="14.00" fill="#666666">[BASE TABLE]</text>
<polygon fill="none" stroke="black" points="46.2,-200.2 46.2,-231 352.14,-231 352.14,-200.2 46.2,-200.2"/>
<text text-anchor="start" x="53.2" y="-212.4" font-family="Arial" font-size="14.00">id </text>
<text text-anchor="start" x="67.99" y="-212.4" font-family="Arial" font-size="14.00" fill="#666666">[bigint]</text>
<polygon fill="none" stroke="black" points="46.2,-169.4 46.2,-200.2 352.14,-200.2 352.14,-169.4 46.2,-169.4"/>
<text text-anchor="start" x="53.2" y="-181.6" font-family="Arial" font-size="14.00">method </text>
<text text-anchor="start" x="103.79" y="-181.6" font-family="Arial" font-size="14.00" fill="#666666">[net.http_method]</text>
<polygon fill="none" stroke="black" points="46.2,-138.6 46.2,-169.4 352.14,-169.4 352.14,-138.6 46.2,-138.6"/>
<text text-anchor="start" x="53.2" y="-150.8" font-family="Arial" font-size="14.00">url </text>
<text text-anchor="start" x="72.65" y="-150.8" font-family="Arial" font-size="14.00" fill="#666666">[text]</text>
<polygon fill="none" stroke="black" points="46.2,-107.8 46.2,-138.6 352.14,-138.6 352.14,-107.8 46.2,-107.8"/>
<text text-anchor="start" x="53.2" y="-120" font-family="Arial" font-size="14.00">headers </text>
<text text-anchor="start" x="107.68" y="-120" font-family="Arial" font-size="14.00" fill="#666666">[jsonb]</text>
<polygon fill="none" stroke="black" points="46.2,-77 46.2,-107.8 352.14,-107.8 352.14,-77 46.2,-77"/>
<text text-anchor="start" x="53.2" y="-89.2" font-family="Arial" font-size="14.00">body </text>
<text text-anchor="start" x="87.45" y="-89.2" font-family="Arial" font-size="14.00" fill="#666666">[bytea]</text>
<polygon fill="none" stroke="black" points="46.2,-46.2 46.2,-77 352.14,-77 352.14,-46.2 46.2,-46.2"/>
<text text-anchor="start" x="53.2" y="-58.4" font-family="Arial" font-size="14.00">timeout_milliseconds </text>
<text text-anchor="start" x="187.03" y="-58.4" font-family="Arial" font-size="14.00" fill="#666666">[integer]</text>
<polygon fill="none" stroke="black" stroke-width="3" points="44.7,-44.7 44.7,-268.1 353.64,-268.1 353.64,-44.7 44.7,-44.7"/>
</g>
</g>
</svg>
