<?xml version="1.0" encoding="UTF-8" standalone="no"?>
<!DOCTYPE svg PUBLIC "-//W3C//DTD SVG 1.1//EN"
 "http://www.w3.org/Graphics/SVG/1.1/DTD/svg11.dtd">
<!-- Generated by graphviz version 12.1.2 (20240928.0832)
 -->
<!-- Title: public.visits Pages: 1 -->
<svg width="858pt" height="1002pt"
 viewBox="0.00 0.00 858.46 1002.40" xmlns="http://www.w3.org/2000/svg" xmlns:xlink="http://www.w3.org/1999/xlink">
<g id="graph0" class="graph" transform="scale(1 1) rotate(0) translate(4 998.4)">
<title>public.visits</title>
<polygon fill="white" stroke="none" points="-4,4 -4,-998.4 854.46,-998.4 854.46,4 -4,4"/>
<!-- public.visits -->
<g id="node1" class="node">
<title>public.visits</title>
<polygon fill="#efefef" stroke="none" points="348.96,-912.6 348.96,-948.2 602.64,-948.2 602.64,-912.6 348.96,-912.6"/>
<polygon fill="none" stroke="black" points="348.96,-912.6 348.96,-948.2 602.64,-948.2 602.64,-912.6 348.96,-912.6"/>
<text text-anchor="start" x="369.8" y="-926" font-family="Arial Bold" font-size="18.00">public.visits</text>
<text text-anchor="start" x="457.31" y="-926" font-family="Arial" font-size="14.00">    </text>
<text text-anchor="start" x="488.43" y="-926" font-family="Arial" font-size="14.00" fill="#666666">[BASE TABLE]</text>
<polygon fill="none" stroke="black" points="348.96,-881.8 348.96,-912.6 602.64,-912.6 602.64,-881.8 348.96,-881.8"/>
<text text-anchor="start" x="355.96" y="-894" font-family="Arial" font-size="14.00">id </text>
<text text-anchor="start" x="370.75" y="-894" font-family="Arial" font-size="14.00" fill="#666666">[uuid]</text>
<polygon fill="none" stroke="black" points="348.96,-851 348.96,-881.8 602.64,-881.8 602.64,-851 348.96,-851"/>
<text text-anchor="start" x="355.96" y="-863.2" font-family="Arial" font-size="14.00">user_id </text>
<text text-anchor="start" x="405.77" y="-863.2" font-family="Arial" font-size="14.00" fill="#666666">[uuid]</text>
<polygon fill="none" stroke="black" points="348.96,-820.2 348.96,-851 602.64,-851 602.64,-820.2 348.96,-820.2"/>
<text text-anchor="start" x="355.96" y="-832.4" font-family="Arial" font-size="14.00">machi_id </text>
<text text-anchor="start" x="415.88" y="-832.4" font-family="Arial" font-size="14.00" fill="#666666">[text]</text>
<polygon fill="none" stroke="black" points="348.96,-789.4 348.96,-820.2 602.64,-820.2 602.64,-789.4 348.96,-789.4"/>
<text text-anchor="start" x="355.96" y="-801.6" font-family="Arial" font-size="14.00">visited_at </text>
<text text-anchor="start" x="418.99" y="-801.6" font-family="Arial" font-size="14.00" fill="#666666">[timestamp with time zone]</text>
<polygon fill="none" stroke="black" points="348.96,-758.6 348.96,-789.4 602.64,-789.4 602.64,-758.6 348.96,-758.6"/>
<text text-anchor="start" x="355.96" y="-770.8" font-family="Arial" font-size="14.00">created_at </text>
<text text-anchor="start" x="426.01" y="-770.8" font-family="Arial" font-size="14.00" fill="#666666">[timestamp with time zone]</text>
<polygon fill="none" stroke="black" points="348.96,-727.8 348.96,-758.6 602.64,-758.6 602.64,-727.8 348.96,-727.8"/>
<text text-anchor="start" x="355.96" y="-740" font-family="Arial" font-size="14.00">updated_at </text>
<text text-anchor="start" x="429.92" y="-740" font-family="Arial" font-size="14.00" fill="#666666">[timestamp with time zone]</text>
<polygon fill="none" stroke="black" stroke-width="3" points="347.46,-726.3 347.46,-949.7 604.14,-949.7 604.14,-726.3 347.46,-726.3"/>
</g>
<!-- public.users -->
<g id="node2" class="node">
<title>public.users</title>
<polygon fill="#efefef" stroke="none" points="109.87,-505.2 109.87,-540.8 443.73,-540.8 443.73,-505.2 109.87,-505.2"/>
<polygon fill="none" stroke="black" points="109.87,-505.2 109.87,-540.8 443.73,-540.8 443.73,-505.2 109.87,-505.2"/>
<text text-anchor="start" x="171.31" y="-518.6" font-family="Arial Bold" font-size="18.00">public.users</text>
<text text-anchor="start" x="257.8" y="-518.6" font-family="Arial" font-size="14.00">    </text>
<text text-anchor="start" x="288.92" y="-518.6" font-family="Arial" font-size="14.00" fill="#666666">[BASE TABLE]</text>
<polygon fill="none" stroke="black" points="109.87,-474.4 109.87,-505.2 443.73,-505.2 443.73,-474.4 109.87,-474.4"/>
<text text-anchor="start" x="116.87" y="-486.6" font-family="Arial" font-size="14.00">id </text>
<text text-anchor="start" x="131.66" y="-486.6" font-family="Arial" font-size="14.00" fill="#666666">[uuid]</text>
<polygon fill="none" stroke="black" points="109.87,-443.6 109.87,-474.4 443.73,-474.4 443.73,-443.6 109.87,-443.6"/>
<text text-anchor="start" x="116.87" y="-455.8" font-family="Arial" font-size="14.00">email </text>
<text text-anchor="start" x="154.22" y="-455.8" font-family="Arial" font-size="14.00" fill="#666666">[text]</text>
<polygon fill="none" stroke="black" points="109.87,-412.8 109.87,-443.6 443.73,-443.6 443.73,-412.8 109.87,-412.8"/>
<text text-anchor="start" x="116.87" y="-425" font-family="Arial" font-size="14.00">username </text>
<text text-anchor="start" x="183.02" y="-425" font-family="Arial" font-size="14.00" fill="#666666">[text]</text>
<polygon fill="none" stroke="black" points="109.87,-382 109.87,-412.8 443.73,-412.8 443.73,-382 109.87,-382"/>
<text text-anchor="start" x="116.87" y="-394.2" font-family="Arial" font-size="14.00">display_name </text>
<text text-anchor="start" x="207.15" y="-394.2" font-family="Arial" font-size="14.00" fill="#666666">[text]</text>
<polygon fill="none" stroke="black" points="109.87,-351.2 109.87,-382 443.73,-382 443.73,-351.2 109.87,-351.2"/>
<text text-anchor="start" x="116.87" y="-363.4" font-family="Arial" font-size="14.00">avatar_url </text>
<text text-anchor="start" x="183.02" y="-363.4" font-family="Arial" font-size="14.00" fill="#666666">[text]</text>
<polygon fill="none" stroke="black" points="109.87,-320.4 109.87,-351.2 443.73,-351.2 443.73,-320.4 109.87,-320.4"/>
<text text-anchor="start" x="116.87" y="-332.6" font-family="Arial" font-size="14.00">bio </text>
<text text-anchor="start" x="139.44" y="-332.6" font-family="Arial" font-size="14.00" fill="#666666">[text]</text>
<polygon fill="none" stroke="black" points="109.87,-289.6 109.87,-320.4 443.73,-320.4 443.73,-289.6 109.87,-289.6"/>
<text text-anchor="start" x="116.87" y="-301.8" font-family="Arial" font-size="14.00">is_premium </text>
<text text-anchor="start" x="193.11" y="-301.8" font-family="Arial" font-size="14.00" fill="#666666">[boolean]</text>
<polygon fill="none" stroke="black" points="109.87,-258.8 109.87,-289.6 443.73,-289.6 443.73,-258.8 109.87,-258.8"/>
<text text-anchor="start" x="116.87" y="-271" font-family="Arial" font-size="14.00">premium_started_at </text>
<text text-anchor="start" x="245.26" y="-271" font-family="Arial" font-size="14.00" fill="#666666">[timestamp with time zone]</text>
<polygon fill="none" stroke="black" points="109.87,-228 109.87,-258.8 443.73,-258.8 443.73,-228 109.87,-228"/>
<text text-anchor="start" x="116.87" y="-240.2" font-family="Arial" font-size="14.00">premium_expires_at </text>
<text text-anchor="start" x="247.59" y="-240.2" font-family="Arial" font-size="14.00" fill="#666666">[timestamp with time zone]</text>
<polygon fill="none" stroke="black" points="109.87,-197.2 109.87,-228 443.73,-228 443.73,-197.2 109.87,-197.2"/>
<text text-anchor="start" x="116.87" y="-209.4" font-family="Arial" font-size="14.00">created_at </text>
<text text-anchor="start" x="186.92" y="-209.4" font-family="Arial" font-size="14.00" fill="#666666">[timestamp with time zone]</text>
<polygon fill="none" stroke="black" points="109.87,-166.4 109.87,-197.2 443.73,-197.2 443.73,-166.4 109.87,-166.4"/>
<text text-anchor="start" x="116.87" y="-178.6" font-family="Arial" font-size="14.00">updated_at </text>
<text text-anchor="start" x="190.83" y="-178.6" font-family="Arial" font-size="14.00" fill="#666666">[timestamp with time zone]</text>
<polygon fill="none" stroke="black" points="109.87,-135.6 109.87,-166.4 443.73,-166.4 443.73,-135.6 109.87,-135.6"/>
<text text-anchor="start" x="116.87" y="-147.8" font-family="Arial" font-size="14.00">push_token </text>
<text text-anchor="start" x="193.15" y="-147.8" font-family="Arial" font-size="14.00" fill="#666666">[text]</text>
<polygon fill="none" stroke="black" points="109.87,-104.8 109.87,-135.6 443.73,-135.6 443.73,-104.8 109.87,-104.8"/>
<text text-anchor="start" x="116.87" y="-117" font-family="Arial" font-size="14.00">push_token_updated_at </text>
<text text-anchor="start" x="271.01" y="-117" font-family="Arial" font-size="14.00" fill="#666666">[timestamp with time zone]</text>
</g>
<!-- public.visits&#45;&gt;public.users -->
<g id="edge1" class="edge">
<title>public.visits:user_id&#45;&gt;public.users:id</title>
<path fill="none" stroke="black" d="M337.69,-865.75C270.46,-856.69 319.28,-754.21 348.96,-681.6 371.84,-625.63 420.71,-639.91 443.73,-584 459.67,-545.29 486.6,-489.8 444.73,-489.8"/>
<polygon fill="black" stroke="black" points="337.65,-865.75 347.34,-870.87 342.97,-866.09 347.29,-866.36 347.29,-866.36 347.29,-866.36 342.97,-866.09 347.91,-861.89 337.65,-865.75"/>
<text text-anchor="start" x="7" y="-876.4" font-family="Arial" font-size="10.00">FOREIGN KEY (user_id) REFERENCES users(id) ON DELETE CASCADE</text>
</g>
<!-- public.machi -->
<g id="node3" class="node">
<title>public.machi</title>
<polygon fill="#efefef" stroke="none" points="547.96,-566.8 547.96,-602.4 801.64,-602.4 801.64,-566.8 547.96,-566.8"/>
<polygon fill="none" stroke="black" points="547.96,-566.8 547.96,-602.4 801.64,-602.4 801.64,-566.8 547.96,-566.8"/>
<text text-anchor="start" x="565.82" y="-580.2" font-family="Arial Bold" font-size="18.00">public.machi</text>
<text text-anchor="start" x="659.29" y="-580.2" font-family="Arial" font-size="14.00">    </text>
<text text-anchor="start" x="690.41" y="-580.2" font-family="Arial" font-size="14.00" fill="#666666">[BASE TABLE]</text>
<polygon fill="none" stroke="black" points="547.96,-536 547.96,-566.8 801.64,-566.8 801.64,-536 547.96,-536"/>
<text text-anchor="start" x="554.96" y="-548.2" font-family="Arial" font-size="14.00">id </text>
<text text-anchor="start" x="569.75" y="-548.2" font-family="Arial" font-size="14.00" fill="#666666">[text]</text>
<polygon fill="none" stroke="black" points="547.96,-505.2 547.96,-536 801.64,-536 801.64,-505.2 547.96,-505.2"/>
<text text-anchor="start" x="554.96" y="-517.4" font-family="Arial" font-size="14.00">name </text>
<text text-anchor="start" x="593.87" y="-517.4" font-family="Arial" font-size="14.00" fill="#666666">[text]</text>
<polygon fill="none" stroke="black" points="547.96,-474.4 547.96,-505.2 801.64,-505.2 801.64,-474.4 547.96,-474.4"/>
<text text-anchor="start" x="554.96" y="-486.6" font-family="Arial" font-size="14.00">latitude </text>
<text text-anchor="start" x="603.99" y="-486.6" font-family="Arial" font-size="14.00" fill="#666666">[double precision]</text>
<polygon fill="none" stroke="black" points="547.96,-443.6 547.96,-474.4 801.64,-474.4 801.64,-443.6 547.96,-443.6"/>
<text text-anchor="start" x="554.96" y="-455.8" font-family="Arial" font-size="14.00">longitude </text>
<text text-anchor="start" x="615.68" y="-455.8" font-family="Arial" font-size="14.00" fill="#666666">[double precision]</text>
<polygon fill="none" stroke="black" points="547.96,-412.8 547.96,-443.6 801.64,-443.6 801.64,-412.8 547.96,-412.8"/>
<text text-anchor="start" x="554.96" y="-425" font-family="Arial" font-size="14.00">prefecture_id </text>
<text text-anchor="start" x="640.57" y="-425" font-family="Arial" font-size="14.00" fill="#666666">[text]</text>
<polygon fill="none" stroke="black" points="547.96,-382 547.96,-412.8 801.64,-412.8 801.64,-382 547.96,-382"/>
<text text-anchor="start" x="554.96" y="-394.2" font-family="Arial" font-size="14.00">city_id </text>
<text text-anchor="start" x="598.53" y="-394.2" font-family="Arial" font-size="14.00" fill="#666666">[text]</text>
<polygon fill="none" stroke="black" points="547.96,-351.2 547.96,-382 801.64,-382 801.64,-351.2 547.96,-351.2"/>
<text text-anchor="start" x="554.96" y="-363.4" font-family="Arial" font-size="14.00">name_kana </text>
<text text-anchor="start" x="632.01" y="-363.4" font-family="Arial" font-size="14.00" fill="#666666">[text]</text>
<polygon fill="none" stroke="black" points="547.96,-320.4 547.96,-351.2 801.64,-351.2 801.64,-320.4 547.96,-320.4"/>
<text text-anchor="start" x="554.96" y="-332.6" font-family="Arial" font-size="14.00">name_translations </text>
<text text-anchor="start" x="673.25" y="-332.6" font-family="Arial" font-size="14.00" fill="#666666">[jsonb]</text>
<polygon fill="none" stroke="black" points="547.96,-289.6 547.96,-320.4 801.64,-320.4 801.64,-289.6 547.96,-289.6"/>
<text text-anchor="start" x="554.96" y="-301.8" font-family="Arial" font-size="14.00">prefecture_name </text>
<text text-anchor="start" x="664.69" y="-301.8" font-family="Arial" font-size="14.00" fill="#666666">[text]</text>
<polygon fill="none" stroke="black" points="547.96,-258.8 547.96,-289.6 801.64,-289.6 801.64,-258.8 547.96,-258.8"/>
<text text-anchor="start" x="554.96" y="-271" font-family="Arial" font-size="14.00">prefecture_name_translations </text>
<text text-anchor="start" x="744.07" y="-271" font-family="Arial" font-size="14.00" fill="#666666">[jsonb]</text>
<polygon fill="none" stroke="black" points="547.96,-228 547.96,-258.8 801.64,-258.8 801.64,-228 547.96,-228"/>
<text text-anchor="start" x="554.96" y="-240.2" font-family="Arial" font-size="14.00">city_name </text>
<text text-anchor="start" x="622.66" y="-240.2" font-family="Arial" font-size="14.00" fill="#666666">[text]</text>
<polygon fill="none" stroke="black" points="547.96,-197.2 547.96,-228 801.64,-228 801.64,-197.2 547.96,-197.2"/>
<text text-anchor="start" x="554.96" y="-209.4" font-family="Arial" font-size="14.00">city_name_translations </text>
<text text-anchor="start" x="702.04" y="-209.4" font-family="Arial" font-size="14.00" fill="#666666">[jsonb]</text>
<polygon fill="none" stroke="black" points="547.96,-166.4 547.96,-197.2 801.64,-197.2 801.64,-166.4 547.96,-166.4"/>
<text text-anchor="start" x="554.96" y="-178.6" font-family="Arial" font-size="14.00">created_at </text>
<text text-anchor="start" x="625.01" y="-178.6" font-family="Arial" font-size="14.00" fill="#666666">[timestamp with time zone]</text>
<polygon fill="none" stroke="black" points="547.96,-135.6 547.96,-166.4 801.64,-166.4 801.64,-135.6 547.96,-135.6"/>
<text text-anchor="start" x="554.96" y="-147.8" font-family="Arial" font-size="14.00">updated_at </text>
<text text-anchor="start" x="628.92" y="-147.8" font-family="Arial" font-size="14.00" fill="#666666">[timestamp with time zone]</text>
<polygon fill="none" stroke="black" points="547.96,-104.8 547.96,-135.6 801.64,-135.6 801.64,-104.8 547.96,-104.8"/>
<text text-anchor="start" x="554.96" y="-117" font-family="Arial" font-size="14.00">osm_id </text>
<text text-anchor="start" x="603.98" y="-117" font-family="Arial" font-size="14.00" fill="#666666">[bigint]</text>
<polygon fill="none" stroke="black" points="547.96,-74 547.96,-104.8 801.64,-104.8 801.64,-74 547.96,-74"/>
<text text-anchor="start" x="554.96" y="-86.2" font-family="Arial" font-size="14.00">place_type </text>
<text text-anchor="start" x="626.57" y="-86.2" font-family="Arial" font-size="14.00" fill="#666666">[text]</text>
<polygon fill="none" stroke="black" points="547.96,-43.2 547.96,-74 801.64,-74 801.64,-43.2 547.96,-43.2"/>
<text text-anchor="start" x="554.96" y="-55.4" font-family="Arial" font-size="14.00">tile_id </text>
<text text-anchor="start" x="595.43" y="-55.4" font-family="Arial" font-size="14.00" fill="#666666">[text]</text>
</g>
<!-- public.visits&#45;&gt;public.machi -->
<g id="edge2" class="edge">
<title>public.visits:machi_id&#45;&gt;public.machi:id</title>
<path fill="none" stroke="black" d="M613.79,-835.54C918.19,-831.84 555.53,-659.47 547.96,-645.6 527.9,-608.85 505.09,-551.4 546.96,-551.4"/>
<polygon fill="black" stroke="black" points="613.98,-835.54 603.95,-831.1 608.64,-835.57 604.31,-835.6 604.31,-835.6 604.31,-835.6 608.64,-835.57 604,-840.1 613.98,-835.54"/>
<text text-anchor="start" x="610.64" y="-845.6" font-family="Arial" font-size="10.00">FOREIGN KEY (machi_id) REFERENCES machi(id)</text>
</g>
</g>
</svg>
