<?xml version="1.0" encoding="UTF-8" standalone="no"?>
<!DOCTYPE svg PUBLIC "-//W3C//DTD SVG 1.1//EN"
 "http://www.w3.org/Graphics/SVG/1.1/DTD/svg11.dtd">
<!-- Generated by graphviz version 12.1.2 (20240928.0832)
 -->
<!-- Title: public.user_notification_settings Pages: 1 -->
<svg width="777pt" height="1126pt"
 viewBox="0.00 0.00 777.11 1125.60" xmlns="http://www.w3.org/2000/svg" xmlns:xlink="http://www.w3.org/1999/xlink">
<g id="graph0" class="graph" transform="scale(1 1) rotate(0) translate(4 1121.6)">
<title>public.user_notification_settings</title>
<polygon fill="white" stroke="none" points="-4,4 -4,-1121.6 773.11,-1121.6 773.11,4 -4,4"/>
<!-- public.user_notification_settings -->
<g id="node1" class="node">
<title>public.user_notification_settings</title>
<polygon fill="#efefef" stroke="none" points="46.2,-1035.8 46.2,-1071.4 420.15,-1071.4 420.15,-1035.8 46.2,-1035.8"/>
<polygon fill="none" stroke="black" points="46.2,-1035.8 46.2,-1071.4 420.15,-1071.4 420.15,-1035.8 46.2,-1035.8"/>
<text text-anchor="start" x="53.2" y="-1049.2" font-family="Arial Bold" font-size="18.00">public.user_notification_settings</text>
<text text-anchor="start" x="288.66" y="-1049.2" font-family="Arial" font-size="14.00">    </text>
<text text-anchor="start" x="319.78" y="-1049.2" font-family="Arial" font-size="14.00" fill="#666666">[BASE TABLE]</text>
<polygon fill="none" stroke="black" points="46.2,-1005 46.2,-1035.8 420.15,-1035.8 420.15,-1005 46.2,-1005"/>
<text text-anchor="start" x="53.2" y="-1017.2" font-family="Arial" font-size="14.00">id </text>
<text text-anchor="start" x="67.99" y="-1017.2" font-family="Arial" font-size="14.00" fill="#666666">[uuid]</text>
<polygon fill="none" stroke="black" points="46.2,-974.2 46.2,-1005 420.15,-1005 420.15,-974.2 46.2,-974.2"/>
<text text-anchor="start" x="53.2" y="-986.4" font-family="Arial" font-size="14.00">user_id </text>
<text text-anchor="start" x="103.01" y="-986.4" font-family="Arial" font-size="14.00" fill="#666666">[uuid]</text>
<polygon fill="none" stroke="black" points="46.2,-943.4 46.2,-974.2 420.15,-974.2 420.15,-943.4 46.2,-943.4"/>
<text text-anchor="start" x="53.2" y="-955.6" font-family="Arial" font-size="14.00">push_enabled </text>
<text text-anchor="start" x="145.06" y="-955.6" font-family="Arial" font-size="14.00" fill="#666666">[boolean]</text>
<polygon fill="none" stroke="black" points="46.2,-912.6 46.2,-943.4 420.15,-943.4 420.15,-912.6 46.2,-912.6"/>
<text text-anchor="start" x="53.2" y="-924.8" font-family="Arial" font-size="14.00">like_enabled </text>
<text text-anchor="start" x="135.71" y="-924.8" font-family="Arial" font-size="14.00" fill="#666666">[boolean]</text>
<polygon fill="none" stroke="black" points="46.2,-881.8 46.2,-912.6 420.15,-912.6 420.15,-881.8 46.2,-881.8"/>
<text text-anchor="start" x="53.2" y="-894" font-family="Arial" font-size="14.00">comment_enabled </text>
<text text-anchor="start" x="172.28" y="-894" font-family="Arial" font-size="14.00" fill="#666666">[boolean]</text>
<polygon fill="none" stroke="black" points="46.2,-851 46.2,-881.8 420.15,-881.8 420.15,-851 46.2,-851"/>
<text text-anchor="start" x="53.2" y="-863.2" font-family="Arial" font-size="14.00">follow_enabled </text>
<text text-anchor="start" x="150.5" y="-863.2" font-family="Arial" font-size="14.00" fill="#666666">[boolean]</text>
<polygon fill="none" stroke="black" points="46.2,-820.2 46.2,-851 420.15,-851 420.15,-820.2 46.2,-820.2"/>
<text text-anchor="start" x="53.2" y="-832.4" font-family="Arial" font-size="14.00">system_enabled </text>
<text text-anchor="start" x="159.04" y="-832.4" font-family="Arial" font-size="14.00" fill="#666666">[boolean]</text>
<polygon fill="none" stroke="black" points="46.2,-789.4 46.2,-820.2 420.15,-820.2 420.15,-789.4 46.2,-789.4"/>
<text text-anchor="start" x="53.2" y="-801.6" font-family="Arial" font-size="14.00">created_at </text>
<text text-anchor="start" x="123.25" y="-801.6" font-family="Arial" font-size="14.00" fill="#666666">[timestamp with time zone]</text>
<polygon fill="none" stroke="black" points="46.2,-758.6 46.2,-789.4 420.15,-789.4 420.15,-758.6 46.2,-758.6"/>
<text text-anchor="start" x="53.2" y="-770.8" font-family="Arial" font-size="14.00">updated_at </text>
<text text-anchor="start" x="127.16" y="-770.8" font-family="Arial" font-size="14.00" fill="#666666">[timestamp with time zone]</text>
<polygon fill="none" stroke="black" points="46.2,-727.8 46.2,-758.6 420.15,-758.6 420.15,-727.8 46.2,-727.8"/>
<text text-anchor="start" x="53.2" y="-740" font-family="Arial" font-size="14.00">email_enabled </text>
<text text-anchor="start" x="148.16" y="-740" font-family="Arial" font-size="14.00" fill="#666666">[boolean]</text>
<polygon fill="none" stroke="black" points="46.2,-697 46.2,-727.8 420.15,-727.8 420.15,-697 46.2,-697"/>
<text text-anchor="start" x="53.2" y="-709.2" font-family="Arial" font-size="14.00">email_like_enabled </text>
<text text-anchor="start" x="176.95" y="-709.2" font-family="Arial" font-size="14.00" fill="#666666">[boolean]</text>
<polygon fill="none" stroke="black" points="46.2,-666.2 46.2,-697 420.15,-697 420.15,-666.2 46.2,-666.2"/>
<text text-anchor="start" x="53.2" y="-678.4" font-family="Arial" font-size="14.00">email_comment_enabled </text>
<text text-anchor="start" x="213.52" y="-678.4" font-family="Arial" font-size="14.00" fill="#666666">[boolean]</text>
<polygon fill="none" stroke="black" points="46.2,-635.4 46.2,-666.2 420.15,-666.2 420.15,-635.4 46.2,-635.4"/>
<text text-anchor="start" x="53.2" y="-647.6" font-family="Arial" font-size="14.00">email_follow_enabled </text>
<text text-anchor="start" x="191.74" y="-647.6" font-family="Arial" font-size="14.00" fill="#666666">[boolean]</text>
<polygon fill="none" stroke="black" points="46.2,-604.6 46.2,-635.4 420.15,-635.4 420.15,-604.6 46.2,-604.6"/>
<text text-anchor="start" x="53.2" y="-616.8" font-family="Arial" font-size="14.00">email_system_enabled </text>
<text text-anchor="start" x="200.28" y="-616.8" font-family="Arial" font-size="14.00" fill="#666666">[boolean]</text>
<polygon fill="none" stroke="black" stroke-width="3" points="44.7,-603.1 44.7,-1072.9 421.65,-1072.9 421.65,-603.1 44.7,-603.1"/>
</g>
<!-- public.users -->
<g id="node2" class="node">
<title>public.users</title>
<polygon fill="#efefef" stroke="none" points="66.24,-443.6 66.24,-479.2 400.1,-479.2 400.1,-443.6 66.24,-443.6"/>
<polygon fill="none" stroke="black" points="66.24,-443.6 66.24,-479.2 400.1,-479.2 400.1,-443.6 66.24,-443.6"/>
<text text-anchor="start" x="127.69" y="-457" font-family="Arial Bold" font-size="18.00">public.users</text>
<text text-anchor="start" x="214.17" y="-457" font-family="Arial" font-size="14.00">    </text>
<text text-anchor="start" x="245.29" y="-457" font-family="Arial" font-size="14.00" fill="#666666">[BASE TABLE]</text>
<polygon fill="none" stroke="black" points="66.24,-412.8 66.24,-443.6 400.1,-443.6 400.1,-412.8 66.24,-412.8"/>
<text text-anchor="start" x="73.24" y="-425" font-family="Arial" font-size="14.00">id </text>
<text text-anchor="start" x="88.03" y="-425" font-family="Arial" font-size="14.00" fill="#666666">[uuid]</text>
<polygon fill="none" stroke="black" points="66.24,-382 66.24,-412.8 400.1,-412.8 400.1,-382 66.24,-382"/>
<text text-anchor="start" x="73.24" y="-394.2" font-family="Arial" font-size="14.00">email </text>
<text text-anchor="start" x="110.59" y="-394.2" font-family="Arial" font-size="14.00" fill="#666666">[text]</text>
<polygon fill="none" stroke="black" points="66.24,-351.2 66.24,-382 400.1,-382 400.1,-351.2 66.24,-351.2"/>
<text text-anchor="start" x="73.24" y="-363.4" font-family="Arial" font-size="14.00">username </text>
<text text-anchor="start" x="139.39" y="-363.4" font-family="Arial" font-size="14.00" fill="#666666">[text]</text>
<polygon fill="none" stroke="black" points="66.24,-320.4 66.24,-351.2 400.1,-351.2 400.1,-320.4 66.24,-320.4"/>
<text text-anchor="start" x="73.24" y="-332.6" font-family="Arial" font-size="14.00">display_name </text>
<text text-anchor="start" x="163.52" y="-332.6" font-family="Arial" font-size="14.00" fill="#666666">[text]</text>
<polygon fill="none" stroke="black" points="66.24,-289.6 66.24,-320.4 400.1,-320.4 400.1,-289.6 66.24,-289.6"/>
<text text-anchor="start" x="73.24" y="-301.8" font-family="Arial" font-size="14.00">avatar_url </text>
<text text-anchor="start" x="139.39" y="-301.8" font-family="Arial" font-size="14.00" fill="#666666">[text]</text>
<polygon fill="none" stroke="black" points="66.24,-258.8 66.24,-289.6 400.1,-289.6 400.1,-258.8 66.24,-258.8"/>
<text text-anchor="start" x="73.24" y="-271" font-family="Arial" font-size="14.00">bio </text>
<text text-anchor="start" x="95.82" y="-271" font-family="Arial" font-size="14.00" fill="#666666">[text]</text>
<polygon fill="none" stroke="black" points="66.24,-228 66.24,-258.8 400.1,-258.8 400.1,-228 66.24,-228"/>
<text text-anchor="start" x="73.24" y="-240.2" font-family="Arial" font-size="14.00">is_premium </text>
<text text-anchor="start" x="149.49" y="-240.2" font-family="Arial" font-size="14.00" fill="#666666">[boolean]</text>
<polygon fill="none" stroke="black" points="66.24,-197.2 66.24,-228 400.1,-228 400.1,-197.2 66.24,-197.2"/>
<text text-anchor="start" x="73.24" y="-209.4" font-family="Arial" font-size="14.00">premium_started_at </text>
<text text-anchor="start" x="201.64" y="-209.4" font-family="Arial" font-size="14.00" fill="#666666">[timestamp with time zone]</text>
<polygon fill="none" stroke="black" points="66.24,-166.4 66.24,-197.2 400.1,-197.2 400.1,-166.4 66.24,-166.4"/>
<text text-anchor="start" x="73.24" y="-178.6" font-family="Arial" font-size="14.00">premium_expires_at </text>
<text text-anchor="start" x="203.97" y="-178.6" font-family="Arial" font-size="14.00" fill="#666666">[timestamp with time zone]</text>
<polygon fill="none" stroke="black" points="66.24,-135.6 66.24,-166.4 400.1,-166.4 400.1,-135.6 66.24,-135.6"/>
<text text-anchor="start" x="73.24" y="-147.8" font-family="Arial" font-size="14.00">created_at </text>
<text text-anchor="start" x="143.29" y="-147.8" font-family="Arial" font-size="14.00" fill="#666666">[timestamp with time zone]</text>
<polygon fill="none" stroke="black" points="66.24,-104.8 66.24,-135.6 400.1,-135.6 400.1,-104.8 66.24,-104.8"/>
<text text-anchor="start" x="73.24" y="-117" font-family="Arial" font-size="14.00">updated_at </text>
<text text-anchor="start" x="147.2" y="-117" font-family="Arial" font-size="14.00" fill="#666666">[timestamp with time zone]</text>
<polygon fill="none" stroke="black" points="66.24,-74 66.24,-104.8 400.1,-104.8 400.1,-74 66.24,-74"/>
<text text-anchor="start" x="73.24" y="-86.2" font-family="Arial" font-size="14.00">push_token </text>
<text text-anchor="start" x="149.53" y="-86.2" font-family="Arial" font-size="14.00" fill="#666666">[text]</text>
<polygon fill="none" stroke="black" points="66.24,-43.2 66.24,-74 400.1,-74 400.1,-43.2 66.24,-43.2"/>
<text text-anchor="start" x="73.24" y="-55.4" font-family="Arial" font-size="14.00">push_token_updated_at </text>
<text text-anchor="start" x="227.38" y="-55.4" font-family="Arial" font-size="14.00" fill="#666666">[timestamp with time zone]</text>
</g>
<!-- public.user_notification_settings&#45;&gt;public.users -->
<g id="edge1" class="edge">
<title>public.user_notification_settings:user_id&#45;&gt;public.users:id</title>
<path fill="none" stroke="black" d="M430.34,-985.08C481.33,-931.95 460.23,-428.2 401.1,-428.2"/>
<polygon fill="black" stroke="black" points="430.42,-985.04 419.46,-985.41 425.64,-987.39 421.75,-989.3 421.75,-989.3 421.75,-989.3 425.64,-987.39 423.43,-993.49 430.42,-985.04"/>
<text text-anchor="start" x="428.15" y="-999.6" font-family="Arial" font-size="10.00">FOREIGN KEY (user_id) REFERENCES users(id) ON DELETE CASCADE</text>
</g>
</g>
</svg>
