<?xml version="1.0" encoding="UTF-8" standalone="no"?>
<!DOCTYPE svg PUBLIC "-//W3C//DTD SVG 1.1//EN"
 "http://www.w3.org/Graphics/SVG/1.1/DTD/svg11.dtd">
<!-- Generated by graphviz version 12.1.2 (20240928.0832)
 -->
<!-- Title: public.categories Pages: 1 -->
<svg width="1746pt" height="1095pt"
 viewBox="0.00 0.00 1746.19 1094.80" xmlns="http://www.w3.org/2000/svg" xmlns:xlink="http://www.w3.org/1999/xlink">
<g id="graph0" class="graph" transform="scale(1 1) rotate(0) translate(4 1090.8)">
<title>public.categories</title>
<polygon fill="white" stroke="none" points="-4,4 -4,-1090.8 1742.19,-1090.8 1742.19,4 -4,4"/>
<!-- public.categories -->
<g id="node1" class="node">
<title>public.categories</title>
<polygon fill="#efefef" stroke="none" points="686.57,-292.6 686.57,-328.2 947.51,-328.2 947.51,-292.6 686.57,-292.6"/>
<polygon fill="none" stroke="black" points="686.57,-292.6 686.57,-328.2 947.51,-328.2 947.51,-292.6 686.57,-292.6"/>
<text text-anchor="start" x="693.57" y="-306" font-family="Arial Bold" font-size="18.00">public.categories</text>
<text text-anchor="start" x="816.02" y="-306" font-family="Arial" font-size="14.00">    </text>
<text text-anchor="start" x="847.14" y="-306" font-family="Arial" font-size="14.00" fill="#666666">[BASE TABLE]</text>
<polygon fill="none" stroke="black" points="686.57,-261.8 686.57,-292.6 947.51,-292.6 947.51,-261.8 686.57,-261.8"/>
<text text-anchor="start" x="693.57" y="-274" font-family="Arial" font-size="14.00">id </text>
<text text-anchor="start" x="708.36" y="-274" font-family="Arial" font-size="14.00" fill="#666666">[text]</text>
<polygon fill="none" stroke="black" points="686.57,-231 686.57,-261.8 947.51,-261.8 947.51,-231 686.57,-231"/>
<text text-anchor="start" x="693.57" y="-243.2" font-family="Arial" font-size="14.00">slug </text>
<text text-anchor="start" x="723.14" y="-243.2" font-family="Arial" font-size="14.00" fill="#666666">[text]</text>
<polygon fill="none" stroke="black" points="686.57,-200.2 686.57,-231 947.51,-231 947.51,-200.2 686.57,-200.2"/>
<text text-anchor="start" x="693.57" y="-212.4" font-family="Arial" font-size="14.00">name </text>
<text text-anchor="start" x="732.48" y="-212.4" font-family="Arial" font-size="14.00" fill="#666666">[text]</text>
<polygon fill="none" stroke="black" points="686.57,-169.4 686.57,-200.2 947.51,-200.2 947.51,-169.4 686.57,-169.4"/>
<text text-anchor="start" x="693.57" y="-181.6" font-family="Arial" font-size="14.00">name_translations </text>
<text text-anchor="start" x="811.86" y="-181.6" font-family="Arial" font-size="14.00" fill="#666666">[jsonb]</text>
<polygon fill="none" stroke="black" points="686.57,-138.6 686.57,-169.4 947.51,-169.4 947.51,-138.6 686.57,-138.6"/>
<text text-anchor="start" x="693.57" y="-150.8" font-family="Arial" font-size="14.00">display_order </text>
<text text-anchor="start" x="781.51" y="-150.8" font-family="Arial" font-size="14.00" fill="#666666">[integer]</text>
<polygon fill="none" stroke="black" points="686.57,-107.8 686.57,-138.6 947.51,-138.6 947.51,-107.8 686.57,-107.8"/>
<text text-anchor="start" x="693.57" y="-120" font-family="Arial" font-size="14.00">is_active </text>
<text text-anchor="start" x="751.93" y="-120" font-family="Arial" font-size="14.00" fill="#666666">[boolean]</text>
<polygon fill="none" stroke="black" points="686.57,-77 686.57,-107.8 947.51,-107.8 947.51,-77 686.57,-77"/>
<text text-anchor="start" x="693.57" y="-89.2" font-family="Arial" font-size="14.00">created_at </text>
<text text-anchor="start" x="763.62" y="-89.2" font-family="Arial" font-size="14.00" fill="#666666">[timestamp with time zone]</text>
<polygon fill="none" stroke="black" points="686.57,-46.2 686.57,-77 947.51,-77 947.51,-46.2 686.57,-46.2"/>
<text text-anchor="start" x="693.57" y="-58.4" font-family="Arial" font-size="14.00">updated_at </text>
<text text-anchor="start" x="767.53" y="-58.4" font-family="Arial" font-size="14.00" fill="#666666">[timestamp with time zone]</text>
<polygon fill="none" stroke="black" stroke-width="3" points="685.07,-44.7 685.07,-329.7 949.01,-329.7 949.01,-44.7 685.07,-44.7"/>
</g>
<!-- public.maps -->
<g id="node2" class="node">
<title>public.maps</title>
<polygon fill="#efefef" stroke="none" points="43.2,-1008 43.2,-1043.6 296.88,-1043.6 296.88,-1008 43.2,-1008"/>
<polygon fill="none" stroke="black" points="43.2,-1008 43.2,-1043.6 296.88,-1043.6 296.88,-1008 43.2,-1008"/>
<text text-anchor="start" x="64.05" y="-1021.4" font-family="Arial Bold" font-size="18.00">public.maps</text>
<text text-anchor="start" x="151.54" y="-1021.4" font-family="Arial" font-size="14.00">    </text>
<text text-anchor="start" x="182.66" y="-1021.4" font-family="Arial" font-size="14.00" fill="#666666">[BASE TABLE]</text>
<polygon fill="none" stroke="black" points="43.2,-977.2 43.2,-1008 296.88,-1008 296.88,-977.2 43.2,-977.2"/>
<text text-anchor="start" x="50.2" y="-989.4" font-family="Arial" font-size="14.00">id </text>
<text text-anchor="start" x="64.99" y="-989.4" font-family="Arial" font-size="14.00" fill="#666666">[uuid]</text>
<polygon fill="none" stroke="black" points="43.2,-946.4 43.2,-977.2 296.88,-977.2 296.88,-946.4 43.2,-946.4"/>
<text text-anchor="start" x="50.2" y="-958.6" font-family="Arial" font-size="14.00">user_id </text>
<text text-anchor="start" x="100.01" y="-958.6" font-family="Arial" font-size="14.00" fill="#666666">[uuid]</text>
<polygon fill="none" stroke="black" points="43.2,-915.6 43.2,-946.4 296.88,-946.4 296.88,-915.6 43.2,-915.6"/>
<text text-anchor="start" x="50.2" y="-927.8" font-family="Arial" font-size="14.00">name </text>
<text text-anchor="start" x="89.11" y="-927.8" font-family="Arial" font-size="14.00" fill="#666666">[text]</text>
<polygon fill="none" stroke="black" points="43.2,-884.8 43.2,-915.6 296.88,-915.6 296.88,-884.8 43.2,-884.8"/>
<text text-anchor="start" x="50.2" y="-897" font-family="Arial" font-size="14.00">description </text>
<text text-anchor="start" x="121.79" y="-897" font-family="Arial" font-size="14.00" fill="#666666">[text]</text>
<polygon fill="none" stroke="black" points="43.2,-854 43.2,-884.8 296.88,-884.8 296.88,-854 43.2,-854"/>
<text text-anchor="start" x="50.2" y="-866.2" font-family="Arial" font-size="14.00">is_public </text>
<text text-anchor="start" x="108.57" y="-866.2" font-family="Arial" font-size="14.00" fill="#666666">[boolean]</text>
<polygon fill="none" stroke="black" points="43.2,-823.2 43.2,-854 296.88,-854 296.88,-823.2 43.2,-823.2"/>
<text text-anchor="start" x="50.2" y="-835.4" font-family="Arial" font-size="14.00">is_official </text>
<text text-anchor="start" x="111.67" y="-835.4" font-family="Arial" font-size="14.00" fill="#666666">[boolean]</text>
<polygon fill="none" stroke="black" points="43.2,-792.4 43.2,-823.2 296.88,-823.2 296.88,-792.4 43.2,-792.4"/>
<text text-anchor="start" x="50.2" y="-804.6" font-family="Arial" font-size="14.00">thumbnail_url </text>
<text text-anchor="start" x="138.14" y="-804.6" font-family="Arial" font-size="14.00" fill="#666666">[text]</text>
<polygon fill="none" stroke="black" points="43.2,-761.6 43.2,-792.4 296.88,-792.4 296.88,-761.6 43.2,-761.6"/>
<text text-anchor="start" x="50.2" y="-773.8" font-family="Arial" font-size="14.00">spots_count </text>
<text text-anchor="start" x="129.59" y="-773.8" font-family="Arial" font-size="14.00" fill="#666666">[integer]</text>
<polygon fill="none" stroke="black" points="43.2,-730.8 43.2,-761.6 296.88,-761.6 296.88,-730.8 43.2,-730.8"/>
<text text-anchor="start" x="50.2" y="-743" font-family="Arial" font-size="14.00">likes_count </text>
<text text-anchor="start" x="124.13" y="-743" font-family="Arial" font-size="14.00" fill="#666666">[integer]</text>
<polygon fill="none" stroke="black" points="43.2,-700 43.2,-730.8 296.88,-730.8 296.88,-700 43.2,-700"/>
<text text-anchor="start" x="50.2" y="-712.2" font-family="Arial" font-size="14.00">created_at </text>
<text text-anchor="start" x="120.25" y="-712.2" font-family="Arial" font-size="14.00" fill="#666666">[timestamp with time zone]</text>
<polygon fill="none" stroke="black" points="43.2,-669.2 43.2,-700 296.88,-700 296.88,-669.2 43.2,-669.2"/>
<text text-anchor="start" x="50.2" y="-681.4" font-family="Arial" font-size="14.00">updated_at </text>
<text text-anchor="start" x="124.16" y="-681.4" font-family="Arial" font-size="14.00" fill="#666666">[timestamp with time zone]</text>
<polygon fill="none" stroke="black" points="43.2,-638.4 43.2,-669.2 296.88,-669.2 296.88,-638.4 43.2,-638.4"/>
<text text-anchor="start" x="50.2" y="-650.6" font-family="Arial" font-size="14.00">comments_count </text>
<text text-anchor="start" x="160.7" y="-650.6" font-family="Arial" font-size="14.00" fill="#666666">[integer]</text>
<polygon fill="none" stroke="black" points="43.2,-607.6 43.2,-638.4 296.88,-638.4 296.88,-607.6 43.2,-607.6"/>
<text text-anchor="start" x="50.2" y="-619.8" font-family="Arial" font-size="14.00">is_article_public </text>
<text text-anchor="start" x="153.7" y="-619.8" font-family="Arial" font-size="14.00" fill="#666666">[boolean]</text>
<polygon fill="none" stroke="black" points="43.2,-576.8 43.2,-607.6 296.88,-607.6 296.88,-576.8 43.2,-576.8"/>
<text text-anchor="start" x="50.2" y="-589" font-family="Arial" font-size="14.00">bookmarks_count </text>
<text text-anchor="start" x="164.59" y="-589" font-family="Arial" font-size="14.00" fill="#666666">[integer]</text>
<polygon fill="none" stroke="black" points="43.2,-546 43.2,-576.8 296.88,-576.8 296.88,-546 43.2,-546"/>
<text text-anchor="start" x="50.2" y="-558.2" font-family="Arial" font-size="14.00">category_id </text>
<text text-anchor="start" x="126.47" y="-558.2" font-family="Arial" font-size="14.00" fill="#666666">[text]</text>
<polygon fill="none" stroke="black" points="43.2,-515.2 43.2,-546 296.88,-546 296.88,-515.2 43.2,-515.2"/>
<text text-anchor="start" x="50.2" y="-527.4" font-family="Arial" font-size="14.00">article_intro </text>
<text text-anchor="start" x="126.45" y="-527.4" font-family="Arial" font-size="14.00" fill="#666666">[jsonb]</text>
<polygon fill="none" stroke="black" points="43.2,-484.4 43.2,-515.2 296.88,-515.2 296.88,-484.4 43.2,-484.4"/>
<text text-anchor="start" x="50.2" y="-496.6" font-family="Arial" font-size="14.00">article_outro </text>
<text text-anchor="start" x="131.13" y="-496.6" font-family="Arial" font-size="14.00" fill="#666666">[jsonb]</text>
<polygon fill="none" stroke="black" points="43.2,-453.6 43.2,-484.4 296.88,-484.4 296.88,-453.6 43.2,-453.6"/>
<text text-anchor="start" x="50.2" y="-465.8" font-family="Arial" font-size="14.00">show_label_chips </text>
<text text-anchor="start" x="164.61" y="-465.8" font-family="Arial" font-size="14.00" fill="#666666">[boolean]</text>
</g>
<!-- public.maps&#45;&gt;public.categories -->
<g id="edge1" class="edge">
<title>public.maps:category_id&#45;&gt;public.categories:id</title>
<path fill="none" stroke="black" d="M307.97,-560.59C361.84,-551.02 302.79,-459.04 349.04,-410.4 459.89,-293.84 524.71,-277.2 685.57,-277.2"/>
<polygon fill="black" stroke="black" points="308.18,-560.57 297.85,-556.89 302.87,-561 298.55,-561.35 298.55,-561.35 298.55,-561.35 302.87,-561 298.58,-565.86 308.18,-560.57"/>
<text text-anchor="start" x="304.88" y="-571.4" font-family="Arial" font-size="10.00">FOREIGN KEY (category_id) REFERENCES categories(id)</text>
</g>
<!-- public.featured_carousel_items -->
<g id="node3" class="node">
<title>public.featured_carousel_items</title>
<polygon fill="#efefef" stroke="none" points="401.09,-946.4 401.09,-982 764.99,-982 764.99,-946.4 401.09,-946.4"/>
<polygon fill="none" stroke="black" points="401.09,-946.4 401.09,-982 764.99,-982 764.99,-946.4 401.09,-946.4"/>
<text text-anchor="start" x="408.09" y="-959.8" font-family="Arial Bold" font-size="18.00">public.featured_carousel_items</text>
<text text-anchor="start" x="633.5" y="-959.8" font-family="Arial" font-size="14.00">    </text>
<text text-anchor="start" x="664.62" y="-959.8" font-family="Arial" font-size="14.00" fill="#666666">[BASE TABLE]</text>
<polygon fill="none" stroke="black" points="401.09,-915.6 401.09,-946.4 764.99,-946.4 764.99,-915.6 401.09,-915.6"/>
<text text-anchor="start" x="408.09" y="-927.8" font-family="Arial" font-size="14.00">id </text>
<text text-anchor="start" x="422.88" y="-927.8" font-family="Arial" font-size="14.00" fill="#666666">[uuid]</text>
<polygon fill="none" stroke="black" points="401.09,-884.8 401.09,-915.6 764.99,-915.6 764.99,-884.8 401.09,-884.8"/>
<text text-anchor="start" x="408.09" y="-897" font-family="Arial" font-size="14.00">title </text>
<text text-anchor="start" x="433.77" y="-897" font-family="Arial" font-size="14.00" fill="#666666">[text]</text>
<polygon fill="none" stroke="black" points="401.09,-854 401.09,-884.8 764.99,-884.8 764.99,-854 401.09,-854"/>
<text text-anchor="start" x="408.09" y="-866.2" font-family="Arial" font-size="14.00">description </text>
<text text-anchor="start" x="479.68" y="-866.2" font-family="Arial" font-size="14.00" fill="#666666">[text]</text>
<polygon fill="none" stroke="black" points="401.09,-823.2 401.09,-854 764.99,-854 764.99,-823.2 401.09,-823.2"/>
<text text-anchor="start" x="408.09" y="-835.4" font-family="Arial" font-size="14.00">image_url </text>
<text text-anchor="start" x="473.45" y="-835.4" font-family="Arial" font-size="14.00" fill="#666666">[text]</text>
<polygon fill="none" stroke="black" points="401.09,-792.4 401.09,-823.2 764.99,-823.2 764.99,-792.4 401.09,-792.4"/>
<text text-anchor="start" x="408.09" y="-804.6" font-family="Arial" font-size="14.00">link_type </text>
<text text-anchor="start" x="467.23" y="-804.6" font-family="Arial" font-size="14.00" fill="#666666">[text]</text>
<polygon fill="none" stroke="black" points="401.09,-761.6 401.09,-792.4 764.99,-792.4 764.99,-761.6 401.09,-761.6"/>
<text text-anchor="start" x="408.09" y="-773.8" font-family="Arial" font-size="14.00">link_value </text>
<text text-anchor="start" x="474.24" y="-773.8" font-family="Arial" font-size="14.00" fill="#666666">[text]</text>
<polygon fill="none" stroke="black" points="401.09,-730.8 401.09,-761.6 764.99,-761.6 764.99,-730.8 401.09,-730.8"/>
<text text-anchor="start" x="408.09" y="-743" font-family="Arial" font-size="14.00">display_order </text>
<text text-anchor="start" x="496.03" y="-743" font-family="Arial" font-size="14.00" fill="#666666">[integer]</text>
<polygon fill="none" stroke="black" points="401.09,-700 401.09,-730.8 764.99,-730.8 764.99,-700 401.09,-700"/>
<text text-anchor="start" x="408.09" y="-712.2" font-family="Arial" font-size="14.00">is_active </text>
<text text-anchor="start" x="466.45" y="-712.2" font-family="Arial" font-size="14.00" fill="#666666">[boolean]</text>
<polygon fill="none" stroke="black" points="401.09,-669.2 401.09,-700 764.99,-700 764.99,-669.2 401.09,-669.2"/>
<text text-anchor="start" x="408.09" y="-681.4" font-family="Arial" font-size="14.00">starts_at </text>
<text text-anchor="start" x="465.67" y="-681.4" font-family="Arial" font-size="14.00" fill="#666666">[timestamp with time zone]</text>
<polygon fill="none" stroke="black" points="401.09,-638.4 401.09,-669.2 764.99,-669.2 764.99,-638.4 401.09,-638.4"/>
<text text-anchor="start" x="408.09" y="-650.6" font-family="Arial" font-size="14.00">ends_at </text>
<text text-anchor="start" x="461.8" y="-650.6" font-family="Arial" font-size="14.00" fill="#666666">[timestamp with time zone]</text>
<polygon fill="none" stroke="black" points="401.09,-607.6 401.09,-638.4 764.99,-638.4 764.99,-607.6 401.09,-607.6"/>
<text text-anchor="start" x="408.09" y="-619.8" font-family="Arial" font-size="14.00">created_at </text>
<text text-anchor="start" x="478.14" y="-619.8" font-family="Arial" font-size="14.00" fill="#666666">[timestamp with time zone]</text>
<polygon fill="none" stroke="black" points="401.09,-576.8 401.09,-607.6 764.99,-607.6 764.99,-576.8 401.09,-576.8"/>
<text text-anchor="start" x="408.09" y="-589" font-family="Arial" font-size="14.00">updated_at </text>
<text text-anchor="start" x="482.05" y="-589" font-family="Arial" font-size="14.00" fill="#666666">[timestamp with time zone]</text>
<polygon fill="none" stroke="black" points="401.09,-546 401.09,-576.8 764.99,-576.8 764.99,-546 401.09,-546"/>
<text text-anchor="start" x="408.09" y="-558.2" font-family="Arial" font-size="14.00">category_id </text>
<text text-anchor="start" x="484.36" y="-558.2" font-family="Arial" font-size="14.00" fill="#666666">[text]</text>
<polygon fill="none" stroke="black" points="401.09,-515.2 401.09,-546 764.99,-546 764.99,-515.2 401.09,-515.2"/>
<text text-anchor="start" x="408.09" y="-527.4" font-family="Arial" font-size="14.00">content </text>
<text text-anchor="start" x="457.9" y="-527.4" font-family="Arial" font-size="14.00" fill="#666666">[text]</text>
</g>
<!-- public.featured_carousel_items&#45;&gt;public.categories -->
<g id="edge2" class="edge">
<title>public.featured_carousel_items:category_id&#45;&gt;public.categories:id</title>
<path fill="none" stroke="black" d="M776.11,-559.86C800.32,-550.99 777.03,-505.61 764.99,-472 746.22,-419.62 705.32,-426.79 686.57,-374.4 672.02,-333.72 642.37,-277.2 685.57,-277.2"/>
<polygon fill="black" stroke="black" points="776.21,-559.85 765.65,-556.9 770.94,-560.65 766.65,-561.3 766.65,-561.3 766.65,-561.3 770.94,-560.65 767,-565.8 776.21,-559.85"/>
<text text-anchor="start" x="772.99" y="-545.4" font-family="Arial" font-size="10.00">FOREIGN KEY (category_id) REFERENCES categories(id) ON DELETE SET NULL</text>
</g>
<!-- public.category_featured_maps -->
<g id="node4" class="node">
<title>public.category_featured_maps</title>
<polygon fill="#efefef" stroke="none" points="869.59,-838.6 869.59,-874.2 1234.49,-874.2 1234.49,-838.6 869.59,-838.6"/>
<polygon fill="none" stroke="black" points="869.59,-838.6 869.59,-874.2 1234.49,-874.2 1234.49,-838.6 869.59,-838.6"/>
<text text-anchor="start" x="876.59" y="-852" font-family="Arial Bold" font-size="18.00">public.category_featured_maps</text>
<text text-anchor="start" x="1103" y="-852" font-family="Arial" font-size="14.00">    </text>
<text text-anchor="start" x="1134.12" y="-852" font-family="Arial" font-size="14.00" fill="#666666">[BASE TABLE]</text>
<polygon fill="none" stroke="black" points="869.59,-807.8 869.59,-838.6 1234.49,-838.6 1234.49,-807.8 869.59,-807.8"/>
<text text-anchor="start" x="876.59" y="-820" font-family="Arial" font-size="14.00">id </text>
<text text-anchor="start" x="891.38" y="-820" font-family="Arial" font-size="14.00" fill="#666666">[uuid]</text>
<polygon fill="none" stroke="black" points="869.59,-777 869.59,-807.8 1234.49,-807.8 1234.49,-777 869.59,-777"/>
<text text-anchor="start" x="876.59" y="-789.2" font-family="Arial" font-size="14.00">category_id </text>
<text text-anchor="start" x="952.86" y="-789.2" font-family="Arial" font-size="14.00" fill="#666666">[text]</text>
<polygon fill="none" stroke="black" points="869.59,-746.2 869.59,-777 1234.49,-777 1234.49,-746.2 869.59,-746.2"/>
<text text-anchor="start" x="876.59" y="-758.4" font-family="Arial" font-size="14.00">map_id </text>
<text text-anchor="start" x="926.4" y="-758.4" font-family="Arial" font-size="14.00" fill="#666666">[uuid]</text>
<polygon fill="none" stroke="black" points="869.59,-715.4 869.59,-746.2 1234.49,-746.2 1234.49,-715.4 869.59,-715.4"/>
<text text-anchor="start" x="876.59" y="-727.6" font-family="Arial" font-size="14.00">display_order </text>
<text text-anchor="start" x="964.53" y="-727.6" font-family="Arial" font-size="14.00" fill="#666666">[integer]</text>
<polygon fill="none" stroke="black" points="869.59,-684.6 869.59,-715.4 1234.49,-715.4 1234.49,-684.6 869.59,-684.6"/>
<text text-anchor="start" x="876.59" y="-696.8" font-family="Arial" font-size="14.00">is_active </text>
<text text-anchor="start" x="934.95" y="-696.8" font-family="Arial" font-size="14.00" fill="#666666">[boolean]</text>
<polygon fill="none" stroke="black" points="869.59,-653.8 869.59,-684.6 1234.49,-684.6 1234.49,-653.8 869.59,-653.8"/>
<text text-anchor="start" x="876.59" y="-666" font-family="Arial" font-size="14.00">created_at </text>
<text text-anchor="start" x="946.64" y="-666" font-family="Arial" font-size="14.00" fill="#666666">[timestamp with time zone]</text>
<polygon fill="none" stroke="black" points="869.59,-623 869.59,-653.8 1234.49,-653.8 1234.49,-623 869.59,-623"/>
<text text-anchor="start" x="876.59" y="-635.2" font-family="Arial" font-size="14.00">updated_at </text>
<text text-anchor="start" x="950.55" y="-635.2" font-family="Arial" font-size="14.00" fill="#666666">[timestamp with time zone]</text>
</g>
<!-- public.category_featured_maps&#45;&gt;public.categories -->
<g id="edge3" class="edge">
<title>public.category_featured_maps:category_id&#45;&gt;public.categories:id</title>
<path fill="none" stroke="black" d="M858.47,-791.61C742.57,-772.27 941.71,-405.15 947.51,-374.4 955.52,-331.95 991.71,-277.2 948.51,-277.2"/>
<polygon fill="black" stroke="black" points="858.29,-791.59 867.91,-796.86 863.61,-792.01 867.93,-792.35 867.93,-792.35 867.93,-792.35 863.61,-792.01 868.61,-787.89 858.29,-791.59"/>
<text text-anchor="start" x="875.59" y="-802.4" font-family="Arial" font-size="10.00">FOREIGN KEY (category_id) REFERENCES categories(id) ON DELETE CASCADE</text>
</g>
<!-- public.category_featured_tags -->
<g id="node5" class="node">
<title>public.category_featured_tags</title>
<polygon fill="#efefef" stroke="none" points="1339.09,-838.6 1339.09,-874.2 1694.99,-874.2 1694.99,-838.6 1339.09,-838.6"/>
<polygon fill="none" stroke="black" points="1339.09,-838.6 1339.09,-874.2 1694.99,-874.2 1694.99,-838.6 1339.09,-838.6"/>
<text text-anchor="start" x="1346.09" y="-852" font-family="Arial Bold" font-size="18.00">public.category_featured_tags</text>
<text text-anchor="start" x="1563.5" y="-852" font-family="Arial" font-size="14.00">    </text>
<text text-anchor="start" x="1594.62" y="-852" font-family="Arial" font-size="14.00" fill="#666666">[BASE TABLE]</text>
<polygon fill="none" stroke="black" points="1339.09,-807.8 1339.09,-838.6 1694.99,-838.6 1694.99,-807.8 1339.09,-807.8"/>
<text text-anchor="start" x="1346.09" y="-820" font-family="Arial" font-size="14.00">id </text>
<text text-anchor="start" x="1360.88" y="-820" font-family="Arial" font-size="14.00" fill="#666666">[uuid]</text>
<polygon fill="none" stroke="black" points="1339.09,-777 1339.09,-807.8 1694.99,-807.8 1694.99,-777 1339.09,-777"/>
<text text-anchor="start" x="1346.09" y="-789.2" font-family="Arial" font-size="14.00">category_id </text>
<text text-anchor="start" x="1422.36" y="-789.2" font-family="Arial" font-size="14.00" fill="#666666">[text]</text>
<polygon fill="none" stroke="black" points="1339.09,-746.2 1339.09,-777 1694.99,-777 1694.99,-746.2 1339.09,-746.2"/>
<text text-anchor="start" x="1346.09" y="-758.4" font-family="Arial" font-size="14.00">tag_id </text>
<text text-anchor="start" x="1388.13" y="-758.4" font-family="Arial" font-size="14.00" fill="#666666">[uuid]</text>
<polygon fill="none" stroke="black" points="1339.09,-715.4 1339.09,-746.2 1694.99,-746.2 1694.99,-715.4 1339.09,-715.4"/>
<text text-anchor="start" x="1346.09" y="-727.6" font-family="Arial" font-size="14.00">display_order </text>
<text text-anchor="start" x="1434.03" y="-727.6" font-family="Arial" font-size="14.00" fill="#666666">[integer]</text>
<polygon fill="none" stroke="black" points="1339.09,-684.6 1339.09,-715.4 1694.99,-715.4 1694.99,-684.6 1339.09,-684.6"/>
<text text-anchor="start" x="1346.09" y="-696.8" font-family="Arial" font-size="14.00">is_active </text>
<text text-anchor="start" x="1404.45" y="-696.8" font-family="Arial" font-size="14.00" fill="#666666">[boolean]</text>
<polygon fill="none" stroke="black" points="1339.09,-653.8 1339.09,-684.6 1694.99,-684.6 1694.99,-653.8 1339.09,-653.8"/>
<text text-anchor="start" x="1346.09" y="-666" font-family="Arial" font-size="14.00">created_at </text>
<text text-anchor="start" x="1416.14" y="-666" font-family="Arial" font-size="14.00" fill="#666666">[timestamp with time zone]</text>
<polygon fill="none" stroke="black" points="1339.09,-623 1339.09,-653.8 1694.99,-653.8 1694.99,-623 1339.09,-623"/>
<text text-anchor="start" x="1346.09" y="-635.2" font-family="Arial" font-size="14.00">updated_at </text>
<text text-anchor="start" x="1420.05" y="-635.2" font-family="Arial" font-size="14.00" fill="#666666">[timestamp with time zone]</text>
</g>
<!-- public.category_featured_tags&#45;&gt;public.categories -->
<g id="edge4" class="edge">
<title>public.category_featured_tags:category_id&#45;&gt;public.categories:id</title>
<path fill="none" stroke="black" d="M1327.99,-790.7C1259.7,-765.82 1337.58,-474.93 1287.04,-410.4 1187.35,-283.11 1110.2,-277.2 948.51,-277.2"/>
<polygon fill="black" stroke="black" points="1327.9,-790.69 1337.02,-796.78 1333.16,-791.57 1337.43,-792.29 1337.43,-792.29 1337.43,-792.29 1333.16,-791.57 1338.51,-787.91 1327.9,-790.69"/>
<text text-anchor="start" x="1345.09" y="-802.4" font-family="Arial" font-size="10.00">FOREIGN KEY (category_id) REFERENCES categories(id) ON DELETE CASCADE</text>
</g>
</g>
</svg>
