<?xml version="1.0" encoding="UTF-8" standalone="no"?>
<!DOCTYPE svg PUBLIC "-//W3C//DTD SVG 1.1//EN"
 "http://www.w3.org/Graphics/SVG/1.1/DTD/svg11.dtd">
<!-- Generated by graphviz version 12.1.2 (20240928.0832)
 -->
<!-- Title: public.schedules Pages: 1 -->
<svg width="983pt" height="1126pt"
 viewBox="0.00 0.00 983.03 1125.60" xmlns="http://www.w3.org/2000/svg" xmlns:xlink="http://www.w3.org/1999/xlink">
<g id="graph0" class="graph" transform="scale(1 1) rotate(0) translate(4 1121.6)">
<title>public.schedules</title>
<polygon fill="white" stroke="none" points="-4,4 -4,-1121.6 979.03,-1121.6 979.03,4 -4,4"/>
<!-- public.schedules -->
<g id="node1" class="node">
<title>public.schedules</title>
<polygon fill="#efefef" stroke="none" points="348.96,-1035.8 348.96,-1071.4 616.63,-1071.4 616.63,-1035.8 348.96,-1035.8"/>
<polygon fill="none" stroke="black" points="348.96,-1035.8 348.96,-1071.4 616.63,-1071.4 616.63,-1035.8 348.96,-1035.8"/>
<text text-anchor="start" x="360.81" y="-1049.2" font-family="Arial Bold" font-size="18.00">public.schedules</text>
<text text-anchor="start" x="480.28" y="-1049.2" font-family="Arial" font-size="14.00">    </text>
<text text-anchor="start" x="511.4" y="-1049.2" font-family="Arial" font-size="14.00" fill="#666666">[BASE TABLE]</text>
<polygon fill="none" stroke="black" points="348.96,-1005 348.96,-1035.8 616.63,-1035.8 616.63,-1005 348.96,-1005"/>
<text text-anchor="start" x="355.96" y="-1017.2" font-family="Arial" font-size="14.00">id </text>
<text text-anchor="start" x="370.75" y="-1017.2" font-family="Arial" font-size="14.00" fill="#666666">[uuid]</text>
<polygon fill="none" stroke="black" points="348.96,-974.2 348.96,-1005 616.63,-1005 616.63,-974.2 348.96,-974.2"/>
<text text-anchor="start" x="355.96" y="-986.4" font-family="Arial" font-size="14.00">user_id </text>
<text text-anchor="start" x="405.77" y="-986.4" font-family="Arial" font-size="14.00" fill="#666666">[uuid]</text>
<polygon fill="none" stroke="black" points="348.96,-943.4 348.96,-974.2 616.63,-974.2 616.63,-943.4 348.96,-943.4"/>
<text text-anchor="start" x="355.96" y="-955.6" font-family="Arial" font-size="14.00">machi_id </text>
<text text-anchor="start" x="415.88" y="-955.6" font-family="Arial" font-size="14.00" fill="#666666">[text]</text>
<polygon fill="none" stroke="black" points="348.96,-912.6 348.96,-943.4 616.63,-943.4 616.63,-912.6 348.96,-912.6"/>
<text text-anchor="start" x="355.96" y="-924.8" font-family="Arial" font-size="14.00">scheduled_at </text>
<text text-anchor="start" x="443.14" y="-924.8" font-family="Arial" font-size="14.00" fill="#666666">[timestamp with time zone]</text>
<polygon fill="none" stroke="black" points="348.96,-881.8 348.96,-912.6 616.63,-912.6 616.63,-881.8 348.96,-881.8"/>
<text text-anchor="start" x="355.96" y="-894" font-family="Arial" font-size="14.00">title </text>
<text text-anchor="start" x="381.64" y="-894" font-family="Arial" font-size="14.00" fill="#666666">[text]</text>
<polygon fill="none" stroke="black" points="348.96,-851 348.96,-881.8 616.63,-881.8 616.63,-851 348.96,-851"/>
<text text-anchor="start" x="355.96" y="-863.2" font-family="Arial" font-size="14.00">memo </text>
<text text-anchor="start" x="398.75" y="-863.2" font-family="Arial" font-size="14.00" fill="#666666">[text]</text>
<polygon fill="none" stroke="black" points="348.96,-820.2 348.96,-851 616.63,-851 616.63,-820.2 348.96,-820.2"/>
<text text-anchor="start" x="355.96" y="-832.4" font-family="Arial" font-size="14.00">is_completed </text>
<text text-anchor="start" x="442.34" y="-832.4" font-family="Arial" font-size="14.00" fill="#666666">[boolean]</text>
<polygon fill="none" stroke="black" points="348.96,-789.4 348.96,-820.2 616.63,-820.2 616.63,-789.4 348.96,-789.4"/>
<text text-anchor="start" x="355.96" y="-801.6" font-family="Arial" font-size="14.00">completed_at </text>
<text text-anchor="start" x="443.9" y="-801.6" font-family="Arial" font-size="14.00" fill="#666666">[timestamp with time zone]</text>
<polygon fill="none" stroke="black" points="348.96,-758.6 348.96,-789.4 616.63,-789.4 616.63,-758.6 348.96,-758.6"/>
<text text-anchor="start" x="355.96" y="-770.8" font-family="Arial" font-size="14.00">created_at </text>
<text text-anchor="start" x="426.01" y="-770.8" font-family="Arial" font-size="14.00" fill="#666666">[timestamp with time zone]</text>
<polygon fill="none" stroke="black" points="348.96,-727.8 348.96,-758.6 616.63,-758.6 616.63,-727.8 348.96,-727.8"/>
<text text-anchor="start" x="355.96" y="-740" font-family="Arial" font-size="14.00">updated_at </text>
<text text-anchor="start" x="429.92" y="-740" font-family="Arial" font-size="14.00" fill="#666666">[timestamp with time zone]</text>
<polygon fill="none" stroke="black" stroke-width="3" points="347.46,-726.3 347.46,-1072.9 618.13,-1072.9 618.13,-726.3 347.46,-726.3"/>
</g>
<!-- public.users -->
<g id="node2" class="node">
<title>public.users</title>
<polygon fill="#efefef" stroke="none" points="116.86,-505.2 116.86,-540.8 450.72,-540.8 450.72,-505.2 116.86,-505.2"/>
<polygon fill="none" stroke="black" points="116.86,-505.2 116.86,-540.8 450.72,-540.8 450.72,-505.2 116.86,-505.2"/>
<text text-anchor="start" x="178.31" y="-518.6" font-family="Arial Bold" font-size="18.00">public.users</text>
<text text-anchor="start" x="264.79" y="-518.6" font-family="Arial" font-size="14.00">    </text>
<text text-anchor="start" x="295.91" y="-518.6" font-family="Arial" font-size="14.00" fill="#666666">[BASE TABLE]</text>
<polygon fill="none" stroke="black" points="116.86,-474.4 116.86,-505.2 450.72,-505.2 450.72,-474.4 116.86,-474.4"/>
<text text-anchor="start" x="123.86" y="-486.6" font-family="Arial" font-size="14.00">id </text>
<text text-anchor="start" x="138.65" y="-486.6" font-family="Arial" font-size="14.00" fill="#666666">[uuid]</text>
<polygon fill="none" stroke="black" points="116.86,-443.6 116.86,-474.4 450.72,-474.4 450.72,-443.6 116.86,-443.6"/>
<text text-anchor="start" x="123.86" y="-455.8" font-family="Arial" font-size="14.00">email </text>
<text text-anchor="start" x="161.21" y="-455.8" font-family="Arial" font-size="14.00" fill="#666666">[text]</text>
<polygon fill="none" stroke="black" points="116.86,-412.8 116.86,-443.6 450.72,-443.6 450.72,-412.8 116.86,-412.8"/>
<text text-anchor="start" x="123.86" y="-425" font-family="Arial" font-size="14.00">username </text>
<text text-anchor="start" x="190.01" y="-425" font-family="Arial" font-size="14.00" fill="#666666">[text]</text>
<polygon fill="none" stroke="black" points="116.86,-382 116.86,-412.8 450.72,-412.8 450.72,-382 116.86,-382"/>
<text text-anchor="start" x="123.86" y="-394.2" font-family="Arial" font-size="14.00">display_name </text>
<text text-anchor="start" x="214.14" y="-394.2" font-family="Arial" font-size="14.00" fill="#666666">[text]</text>
<polygon fill="none" stroke="black" points="116.86,-351.2 116.86,-382 450.72,-382 450.72,-351.2 116.86,-351.2"/>
<text text-anchor="start" x="123.86" y="-363.4" font-family="Arial" font-size="14.00">avatar_url </text>
<text text-anchor="start" x="190.01" y="-363.4" font-family="Arial" font-size="14.00" fill="#666666">[text]</text>
<polygon fill="none" stroke="black" points="116.86,-320.4 116.86,-351.2 450.72,-351.2 450.72,-320.4 116.86,-320.4"/>
<text text-anchor="start" x="123.86" y="-332.6" font-family="Arial" font-size="14.00">bio </text>
<text text-anchor="start" x="146.44" y="-332.6" font-family="Arial" font-size="14.00" fill="#666666">[text]</text>
<polygon fill="none" stroke="black" points="116.86,-289.6 116.86,-320.4 450.72,-320.4 450.72,-289.6 116.86,-289.6"/>
<text text-anchor="start" x="123.86" y="-301.8" font-family="Arial" font-size="14.00">is_premium </text>
<text text-anchor="start" x="200.1" y="-301.8" font-family="Arial" font-size="14.00" fill="#666666">[boolean]</text>
<polygon fill="none" stroke="black" points="116.86,-258.8 116.86,-289.6 450.72,-289.6 450.72,-258.8 116.86,-258.8"/>
<text text-anchor="start" x="123.86" y="-271" font-family="Arial" font-size="14.00">premium_started_at </text>
<text text-anchor="start" x="252.26" y="-271" font-family="Arial" font-size="14.00" fill="#666666">[timestamp with time zone]</text>
<polygon fill="none" stroke="black" points="116.86,-228 116.86,-258.8 450.72,-258.8 450.72,-228 116.86,-228"/>
<text text-anchor="start" x="123.86" y="-240.2" font-family="Arial" font-size="14.00">premium_expires_at </text>
<text text-anchor="start" x="254.59" y="-240.2" font-family="Arial" font-size="14.00" fill="#666666">[timestamp with time zone]</text>
<polygon fill="none" stroke="black" points="116.86,-197.2 116.86,-228 450.72,-228 450.72,-197.2 116.86,-197.2"/>
<text text-anchor="start" x="123.86" y="-209.4" font-family="Arial" font-size="14.00">created_at </text>
<text text-anchor="start" x="193.91" y="-209.4" font-family="Arial" font-size="14.00" fill="#666666">[timestamp with time zone]</text>
<polygon fill="none" stroke="black" points="116.86,-166.4 116.86,-197.2 450.72,-197.2 450.72,-166.4 116.86,-166.4"/>
<text text-anchor="start" x="123.86" y="-178.6" font-family="Arial" font-size="14.00">updated_at </text>
<text text-anchor="start" x="197.82" y="-178.6" font-family="Arial" font-size="14.00" fill="#666666">[timestamp with time zone]</text>
<polygon fill="none" stroke="black" points="116.86,-135.6 116.86,-166.4 450.72,-166.4 450.72,-135.6 116.86,-135.6"/>
<text text-anchor="start" x="123.86" y="-147.8" font-family="Arial" font-size="14.00">push_token </text>
<text text-anchor="start" x="200.15" y="-147.8" font-family="Arial" font-size="14.00" fill="#666666">[text]</text>
<polygon fill="none" stroke="black" points="116.86,-104.8 116.86,-135.6 450.72,-135.6 450.72,-104.8 116.86,-104.8"/>
<text text-anchor="start" x="123.86" y="-117" font-family="Arial" font-size="14.00">push_token_updated_at </text>
<text text-anchor="start" x="278" y="-117" font-family="Arial" font-size="14.00" fill="#666666">[timestamp with time zone]</text>
</g>
<!-- public.schedules&#45;&gt;public.users -->
<g id="edge1" class="edge">
<title>public.schedules:user_id&#45;&gt;public.users:id</title>
<path fill="none" stroke="black" d="M337.59,-989.22C215.48,-980.03 296.47,-804.11 348.96,-681.6 373.64,-624 425.83,-641.51 450.72,-584 467.35,-545.58 493.59,-489.8 451.72,-489.8"/>
<polygon fill="black" stroke="black" points="337.63,-989.23 347.46,-994.08 342.96,-989.42 347.29,-989.58 347.29,-989.58 347.29,-989.58 342.96,-989.42 347.79,-985.09 337.63,-989.23"/>
<text text-anchor="start" x="7" y="-999.6" font-family="Arial" font-size="10.00">FOREIGN KEY (user_id) REFERENCES users(id) ON DELETE CASCADE</text>
</g>
<!-- public.machi -->
<g id="node3" class="node">
<title>public.machi</title>
<polygon fill="#efefef" stroke="none" points="554.95,-566.8 554.95,-602.4 808.63,-602.4 808.63,-566.8 554.95,-566.8"/>
<polygon fill="none" stroke="black" points="554.95,-566.8 554.95,-602.4 808.63,-602.4 808.63,-566.8 554.95,-566.8"/>
<text text-anchor="start" x="572.81" y="-580.2" font-family="Arial Bold" font-size="18.00">public.machi</text>
<text text-anchor="start" x="666.29" y="-580.2" font-family="Arial" font-size="14.00">    </text>
<text text-anchor="start" x="697.4" y="-580.2" font-family="Arial" font-size="14.00" fill="#666666">[BASE TABLE]</text>
<polygon fill="none" stroke="black" points="554.95,-536 554.95,-566.8 808.63,-566.8 808.63,-536 554.95,-536"/>
<text text-anchor="start" x="561.95" y="-548.2" font-family="Arial" font-size="14.00">id </text>
<text text-anchor="start" x="576.74" y="-548.2" font-family="Arial" font-size="14.00" fill="#666666">[text]</text>
<polygon fill="none" stroke="black" points="554.95,-505.2 554.95,-536 808.63,-536 808.63,-505.2 554.95,-505.2"/>
<text text-anchor="start" x="561.95" y="-517.4" font-family="Arial" font-size="14.00">name </text>
<text text-anchor="start" x="600.86" y="-517.4" font-family="Arial" font-size="14.00" fill="#666666">[text]</text>
<polygon fill="none" stroke="black" points="554.95,-474.4 554.95,-505.2 808.63,-505.2 808.63,-474.4 554.95,-474.4"/>
<text text-anchor="start" x="561.95" y="-486.6" font-family="Arial" font-size="14.00">latitude </text>
<text text-anchor="start" x="610.99" y="-486.6" font-family="Arial" font-size="14.00" fill="#666666">[double precision]</text>
<polygon fill="none" stroke="black" points="554.95,-443.6 554.95,-474.4 808.63,-474.4 808.63,-443.6 554.95,-443.6"/>
<text text-anchor="start" x="561.95" y="-455.8" font-family="Arial" font-size="14.00">longitude </text>
<text text-anchor="start" x="622.67" y="-455.8" font-family="Arial" font-size="14.00" fill="#666666">[double precision]</text>
<polygon fill="none" stroke="black" points="554.95,-412.8 554.95,-443.6 808.63,-443.6 808.63,-412.8 554.95,-412.8"/>
<text text-anchor="start" x="561.95" y="-425" font-family="Arial" font-size="14.00">prefecture_id </text>
<text text-anchor="start" x="647.56" y="-425" font-family="Arial" font-size="14.00" fill="#666666">[text]</text>
<polygon fill="none" stroke="black" points="554.95,-382 554.95,-412.8 808.63,-412.8 808.63,-382 554.95,-382"/>
<text text-anchor="start" x="561.95" y="-394.2" font-family="Arial" font-size="14.00">city_id </text>
<text text-anchor="start" x="605.53" y="-394.2" font-family="Arial" font-size="14.00" fill="#666666">[text]</text>
<polygon fill="none" stroke="black" points="554.95,-351.2 554.95,-382 808.63,-382 808.63,-351.2 554.95,-351.2"/>
<text text-anchor="start" x="561.95" y="-363.4" font-family="Arial" font-size="14.00">name_kana </text>
<text text-anchor="start" x="639.01" y="-363.4" font-family="Arial" font-size="14.00" fill="#666666">[text]</text>
<polygon fill="none" stroke="black" points="554.95,-320.4 554.95,-351.2 808.63,-351.2 808.63,-320.4 554.95,-320.4"/>
<text text-anchor="start" x="561.95" y="-332.6" font-family="Arial" font-size="14.00">name_translations </text>
<text text-anchor="start" x="680.24" y="-332.6" font-family="Arial" font-size="14.00" fill="#666666">[jsonb]</text>
<polygon fill="none" stroke="black" points="554.95,-289.6 554.95,-320.4 808.63,-320.4 808.63,-289.6 554.95,-289.6"/>
<text text-anchor="start" x="561.95" y="-301.8" font-family="Arial" font-size="14.00">prefecture_name </text>
<text text-anchor="start" x="671.68" y="-301.8" font-family="Arial" font-size="14.00" fill="#666666">[text]</text>
<polygon fill="none" stroke="black" points="554.95,-258.8 554.95,-289.6 808.63,-289.6 808.63,-258.8 554.95,-258.8"/>
<text text-anchor="start" x="561.95" y="-271" font-family="Arial" font-size="14.00">prefecture_name_translations </text>
<text text-anchor="start" x="751.06" y="-271" font-family="Arial" font-size="14.00" fill="#666666">[jsonb]</text>
<polygon fill="none" stroke="black" points="554.95,-228 554.95,-258.8 808.63,-258.8 808.63,-228 554.95,-228"/>
<text text-anchor="start" x="561.95" y="-240.2" font-family="Arial" font-size="14.00">city_name </text>
<text text-anchor="start" x="629.65" y="-240.2" font-family="Arial" font-size="14.00" fill="#666666">[text]</text>
<polygon fill="none" stroke="black" points="554.95,-197.2 554.95,-228 808.63,-228 808.63,-197.2 554.95,-197.2"/>
<text text-anchor="start" x="561.95" y="-209.4" font-family="Arial" font-size="14.00">city_name_translations </text>
<text text-anchor="start" x="709.03" y="-209.4" font-family="Arial" font-size="14.00" fill="#666666">[jsonb]</text>
<polygon fill="none" stroke="black" points="554.95,-166.4 554.95,-197.2 808.63,-197.2 808.63,-166.4 554.95,-166.4"/>
<text text-anchor="start" x="561.95" y="-178.6" font-family="Arial" font-size="14.00">created_at </text>
<text text-anchor="start" x="632" y="-178.6" font-family="Arial" font-size="14.00" fill="#666666">[timestamp with time zone]</text>
<polygon fill="none" stroke="black" points="554.95,-135.6 554.95,-166.4 808.63,-166.4 808.63,-135.6 554.95,-135.6"/>
<text text-anchor="start" x="561.95" y="-147.8" font-family="Arial" font-size="14.00">updated_at </text>
<text text-anchor="start" x="635.91" y="-147.8" font-family="Arial" font-size="14.00" fill="#666666">[timestamp with time zone]</text>
<polygon fill="none" stroke="black" points="554.95,-104.8 554.95,-135.6 808.63,-135.6 808.63,-104.8 554.95,-104.8"/>
<text text-anchor="start" x="561.95" y="-117" font-family="Arial" font-size="14.00">osm_id </text>
<text text-anchor="start" x="610.97" y="-117" font-family="Arial" font-size="14.00" fill="#666666">[bigint]</text>
<polygon fill="none" stroke="black" points="554.95,-74 554.95,-104.8 808.63,-104.8 808.63,-74 554.95,-74"/>
<text text-anchor="start" x="561.95" y="-86.2" font-family="Arial" font-size="14.00">place_type </text>
<text text-anchor="start" x="633.56" y="-86.2" font-family="Arial" font-size="14.00" fill="#666666">[text]</text>
<polygon fill="none" stroke="black" points="554.95,-43.2 554.95,-74 808.63,-74 808.63,-43.2 554.95,-43.2"/>
<text text-anchor="start" x="561.95" y="-55.4" font-family="Arial" font-size="14.00">tile_id </text>
<text text-anchor="start" x="602.42" y="-55.4" font-family="Arial" font-size="14.00" fill="#666666">[text]</text>
</g>
<!-- public.schedules&#45;&gt;public.machi -->
<g id="edge2" class="edge">
<title>public.schedules:machi_id&#45;&gt;public.machi:id</title>
<path fill="none" stroke="black" d="M627.98,-958.37C737.16,-948.87 676.36,-785.2 616.63,-681.6 600.77,-654.1 570.9,-673.04 554.95,-645.6 533.91,-609.4 512.08,-551.4 553.95,-551.4"/>
<polygon fill="black" stroke="black" points="627.95,-958.37 617.77,-954.29 622.62,-958.59 618.3,-958.77 618.3,-958.77 618.3,-958.77 622.62,-958.59 618.15,-963.28 627.95,-958.37"/>
<text text-anchor="start" x="624.63" y="-968.8" font-family="Arial" font-size="10.00">FOREIGN KEY (machi_id) REFERENCES machi(id) ON DELETE CASCADE</text>
</g>
</g>
</svg>
