<?xml version="1.0" encoding="UTF-8" standalone="no"?>
<!DOCTYPE svg PUBLIC "-//W3C//DTD SVG 1.1//EN"
 "http://www.w3.org/Graphics/SVG/1.1/DTD/svg11.dtd">
<!-- Generated by graphviz version 12.1.2 (20240928.0832)
 -->
<!-- Title: public.comment_likes Pages: 1 -->
<svg width="1047pt" height="818pt"
 viewBox="0.00 0.00 1047.22 817.60" xmlns="http://www.w3.org/2000/svg" xmlns:xlink="http://www.w3.org/1999/xlink">
<g id="graph0" class="graph" transform="scale(1 1) rotate(0) translate(4 813.6)">
<title>public.comment_likes</title>
<polygon fill="white" stroke="none" points="-4,4 -4,-813.6 1043.22,-813.6 1043.22,4 -4,4"/>
<!-- public.comment_likes -->
<g id="node1" class="node">
<title>public.comment_likes</title>
<polygon fill="#efefef" stroke="none" points="348.96,-727.8 348.96,-763.4 646.92,-763.4 646.92,-727.8 348.96,-727.8"/>
<polygon fill="none" stroke="black" points="348.96,-727.8 348.96,-763.4 646.92,-763.4 646.92,-727.8 348.96,-727.8"/>
<text text-anchor="start" x="355.96" y="-741.2" font-family="Arial Bold" font-size="18.00">public.comment_likes</text>
<text text-anchor="start" x="515.43" y="-741.2" font-family="Arial" font-size="14.00">    </text>
<text text-anchor="start" x="546.55" y="-741.2" font-family="Arial" font-size="14.00" fill="#666666">[BASE TABLE]</text>
<polygon fill="none" stroke="black" points="348.96,-697 348.96,-727.8 646.92,-727.8 646.92,-697 348.96,-697"/>
<text text-anchor="start" x="355.96" y="-709.2" font-family="Arial" font-size="14.00">id </text>
<text text-anchor="start" x="370.75" y="-709.2" font-family="Arial" font-size="14.00" fill="#666666">[uuid]</text>
<polygon fill="none" stroke="black" points="348.96,-666.2 348.96,-697 646.92,-697 646.92,-666.2 348.96,-666.2"/>
<text text-anchor="start" x="355.96" y="-678.4" font-family="Arial" font-size="14.00">user_id </text>
<text text-anchor="start" x="405.77" y="-678.4" font-family="Arial" font-size="14.00" fill="#666666">[uuid]</text>
<polygon fill="none" stroke="black" points="348.96,-635.4 348.96,-666.2 646.92,-666.2 646.92,-635.4 348.96,-635.4"/>
<text text-anchor="start" x="355.96" y="-647.6" font-family="Arial" font-size="14.00">comment_id </text>
<text text-anchor="start" x="436.1" y="-647.6" font-family="Arial" font-size="14.00" fill="#666666">[uuid]</text>
<polygon fill="none" stroke="black" points="348.96,-604.6 348.96,-635.4 646.92,-635.4 646.92,-604.6 348.96,-604.6"/>
<text text-anchor="start" x="355.96" y="-616.8" font-family="Arial" font-size="14.00">created_at </text>
<text text-anchor="start" x="426.01" y="-616.8" font-family="Arial" font-size="14.00" fill="#666666">[timestamp with time zone]</text>
<polygon fill="none" stroke="black" stroke-width="3" points="347.46,-603.1 347.46,-764.9 648.42,-764.9 648.42,-603.1 347.46,-603.1"/>
</g>
<!-- public.users -->
<g id="node2" class="node">
<title>public.users</title>
<polygon fill="#efefef" stroke="none" points="130.01,-443.6 130.01,-479.2 463.87,-479.2 463.87,-443.6 130.01,-443.6"/>
<polygon fill="none" stroke="black" points="130.01,-443.6 130.01,-479.2 463.87,-479.2 463.87,-443.6 130.01,-443.6"/>
<text text-anchor="start" x="191.45" y="-457" font-family="Arial Bold" font-size="18.00">public.users</text>
<text text-anchor="start" x="277.94" y="-457" font-family="Arial" font-size="14.00">    </text>
<text text-anchor="start" x="309.05" y="-457" font-family="Arial" font-size="14.00" fill="#666666">[BASE TABLE]</text>
<polygon fill="none" stroke="black" points="130.01,-412.8 130.01,-443.6 463.87,-443.6 463.87,-412.8 130.01,-412.8"/>
<text text-anchor="start" x="137.01" y="-425" font-family="Arial" font-size="14.00">id </text>
<text text-anchor="start" x="151.79" y="-425" font-family="Arial" font-size="14.00" fill="#666666">[uuid]</text>
<polygon fill="none" stroke="black" points="130.01,-382 130.01,-412.8 463.87,-412.8 463.87,-382 130.01,-382"/>
<text text-anchor="start" x="137.01" y="-394.2" font-family="Arial" font-size="14.00">email </text>
<text text-anchor="start" x="174.35" y="-394.2" font-family="Arial" font-size="14.00" fill="#666666">[text]</text>
<polygon fill="none" stroke="black" points="130.01,-351.2 130.01,-382 463.87,-382 463.87,-351.2 130.01,-351.2"/>
<text text-anchor="start" x="137.01" y="-363.4" font-family="Arial" font-size="14.00">username </text>
<text text-anchor="start" x="203.15" y="-363.4" font-family="Arial" font-size="14.00" fill="#666666">[text]</text>
<polygon fill="none" stroke="black" points="130.01,-320.4 130.01,-351.2 463.87,-351.2 463.87,-320.4 130.01,-320.4"/>
<text text-anchor="start" x="137.01" y="-332.6" font-family="Arial" font-size="14.00">display_name </text>
<text text-anchor="start" x="227.28" y="-332.6" font-family="Arial" font-size="14.00" fill="#666666">[text]</text>
<polygon fill="none" stroke="black" points="130.01,-289.6 130.01,-320.4 463.87,-320.4 463.87,-289.6 130.01,-289.6"/>
<text text-anchor="start" x="137.01" y="-301.8" font-family="Arial" font-size="14.00">avatar_url </text>
<text text-anchor="start" x="203.15" y="-301.8" font-family="Arial" font-size="14.00" fill="#666666">[text]</text>
<polygon fill="none" stroke="black" points="130.01,-258.8 130.01,-289.6 463.87,-289.6 463.87,-258.8 130.01,-258.8"/>
<text text-anchor="start" x="137.01" y="-271" font-family="Arial" font-size="14.00">bio </text>
<text text-anchor="start" x="159.58" y="-271" font-family="Arial" font-size="14.00" fill="#666666">[text]</text>
<polygon fill="none" stroke="black" points="130.01,-228 130.01,-258.8 463.87,-258.8 463.87,-228 130.01,-228"/>
<text text-anchor="start" x="137.01" y="-240.2" font-family="Arial" font-size="14.00">is_premium </text>
<text text-anchor="start" x="213.25" y="-240.2" font-family="Arial" font-size="14.00" fill="#666666">[boolean]</text>
<polygon fill="none" stroke="black" points="130.01,-197.2 130.01,-228 463.87,-228 463.87,-197.2 130.01,-197.2"/>
<text text-anchor="start" x="137.01" y="-209.4" font-family="Arial" font-size="14.00">premium_started_at </text>
<text text-anchor="start" x="265.4" y="-209.4" font-family="Arial" font-size="14.00" fill="#666666">[timestamp with time zone]</text>
<polygon fill="none" stroke="black" points="130.01,-166.4 130.01,-197.2 463.87,-197.2 463.87,-166.4 130.01,-166.4"/>
<text text-anchor="start" x="137.01" y="-178.6" font-family="Arial" font-size="14.00">premium_expires_at </text>
<text text-anchor="start" x="267.73" y="-178.6" font-family="Arial" font-size="14.00" fill="#666666">[timestamp with time zone]</text>
<polygon fill="none" stroke="black" points="130.01,-135.6 130.01,-166.4 463.87,-166.4 463.87,-135.6 130.01,-135.6"/>
<text text-anchor="start" x="137.01" y="-147.8" font-family="Arial" font-size="14.00">created_at </text>
<text text-anchor="start" x="207.06" y="-147.8" font-family="Arial" font-size="14.00" fill="#666666">[timestamp with time zone]</text>
<polygon fill="none" stroke="black" points="130.01,-104.8 130.01,-135.6 463.87,-135.6 463.87,-104.8 130.01,-104.8"/>
<text text-anchor="start" x="137.01" y="-117" font-family="Arial" font-size="14.00">updated_at </text>
<text text-anchor="start" x="210.97" y="-117" font-family="Arial" font-size="14.00" fill="#666666">[timestamp with time zone]</text>
<polygon fill="none" stroke="black" points="130.01,-74 130.01,-104.8 463.87,-104.8 463.87,-74 130.01,-74"/>
<text text-anchor="start" x="137.01" y="-86.2" font-family="Arial" font-size="14.00">push_token </text>
<text text-anchor="start" x="213.29" y="-86.2" font-family="Arial" font-size="14.00" fill="#666666">[text]</text>
<polygon fill="none" stroke="black" points="130.01,-43.2 130.01,-74 463.87,-74 463.87,-43.2 130.01,-43.2"/>
<text text-anchor="start" x="137.01" y="-55.4" font-family="Arial" font-size="14.00">push_token_updated_at </text>
<text text-anchor="start" x="291.15" y="-55.4" font-family="Arial" font-size="14.00" fill="#666666">[timestamp with time zone]</text>
</g>
<!-- public.comment_likes&#45;&gt;public.users -->
<g id="edge1" class="edge">
<title>public.comment_likes:user_id&#45;&gt;public.users:id</title>
<path fill="none" stroke="black" d="M337.8,-680.53C296.41,-670.94 318.59,-599.39 348.96,-558.4 380.82,-515.4 431.96,-565.36 463.87,-522.4 488.84,-488.79 506.74,-428.2 464.87,-428.2"/>
<polygon fill="black" stroke="black" points="337.68,-680.51 347.15,-686.04 342.99,-681.07 347.29,-681.53 347.29,-681.53 347.29,-681.53 342.99,-681.07 348.1,-677.09 337.68,-680.51"/>
<text text-anchor="start" x="7" y="-691.6" font-family="Arial" font-size="10.00">FOREIGN KEY (user_id) REFERENCES users(id) ON DELETE CASCADE</text>
</g>
<!-- public.comments -->
<g id="node3" class="node">
<title>public.comments</title>
<polygon fill="#efefef" stroke="none" points="567.96,-428.2 567.96,-463.8 829.92,-463.8 829.92,-428.2 567.96,-428.2"/>
<polygon fill="none" stroke="black" points="567.96,-428.2 567.96,-463.8 829.92,-463.8 829.92,-428.2 567.96,-428.2"/>
<text text-anchor="start" x="574.96" y="-441.6" font-family="Arial Bold" font-size="18.00">public.comments</text>
<text text-anchor="start" x="698.43" y="-441.6" font-family="Arial" font-size="14.00">    </text>
<text text-anchor="start" x="729.55" y="-441.6" font-family="Arial" font-size="14.00" fill="#666666">[BASE TABLE]</text>
<polygon fill="none" stroke="black" points="567.96,-397.4 567.96,-428.2 829.92,-428.2 829.92,-397.4 567.96,-397.4"/>
<text text-anchor="start" x="574.96" y="-409.6" font-family="Arial" font-size="14.00">id </text>
<text text-anchor="start" x="589.74" y="-409.6" font-family="Arial" font-size="14.00" fill="#666666">[uuid]</text>
<polygon fill="none" stroke="black" points="567.96,-366.6 567.96,-397.4 829.92,-397.4 829.92,-366.6 567.96,-366.6"/>
<text text-anchor="start" x="574.96" y="-378.8" font-family="Arial" font-size="14.00">user_id </text>
<text text-anchor="start" x="624.76" y="-378.8" font-family="Arial" font-size="14.00" fill="#666666">[uuid]</text>
<polygon fill="none" stroke="black" points="567.96,-335.8 567.96,-366.6 829.92,-366.6 829.92,-335.8 567.96,-335.8"/>
<text text-anchor="start" x="574.96" y="-348" font-family="Arial" font-size="14.00">map_id </text>
<text text-anchor="start" x="624.76" y="-348" font-family="Arial" font-size="14.00" fill="#666666">[uuid]</text>
<polygon fill="none" stroke="black" points="567.96,-305 567.96,-335.8 829.92,-335.8 829.92,-305 567.96,-305"/>
<text text-anchor="start" x="574.96" y="-317.2" font-family="Arial" font-size="14.00">user_spot_id </text>
<text text-anchor="start" x="659.01" y="-317.2" font-family="Arial" font-size="14.00" fill="#666666">[uuid]</text>
<polygon fill="none" stroke="black" points="567.96,-274.2 567.96,-305 829.92,-305 829.92,-274.2 567.96,-274.2"/>
<text text-anchor="start" x="574.96" y="-286.4" font-family="Arial" font-size="14.00">content </text>
<text text-anchor="start" x="624.77" y="-286.4" font-family="Arial" font-size="14.00" fill="#666666">[text]</text>
<polygon fill="none" stroke="black" points="567.96,-243.4 567.96,-274.2 829.92,-274.2 829.92,-243.4 567.96,-243.4"/>
<text text-anchor="start" x="574.96" y="-255.6" font-family="Arial" font-size="14.00">created_at </text>
<text text-anchor="start" x="645" y="-255.6" font-family="Arial" font-size="14.00" fill="#666666">[timestamp with time zone]</text>
<polygon fill="none" stroke="black" points="567.96,-212.6 567.96,-243.4 829.92,-243.4 829.92,-212.6 567.96,-212.6"/>
<text text-anchor="start" x="574.96" y="-224.8" font-family="Arial" font-size="14.00">updated_at </text>
<text text-anchor="start" x="648.91" y="-224.8" font-family="Arial" font-size="14.00" fill="#666666">[timestamp with time zone]</text>
<polygon fill="none" stroke="black" points="567.96,-181.8 567.96,-212.6 829.92,-212.6 829.92,-181.8 567.96,-181.8"/>
<text text-anchor="start" x="574.96" y="-194" font-family="Arial" font-size="14.00">parent_id </text>
<text text-anchor="start" x="637.22" y="-194" font-family="Arial" font-size="14.00" fill="#666666">[uuid]</text>
<polygon fill="none" stroke="black" points="567.96,-151 567.96,-181.8 829.92,-181.8 829.92,-151 567.96,-151"/>
<text text-anchor="start" x="574.96" y="-163.2" font-family="Arial" font-size="14.00">root_id </text>
<text text-anchor="start" x="621.65" y="-163.2" font-family="Arial" font-size="14.00" fill="#666666">[uuid]</text>
<polygon fill="none" stroke="black" points="567.96,-120.2 567.96,-151 829.92,-151 829.92,-120.2 567.96,-120.2"/>
<text text-anchor="start" x="574.96" y="-132.4" font-family="Arial" font-size="14.00">depth </text>
<text text-anchor="start" x="613.88" y="-132.4" font-family="Arial" font-size="14.00" fill="#666666">[integer]</text>
<polygon fill="none" stroke="black" points="567.96,-89.4 567.96,-120.2 829.92,-120.2 829.92,-89.4 567.96,-89.4"/>
<text text-anchor="start" x="574.96" y="-101.6" font-family="Arial" font-size="14.00">likes_count </text>
<text text-anchor="start" x="648.89" y="-101.6" font-family="Arial" font-size="14.00" fill="#666666">[integer]</text>
<polygon fill="none" stroke="black" points="567.96,-58.6 567.96,-89.4 829.92,-89.4 829.92,-58.6 567.96,-58.6"/>
<text text-anchor="start" x="574.96" y="-70.8" font-family="Arial" font-size="14.00">replies_count </text>
<text text-anchor="start" x="662.12" y="-70.8" font-family="Arial" font-size="14.00" fill="#666666">[integer]</text>
</g>
<!-- public.comment_likes&#45;&gt;public.comments -->
<g id="edge2" class="edge">
<title>public.comment_likes:comment_id&#45;&gt;public.comments:id</title>
<path fill="none" stroke="black" d="M658.2,-649.26C684.66,-639.98 664.76,-590.88 646.92,-558.4 626.76,-521.7 588.11,-543.7 567.96,-507 547.8,-470.3 525.09,-412.8 566.96,-412.8"/>
<polygon fill="black" stroke="black" points="658.14,-649.27 647.58,-646.3 652.86,-650.06 648.58,-650.7 648.58,-650.7 648.58,-650.7 652.86,-650.06 648.92,-655.2 658.14,-649.27"/>
<text text-anchor="start" x="654.92" y="-660.8" font-family="Arial" font-size="10.00">FOREIGN KEY (comment_id) REFERENCES comments(id) ON DELETE CASCADE</text>
</g>
</g>
</svg>
