<?xml version="1.0" encoding="UTF-8" standalone="no"?>
<!DOCTYPE svg PUBLIC "-//W3C//DTD SVG 1.1//EN"
 "http://www.w3.org/Graphics/SVG/1.1/DTD/svg11.dtd">
<!-- Generated by graphviz version 12.1.2 (20240928.0832)
 -->
<!-- Title: public.collections Pages: 1 -->
<svg width="765pt" height="1314pt"
 viewBox="0.00 0.00 764.54 1314.40" xmlns="http://www.w3.org/2000/svg" xmlns:xlink="http://www.w3.org/1999/xlink">
<g id="graph0" class="graph" transform="scale(1 1) rotate(0) translate(4 1310.4)">
<title>public.collections</title>
<polygon fill="white" stroke="none" points="-4,4 -4,-1310.4 760.54,-1310.4 760.54,4 -4,4"/>
<!-- public.collections -->
<g id="node1" class="node">
<title>public.collections</title>
<polygon fill="#efefef" stroke="none" points="77.15,-912.6 77.15,-948.2 343.11,-948.2 343.11,-912.6 77.15,-912.6"/>
<polygon fill="none" stroke="black" points="77.15,-912.6 77.15,-948.2 343.11,-948.2 343.11,-912.6 77.15,-912.6"/>
<text text-anchor="start" x="84.15" y="-926" font-family="Arial Bold" font-size="18.00">public.collections</text>
<text text-anchor="start" x="211.62" y="-926" font-family="Arial" font-size="14.00">    </text>
<text text-anchor="start" x="242.74" y="-926" font-family="Arial" font-size="14.00" fill="#666666">[BASE TABLE]</text>
<polygon fill="none" stroke="black" points="77.15,-881.8 77.15,-912.6 343.11,-912.6 343.11,-881.8 77.15,-881.8"/>
<text text-anchor="start" x="84.15" y="-894" font-family="Arial" font-size="14.00">id </text>
<text text-anchor="start" x="98.94" y="-894" font-family="Arial" font-size="14.00" fill="#666666">[uuid]</text>
<polygon fill="none" stroke="black" points="77.15,-851 77.15,-881.8 343.11,-881.8 343.11,-851 77.15,-851"/>
<text text-anchor="start" x="84.15" y="-863.2" font-family="Arial" font-size="14.00">user_id </text>
<text text-anchor="start" x="133.96" y="-863.2" font-family="Arial" font-size="14.00" fill="#666666">[uuid]</text>
<polygon fill="none" stroke="black" points="77.15,-820.2 77.15,-851 343.11,-851 343.11,-820.2 77.15,-820.2"/>
<text text-anchor="start" x="84.15" y="-832.4" font-family="Arial" font-size="14.00">name </text>
<text text-anchor="start" x="123.06" y="-832.4" font-family="Arial" font-size="14.00" fill="#666666">[text]</text>
<polygon fill="none" stroke="black" points="77.15,-789.4 77.15,-820.2 343.11,-820.2 343.11,-789.4 77.15,-789.4"/>
<text text-anchor="start" x="84.15" y="-801.6" font-family="Arial" font-size="14.00">description </text>
<text text-anchor="start" x="155.74" y="-801.6" font-family="Arial" font-size="14.00" fill="#666666">[text]</text>
<polygon fill="none" stroke="black" points="77.15,-758.6 77.15,-789.4 343.11,-789.4 343.11,-758.6 77.15,-758.6"/>
<text text-anchor="start" x="84.15" y="-770.8" font-family="Arial" font-size="14.00">thumbnail_url </text>
<text text-anchor="start" x="172.09" y="-770.8" font-family="Arial" font-size="14.00" fill="#666666">[text]</text>
<polygon fill="none" stroke="black" points="77.15,-727.8 77.15,-758.6 343.11,-758.6 343.11,-727.8 77.15,-727.8"/>
<text text-anchor="start" x="84.15" y="-740" font-family="Arial" font-size="14.00">is_public </text>
<text text-anchor="start" x="142.52" y="-740" font-family="Arial" font-size="14.00" fill="#666666">[boolean]</text>
<polygon fill="none" stroke="black" points="77.15,-697 77.15,-727.8 343.11,-727.8 343.11,-697 77.15,-697"/>
<text text-anchor="start" x="84.15" y="-709.2" font-family="Arial" font-size="14.00">maps_count </text>
<text text-anchor="start" x="164.31" y="-709.2" font-family="Arial" font-size="14.00" fill="#666666">[integer]</text>
<polygon fill="none" stroke="black" points="77.15,-666.2 77.15,-697 343.11,-697 343.11,-666.2 77.15,-666.2"/>
<text text-anchor="start" x="84.15" y="-678.4" font-family="Arial" font-size="14.00">order_index </text>
<text text-anchor="start" x="161.98" y="-678.4" font-family="Arial" font-size="14.00" fill="#666666">[integer]</text>
<polygon fill="none" stroke="black" points="77.15,-635.4 77.15,-666.2 343.11,-666.2 343.11,-635.4 77.15,-635.4"/>
<text text-anchor="start" x="84.15" y="-647.6" font-family="Arial" font-size="14.00">created_at </text>
<text text-anchor="start" x="154.2" y="-647.6" font-family="Arial" font-size="14.00" fill="#666666">[timestamp with time zone]</text>
<polygon fill="none" stroke="black" points="77.15,-604.6 77.15,-635.4 343.11,-635.4 343.11,-604.6 77.15,-604.6"/>
<text text-anchor="start" x="84.15" y="-616.8" font-family="Arial" font-size="14.00">updated_at </text>
<text text-anchor="start" x="158.11" y="-616.8" font-family="Arial" font-size="14.00" fill="#666666">[timestamp with time zone]</text>
<polygon fill="none" stroke="black" stroke-width="3" points="75.65,-603.1 75.65,-949.7 344.61,-949.7 344.61,-603.1 75.65,-603.1"/>
</g>
<!-- public.users -->
<g id="node3" class="node">
<title>public.users</title>
<polygon fill="#efefef" stroke="none" points="43.2,-443.6 43.2,-479.2 377.06,-479.2 377.06,-443.6 43.2,-443.6"/>
<polygon fill="none" stroke="black" points="43.2,-443.6 43.2,-479.2 377.06,-479.2 377.06,-443.6 43.2,-443.6"/>
<text text-anchor="start" x="104.64" y="-457" font-family="Arial Bold" font-size="18.00">public.users</text>
<text text-anchor="start" x="191.13" y="-457" font-family="Arial" font-size="14.00">    </text>
<text text-anchor="start" x="222.24" y="-457" font-family="Arial" font-size="14.00" fill="#666666">[BASE TABLE]</text>
<polygon fill="none" stroke="black" points="43.2,-412.8 43.2,-443.6 377.06,-443.6 377.06,-412.8 43.2,-412.8"/>
<text text-anchor="start" x="50.2" y="-425" font-family="Arial" font-size="14.00">id </text>
<text text-anchor="start" x="64.99" y="-425" font-family="Arial" font-size="14.00" fill="#666666">[uuid]</text>
<polygon fill="none" stroke="black" points="43.2,-382 43.2,-412.8 377.06,-412.8 377.06,-382 43.2,-382"/>
<text text-anchor="start" x="50.2" y="-394.2" font-family="Arial" font-size="14.00">email </text>
<text text-anchor="start" x="87.54" y="-394.2" font-family="Arial" font-size="14.00" fill="#666666">[text]</text>
<polygon fill="none" stroke="black" points="43.2,-351.2 43.2,-382 377.06,-382 377.06,-351.2 43.2,-351.2"/>
<text text-anchor="start" x="50.2" y="-363.4" font-family="Arial" font-size="14.00">username </text>
<text text-anchor="start" x="116.34" y="-363.4" font-family="Arial" font-size="14.00" fill="#666666">[text]</text>
<polygon fill="none" stroke="black" points="43.2,-320.4 43.2,-351.2 377.06,-351.2 377.06,-320.4 43.2,-320.4"/>
<text text-anchor="start" x="50.2" y="-332.6" font-family="Arial" font-size="14.00">display_name </text>
<text text-anchor="start" x="140.48" y="-332.6" font-family="Arial" font-size="14.00" fill="#666666">[text]</text>
<polygon fill="none" stroke="black" points="43.2,-289.6 43.2,-320.4 377.06,-320.4 377.06,-289.6 43.2,-289.6"/>
<text text-anchor="start" x="50.2" y="-301.8" font-family="Arial" font-size="14.00">avatar_url </text>
<text text-anchor="start" x="116.34" y="-301.8" font-family="Arial" font-size="14.00" fill="#666666">[text]</text>
<polygon fill="none" stroke="black" points="43.2,-258.8 43.2,-289.6 377.06,-289.6 377.06,-258.8 43.2,-258.8"/>
<text text-anchor="start" x="50.2" y="-271" font-family="Arial" font-size="14.00">bio </text>
<text text-anchor="start" x="72.77" y="-271" font-family="Arial" font-size="14.00" fill="#666666">[text]</text>
<polygon fill="none" stroke="black" points="43.2,-228 43.2,-258.8 377.06,-258.8 377.06,-228 43.2,-228"/>
<text text-anchor="start" x="50.2" y="-240.2" font-family="Arial" font-size="14.00">is_premium </text>
<text text-anchor="start" x="126.44" y="-240.2" font-family="Arial" font-size="14.00" fill="#666666">[boolean]</text>
<polygon fill="none" stroke="black" points="43.2,-197.2 43.2,-228 377.06,-228 377.06,-197.2 43.2,-197.2"/>
<text text-anchor="start" x="50.2" y="-209.4" font-family="Arial" font-size="14.00">premium_started_at </text>
<text text-anchor="start" x="178.59" y="-209.4" font-family="Arial" font-size="14.00" fill="#666666">[timestamp with time zone]</text>
<polygon fill="none" stroke="black" points="43.2,-166.4 43.2,-197.2 377.06,-197.2 377.06,-166.4 43.2,-166.4"/>
<text text-anchor="start" x="50.2" y="-178.6" font-family="Arial" font-size="14.00">premium_expires_at </text>
<text text-anchor="start" x="180.92" y="-178.6" font-family="Arial" font-size="14.00" fill="#666666">[timestamp with time zone]</text>
<polygon fill="none" stroke="black" points="43.2,-135.6 43.2,-166.4 377.06,-166.4 377.06,-135.6 43.2,-135.6"/>
<text text-anchor="start" x="50.2" y="-147.8" font-family="Arial" font-size="14.00">created_at </text>
<text text-anchor="start" x="120.25" y="-147.8" font-family="Arial" font-size="14.00" fill="#666666">[timestamp with time zone]</text>
<polygon fill="none" stroke="black" points="43.2,-104.8 43.2,-135.6 377.06,-135.6 377.06,-104.8 43.2,-104.8"/>
<text text-anchor="start" x="50.2" y="-117" font-family="Arial" font-size="14.00">updated_at </text>
<text text-anchor="start" x="124.16" y="-117" font-family="Arial" font-size="14.00" fill="#666666">[timestamp with time zone]</text>
<polygon fill="none" stroke="black" points="43.2,-74 43.2,-104.8 377.06,-104.8 377.06,-74 43.2,-74"/>
<text text-anchor="start" x="50.2" y="-86.2" font-family="Arial" font-size="14.00">push_token </text>
<text text-anchor="start" x="126.48" y="-86.2" font-family="Arial" font-size="14.00" fill="#666666">[text]</text>
<polygon fill="none" stroke="black" points="43.2,-43.2 43.2,-74 377.06,-74 377.06,-43.2 43.2,-43.2"/>
<text text-anchor="start" x="50.2" y="-55.4" font-family="Arial" font-size="14.00">push_token_updated_at </text>
<text text-anchor="start" x="204.34" y="-55.4" font-family="Arial" font-size="14.00" fill="#666666">[timestamp with time zone]</text>
</g>
<!-- public.collections&#45;&gt;public.users -->
<g id="edge2" class="edge">
<title>public.collections:user_id&#45;&gt;public.users:id</title>
<path fill="none" stroke="black" d="M354.17,-864.81C444,-836.13 472.3,-428.2 378.06,-428.2"/>
<polygon fill="black" stroke="black" points="354.32,-864.79 343.74,-861.9 349.05,-865.62 344.77,-866.3 344.77,-866.3 344.77,-866.3 349.05,-865.62 345.14,-870.79 354.32,-864.79"/>
<text text-anchor="start" x="351.11" y="-876.4" font-family="Arial" font-size="10.00">FOREIGN KEY (user_id) REFERENCES users(id) ON DELETE CASCADE</text>
</g>
<!-- public.collection_maps -->
<g id="node2" class="node">
<title>public.collection_maps</title>
<polygon fill="#efefef" stroke="none" points="57.16,-1227.6 57.16,-1263.2 363.1,-1263.2 363.1,-1227.6 57.16,-1227.6"/>
<polygon fill="none" stroke="black" points="57.16,-1227.6 57.16,-1263.2 363.1,-1263.2 363.1,-1227.6 57.16,-1227.6"/>
<text text-anchor="start" x="64.16" y="-1241" font-family="Arial Bold" font-size="18.00">public.collection_maps</text>
<text text-anchor="start" x="231.61" y="-1241" font-family="Arial" font-size="14.00">    </text>
<text text-anchor="start" x="262.73" y="-1241" font-family="Arial" font-size="14.00" fill="#666666">[BASE TABLE]</text>
<polygon fill="none" stroke="black" points="57.16,-1196.8 57.16,-1227.6 363.1,-1227.6 363.1,-1196.8 57.16,-1196.8"/>
<text text-anchor="start" x="64.16" y="-1209" font-family="Arial" font-size="14.00">id </text>
<text text-anchor="start" x="78.94" y="-1209" font-family="Arial" font-size="14.00" fill="#666666">[uuid]</text>
<polygon fill="none" stroke="black" points="57.16,-1166 57.16,-1196.8 363.1,-1196.8 363.1,-1166 57.16,-1166"/>
<text text-anchor="start" x="64.16" y="-1178.2" font-family="Arial" font-size="14.00">collection_id </text>
<text text-anchor="start" x="145.09" y="-1178.2" font-family="Arial" font-size="14.00" fill="#666666">[uuid]</text>
<polygon fill="none" stroke="black" points="57.16,-1135.2 57.16,-1166 363.1,-1166 363.1,-1135.2 57.16,-1135.2"/>
<text text-anchor="start" x="64.16" y="-1147.4" font-family="Arial" font-size="14.00">map_id </text>
<text text-anchor="start" x="113.96" y="-1147.4" font-family="Arial" font-size="14.00" fill="#666666">[uuid]</text>
<polygon fill="none" stroke="black" points="57.16,-1104.4 57.16,-1135.2 363.1,-1135.2 363.1,-1104.4 57.16,-1104.4"/>
<text text-anchor="start" x="64.16" y="-1116.6" font-family="Arial" font-size="14.00">order_index </text>
<text text-anchor="start" x="141.98" y="-1116.6" font-family="Arial" font-size="14.00" fill="#666666">[integer]</text>
<polygon fill="none" stroke="black" points="57.16,-1073.6 57.16,-1104.4 363.1,-1104.4 363.1,-1073.6 57.16,-1073.6"/>
<text text-anchor="start" x="64.16" y="-1085.8" font-family="Arial" font-size="14.00">created_at </text>
<text text-anchor="start" x="134.2" y="-1085.8" font-family="Arial" font-size="14.00" fill="#666666">[timestamp with time zone]</text>
</g>
<!-- public.collection_maps&#45;&gt;public.collections -->
<g id="edge1" class="edge">
<title>public.collection_maps:collection_id&#45;&gt;public.collections:id</title>
<path fill="none" stroke="black" d="M374.51,-1180.73C489.51,-1165.53 467.15,-897.2 344.11,-897.2"/>
<polygon fill="black" stroke="black" points="374.42,-1180.74 364.15,-1176.89 369.09,-1181.08 364.77,-1181.36 364.77,-1181.36 364.77,-1181.36 369.09,-1181.08 364.73,-1185.87 374.42,-1180.74"/>
<text text-anchor="start" x="371.1" y="-1191.4" font-family="Arial" font-size="10.00">FOREIGN KEY (collection_id) REFERENCES collections(id) ON DELETE CASCADE</text>
</g>
</g>
</svg>
