<?xml version="1.0" encoding="UTF-8" standalone="no"?>
<!DOCTYPE svg PUBLIC "-//W3C//DTD SVG 1.1//EN"
 "http://www.w3.org/Graphics/SVG/1.1/DTD/svg11.dtd">
<!-- Generated by graphviz version 12.1.2 (20240928.0832)
 -->
<!-- Title: public.category_featured_maps Pages: 1 -->
<svg width="1111pt" height="1064pt"
 viewBox="0.00 0.00 1111.40 1064.00" xmlns="http://www.w3.org/2000/svg" xmlns:xlink="http://www.w3.org/1999/xlink">
<g id="graph0" class="graph" transform="scale(1 1) rotate(0) translate(4 1060)">
<title>public.category_featured_maps</title>
<polygon fill="white" stroke="none" points="-4,4 -4,-1060 1107.4,-1060 1107.4,4 -4,4"/>
<!-- public.category_featured_maps -->
<g id="node1" class="node">
<title>public.category_featured_maps</title>
<polygon fill="#efefef" stroke="none" points="389.55,-974.2 389.55,-1009.8 754.44,-1009.8 754.44,-974.2 389.55,-974.2"/>
<polygon fill="none" stroke="black" points="389.55,-974.2 389.55,-1009.8 754.44,-1009.8 754.44,-974.2 389.55,-974.2"/>
<text text-anchor="start" x="396.55" y="-987.6" font-family="Arial Bold" font-size="18.00">public.category_featured_maps</text>
<text text-anchor="start" x="622.95" y="-987.6" font-family="Arial" font-size="14.00">    </text>
<text text-anchor="start" x="654.07" y="-987.6" font-family="Arial" font-size="14.00" fill="#666666">[BASE TABLE]</text>
<polygon fill="none" stroke="black" points="389.55,-943.4 389.55,-974.2 754.44,-974.2 754.44,-943.4 389.55,-943.4"/>
<text text-anchor="start" x="396.55" y="-955.6" font-family="Arial" font-size="14.00">id </text>
<text text-anchor="start" x="411.33" y="-955.6" font-family="Arial" font-size="14.00" fill="#666666">[uuid]</text>
<polygon fill="none" stroke="black" points="389.55,-912.6 389.55,-943.4 754.44,-943.4 754.44,-912.6 389.55,-912.6"/>
<text text-anchor="start" x="396.55" y="-924.8" font-family="Arial" font-size="14.00">category_id </text>
<text text-anchor="start" x="472.81" y="-924.8" font-family="Arial" font-size="14.00" fill="#666666">[text]</text>
<polygon fill="none" stroke="black" points="389.55,-881.8 389.55,-912.6 754.44,-912.6 754.44,-881.8 389.55,-881.8"/>
<text text-anchor="start" x="396.55" y="-894" font-family="Arial" font-size="14.00">map_id </text>
<text text-anchor="start" x="446.35" y="-894" font-family="Arial" font-size="14.00" fill="#666666">[uuid]</text>
<polygon fill="none" stroke="black" points="389.55,-851 389.55,-881.8 754.44,-881.8 754.44,-851 389.55,-851"/>
<text text-anchor="start" x="396.55" y="-863.2" font-family="Arial" font-size="14.00">display_order </text>
<text text-anchor="start" x="484.48" y="-863.2" font-family="Arial" font-size="14.00" fill="#666666">[integer]</text>
<polygon fill="none" stroke="black" points="389.55,-820.2 389.55,-851 754.44,-851 754.44,-820.2 389.55,-820.2"/>
<text text-anchor="start" x="396.55" y="-832.4" font-family="Arial" font-size="14.00">is_active </text>
<text text-anchor="start" x="454.9" y="-832.4" font-family="Arial" font-size="14.00" fill="#666666">[boolean]</text>
<polygon fill="none" stroke="black" points="389.55,-789.4 389.55,-820.2 754.44,-820.2 754.44,-789.4 389.55,-789.4"/>
<text text-anchor="start" x="396.55" y="-801.6" font-family="Arial" font-size="14.00">created_at </text>
<text text-anchor="start" x="466.59" y="-801.6" font-family="Arial" font-size="14.00" fill="#666666">[timestamp with time zone]</text>
<polygon fill="none" stroke="black" points="389.55,-758.6 389.55,-789.4 754.44,-789.4 754.44,-758.6 389.55,-758.6"/>
<text text-anchor="start" x="396.55" y="-770.8" font-family="Arial" font-size="14.00">updated_at </text>
<text text-anchor="start" x="470.5" y="-770.8" font-family="Arial" font-size="14.00" fill="#666666">[timestamp with time zone]</text>
<polygon fill="none" stroke="black" stroke-width="3" points="388.05,-757.1 388.05,-1011.3 755.94,-1011.3 755.94,-757.1 388.05,-757.1"/>
</g>
<!-- public.categories -->
<g id="node2" class="node">
<title>public.categories</title>
<polygon fill="#efefef" stroke="none" points="260.52,-443.6 260.52,-479.2 521.46,-479.2 521.46,-443.6 260.52,-443.6"/>
<polygon fill="none" stroke="black" points="260.52,-443.6 260.52,-479.2 521.46,-479.2 521.46,-443.6 260.52,-443.6"/>
<text text-anchor="start" x="267.52" y="-457" font-family="Arial Bold" font-size="18.00">public.categories</text>
<text text-anchor="start" x="389.97" y="-457" font-family="Arial" font-size="14.00">    </text>
<text text-anchor="start" x="421.09" y="-457" font-family="Arial" font-size="14.00" fill="#666666">[BASE TABLE]</text>
<polygon fill="none" stroke="black" points="260.52,-412.8 260.52,-443.6 521.46,-443.6 521.46,-412.8 260.52,-412.8"/>
<text text-anchor="start" x="267.52" y="-425" font-family="Arial" font-size="14.00">id </text>
<text text-anchor="start" x="282.31" y="-425" font-family="Arial" font-size="14.00" fill="#666666">[text]</text>
<polygon fill="none" stroke="black" points="260.52,-382 260.52,-412.8 521.46,-412.8 521.46,-382 260.52,-382"/>
<text text-anchor="start" x="267.52" y="-394.2" font-family="Arial" font-size="14.00">slug </text>
<text text-anchor="start" x="297.1" y="-394.2" font-family="Arial" font-size="14.00" fill="#666666">[text]</text>
<polygon fill="none" stroke="black" points="260.52,-351.2 260.52,-382 521.46,-382 521.46,-351.2 260.52,-351.2"/>
<text text-anchor="start" x="267.52" y="-363.4" font-family="Arial" font-size="14.00">name </text>
<text text-anchor="start" x="306.43" y="-363.4" font-family="Arial" font-size="14.00" fill="#666666">[text]</text>
<polygon fill="none" stroke="black" points="260.52,-320.4 260.52,-351.2 521.46,-351.2 521.46,-320.4 260.52,-320.4"/>
<text text-anchor="start" x="267.52" y="-332.6" font-family="Arial" font-size="14.00">name_translations </text>
<text text-anchor="start" x="385.81" y="-332.6" font-family="Arial" font-size="14.00" fill="#666666">[jsonb]</text>
<polygon fill="none" stroke="black" points="260.52,-289.6 260.52,-320.4 521.46,-320.4 521.46,-289.6 260.52,-289.6"/>
<text text-anchor="start" x="267.52" y="-301.8" font-family="Arial" font-size="14.00">display_order </text>
<text text-anchor="start" x="355.46" y="-301.8" font-family="Arial" font-size="14.00" fill="#666666">[integer]</text>
<polygon fill="none" stroke="black" points="260.52,-258.8 260.52,-289.6 521.46,-289.6 521.46,-258.8 260.52,-258.8"/>
<text text-anchor="start" x="267.52" y="-271" font-family="Arial" font-size="14.00">is_active </text>
<text text-anchor="start" x="325.88" y="-271" font-family="Arial" font-size="14.00" fill="#666666">[boolean]</text>
<polygon fill="none" stroke="black" points="260.52,-228 260.52,-258.8 521.46,-258.8 521.46,-228 260.52,-228"/>
<text text-anchor="start" x="267.52" y="-240.2" font-family="Arial" font-size="14.00">created_at </text>
<text text-anchor="start" x="337.57" y="-240.2" font-family="Arial" font-size="14.00" fill="#666666">[timestamp with time zone]</text>
<polygon fill="none" stroke="black" points="260.52,-197.2 260.52,-228 521.46,-228 521.46,-197.2 260.52,-197.2"/>
<text text-anchor="start" x="267.52" y="-209.4" font-family="Arial" font-size="14.00">updated_at </text>
<text text-anchor="start" x="341.48" y="-209.4" font-family="Arial" font-size="14.00" fill="#666666">[timestamp with time zone]</text>
</g>
<!-- public.category_featured_maps&#45;&gt;public.categories -->
<g id="edge1" class="edge">
<title>public.category_featured_maps:category_id&#45;&gt;public.categories:id</title>
<path fill="none" stroke="black" d="M378.54,-927.49C297.71,-918.83 361.77,-800.39 389.55,-712.4 431.52,-579.43 661.91,-428.2 522.46,-428.2"/>
<polygon fill="black" stroke="black" points="378.22,-927.48 387.98,-932.48 383.55,-927.75 387.88,-927.97 387.88,-927.97 387.88,-927.97 383.55,-927.75 388.44,-923.49 378.22,-927.48"/>
<text text-anchor="start" x="7" y="-938" font-family="Arial" font-size="10.00">FOREIGN KEY (category_id) REFERENCES categories(id) ON DELETE CASCADE</text>
</g>
<!-- public.maps -->
<g id="node3" class="node">
<title>public.maps</title>
<polygon fill="#efefef" stroke="none" points="626.15,-597.6 626.15,-633.2 879.83,-633.2 879.83,-597.6 626.15,-597.6"/>
<polygon fill="none" stroke="black" points="626.15,-597.6 626.15,-633.2 879.83,-633.2 879.83,-597.6 626.15,-597.6"/>
<text text-anchor="start" x="647.01" y="-611" font-family="Arial Bold" font-size="18.00">public.maps</text>
<text text-anchor="start" x="734.49" y="-611" font-family="Arial" font-size="14.00">    </text>
<text text-anchor="start" x="765.61" y="-611" font-family="Arial" font-size="14.00" fill="#666666">[BASE TABLE]</text>
<polygon fill="none" stroke="black" points="626.15,-566.8 626.15,-597.6 879.83,-597.6 879.83,-566.8 626.15,-566.8"/>
<text text-anchor="start" x="633.15" y="-579" font-family="Arial" font-size="14.00">id </text>
<text text-anchor="start" x="647.94" y="-579" font-family="Arial" font-size="14.00" fill="#666666">[uuid]</text>
<polygon fill="none" stroke="black" points="626.15,-536 626.15,-566.8 879.83,-566.8 879.83,-536 626.15,-536"/>
<text text-anchor="start" x="633.15" y="-548.2" font-family="Arial" font-size="14.00">user_id </text>
<text text-anchor="start" x="682.96" y="-548.2" font-family="Arial" font-size="14.00" fill="#666666">[uuid]</text>
<polygon fill="none" stroke="black" points="626.15,-505.2 626.15,-536 879.83,-536 879.83,-505.2 626.15,-505.2"/>
<text text-anchor="start" x="633.15" y="-517.4" font-family="Arial" font-size="14.00">name </text>
<text text-anchor="start" x="672.06" y="-517.4" font-family="Arial" font-size="14.00" fill="#666666">[text]</text>
<polygon fill="none" stroke="black" points="626.15,-474.4 626.15,-505.2 879.83,-505.2 879.83,-474.4 626.15,-474.4"/>
<text text-anchor="start" x="633.15" y="-486.6" font-family="Arial" font-size="14.00">description </text>
<text text-anchor="start" x="704.75" y="-486.6" font-family="Arial" font-size="14.00" fill="#666666">[text]</text>
<polygon fill="none" stroke="black" points="626.15,-443.6 626.15,-474.4 879.83,-474.4 879.83,-443.6 626.15,-443.6"/>
<text text-anchor="start" x="633.15" y="-455.8" font-family="Arial" font-size="14.00">is_public </text>
<text text-anchor="start" x="691.52" y="-455.8" font-family="Arial" font-size="14.00" fill="#666666">[boolean]</text>
<polygon fill="none" stroke="black" points="626.15,-412.8 626.15,-443.6 879.83,-443.6 879.83,-412.8 626.15,-412.8"/>
<text text-anchor="start" x="633.15" y="-425" font-family="Arial" font-size="14.00">is_official </text>
<text text-anchor="start" x="694.62" y="-425" font-family="Arial" font-size="14.00" fill="#666666">[boolean]</text>
<polygon fill="none" stroke="black" points="626.15,-382 626.15,-412.8 879.83,-412.8 879.83,-382 626.15,-382"/>
<text text-anchor="start" x="633.15" y="-394.2" font-family="Arial" font-size="14.00">thumbnail_url </text>
<text text-anchor="start" x="721.09" y="-394.2" font-family="Arial" font-size="14.00" fill="#666666">[text]</text>
<polygon fill="none" stroke="black" points="626.15,-351.2 626.15,-382 879.83,-382 879.83,-351.2 626.15,-351.2"/>
<text text-anchor="start" x="633.15" y="-363.4" font-family="Arial" font-size="14.00">spots_count </text>
<text text-anchor="start" x="712.54" y="-363.4" font-family="Arial" font-size="14.00" fill="#666666">[integer]</text>
<polygon fill="none" stroke="black" points="626.15,-320.4 626.15,-351.2 879.83,-351.2 879.83,-320.4 626.15,-320.4"/>
<text text-anchor="start" x="633.15" y="-332.6" font-family="Arial" font-size="14.00">likes_count </text>
<text text-anchor="start" x="707.08" y="-332.6" font-family="Arial" font-size="14.00" fill="#666666">[integer]</text>
<polygon fill="none" stroke="black" points="626.15,-289.6 626.15,-320.4 879.83,-320.4 879.83,-289.6 626.15,-289.6"/>
<text text-anchor="start" x="633.15" y="-301.8" font-family="Arial" font-size="14.00">created_at </text>
<text text-anchor="start" x="703.2" y="-301.8" font-family="Arial" font-size="14.00" fill="#666666">[timestamp with time zone]</text>
<polygon fill="none" stroke="black" points="626.15,-258.8 626.15,-289.6 879.83,-289.6 879.83,-258.8 626.15,-258.8"/>
<text text-anchor="start" x="633.15" y="-271" font-family="Arial" font-size="14.00">updated_at </text>
<text text-anchor="start" x="707.11" y="-271" font-family="Arial" font-size="14.00" fill="#666666">[timestamp with time zone]</text>
<polygon fill="none" stroke="black" points="626.15,-228 626.15,-258.8 879.83,-258.8 879.83,-228 626.15,-228"/>
<text text-anchor="start" x="633.15" y="-240.2" font-family="Arial" font-size="14.00">comments_count </text>
<text text-anchor="start" x="743.65" y="-240.2" font-family="Arial" font-size="14.00" fill="#666666">[integer]</text>
<polygon fill="none" stroke="black" points="626.15,-197.2 626.15,-228 879.83,-228 879.83,-197.2 626.15,-197.2"/>
<text text-anchor="start" x="633.15" y="-209.4" font-family="Arial" font-size="14.00">is_article_public </text>
<text text-anchor="start" x="736.65" y="-209.4" font-family="Arial" font-size="14.00" fill="#666666">[boolean]</text>
<polygon fill="none" stroke="black" points="626.15,-166.4 626.15,-197.2 879.83,-197.2 879.83,-166.4 626.15,-166.4"/>
<text text-anchor="start" x="633.15" y="-178.6" font-family="Arial" font-size="14.00">bookmarks_count </text>
<text text-anchor="start" x="747.55" y="-178.6" font-family="Arial" font-size="14.00" fill="#666666">[integer]</text>
<polygon fill="none" stroke="black" points="626.15,-135.6 626.15,-166.4 879.83,-166.4 879.83,-135.6 626.15,-135.6"/>
<text text-anchor="start" x="633.15" y="-147.8" font-family="Arial" font-size="14.00">category_id </text>
<text text-anchor="start" x="709.42" y="-147.8" font-family="Arial" font-size="14.00" fill="#666666">[text]</text>
<polygon fill="none" stroke="black" points="626.15,-104.8 626.15,-135.6 879.83,-135.6 879.83,-104.8 626.15,-104.8"/>
<text text-anchor="start" x="633.15" y="-117" font-family="Arial" font-size="14.00">article_intro </text>
<text text-anchor="start" x="709.41" y="-117" font-family="Arial" font-size="14.00" fill="#666666">[jsonb]</text>
<polygon fill="none" stroke="black" points="626.15,-74 626.15,-104.8 879.83,-104.8 879.83,-74 626.15,-74"/>
<text text-anchor="start" x="633.15" y="-86.2" font-family="Arial" font-size="14.00">article_outro </text>
<text text-anchor="start" x="714.08" y="-86.2" font-family="Arial" font-size="14.00" fill="#666666">[jsonb]</text>
<polygon fill="none" stroke="black" points="626.15,-43.2 626.15,-74 879.83,-74 879.83,-43.2 626.15,-43.2"/>
<text text-anchor="start" x="633.15" y="-55.4" font-family="Arial" font-size="14.00">show_label_chips </text>
<text text-anchor="start" x="747.56" y="-55.4" font-family="Arial" font-size="14.00" fill="#666666">[boolean]</text>
</g>
<!-- public.category_featured_maps&#45;&gt;public.maps -->
<g id="edge2" class="edge">
<title>public.category_featured_maps:map_id&#45;&gt;public.maps:id</title>
<path fill="none" stroke="black" d="M765.82,-896.49C834.55,-886.57 802,-774.79 754.44,-712.4 718.54,-665.3 662.18,-723.4 626.15,-676.4 600.68,-643.17 583.28,-582.2 625.15,-582.2"/>
<polygon fill="black" stroke="black" points="765.75,-896.5 755.47,-892.69 760.43,-896.86 756.11,-897.15 756.11,-897.15 756.11,-897.15 760.43,-896.86 756.08,-901.67 765.75,-896.5"/>
<text text-anchor="start" x="762.44" y="-907.2" font-family="Arial" font-size="10.00">FOREIGN KEY (map_id) REFERENCES maps(id) ON DELETE CASCADE</text>
</g>
</g>
</svg>
