<?xml version="1.0" encoding="UTF-8" standalone="no"?>
<!DOCTYPE svg PUBLIC "-//W3C//DTD SVG 1.1//EN"
 "http://www.w3.org/Graphics/SVG/1.1/DTD/svg11.dtd">
<!-- Generated by graphviz version 12.1.2 (20240928.0832)
 -->
<!-- Title: public.master_spots Pages: 1 -->
<svg width="887pt" height="2300pt"
 viewBox="0.00 0.00 887.03 2300.00" xmlns="http://www.w3.org/2000/svg" xmlns:xlink="http://www.w3.org/1999/xlink">
<g id="graph0" class="graph" transform="scale(1 1) rotate(0) translate(4 2296)">
<title>public.master_spots</title>
<polygon fill="white" stroke="none" points="-4,4 -4,-2296 883.03,-2296 883.03,4 -4,4"/>
<!-- public.master_spots -->
<g id="node1" class="node">
<title>public.master_spots</title>
<polygon fill="#efefef" stroke="none" points="239.2,-1220.6 239.2,-1256.2 521.18,-1256.2 521.18,-1220.6 239.2,-1220.6"/>
<polygon fill="none" stroke="black" points="239.2,-1220.6 239.2,-1256.2 521.18,-1256.2 521.18,-1220.6 239.2,-1220.6"/>
<text text-anchor="start" x="246.2" y="-1234" font-family="Arial Bold" font-size="18.00">public.master_spots</text>
<text text-anchor="start" x="389.69" y="-1234" font-family="Arial" font-size="14.00">    </text>
<text text-anchor="start" x="420.8" y="-1234" font-family="Arial" font-size="14.00" fill="#666666">[BASE TABLE]</text>
<polygon fill="none" stroke="black" points="239.2,-1189.8 239.2,-1220.6 521.18,-1220.6 521.18,-1189.8 239.2,-1189.8"/>
<text text-anchor="start" x="246.2" y="-1202" font-family="Arial" font-size="14.00">id </text>
<text text-anchor="start" x="260.99" y="-1202" font-family="Arial" font-size="14.00" fill="#666666">[uuid]</text>
<polygon fill="none" stroke="black" points="239.2,-1159 239.2,-1189.8 521.18,-1189.8 521.18,-1159 239.2,-1159"/>
<text text-anchor="start" x="246.2" y="-1171.2" font-family="Arial" font-size="14.00">name </text>
<text text-anchor="start" x="285.11" y="-1171.2" font-family="Arial" font-size="14.00" fill="#666666">[text]</text>
<polygon fill="none" stroke="black" points="239.2,-1128.2 239.2,-1159 521.18,-1159 521.18,-1128.2 239.2,-1128.2"/>
<text text-anchor="start" x="246.2" y="-1140.4" font-family="Arial" font-size="14.00">latitude </text>
<text text-anchor="start" x="295.24" y="-1140.4" font-family="Arial" font-size="14.00" fill="#666666">[double precision]</text>
<polygon fill="none" stroke="black" points="239.2,-1097.4 239.2,-1128.2 521.18,-1128.2 521.18,-1097.4 239.2,-1097.4"/>
<text text-anchor="start" x="246.2" y="-1109.6" font-family="Arial" font-size="14.00">longitude </text>
<text text-anchor="start" x="306.92" y="-1109.6" font-family="Arial" font-size="14.00" fill="#666666">[double precision]</text>
<polygon fill="none" stroke="black" points="239.2,-1066.6 239.2,-1097.4 521.18,-1097.4 521.18,-1066.6 239.2,-1066.6"/>
<text text-anchor="start" x="246.2" y="-1078.8" font-family="Arial" font-size="14.00">google_place_id </text>
<text text-anchor="start" x="352.07" y="-1078.8" font-family="Arial" font-size="14.00" fill="#666666">[text]</text>
<polygon fill="none" stroke="black" points="239.2,-1035.8 239.2,-1066.6 521.18,-1066.6 521.18,-1035.8 239.2,-1035.8"/>
<text text-anchor="start" x="246.2" y="-1048" font-family="Arial" font-size="14.00">google_formatted_address </text>
<text text-anchor="start" x="416.65" y="-1048" font-family="Arial" font-size="14.00" fill="#666666">[text]</text>
<polygon fill="none" stroke="black" points="239.2,-1005 239.2,-1035.8 521.18,-1035.8 521.18,-1005 239.2,-1005"/>
<text text-anchor="start" x="246.2" y="-1017.2" font-family="Arial" font-size="14.00">google_types </text>
<text text-anchor="start" x="333.38" y="-1017.2" font-family="Arial" font-size="14.00" fill="#666666">[text[]]</text>
<polygon fill="none" stroke="black" points="239.2,-974.2 239.2,-1005 521.18,-1005 521.18,-974.2 239.2,-974.2"/>
<text text-anchor="start" x="246.2" y="-986.4" font-family="Arial" font-size="14.00">google_phone_number </text>
<text text-anchor="start" x="394.11" y="-986.4" font-family="Arial" font-size="14.00" fill="#666666">[text]</text>
<polygon fill="none" stroke="black" points="239.2,-943.4 239.2,-974.2 521.18,-974.2 521.18,-943.4 239.2,-943.4"/>
<text text-anchor="start" x="246.2" y="-955.6" font-family="Arial" font-size="14.00">google_website_uri </text>
<text text-anchor="start" x="370.73" y="-955.6" font-family="Arial" font-size="14.00" fill="#666666">[text]</text>
<polygon fill="none" stroke="black" points="239.2,-912.6 239.2,-943.4 521.18,-943.4 521.18,-912.6 239.2,-912.6"/>
<text text-anchor="start" x="246.2" y="-924.8" font-family="Arial" font-size="14.00">google_rating </text>
<text text-anchor="start" x="334.94" y="-924.8" font-family="Arial" font-size="14.00" fill="#666666">[double precision]</text>
<polygon fill="none" stroke="black" points="239.2,-881.8 239.2,-912.6 521.18,-912.6 521.18,-881.8 239.2,-881.8"/>
<text text-anchor="start" x="246.2" y="-894" font-family="Arial" font-size="14.00">google_user_rating_count </text>
<text text-anchor="start" x="412" y="-894" font-family="Arial" font-size="14.00" fill="#666666">[integer]</text>
<polygon fill="none" stroke="black" points="239.2,-851 239.2,-881.8 521.18,-881.8 521.18,-851 239.2,-851"/>
<text text-anchor="start" x="246.2" y="-863.2" font-family="Arial" font-size="14.00">created_at </text>
<text text-anchor="start" x="316.25" y="-863.2" font-family="Arial" font-size="14.00" fill="#666666">[timestamp with time zone]</text>
<polygon fill="none" stroke="black" points="239.2,-820.2 239.2,-851 521.18,-851 521.18,-820.2 239.2,-820.2"/>
<text text-anchor="start" x="246.2" y="-832.4" font-family="Arial" font-size="14.00">updated_at </text>
<text text-anchor="start" x="320.16" y="-832.4" font-family="Arial" font-size="14.00" fill="#666666">[timestamp with time zone]</text>
<polygon fill="none" stroke="black" points="239.2,-789.4 239.2,-820.2 521.18,-820.2 521.18,-789.4 239.2,-789.4"/>
<text text-anchor="start" x="246.2" y="-801.6" font-family="Arial" font-size="14.00">machi_id </text>
<text text-anchor="start" x="306.12" y="-801.6" font-family="Arial" font-size="14.00" fill="#666666">[text]</text>
<polygon fill="none" stroke="black" points="239.2,-758.6 239.2,-789.4 521.18,-789.4 521.18,-758.6 239.2,-758.6"/>
<text text-anchor="start" x="246.2" y="-770.8" font-family="Arial" font-size="14.00">google_short_address </text>
<text text-anchor="start" x="388.64" y="-770.8" font-family="Arial" font-size="14.00" fill="#666666">[text]</text>
<polygon fill="none" stroke="black" points="239.2,-727.8 239.2,-758.6 521.18,-758.6 521.18,-727.8 239.2,-727.8"/>
<text text-anchor="start" x="246.2" y="-740" font-family="Arial" font-size="14.00">favorites_count </text>
<text text-anchor="start" x="345.04" y="-740" font-family="Arial" font-size="14.00" fill="#666666">[integer]</text>
<polygon fill="none" stroke="black" stroke-width="3" points="237.7,-726.3 237.7,-1257.7 522.68,-1257.7 522.68,-726.3 237.7,-726.3"/>
</g>
<!-- public.machi -->
<g id="node4" class="node">
<title>public.machi</title>
<polygon fill="#efefef" stroke="none" points="253.35,-566.8 253.35,-602.4 507.03,-602.4 507.03,-566.8 253.35,-566.8"/>
<polygon fill="none" stroke="black" points="253.35,-566.8 253.35,-602.4 507.03,-602.4 507.03,-566.8 253.35,-566.8"/>
<text text-anchor="start" x="271.21" y="-580.2" font-family="Arial Bold" font-size="18.00">public.machi</text>
<text text-anchor="start" x="364.68" y="-580.2" font-family="Arial" font-size="14.00">    </text>
<text text-anchor="start" x="395.8" y="-580.2" font-family="Arial" font-size="14.00" fill="#666666">[BASE TABLE]</text>
<polygon fill="none" stroke="black" points="253.35,-536 253.35,-566.8 507.03,-566.8 507.03,-536 253.35,-536"/>
<text text-anchor="start" x="260.35" y="-548.2" font-family="Arial" font-size="14.00">id </text>
<text text-anchor="start" x="275.14" y="-548.2" font-family="Arial" font-size="14.00" fill="#666666">[text]</text>
<polygon fill="none" stroke="black" points="253.35,-505.2 253.35,-536 507.03,-536 507.03,-505.2 253.35,-505.2"/>
<text text-anchor="start" x="260.35" y="-517.4" font-family="Arial" font-size="14.00">name </text>
<text text-anchor="start" x="299.26" y="-517.4" font-family="Arial" font-size="14.00" fill="#666666">[text]</text>
<polygon fill="none" stroke="black" points="253.35,-474.4 253.35,-505.2 507.03,-505.2 507.03,-474.4 253.35,-474.4"/>
<text text-anchor="start" x="260.35" y="-486.6" font-family="Arial" font-size="14.00">latitude </text>
<text text-anchor="start" x="309.38" y="-486.6" font-family="Arial" font-size="14.00" fill="#666666">[double precision]</text>
<polygon fill="none" stroke="black" points="253.35,-443.6 253.35,-474.4 507.03,-474.4 507.03,-443.6 253.35,-443.6"/>
<text text-anchor="start" x="260.35" y="-455.8" font-family="Arial" font-size="14.00">longitude </text>
<text text-anchor="start" x="321.07" y="-455.8" font-family="Arial" font-size="14.00" fill="#666666">[double precision]</text>
<polygon fill="none" stroke="black" points="253.35,-412.8 253.35,-443.6 507.03,-443.6 507.03,-412.8 253.35,-412.8"/>
<text text-anchor="start" x="260.35" y="-425" font-family="Arial" font-size="14.00">prefecture_id </text>
<text text-anchor="start" x="345.96" y="-425" font-family="Arial" font-size="14.00" fill="#666666">[text]</text>
<polygon fill="none" stroke="black" points="253.35,-382 253.35,-412.8 507.03,-412.8 507.03,-382 253.35,-382"/>
<text text-anchor="start" x="260.35" y="-394.2" font-family="Arial" font-size="14.00">city_id </text>
<text text-anchor="start" x="303.92" y="-394.2" font-family="Arial" font-size="14.00" fill="#666666">[text]</text>
<polygon fill="none" stroke="black" points="253.35,-351.2 253.35,-382 507.03,-382 507.03,-351.2 253.35,-351.2"/>
<text text-anchor="start" x="260.35" y="-363.4" font-family="Arial" font-size="14.00">name_kana </text>
<text text-anchor="start" x="337.4" y="-363.4" font-family="Arial" font-size="14.00" fill="#666666">[text]</text>
<polygon fill="none" stroke="black" points="253.35,-320.4 253.35,-351.2 507.03,-351.2 507.03,-320.4 253.35,-320.4"/>
<text text-anchor="start" x="260.35" y="-332.6" font-family="Arial" font-size="14.00">name_translations </text>
<text text-anchor="start" x="378.64" y="-332.6" font-family="Arial" font-size="14.00" fill="#666666">[jsonb]</text>
<polygon fill="none" stroke="black" points="253.35,-289.6 253.35,-320.4 507.03,-320.4 507.03,-289.6 253.35,-289.6"/>
<text text-anchor="start" x="260.35" y="-301.8" font-family="Arial" font-size="14.00">prefecture_name </text>
<text text-anchor="start" x="370.08" y="-301.8" font-family="Arial" font-size="14.00" fill="#666666">[text]</text>
<polygon fill="none" stroke="black" points="253.35,-258.8 253.35,-289.6 507.03,-289.6 507.03,-258.8 253.35,-258.8"/>
<text text-anchor="start" x="260.35" y="-271" font-family="Arial" font-size="14.00">prefecture_name_translations </text>
<text text-anchor="start" x="449.46" y="-271" font-family="Arial" font-size="14.00" fill="#666666">[jsonb]</text>
<polygon fill="none" stroke="black" points="253.35,-228 253.35,-258.8 507.03,-258.8 507.03,-228 253.35,-228"/>
<text text-anchor="start" x="260.35" y="-240.2" font-family="Arial" font-size="14.00">city_name </text>
<text text-anchor="start" x="328.05" y="-240.2" font-family="Arial" font-size="14.00" fill="#666666">[text]</text>
<polygon fill="none" stroke="black" points="253.35,-197.2 253.35,-228 507.03,-228 507.03,-197.2 253.35,-197.2"/>
<text text-anchor="start" x="260.35" y="-209.4" font-family="Arial" font-size="14.00">city_name_translations </text>
<text text-anchor="start" x="407.42" y="-209.4" font-family="Arial" font-size="14.00" fill="#666666">[jsonb]</text>
<polygon fill="none" stroke="black" points="253.35,-166.4 253.35,-197.2 507.03,-197.2 507.03,-166.4 253.35,-166.4"/>
<text text-anchor="start" x="260.35" y="-178.6" font-family="Arial" font-size="14.00">created_at </text>
<text text-anchor="start" x="330.4" y="-178.6" font-family="Arial" font-size="14.00" fill="#666666">[timestamp with time zone]</text>
<polygon fill="none" stroke="black" points="253.35,-135.6 253.35,-166.4 507.03,-166.4 507.03,-135.6 253.35,-135.6"/>
<text text-anchor="start" x="260.35" y="-147.8" font-family="Arial" font-size="14.00">updated_at </text>
<text text-anchor="start" x="334.31" y="-147.8" font-family="Arial" font-size="14.00" fill="#666666">[timestamp with time zone]</text>
<polygon fill="none" stroke="black" points="253.35,-104.8 253.35,-135.6 507.03,-135.6 507.03,-104.8 253.35,-104.8"/>
<text text-anchor="start" x="260.35" y="-117" font-family="Arial" font-size="14.00">osm_id </text>
<text text-anchor="start" x="309.37" y="-117" font-family="Arial" font-size="14.00" fill="#666666">[bigint]</text>
<polygon fill="none" stroke="black" points="253.35,-74 253.35,-104.8 507.03,-104.8 507.03,-74 253.35,-74"/>
<text text-anchor="start" x="260.35" y="-86.2" font-family="Arial" font-size="14.00">place_type </text>
<text text-anchor="start" x="331.96" y="-86.2" font-family="Arial" font-size="14.00" fill="#666666">[text]</text>
<polygon fill="none" stroke="black" points="253.35,-43.2 253.35,-74 507.03,-74 507.03,-43.2 253.35,-43.2"/>
<text text-anchor="start" x="260.35" y="-55.4" font-family="Arial" font-size="14.00">tile_id </text>
<text text-anchor="start" x="300.82" y="-55.4" font-family="Arial" font-size="14.00" fill="#666666">[text]</text>
</g>
<!-- public.master_spots&#45;&gt;public.machi -->
<g id="edge3" class="edge">
<title>public.master_spots:machi_id&#45;&gt;public.machi:id</title>
<path fill="none" stroke="black" d="M532.38,-804.07C633.99,-789.21 617.3,-551.4 508.03,-551.4"/>
<polygon fill="black" stroke="black" points="532.48,-804.07 522.19,-800.29 527.16,-804.44 522.84,-804.75 522.84,-804.75 522.84,-804.75 527.16,-804.44 522.83,-809.26 532.48,-804.07"/>
<text text-anchor="start" x="529.18" y="-814.8" font-family="Arial" font-size="10.00">FOREIGN KEY (machi_id) REFERENCES machi(id) ON DELETE SET NULL</text>
</g>
<!-- public.user_spots -->
<g id="node2" class="node">
<title>public.user_spots</title>
<polygon fill="#efefef" stroke="none" points="43.2,-2213.2 43.2,-2248.8 307.18,-2248.8 307.18,-2213.2 43.2,-2213.2"/>
<polygon fill="none" stroke="black" points="43.2,-2213.2 43.2,-2248.8 307.18,-2248.8 307.18,-2213.2 43.2,-2213.2"/>
<text text-anchor="start" x="50.2" y="-2226.6" font-family="Arial Bold" font-size="18.00">public.user_spots</text>
<text text-anchor="start" x="175.69" y="-2226.6" font-family="Arial" font-size="14.00">    </text>
<text text-anchor="start" x="206.81" y="-2226.6" font-family="Arial" font-size="14.00" fill="#666666">[BASE TABLE]</text>
<polygon fill="none" stroke="black" points="43.2,-2182.4 43.2,-2213.2 307.18,-2213.2 307.18,-2182.4 43.2,-2182.4"/>
<text text-anchor="start" x="50.2" y="-2194.6" font-family="Arial" font-size="14.00">id </text>
<text text-anchor="start" x="64.99" y="-2194.6" font-family="Arial" font-size="14.00" fill="#666666">[uuid]</text>
<polygon fill="none" stroke="black" points="43.2,-2151.6 43.2,-2182.4 307.18,-2182.4 307.18,-2151.6 43.2,-2151.6"/>
<text text-anchor="start" x="50.2" y="-2163.8" font-family="Arial" font-size="14.00">user_id </text>
<text text-anchor="start" x="100.01" y="-2163.8" font-family="Arial" font-size="14.00" fill="#666666">[uuid]</text>
<polygon fill="none" stroke="black" points="43.2,-2120.8 43.2,-2151.6 307.18,-2151.6 307.18,-2120.8 43.2,-2120.8"/>
<text text-anchor="start" x="50.2" y="-2133" font-family="Arial" font-size="14.00">map_id </text>
<text text-anchor="start" x="100.01" y="-2133" font-family="Arial" font-size="14.00" fill="#666666">[uuid]</text>
<polygon fill="none" stroke="black" points="43.2,-2090 43.2,-2120.8 307.18,-2120.8 307.18,-2090 43.2,-2090"/>
<text text-anchor="start" x="50.2" y="-2102.2" font-family="Arial" font-size="14.00">master_spot_id </text>
<text text-anchor="start" x="149.81" y="-2102.2" font-family="Arial" font-size="14.00" fill="#666666">[uuid]</text>
<polygon fill="none" stroke="black" points="43.2,-2059.2 43.2,-2090 307.18,-2090 307.18,-2059.2 43.2,-2059.2"/>
<text text-anchor="start" x="50.2" y="-2071.4" font-family="Arial" font-size="14.00">machi_id </text>
<text text-anchor="start" x="110.12" y="-2071.4" font-family="Arial" font-size="14.00" fill="#666666">[text]</text>
<polygon fill="none" stroke="black" points="43.2,-2028.4 43.2,-2059.2 307.18,-2059.2 307.18,-2028.4 43.2,-2028.4"/>
<text text-anchor="start" x="50.2" y="-2040.6" font-family="Arial" font-size="14.00">custom_name </text>
<text text-anchor="start" x="142.02" y="-2040.6" font-family="Arial" font-size="14.00" fill="#666666">[text]</text>
<polygon fill="none" stroke="black" points="43.2,-1997.6 43.2,-2028.4 307.18,-2028.4 307.18,-1997.6 43.2,-1997.6"/>
<text text-anchor="start" x="50.2" y="-2009.8" font-family="Arial" font-size="14.00">description </text>
<text text-anchor="start" x="121.79" y="-2009.8" font-family="Arial" font-size="14.00" fill="#666666">[text]</text>
<polygon fill="none" stroke="black" points="43.2,-1966.8 43.2,-1997.6 307.18,-1997.6 307.18,-1966.8 43.2,-1966.8"/>
<text text-anchor="start" x="50.2" y="-1979" font-family="Arial" font-size="14.00">images_count </text>
<text text-anchor="start" x="141.25" y="-1979" font-family="Arial" font-size="14.00" fill="#666666">[integer]</text>
<polygon fill="none" stroke="black" points="43.2,-1936 43.2,-1966.8 307.18,-1966.8 307.18,-1936 43.2,-1936"/>
<text text-anchor="start" x="50.2" y="-1948.2" font-family="Arial" font-size="14.00">likes_count </text>
<text text-anchor="start" x="124.13" y="-1948.2" font-family="Arial" font-size="14.00" fill="#666666">[integer]</text>
<polygon fill="none" stroke="black" points="43.2,-1905.2 43.2,-1936 307.18,-1936 307.18,-1905.2 43.2,-1905.2"/>
<text text-anchor="start" x="50.2" y="-1917.4" font-family="Arial" font-size="14.00">comments_count </text>
<text text-anchor="start" x="160.7" y="-1917.4" font-family="Arial" font-size="14.00" fill="#666666">[integer]</text>
<polygon fill="none" stroke="black" points="43.2,-1874.4 43.2,-1905.2 307.18,-1905.2 307.18,-1874.4 43.2,-1874.4"/>
<text text-anchor="start" x="50.2" y="-1886.6" font-family="Arial" font-size="14.00">order_index </text>
<text text-anchor="start" x="128.03" y="-1886.6" font-family="Arial" font-size="14.00" fill="#666666">[integer]</text>
<polygon fill="none" stroke="black" points="43.2,-1843.6 43.2,-1874.4 307.18,-1874.4 307.18,-1843.6 43.2,-1843.6"/>
<text text-anchor="start" x="50.2" y="-1855.8" font-family="Arial" font-size="14.00">created_at </text>
<text text-anchor="start" x="120.25" y="-1855.8" font-family="Arial" font-size="14.00" fill="#666666">[timestamp with time zone]</text>
<polygon fill="none" stroke="black" points="43.2,-1812.8 43.2,-1843.6 307.18,-1843.6 307.18,-1812.8 43.2,-1812.8"/>
<text text-anchor="start" x="50.2" y="-1825" font-family="Arial" font-size="14.00">updated_at </text>
<text text-anchor="start" x="124.16" y="-1825" font-family="Arial" font-size="14.00" fill="#666666">[timestamp with time zone]</text>
<polygon fill="none" stroke="black" points="43.2,-1782 43.2,-1812.8 307.18,-1812.8 307.18,-1782 43.2,-1782"/>
<text text-anchor="start" x="50.2" y="-1794.2" font-family="Arial" font-size="14.00">article_content </text>
<text text-anchor="start" x="145.14" y="-1794.2" font-family="Arial" font-size="14.00" fill="#666666">[jsonb]</text>
<polygon fill="none" stroke="black" points="43.2,-1751.2 43.2,-1782 307.18,-1782 307.18,-1751.2 43.2,-1751.2"/>
<text text-anchor="start" x="50.2" y="-1763.4" font-family="Arial" font-size="14.00">latitude </text>
<text text-anchor="start" x="99.23" y="-1763.4" font-family="Arial" font-size="14.00" fill="#666666">[double precision]</text>
<polygon fill="none" stroke="black" points="43.2,-1720.4 43.2,-1751.2 307.18,-1751.2 307.18,-1720.4 43.2,-1720.4"/>
<text text-anchor="start" x="50.2" y="-1732.6" font-family="Arial" font-size="14.00">longitude </text>
<text text-anchor="start" x="110.92" y="-1732.6" font-family="Arial" font-size="14.00" fill="#666666">[double precision]</text>
<polygon fill="none" stroke="black" points="43.2,-1689.6 43.2,-1720.4 307.18,-1720.4 307.18,-1689.6 43.2,-1689.6"/>
<text text-anchor="start" x="50.2" y="-1701.8" font-family="Arial" font-size="14.00">google_formatted_address </text>
<text text-anchor="start" x="220.65" y="-1701.8" font-family="Arial" font-size="14.00" fill="#666666">[text]</text>
<polygon fill="none" stroke="black" points="43.2,-1658.8 43.2,-1689.6 307.18,-1689.6 307.18,-1658.8 43.2,-1658.8"/>
<text text-anchor="start" x="50.2" y="-1671" font-family="Arial" font-size="14.00">google_short_address </text>
<text text-anchor="start" x="192.63" y="-1671" font-family="Arial" font-size="14.00" fill="#666666">[text]</text>
<polygon fill="none" stroke="black" points="43.2,-1628 43.2,-1658.8 307.18,-1658.8 307.18,-1628 43.2,-1628"/>
<text text-anchor="start" x="50.2" y="-1640.2" font-family="Arial" font-size="14.00">bookmarks_count </text>
<text text-anchor="start" x="164.59" y="-1640.2" font-family="Arial" font-size="14.00" fill="#666666">[integer]</text>
<polygon fill="none" stroke="black" points="43.2,-1597.2 43.2,-1628 307.18,-1628 307.18,-1597.2 43.2,-1597.2"/>
<text text-anchor="start" x="50.2" y="-1609.4" font-family="Arial" font-size="14.00">prefecture_id </text>
<text text-anchor="start" x="135.81" y="-1609.4" font-family="Arial" font-size="14.00" fill="#666666">[text]</text>
<polygon fill="none" stroke="black" points="43.2,-1566.4 43.2,-1597.2 307.18,-1597.2 307.18,-1566.4 43.2,-1566.4"/>
<text text-anchor="start" x="50.2" y="-1578.6" font-family="Arial" font-size="14.00">color </text>
<text text-anchor="start" x="84.43" y="-1578.6" font-family="Arial" font-size="14.00" fill="#666666">[text]</text>
<polygon fill="none" stroke="black" points="43.2,-1535.6 43.2,-1566.4 307.18,-1566.4 307.18,-1535.6 43.2,-1535.6"/>
<text text-anchor="start" x="50.2" y="-1547.8" font-family="Arial" font-size="14.00">spot_color </text>
<text text-anchor="start" x="118.68" y="-1547.8" font-family="Arial" font-size="14.00" fill="#666666">[text]</text>
<polygon fill="none" stroke="black" points="43.2,-1504.8 43.2,-1535.6 307.18,-1535.6 307.18,-1504.8 43.2,-1504.8"/>
<text text-anchor="start" x="50.2" y="-1517" font-family="Arial" font-size="14.00">label_id </text>
<text text-anchor="start" x="102.35" y="-1517" font-family="Arial" font-size="14.00" fill="#666666">[uuid]</text>
<polygon fill="none" stroke="black" points="43.2,-1474 43.2,-1504.8 307.18,-1504.8 307.18,-1474 43.2,-1474"/>
<text text-anchor="start" x="50.2" y="-1486.2" font-family="Arial" font-size="14.00">city_id </text>
<text text-anchor="start" x="93.77" y="-1486.2" font-family="Arial" font-size="14.00" fill="#666666">[text]</text>
<polygon fill="none" stroke="black" points="43.2,-1443.2 43.2,-1474 307.18,-1474 307.18,-1443.2 43.2,-1443.2"/>
<text text-anchor="start" x="50.2" y="-1455.4" font-family="Arial" font-size="14.00">prefecture_name </text>
<text text-anchor="start" x="159.93" y="-1455.4" font-family="Arial" font-size="14.00" fill="#666666">[text]</text>
<polygon fill="none" stroke="black" points="43.2,-1412.4 43.2,-1443.2 307.18,-1443.2 307.18,-1412.4 43.2,-1412.4"/>
<text text-anchor="start" x="50.2" y="-1424.6" font-family="Arial" font-size="14.00">city_name </text>
<text text-anchor="start" x="117.9" y="-1424.6" font-family="Arial" font-size="14.00" fill="#666666">[text]</text>
<polygon fill="none" stroke="black" points="43.2,-1381.6 43.2,-1412.4 307.18,-1412.4 307.18,-1381.6 43.2,-1381.6"/>
<text text-anchor="start" x="50.2" y="-1393.8" font-family="Arial" font-size="14.00">machi_name </text>
<text text-anchor="start" x="134.24" y="-1393.8" font-family="Arial" font-size="14.00" fill="#666666">[text]</text>
</g>
<!-- public.user_spots&#45;&gt;public.master_spots -->
<g id="edge1" class="edge">
<title>public.user_spots:master_spot_id&#45;&gt;public.master_spots:id</title>
<path fill="none" stroke="black" d="M318.03,-2101.99C389.94,-2049.51 349.38,-1408.39 307.18,-1338.4 289.53,-1309.12 256.99,-1331.6 239.2,-1302.4 216.73,-1265.5 195,-1205.2 238.2,-1205.2"/>
<polygon fill="black" stroke="black" points="317.94,-2102.02 307.02,-2101.04 312.9,-2103.76 308.81,-2105.18 308.81,-2105.18 308.81,-2105.18 312.9,-2103.76 309.97,-2109.54 317.94,-2102.02"/>
<text text-anchor="start" x="315.18" y="-2115.4" font-family="Arial" font-size="10.00">FOREIGN KEY (master_spot_id) REFERENCES master_spots(id) ON DELETE CASCADE</text>
</g>
<!-- public.master_spot_favorites -->
<g id="node3" class="node">
<title>public.master_spot_favorites</title>
<polygon fill="#efefef" stroke="none" points="411.72,-1859 411.72,-1894.6 758.66,-1894.6 758.66,-1859 411.72,-1859"/>
<polygon fill="none" stroke="black" points="411.72,-1859 411.72,-1894.6 758.66,-1894.6 758.66,-1859 411.72,-1859"/>
<text text-anchor="start" x="418.72" y="-1872.4" font-family="Arial Bold" font-size="18.00">public.master_spot_favorites</text>
<text text-anchor="start" x="627.17" y="-1872.4" font-family="Arial" font-size="14.00">    </text>
<text text-anchor="start" x="658.29" y="-1872.4" font-family="Arial" font-size="14.00" fill="#666666">[BASE TABLE]</text>
<polygon fill="none" stroke="black" points="411.72,-1828.2 411.72,-1859 758.66,-1859 758.66,-1828.2 411.72,-1828.2"/>
<text text-anchor="start" x="418.72" y="-1840.4" font-family="Arial" font-size="14.00">id </text>
<text text-anchor="start" x="433.51" y="-1840.4" font-family="Arial" font-size="14.00" fill="#666666">[uuid]</text>
<polygon fill="none" stroke="black" points="411.72,-1797.4 411.72,-1828.2 758.66,-1828.2 758.66,-1797.4 411.72,-1797.4"/>
<text text-anchor="start" x="418.72" y="-1809.6" font-family="Arial" font-size="14.00">user_id </text>
<text text-anchor="start" x="468.53" y="-1809.6" font-family="Arial" font-size="14.00" fill="#666666">[uuid]</text>
<polygon fill="none" stroke="black" points="411.72,-1766.6 411.72,-1797.4 758.66,-1797.4 758.66,-1766.6 411.72,-1766.6"/>
<text text-anchor="start" x="418.72" y="-1778.8" font-family="Arial" font-size="14.00">master_spot_id </text>
<text text-anchor="start" x="518.33" y="-1778.8" font-family="Arial" font-size="14.00" fill="#666666">[uuid]</text>
<polygon fill="none" stroke="black" points="411.72,-1735.8 411.72,-1766.6 758.66,-1766.6 758.66,-1735.8 411.72,-1735.8"/>
<text text-anchor="start" x="418.72" y="-1748" font-family="Arial" font-size="14.00">created_at </text>
<text text-anchor="start" x="488.77" y="-1748" font-family="Arial" font-size="14.00" fill="#666666">[timestamp with time zone]</text>
</g>
<!-- public.master_spot_favorites&#45;&gt;public.master_spots -->
<g id="edge2" class="edge">
<title>public.master_spot_favorites:master_spot_id&#45;&gt;public.master_spots:id</title>
<path fill="none" stroke="black" d="M400.52,-1780.54C301.57,-1748.7 648.9,-1205.2 522.18,-1205.2"/>
<polygon fill="black" stroke="black" points="400.49,-1780.54 409.75,-1786.41 405.77,-1781.29 410.06,-1781.91 410.06,-1781.91 410.06,-1781.91 405.77,-1781.29 411.02,-1777.5 400.49,-1780.54"/>
<text text-anchor="start" x="417.72" y="-1792" font-family="Arial" font-size="10.00">FOREIGN KEY (master_spot_id) REFERENCES master_spots(id) ON DELETE CASCADE</text>
</g>
</g>
</svg>
