<?xml version="1.0" encoding="UTF-8" standalone="no"?>
<!DOCTYPE svg PUBLIC "-//W3C//DTD SVG 1.1//EN"
 "http://www.w3.org/Graphics/SVG/1.1/DTD/svg11.dtd">
<!-- Generated by graphviz version 12.1.2 (20240928.0832)
 -->
<!-- Title: public.transport_hubs Pages: 1 -->
<svg width="825pt" height="1187pt"
 viewBox="0.00 0.00 824.75 1187.20" xmlns="http://www.w3.org/2000/svg" xmlns:xlink="http://www.w3.org/1999/xlink">
<g id="graph0" class="graph" transform="scale(1 1) rotate(0) translate(4 1183.2)">
<title>public.transport_hubs</title>
<polygon fill="white" stroke="none" points="-4,4 -4,-1183.2 820.75,-1183.2 820.75,4 -4,4"/>
<!-- public.transport_hubs -->
<g id="node1" class="node">
<title>public.transport_hubs</title>
<polygon fill="#efefef" stroke="none" points="289.52,-1097.4 289.52,-1133 584.49,-1133 584.49,-1097.4 289.52,-1097.4"/>
<polygon fill="none" stroke="black" points="289.52,-1097.4 289.52,-1133 584.49,-1133 584.49,-1097.4 289.52,-1097.4"/>
<text text-anchor="start" x="296.52" y="-1110.8" font-family="Arial Bold" font-size="18.00">public.transport_hubs</text>
<text text-anchor="start" x="453" y="-1110.8" font-family="Arial" font-size="14.00">    </text>
<text text-anchor="start" x="484.12" y="-1110.8" font-family="Arial" font-size="14.00" fill="#666666">[BASE TABLE]</text>
<polygon fill="none" stroke="black" points="289.52,-1066.6 289.52,-1097.4 584.49,-1097.4 584.49,-1066.6 289.52,-1066.6"/>
<text text-anchor="start" x="296.52" y="-1078.8" font-family="Arial" font-size="14.00">id </text>
<text text-anchor="start" x="311.31" y="-1078.8" font-family="Arial" font-size="14.00" fill="#666666">[text]</text>
<polygon fill="none" stroke="black" points="289.52,-1035.8 289.52,-1066.6 584.49,-1066.6 584.49,-1035.8 289.52,-1035.8"/>
<text text-anchor="start" x="296.52" y="-1048" font-family="Arial" font-size="14.00">osm_id </text>
<text text-anchor="start" x="345.54" y="-1048" font-family="Arial" font-size="14.00" fill="#666666">[bigint]</text>
<polygon fill="none" stroke="black" points="289.52,-1005 289.52,-1035.8 584.49,-1035.8 584.49,-1005 289.52,-1005"/>
<text text-anchor="start" x="296.52" y="-1017.2" font-family="Arial" font-size="14.00">osm_type </text>
<text text-anchor="start" x="361.11" y="-1017.2" font-family="Arial" font-size="14.00" fill="#666666">[text]</text>
<polygon fill="none" stroke="black" points="289.52,-974.2 289.52,-1005 584.49,-1005 584.49,-974.2 289.52,-974.2"/>
<text text-anchor="start" x="296.52" y="-986.4" font-family="Arial" font-size="14.00">prefecture_id </text>
<text text-anchor="start" x="382.13" y="-986.4" font-family="Arial" font-size="14.00" fill="#666666">[text]</text>
<polygon fill="none" stroke="black" points="289.52,-943.4 289.52,-974.2 584.49,-974.2 584.49,-943.4 289.52,-943.4"/>
<text text-anchor="start" x="296.52" y="-955.6" font-family="Arial" font-size="14.00">city_id </text>
<text text-anchor="start" x="340.09" y="-955.6" font-family="Arial" font-size="14.00" fill="#666666">[text]</text>
<polygon fill="none" stroke="black" points="289.52,-912.6 289.52,-943.4 584.49,-943.4 584.49,-912.6 289.52,-912.6"/>
<text text-anchor="start" x="296.52" y="-924.8" font-family="Arial" font-size="14.00">type </text>
<text text-anchor="start" x="326.87" y="-924.8" font-family="Arial" font-size="14.00" fill="#666666">[text]</text>
<polygon fill="none" stroke="black" points="289.52,-881.8 289.52,-912.6 584.49,-912.6 584.49,-881.8 289.52,-881.8"/>
<text text-anchor="start" x="296.52" y="-894" font-family="Arial" font-size="14.00">subtype </text>
<text text-anchor="start" x="349.45" y="-894" font-family="Arial" font-size="14.00" fill="#666666">[text]</text>
<polygon fill="none" stroke="black" points="289.52,-851 289.52,-881.8 584.49,-881.8 584.49,-851 289.52,-851"/>
<text text-anchor="start" x="296.52" y="-863.2" font-family="Arial" font-size="14.00">name </text>
<text text-anchor="start" x="335.43" y="-863.2" font-family="Arial" font-size="14.00" fill="#666666">[text]</text>
<polygon fill="none" stroke="black" points="289.52,-820.2 289.52,-851 584.49,-851 584.49,-820.2 289.52,-820.2"/>
<text text-anchor="start" x="296.52" y="-832.4" font-family="Arial" font-size="14.00">name_kana </text>
<text text-anchor="start" x="373.58" y="-832.4" font-family="Arial" font-size="14.00" fill="#666666">[text]</text>
<polygon fill="none" stroke="black" points="289.52,-789.4 289.52,-820.2 584.49,-820.2 584.49,-789.4 289.52,-789.4"/>
<text text-anchor="start" x="296.52" y="-801.6" font-family="Arial" font-size="14.00">operator </text>
<text text-anchor="start" x="352.56" y="-801.6" font-family="Arial" font-size="14.00" fill="#666666">[text]</text>
<polygon fill="none" stroke="black" points="289.52,-758.6 289.52,-789.4 584.49,-789.4 584.49,-758.6 289.52,-758.6"/>
<text text-anchor="start" x="296.52" y="-770.8" font-family="Arial" font-size="14.00">network </text>
<text text-anchor="start" x="349.43" y="-770.8" font-family="Arial" font-size="14.00" fill="#666666">[text]</text>
<polygon fill="none" stroke="black" points="289.52,-727.8 289.52,-758.6 584.49,-758.6 584.49,-727.8 289.52,-727.8"/>
<text text-anchor="start" x="296.52" y="-740" font-family="Arial" font-size="14.00">ref </text>
<text text-anchor="start" x="316.75" y="-740" font-family="Arial" font-size="14.00" fill="#666666">[text]</text>
<polygon fill="none" stroke="black" points="289.52,-697 289.52,-727.8 584.49,-727.8 584.49,-697 289.52,-697"/>
<text text-anchor="start" x="296.52" y="-709.2" font-family="Arial" font-size="14.00">latitude </text>
<text text-anchor="start" x="345.56" y="-709.2" font-family="Arial" font-size="14.00" fill="#666666">[double precision]</text>
<polygon fill="none" stroke="black" points="289.52,-666.2 289.52,-697 584.49,-697 584.49,-666.2 289.52,-666.2"/>
<text text-anchor="start" x="296.52" y="-678.4" font-family="Arial" font-size="14.00">longitude </text>
<text text-anchor="start" x="357.24" y="-678.4" font-family="Arial" font-size="14.00" fill="#666666">[double precision]</text>
<polygon fill="none" stroke="black" points="289.52,-635.4 289.52,-666.2 584.49,-666.2 584.49,-635.4 289.52,-635.4"/>
<text text-anchor="start" x="296.52" y="-647.6" font-family="Arial" font-size="14.00">created_at </text>
<text text-anchor="start" x="366.57" y="-647.6" font-family="Arial" font-size="14.00" fill="#666666">[timestamp with time zone]</text>
<polygon fill="none" stroke="black" points="289.52,-604.6 289.52,-635.4 584.49,-635.4 584.49,-604.6 289.52,-604.6"/>
<text text-anchor="start" x="296.52" y="-616.8" font-family="Arial" font-size="14.00">updated_at </text>
<text text-anchor="start" x="370.48" y="-616.8" font-family="Arial" font-size="14.00" fill="#666666">[timestamp with time zone]</text>
<polygon fill="none" stroke="black" points="289.52,-573.8 289.52,-604.6 584.49,-604.6 584.49,-573.8 289.52,-573.8"/>
<text text-anchor="start" x="296.52" y="-586" font-family="Arial" font-size="14.00">tile_id </text>
<text text-anchor="start" x="336.99" y="-586" font-family="Arial" font-size="14.00" fill="#666666">[text]</text>
<polygon fill="none" stroke="black" points="289.52,-543 289.52,-573.8 584.49,-573.8 584.49,-543 289.52,-543"/>
<text text-anchor="start" x="296.52" y="-555.2" font-family="Arial" font-size="14.00">name_translations </text>
<text text-anchor="start" x="414.81" y="-555.2" font-family="Arial" font-size="14.00" fill="#666666">[jsonb]</text>
<polygon fill="none" stroke="black" stroke-width="3" points="288.02,-541.5 288.02,-1134.5 585.99,-1134.5 585.99,-541.5 288.02,-541.5"/>
</g>
<!-- public.prefectures -->
<g id="node2" class="node">
<title>public.prefectures</title>
<polygon fill="#efefef" stroke="none" points="121.04,-351.2 121.04,-386.8 388.97,-386.8 388.97,-351.2 121.04,-351.2"/>
<polygon fill="none" stroke="black" points="121.04,-351.2 121.04,-386.8 388.97,-386.8 388.97,-351.2 121.04,-351.2"/>
<text text-anchor="start" x="128.04" y="-364.6" font-family="Arial Bold" font-size="18.00">public.prefectures</text>
<text text-anchor="start" x="257.48" y="-364.6" font-family="Arial" font-size="14.00">    </text>
<text text-anchor="start" x="288.6" y="-364.6" font-family="Arial" font-size="14.00" fill="#666666">[BASE TABLE]</text>
<polygon fill="none" stroke="black" points="121.04,-320.4 121.04,-351.2 388.97,-351.2 388.97,-320.4 121.04,-320.4"/>
<text text-anchor="start" x="128.04" y="-332.6" font-family="Arial" font-size="14.00">id </text>
<text text-anchor="start" x="142.83" y="-332.6" font-family="Arial" font-size="14.00" fill="#666666">[text]</text>
<polygon fill="none" stroke="black" points="121.04,-289.6 121.04,-320.4 388.97,-320.4 388.97,-289.6 121.04,-289.6"/>
<text text-anchor="start" x="128.04" y="-301.8" font-family="Arial" font-size="14.00">name </text>
<text text-anchor="start" x="166.95" y="-301.8" font-family="Arial" font-size="14.00" fill="#666666">[text]</text>
<polygon fill="none" stroke="black" points="121.04,-258.8 121.04,-289.6 388.97,-289.6 388.97,-258.8 121.04,-258.8"/>
<text text-anchor="start" x="128.04" y="-271" font-family="Arial" font-size="14.00">name_kana </text>
<text text-anchor="start" x="205.1" y="-271" font-family="Arial" font-size="14.00" fill="#666666">[text]</text>
<polygon fill="none" stroke="black" points="121.04,-228 121.04,-258.8 388.97,-258.8 388.97,-228 121.04,-228"/>
<text text-anchor="start" x="128.04" y="-240.2" font-family="Arial" font-size="14.00">region_id </text>
<text text-anchor="start" x="189.53" y="-240.2" font-family="Arial" font-size="14.00" fill="#666666">[text]</text>
<polygon fill="none" stroke="black" points="121.04,-197.2 121.04,-228 388.97,-228 388.97,-197.2 121.04,-197.2"/>
<text text-anchor="start" x="128.04" y="-209.4" font-family="Arial" font-size="14.00">created_at </text>
<text text-anchor="start" x="198.09" y="-209.4" font-family="Arial" font-size="14.00" fill="#666666">[timestamp with time zone]</text>
<polygon fill="none" stroke="black" points="121.04,-166.4 121.04,-197.2 388.97,-197.2 388.97,-166.4 121.04,-166.4"/>
<text text-anchor="start" x="128.04" y="-178.6" font-family="Arial" font-size="14.00">updated_at </text>
<text text-anchor="start" x="202" y="-178.6" font-family="Arial" font-size="14.00" fill="#666666">[timestamp with time zone]</text>
<polygon fill="none" stroke="black" points="121.04,-135.6 121.04,-166.4 388.97,-166.4 388.97,-135.6 121.04,-135.6"/>
<text text-anchor="start" x="128.04" y="-147.8" font-family="Arial" font-size="14.00">latitude </text>
<text text-anchor="start" x="177.08" y="-147.8" font-family="Arial" font-size="14.00" fill="#666666">[double precision]</text>
<polygon fill="none" stroke="black" points="121.04,-104.8 121.04,-135.6 388.97,-135.6 388.97,-104.8 121.04,-104.8"/>
<text text-anchor="start" x="128.04" y="-117" font-family="Arial" font-size="14.00">longitude </text>
<text text-anchor="start" x="188.76" y="-117" font-family="Arial" font-size="14.00" fill="#666666">[double precision]</text>
<polygon fill="none" stroke="black" points="121.04,-74 121.04,-104.8 388.97,-104.8 388.97,-74 121.04,-74"/>
<text text-anchor="start" x="128.04" y="-86.2" font-family="Arial" font-size="14.00">name_translations </text>
<text text-anchor="start" x="246.33" y="-86.2" font-family="Arial" font-size="14.00" fill="#666666">[jsonb]</text>
</g>
<!-- public.transport_hubs&#45;&gt;public.prefectures -->
<g id="edge1" class="edge">
<title>public.transport_hubs:prefecture_id&#45;&gt;public.prefectures:id</title>
<path fill="none" stroke="black" d="M278.19,-989.37C73.26,-979.97 187.98,-686.87 289.52,-496.8 314.61,-449.84 363.68,-476.85 388.97,-430 408.86,-393.16 431.84,-335.8 389.97,-335.8"/>
<polygon fill="black" stroke="black" points="278.19,-989.37 288.09,-994.09 283.52,-989.49 287.85,-989.58 287.85,-989.58 287.85,-989.58 283.52,-989.49 288.29,-985.09 278.19,-989.37"/>
<text text-anchor="start" x="7" y="-999.6" font-family="Arial" font-size="10.00">FOREIGN KEY (prefecture_id) REFERENCES prefectures(id)</text>
</g>
<!-- public.cities -->
<g id="node3" class="node">
<title>public.cities</title>
<polygon fill="#efefef" stroke="none" points="493.17,-382 493.17,-417.6 746.85,-417.6 746.85,-382 493.17,-382"/>
<polygon fill="none" stroke="black" points="493.17,-382 493.17,-417.6 746.85,-417.6 746.85,-382 493.17,-382"/>
<text text-anchor="start" x="514.02" y="-395.4" font-family="Arial Bold" font-size="18.00">public.cities</text>
<text text-anchor="start" x="601.5" y="-395.4" font-family="Arial" font-size="14.00">    </text>
<text text-anchor="start" x="632.62" y="-395.4" font-family="Arial" font-size="14.00" fill="#666666">[BASE TABLE]</text>
<polygon fill="none" stroke="black" points="493.17,-351.2 493.17,-382 746.85,-382 746.85,-351.2 493.17,-351.2"/>
<text text-anchor="start" x="500.17" y="-363.4" font-family="Arial" font-size="14.00">id </text>
<text text-anchor="start" x="514.95" y="-363.4" font-family="Arial" font-size="14.00" fill="#666666">[text]</text>
<polygon fill="none" stroke="black" points="493.17,-320.4 493.17,-351.2 746.85,-351.2 746.85,-320.4 493.17,-320.4"/>
<text text-anchor="start" x="500.17" y="-332.6" font-family="Arial" font-size="14.00">prefecture_id </text>
<text text-anchor="start" x="585.77" y="-332.6" font-family="Arial" font-size="14.00" fill="#666666">[text]</text>
<polygon fill="none" stroke="black" points="493.17,-289.6 493.17,-320.4 746.85,-320.4 746.85,-289.6 493.17,-289.6"/>
<text text-anchor="start" x="500.17" y="-301.8" font-family="Arial" font-size="14.00">name </text>
<text text-anchor="start" x="539.08" y="-301.8" font-family="Arial" font-size="14.00" fill="#666666">[text]</text>
<polygon fill="none" stroke="black" points="493.17,-258.8 493.17,-289.6 746.85,-289.6 746.85,-258.8 493.17,-258.8"/>
<text text-anchor="start" x="500.17" y="-271" font-family="Arial" font-size="14.00">name_kana </text>
<text text-anchor="start" x="577.22" y="-271" font-family="Arial" font-size="14.00" fill="#666666">[text]</text>
<polygon fill="none" stroke="black" points="493.17,-228 493.17,-258.8 746.85,-258.8 746.85,-228 493.17,-228"/>
<text text-anchor="start" x="500.17" y="-240.2" font-family="Arial" font-size="14.00">type </text>
<text text-anchor="start" x="530.52" y="-240.2" font-family="Arial" font-size="14.00" fill="#666666">[text]</text>
<polygon fill="none" stroke="black" points="493.17,-197.2 493.17,-228 746.85,-228 746.85,-197.2 493.17,-197.2"/>
<text text-anchor="start" x="500.17" y="-209.4" font-family="Arial" font-size="14.00">created_at </text>
<text text-anchor="start" x="570.21" y="-209.4" font-family="Arial" font-size="14.00" fill="#666666">[timestamp with time zone]</text>
<polygon fill="none" stroke="black" points="493.17,-166.4 493.17,-197.2 746.85,-197.2 746.85,-166.4 493.17,-166.4"/>
<text text-anchor="start" x="500.17" y="-178.6" font-family="Arial" font-size="14.00">updated_at </text>
<text text-anchor="start" x="574.12" y="-178.6" font-family="Arial" font-size="14.00" fill="#666666">[timestamp with time zone]</text>
<polygon fill="none" stroke="black" points="493.17,-135.6 493.17,-166.4 746.85,-166.4 746.85,-135.6 493.17,-135.6"/>
<text text-anchor="start" x="500.17" y="-147.8" font-family="Arial" font-size="14.00">name_translations </text>
<text text-anchor="start" x="618.45" y="-147.8" font-family="Arial" font-size="14.00" fill="#666666">[jsonb]</text>
<polygon fill="none" stroke="black" points="493.17,-104.8 493.17,-135.6 746.85,-135.6 746.85,-104.8 493.17,-104.8"/>
<text text-anchor="start" x="500.17" y="-117" font-family="Arial" font-size="14.00">latitude </text>
<text text-anchor="start" x="549.2" y="-117" font-family="Arial" font-size="14.00" fill="#666666">[double precision]</text>
<polygon fill="none" stroke="black" points="493.17,-74 493.17,-104.8 746.85,-104.8 746.85,-74 493.17,-74"/>
<text text-anchor="start" x="500.17" y="-86.2" font-family="Arial" font-size="14.00">longitude </text>
<text text-anchor="start" x="560.88" y="-86.2" font-family="Arial" font-size="14.00" fill="#666666">[double precision]</text>
<polygon fill="none" stroke="black" points="493.17,-43.2 493.17,-74 746.85,-74 746.85,-43.2 493.17,-43.2"/>
<text text-anchor="start" x="500.17" y="-55.4" font-family="Arial" font-size="14.00">tile_id </text>
<text text-anchor="start" x="540.63" y="-55.4" font-family="Arial" font-size="14.00" fill="#666666">[text]</text>
</g>
<!-- public.transport_hubs&#45;&gt;public.cities -->
<g id="edge2" class="edge">
<title>public.transport_hubs:city_id&#45;&gt;public.cities:id</title>
<path fill="none" stroke="black" d="M595.76,-958.55C787.72,-948.84 698.24,-663.52 584.49,-496.8 559.9,-460.76 517.91,-496.74 493.17,-460.8 469.42,-426.31 450.3,-366.6 492.17,-366.6"/>
<polygon fill="black" stroke="black" points="595.82,-958.54 585.71,-954.29 590.49,-958.68 586.16,-958.78 586.16,-958.78 586.16,-958.78 590.49,-958.68 585.94,-963.29 595.82,-958.54"/>
<text text-anchor="start" x="592.49" y="-968.8" font-family="Arial" font-size="10.00">FOREIGN KEY (city_id) REFERENCES cities(id)</text>
</g>
</g>
</svg>
