<?xml version="1.0" encoding="UTF-8" standalone="no"?>
<!DOCTYPE svg PUBLIC "-//W3C//DTD SVG 1.1//EN"
 "http://www.w3.org/Graphics/SVG/1.1/DTD/svg11.dtd">
<!-- Generated by graphviz version 12.1.2 (20240928.0832)
 -->
<!-- Title: public.cities Pages: 1 -->
<svg width="1173pt" height="1622pt"
 viewBox="0.00 0.00 1172.72 1622.40" xmlns="http://www.w3.org/2000/svg" xmlns:xlink="http://www.w3.org/1999/xlink">
<g id="graph0" class="graph" transform="scale(1 1) rotate(0) translate(4 1618.4)">
<title>public.cities</title>
<polygon fill="white" stroke="none" points="-4,4 -4,-1618.4 1168.72,-1618.4 1168.72,4 -4,4"/>
<!-- public.cities -->
<g id="node1" class="node">
<title>public.cities</title>
<polygon fill="#efefef" stroke="none" points="422.2,-820.2 422.2,-855.8 675.88,-855.8 675.88,-820.2 422.2,-820.2"/>
<polygon fill="none" stroke="black" points="422.2,-820.2 422.2,-855.8 675.88,-855.8 675.88,-820.2 422.2,-820.2"/>
<text text-anchor="start" x="443.06" y="-833.6" font-family="Arial Bold" font-size="18.00">public.cities</text>
<text text-anchor="start" x="530.53" y="-833.6" font-family="Arial" font-size="14.00">    </text>
<text text-anchor="start" x="561.65" y="-833.6" font-family="Arial" font-size="14.00" fill="#666666">[BASE TABLE]</text>
<polygon fill="none" stroke="black" points="422.2,-789.4 422.2,-820.2 675.88,-820.2 675.88,-789.4 422.2,-789.4"/>
<text text-anchor="start" x="429.2" y="-801.6" font-family="Arial" font-size="14.00">id </text>
<text text-anchor="start" x="443.99" y="-801.6" font-family="Arial" font-size="14.00" fill="#666666">[text]</text>
<polygon fill="none" stroke="black" points="422.2,-758.6 422.2,-789.4 675.88,-789.4 675.88,-758.6 422.2,-758.6"/>
<text text-anchor="start" x="429.2" y="-770.8" font-family="Arial" font-size="14.00">prefecture_id </text>
<text text-anchor="start" x="514.81" y="-770.8" font-family="Arial" font-size="14.00" fill="#666666">[text]</text>
<polygon fill="none" stroke="black" points="422.2,-727.8 422.2,-758.6 675.88,-758.6 675.88,-727.8 422.2,-727.8"/>
<text text-anchor="start" x="429.2" y="-740" font-family="Arial" font-size="14.00">name </text>
<text text-anchor="start" x="468.11" y="-740" font-family="Arial" font-size="14.00" fill="#666666">[text]</text>
<polygon fill="none" stroke="black" points="422.2,-697 422.2,-727.8 675.88,-727.8 675.88,-697 422.2,-697"/>
<text text-anchor="start" x="429.2" y="-709.2" font-family="Arial" font-size="14.00">name_kana </text>
<text text-anchor="start" x="506.25" y="-709.2" font-family="Arial" font-size="14.00" fill="#666666">[text]</text>
<polygon fill="none" stroke="black" points="422.2,-666.2 422.2,-697 675.88,-697 675.88,-666.2 422.2,-666.2"/>
<text text-anchor="start" x="429.2" y="-678.4" font-family="Arial" font-size="14.00">type </text>
<text text-anchor="start" x="459.55" y="-678.4" font-family="Arial" font-size="14.00" fill="#666666">[text]</text>
<polygon fill="none" stroke="black" points="422.2,-635.4 422.2,-666.2 675.88,-666.2 675.88,-635.4 422.2,-635.4"/>
<text text-anchor="start" x="429.2" y="-647.6" font-family="Arial" font-size="14.00">created_at </text>
<text text-anchor="start" x="499.25" y="-647.6" font-family="Arial" font-size="14.00" fill="#666666">[timestamp with time zone]</text>
<polygon fill="none" stroke="black" points="422.2,-604.6 422.2,-635.4 675.88,-635.4 675.88,-604.6 422.2,-604.6"/>
<text text-anchor="start" x="429.2" y="-616.8" font-family="Arial" font-size="14.00">updated_at </text>
<text text-anchor="start" x="503.16" y="-616.8" font-family="Arial" font-size="14.00" fill="#666666">[timestamp with time zone]</text>
<polygon fill="none" stroke="black" points="422.2,-573.8 422.2,-604.6 675.88,-604.6 675.88,-573.8 422.2,-573.8"/>
<text text-anchor="start" x="429.2" y="-586" font-family="Arial" font-size="14.00">name_translations </text>
<text text-anchor="start" x="547.49" y="-586" font-family="Arial" font-size="14.00" fill="#666666">[jsonb]</text>
<polygon fill="none" stroke="black" points="422.2,-543 422.2,-573.8 675.88,-573.8 675.88,-543 422.2,-543"/>
<text text-anchor="start" x="429.2" y="-555.2" font-family="Arial" font-size="14.00">latitude </text>
<text text-anchor="start" x="478.23" y="-555.2" font-family="Arial" font-size="14.00" fill="#666666">[double precision]</text>
<polygon fill="none" stroke="black" points="422.2,-512.2 422.2,-543 675.88,-543 675.88,-512.2 422.2,-512.2"/>
<text text-anchor="start" x="429.2" y="-524.4" font-family="Arial" font-size="14.00">longitude </text>
<text text-anchor="start" x="489.92" y="-524.4" font-family="Arial" font-size="14.00" fill="#666666">[double precision]</text>
<polygon fill="none" stroke="black" points="422.2,-481.4 422.2,-512.2 675.88,-512.2 675.88,-481.4 422.2,-481.4"/>
<text text-anchor="start" x="429.2" y="-493.6" font-family="Arial" font-size="14.00">tile_id </text>
<text text-anchor="start" x="469.67" y="-493.6" font-family="Arial" font-size="14.00" fill="#666666">[text]</text>
<polygon fill="none" stroke="black" stroke-width="3" points="420.7,-479.9 420.7,-857.3 677.38,-857.3 677.38,-479.9 420.7,-479.9"/>
</g>
<!-- public.prefectures -->
<g id="node5" class="node">
<title>public.prefectures</title>
<polygon fill="#efefef" stroke="none" points="415.08,-320.4 415.08,-356 683,-356 683,-320.4 415.08,-320.4"/>
<polygon fill="none" stroke="black" points="415.08,-320.4 415.08,-356 683,-356 683,-320.4 415.08,-320.4"/>
<text text-anchor="start" x="422.08" y="-333.8" font-family="Arial Bold" font-size="18.00">public.prefectures</text>
<text text-anchor="start" x="551.51" y="-333.8" font-family="Arial" font-size="14.00">    </text>
<text text-anchor="start" x="582.63" y="-333.8" font-family="Arial" font-size="14.00" fill="#666666">[BASE TABLE]</text>
<polygon fill="none" stroke="black" points="415.08,-289.6 415.08,-320.4 683,-320.4 683,-289.6 415.08,-289.6"/>
<text text-anchor="start" x="422.08" y="-301.8" font-family="Arial" font-size="14.00">id </text>
<text text-anchor="start" x="436.86" y="-301.8" font-family="Arial" font-size="14.00" fill="#666666">[text]</text>
<polygon fill="none" stroke="black" points="415.08,-258.8 415.08,-289.6 683,-289.6 683,-258.8 415.08,-258.8"/>
<text text-anchor="start" x="422.08" y="-271" font-family="Arial" font-size="14.00">name </text>
<text text-anchor="start" x="460.99" y="-271" font-family="Arial" font-size="14.00" fill="#666666">[text]</text>
<polygon fill="none" stroke="black" points="415.08,-228 415.08,-258.8 683,-258.8 683,-228 415.08,-228"/>
<text text-anchor="start" x="422.08" y="-240.2" font-family="Arial" font-size="14.00">name_kana </text>
<text text-anchor="start" x="499.13" y="-240.2" font-family="Arial" font-size="14.00" fill="#666666">[text]</text>
<polygon fill="none" stroke="black" points="415.08,-197.2 415.08,-228 683,-228 683,-197.2 415.08,-197.2"/>
<text text-anchor="start" x="422.08" y="-209.4" font-family="Arial" font-size="14.00">region_id </text>
<text text-anchor="start" x="483.57" y="-209.4" font-family="Arial" font-size="14.00" fill="#666666">[text]</text>
<polygon fill="none" stroke="black" points="415.08,-166.4 415.08,-197.2 683,-197.2 683,-166.4 415.08,-166.4"/>
<text text-anchor="start" x="422.08" y="-178.6" font-family="Arial" font-size="14.00">created_at </text>
<text text-anchor="start" x="492.13" y="-178.6" font-family="Arial" font-size="14.00" fill="#666666">[timestamp with time zone]</text>
<polygon fill="none" stroke="black" points="415.08,-135.6 415.08,-166.4 683,-166.4 683,-135.6 415.08,-135.6"/>
<text text-anchor="start" x="422.08" y="-147.8" font-family="Arial" font-size="14.00">updated_at </text>
<text text-anchor="start" x="496.04" y="-147.8" font-family="Arial" font-size="14.00" fill="#666666">[timestamp with time zone]</text>
<polygon fill="none" stroke="black" points="415.08,-104.8 415.08,-135.6 683,-135.6 683,-104.8 415.08,-104.8"/>
<text text-anchor="start" x="422.08" y="-117" font-family="Arial" font-size="14.00">latitude </text>
<text text-anchor="start" x="471.11" y="-117" font-family="Arial" font-size="14.00" fill="#666666">[double precision]</text>
<polygon fill="none" stroke="black" points="415.08,-74 415.08,-104.8 683,-104.8 683,-74 415.08,-74"/>
<text text-anchor="start" x="422.08" y="-86.2" font-family="Arial" font-size="14.00">longitude </text>
<text text-anchor="start" x="482.79" y="-86.2" font-family="Arial" font-size="14.00" fill="#666666">[double precision]</text>
<polygon fill="none" stroke="black" points="415.08,-43.2 415.08,-74 683,-74 683,-43.2 415.08,-43.2"/>
<text text-anchor="start" x="422.08" y="-55.4" font-family="Arial" font-size="14.00">name_translations </text>
<text text-anchor="start" x="540.37" y="-55.4" font-family="Arial" font-size="14.00" fill="#666666">[jsonb]</text>
</g>
<!-- public.cities&#45;&gt;public.prefectures -->
<g id="edge4" class="edge">
<title>public.cities:prefecture_id&#45;&gt;public.prefectures:id</title>
<path fill="none" stroke="black" d="M687.1,-773.62C885.53,-758.56 889.01,-305 684,-305"/>
<polygon fill="black" stroke="black" points="687.21,-773.61 677.05,-769.49 681.88,-773.81 677.55,-773.97 677.55,-773.97 677.55,-773.97 681.88,-773.81 677.38,-778.48 687.21,-773.61"/>
<text text-anchor="start" x="683.88" y="-784" font-family="Arial" font-size="10.00">FOREIGN KEY (prefecture_id) REFERENCES prefectures(id)</text>
</g>
<!-- public.machi -->
<g id="node2" class="node">
<title>public.machi</title>
<polygon fill="#efefef" stroke="none" points="43.2,-1520.2 43.2,-1555.8 296.88,-1555.8 296.88,-1520.2 43.2,-1520.2"/>
<polygon fill="none" stroke="black" points="43.2,-1520.2 43.2,-1555.8 296.88,-1555.8 296.88,-1520.2 43.2,-1520.2"/>
<text text-anchor="start" x="61.06" y="-1533.6" font-family="Arial Bold" font-size="18.00">public.machi</text>
<text text-anchor="start" x="154.53" y="-1533.6" font-family="Arial" font-size="14.00">    </text>
<text text-anchor="start" x="185.65" y="-1533.6" font-family="Arial" font-size="14.00" fill="#666666">[BASE TABLE]</text>
<polygon fill="none" stroke="black" points="43.2,-1489.4 43.2,-1520.2 296.88,-1520.2 296.88,-1489.4 43.2,-1489.4"/>
<text text-anchor="start" x="50.2" y="-1501.6" font-family="Arial" font-size="14.00">id </text>
<text text-anchor="start" x="64.99" y="-1501.6" font-family="Arial" font-size="14.00" fill="#666666">[text]</text>
<polygon fill="none" stroke="black" points="43.2,-1458.6 43.2,-1489.4 296.88,-1489.4 296.88,-1458.6 43.2,-1458.6"/>
<text text-anchor="start" x="50.2" y="-1470.8" font-family="Arial" font-size="14.00">name </text>
<text text-anchor="start" x="89.11" y="-1470.8" font-family="Arial" font-size="14.00" fill="#666666">[text]</text>
<polygon fill="none" stroke="black" points="43.2,-1427.8 43.2,-1458.6 296.88,-1458.6 296.88,-1427.8 43.2,-1427.8"/>
<text text-anchor="start" x="50.2" y="-1440" font-family="Arial" font-size="14.00">latitude </text>
<text text-anchor="start" x="99.23" y="-1440" font-family="Arial" font-size="14.00" fill="#666666">[double precision]</text>
<polygon fill="none" stroke="black" points="43.2,-1397 43.2,-1427.8 296.88,-1427.8 296.88,-1397 43.2,-1397"/>
<text text-anchor="start" x="50.2" y="-1409.2" font-family="Arial" font-size="14.00">longitude </text>
<text text-anchor="start" x="110.92" y="-1409.2" font-family="Arial" font-size="14.00" fill="#666666">[double precision]</text>
<polygon fill="none" stroke="black" points="43.2,-1366.2 43.2,-1397 296.88,-1397 296.88,-1366.2 43.2,-1366.2"/>
<text text-anchor="start" x="50.2" y="-1378.4" font-family="Arial" font-size="14.00">prefecture_id </text>
<text text-anchor="start" x="135.81" y="-1378.4" font-family="Arial" font-size="14.00" fill="#666666">[text]</text>
<polygon fill="none" stroke="black" points="43.2,-1335.4 43.2,-1366.2 296.88,-1366.2 296.88,-1335.4 43.2,-1335.4"/>
<text text-anchor="start" x="50.2" y="-1347.6" font-family="Arial" font-size="14.00">city_id </text>
<text text-anchor="start" x="93.77" y="-1347.6" font-family="Arial" font-size="14.00" fill="#666666">[text]</text>
<polygon fill="none" stroke="black" points="43.2,-1304.6 43.2,-1335.4 296.88,-1335.4 296.88,-1304.6 43.2,-1304.6"/>
<text text-anchor="start" x="50.2" y="-1316.8" font-family="Arial" font-size="14.00">name_kana </text>
<text text-anchor="start" x="127.25" y="-1316.8" font-family="Arial" font-size="14.00" fill="#666666">[text]</text>
<polygon fill="none" stroke="black" points="43.2,-1273.8 43.2,-1304.6 296.88,-1304.6 296.88,-1273.8 43.2,-1273.8"/>
<text text-anchor="start" x="50.2" y="-1286" font-family="Arial" font-size="14.00">name_translations </text>
<text text-anchor="start" x="168.49" y="-1286" font-family="Arial" font-size="14.00" fill="#666666">[jsonb]</text>
<polygon fill="none" stroke="black" points="43.2,-1243 43.2,-1273.8 296.88,-1273.8 296.88,-1243 43.2,-1243"/>
<text text-anchor="start" x="50.2" y="-1255.2" font-family="Arial" font-size="14.00">prefecture_name </text>
<text text-anchor="start" x="159.93" y="-1255.2" font-family="Arial" font-size="14.00" fill="#666666">[text]</text>
<polygon fill="none" stroke="black" points="43.2,-1212.2 43.2,-1243 296.88,-1243 296.88,-1212.2 43.2,-1212.2"/>
<text text-anchor="start" x="50.2" y="-1224.4" font-family="Arial" font-size="14.00">prefecture_name_translations </text>
<text text-anchor="start" x="239.31" y="-1224.4" font-family="Arial" font-size="14.00" fill="#666666">[jsonb]</text>
<polygon fill="none" stroke="black" points="43.2,-1181.4 43.2,-1212.2 296.88,-1212.2 296.88,-1181.4 43.2,-1181.4"/>
<text text-anchor="start" x="50.2" y="-1193.6" font-family="Arial" font-size="14.00">city_name </text>
<text text-anchor="start" x="117.9" y="-1193.6" font-family="Arial" font-size="14.00" fill="#666666">[text]</text>
<polygon fill="none" stroke="black" points="43.2,-1150.6 43.2,-1181.4 296.88,-1181.4 296.88,-1150.6 43.2,-1150.6"/>
<text text-anchor="start" x="50.2" y="-1162.8" font-family="Arial" font-size="14.00">city_name_translations </text>
<text text-anchor="start" x="197.28" y="-1162.8" font-family="Arial" font-size="14.00" fill="#666666">[jsonb]</text>
<polygon fill="none" stroke="black" points="43.2,-1119.8 43.2,-1150.6 296.88,-1150.6 296.88,-1119.8 43.2,-1119.8"/>
<text text-anchor="start" x="50.2" y="-1132" font-family="Arial" font-size="14.00">created_at </text>
<text text-anchor="start" x="120.25" y="-1132" font-family="Arial" font-size="14.00" fill="#666666">[timestamp with time zone]</text>
<polygon fill="none" stroke="black" points="43.2,-1089 43.2,-1119.8 296.88,-1119.8 296.88,-1089 43.2,-1089"/>
<text text-anchor="start" x="50.2" y="-1101.2" font-family="Arial" font-size="14.00">updated_at </text>
<text text-anchor="start" x="124.16" y="-1101.2" font-family="Arial" font-size="14.00" fill="#666666">[timestamp with time zone]</text>
<polygon fill="none" stroke="black" points="43.2,-1058.2 43.2,-1089 296.88,-1089 296.88,-1058.2 43.2,-1058.2"/>
<text text-anchor="start" x="50.2" y="-1070.4" font-family="Arial" font-size="14.00">osm_id </text>
<text text-anchor="start" x="99.22" y="-1070.4" font-family="Arial" font-size="14.00" fill="#666666">[bigint]</text>
<polygon fill="none" stroke="black" points="43.2,-1027.4 43.2,-1058.2 296.88,-1058.2 296.88,-1027.4 43.2,-1027.4"/>
<text text-anchor="start" x="50.2" y="-1039.6" font-family="Arial" font-size="14.00">place_type </text>
<text text-anchor="start" x="121.81" y="-1039.6" font-family="Arial" font-size="14.00" fill="#666666">[text]</text>
<polygon fill="none" stroke="black" points="43.2,-996.6 43.2,-1027.4 296.88,-1027.4 296.88,-996.6 43.2,-996.6"/>
<text text-anchor="start" x="50.2" y="-1008.8" font-family="Arial" font-size="14.00">tile_id </text>
<text text-anchor="start" x="90.67" y="-1008.8" font-family="Arial" font-size="14.00" fill="#666666">[text]</text>
</g>
<!-- public.machi&#45;&gt;public.cities -->
<g id="edge1" class="edge">
<title>public.machi:city_id&#45;&gt;public.cities:id</title>
<path fill="none" stroke="black" d="M307.99,-1349.35C385.04,-1325.79 321.95,-1022.59 349.04,-938 369.57,-873.88 353.87,-804.8 421.2,-804.8"/>
<polygon fill="black" stroke="black" points="308.11,-1349.33 297.57,-1346.3 302.83,-1350.09 298.54,-1350.7 298.54,-1350.7 298.54,-1350.7 302.83,-1350.09 298.85,-1355.21 308.11,-1349.33"/>
<text text-anchor="start" x="304.88" y="-1360.8" font-family="Arial" font-size="10.00">FOREIGN KEY (city_id) REFERENCES cities(id)</text>
</g>
<!-- public.transport_hubs -->
<g id="node3" class="node">
<title>public.transport_hubs</title>
<polygon fill="#efefef" stroke="none" points="401.56,-1535.6 401.56,-1571.2 696.53,-1571.2 696.53,-1535.6 401.56,-1535.6"/>
<polygon fill="none" stroke="black" points="401.56,-1535.6 401.56,-1571.2 696.53,-1571.2 696.53,-1535.6 401.56,-1535.6"/>
<text text-anchor="start" x="408.56" y="-1549" font-family="Arial Bold" font-size="18.00">public.transport_hubs</text>
<text text-anchor="start" x="565.04" y="-1549" font-family="Arial" font-size="14.00">    </text>
<text text-anchor="start" x="596.15" y="-1549" font-family="Arial" font-size="14.00" fill="#666666">[BASE TABLE]</text>
<polygon fill="none" stroke="black" points="401.56,-1504.8 401.56,-1535.6 696.53,-1535.6 696.53,-1504.8 401.56,-1504.8"/>
<text text-anchor="start" x="408.56" y="-1517" font-family="Arial" font-size="14.00">id </text>
<text text-anchor="start" x="423.34" y="-1517" font-family="Arial" font-size="14.00" fill="#666666">[text]</text>
<polygon fill="none" stroke="black" points="401.56,-1474 401.56,-1504.8 696.53,-1504.8 696.53,-1474 401.56,-1474"/>
<text text-anchor="start" x="408.56" y="-1486.2" font-family="Arial" font-size="14.00">osm_id </text>
<text text-anchor="start" x="457.58" y="-1486.2" font-family="Arial" font-size="14.00" fill="#666666">[bigint]</text>
<polygon fill="none" stroke="black" points="401.56,-1443.2 401.56,-1474 696.53,-1474 696.53,-1443.2 401.56,-1443.2"/>
<text text-anchor="start" x="408.56" y="-1455.4" font-family="Arial" font-size="14.00">osm_type </text>
<text text-anchor="start" x="473.14" y="-1455.4" font-family="Arial" font-size="14.00" fill="#666666">[text]</text>
<polygon fill="none" stroke="black" points="401.56,-1412.4 401.56,-1443.2 696.53,-1443.2 696.53,-1412.4 401.56,-1412.4"/>
<text text-anchor="start" x="408.56" y="-1424.6" font-family="Arial" font-size="14.00">prefecture_id </text>
<text text-anchor="start" x="494.16" y="-1424.6" font-family="Arial" font-size="14.00" fill="#666666">[text]</text>
<polygon fill="none" stroke="black" points="401.56,-1381.6 401.56,-1412.4 696.53,-1412.4 696.53,-1381.6 401.56,-1381.6"/>
<text text-anchor="start" x="408.56" y="-1393.8" font-family="Arial" font-size="14.00">city_id </text>
<text text-anchor="start" x="452.13" y="-1393.8" font-family="Arial" font-size="14.00" fill="#666666">[text]</text>
<polygon fill="none" stroke="black" points="401.56,-1350.8 401.56,-1381.6 696.53,-1381.6 696.53,-1350.8 401.56,-1350.8"/>
<text text-anchor="start" x="408.56" y="-1363" font-family="Arial" font-size="14.00">type </text>
<text text-anchor="start" x="438.91" y="-1363" font-family="Arial" font-size="14.00" fill="#666666">[text]</text>
<polygon fill="none" stroke="black" points="401.56,-1320 401.56,-1350.8 696.53,-1350.8 696.53,-1320 401.56,-1320"/>
<text text-anchor="start" x="408.56" y="-1332.2" font-family="Arial" font-size="14.00">subtype </text>
<text text-anchor="start" x="461.48" y="-1332.2" font-family="Arial" font-size="14.00" fill="#666666">[text]</text>
<polygon fill="none" stroke="black" points="401.56,-1289.2 401.56,-1320 696.53,-1320 696.53,-1289.2 401.56,-1289.2"/>
<text text-anchor="start" x="408.56" y="-1301.4" font-family="Arial" font-size="14.00">name </text>
<text text-anchor="start" x="447.47" y="-1301.4" font-family="Arial" font-size="14.00" fill="#666666">[text]</text>
<polygon fill="none" stroke="black" points="401.56,-1258.4 401.56,-1289.2 696.53,-1289.2 696.53,-1258.4 401.56,-1258.4"/>
<text text-anchor="start" x="408.56" y="-1270.6" font-family="Arial" font-size="14.00">name_kana </text>
<text text-anchor="start" x="485.61" y="-1270.6" font-family="Arial" font-size="14.00" fill="#666666">[text]</text>
<polygon fill="none" stroke="black" points="401.56,-1227.6 401.56,-1258.4 696.53,-1258.4 696.53,-1227.6 401.56,-1227.6"/>
<text text-anchor="start" x="408.56" y="-1239.8" font-family="Arial" font-size="14.00">operator </text>
<text text-anchor="start" x="464.59" y="-1239.8" font-family="Arial" font-size="14.00" fill="#666666">[text]</text>
<polygon fill="none" stroke="black" points="401.56,-1196.8 401.56,-1227.6 696.53,-1227.6 696.53,-1196.8 401.56,-1196.8"/>
<text text-anchor="start" x="408.56" y="-1209" font-family="Arial" font-size="14.00">network </text>
<text text-anchor="start" x="461.47" y="-1209" font-family="Arial" font-size="14.00" fill="#666666">[text]</text>
<polygon fill="none" stroke="black" points="401.56,-1166 401.56,-1196.8 696.53,-1196.8 696.53,-1166 401.56,-1166"/>
<text text-anchor="start" x="408.56" y="-1178.2" font-family="Arial" font-size="14.00">ref </text>
<text text-anchor="start" x="428.78" y="-1178.2" font-family="Arial" font-size="14.00" fill="#666666">[text]</text>
<polygon fill="none" stroke="black" points="401.56,-1135.2 401.56,-1166 696.53,-1166 696.53,-1135.2 401.56,-1135.2"/>
<text text-anchor="start" x="408.56" y="-1147.4" font-family="Arial" font-size="14.00">latitude </text>
<text text-anchor="start" x="457.59" y="-1147.4" font-family="Arial" font-size="14.00" fill="#666666">[double precision]</text>
<polygon fill="none" stroke="black" points="401.56,-1104.4 401.56,-1135.2 696.53,-1135.2 696.53,-1104.4 401.56,-1104.4"/>
<text text-anchor="start" x="408.56" y="-1116.6" font-family="Arial" font-size="14.00">longitude </text>
<text text-anchor="start" x="469.27" y="-1116.6" font-family="Arial" font-size="14.00" fill="#666666">[double precision]</text>
<polygon fill="none" stroke="black" points="401.56,-1073.6 401.56,-1104.4 696.53,-1104.4 696.53,-1073.6 401.56,-1073.6"/>
<text text-anchor="start" x="408.56" y="-1085.8" font-family="Arial" font-size="14.00">created_at </text>
<text text-anchor="start" x="478.6" y="-1085.8" font-family="Arial" font-size="14.00" fill="#666666">[timestamp with time zone]</text>
<polygon fill="none" stroke="black" points="401.56,-1042.8 401.56,-1073.6 696.53,-1073.6 696.53,-1042.8 401.56,-1042.8"/>
<text text-anchor="start" x="408.56" y="-1055" font-family="Arial" font-size="14.00">updated_at </text>
<text text-anchor="start" x="482.51" y="-1055" font-family="Arial" font-size="14.00" fill="#666666">[timestamp with time zone]</text>
<polygon fill="none" stroke="black" points="401.56,-1012 401.56,-1042.8 696.53,-1042.8 696.53,-1012 401.56,-1012"/>
<text text-anchor="start" x="408.56" y="-1024.2" font-family="Arial" font-size="14.00">tile_id </text>
<text text-anchor="start" x="449.02" y="-1024.2" font-family="Arial" font-size="14.00" fill="#666666">[text]</text>
<polygon fill="none" stroke="black" points="401.56,-981.2 401.56,-1012 696.53,-1012 696.53,-981.2 401.56,-981.2"/>
<text text-anchor="start" x="408.56" y="-993.4" font-family="Arial" font-size="14.00">name_translations </text>
<text text-anchor="start" x="526.85" y="-993.4" font-family="Arial" font-size="14.00" fill="#666666">[jsonb]</text>
</g>
<!-- public.transport_hubs&#45;&gt;public.cities -->
<g id="edge2" class="edge">
<title>public.transport_hubs:city_id&#45;&gt;public.cities:id</title>
<path fill="none" stroke="black" d="M706.89,-1392.57C761.15,-1338.38 739.38,-804.8 676.88,-804.8"/>
<polygon fill="black" stroke="black" points="706.87,-1392.58 695.91,-1392.79 702.05,-1394.86 698.13,-1396.71 698.13,-1396.71 698.13,-1396.71 702.05,-1394.86 699.75,-1400.93 706.87,-1392.58"/>
<text text-anchor="start" x="588.9" y="-1381" font-family="Arial" font-size="10.00">FOREIGN KEY (city_id) REFERENCES cities(id)</text>
</g>
<!-- public.admin_boundaries -->
<g id="node4" class="node">
<title>public.admin_boundaries</title>
<polygon fill="#efefef" stroke="none" points="800.57,-1366.2 800.57,-1401.8 1121.52,-1401.8 1121.52,-1366.2 800.57,-1366.2"/>
<polygon fill="none" stroke="black" points="800.57,-1366.2 800.57,-1401.8 1121.52,-1401.8 1121.52,-1366.2 800.57,-1366.2"/>
<text text-anchor="start" x="807.57" y="-1379.6" font-family="Arial Bold" font-size="18.00">public.admin_boundaries</text>
<text text-anchor="start" x="990.03" y="-1379.6" font-family="Arial" font-size="14.00">    </text>
<text text-anchor="start" x="1021.14" y="-1379.6" font-family="Arial" font-size="14.00" fill="#666666">[BASE TABLE]</text>
<polygon fill="none" stroke="black" points="800.57,-1335.4 800.57,-1366.2 1121.52,-1366.2 1121.52,-1335.4 800.57,-1335.4"/>
<text text-anchor="start" x="807.57" y="-1347.6" font-family="Arial" font-size="14.00">id </text>
<text text-anchor="start" x="822.35" y="-1347.6" font-family="Arial" font-size="14.00" fill="#666666">[integer]</text>
<polygon fill="none" stroke="black" points="800.57,-1304.6 800.57,-1335.4 1121.52,-1335.4 1121.52,-1304.6 800.57,-1304.6"/>
<text text-anchor="start" x="807.57" y="-1316.8" font-family="Arial" font-size="14.00">geom </text>
<text text-anchor="start" x="846.48" y="-1316.8" font-family="Arial" font-size="14.00" fill="#666666">[geometry(MultiPolygon,4326)]</text>
<polygon fill="none" stroke="black" points="800.57,-1273.8 800.57,-1304.6 1121.52,-1304.6 1121.52,-1273.8 800.57,-1273.8"/>
<text text-anchor="start" x="807.57" y="-1286" font-family="Arial" font-size="14.00">created_at </text>
<text text-anchor="start" x="877.61" y="-1286" font-family="Arial" font-size="14.00" fill="#666666">[timestamp with time zone]</text>
<polygon fill="none" stroke="black" points="800.57,-1243 800.57,-1273.8 1121.52,-1273.8 1121.52,-1243 800.57,-1243"/>
<text text-anchor="start" x="807.57" y="-1255.2" font-family="Arial" font-size="14.00">admin_level </text>
<text text-anchor="start" x="886.17" y="-1255.2" font-family="Arial" font-size="14.00" fill="#666666">[integer]</text>
<polygon fill="none" stroke="black" points="800.57,-1212.2 800.57,-1243 1121.52,-1243 1121.52,-1212.2 800.57,-1212.2"/>
<text text-anchor="start" x="807.57" y="-1224.4" font-family="Arial" font-size="14.00">country_id </text>
<text text-anchor="start" x="876.05" y="-1224.4" font-family="Arial" font-size="14.00" fill="#666666">[text]</text>
<polygon fill="none" stroke="black" points="800.57,-1181.4 800.57,-1212.2 1121.52,-1212.2 1121.52,-1181.4 800.57,-1181.4"/>
<text text-anchor="start" x="807.57" y="-1193.6" font-family="Arial" font-size="14.00">prefecture_id </text>
<text text-anchor="start" x="893.17" y="-1193.6" font-family="Arial" font-size="14.00" fill="#666666">[text]</text>
<polygon fill="none" stroke="black" points="800.57,-1150.6 800.57,-1181.4 1121.52,-1181.4 1121.52,-1150.6 800.57,-1150.6"/>
<text text-anchor="start" x="807.57" y="-1162.8" font-family="Arial" font-size="14.00">city_id </text>
<text text-anchor="start" x="851.14" y="-1162.8" font-family="Arial" font-size="14.00" fill="#666666">[text]</text>
</g>
<!-- public.admin_boundaries&#45;&gt;public.cities -->
<g id="edge3" class="edge">
<title>public.admin_boundaries:city_id&#45;&gt;public.cities:id</title>
<path fill="none" stroke="black" d="M789.64,-1163.45C750.23,-1141.42 765.91,-983.2 749.04,-938 725.49,-874.92 744.21,-804.8 676.88,-804.8"/>
<polygon fill="black" stroke="black" points="789.56,-1163.43 798.12,-1170.27 794.72,-1164.75 798.92,-1165.83 798.92,-1165.83 798.92,-1165.83 794.72,-1164.75 800.36,-1161.56 789.56,-1163.43"/>
<text text-anchor="start" x="575.31" y="-1176" font-family="Arial" font-size="10.00">FOREIGN KEY (city_id) REFERENCES cities(id)</text>
</g>
</g>
</svg>
