<?xml version="1.0" encoding="UTF-8" standalone="no"?>
<!DOCTYPE svg PUBLIC "-//W3C//DTD SVG 1.1//EN"
 "http://www.w3.org/Graphics/SVG/1.1/DTD/svg11.dtd">
<!-- Generated by graphviz version 12.1.2 (20240928.0832)
 -->
<!-- Title: public.comments Pages: 1 -->
<svg width="1154pt" height="1961pt"
 viewBox="0.00 0.00 1154.32 1961.20" xmlns="http://www.w3.org/2000/svg" xmlns:xlink="http://www.w3.org/1999/xlink">
<g id="graph0" class="graph" transform="scale(1 1) rotate(0) translate(4 1957.2)">
<title>public.comments</title>
<polygon fill="white" stroke="none" points="-4,4 -4,-1957.2 1150.32,-1957.2 1150.32,4 -4,4"/>
<!-- public.comments -->
<g id="node1" class="node">
<title>public.comments</title>
<polygon fill="#efefef" stroke="none" points="477.15,-1405.4 477.15,-1441 739.11,-1441 739.11,-1405.4 477.15,-1405.4"/>
<polygon fill="none" stroke="black" points="477.15,-1405.4 477.15,-1441 739.11,-1441 739.11,-1405.4 477.15,-1405.4"/>
<text text-anchor="start" x="484.15" y="-1418.8" font-family="Arial Bold" font-size="18.00">public.comments</text>
<text text-anchor="start" x="607.62" y="-1418.8" font-family="Arial" font-size="14.00">    </text>
<text text-anchor="start" x="638.74" y="-1418.8" font-family="Arial" font-size="14.00" fill="#666666">[BASE TABLE]</text>
<polygon fill="none" stroke="black" points="477.15,-1374.6 477.15,-1405.4 739.11,-1405.4 739.11,-1374.6 477.15,-1374.6"/>
<text text-anchor="start" x="484.15" y="-1386.8" font-family="Arial" font-size="14.00">id </text>
<text text-anchor="start" x="498.93" y="-1386.8" font-family="Arial" font-size="14.00" fill="#666666">[uuid]</text>
<polygon fill="none" stroke="black" points="477.15,-1343.8 477.15,-1374.6 739.11,-1374.6 739.11,-1343.8 477.15,-1343.8"/>
<text text-anchor="start" x="484.15" y="-1356" font-family="Arial" font-size="14.00">user_id </text>
<text text-anchor="start" x="533.95" y="-1356" font-family="Arial" font-size="14.00" fill="#666666">[uuid]</text>
<polygon fill="none" stroke="black" points="477.15,-1313 477.15,-1343.8 739.11,-1343.8 739.11,-1313 477.15,-1313"/>
<text text-anchor="start" x="484.15" y="-1325.2" font-family="Arial" font-size="14.00">map_id </text>
<text text-anchor="start" x="533.95" y="-1325.2" font-family="Arial" font-size="14.00" fill="#666666">[uuid]</text>
<polygon fill="none" stroke="black" points="477.15,-1282.2 477.15,-1313 739.11,-1313 739.11,-1282.2 477.15,-1282.2"/>
<text text-anchor="start" x="484.15" y="-1294.4" font-family="Arial" font-size="14.00">user_spot_id </text>
<text text-anchor="start" x="568.2" y="-1294.4" font-family="Arial" font-size="14.00" fill="#666666">[uuid]</text>
<polygon fill="none" stroke="black" points="477.15,-1251.4 477.15,-1282.2 739.11,-1282.2 739.11,-1251.4 477.15,-1251.4"/>
<text text-anchor="start" x="484.15" y="-1263.6" font-family="Arial" font-size="14.00">content </text>
<text text-anchor="start" x="533.96" y="-1263.6" font-family="Arial" font-size="14.00" fill="#666666">[text]</text>
<polygon fill="none" stroke="black" points="477.15,-1220.6 477.15,-1251.4 739.11,-1251.4 739.11,-1220.6 477.15,-1220.6"/>
<text text-anchor="start" x="484.15" y="-1232.8" font-family="Arial" font-size="14.00">created_at </text>
<text text-anchor="start" x="554.19" y="-1232.8" font-family="Arial" font-size="14.00" fill="#666666">[timestamp with time zone]</text>
<polygon fill="none" stroke="black" points="477.15,-1189.8 477.15,-1220.6 739.11,-1220.6 739.11,-1189.8 477.15,-1189.8"/>
<text text-anchor="start" x="484.15" y="-1202" font-family="Arial" font-size="14.00">updated_at </text>
<text text-anchor="start" x="558.1" y="-1202" font-family="Arial" font-size="14.00" fill="#666666">[timestamp with time zone]</text>
<polygon fill="none" stroke="black" points="477.15,-1159 477.15,-1189.8 739.11,-1189.8 739.11,-1159 477.15,-1159"/>
<text text-anchor="start" x="484.15" y="-1171.2" font-family="Arial" font-size="14.00">parent_id </text>
<text text-anchor="start" x="546.42" y="-1171.2" font-family="Arial" font-size="14.00" fill="#666666">[uuid]</text>
<polygon fill="none" stroke="black" points="477.15,-1128.2 477.15,-1159 739.11,-1159 739.11,-1128.2 477.15,-1128.2"/>
<text text-anchor="start" x="484.15" y="-1140.4" font-family="Arial" font-size="14.00">root_id </text>
<text text-anchor="start" x="530.84" y="-1140.4" font-family="Arial" font-size="14.00" fill="#666666">[uuid]</text>
<polygon fill="none" stroke="black" points="477.15,-1097.4 477.15,-1128.2 739.11,-1128.2 739.11,-1097.4 477.15,-1097.4"/>
<text text-anchor="start" x="484.15" y="-1109.6" font-family="Arial" font-size="14.00">depth </text>
<text text-anchor="start" x="523.07" y="-1109.6" font-family="Arial" font-size="14.00" fill="#666666">[integer]</text>
<polygon fill="none" stroke="black" points="477.15,-1066.6 477.15,-1097.4 739.11,-1097.4 739.11,-1066.6 477.15,-1066.6"/>
<text text-anchor="start" x="484.15" y="-1078.8" font-family="Arial" font-size="14.00">likes_count </text>
<text text-anchor="start" x="558.08" y="-1078.8" font-family="Arial" font-size="14.00" fill="#666666">[integer]</text>
<polygon fill="none" stroke="black" points="477.15,-1035.8 477.15,-1066.6 739.11,-1066.6 739.11,-1035.8 477.15,-1035.8"/>
<text text-anchor="start" x="484.15" y="-1048" font-family="Arial" font-size="14.00">replies_count </text>
<text text-anchor="start" x="571.31" y="-1048" font-family="Arial" font-size="14.00" fill="#666666">[integer]</text>
<polygon fill="none" stroke="black" stroke-width="3" points="475.65,-1034.3 475.65,-1442.5 740.61,-1442.5 740.61,-1034.3 475.65,-1034.3"/>
</g>
<!-- public.comments&#45;&gt;public.comments -->
<g id="edge1" class="edge">
<title>public.comments:parent_id&#45;&gt;public.comments:id</title>
<path fill="none" stroke="black" d="M609.37,-1200C617.11,-1377.97 616.7,-1737.1 608.13,-1737.1 599.4,-1737.1 599.14,-1567.02 607.34,-1405.13"/>
<polygon fill="black" stroke="black" points="609.37,-1199.91 613.41,-1189.72 609.12,-1194.58 608.93,-1190.26 608.93,-1190.26 608.93,-1190.26 609.12,-1194.58 604.42,-1190.13 609.37,-1199.91"/>
<text text-anchor="start" x="237.37" y="-1199.59" font-family="Arial" font-size="10.00">FOREIGN KEY (parent_id) REFERENCES comments(id) ON DELETE CASCADE</text>
</g>
<!-- public.comments&#45;&gt;public.comments -->
<g id="edge2" class="edge">
<title>public.comments:root_id&#45;&gt;public.comments:id</title>
<path fill="none" stroke="black" d="M609.36,-1169.14C617.11,-1349.69 616.7,-1737.1 608.13,-1737.1 599.4,-1737.1 599.14,-1567.02 607.34,-1405.13"/>
<polygon fill="black" stroke="black" points="609.36,-1169.19 613.41,-1159 609.12,-1163.86 608.93,-1159.53 608.93,-1159.53 608.93,-1159.53 609.12,-1163.86 604.42,-1159.4 609.36,-1169.19"/>
<text text-anchor="start" x="248.49" y="-1168.87" font-family="Arial" font-size="10.00">FOREIGN KEY (root_id) REFERENCES comments(id) ON DELETE CASCADE</text>
</g>
<!-- public.users -->
<g id="node4" class="node">
<title>public.users</title>
<polygon fill="#efefef" stroke="none" points="43.2,-659.2 43.2,-694.8 377.06,-694.8 377.06,-659.2 43.2,-659.2"/>
<polygon fill="none" stroke="black" points="43.2,-659.2 43.2,-694.8 377.06,-694.8 377.06,-659.2 43.2,-659.2"/>
<text text-anchor="start" x="104.64" y="-672.6" font-family="Arial Bold" font-size="18.00">public.users</text>
<text text-anchor="start" x="191.13" y="-672.6" font-family="Arial" font-size="14.00">    </text>
<text text-anchor="start" x="222.24" y="-672.6" font-family="Arial" font-size="14.00" fill="#666666">[BASE TABLE]</text>
<polygon fill="none" stroke="black" points="43.2,-628.4 43.2,-659.2 377.06,-659.2 377.06,-628.4 43.2,-628.4"/>
<text text-anchor="start" x="50.2" y="-640.6" font-family="Arial" font-size="14.00">id </text>
<text text-anchor="start" x="64.99" y="-640.6" font-family="Arial" font-size="14.00" fill="#666666">[uuid]</text>
<polygon fill="none" stroke="black" points="43.2,-597.6 43.2,-628.4 377.06,-628.4 377.06,-597.6 43.2,-597.6"/>
<text text-anchor="start" x="50.2" y="-609.8" font-family="Arial" font-size="14.00">email </text>
<text text-anchor="start" x="87.54" y="-609.8" font-family="Arial" font-size="14.00" fill="#666666">[text]</text>
<polygon fill="none" stroke="black" points="43.2,-566.8 43.2,-597.6 377.06,-597.6 377.06,-566.8 43.2,-566.8"/>
<text text-anchor="start" x="50.2" y="-579" font-family="Arial" font-size="14.00">username </text>
<text text-anchor="start" x="116.34" y="-579" font-family="Arial" font-size="14.00" fill="#666666">[text]</text>
<polygon fill="none" stroke="black" points="43.2,-536 43.2,-566.8 377.06,-566.8 377.06,-536 43.2,-536"/>
<text text-anchor="start" x="50.2" y="-548.2" font-family="Arial" font-size="14.00">display_name </text>
<text text-anchor="start" x="140.48" y="-548.2" font-family="Arial" font-size="14.00" fill="#666666">[text]</text>
<polygon fill="none" stroke="black" points="43.2,-505.2 43.2,-536 377.06,-536 377.06,-505.2 43.2,-505.2"/>
<text text-anchor="start" x="50.2" y="-517.4" font-family="Arial" font-size="14.00">avatar_url </text>
<text text-anchor="start" x="116.34" y="-517.4" font-family="Arial" font-size="14.00" fill="#666666">[text]</text>
<polygon fill="none" stroke="black" points="43.2,-474.4 43.2,-505.2 377.06,-505.2 377.06,-474.4 43.2,-474.4"/>
<text text-anchor="start" x="50.2" y="-486.6" font-family="Arial" font-size="14.00">bio </text>
<text text-anchor="start" x="72.77" y="-486.6" font-family="Arial" font-size="14.00" fill="#666666">[text]</text>
<polygon fill="none" stroke="black" points="43.2,-443.6 43.2,-474.4 377.06,-474.4 377.06,-443.6 43.2,-443.6"/>
<text text-anchor="start" x="50.2" y="-455.8" font-family="Arial" font-size="14.00">is_premium </text>
<text text-anchor="start" x="126.44" y="-455.8" font-family="Arial" font-size="14.00" fill="#666666">[boolean]</text>
<polygon fill="none" stroke="black" points="43.2,-412.8 43.2,-443.6 377.06,-443.6 377.06,-412.8 43.2,-412.8"/>
<text text-anchor="start" x="50.2" y="-425" font-family="Arial" font-size="14.00">premium_started_at </text>
<text text-anchor="start" x="178.59" y="-425" font-family="Arial" font-size="14.00" fill="#666666">[timestamp with time zone]</text>
<polygon fill="none" stroke="black" points="43.2,-382 43.2,-412.8 377.06,-412.8 377.06,-382 43.2,-382"/>
<text text-anchor="start" x="50.2" y="-394.2" font-family="Arial" font-size="14.00">premium_expires_at </text>
<text text-anchor="start" x="180.92" y="-394.2" font-family="Arial" font-size="14.00" fill="#666666">[timestamp with time zone]</text>
<polygon fill="none" stroke="black" points="43.2,-351.2 43.2,-382 377.06,-382 377.06,-351.2 43.2,-351.2"/>
<text text-anchor="start" x="50.2" y="-363.4" font-family="Arial" font-size="14.00">created_at </text>
<text text-anchor="start" x="120.25" y="-363.4" font-family="Arial" font-size="14.00" fill="#666666">[timestamp with time zone]</text>
<polygon fill="none" stroke="black" points="43.2,-320.4 43.2,-351.2 377.06,-351.2 377.06,-320.4 43.2,-320.4"/>
<text text-anchor="start" x="50.2" y="-332.6" font-family="Arial" font-size="14.00">updated_at </text>
<text text-anchor="start" x="124.16" y="-332.6" font-family="Arial" font-size="14.00" fill="#666666">[timestamp with time zone]</text>
<polygon fill="none" stroke="black" points="43.2,-289.6 43.2,-320.4 377.06,-320.4 377.06,-289.6 43.2,-289.6"/>
<text text-anchor="start" x="50.2" y="-301.8" font-family="Arial" font-size="14.00">push_token </text>
<text text-anchor="start" x="126.48" y="-301.8" font-family="Arial" font-size="14.00" fill="#666666">[text]</text>
<polygon fill="none" stroke="black" points="43.2,-258.8 43.2,-289.6 377.06,-289.6 377.06,-258.8 43.2,-258.8"/>
<text text-anchor="start" x="50.2" y="-271" font-family="Arial" font-size="14.00">push_token_updated_at </text>
<text text-anchor="start" x="204.34" y="-271" font-family="Arial" font-size="14.00" fill="#666666">[timestamp with time zone]</text>
</g>
<!-- public.comments&#45;&gt;public.users -->
<g id="edge5" class="edge">
<title>public.comments:user_id&#45;&gt;public.users:id</title>
<path fill="none" stroke="black" d="M466.57,-1355.35C401.01,-1299.04 454.85,-643.8 378.06,-643.8"/>
<polygon fill="black" stroke="black" points="466.56,-1355.35 474.16,-1363.25 471.51,-1357.34 475.53,-1358.95 475.53,-1358.95 475.53,-1358.95 471.51,-1357.34 477.51,-1354.9 466.56,-1355.35"/>
<text text-anchor="start" x="245.77" y="-1369.2" font-family="Arial" font-size="10.00">FOREIGN KEY (user_id) REFERENCES users(id)</text>
</g>
<!-- public.maps -->
<g id="node5" class="node">
<title>public.maps</title>
<polygon fill="#efefef" stroke="none" points="481.29,-736.2 481.29,-771.8 734.97,-771.8 734.97,-736.2 481.29,-736.2"/>
<polygon fill="none" stroke="black" points="481.29,-736.2 481.29,-771.8 734.97,-771.8 734.97,-736.2 481.29,-736.2"/>
<text text-anchor="start" x="502.14" y="-749.6" font-family="Arial Bold" font-size="18.00">public.maps</text>
<text text-anchor="start" x="589.63" y="-749.6" font-family="Arial" font-size="14.00">    </text>
<text text-anchor="start" x="620.75" y="-749.6" font-family="Arial" font-size="14.00" fill="#666666">[BASE TABLE]</text>
<polygon fill="none" stroke="black" points="481.29,-705.4 481.29,-736.2 734.97,-736.2 734.97,-705.4 481.29,-705.4"/>
<text text-anchor="start" x="488.29" y="-717.6" font-family="Arial" font-size="14.00">id </text>
<text text-anchor="start" x="503.08" y="-717.6" font-family="Arial" font-size="14.00" fill="#666666">[uuid]</text>
<polygon fill="none" stroke="black" points="481.29,-674.6 481.29,-705.4 734.97,-705.4 734.97,-674.6 481.29,-674.6"/>
<text text-anchor="start" x="488.29" y="-686.8" font-family="Arial" font-size="14.00">user_id </text>
<text text-anchor="start" x="538.1" y="-686.8" font-family="Arial" font-size="14.00" fill="#666666">[uuid]</text>
<polygon fill="none" stroke="black" points="481.29,-643.8 481.29,-674.6 734.97,-674.6 734.97,-643.8 481.29,-643.8"/>
<text text-anchor="start" x="488.29" y="-656" font-family="Arial" font-size="14.00">name </text>
<text text-anchor="start" x="527.2" y="-656" font-family="Arial" font-size="14.00" fill="#666666">[text]</text>
<polygon fill="none" stroke="black" points="481.29,-613 481.29,-643.8 734.97,-643.8 734.97,-613 481.29,-613"/>
<text text-anchor="start" x="488.29" y="-625.2" font-family="Arial" font-size="14.00">description </text>
<text text-anchor="start" x="559.88" y="-625.2" font-family="Arial" font-size="14.00" fill="#666666">[text]</text>
<polygon fill="none" stroke="black" points="481.29,-582.2 481.29,-613 734.97,-613 734.97,-582.2 481.29,-582.2"/>
<text text-anchor="start" x="488.29" y="-594.4" font-family="Arial" font-size="14.00">is_public </text>
<text text-anchor="start" x="546.65" y="-594.4" font-family="Arial" font-size="14.00" fill="#666666">[boolean]</text>
<polygon fill="none" stroke="black" points="481.29,-551.4 481.29,-582.2 734.97,-582.2 734.97,-551.4 481.29,-551.4"/>
<text text-anchor="start" x="488.29" y="-563.6" font-family="Arial" font-size="14.00">is_official </text>
<text text-anchor="start" x="549.76" y="-563.6" font-family="Arial" font-size="14.00" fill="#666666">[boolean]</text>
<polygon fill="none" stroke="black" points="481.29,-520.6 481.29,-551.4 734.97,-551.4 734.97,-520.6 481.29,-520.6"/>
<text text-anchor="start" x="488.29" y="-532.8" font-family="Arial" font-size="14.00">thumbnail_url </text>
<text text-anchor="start" x="576.23" y="-532.8" font-family="Arial" font-size="14.00" fill="#666666">[text]</text>
<polygon fill="none" stroke="black" points="481.29,-489.8 481.29,-520.6 734.97,-520.6 734.97,-489.8 481.29,-489.8"/>
<text text-anchor="start" x="488.29" y="-502" font-family="Arial" font-size="14.00">spots_count </text>
<text text-anchor="start" x="567.68" y="-502" font-family="Arial" font-size="14.00" fill="#666666">[integer]</text>
<polygon fill="none" stroke="black" points="481.29,-459 481.29,-489.8 734.97,-489.8 734.97,-459 481.29,-459"/>
<text text-anchor="start" x="488.29" y="-471.2" font-family="Arial" font-size="14.00">likes_count </text>
<text text-anchor="start" x="562.22" y="-471.2" font-family="Arial" font-size="14.00" fill="#666666">[integer]</text>
<polygon fill="none" stroke="black" points="481.29,-428.2 481.29,-459 734.97,-459 734.97,-428.2 481.29,-428.2"/>
<text text-anchor="start" x="488.29" y="-440.4" font-family="Arial" font-size="14.00">created_at </text>
<text text-anchor="start" x="558.34" y="-440.4" font-family="Arial" font-size="14.00" fill="#666666">[timestamp with time zone]</text>
<polygon fill="none" stroke="black" points="481.29,-397.4 481.29,-428.2 734.97,-428.2 734.97,-397.4 481.29,-397.4"/>
<text text-anchor="start" x="488.29" y="-409.6" font-family="Arial" font-size="14.00">updated_at </text>
<text text-anchor="start" x="562.25" y="-409.6" font-family="Arial" font-size="14.00" fill="#666666">[timestamp with time zone]</text>
<polygon fill="none" stroke="black" points="481.29,-366.6 481.29,-397.4 734.97,-397.4 734.97,-366.6 481.29,-366.6"/>
<text text-anchor="start" x="488.29" y="-378.8" font-family="Arial" font-size="14.00">comments_count </text>
<text text-anchor="start" x="598.79" y="-378.8" font-family="Arial" font-size="14.00" fill="#666666">[integer]</text>
<polygon fill="none" stroke="black" points="481.29,-335.8 481.29,-366.6 734.97,-366.6 734.97,-335.8 481.29,-335.8"/>
<text text-anchor="start" x="488.29" y="-348" font-family="Arial" font-size="14.00">is_article_public </text>
<text text-anchor="start" x="591.79" y="-348" font-family="Arial" font-size="14.00" fill="#666666">[boolean]</text>
<polygon fill="none" stroke="black" points="481.29,-305 481.29,-335.8 734.97,-335.8 734.97,-305 481.29,-305"/>
<text text-anchor="start" x="488.29" y="-317.2" font-family="Arial" font-size="14.00">bookmarks_count </text>
<text text-anchor="start" x="602.68" y="-317.2" font-family="Arial" font-size="14.00" fill="#666666">[integer]</text>
<polygon fill="none" stroke="black" points="481.29,-274.2 481.29,-305 734.97,-305 734.97,-274.2 481.29,-274.2"/>
<text text-anchor="start" x="488.29" y="-286.4" font-family="Arial" font-size="14.00">category_id </text>
<text text-anchor="start" x="564.56" y="-286.4" font-family="Arial" font-size="14.00" fill="#666666">[text]</text>
<polygon fill="none" stroke="black" points="481.29,-243.4 481.29,-274.2 734.97,-274.2 734.97,-243.4 481.29,-243.4"/>
<text text-anchor="start" x="488.29" y="-255.6" font-family="Arial" font-size="14.00">article_intro </text>
<text text-anchor="start" x="564.54" y="-255.6" font-family="Arial" font-size="14.00" fill="#666666">[jsonb]</text>
<polygon fill="none" stroke="black" points="481.29,-212.6 481.29,-243.4 734.97,-243.4 734.97,-212.6 481.29,-212.6"/>
<text text-anchor="start" x="488.29" y="-224.8" font-family="Arial" font-size="14.00">article_outro </text>
<text text-anchor="start" x="569.22" y="-224.8" font-family="Arial" font-size="14.00" fill="#666666">[jsonb]</text>
<polygon fill="none" stroke="black" points="481.29,-181.8 481.29,-212.6 734.97,-212.6 734.97,-181.8 481.29,-181.8"/>
<text text-anchor="start" x="488.29" y="-194" font-family="Arial" font-size="14.00">show_label_chips </text>
<text text-anchor="start" x="602.7" y="-194" font-family="Arial" font-size="14.00" fill="#666666">[boolean]</text>
</g>
<!-- public.comments&#45;&gt;public.maps -->
<g id="edge6" class="edge">
<title>public.comments:map_id&#45;&gt;public.maps:id</title>
<path fill="none" stroke="black" d="M749.49,-1324.2C807.07,-1270.51 800.19,-720.8 735.97,-720.8"/>
<polygon fill="black" stroke="black" points="749.54,-1324.17 738.58,-1324.16 744.68,-1326.35 740.72,-1328.13 740.72,-1328.13 740.72,-1328.13 744.68,-1326.35 742.26,-1332.37 749.54,-1324.17"/>
<text text-anchor="start" x="747.11" y="-1338.4" font-family="Arial" font-size="10.00">FOREIGN KEY (map_id) REFERENCES maps(id) ON DELETE CASCADE</text>
</g>
<!-- public.user_spots -->
<g id="node6" class="node">
<title>public.user_spots</title>
<polygon fill="#efefef" stroke="none" points="839.14,-874.8 839.14,-910.4 1103.12,-910.4 1103.12,-874.8 839.14,-874.8"/>
<polygon fill="none" stroke="black" points="839.14,-874.8 839.14,-910.4 1103.12,-910.4 1103.12,-874.8 839.14,-874.8"/>
<text text-anchor="start" x="846.14" y="-888.2" font-family="Arial Bold" font-size="18.00">public.user_spots</text>
<text text-anchor="start" x="971.63" y="-888.2" font-family="Arial" font-size="14.00">    </text>
<text text-anchor="start" x="1002.75" y="-888.2" font-family="Arial" font-size="14.00" fill="#666666">[BASE TABLE]</text>
<polygon fill="none" stroke="black" points="839.14,-844 839.14,-874.8 1103.12,-874.8 1103.12,-844 839.14,-844"/>
<text text-anchor="start" x="846.14" y="-856.2" font-family="Arial" font-size="14.00">id </text>
<text text-anchor="start" x="860.93" y="-856.2" font-family="Arial" font-size="14.00" fill="#666666">[uuid]</text>
<polygon fill="none" stroke="black" points="839.14,-813.2 839.14,-844 1103.12,-844 1103.12,-813.2 839.14,-813.2"/>
<text text-anchor="start" x="846.14" y="-825.4" font-family="Arial" font-size="14.00">user_id </text>
<text text-anchor="start" x="895.95" y="-825.4" font-family="Arial" font-size="14.00" fill="#666666">[uuid]</text>
<polygon fill="none" stroke="black" points="839.14,-782.4 839.14,-813.2 1103.12,-813.2 1103.12,-782.4 839.14,-782.4"/>
<text text-anchor="start" x="846.14" y="-794.6" font-family="Arial" font-size="14.00">map_id </text>
<text text-anchor="start" x="895.95" y="-794.6" font-family="Arial" font-size="14.00" fill="#666666">[uuid]</text>
<polygon fill="none" stroke="black" points="839.14,-751.6 839.14,-782.4 1103.12,-782.4 1103.12,-751.6 839.14,-751.6"/>
<text text-anchor="start" x="846.14" y="-763.8" font-family="Arial" font-size="14.00">master_spot_id </text>
<text text-anchor="start" x="945.75" y="-763.8" font-family="Arial" font-size="14.00" fill="#666666">[uuid]</text>
<polygon fill="none" stroke="black" points="839.14,-720.8 839.14,-751.6 1103.12,-751.6 1103.12,-720.8 839.14,-720.8"/>
<text text-anchor="start" x="846.14" y="-733" font-family="Arial" font-size="14.00">machi_id </text>
<text text-anchor="start" x="906.06" y="-733" font-family="Arial" font-size="14.00" fill="#666666">[text]</text>
<polygon fill="none" stroke="black" points="839.14,-690 839.14,-720.8 1103.12,-720.8 1103.12,-690 839.14,-690"/>
<text text-anchor="start" x="846.14" y="-702.2" font-family="Arial" font-size="14.00">custom_name </text>
<text text-anchor="start" x="937.96" y="-702.2" font-family="Arial" font-size="14.00" fill="#666666">[text]</text>
<polygon fill="none" stroke="black" points="839.14,-659.2 839.14,-690 1103.12,-690 1103.12,-659.2 839.14,-659.2"/>
<text text-anchor="start" x="846.14" y="-671.4" font-family="Arial" font-size="14.00">description </text>
<text text-anchor="start" x="917.73" y="-671.4" font-family="Arial" font-size="14.00" fill="#666666">[text]</text>
<polygon fill="none" stroke="black" points="839.14,-628.4 839.14,-659.2 1103.12,-659.2 1103.12,-628.4 839.14,-628.4"/>
<text text-anchor="start" x="846.14" y="-640.6" font-family="Arial" font-size="14.00">images_count </text>
<text text-anchor="start" x="937.2" y="-640.6" font-family="Arial" font-size="14.00" fill="#666666">[integer]</text>
<polygon fill="none" stroke="black" points="839.14,-597.6 839.14,-628.4 1103.12,-628.4 1103.12,-597.6 839.14,-597.6"/>
<text text-anchor="start" x="846.14" y="-609.8" font-family="Arial" font-size="14.00">likes_count </text>
<text text-anchor="start" x="920.07" y="-609.8" font-family="Arial" font-size="14.00" fill="#666666">[integer]</text>
<polygon fill="none" stroke="black" points="839.14,-566.8 839.14,-597.6 1103.12,-597.6 1103.12,-566.8 839.14,-566.8"/>
<text text-anchor="start" x="846.14" y="-579" font-family="Arial" font-size="14.00">comments_count </text>
<text text-anchor="start" x="956.64" y="-579" font-family="Arial" font-size="14.00" fill="#666666">[integer]</text>
<polygon fill="none" stroke="black" points="839.14,-536 839.14,-566.8 1103.12,-566.8 1103.12,-536 839.14,-536"/>
<text text-anchor="start" x="846.14" y="-548.2" font-family="Arial" font-size="14.00">order_index </text>
<text text-anchor="start" x="923.97" y="-548.2" font-family="Arial" font-size="14.00" fill="#666666">[integer]</text>
<polygon fill="none" stroke="black" points="839.14,-505.2 839.14,-536 1103.12,-536 1103.12,-505.2 839.14,-505.2"/>
<text text-anchor="start" x="846.14" y="-517.4" font-family="Arial" font-size="14.00">created_at </text>
<text text-anchor="start" x="916.19" y="-517.4" font-family="Arial" font-size="14.00" fill="#666666">[timestamp with time zone]</text>
<polygon fill="none" stroke="black" points="839.14,-474.4 839.14,-505.2 1103.12,-505.2 1103.12,-474.4 839.14,-474.4"/>
<text text-anchor="start" x="846.14" y="-486.6" font-family="Arial" font-size="14.00">updated_at </text>
<text text-anchor="start" x="920.1" y="-486.6" font-family="Arial" font-size="14.00" fill="#666666">[timestamp with time zone]</text>
<polygon fill="none" stroke="black" points="839.14,-443.6 839.14,-474.4 1103.12,-474.4 1103.12,-443.6 839.14,-443.6"/>
<text text-anchor="start" x="846.14" y="-455.8" font-family="Arial" font-size="14.00">article_content </text>
<text text-anchor="start" x="941.08" y="-455.8" font-family="Arial" font-size="14.00" fill="#666666">[jsonb]</text>
<polygon fill="none" stroke="black" points="839.14,-412.8 839.14,-443.6 1103.12,-443.6 1103.12,-412.8 839.14,-412.8"/>
<text text-anchor="start" x="846.14" y="-425" font-family="Arial" font-size="14.00">latitude </text>
<text text-anchor="start" x="895.17" y="-425" font-family="Arial" font-size="14.00" fill="#666666">[double precision]</text>
<polygon fill="none" stroke="black" points="839.14,-382 839.14,-412.8 1103.12,-412.8 1103.12,-382 839.14,-382"/>
<text text-anchor="start" x="846.14" y="-394.2" font-family="Arial" font-size="14.00">longitude </text>
<text text-anchor="start" x="906.86" y="-394.2" font-family="Arial" font-size="14.00" fill="#666666">[double precision]</text>
<polygon fill="none" stroke="black" points="839.14,-351.2 839.14,-382 1103.12,-382 1103.12,-351.2 839.14,-351.2"/>
<text text-anchor="start" x="846.14" y="-363.4" font-family="Arial" font-size="14.00">google_formatted_address </text>
<text text-anchor="start" x="1016.59" y="-363.4" font-family="Arial" font-size="14.00" fill="#666666">[text]</text>
<polygon fill="none" stroke="black" points="839.14,-320.4 839.14,-351.2 1103.12,-351.2 1103.12,-320.4 839.14,-320.4"/>
<text text-anchor="start" x="846.14" y="-332.6" font-family="Arial" font-size="14.00">google_short_address </text>
<text text-anchor="start" x="988.57" y="-332.6" font-family="Arial" font-size="14.00" fill="#666666">[text]</text>
<polygon fill="none" stroke="black" points="839.14,-289.6 839.14,-320.4 1103.12,-320.4 1103.12,-289.6 839.14,-289.6"/>
<text text-anchor="start" x="846.14" y="-301.8" font-family="Arial" font-size="14.00">bookmarks_count </text>
<text text-anchor="start" x="960.53" y="-301.8" font-family="Arial" font-size="14.00" fill="#666666">[integer]</text>
<polygon fill="none" stroke="black" points="839.14,-258.8 839.14,-289.6 1103.12,-289.6 1103.12,-258.8 839.14,-258.8"/>
<text text-anchor="start" x="846.14" y="-271" font-family="Arial" font-size="14.00">prefecture_id </text>
<text text-anchor="start" x="931.75" y="-271" font-family="Arial" font-size="14.00" fill="#666666">[text]</text>
<polygon fill="none" stroke="black" points="839.14,-228 839.14,-258.8 1103.12,-258.8 1103.12,-228 839.14,-228"/>
<text text-anchor="start" x="846.14" y="-240.2" font-family="Arial" font-size="14.00">color </text>
<text text-anchor="start" x="880.37" y="-240.2" font-family="Arial" font-size="14.00" fill="#666666">[text]</text>
<polygon fill="none" stroke="black" points="839.14,-197.2 839.14,-228 1103.12,-228 1103.12,-197.2 839.14,-197.2"/>
<text text-anchor="start" x="846.14" y="-209.4" font-family="Arial" font-size="14.00">spot_color </text>
<text text-anchor="start" x="914.62" y="-209.4" font-family="Arial" font-size="14.00" fill="#666666">[text]</text>
<polygon fill="none" stroke="black" points="839.14,-166.4 839.14,-197.2 1103.12,-197.2 1103.12,-166.4 839.14,-166.4"/>
<text text-anchor="start" x="846.14" y="-178.6" font-family="Arial" font-size="14.00">label_id </text>
<text text-anchor="start" x="898.29" y="-178.6" font-family="Arial" font-size="14.00" fill="#666666">[uuid]</text>
<polygon fill="none" stroke="black" points="839.14,-135.6 839.14,-166.4 1103.12,-166.4 1103.12,-135.6 839.14,-135.6"/>
<text text-anchor="start" x="846.14" y="-147.8" font-family="Arial" font-size="14.00">city_id </text>
<text text-anchor="start" x="889.71" y="-147.8" font-family="Arial" font-size="14.00" fill="#666666">[text]</text>
<polygon fill="none" stroke="black" points="839.14,-104.8 839.14,-135.6 1103.12,-135.6 1103.12,-104.8 839.14,-104.8"/>
<text text-anchor="start" x="846.14" y="-117" font-family="Arial" font-size="14.00">prefecture_name </text>
<text text-anchor="start" x="955.87" y="-117" font-family="Arial" font-size="14.00" fill="#666666">[text]</text>
<polygon fill="none" stroke="black" points="839.14,-74 839.14,-104.8 1103.12,-104.8 1103.12,-74 839.14,-74"/>
<text text-anchor="start" x="846.14" y="-86.2" font-family="Arial" font-size="14.00">city_name </text>
<text text-anchor="start" x="913.84" y="-86.2" font-family="Arial" font-size="14.00" fill="#666666">[text]</text>
<polygon fill="none" stroke="black" points="839.14,-43.2 839.14,-74 1103.12,-74 1103.12,-43.2 839.14,-43.2"/>
<text text-anchor="start" x="846.14" y="-55.4" font-family="Arial" font-size="14.00">machi_name </text>
<text text-anchor="start" x="930.18" y="-55.4" font-family="Arial" font-size="14.00" fill="#666666">[text]</text>
</g>
<!-- public.comments&#45;&gt;public.user_spots -->
<g id="edge7" class="edge">
<title>public.comments:user_spot_id&#45;&gt;public.user_spots:id</title>
<path fill="none" stroke="black" d="M750.16,-1295.93C832.82,-1266.51 741.96,-859.4 838.14,-859.4"/>
<polygon fill="black" stroke="black" points="750.31,-1295.9 739.7,-1293.11 745.05,-1296.78 740.77,-1297.49 740.77,-1297.49 740.77,-1297.49 745.05,-1296.78 741.18,-1301.98 750.31,-1295.9"/>
<text text-anchor="start" x="747.11" y="-1307.6" font-family="Arial" font-size="10.00">FOREIGN KEY (user_spot_id) REFERENCES user_spots(id) ON DELETE CASCADE</text>
</g>
<!-- public.notifications -->
<g id="node2" class="node">
<title>public.notifications</title>
<polygon fill="#efefef" stroke="none" points="273.15,-1874.4 273.15,-1910 551.11,-1910 551.11,-1874.4 273.15,-1874.4"/>
<polygon fill="none" stroke="black" points="273.15,-1874.4 273.15,-1910 551.11,-1910 551.11,-1874.4 273.15,-1874.4"/>
<text text-anchor="start" x="280.15" y="-1887.8" font-family="Arial Bold" font-size="18.00">public.notifications</text>
<text text-anchor="start" x="419.62" y="-1887.8" font-family="Arial" font-size="14.00">    </text>
<text text-anchor="start" x="450.74" y="-1887.8" font-family="Arial" font-size="14.00" fill="#666666">[BASE TABLE]</text>
<polygon fill="none" stroke="black" points="273.15,-1843.6 273.15,-1874.4 551.11,-1874.4 551.11,-1843.6 273.15,-1843.6"/>
<text text-anchor="start" x="280.15" y="-1855.8" font-family="Arial" font-size="14.00">id </text>
<text text-anchor="start" x="294.93" y="-1855.8" font-family="Arial" font-size="14.00" fill="#666666">[uuid]</text>
<polygon fill="none" stroke="black" points="273.15,-1812.8 273.15,-1843.6 551.11,-1843.6 551.11,-1812.8 273.15,-1812.8"/>
<text text-anchor="start" x="280.15" y="-1825" font-family="Arial" font-size="14.00">user_id </text>
<text text-anchor="start" x="329.96" y="-1825" font-family="Arial" font-size="14.00" fill="#666666">[uuid]</text>
<polygon fill="none" stroke="black" points="273.15,-1782 273.15,-1812.8 551.11,-1812.8 551.11,-1782 273.15,-1782"/>
<text text-anchor="start" x="280.15" y="-1794.2" font-family="Arial" font-size="14.00">actor_id </text>
<text text-anchor="start" x="333.85" y="-1794.2" font-family="Arial" font-size="14.00" fill="#666666">[uuid]</text>
<polygon fill="none" stroke="black" points="273.15,-1751.2 273.15,-1782 551.11,-1782 551.11,-1751.2 273.15,-1751.2"/>
<text text-anchor="start" x="280.15" y="-1763.4" font-family="Arial" font-size="14.00">type </text>
<text text-anchor="start" x="310.5" y="-1763.4" font-family="Arial" font-size="14.00" fill="#666666">[text]</text>
<polygon fill="none" stroke="black" points="273.15,-1720.4 273.15,-1751.2 551.11,-1751.2 551.11,-1720.4 273.15,-1720.4"/>
<text text-anchor="start" x="280.15" y="-1732.6" font-family="Arial" font-size="14.00">user_spot_id </text>
<text text-anchor="start" x="364.2" y="-1732.6" font-family="Arial" font-size="14.00" fill="#666666">[uuid]</text>
<polygon fill="none" stroke="black" points="273.15,-1689.6 273.15,-1720.4 551.11,-1720.4 551.11,-1689.6 273.15,-1689.6"/>
<text text-anchor="start" x="280.15" y="-1701.8" font-family="Arial" font-size="14.00">map_id </text>
<text text-anchor="start" x="329.96" y="-1701.8" font-family="Arial" font-size="14.00" fill="#666666">[uuid]</text>
<polygon fill="none" stroke="black" points="273.15,-1658.8 273.15,-1689.6 551.11,-1689.6 551.11,-1658.8 273.15,-1658.8"/>
<text text-anchor="start" x="280.15" y="-1671" font-family="Arial" font-size="14.00">comment_id </text>
<text text-anchor="start" x="360.29" y="-1671" font-family="Arial" font-size="14.00" fill="#666666">[uuid]</text>
<polygon fill="none" stroke="black" points="273.15,-1628 273.15,-1658.8 551.11,-1658.8 551.11,-1628 273.15,-1628"/>
<text text-anchor="start" x="280.15" y="-1640.2" font-family="Arial" font-size="14.00">content </text>
<text text-anchor="start" x="329.96" y="-1640.2" font-family="Arial" font-size="14.00" fill="#666666">[text]</text>
<polygon fill="none" stroke="black" points="273.15,-1597.2 273.15,-1628 551.11,-1628 551.11,-1597.2 273.15,-1597.2"/>
<text text-anchor="start" x="280.15" y="-1609.4" font-family="Arial" font-size="14.00">is_read </text>
<text text-anchor="start" x="329.96" y="-1609.4" font-family="Arial" font-size="14.00" fill="#666666">[boolean]</text>
<polygon fill="none" stroke="black" points="273.15,-1566.4 273.15,-1597.2 551.11,-1597.2 551.11,-1566.4 273.15,-1566.4"/>
<text text-anchor="start" x="280.15" y="-1578.6" font-family="Arial" font-size="14.00">created_at </text>
<text text-anchor="start" x="350.2" y="-1578.6" font-family="Arial" font-size="14.00" fill="#666666">[timestamp with time zone]</text>
</g>
<!-- public.notifications&#45;&gt;public.comments -->
<g id="edge3" class="edge">
<title>public.notifications:comment_id&#45;&gt;public.comments:id</title>
<path fill="none" stroke="black" d="M562.25,-1673.38C615.68,-1664.01 584.93,-1576.88 551.11,-1523.2 531.62,-1492.27 496.69,-1518.1 477.15,-1487.2 454.05,-1450.69 432.94,-1390 476.15,-1390"/>
<polygon fill="black" stroke="black" points="562.41,-1673.36 552.08,-1669.69 557.1,-1673.79 552.78,-1674.15 552.78,-1674.15 552.78,-1674.15 557.1,-1673.79 552.81,-1678.66 562.41,-1673.36"/>
<text text-anchor="start" x="167.81" y="-1684.2" font-family="Arial" font-size="10.00">FOREIGN KEY (comment_id) REFERENCES comments(id) ON DELETE CASCADE</text>
</g>
<!-- public.comment_likes -->
<g id="node3" class="node">
<title>public.comment_likes</title>
<polygon fill="#efefef" stroke="none" points="655.15,-1782 655.15,-1817.6 953.11,-1817.6 953.11,-1782 655.15,-1782"/>
<polygon fill="none" stroke="black" points="655.15,-1782 655.15,-1817.6 953.11,-1817.6 953.11,-1782 655.15,-1782"/>
<text text-anchor="start" x="662.15" y="-1795.4" font-family="Arial Bold" font-size="18.00">public.comment_likes</text>
<text text-anchor="start" x="821.62" y="-1795.4" font-family="Arial" font-size="14.00">    </text>
<text text-anchor="start" x="852.74" y="-1795.4" font-family="Arial" font-size="14.00" fill="#666666">[BASE TABLE]</text>
<polygon fill="none" stroke="black" points="655.15,-1751.2 655.15,-1782 953.11,-1782 953.11,-1751.2 655.15,-1751.2"/>
<text text-anchor="start" x="662.15" y="-1763.4" font-family="Arial" font-size="14.00">id </text>
<text text-anchor="start" x="676.94" y="-1763.4" font-family="Arial" font-size="14.00" fill="#666666">[uuid]</text>
<polygon fill="none" stroke="black" points="655.15,-1720.4 655.15,-1751.2 953.11,-1751.2 953.11,-1720.4 655.15,-1720.4"/>
<text text-anchor="start" x="662.15" y="-1732.6" font-family="Arial" font-size="14.00">user_id </text>
<text text-anchor="start" x="711.96" y="-1732.6" font-family="Arial" font-size="14.00" fill="#666666">[uuid]</text>
<polygon fill="none" stroke="black" points="655.15,-1689.6 655.15,-1720.4 953.11,-1720.4 953.11,-1689.6 655.15,-1689.6"/>
<text text-anchor="start" x="662.15" y="-1701.8" font-family="Arial" font-size="14.00">comment_id </text>
<text text-anchor="start" x="742.3" y="-1701.8" font-family="Arial" font-size="14.00" fill="#666666">[uuid]</text>
<polygon fill="none" stroke="black" points="655.15,-1658.8 655.15,-1689.6 953.11,-1689.6 953.11,-1658.8 655.15,-1658.8"/>
<text text-anchor="start" x="662.15" y="-1671" font-family="Arial" font-size="14.00">created_at </text>
<text text-anchor="start" x="732.2" y="-1671" font-family="Arial" font-size="14.00" fill="#666666">[timestamp with time zone]</text>
</g>
<!-- public.comment_likes&#45;&gt;public.comments -->
<g id="edge4" class="edge">
<title>public.comment_likes:comment_id&#45;&gt;public.comments:id</title>
<path fill="none" stroke="black" d="M643.74,-1704.35C528.51,-1688.61 881.41,-1390 740.11,-1390"/>
<polygon fill="black" stroke="black" points="643.84,-1704.36 653.54,-1709.47 649.16,-1704.69 653.48,-1704.96 653.48,-1704.96 653.48,-1704.96 649.16,-1704.69 654.1,-1700.49 643.84,-1704.36"/>
<text text-anchor="start" x="661.15" y="-1715" font-family="Arial" font-size="10.00">FOREIGN KEY (comment_id) REFERENCES comments(id) ON DELETE CASCADE</text>
</g>
</g>
</svg>
