<?xml version="1.0" encoding="UTF-8" standalone="no"?>
<!DOCTYPE svg PUBLIC "-//W3C//DTD SVG 1.1//EN"
 "http://www.w3.org/Graphics/SVG/1.1/DTD/svg11.dtd">
<!-- Generated by graphviz version 12.1.2 (20240928.0832)
 -->
<!-- Title: public.spot_tags Pages: 1 -->
<svg width="1000pt" height="1249pt"
 viewBox="0.00 0.00 999.72 1248.80" xmlns="http://www.w3.org/2000/svg" xmlns:xlink="http://www.w3.org/1999/xlink">
<g id="graph0" class="graph" transform="scale(1 1) rotate(0) translate(4 1244.8)">
<title>public.spot_tags</title>
<polygon fill="white" stroke="none" points="-4,4 -4,-1244.8 995.72,-1244.8 995.72,4 -4,4"/>
<!-- public.spot_tags -->
<g id="node1" class="node">
<title>public.spot_tags</title>
<polygon fill="#efefef" stroke="none" points="397.89,-1159 397.89,-1194.6 653.87,-1194.6 653.87,-1159 397.89,-1159"/>
<polygon fill="none" stroke="black" points="397.89,-1159 397.89,-1194.6 653.87,-1194.6 653.87,-1159 397.89,-1159"/>
<text text-anchor="start" x="404.89" y="-1172.4" font-family="Arial Bold" font-size="18.00">public.spot_tags</text>
<text text-anchor="start" x="522.38" y="-1172.4" font-family="Arial" font-size="14.00">    </text>
<text text-anchor="start" x="553.5" y="-1172.4" font-family="Arial" font-size="14.00" fill="#666666">[BASE TABLE]</text>
<polygon fill="none" stroke="black" points="397.89,-1128.2 397.89,-1159 653.87,-1159 653.87,-1128.2 397.89,-1128.2"/>
<text text-anchor="start" x="404.89" y="-1140.4" font-family="Arial" font-size="14.00">id </text>
<text text-anchor="start" x="419.67" y="-1140.4" font-family="Arial" font-size="14.00" fill="#666666">[uuid]</text>
<polygon fill="none" stroke="black" points="397.89,-1097.4 397.89,-1128.2 653.87,-1128.2 653.87,-1097.4 397.89,-1097.4"/>
<text text-anchor="start" x="404.89" y="-1109.6" font-family="Arial" font-size="14.00">user_spot_id </text>
<text text-anchor="start" x="488.94" y="-1109.6" font-family="Arial" font-size="14.00" fill="#666666">[uuid]</text>
<polygon fill="none" stroke="black" points="397.89,-1066.6 397.89,-1097.4 653.87,-1097.4 653.87,-1066.6 397.89,-1066.6"/>
<text text-anchor="start" x="404.89" y="-1078.8" font-family="Arial" font-size="14.00">tag_id </text>
<text text-anchor="start" x="446.92" y="-1078.8" font-family="Arial" font-size="14.00" fill="#666666">[uuid]</text>
<polygon fill="none" stroke="black" points="397.89,-1035.8 397.89,-1066.6 653.87,-1066.6 653.87,-1035.8 397.89,-1035.8"/>
<text text-anchor="start" x="404.89" y="-1048" font-family="Arial" font-size="14.00">created_at </text>
<text text-anchor="start" x="474.93" y="-1048" font-family="Arial" font-size="14.00" fill="#666666">[timestamp with time zone]</text>
<polygon fill="none" stroke="black" stroke-width="3" points="396.39,-1034.3 396.39,-1196.1 655.37,-1196.1 655.37,-1034.3 396.39,-1034.3"/>
</g>
<!-- public.user_spots -->
<g id="node2" class="node">
<title>public.user_spots</title>
<polygon fill="#efefef" stroke="none" points="212.89,-874.8 212.89,-910.4 476.87,-910.4 476.87,-874.8 212.89,-874.8"/>
<polygon fill="none" stroke="black" points="212.89,-874.8 212.89,-910.4 476.87,-910.4 476.87,-874.8 212.89,-874.8"/>
<text text-anchor="start" x="219.89" y="-888.2" font-family="Arial Bold" font-size="18.00">public.user_spots</text>
<text text-anchor="start" x="345.38" y="-888.2" font-family="Arial" font-size="14.00">    </text>
<text text-anchor="start" x="376.49" y="-888.2" font-family="Arial" font-size="14.00" fill="#666666">[BASE TABLE]</text>
<polygon fill="none" stroke="black" points="212.89,-844 212.89,-874.8 476.87,-874.8 476.87,-844 212.89,-844"/>
<text text-anchor="start" x="219.89" y="-856.2" font-family="Arial" font-size="14.00">id </text>
<text text-anchor="start" x="234.67" y="-856.2" font-family="Arial" font-size="14.00" fill="#666666">[uuid]</text>
<polygon fill="none" stroke="black" points="212.89,-813.2 212.89,-844 476.87,-844 476.87,-813.2 212.89,-813.2"/>
<text text-anchor="start" x="219.89" y="-825.4" font-family="Arial" font-size="14.00">user_id </text>
<text text-anchor="start" x="269.69" y="-825.4" font-family="Arial" font-size="14.00" fill="#666666">[uuid]</text>
<polygon fill="none" stroke="black" points="212.89,-782.4 212.89,-813.2 476.87,-813.2 476.87,-782.4 212.89,-782.4"/>
<text text-anchor="start" x="219.89" y="-794.6" font-family="Arial" font-size="14.00">map_id </text>
<text text-anchor="start" x="269.69" y="-794.6" font-family="Arial" font-size="14.00" fill="#666666">[uuid]</text>
<polygon fill="none" stroke="black" points="212.89,-751.6 212.89,-782.4 476.87,-782.4 476.87,-751.6 212.89,-751.6"/>
<text text-anchor="start" x="219.89" y="-763.8" font-family="Arial" font-size="14.00">master_spot_id </text>
<text text-anchor="start" x="319.49" y="-763.8" font-family="Arial" font-size="14.00" fill="#666666">[uuid]</text>
<polygon fill="none" stroke="black" points="212.89,-720.8 212.89,-751.6 476.87,-751.6 476.87,-720.8 212.89,-720.8"/>
<text text-anchor="start" x="219.89" y="-733" font-family="Arial" font-size="14.00">machi_id </text>
<text text-anchor="start" x="279.8" y="-733" font-family="Arial" font-size="14.00" fill="#666666">[text]</text>
<polygon fill="none" stroke="black" points="212.89,-690 212.89,-720.8 476.87,-720.8 476.87,-690 212.89,-690"/>
<text text-anchor="start" x="219.89" y="-702.2" font-family="Arial" font-size="14.00">custom_name </text>
<text text-anchor="start" x="311.71" y="-702.2" font-family="Arial" font-size="14.00" fill="#666666">[text]</text>
<polygon fill="none" stroke="black" points="212.89,-659.2 212.89,-690 476.87,-690 476.87,-659.2 212.89,-659.2"/>
<text text-anchor="start" x="219.89" y="-671.4" font-family="Arial" font-size="14.00">description </text>
<text text-anchor="start" x="291.48" y="-671.4" font-family="Arial" font-size="14.00" fill="#666666">[text]</text>
<polygon fill="none" stroke="black" points="212.89,-628.4 212.89,-659.2 476.87,-659.2 476.87,-628.4 212.89,-628.4"/>
<text text-anchor="start" x="219.89" y="-640.6" font-family="Arial" font-size="14.00">images_count </text>
<text text-anchor="start" x="310.94" y="-640.6" font-family="Arial" font-size="14.00" fill="#666666">[integer]</text>
<polygon fill="none" stroke="black" points="212.89,-597.6 212.89,-628.4 476.87,-628.4 476.87,-597.6 212.89,-597.6"/>
<text text-anchor="start" x="219.89" y="-609.8" font-family="Arial" font-size="14.00">likes_count </text>
<text text-anchor="start" x="293.82" y="-609.8" font-family="Arial" font-size="14.00" fill="#666666">[integer]</text>
<polygon fill="none" stroke="black" points="212.89,-566.8 212.89,-597.6 476.87,-597.6 476.87,-566.8 212.89,-566.8"/>
<text text-anchor="start" x="219.89" y="-579" font-family="Arial" font-size="14.00">comments_count </text>
<text text-anchor="start" x="330.38" y="-579" font-family="Arial" font-size="14.00" fill="#666666">[integer]</text>
<polygon fill="none" stroke="black" points="212.89,-536 212.89,-566.8 476.87,-566.8 476.87,-536 212.89,-536"/>
<text text-anchor="start" x="219.89" y="-548.2" font-family="Arial" font-size="14.00">order_index </text>
<text text-anchor="start" x="297.71" y="-548.2" font-family="Arial" font-size="14.00" fill="#666666">[integer]</text>
<polygon fill="none" stroke="black" points="212.89,-505.2 212.89,-536 476.87,-536 476.87,-505.2 212.89,-505.2"/>
<text text-anchor="start" x="219.89" y="-517.4" font-family="Arial" font-size="14.00">created_at </text>
<text text-anchor="start" x="289.93" y="-517.4" font-family="Arial" font-size="14.00" fill="#666666">[timestamp with time zone]</text>
<polygon fill="none" stroke="black" points="212.89,-474.4 212.89,-505.2 476.87,-505.2 476.87,-474.4 212.89,-474.4"/>
<text text-anchor="start" x="219.89" y="-486.6" font-family="Arial" font-size="14.00">updated_at </text>
<text text-anchor="start" x="293.84" y="-486.6" font-family="Arial" font-size="14.00" fill="#666666">[timestamp with time zone]</text>
<polygon fill="none" stroke="black" points="212.89,-443.6 212.89,-474.4 476.87,-474.4 476.87,-443.6 212.89,-443.6"/>
<text text-anchor="start" x="219.89" y="-455.8" font-family="Arial" font-size="14.00">article_content </text>
<text text-anchor="start" x="314.83" y="-455.8" font-family="Arial" font-size="14.00" fill="#666666">[jsonb]</text>
<polygon fill="none" stroke="black" points="212.89,-412.8 212.89,-443.6 476.87,-443.6 476.87,-412.8 212.89,-412.8"/>
<text text-anchor="start" x="219.89" y="-425" font-family="Arial" font-size="14.00">latitude </text>
<text text-anchor="start" x="268.92" y="-425" font-family="Arial" font-size="14.00" fill="#666666">[double precision]</text>
<polygon fill="none" stroke="black" points="212.89,-382 212.89,-412.8 476.87,-412.8 476.87,-382 212.89,-382"/>
<text text-anchor="start" x="219.89" y="-394.2" font-family="Arial" font-size="14.00">longitude </text>
<text text-anchor="start" x="280.6" y="-394.2" font-family="Arial" font-size="14.00" fill="#666666">[double precision]</text>
<polygon fill="none" stroke="black" points="212.89,-351.2 212.89,-382 476.87,-382 476.87,-351.2 212.89,-351.2"/>
<text text-anchor="start" x="219.89" y="-363.4" font-family="Arial" font-size="14.00">google_formatted_address </text>
<text text-anchor="start" x="390.33" y="-363.4" font-family="Arial" font-size="14.00" fill="#666666">[text]</text>
<polygon fill="none" stroke="black" points="212.89,-320.4 212.89,-351.2 476.87,-351.2 476.87,-320.4 212.89,-320.4"/>
<text text-anchor="start" x="219.89" y="-332.6" font-family="Arial" font-size="14.00">google_short_address </text>
<text text-anchor="start" x="362.32" y="-332.6" font-family="Arial" font-size="14.00" fill="#666666">[text]</text>
<polygon fill="none" stroke="black" points="212.89,-289.6 212.89,-320.4 476.87,-320.4 476.87,-289.6 212.89,-289.6"/>
<text text-anchor="start" x="219.89" y="-301.8" font-family="Arial" font-size="14.00">bookmarks_count </text>
<text text-anchor="start" x="334.28" y="-301.8" font-family="Arial" font-size="14.00" fill="#666666">[integer]</text>
<polygon fill="none" stroke="black" points="212.89,-258.8 212.89,-289.6 476.87,-289.6 476.87,-258.8 212.89,-258.8"/>
<text text-anchor="start" x="219.89" y="-271" font-family="Arial" font-size="14.00">prefecture_id </text>
<text text-anchor="start" x="305.49" y="-271" font-family="Arial" font-size="14.00" fill="#666666">[text]</text>
<polygon fill="none" stroke="black" points="212.89,-228 212.89,-258.8 476.87,-258.8 476.87,-228 212.89,-228"/>
<text text-anchor="start" x="219.89" y="-240.2" font-family="Arial" font-size="14.00">color </text>
<text text-anchor="start" x="254.12" y="-240.2" font-family="Arial" font-size="14.00" fill="#666666">[text]</text>
<polygon fill="none" stroke="black" points="212.89,-197.2 212.89,-228 476.87,-228 476.87,-197.2 212.89,-197.2"/>
<text text-anchor="start" x="219.89" y="-209.4" font-family="Arial" font-size="14.00">spot_color </text>
<text text-anchor="start" x="288.37" y="-209.4" font-family="Arial" font-size="14.00" fill="#666666">[text]</text>
<polygon fill="none" stroke="black" points="212.89,-166.4 212.89,-197.2 476.87,-197.2 476.87,-166.4 212.89,-166.4"/>
<text text-anchor="start" x="219.89" y="-178.6" font-family="Arial" font-size="14.00">label_id </text>
<text text-anchor="start" x="272.04" y="-178.6" font-family="Arial" font-size="14.00" fill="#666666">[uuid]</text>
<polygon fill="none" stroke="black" points="212.89,-135.6 212.89,-166.4 476.87,-166.4 476.87,-135.6 212.89,-135.6"/>
<text text-anchor="start" x="219.89" y="-147.8" font-family="Arial" font-size="14.00">city_id </text>
<text text-anchor="start" x="263.46" y="-147.8" font-family="Arial" font-size="14.00" fill="#666666">[text]</text>
<polygon fill="none" stroke="black" points="212.89,-104.8 212.89,-135.6 476.87,-135.6 476.87,-104.8 212.89,-104.8"/>
<text text-anchor="start" x="219.89" y="-117" font-family="Arial" font-size="14.00">prefecture_name </text>
<text text-anchor="start" x="329.62" y="-117" font-family="Arial" font-size="14.00" fill="#666666">[text]</text>
<polygon fill="none" stroke="black" points="212.89,-74 212.89,-104.8 476.87,-104.8 476.87,-74 212.89,-74"/>
<text text-anchor="start" x="219.89" y="-86.2" font-family="Arial" font-size="14.00">city_name </text>
<text text-anchor="start" x="287.58" y="-86.2" font-family="Arial" font-size="14.00" fill="#666666">[text]</text>
<polygon fill="none" stroke="black" points="212.89,-43.2 212.89,-74 476.87,-74 476.87,-43.2 212.89,-43.2"/>
<text text-anchor="start" x="219.89" y="-55.4" font-family="Arial" font-size="14.00">machi_name </text>
<text text-anchor="start" x="303.93" y="-55.4" font-family="Arial" font-size="14.00" fill="#666666">[text]</text>
</g>
<!-- public.spot_tags&#45;&gt;public.user_spots -->
<g id="edge1" class="edge">
<title>public.spot_tags:user_spot_id&#45;&gt;public.user_spots:id</title>
<path fill="none" stroke="black" d="M386.51,-1111.69C345.8,-1102.09 370.17,-1032.3 397.89,-989.6 418.89,-957.24 455.83,-985.93 476.87,-953.6 499.7,-918.51 519.74,-859.4 477.87,-859.4"/>
<polygon fill="black" stroke="black" points="386.61,-1111.7 396.08,-1117.24 391.91,-1112.27 396.22,-1112.73 396.22,-1112.73 396.22,-1112.73 391.91,-1112.27 397.03,-1108.29 386.61,-1111.7"/>
<text text-anchor="start" x="7" y="-1122.8" font-family="Arial" font-size="10.00">FOREIGN KEY (user_spot_id) REFERENCES user_spots(id) ON DELETE CASCADE</text>
</g>
<!-- public.tags -->
<g id="node3" class="node">
<title>public.tags</title>
<polygon fill="#efefef" stroke="none" points="581.04,-566.8 581.04,-602.4 834.72,-602.4 834.72,-566.8 581.04,-566.8"/>
<polygon fill="none" stroke="black" points="581.04,-566.8 581.04,-602.4 834.72,-602.4 834.72,-566.8 581.04,-566.8"/>
<text text-anchor="start" x="606.39" y="-580.2" font-family="Arial Bold" font-size="18.00">public.tags</text>
<text text-anchor="start" x="684.88" y="-580.2" font-family="Arial" font-size="14.00">    </text>
<text text-anchor="start" x="715.99" y="-580.2" font-family="Arial" font-size="14.00" fill="#666666">[BASE TABLE]</text>
<polygon fill="none" stroke="black" points="581.04,-536 581.04,-566.8 834.72,-566.8 834.72,-536 581.04,-536"/>
<text text-anchor="start" x="588.04" y="-548.2" font-family="Arial" font-size="14.00">id </text>
<text text-anchor="start" x="602.82" y="-548.2" font-family="Arial" font-size="14.00" fill="#666666">[uuid]</text>
<polygon fill="none" stroke="black" points="581.04,-505.2 581.04,-536 834.72,-536 834.72,-505.2 581.04,-505.2"/>
<text text-anchor="start" x="588.04" y="-517.4" font-family="Arial" font-size="14.00">name </text>
<text text-anchor="start" x="626.95" y="-517.4" font-family="Arial" font-size="14.00" fill="#666666">[text]</text>
<polygon fill="none" stroke="black" points="581.04,-474.4 581.04,-505.2 834.72,-505.2 834.72,-474.4 581.04,-474.4"/>
<text text-anchor="start" x="588.04" y="-486.6" font-family="Arial" font-size="14.00">name_translations </text>
<text text-anchor="start" x="706.32" y="-486.6" font-family="Arial" font-size="14.00" fill="#666666">[jsonb]</text>
<polygon fill="none" stroke="black" points="581.04,-443.6 581.04,-474.4 834.72,-474.4 834.72,-443.6 581.04,-443.6"/>
<text text-anchor="start" x="588.04" y="-455.8" font-family="Arial" font-size="14.00">slug </text>
<text text-anchor="start" x="617.61" y="-455.8" font-family="Arial" font-size="14.00" fill="#666666">[text]</text>
<polygon fill="none" stroke="black" points="581.04,-412.8 581.04,-443.6 834.72,-443.6 834.72,-412.8 581.04,-412.8"/>
<text text-anchor="start" x="588.04" y="-425" font-family="Arial" font-size="14.00">usage_count </text>
<text text-anchor="start" x="672.1" y="-425" font-family="Arial" font-size="14.00" fill="#666666">[integer]</text>
<polygon fill="none" stroke="black" points="581.04,-382 581.04,-412.8 834.72,-412.8 834.72,-382 581.04,-382"/>
<text text-anchor="start" x="588.04" y="-394.2" font-family="Arial" font-size="14.00">created_at </text>
<text text-anchor="start" x="658.08" y="-394.2" font-family="Arial" font-size="14.00" fill="#666666">[timestamp with time zone]</text>
<polygon fill="none" stroke="black" points="581.04,-351.2 581.04,-382 834.72,-382 834.72,-351.2 581.04,-351.2"/>
<text text-anchor="start" x="588.04" y="-363.4" font-family="Arial" font-size="14.00">updated_at </text>
<text text-anchor="start" x="661.99" y="-363.4" font-family="Arial" font-size="14.00" fill="#666666">[timestamp with time zone]</text>
</g>
<!-- public.spot_tags&#45;&gt;public.tags -->
<g id="edge2" class="edge">
<title>public.spot_tags:tag_id&#45;&gt;public.tags:id</title>
<path fill="none" stroke="black" d="M665.06,-1080.38C754.22,-1048.35 464.8,-551.4 580.04,-551.4"/>
<polygon fill="black" stroke="black" points="665.07,-1080.38 654.49,-1077.5 659.81,-1081.22 655.53,-1081.9 655.53,-1081.9 655.53,-1081.9 659.81,-1081.22 655.9,-1086.39 665.07,-1080.38"/>
<text text-anchor="start" x="661.87" y="-1092" font-family="Arial" font-size="10.00">FOREIGN KEY (tag_id) REFERENCES tags(id) ON DELETE CASCADE</text>
</g>
</g>
</svg>
