<?xml version="1.0" encoding="UTF-8" standalone="no"?>
<!DOCTYPE svg PUBLIC "-//W3C//DTD SVG 1.1//EN"
 "http://www.w3.org/Graphics/SVG/1.1/DTD/svg11.dtd">
<!-- Generated by graphviz version 12.1.2 (20240928.0832)
 -->
<!-- Title: public.master_spot_favorites Pages: 1 -->
<svg width="1124pt" height="910pt"
 viewBox="0.00 0.00 1124.00 910.00" xmlns="http://www.w3.org/2000/svg" xmlns:xlink="http://www.w3.org/1999/xlink">
<g id="graph0" class="graph" transform="scale(1 1) rotate(0) translate(4 906)">
<title>public.master_spot_favorites</title>
<polygon fill="white" stroke="none" points="-4,4 -4,-906 1120,-906 1120,4 -4,4"/>
<!-- public.master_spot_favorites -->
<g id="node1" class="node">
<title>public.master_spot_favorites</title>
<polygon fill="#efefef" stroke="none" points="348.96,-820.2 348.96,-855.8 695.9,-855.8 695.9,-820.2 348.96,-820.2"/>
<polygon fill="none" stroke="black" points="348.96,-820.2 348.96,-855.8 695.9,-855.8 695.9,-820.2 348.96,-820.2"/>
<text text-anchor="start" x="355.96" y="-833.6" font-family="Arial Bold" font-size="18.00">public.master_spot_favorites</text>
<text text-anchor="start" x="564.41" y="-833.6" font-family="Arial" font-size="14.00">    </text>
<text text-anchor="start" x="595.53" y="-833.6" font-family="Arial" font-size="14.00" fill="#666666">[BASE TABLE]</text>
<polygon fill="none" stroke="black" points="348.96,-789.4 348.96,-820.2 695.9,-820.2 695.9,-789.4 348.96,-789.4"/>
<text text-anchor="start" x="355.96" y="-801.6" font-family="Arial" font-size="14.00">id </text>
<text text-anchor="start" x="370.75" y="-801.6" font-family="Arial" font-size="14.00" fill="#666666">[uuid]</text>
<polygon fill="none" stroke="black" points="348.96,-758.6 348.96,-789.4 695.9,-789.4 695.9,-758.6 348.96,-758.6"/>
<text text-anchor="start" x="355.96" y="-770.8" font-family="Arial" font-size="14.00">user_id </text>
<text text-anchor="start" x="405.77" y="-770.8" font-family="Arial" font-size="14.00" fill="#666666">[uuid]</text>
<polygon fill="none" stroke="black" points="348.96,-727.8 348.96,-758.6 695.9,-758.6 695.9,-727.8 348.96,-727.8"/>
<text text-anchor="start" x="355.96" y="-740" font-family="Arial" font-size="14.00">master_spot_id </text>
<text text-anchor="start" x="455.57" y="-740" font-family="Arial" font-size="14.00" fill="#666666">[uuid]</text>
<polygon fill="none" stroke="black" points="348.96,-697 348.96,-727.8 695.9,-727.8 695.9,-697 348.96,-697"/>
<text text-anchor="start" x="355.96" y="-709.2" font-family="Arial" font-size="14.00">created_at </text>
<text text-anchor="start" x="426.01" y="-709.2" font-family="Arial" font-size="14.00" fill="#666666">[timestamp with time zone]</text>
<polygon fill="none" stroke="black" stroke-width="3" points="347.46,-695.5 347.46,-857.3 697.4,-857.3 697.4,-695.5 347.46,-695.5"/>
</g>
<!-- public.users -->
<g id="node2" class="node">
<title>public.users</title>
<polygon fill="#efefef" stroke="none" points="149.5,-489.8 149.5,-525.4 483.36,-525.4 483.36,-489.8 149.5,-489.8"/>
<polygon fill="none" stroke="black" points="149.5,-489.8 149.5,-525.4 483.36,-525.4 483.36,-489.8 149.5,-489.8"/>
<text text-anchor="start" x="210.94" y="-503.2" font-family="Arial Bold" font-size="18.00">public.users</text>
<text text-anchor="start" x="297.43" y="-503.2" font-family="Arial" font-size="14.00">    </text>
<text text-anchor="start" x="328.54" y="-503.2" font-family="Arial" font-size="14.00" fill="#666666">[BASE TABLE]</text>
<polygon fill="none" stroke="black" points="149.5,-459 149.5,-489.8 483.36,-489.8 483.36,-459 149.5,-459"/>
<text text-anchor="start" x="156.5" y="-471.2" font-family="Arial" font-size="14.00">id </text>
<text text-anchor="start" x="171.29" y="-471.2" font-family="Arial" font-size="14.00" fill="#666666">[uuid]</text>
<polygon fill="none" stroke="black" points="149.5,-428.2 149.5,-459 483.36,-459 483.36,-428.2 149.5,-428.2"/>
<text text-anchor="start" x="156.5" y="-440.4" font-family="Arial" font-size="14.00">email </text>
<text text-anchor="start" x="193.84" y="-440.4" font-family="Arial" font-size="14.00" fill="#666666">[text]</text>
<polygon fill="none" stroke="black" points="149.5,-397.4 149.5,-428.2 483.36,-428.2 483.36,-397.4 149.5,-397.4"/>
<text text-anchor="start" x="156.5" y="-409.6" font-family="Arial" font-size="14.00">username </text>
<text text-anchor="start" x="222.64" y="-409.6" font-family="Arial" font-size="14.00" fill="#666666">[text]</text>
<polygon fill="none" stroke="black" points="149.5,-366.6 149.5,-397.4 483.36,-397.4 483.36,-366.6 149.5,-366.6"/>
<text text-anchor="start" x="156.5" y="-378.8" font-family="Arial" font-size="14.00">display_name </text>
<text text-anchor="start" x="246.77" y="-378.8" font-family="Arial" font-size="14.00" fill="#666666">[text]</text>
<polygon fill="none" stroke="black" points="149.5,-335.8 149.5,-366.6 483.36,-366.6 483.36,-335.8 149.5,-335.8"/>
<text text-anchor="start" x="156.5" y="-348" font-family="Arial" font-size="14.00">avatar_url </text>
<text text-anchor="start" x="222.64" y="-348" font-family="Arial" font-size="14.00" fill="#666666">[text]</text>
<polygon fill="none" stroke="black" points="149.5,-305 149.5,-335.8 483.36,-335.8 483.36,-305 149.5,-305"/>
<text text-anchor="start" x="156.5" y="-317.2" font-family="Arial" font-size="14.00">bio </text>
<text text-anchor="start" x="179.07" y="-317.2" font-family="Arial" font-size="14.00" fill="#666666">[text]</text>
<polygon fill="none" stroke="black" points="149.5,-274.2 149.5,-305 483.36,-305 483.36,-274.2 149.5,-274.2"/>
<text text-anchor="start" x="156.5" y="-286.4" font-family="Arial" font-size="14.00">is_premium </text>
<text text-anchor="start" x="232.74" y="-286.4" font-family="Arial" font-size="14.00" fill="#666666">[boolean]</text>
<polygon fill="none" stroke="black" points="149.5,-243.4 149.5,-274.2 483.36,-274.2 483.36,-243.4 149.5,-243.4"/>
<text text-anchor="start" x="156.5" y="-255.6" font-family="Arial" font-size="14.00">premium_started_at </text>
<text text-anchor="start" x="284.89" y="-255.6" font-family="Arial" font-size="14.00" fill="#666666">[timestamp with time zone]</text>
<polygon fill="none" stroke="black" points="149.5,-212.6 149.5,-243.4 483.36,-243.4 483.36,-212.6 149.5,-212.6"/>
<text text-anchor="start" x="156.5" y="-224.8" font-family="Arial" font-size="14.00">premium_expires_at </text>
<text text-anchor="start" x="287.22" y="-224.8" font-family="Arial" font-size="14.00" fill="#666666">[timestamp with time zone]</text>
<polygon fill="none" stroke="black" points="149.5,-181.8 149.5,-212.6 483.36,-212.6 483.36,-181.8 149.5,-181.8"/>
<text text-anchor="start" x="156.5" y="-194" font-family="Arial" font-size="14.00">created_at </text>
<text text-anchor="start" x="226.55" y="-194" font-family="Arial" font-size="14.00" fill="#666666">[timestamp with time zone]</text>
<polygon fill="none" stroke="black" points="149.5,-151 149.5,-181.8 483.36,-181.8 483.36,-151 149.5,-151"/>
<text text-anchor="start" x="156.5" y="-163.2" font-family="Arial" font-size="14.00">updated_at </text>
<text text-anchor="start" x="230.46" y="-163.2" font-family="Arial" font-size="14.00" fill="#666666">[timestamp with time zone]</text>
<polygon fill="none" stroke="black" points="149.5,-120.2 149.5,-151 483.36,-151 483.36,-120.2 149.5,-120.2"/>
<text text-anchor="start" x="156.5" y="-132.4" font-family="Arial" font-size="14.00">push_token </text>
<text text-anchor="start" x="232.78" y="-132.4" font-family="Arial" font-size="14.00" fill="#666666">[text]</text>
<polygon fill="none" stroke="black" points="149.5,-89.4 149.5,-120.2 483.36,-120.2 483.36,-89.4 149.5,-89.4"/>
<text text-anchor="start" x="156.5" y="-101.6" font-family="Arial" font-size="14.00">push_token_updated_at </text>
<text text-anchor="start" x="310.64" y="-101.6" font-family="Arial" font-size="14.00" fill="#666666">[timestamp with time zone]</text>
</g>
<!-- public.master_spot_favorites&#45;&gt;public.users -->
<g id="edge1" class="edge">
<title>public.master_spot_favorites:user_id&#45;&gt;public.users:id</title>
<path fill="none" stroke="black" d="M337.62,-772.92C297.24,-763.51 323.89,-695.1 348.96,-650.8 383.45,-589.86 448.8,-629.49 483.36,-568.6 504.03,-532.19 526.23,-474.4 484.36,-474.4"/>
<polygon fill="black" stroke="black" points="337.68,-772.92 347.16,-778.44 342.99,-773.48 347.29,-773.93 347.29,-773.93 347.29,-773.93 342.99,-773.48 348.1,-769.49 337.68,-772.92"/>
<text text-anchor="start" x="7" y="-784" font-family="Arial" font-size="10.00">FOREIGN KEY (user_id) REFERENCES users(id) ON DELETE CASCADE</text>
</g>
<!-- public.master_spots -->
<g id="node3" class="node">
<title>public.master_spots</title>
<polygon fill="#efefef" stroke="none" points="587.44,-536 587.44,-571.6 869.42,-571.6 869.42,-536 587.44,-536"/>
<polygon fill="none" stroke="black" points="587.44,-536 587.44,-571.6 869.42,-571.6 869.42,-536 587.44,-536"/>
<text text-anchor="start" x="594.44" y="-549.4" font-family="Arial Bold" font-size="18.00">public.master_spots</text>
<text text-anchor="start" x="737.93" y="-549.4" font-family="Arial" font-size="14.00">    </text>
<text text-anchor="start" x="769.04" y="-549.4" font-family="Arial" font-size="14.00" fill="#666666">[BASE TABLE]</text>
<polygon fill="none" stroke="black" points="587.44,-505.2 587.44,-536 869.42,-536 869.42,-505.2 587.44,-505.2"/>
<text text-anchor="start" x="594.44" y="-517.4" font-family="Arial" font-size="14.00">id </text>
<text text-anchor="start" x="609.23" y="-517.4" font-family="Arial" font-size="14.00" fill="#666666">[uuid]</text>
<polygon fill="none" stroke="black" points="587.44,-474.4 587.44,-505.2 869.42,-505.2 869.42,-474.4 587.44,-474.4"/>
<text text-anchor="start" x="594.44" y="-486.6" font-family="Arial" font-size="14.00">name </text>
<text text-anchor="start" x="633.35" y="-486.6" font-family="Arial" font-size="14.00" fill="#666666">[text]</text>
<polygon fill="none" stroke="black" points="587.44,-443.6 587.44,-474.4 869.42,-474.4 869.42,-443.6 587.44,-443.6"/>
<text text-anchor="start" x="594.44" y="-455.8" font-family="Arial" font-size="14.00">latitude </text>
<text text-anchor="start" x="643.48" y="-455.8" font-family="Arial" font-size="14.00" fill="#666666">[double precision]</text>
<polygon fill="none" stroke="black" points="587.44,-412.8 587.44,-443.6 869.42,-443.6 869.42,-412.8 587.44,-412.8"/>
<text text-anchor="start" x="594.44" y="-425" font-family="Arial" font-size="14.00">longitude </text>
<text text-anchor="start" x="655.16" y="-425" font-family="Arial" font-size="14.00" fill="#666666">[double precision]</text>
<polygon fill="none" stroke="black" points="587.44,-382 587.44,-412.8 869.42,-412.8 869.42,-382 587.44,-382"/>
<text text-anchor="start" x="594.44" y="-394.2" font-family="Arial" font-size="14.00">google_place_id </text>
<text text-anchor="start" x="700.31" y="-394.2" font-family="Arial" font-size="14.00" fill="#666666">[text]</text>
<polygon fill="none" stroke="black" points="587.44,-351.2 587.44,-382 869.42,-382 869.42,-351.2 587.44,-351.2"/>
<text text-anchor="start" x="594.44" y="-363.4" font-family="Arial" font-size="14.00">google_formatted_address </text>
<text text-anchor="start" x="764.89" y="-363.4" font-family="Arial" font-size="14.00" fill="#666666">[text]</text>
<polygon fill="none" stroke="black" points="587.44,-320.4 587.44,-351.2 869.42,-351.2 869.42,-320.4 587.44,-320.4"/>
<text text-anchor="start" x="594.44" y="-332.6" font-family="Arial" font-size="14.00">google_types </text>
<text text-anchor="start" x="681.62" y="-332.6" font-family="Arial" font-size="14.00" fill="#666666">[text[]]</text>
<polygon fill="none" stroke="black" points="587.44,-289.6 587.44,-320.4 869.42,-320.4 869.42,-289.6 587.44,-289.6"/>
<text text-anchor="start" x="594.44" y="-301.8" font-family="Arial" font-size="14.00">google_phone_number </text>
<text text-anchor="start" x="742.35" y="-301.8" font-family="Arial" font-size="14.00" fill="#666666">[text]</text>
<polygon fill="none" stroke="black" points="587.44,-258.8 587.44,-289.6 869.42,-289.6 869.42,-258.8 587.44,-258.8"/>
<text text-anchor="start" x="594.44" y="-271" font-family="Arial" font-size="14.00">google_website_uri </text>
<text text-anchor="start" x="718.97" y="-271" font-family="Arial" font-size="14.00" fill="#666666">[text]</text>
<polygon fill="none" stroke="black" points="587.44,-228 587.44,-258.8 869.42,-258.8 869.42,-228 587.44,-228"/>
<text text-anchor="start" x="594.44" y="-240.2" font-family="Arial" font-size="14.00">google_rating </text>
<text text-anchor="start" x="683.18" y="-240.2" font-family="Arial" font-size="14.00" fill="#666666">[double precision]</text>
<polygon fill="none" stroke="black" points="587.44,-197.2 587.44,-228 869.42,-228 869.42,-197.2 587.44,-197.2"/>
<text text-anchor="start" x="594.44" y="-209.4" font-family="Arial" font-size="14.00">google_user_rating_count </text>
<text text-anchor="start" x="760.24" y="-209.4" font-family="Arial" font-size="14.00" fill="#666666">[integer]</text>
<polygon fill="none" stroke="black" points="587.44,-166.4 587.44,-197.2 869.42,-197.2 869.42,-166.4 587.44,-166.4"/>
<text text-anchor="start" x="594.44" y="-178.6" font-family="Arial" font-size="14.00">created_at </text>
<text text-anchor="start" x="664.49" y="-178.6" font-family="Arial" font-size="14.00" fill="#666666">[timestamp with time zone]</text>
<polygon fill="none" stroke="black" points="587.44,-135.6 587.44,-166.4 869.42,-166.4 869.42,-135.6 587.44,-135.6"/>
<text text-anchor="start" x="594.44" y="-147.8" font-family="Arial" font-size="14.00">updated_at </text>
<text text-anchor="start" x="668.4" y="-147.8" font-family="Arial" font-size="14.00" fill="#666666">[timestamp with time zone]</text>
<polygon fill="none" stroke="black" points="587.44,-104.8 587.44,-135.6 869.42,-135.6 869.42,-104.8 587.44,-104.8"/>
<text text-anchor="start" x="594.44" y="-117" font-family="Arial" font-size="14.00">machi_id </text>
<text text-anchor="start" x="654.36" y="-117" font-family="Arial" font-size="14.00" fill="#666666">[text]</text>
<polygon fill="none" stroke="black" points="587.44,-74 587.44,-104.8 869.42,-104.8 869.42,-74 587.44,-74"/>
<text text-anchor="start" x="594.44" y="-86.2" font-family="Arial" font-size="14.00">google_short_address </text>
<text text-anchor="start" x="736.88" y="-86.2" font-family="Arial" font-size="14.00" fill="#666666">[text]</text>
<polygon fill="none" stroke="black" points="587.44,-43.2 587.44,-74 869.42,-74 869.42,-43.2 587.44,-43.2"/>
<text text-anchor="start" x="594.44" y="-55.4" font-family="Arial" font-size="14.00">favorites_count </text>
<text text-anchor="start" x="693.28" y="-55.4" font-family="Arial" font-size="14.00" fill="#666666">[integer]</text>
</g>
<!-- public.master_spot_favorites&#45;&gt;public.master_spots -->
<g id="edge2" class="edge">
<title>public.master_spot_favorites:master_spot_id&#45;&gt;public.master_spots:id</title>
<path fill="none" stroke="black" d="M706.94,-741.71C734.56,-732.32 717.84,-680.86 695.9,-650.8 665.95,-609.78 617.38,-655.82 587.44,-614.8 562.76,-580.98 544.58,-520.6 586.44,-520.6"/>
<polygon fill="black" stroke="black" points="707.12,-741.68 696.57,-738.7 701.85,-742.47 697.56,-743.1 697.56,-743.1 697.56,-743.1 701.85,-742.47 697.89,-747.6 707.12,-741.68"/>
<text text-anchor="start" x="703.9" y="-753.2" font-family="Arial" font-size="10.00">FOREIGN KEY (master_spot_id) REFERENCES master_spots(id) ON DELETE CASCADE</text>
</g>
</g>
</svg>
