<?xml version="1.0" encoding="UTF-8" standalone="no"?>
<!DOCTYPE svg PUBLIC "-//W3C//DTD SVG 1.1//EN"
 "http://www.w3.org/Graphics/SVG/1.1/DTD/svg11.dtd">
<!-- Generated by graphviz version 12.1.2 (20240928.0832)
 -->
<!-- Title: public.prefectures Pages: 1 -->
<svg width="1899pt" height="1869pt"
 viewBox="0.00 0.00 1898.72 1868.80" xmlns="http://www.w3.org/2000/svg" xmlns:xlink="http://www.w3.org/1999/xlink">
<g id="graph0" class="graph" transform="scale(1 1) rotate(0) translate(4 1864.8)">
<title>public.prefectures</title>
<polygon fill="white" stroke="none" points="-4,4 -4,-1864.8 1894.72,-1864.8 1894.72,4 -4,4"/>
<!-- public.prefectures -->
<g id="node1" class="node">
<title>public.prefectures</title>
<polygon fill="#efefef" stroke="none" points="757.08,-789.4 757.08,-825 1025,-825 1025,-789.4 757.08,-789.4"/>
<polygon fill="none" stroke="black" points="757.08,-789.4 757.08,-825 1025,-825 1025,-789.4 757.08,-789.4"/>
<text text-anchor="start" x="764.08" y="-802.8" font-family="Arial Bold" font-size="18.00">public.prefectures</text>
<text text-anchor="start" x="893.51" y="-802.8" font-family="Arial" font-size="14.00">    </text>
<text text-anchor="start" x="924.63" y="-802.8" font-family="Arial" font-size="14.00" fill="#666666">[BASE TABLE]</text>
<polygon fill="none" stroke="black" points="757.08,-758.6 757.08,-789.4 1025,-789.4 1025,-758.6 757.08,-758.6"/>
<text text-anchor="start" x="764.08" y="-770.8" font-family="Arial" font-size="14.00">id </text>
<text text-anchor="start" x="778.86" y="-770.8" font-family="Arial" font-size="14.00" fill="#666666">[text]</text>
<polygon fill="none" stroke="black" points="757.08,-727.8 757.08,-758.6 1025,-758.6 1025,-727.8 757.08,-727.8"/>
<text text-anchor="start" x="764.08" y="-740" font-family="Arial" font-size="14.00">name </text>
<text text-anchor="start" x="802.99" y="-740" font-family="Arial" font-size="14.00" fill="#666666">[text]</text>
<polygon fill="none" stroke="black" points="757.08,-697 757.08,-727.8 1025,-727.8 1025,-697 757.08,-697"/>
<text text-anchor="start" x="764.08" y="-709.2" font-family="Arial" font-size="14.00">name_kana </text>
<text text-anchor="start" x="841.13" y="-709.2" font-family="Arial" font-size="14.00" fill="#666666">[text]</text>
<polygon fill="none" stroke="black" points="757.08,-666.2 757.08,-697 1025,-697 1025,-666.2 757.08,-666.2"/>
<text text-anchor="start" x="764.08" y="-678.4" font-family="Arial" font-size="14.00">region_id </text>
<text text-anchor="start" x="825.57" y="-678.4" font-family="Arial" font-size="14.00" fill="#666666">[text]</text>
<polygon fill="none" stroke="black" points="757.08,-635.4 757.08,-666.2 1025,-666.2 1025,-635.4 757.08,-635.4"/>
<text text-anchor="start" x="764.08" y="-647.6" font-family="Arial" font-size="14.00">created_at </text>
<text text-anchor="start" x="834.13" y="-647.6" font-family="Arial" font-size="14.00" fill="#666666">[timestamp with time zone]</text>
<polygon fill="none" stroke="black" points="757.08,-604.6 757.08,-635.4 1025,-635.4 1025,-604.6 757.08,-604.6"/>
<text text-anchor="start" x="764.08" y="-616.8" font-family="Arial" font-size="14.00">updated_at </text>
<text text-anchor="start" x="838.04" y="-616.8" font-family="Arial" font-size="14.00" fill="#666666">[timestamp with time zone]</text>
<polygon fill="none" stroke="black" points="757.08,-573.8 757.08,-604.6 1025,-604.6 1025,-573.8 757.08,-573.8"/>
<text text-anchor="start" x="764.08" y="-586" font-family="Arial" font-size="14.00">latitude </text>
<text text-anchor="start" x="813.11" y="-586" font-family="Arial" font-size="14.00" fill="#666666">[double precision]</text>
<polygon fill="none" stroke="black" points="757.08,-543 757.08,-573.8 1025,-573.8 1025,-543 757.08,-543"/>
<text text-anchor="start" x="764.08" y="-555.2" font-family="Arial" font-size="14.00">longitude </text>
<text text-anchor="start" x="824.79" y="-555.2" font-family="Arial" font-size="14.00" fill="#666666">[double precision]</text>
<polygon fill="none" stroke="black" points="757.08,-512.2 757.08,-543 1025,-543 1025,-512.2 757.08,-512.2"/>
<text text-anchor="start" x="764.08" y="-524.4" font-family="Arial" font-size="14.00">name_translations </text>
<text text-anchor="start" x="882.37" y="-524.4" font-family="Arial" font-size="14.00" fill="#666666">[jsonb]</text>
<polygon fill="none" stroke="black" stroke-width="3" points="755.58,-510.7 755.58,-826.5 1026.5,-826.5 1026.5,-510.7 755.58,-510.7"/>
</g>
<!-- public.regions -->
<g id="node7" class="node">
<title>public.regions</title>
<polygon fill="#efefef" stroke="none" points="764.2,-351.2 764.2,-386.8 1017.88,-386.8 1017.88,-351.2 764.2,-351.2"/>
<polygon fill="none" stroke="black" points="764.2,-351.2 764.2,-386.8 1017.88,-386.8 1017.88,-351.2 764.2,-351.2"/>
<text text-anchor="start" x="777.56" y="-364.6" font-family="Arial Bold" font-size="18.00">public.regions</text>
<text text-anchor="start" x="880.04" y="-364.6" font-family="Arial" font-size="14.00">    </text>
<text text-anchor="start" x="911.15" y="-364.6" font-family="Arial" font-size="14.00" fill="#666666">[BASE TABLE]</text>
<polygon fill="none" stroke="black" points="764.2,-320.4 764.2,-351.2 1017.88,-351.2 1017.88,-320.4 764.2,-320.4"/>
<text text-anchor="start" x="771.2" y="-332.6" font-family="Arial" font-size="14.00">id </text>
<text text-anchor="start" x="785.99" y="-332.6" font-family="Arial" font-size="14.00" fill="#666666">[text]</text>
<polygon fill="none" stroke="black" points="764.2,-289.6 764.2,-320.4 1017.88,-320.4 1017.88,-289.6 764.2,-289.6"/>
<text text-anchor="start" x="771.2" y="-301.8" font-family="Arial" font-size="14.00">name </text>
<text text-anchor="start" x="810.11" y="-301.8" font-family="Arial" font-size="14.00" fill="#666666">[text]</text>
<polygon fill="none" stroke="black" points="764.2,-258.8 764.2,-289.6 1017.88,-289.6 1017.88,-258.8 764.2,-258.8"/>
<text text-anchor="start" x="771.2" y="-271" font-family="Arial" font-size="14.00">name_kana </text>
<text text-anchor="start" x="848.25" y="-271" font-family="Arial" font-size="14.00" fill="#666666">[text]</text>
<polygon fill="none" stroke="black" points="764.2,-228 764.2,-258.8 1017.88,-258.8 1017.88,-228 764.2,-228"/>
<text text-anchor="start" x="771.2" y="-240.2" font-family="Arial" font-size="14.00">display_order </text>
<text text-anchor="start" x="859.14" y="-240.2" font-family="Arial" font-size="14.00" fill="#666666">[integer]</text>
<polygon fill="none" stroke="black" points="764.2,-197.2 764.2,-228 1017.88,-228 1017.88,-197.2 764.2,-197.2"/>
<text text-anchor="start" x="771.2" y="-209.4" font-family="Arial" font-size="14.00">created_at </text>
<text text-anchor="start" x="841.25" y="-209.4" font-family="Arial" font-size="14.00" fill="#666666">[timestamp with time zone]</text>
<polygon fill="none" stroke="black" points="764.2,-166.4 764.2,-197.2 1017.88,-197.2 1017.88,-166.4 764.2,-166.4"/>
<text text-anchor="start" x="771.2" y="-178.6" font-family="Arial" font-size="14.00">updated_at </text>
<text text-anchor="start" x="845.16" y="-178.6" font-family="Arial" font-size="14.00" fill="#666666">[timestamp with time zone]</text>
<polygon fill="none" stroke="black" points="764.2,-135.6 764.2,-166.4 1017.88,-166.4 1017.88,-135.6 764.2,-135.6"/>
<text text-anchor="start" x="771.2" y="-147.8" font-family="Arial" font-size="14.00">latitude </text>
<text text-anchor="start" x="820.23" y="-147.8" font-family="Arial" font-size="14.00" fill="#666666">[double precision]</text>
<polygon fill="none" stroke="black" points="764.2,-104.8 764.2,-135.6 1017.88,-135.6 1017.88,-104.8 764.2,-104.8"/>
<text text-anchor="start" x="771.2" y="-117" font-family="Arial" font-size="14.00">longitude </text>
<text text-anchor="start" x="831.92" y="-117" font-family="Arial" font-size="14.00" fill="#666666">[double precision]</text>
<polygon fill="none" stroke="black" points="764.2,-74 764.2,-104.8 1017.88,-104.8 1017.88,-74 764.2,-74"/>
<text text-anchor="start" x="771.2" y="-86.2" font-family="Arial" font-size="14.00">name_translations </text>
<text text-anchor="start" x="889.49" y="-86.2" font-family="Arial" font-size="14.00" fill="#666666">[jsonb]</text>
<polygon fill="none" stroke="black" points="764.2,-43.2 764.2,-74 1017.88,-74 1017.88,-43.2 764.2,-43.2"/>
<text text-anchor="start" x="771.2" y="-55.4" font-family="Arial" font-size="14.00">country_id </text>
<text text-anchor="start" x="839.68" y="-55.4" font-family="Arial" font-size="14.00" fill="#666666">[text]</text>
</g>
<!-- public.prefectures&#45;&gt;public.regions -->
<g id="edge6" class="edge">
<title>public.prefectures:region_id&#45;&gt;public.regions:id</title>
<path fill="none" stroke="black" d="M1036.12,-681.08C1179.33,-666.24 1169.15,-335.8 1018.88,-335.8"/>
<polygon fill="black" stroke="black" points="1036.32,-681.07 1026.11,-677.09 1031,-681.35 1026.67,-681.57 1026.67,-681.57 1026.67,-681.57 1031,-681.35 1026.57,-686.08 1036.32,-681.07"/>
<text text-anchor="start" x="1033" y="-691.6" font-family="Arial" font-size="10.00">FOREIGN KEY (region_id) REFERENCES regions(id)</text>
</g>
<!-- public.cities -->
<g id="node2" class="node">
<title>public.cities</title>
<polygon fill="#efefef" stroke="none" points="43.2,-1535.6 43.2,-1571.2 296.88,-1571.2 296.88,-1535.6 43.2,-1535.6"/>
<polygon fill="none" stroke="black" points="43.2,-1535.6 43.2,-1571.2 296.88,-1571.2 296.88,-1535.6 43.2,-1535.6"/>
<text text-anchor="start" x="64.06" y="-1549" font-family="Arial Bold" font-size="18.00">public.cities</text>
<text text-anchor="start" x="151.53" y="-1549" font-family="Arial" font-size="14.00">    </text>
<text text-anchor="start" x="182.65" y="-1549" font-family="Arial" font-size="14.00" fill="#666666">[BASE TABLE]</text>
<polygon fill="none" stroke="black" points="43.2,-1504.8 43.2,-1535.6 296.88,-1535.6 296.88,-1504.8 43.2,-1504.8"/>
<text text-anchor="start" x="50.2" y="-1517" font-family="Arial" font-size="14.00">id </text>
<text text-anchor="start" x="64.99" y="-1517" font-family="Arial" font-size="14.00" fill="#666666">[text]</text>
<polygon fill="none" stroke="black" points="43.2,-1474 43.2,-1504.8 296.88,-1504.8 296.88,-1474 43.2,-1474"/>
<text text-anchor="start" x="50.2" y="-1486.2" font-family="Arial" font-size="14.00">prefecture_id </text>
<text text-anchor="start" x="135.81" y="-1486.2" font-family="Arial" font-size="14.00" fill="#666666">[text]</text>
<polygon fill="none" stroke="black" points="43.2,-1443.2 43.2,-1474 296.88,-1474 296.88,-1443.2 43.2,-1443.2"/>
<text text-anchor="start" x="50.2" y="-1455.4" font-family="Arial" font-size="14.00">name </text>
<text text-anchor="start" x="89.11" y="-1455.4" font-family="Arial" font-size="14.00" fill="#666666">[text]</text>
<polygon fill="none" stroke="black" points="43.2,-1412.4 43.2,-1443.2 296.88,-1443.2 296.88,-1412.4 43.2,-1412.4"/>
<text text-anchor="start" x="50.2" y="-1424.6" font-family="Arial" font-size="14.00">name_kana </text>
<text text-anchor="start" x="127.25" y="-1424.6" font-family="Arial" font-size="14.00" fill="#666666">[text]</text>
<polygon fill="none" stroke="black" points="43.2,-1381.6 43.2,-1412.4 296.88,-1412.4 296.88,-1381.6 43.2,-1381.6"/>
<text text-anchor="start" x="50.2" y="-1393.8" font-family="Arial" font-size="14.00">type </text>
<text text-anchor="start" x="80.55" y="-1393.8" font-family="Arial" font-size="14.00" fill="#666666">[text]</text>
<polygon fill="none" stroke="black" points="43.2,-1350.8 43.2,-1381.6 296.88,-1381.6 296.88,-1350.8 43.2,-1350.8"/>
<text text-anchor="start" x="50.2" y="-1363" font-family="Arial" font-size="14.00">created_at </text>
<text text-anchor="start" x="120.25" y="-1363" font-family="Arial" font-size="14.00" fill="#666666">[timestamp with time zone]</text>
<polygon fill="none" stroke="black" points="43.2,-1320 43.2,-1350.8 296.88,-1350.8 296.88,-1320 43.2,-1320"/>
<text text-anchor="start" x="50.2" y="-1332.2" font-family="Arial" font-size="14.00">updated_at </text>
<text text-anchor="start" x="124.16" y="-1332.2" font-family="Arial" font-size="14.00" fill="#666666">[timestamp with time zone]</text>
<polygon fill="none" stroke="black" points="43.2,-1289.2 43.2,-1320 296.88,-1320 296.88,-1289.2 43.2,-1289.2"/>
<text text-anchor="start" x="50.2" y="-1301.4" font-family="Arial" font-size="14.00">name_translations </text>
<text text-anchor="start" x="168.49" y="-1301.4" font-family="Arial" font-size="14.00" fill="#666666">[jsonb]</text>
<polygon fill="none" stroke="black" points="43.2,-1258.4 43.2,-1289.2 296.88,-1289.2 296.88,-1258.4 43.2,-1258.4"/>
<text text-anchor="start" x="50.2" y="-1270.6" font-family="Arial" font-size="14.00">latitude </text>
<text text-anchor="start" x="99.23" y="-1270.6" font-family="Arial" font-size="14.00" fill="#666666">[double precision]</text>
<polygon fill="none" stroke="black" points="43.2,-1227.6 43.2,-1258.4 296.88,-1258.4 296.88,-1227.6 43.2,-1227.6"/>
<text text-anchor="start" x="50.2" y="-1239.8" font-family="Arial" font-size="14.00">longitude </text>
<text text-anchor="start" x="110.92" y="-1239.8" font-family="Arial" font-size="14.00" fill="#666666">[double precision]</text>
<polygon fill="none" stroke="black" points="43.2,-1196.8 43.2,-1227.6 296.88,-1227.6 296.88,-1196.8 43.2,-1196.8"/>
<text text-anchor="start" x="50.2" y="-1209" font-family="Arial" font-size="14.00">tile_id </text>
<text text-anchor="start" x="90.67" y="-1209" font-family="Arial" font-size="14.00" fill="#666666">[text]</text>
</g>
<!-- public.cities&#45;&gt;public.prefectures -->
<g id="edge1" class="edge">
<title>public.cities:prefecture_id&#45;&gt;public.prefectures:id</title>
<path fill="none" stroke="black" d="M307.19,-1485.12C357.37,-1434.7 310.79,-955.37 349.04,-907.2 408.22,-832.67 660.91,-774 756.08,-774"/>
<polygon fill="black" stroke="black" points="307.27,-1485.08 296.3,-1485.17 302.42,-1487.31 298.49,-1489.12 298.49,-1489.12 298.49,-1489.12 302.42,-1487.31 300.07,-1493.35 307.27,-1485.08"/>
<text text-anchor="start" x="160.62" y="-1473.4" font-family="Arial" font-size="10.00">FOREIGN KEY (prefecture_id) REFERENCES prefectures(id)</text>
</g>
<!-- public.machi -->
<g id="node3" class="node">
<title>public.machi</title>
<polygon fill="#efefef" stroke="none" points="401.2,-1628 401.2,-1663.6 654.88,-1663.6 654.88,-1628 401.2,-1628"/>
<polygon fill="none" stroke="black" points="401.2,-1628 401.2,-1663.6 654.88,-1663.6 654.88,-1628 401.2,-1628"/>
<text text-anchor="start" x="419.06" y="-1641.4" font-family="Arial Bold" font-size="18.00">public.machi</text>
<text text-anchor="start" x="512.53" y="-1641.4" font-family="Arial" font-size="14.00">    </text>
<text text-anchor="start" x="543.65" y="-1641.4" font-family="Arial" font-size="14.00" fill="#666666">[BASE TABLE]</text>
<polygon fill="none" stroke="black" points="401.2,-1597.2 401.2,-1628 654.88,-1628 654.88,-1597.2 401.2,-1597.2"/>
<text text-anchor="start" x="408.2" y="-1609.4" font-family="Arial" font-size="14.00">id </text>
<text text-anchor="start" x="422.99" y="-1609.4" font-family="Arial" font-size="14.00" fill="#666666">[text]</text>
<polygon fill="none" stroke="black" points="401.2,-1566.4 401.2,-1597.2 654.88,-1597.2 654.88,-1566.4 401.2,-1566.4"/>
<text text-anchor="start" x="408.2" y="-1578.6" font-family="Arial" font-size="14.00">name </text>
<text text-anchor="start" x="447.11" y="-1578.6" font-family="Arial" font-size="14.00" fill="#666666">[text]</text>
<polygon fill="none" stroke="black" points="401.2,-1535.6 401.2,-1566.4 654.88,-1566.4 654.88,-1535.6 401.2,-1535.6"/>
<text text-anchor="start" x="408.2" y="-1547.8" font-family="Arial" font-size="14.00">latitude </text>
<text text-anchor="start" x="457.23" y="-1547.8" font-family="Arial" font-size="14.00" fill="#666666">[double precision]</text>
<polygon fill="none" stroke="black" points="401.2,-1504.8 401.2,-1535.6 654.88,-1535.6 654.88,-1504.8 401.2,-1504.8"/>
<text text-anchor="start" x="408.2" y="-1517" font-family="Arial" font-size="14.00">longitude </text>
<text text-anchor="start" x="468.92" y="-1517" font-family="Arial" font-size="14.00" fill="#666666">[double precision]</text>
<polygon fill="none" stroke="black" points="401.2,-1474 401.2,-1504.8 654.88,-1504.8 654.88,-1474 401.2,-1474"/>
<text text-anchor="start" x="408.2" y="-1486.2" font-family="Arial" font-size="14.00">prefecture_id </text>
<text text-anchor="start" x="493.81" y="-1486.2" font-family="Arial" font-size="14.00" fill="#666666">[text]</text>
<polygon fill="none" stroke="black" points="401.2,-1443.2 401.2,-1474 654.88,-1474 654.88,-1443.2 401.2,-1443.2"/>
<text text-anchor="start" x="408.2" y="-1455.4" font-family="Arial" font-size="14.00">city_id </text>
<text text-anchor="start" x="451.77" y="-1455.4" font-family="Arial" font-size="14.00" fill="#666666">[text]</text>
<polygon fill="none" stroke="black" points="401.2,-1412.4 401.2,-1443.2 654.88,-1443.2 654.88,-1412.4 401.2,-1412.4"/>
<text text-anchor="start" x="408.2" y="-1424.6" font-family="Arial" font-size="14.00">name_kana </text>
<text text-anchor="start" x="485.25" y="-1424.6" font-family="Arial" font-size="14.00" fill="#666666">[text]</text>
<polygon fill="none" stroke="black" points="401.2,-1381.6 401.2,-1412.4 654.88,-1412.4 654.88,-1381.6 401.2,-1381.6"/>
<text text-anchor="start" x="408.2" y="-1393.8" font-family="Arial" font-size="14.00">name_translations </text>
<text text-anchor="start" x="526.49" y="-1393.8" font-family="Arial" font-size="14.00" fill="#666666">[jsonb]</text>
<polygon fill="none" stroke="black" points="401.2,-1350.8 401.2,-1381.6 654.88,-1381.6 654.88,-1350.8 401.2,-1350.8"/>
<text text-anchor="start" x="408.2" y="-1363" font-family="Arial" font-size="14.00">prefecture_name </text>
<text text-anchor="start" x="517.93" y="-1363" font-family="Arial" font-size="14.00" fill="#666666">[text]</text>
<polygon fill="none" stroke="black" points="401.2,-1320 401.2,-1350.8 654.88,-1350.8 654.88,-1320 401.2,-1320"/>
<text text-anchor="start" x="408.2" y="-1332.2" font-family="Arial" font-size="14.00">prefecture_name_translations </text>
<text text-anchor="start" x="597.31" y="-1332.2" font-family="Arial" font-size="14.00" fill="#666666">[jsonb]</text>
<polygon fill="none" stroke="black" points="401.2,-1289.2 401.2,-1320 654.88,-1320 654.88,-1289.2 401.2,-1289.2"/>
<text text-anchor="start" x="408.2" y="-1301.4" font-family="Arial" font-size="14.00">city_name </text>
<text text-anchor="start" x="475.9" y="-1301.4" font-family="Arial" font-size="14.00" fill="#666666">[text]</text>
<polygon fill="none" stroke="black" points="401.2,-1258.4 401.2,-1289.2 654.88,-1289.2 654.88,-1258.4 401.2,-1258.4"/>
<text text-anchor="start" x="408.2" y="-1270.6" font-family="Arial" font-size="14.00">city_name_translations </text>
<text text-anchor="start" x="555.28" y="-1270.6" font-family="Arial" font-size="14.00" fill="#666666">[jsonb]</text>
<polygon fill="none" stroke="black" points="401.2,-1227.6 401.2,-1258.4 654.88,-1258.4 654.88,-1227.6 401.2,-1227.6"/>
<text text-anchor="start" x="408.2" y="-1239.8" font-family="Arial" font-size="14.00">created_at </text>
<text text-anchor="start" x="478.25" y="-1239.8" font-family="Arial" font-size="14.00" fill="#666666">[timestamp with time zone]</text>
<polygon fill="none" stroke="black" points="401.2,-1196.8 401.2,-1227.6 654.88,-1227.6 654.88,-1196.8 401.2,-1196.8"/>
<text text-anchor="start" x="408.2" y="-1209" font-family="Arial" font-size="14.00">updated_at </text>
<text text-anchor="start" x="482.16" y="-1209" font-family="Arial" font-size="14.00" fill="#666666">[timestamp with time zone]</text>
<polygon fill="none" stroke="black" points="401.2,-1166 401.2,-1196.8 654.88,-1196.8 654.88,-1166 401.2,-1166"/>
<text text-anchor="start" x="408.2" y="-1178.2" font-family="Arial" font-size="14.00">osm_id </text>
<text text-anchor="start" x="457.22" y="-1178.2" font-family="Arial" font-size="14.00" fill="#666666">[bigint]</text>
<polygon fill="none" stroke="black" points="401.2,-1135.2 401.2,-1166 654.88,-1166 654.88,-1135.2 401.2,-1135.2"/>
<text text-anchor="start" x="408.2" y="-1147.4" font-family="Arial" font-size="14.00">place_type </text>
<text text-anchor="start" x="479.81" y="-1147.4" font-family="Arial" font-size="14.00" fill="#666666">[text]</text>
<polygon fill="none" stroke="black" points="401.2,-1104.4 401.2,-1135.2 654.88,-1135.2 654.88,-1104.4 401.2,-1104.4"/>
<text text-anchor="start" x="408.2" y="-1116.6" font-family="Arial" font-size="14.00">tile_id </text>
<text text-anchor="start" x="448.67" y="-1116.6" font-family="Arial" font-size="14.00" fill="#666666">[text]</text>
</g>
<!-- public.machi&#45;&gt;public.prefectures -->
<g id="edge2" class="edge">
<title>public.machi:prefecture_id&#45;&gt;public.prefectures:id</title>
<path fill="none" stroke="black" d="M665.4,-1485.21C717.99,-1435.95 693.6,-967.23 707.04,-907.2 720.82,-845.64 692.99,-774 756.08,-774"/>
<polygon fill="black" stroke="black" points="665.34,-1485.24 654.38,-1485.15 660.46,-1487.39 656.49,-1489.13 656.49,-1489.13 656.49,-1489.13 660.46,-1487.39 658,-1493.38 665.34,-1485.24"/>
<text text-anchor="start" x="662.88" y="-1499.4" font-family="Arial" font-size="10.00">FOREIGN KEY (prefecture_id) REFERENCES prefectures(id)</text>
</g>
<!-- public.user_spots -->
<g id="node4" class="node">
<title>public.user_spots</title>
<polygon fill="#efefef" stroke="none" points="759.05,-1782 759.05,-1817.6 1023.03,-1817.6 1023.03,-1782 759.05,-1782"/>
<polygon fill="none" stroke="black" points="759.05,-1782 759.05,-1817.6 1023.03,-1817.6 1023.03,-1782 759.05,-1782"/>
<text text-anchor="start" x="766.05" y="-1795.4" font-family="Arial Bold" font-size="18.00">public.user_spots</text>
<text text-anchor="start" x="891.54" y="-1795.4" font-family="Arial" font-size="14.00">    </text>
<text text-anchor="start" x="922.66" y="-1795.4" font-family="Arial" font-size="14.00" fill="#666666">[BASE TABLE]</text>
<polygon fill="none" stroke="black" points="759.05,-1751.2 759.05,-1782 1023.03,-1782 1023.03,-1751.2 759.05,-1751.2"/>
<text text-anchor="start" x="766.05" y="-1763.4" font-family="Arial" font-size="14.00">id </text>
<text text-anchor="start" x="780.84" y="-1763.4" font-family="Arial" font-size="14.00" fill="#666666">[uuid]</text>
<polygon fill="none" stroke="black" points="759.05,-1720.4 759.05,-1751.2 1023.03,-1751.2 1023.03,-1720.4 759.05,-1720.4"/>
<text text-anchor="start" x="766.05" y="-1732.6" font-family="Arial" font-size="14.00">user_id </text>
<text text-anchor="start" x="815.86" y="-1732.6" font-family="Arial" font-size="14.00" fill="#666666">[uuid]</text>
<polygon fill="none" stroke="black" points="759.05,-1689.6 759.05,-1720.4 1023.03,-1720.4 1023.03,-1689.6 759.05,-1689.6"/>
<text text-anchor="start" x="766.05" y="-1701.8" font-family="Arial" font-size="14.00">map_id </text>
<text text-anchor="start" x="815.86" y="-1701.8" font-family="Arial" font-size="14.00" fill="#666666">[uuid]</text>
<polygon fill="none" stroke="black" points="759.05,-1658.8 759.05,-1689.6 1023.03,-1689.6 1023.03,-1658.8 759.05,-1658.8"/>
<text text-anchor="start" x="766.05" y="-1671" font-family="Arial" font-size="14.00">master_spot_id </text>
<text text-anchor="start" x="865.66" y="-1671" font-family="Arial" font-size="14.00" fill="#666666">[uuid]</text>
<polygon fill="none" stroke="black" points="759.05,-1628 759.05,-1658.8 1023.03,-1658.8 1023.03,-1628 759.05,-1628"/>
<text text-anchor="start" x="766.05" y="-1640.2" font-family="Arial" font-size="14.00">machi_id </text>
<text text-anchor="start" x="825.97" y="-1640.2" font-family="Arial" font-size="14.00" fill="#666666">[text]</text>
<polygon fill="none" stroke="black" points="759.05,-1597.2 759.05,-1628 1023.03,-1628 1023.03,-1597.2 759.05,-1597.2"/>
<text text-anchor="start" x="766.05" y="-1609.4" font-family="Arial" font-size="14.00">custom_name </text>
<text text-anchor="start" x="857.87" y="-1609.4" font-family="Arial" font-size="14.00" fill="#666666">[text]</text>
<polygon fill="none" stroke="black" points="759.05,-1566.4 759.05,-1597.2 1023.03,-1597.2 1023.03,-1566.4 759.05,-1566.4"/>
<text text-anchor="start" x="766.05" y="-1578.6" font-family="Arial" font-size="14.00">description </text>
<text text-anchor="start" x="837.64" y="-1578.6" font-family="Arial" font-size="14.00" fill="#666666">[text]</text>
<polygon fill="none" stroke="black" points="759.05,-1535.6 759.05,-1566.4 1023.03,-1566.4 1023.03,-1535.6 759.05,-1535.6"/>
<text text-anchor="start" x="766.05" y="-1547.8" font-family="Arial" font-size="14.00">images_count </text>
<text text-anchor="start" x="857.11" y="-1547.8" font-family="Arial" font-size="14.00" fill="#666666">[integer]</text>
<polygon fill="none" stroke="black" points="759.05,-1504.8 759.05,-1535.6 1023.03,-1535.6 1023.03,-1504.8 759.05,-1504.8"/>
<text text-anchor="start" x="766.05" y="-1517" font-family="Arial" font-size="14.00">likes_count </text>
<text text-anchor="start" x="839.98" y="-1517" font-family="Arial" font-size="14.00" fill="#666666">[integer]</text>
<polygon fill="none" stroke="black" points="759.05,-1474 759.05,-1504.8 1023.03,-1504.8 1023.03,-1474 759.05,-1474"/>
<text text-anchor="start" x="766.05" y="-1486.2" font-family="Arial" font-size="14.00">comments_count </text>
<text text-anchor="start" x="876.55" y="-1486.2" font-family="Arial" font-size="14.00" fill="#666666">[integer]</text>
<polygon fill="none" stroke="black" points="759.05,-1443.2 759.05,-1474 1023.03,-1474 1023.03,-1443.2 759.05,-1443.2"/>
<text text-anchor="start" x="766.05" y="-1455.4" font-family="Arial" font-size="14.00">order_index </text>
<text text-anchor="start" x="843.88" y="-1455.4" font-family="Arial" font-size="14.00" fill="#666666">[integer]</text>
<polygon fill="none" stroke="black" points="759.05,-1412.4 759.05,-1443.2 1023.03,-1443.2 1023.03,-1412.4 759.05,-1412.4"/>
<text text-anchor="start" x="766.05" y="-1424.6" font-family="Arial" font-size="14.00">created_at </text>
<text text-anchor="start" x="836.1" y="-1424.6" font-family="Arial" font-size="14.00" fill="#666666">[timestamp with time zone]</text>
<polygon fill="none" stroke="black" points="759.05,-1381.6 759.05,-1412.4 1023.03,-1412.4 1023.03,-1381.6 759.05,-1381.6"/>
<text text-anchor="start" x="766.05" y="-1393.8" font-family="Arial" font-size="14.00">updated_at </text>
<text text-anchor="start" x="840.01" y="-1393.8" font-family="Arial" font-size="14.00" fill="#666666">[timestamp with time zone]</text>
<polygon fill="none" stroke="black" points="759.05,-1350.8 759.05,-1381.6 1023.03,-1381.6 1023.03,-1350.8 759.05,-1350.8"/>
<text text-anchor="start" x="766.05" y="-1363" font-family="Arial" font-size="14.00">article_content </text>
<text text-anchor="start" x="861" y="-1363" font-family="Arial" font-size="14.00" fill="#666666">[jsonb]</text>
<polygon fill="none" stroke="black" points="759.05,-1320 759.05,-1350.8 1023.03,-1350.8 1023.03,-1320 759.05,-1320"/>
<text text-anchor="start" x="766.05" y="-1332.2" font-family="Arial" font-size="14.00">latitude </text>
<text text-anchor="start" x="815.09" y="-1332.2" font-family="Arial" font-size="14.00" fill="#666666">[double precision]</text>
<polygon fill="none" stroke="black" points="759.05,-1289.2 759.05,-1320 1023.03,-1320 1023.03,-1289.2 759.05,-1289.2"/>
<text text-anchor="start" x="766.05" y="-1301.4" font-family="Arial" font-size="14.00">longitude </text>
<text text-anchor="start" x="826.77" y="-1301.4" font-family="Arial" font-size="14.00" fill="#666666">[double precision]</text>
<polygon fill="none" stroke="black" points="759.05,-1258.4 759.05,-1289.2 1023.03,-1289.2 1023.03,-1258.4 759.05,-1258.4"/>
<text text-anchor="start" x="766.05" y="-1270.6" font-family="Arial" font-size="14.00">google_formatted_address </text>
<text text-anchor="start" x="936.5" y="-1270.6" font-family="Arial" font-size="14.00" fill="#666666">[text]</text>
<polygon fill="none" stroke="black" points="759.05,-1227.6 759.05,-1258.4 1023.03,-1258.4 1023.03,-1227.6 759.05,-1227.6"/>
<text text-anchor="start" x="766.05" y="-1239.8" font-family="Arial" font-size="14.00">google_short_address </text>
<text text-anchor="start" x="908.48" y="-1239.8" font-family="Arial" font-size="14.00" fill="#666666">[text]</text>
<polygon fill="none" stroke="black" points="759.05,-1196.8 759.05,-1227.6 1023.03,-1227.6 1023.03,-1196.8 759.05,-1196.8"/>
<text text-anchor="start" x="766.05" y="-1209" font-family="Arial" font-size="14.00">bookmarks_count </text>
<text text-anchor="start" x="880.44" y="-1209" font-family="Arial" font-size="14.00" fill="#666666">[integer]</text>
<polygon fill="none" stroke="black" points="759.05,-1166 759.05,-1196.8 1023.03,-1196.8 1023.03,-1166 759.05,-1166"/>
<text text-anchor="start" x="766.05" y="-1178.2" font-family="Arial" font-size="14.00">prefecture_id </text>
<text text-anchor="start" x="851.66" y="-1178.2" font-family="Arial" font-size="14.00" fill="#666666">[text]</text>
<polygon fill="none" stroke="black" points="759.05,-1135.2 759.05,-1166 1023.03,-1166 1023.03,-1135.2 759.05,-1135.2"/>
<text text-anchor="start" x="766.05" y="-1147.4" font-family="Arial" font-size="14.00">color </text>
<text text-anchor="start" x="800.29" y="-1147.4" font-family="Arial" font-size="14.00" fill="#666666">[text]</text>
<polygon fill="none" stroke="black" points="759.05,-1104.4 759.05,-1135.2 1023.03,-1135.2 1023.03,-1104.4 759.05,-1104.4"/>
<text text-anchor="start" x="766.05" y="-1116.6" font-family="Arial" font-size="14.00">spot_color </text>
<text text-anchor="start" x="834.53" y="-1116.6" font-family="Arial" font-size="14.00" fill="#666666">[text]</text>
<polygon fill="none" stroke="black" points="759.05,-1073.6 759.05,-1104.4 1023.03,-1104.4 1023.03,-1073.6 759.05,-1073.6"/>
<text text-anchor="start" x="766.05" y="-1085.8" font-family="Arial" font-size="14.00">label_id </text>
<text text-anchor="start" x="818.2" y="-1085.8" font-family="Arial" font-size="14.00" fill="#666666">[uuid]</text>
<polygon fill="none" stroke="black" points="759.05,-1042.8 759.05,-1073.6 1023.03,-1073.6 1023.03,-1042.8 759.05,-1042.8"/>
<text text-anchor="start" x="766.05" y="-1055" font-family="Arial" font-size="14.00">city_id </text>
<text text-anchor="start" x="809.62" y="-1055" font-family="Arial" font-size="14.00" fill="#666666">[text]</text>
<polygon fill="none" stroke="black" points="759.05,-1012 759.05,-1042.8 1023.03,-1042.8 1023.03,-1012 759.05,-1012"/>
<text text-anchor="start" x="766.05" y="-1024.2" font-family="Arial" font-size="14.00">prefecture_name </text>
<text text-anchor="start" x="875.78" y="-1024.2" font-family="Arial" font-size="14.00" fill="#666666">[text]</text>
<polygon fill="none" stroke="black" points="759.05,-981.2 759.05,-1012 1023.03,-1012 1023.03,-981.2 759.05,-981.2"/>
<text text-anchor="start" x="766.05" y="-993.4" font-family="Arial" font-size="14.00">city_name </text>
<text text-anchor="start" x="833.75" y="-993.4" font-family="Arial" font-size="14.00" fill="#666666">[text]</text>
<polygon fill="none" stroke="black" points="759.05,-950.4 759.05,-981.2 1023.03,-981.2 1023.03,-950.4 759.05,-950.4"/>
<text text-anchor="start" x="766.05" y="-962.6" font-family="Arial" font-size="14.00">machi_name </text>
<text text-anchor="start" x="850.09" y="-962.6" font-family="Arial" font-size="14.00" fill="#666666">[text]</text>
</g>
<!-- public.user_spots&#45;&gt;public.prefectures -->
<g id="edge3" class="edge">
<title>public.user_spots:prefecture_id&#45;&gt;public.prefectures:id</title>
<path fill="none" stroke="black" d="M1032.71,-1175.95C1069.35,-1127.6 1068.18,-774 1026,-774"/>
<polygon fill="black" stroke="black" points="1032.78,-1175.9 1021.92,-1177.41 1028.26,-1178.74 1024.6,-1181.04 1024.6,-1181.04 1024.6,-1181.04 1028.26,-1178.74 1026.71,-1185.03 1032.78,-1175.9"/>
<text text-anchor="start" x="632.48" y="-1191.4" font-family="Arial" font-size="10.00">FOREIGN KEY (prefecture_id) REFERENCES prefectures(id) ON DELETE SET NULL</text>
</g>
<!-- public.transport_hubs -->
<g id="node5" class="node">
<title>public.transport_hubs</title>
<polygon fill="#efefef" stroke="none" points="1127.56,-1643.4 1127.56,-1679 1422.53,-1679 1422.53,-1643.4 1127.56,-1643.4"/>
<polygon fill="none" stroke="black" points="1127.56,-1643.4 1127.56,-1679 1422.53,-1679 1422.53,-1643.4 1127.56,-1643.4"/>
<text text-anchor="start" x="1134.56" y="-1656.8" font-family="Arial Bold" font-size="18.00">public.transport_hubs</text>
<text text-anchor="start" x="1291.04" y="-1656.8" font-family="Arial" font-size="14.00">    </text>
<text text-anchor="start" x="1322.15" y="-1656.8" font-family="Arial" font-size="14.00" fill="#666666">[BASE TABLE]</text>
<polygon fill="none" stroke="black" points="1127.56,-1612.6 1127.56,-1643.4 1422.53,-1643.4 1422.53,-1612.6 1127.56,-1612.6"/>
<text text-anchor="start" x="1134.56" y="-1624.8" font-family="Arial" font-size="14.00">id </text>
<text text-anchor="start" x="1149.34" y="-1624.8" font-family="Arial" font-size="14.00" fill="#666666">[text]</text>
<polygon fill="none" stroke="black" points="1127.56,-1581.8 1127.56,-1612.6 1422.53,-1612.6 1422.53,-1581.8 1127.56,-1581.8"/>
<text text-anchor="start" x="1134.56" y="-1594" font-family="Arial" font-size="14.00">osm_id </text>
<text text-anchor="start" x="1183.58" y="-1594" font-family="Arial" font-size="14.00" fill="#666666">[bigint]</text>
<polygon fill="none" stroke="black" points="1127.56,-1551 1127.56,-1581.8 1422.53,-1581.8 1422.53,-1551 1127.56,-1551"/>
<text text-anchor="start" x="1134.56" y="-1563.2" font-family="Arial" font-size="14.00">osm_type </text>
<text text-anchor="start" x="1199.14" y="-1563.2" font-family="Arial" font-size="14.00" fill="#666666">[text]</text>
<polygon fill="none" stroke="black" points="1127.56,-1520.2 1127.56,-1551 1422.53,-1551 1422.53,-1520.2 1127.56,-1520.2"/>
<text text-anchor="start" x="1134.56" y="-1532.4" font-family="Arial" font-size="14.00">prefecture_id </text>
<text text-anchor="start" x="1220.16" y="-1532.4" font-family="Arial" font-size="14.00" fill="#666666">[text]</text>
<polygon fill="none" stroke="black" points="1127.56,-1489.4 1127.56,-1520.2 1422.53,-1520.2 1422.53,-1489.4 1127.56,-1489.4"/>
<text text-anchor="start" x="1134.56" y="-1501.6" font-family="Arial" font-size="14.00">city_id </text>
<text text-anchor="start" x="1178.13" y="-1501.6" font-family="Arial" font-size="14.00" fill="#666666">[text]</text>
<polygon fill="none" stroke="black" points="1127.56,-1458.6 1127.56,-1489.4 1422.53,-1489.4 1422.53,-1458.6 1127.56,-1458.6"/>
<text text-anchor="start" x="1134.56" y="-1470.8" font-family="Arial" font-size="14.00">type </text>
<text text-anchor="start" x="1164.91" y="-1470.8" font-family="Arial" font-size="14.00" fill="#666666">[text]</text>
<polygon fill="none" stroke="black" points="1127.56,-1427.8 1127.56,-1458.6 1422.53,-1458.6 1422.53,-1427.8 1127.56,-1427.8"/>
<text text-anchor="start" x="1134.56" y="-1440" font-family="Arial" font-size="14.00">subtype </text>
<text text-anchor="start" x="1187.48" y="-1440" font-family="Arial" font-size="14.00" fill="#666666">[text]</text>
<polygon fill="none" stroke="black" points="1127.56,-1397 1127.56,-1427.8 1422.53,-1427.8 1422.53,-1397 1127.56,-1397"/>
<text text-anchor="start" x="1134.56" y="-1409.2" font-family="Arial" font-size="14.00">name </text>
<text text-anchor="start" x="1173.47" y="-1409.2" font-family="Arial" font-size="14.00" fill="#666666">[text]</text>
<polygon fill="none" stroke="black" points="1127.56,-1366.2 1127.56,-1397 1422.53,-1397 1422.53,-1366.2 1127.56,-1366.2"/>
<text text-anchor="start" x="1134.56" y="-1378.4" font-family="Arial" font-size="14.00">name_kana </text>
<text text-anchor="start" x="1211.61" y="-1378.4" font-family="Arial" font-size="14.00" fill="#666666">[text]</text>
<polygon fill="none" stroke="black" points="1127.56,-1335.4 1127.56,-1366.2 1422.53,-1366.2 1422.53,-1335.4 1127.56,-1335.4"/>
<text text-anchor="start" x="1134.56" y="-1347.6" font-family="Arial" font-size="14.00">operator </text>
<text text-anchor="start" x="1190.59" y="-1347.6" font-family="Arial" font-size="14.00" fill="#666666">[text]</text>
<polygon fill="none" stroke="black" points="1127.56,-1304.6 1127.56,-1335.4 1422.53,-1335.4 1422.53,-1304.6 1127.56,-1304.6"/>
<text text-anchor="start" x="1134.56" y="-1316.8" font-family="Arial" font-size="14.00">network </text>
<text text-anchor="start" x="1187.47" y="-1316.8" font-family="Arial" font-size="14.00" fill="#666666">[text]</text>
<polygon fill="none" stroke="black" points="1127.56,-1273.8 1127.56,-1304.6 1422.53,-1304.6 1422.53,-1273.8 1127.56,-1273.8"/>
<text text-anchor="start" x="1134.56" y="-1286" font-family="Arial" font-size="14.00">ref </text>
<text text-anchor="start" x="1154.78" y="-1286" font-family="Arial" font-size="14.00" fill="#666666">[text]</text>
<polygon fill="none" stroke="black" points="1127.56,-1243 1127.56,-1273.8 1422.53,-1273.8 1422.53,-1243 1127.56,-1243"/>
<text text-anchor="start" x="1134.56" y="-1255.2" font-family="Arial" font-size="14.00">latitude </text>
<text text-anchor="start" x="1183.59" y="-1255.2" font-family="Arial" font-size="14.00" fill="#666666">[double precision]</text>
<polygon fill="none" stroke="black" points="1127.56,-1212.2 1127.56,-1243 1422.53,-1243 1422.53,-1212.2 1127.56,-1212.2"/>
<text text-anchor="start" x="1134.56" y="-1224.4" font-family="Arial" font-size="14.00">longitude </text>
<text text-anchor="start" x="1195.27" y="-1224.4" font-family="Arial" font-size="14.00" fill="#666666">[double precision]</text>
<polygon fill="none" stroke="black" points="1127.56,-1181.4 1127.56,-1212.2 1422.53,-1212.2 1422.53,-1181.4 1127.56,-1181.4"/>
<text text-anchor="start" x="1134.56" y="-1193.6" font-family="Arial" font-size="14.00">created_at </text>
<text text-anchor="start" x="1204.6" y="-1193.6" font-family="Arial" font-size="14.00" fill="#666666">[timestamp with time zone]</text>
<polygon fill="none" stroke="black" points="1127.56,-1150.6 1127.56,-1181.4 1422.53,-1181.4 1422.53,-1150.6 1127.56,-1150.6"/>
<text text-anchor="start" x="1134.56" y="-1162.8" font-family="Arial" font-size="14.00">updated_at </text>
<text text-anchor="start" x="1208.51" y="-1162.8" font-family="Arial" font-size="14.00" fill="#666666">[timestamp with time zone]</text>
<polygon fill="none" stroke="black" points="1127.56,-1119.8 1127.56,-1150.6 1422.53,-1150.6 1422.53,-1119.8 1127.56,-1119.8"/>
<text text-anchor="start" x="1134.56" y="-1132" font-family="Arial" font-size="14.00">tile_id </text>
<text text-anchor="start" x="1175.02" y="-1132" font-family="Arial" font-size="14.00" fill="#666666">[text]</text>
<polygon fill="none" stroke="black" points="1127.56,-1089 1127.56,-1119.8 1422.53,-1119.8 1422.53,-1089 1127.56,-1089"/>
<text text-anchor="start" x="1134.56" y="-1101.2" font-family="Arial" font-size="14.00">name_translations </text>
<text text-anchor="start" x="1252.85" y="-1101.2" font-family="Arial" font-size="14.00" fill="#666666">[jsonb]</text>
</g>
<!-- public.transport_hubs&#45;&gt;public.prefectures -->
<g id="edge4" class="edge">
<title>public.transport_hubs:prefecture_id&#45;&gt;public.prefectures:id</title>
<path fill="none" stroke="black" d="M1117.02,-1531.72C1059.67,-1482.09 1089.41,-972.27 1075.04,-907.2 1061.44,-845.6 1089.09,-774 1026,-774"/>
<polygon fill="black" stroke="black" points="1116.98,-1531.7 1124.55,-1539.64 1121.92,-1533.71 1125.94,-1535.35 1125.94,-1535.35 1125.94,-1535.35 1121.92,-1533.71 1127.94,-1531.31 1116.98,-1531.7"/>
<text text-anchor="start" x="1133.56" y="-1545.6" font-family="Arial" font-size="10.00">FOREIGN KEY (prefecture_id) REFERENCES prefectures(id)</text>
</g>
<!-- public.admin_boundaries -->
<g id="node6" class="node">
<title>public.admin_boundaries</title>
<polygon fill="#efefef" stroke="none" points="1526.57,-1474 1526.57,-1509.6 1847.52,-1509.6 1847.52,-1474 1526.57,-1474"/>
<polygon fill="none" stroke="black" points="1526.57,-1474 1526.57,-1509.6 1847.52,-1509.6 1847.52,-1474 1526.57,-1474"/>
<text text-anchor="start" x="1533.57" y="-1487.4" font-family="Arial Bold" font-size="18.00">public.admin_boundaries</text>
<text text-anchor="start" x="1716.03" y="-1487.4" font-family="Arial" font-size="14.00">    </text>
<text text-anchor="start" x="1747.14" y="-1487.4" font-family="Arial" font-size="14.00" fill="#666666">[BASE TABLE]</text>
<polygon fill="none" stroke="black" points="1526.57,-1443.2 1526.57,-1474 1847.52,-1474 1847.52,-1443.2 1526.57,-1443.2"/>
<text text-anchor="start" x="1533.57" y="-1455.4" font-family="Arial" font-size="14.00">id </text>
<text text-anchor="start" x="1548.35" y="-1455.4" font-family="Arial" font-size="14.00" fill="#666666">[integer]</text>
<polygon fill="none" stroke="black" points="1526.57,-1412.4 1526.57,-1443.2 1847.52,-1443.2 1847.52,-1412.4 1526.57,-1412.4"/>
<text text-anchor="start" x="1533.57" y="-1424.6" font-family="Arial" font-size="14.00">geom </text>
<text text-anchor="start" x="1572.48" y="-1424.6" font-family="Arial" font-size="14.00" fill="#666666">[geometry(MultiPolygon,4326)]</text>
<polygon fill="none" stroke="black" points="1526.57,-1381.6 1526.57,-1412.4 1847.52,-1412.4 1847.52,-1381.6 1526.57,-1381.6"/>
<text text-anchor="start" x="1533.57" y="-1393.8" font-family="Arial" font-size="14.00">created_at </text>
<text text-anchor="start" x="1603.61" y="-1393.8" font-family="Arial" font-size="14.00" fill="#666666">[timestamp with time zone]</text>
<polygon fill="none" stroke="black" points="1526.57,-1350.8 1526.57,-1381.6 1847.52,-1381.6 1847.52,-1350.8 1526.57,-1350.8"/>
<text text-anchor="start" x="1533.57" y="-1363" font-family="Arial" font-size="14.00">admin_level </text>
<text text-anchor="start" x="1612.17" y="-1363" font-family="Arial" font-size="14.00" fill="#666666">[integer]</text>
<polygon fill="none" stroke="black" points="1526.57,-1320 1526.57,-1350.8 1847.52,-1350.8 1847.52,-1320 1526.57,-1320"/>
<text text-anchor="start" x="1533.57" y="-1332.2" font-family="Arial" font-size="14.00">country_id </text>
<text text-anchor="start" x="1602.05" y="-1332.2" font-family="Arial" font-size="14.00" fill="#666666">[text]</text>
<polygon fill="none" stroke="black" points="1526.57,-1289.2 1526.57,-1320 1847.52,-1320 1847.52,-1289.2 1526.57,-1289.2"/>
<text text-anchor="start" x="1533.57" y="-1301.4" font-family="Arial" font-size="14.00">prefecture_id </text>
<text text-anchor="start" x="1619.17" y="-1301.4" font-family="Arial" font-size="14.00" fill="#666666">[text]</text>
<polygon fill="none" stroke="black" points="1526.57,-1258.4 1526.57,-1289.2 1847.52,-1289.2 1847.52,-1258.4 1526.57,-1258.4"/>
<text text-anchor="start" x="1533.57" y="-1270.6" font-family="Arial" font-size="14.00">city_id </text>
<text text-anchor="start" x="1577.14" y="-1270.6" font-family="Arial" font-size="14.00" fill="#666666">[text]</text>
</g>
<!-- public.admin_boundaries&#45;&gt;public.prefectures -->
<g id="edge5" class="edge">
<title>public.admin_boundaries:prefecture_id&#45;&gt;public.prefectures:id</title>
<path fill="none" stroke="black" d="M1515.52,-1302.98C1444.17,-1278.01 1530.33,-972.25 1475.04,-907.2 1407.64,-827.89 1130.09,-774 1026,-774"/>
<polygon fill="black" stroke="black" points="1515.36,-1302.95 1524.52,-1308.99 1520.63,-1303.8 1524.91,-1304.49 1524.91,-1304.49 1524.91,-1304.49 1520.63,-1303.8 1525.95,-1300.1 1515.36,-1302.95"/>
<text text-anchor="start" x="1244.04" y="-1314.6" font-family="Arial" font-size="10.00">FOREIGN KEY (prefecture_id) REFERENCES prefectures(id)</text>
</g>
</g>
</svg>
