<?xml version="1.0" encoding="UTF-8" standalone="no"?>
<!DOCTYPE svg PUBLIC "-//W3C//DTD SVG 1.1//EN"
 "http://www.w3.org/Graphics/SVG/1.1/DTD/svg11.dtd">
<!-- Generated by graphviz version 12.1.2 (20240928.0832)
 -->
<!-- Title: public.reports Pages: 1 -->
<svg width="711pt" height="1064pt"
 viewBox="0.00 0.00 710.65 1064.00" xmlns="http://www.w3.org/2000/svg" xmlns:xlink="http://www.w3.org/1999/xlink">
<g id="graph0" class="graph" transform="scale(1 1) rotate(0) translate(4 1060)">
<title>public.reports</title>
<polygon fill="white" stroke="none" points="-4,4 -4,-1060 706.65,-1060 706.65,4 -4,4"/>
<!-- public.reports -->
<g id="node1" class="node">
<title>public.reports</title>
<polygon fill="#efefef" stroke="none" points="82.13,-974.2 82.13,-1009.8 338.13,-1009.8 338.13,-974.2 82.13,-974.2"/>
<polygon fill="none" stroke="black" points="82.13,-974.2 82.13,-1009.8 338.13,-1009.8 338.13,-974.2 82.13,-974.2"/>
<text text-anchor="start" x="98.15" y="-987.6" font-family="Arial Bold" font-size="18.00">public.reports</text>
<text text-anchor="start" x="197.62" y="-987.6" font-family="Arial" font-size="14.00">    </text>
<text text-anchor="start" x="228.74" y="-987.6" font-family="Arial" font-size="14.00" fill="#666666">[BASE TABLE]</text>
<polygon fill="none" stroke="black" points="82.13,-943.4 82.13,-974.2 338.13,-974.2 338.13,-943.4 82.13,-943.4"/>
<text text-anchor="start" x="89.13" y="-955.6" font-family="Arial" font-size="14.00">id </text>
<text text-anchor="start" x="103.92" y="-955.6" font-family="Arial" font-size="14.00" fill="#666666">[uuid]</text>
<polygon fill="none" stroke="black" points="82.13,-912.6 82.13,-943.4 338.13,-943.4 338.13,-912.6 82.13,-912.6"/>
<text text-anchor="start" x="89.13" y="-924.8" font-family="Arial" font-size="14.00">reporter_id </text>
<text text-anchor="start" x="160.73" y="-924.8" font-family="Arial" font-size="14.00" fill="#666666">[uuid]</text>
<polygon fill="none" stroke="black" points="82.13,-881.8 82.13,-912.6 338.13,-912.6 338.13,-881.8 82.13,-881.8"/>
<text text-anchor="start" x="89.13" y="-894" font-family="Arial" font-size="14.00">target_type </text>
<text text-anchor="start" x="163.07" y="-894" font-family="Arial" font-size="14.00" fill="#666666">[report_target_type]</text>
<polygon fill="none" stroke="black" points="82.13,-851 82.13,-881.8 338.13,-881.8 338.13,-851 82.13,-851"/>
<text text-anchor="start" x="89.13" y="-863.2" font-family="Arial" font-size="14.00">target_id </text>
<text text-anchor="start" x="147.51" y="-863.2" font-family="Arial" font-size="14.00" fill="#666666">[uuid]</text>
<polygon fill="none" stroke="black" points="82.13,-820.2 82.13,-851 338.13,-851 338.13,-820.2 82.13,-820.2"/>
<text text-anchor="start" x="89.13" y="-832.4" font-family="Arial" font-size="14.00">reason </text>
<text text-anchor="start" x="135.83" y="-832.4" font-family="Arial" font-size="14.00" fill="#666666">[report_reason]</text>
<polygon fill="none" stroke="black" points="82.13,-789.4 82.13,-820.2 338.13,-820.2 338.13,-789.4 82.13,-789.4"/>
<text text-anchor="start" x="89.13" y="-801.6" font-family="Arial" font-size="14.00">description </text>
<text text-anchor="start" x="160.73" y="-801.6" font-family="Arial" font-size="14.00" fill="#666666">[text]</text>
<polygon fill="none" stroke="black" points="82.13,-758.6 82.13,-789.4 338.13,-789.4 338.13,-758.6 82.13,-758.6"/>
<text text-anchor="start" x="89.13" y="-770.8" font-family="Arial" font-size="14.00">status </text>
<text text-anchor="start" x="130.38" y="-770.8" font-family="Arial" font-size="14.00" fill="#666666">[report_status]</text>
<polygon fill="none" stroke="black" points="82.13,-727.8 82.13,-758.6 338.13,-758.6 338.13,-727.8 82.13,-727.8"/>
<text text-anchor="start" x="89.13" y="-740" font-family="Arial" font-size="14.00">admin_notes </text>
<text text-anchor="start" x="173.19" y="-740" font-family="Arial" font-size="14.00" fill="#666666">[text]</text>
<polygon fill="none" stroke="black" points="82.13,-697 82.13,-727.8 338.13,-727.8 338.13,-697 82.13,-697"/>
<text text-anchor="start" x="89.13" y="-709.2" font-family="Arial" font-size="14.00">resolved_at </text>
<text text-anchor="start" x="165.4" y="-709.2" font-family="Arial" font-size="14.00" fill="#666666">[timestamp with time zone]</text>
<polygon fill="none" stroke="black" points="82.13,-666.2 82.13,-697 338.13,-697 338.13,-666.2 82.13,-666.2"/>
<text text-anchor="start" x="89.13" y="-678.4" font-family="Arial" font-size="14.00">resolved_by </text>
<text text-anchor="start" x="168.51" y="-678.4" font-family="Arial" font-size="14.00" fill="#666666">[uuid]</text>
<polygon fill="none" stroke="black" points="82.13,-635.4 82.13,-666.2 338.13,-666.2 338.13,-635.4 82.13,-635.4"/>
<text text-anchor="start" x="89.13" y="-647.6" font-family="Arial" font-size="14.00">created_at </text>
<text text-anchor="start" x="159.18" y="-647.6" font-family="Arial" font-size="14.00" fill="#666666">[timestamp with time zone]</text>
<polygon fill="none" stroke="black" points="82.13,-604.6 82.13,-635.4 338.13,-635.4 338.13,-604.6 82.13,-604.6"/>
<text text-anchor="start" x="89.13" y="-616.8" font-family="Arial" font-size="14.00">updated_at </text>
<text text-anchor="start" x="163.09" y="-616.8" font-family="Arial" font-size="14.00" fill="#666666">[timestamp with time zone]</text>
<polygon fill="none" stroke="black" stroke-width="3" points="80.63,-603.1 80.63,-1011.3 339.63,-1011.3 339.63,-603.1 80.63,-603.1"/>
</g>
<!-- public.users -->
<g id="node2" class="node">
<title>public.users</title>
<polygon fill="#efefef" stroke="none" points="43.2,-443.6 43.2,-479.2 377.06,-479.2 377.06,-443.6 43.2,-443.6"/>
<polygon fill="none" stroke="black" points="43.2,-443.6 43.2,-479.2 377.06,-479.2 377.06,-443.6 43.2,-443.6"/>
<text text-anchor="start" x="104.64" y="-457" font-family="Arial Bold" font-size="18.00">public.users</text>
<text text-anchor="start" x="191.13" y="-457" font-family="Arial" font-size="14.00">    </text>
<text text-anchor="start" x="222.24" y="-457" font-family="Arial" font-size="14.00" fill="#666666">[BASE TABLE]</text>
<polygon fill="none" stroke="black" points="43.2,-412.8 43.2,-443.6 377.06,-443.6 377.06,-412.8 43.2,-412.8"/>
<text text-anchor="start" x="50.2" y="-425" font-family="Arial" font-size="14.00">id </text>
<text text-anchor="start" x="64.99" y="-425" font-family="Arial" font-size="14.00" fill="#666666">[uuid]</text>
<polygon fill="none" stroke="black" points="43.2,-382 43.2,-412.8 377.06,-412.8 377.06,-382 43.2,-382"/>
<text text-anchor="start" x="50.2" y="-394.2" font-family="Arial" font-size="14.00">email </text>
<text text-anchor="start" x="87.54" y="-394.2" font-family="Arial" font-size="14.00" fill="#666666">[text]</text>
<polygon fill="none" stroke="black" points="43.2,-351.2 43.2,-382 377.06,-382 377.06,-351.2 43.2,-351.2"/>
<text text-anchor="start" x="50.2" y="-363.4" font-family="Arial" font-size="14.00">username </text>
<text text-anchor="start" x="116.34" y="-363.4" font-family="Arial" font-size="14.00" fill="#666666">[text]</text>
<polygon fill="none" stroke="black" points="43.2,-320.4 43.2,-351.2 377.06,-351.2 377.06,-320.4 43.2,-320.4"/>
<text text-anchor="start" x="50.2" y="-332.6" font-family="Arial" font-size="14.00">display_name </text>
<text text-anchor="start" x="140.48" y="-332.6" font-family="Arial" font-size="14.00" fill="#666666">[text]</text>
<polygon fill="none" stroke="black" points="43.2,-289.6 43.2,-320.4 377.06,-320.4 377.06,-289.6 43.2,-289.6"/>
<text text-anchor="start" x="50.2" y="-301.8" font-family="Arial" font-size="14.00">avatar_url </text>
<text text-anchor="start" x="116.34" y="-301.8" font-family="Arial" font-size="14.00" fill="#666666">[text]</text>
<polygon fill="none" stroke="black" points="43.2,-258.8 43.2,-289.6 377.06,-289.6 377.06,-258.8 43.2,-258.8"/>
<text text-anchor="start" x="50.2" y="-271" font-family="Arial" font-size="14.00">bio </text>
<text text-anchor="start" x="72.77" y="-271" font-family="Arial" font-size="14.00" fill="#666666">[text]</text>
<polygon fill="none" stroke="black" points="43.2,-228 43.2,-258.8 377.06,-258.8 377.06,-228 43.2,-228"/>
<text text-anchor="start" x="50.2" y="-240.2" font-family="Arial" font-size="14.00">is_premium </text>
<text text-anchor="start" x="126.44" y="-240.2" font-family="Arial" font-size="14.00" fill="#666666">[boolean]</text>
<polygon fill="none" stroke="black" points="43.2,-197.2 43.2,-228 377.06,-228 377.06,-197.2 43.2,-197.2"/>
<text text-anchor="start" x="50.2" y="-209.4" font-family="Arial" font-size="14.00">premium_started_at </text>
<text text-anchor="start" x="178.59" y="-209.4" font-family="Arial" font-size="14.00" fill="#666666">[timestamp with time zone]</text>
<polygon fill="none" stroke="black" points="43.2,-166.4 43.2,-197.2 377.06,-197.2 377.06,-166.4 43.2,-166.4"/>
<text text-anchor="start" x="50.2" y="-178.6" font-family="Arial" font-size="14.00">premium_expires_at </text>
<text text-anchor="start" x="180.92" y="-178.6" font-family="Arial" font-size="14.00" fill="#666666">[timestamp with time zone]</text>
<polygon fill="none" stroke="black" points="43.2,-135.6 43.2,-166.4 377.06,-166.4 377.06,-135.6 43.2,-135.6"/>
<text text-anchor="start" x="50.2" y="-147.8" font-family="Arial" font-size="14.00">created_at </text>
<text text-anchor="start" x="120.25" y="-147.8" font-family="Arial" font-size="14.00" fill="#666666">[timestamp with time zone]</text>
<polygon fill="none" stroke="black" points="43.2,-104.8 43.2,-135.6 377.06,-135.6 377.06,-104.8 43.2,-104.8"/>
<text text-anchor="start" x="50.2" y="-117" font-family="Arial" font-size="14.00">updated_at </text>
<text text-anchor="start" x="124.16" y="-117" font-family="Arial" font-size="14.00" fill="#666666">[timestamp with time zone]</text>
<polygon fill="none" stroke="black" points="43.2,-74 43.2,-104.8 377.06,-104.8 377.06,-74 43.2,-74"/>
<text text-anchor="start" x="50.2" y="-86.2" font-family="Arial" font-size="14.00">push_token </text>
<text text-anchor="start" x="126.48" y="-86.2" font-family="Arial" font-size="14.00" fill="#666666">[text]</text>
<polygon fill="none" stroke="black" points="43.2,-43.2 43.2,-74 377.06,-74 377.06,-43.2 43.2,-43.2"/>
<text text-anchor="start" x="50.2" y="-55.4" font-family="Arial" font-size="14.00">push_token_updated_at </text>
<text text-anchor="start" x="204.34" y="-55.4" font-family="Arial" font-size="14.00" fill="#666666">[timestamp with time zone]</text>
</g>
<!-- public.reports&#45;&gt;public.users -->
<g id="edge1" class="edge">
<title>public.reports:reporter_id&#45;&gt;public.users:id</title>
<path fill="none" stroke="black" d="M348.42,-923.37C398.93,-872.99 430.61,-428.2 378.06,-428.2"/>
<polygon fill="black" stroke="black" points="348.38,-923.39 337.42,-923.82 343.6,-925.77 339.73,-927.7 339.73,-927.7 339.73,-927.7 343.6,-925.77 341.43,-931.88 348.38,-923.39"/>
<text text-anchor="start" x="346.13" y="-938" font-family="Arial" font-size="10.00">FOREIGN KEY (reporter_id) REFERENCES users(id) ON DELETE CASCADE</text>
</g>
<!-- public.reports&#45;&gt;public.users -->
<g id="edge2" class="edge">
<title>public.reports:resolved_by&#45;&gt;public.users:id</title>
<path fill="none" stroke="black" d="M348.94,-679.09C400.33,-652.77 431.69,-428.2 378.06,-428.2"/>
<polygon fill="black" stroke="black" points="349.14,-679.04 338.34,-677.16 343.97,-680.36 339.77,-681.43 339.77,-681.43 339.77,-681.43 343.97,-680.36 340.56,-685.88 349.14,-679.04"/>
<text text-anchor="start" x="346.13" y="-691.6" font-family="Arial" font-size="10.00">FOREIGN KEY (resolved_by) REFERENCES users(id)</text>
</g>
</g>
</svg>
