<?xml version="1.0" encoding="UTF-8" standalone="no"?>
<!DOCTYPE svg PUBLIC "-//W3C//DTD SVG 1.1//EN"
 "http://www.w3.org/Graphics/SVG/1.1/DTD/svg11.dtd">
<!-- Generated by graphviz version 12.1.2 (20240928.0832)
 -->
<!-- Title: public.admin_boundaries Pages: 1 -->
<svg width="1078pt" height="848pt"
 viewBox="0.00 0.00 1078.22 848.40" xmlns="http://www.w3.org/2000/svg" xmlns:xlink="http://www.w3.org/1999/xlink">
<g id="graph0" class="graph" transform="scale(1 1) rotate(0) translate(4 844.4)">
<title>public.admin_boundaries</title>
<polygon fill="white" stroke="none" points="-4,4 -4,-844.4 1074.22,-844.4 1074.22,4 -4,4"/>
<!-- public.admin_boundaries -->
<g id="node1" class="node">
<title>public.admin_boundaries</title>
<polygon fill="#efefef" stroke="none" points="374.7,-758.6 374.7,-794.2 695.66,-794.2 695.66,-758.6 374.7,-758.6"/>
<polygon fill="none" stroke="black" points="374.7,-758.6 374.7,-794.2 695.66,-794.2 695.66,-758.6 374.7,-758.6"/>
<text text-anchor="start" x="381.7" y="-772" font-family="Arial Bold" font-size="18.00">public.admin_boundaries</text>
<text text-anchor="start" x="564.17" y="-772" font-family="Arial" font-size="14.00">    </text>
<text text-anchor="start" x="595.28" y="-772" font-family="Arial" font-size="14.00" fill="#666666">[BASE TABLE]</text>
<polygon fill="none" stroke="black" points="374.7,-727.8 374.7,-758.6 695.66,-758.6 695.66,-727.8 374.7,-727.8"/>
<text text-anchor="start" x="381.7" y="-740" font-family="Arial" font-size="14.00">id </text>
<text text-anchor="start" x="396.49" y="-740" font-family="Arial" font-size="14.00" fill="#666666">[integer]</text>
<polygon fill="none" stroke="black" points="374.7,-697 374.7,-727.8 695.66,-727.8 695.66,-697 374.7,-697"/>
<text text-anchor="start" x="381.7" y="-709.2" font-family="Arial" font-size="14.00">geom </text>
<text text-anchor="start" x="420.62" y="-709.2" font-family="Arial" font-size="14.00" fill="#666666">[geometry(MultiPolygon,4326)]</text>
<polygon fill="none" stroke="black" points="374.7,-666.2 374.7,-697 695.66,-697 695.66,-666.2 374.7,-666.2"/>
<text text-anchor="start" x="381.7" y="-678.4" font-family="Arial" font-size="14.00">created_at </text>
<text text-anchor="start" x="451.75" y="-678.4" font-family="Arial" font-size="14.00" fill="#666666">[timestamp with time zone]</text>
<polygon fill="none" stroke="black" points="374.7,-635.4 374.7,-666.2 695.66,-666.2 695.66,-635.4 374.7,-635.4"/>
<text text-anchor="start" x="381.7" y="-647.6" font-family="Arial" font-size="14.00">admin_level </text>
<text text-anchor="start" x="460.3" y="-647.6" font-family="Arial" font-size="14.00" fill="#666666">[integer]</text>
<polygon fill="none" stroke="black" points="374.7,-604.6 374.7,-635.4 695.66,-635.4 695.66,-604.6 374.7,-604.6"/>
<text text-anchor="start" x="381.7" y="-616.8" font-family="Arial" font-size="14.00">country_id </text>
<text text-anchor="start" x="450.19" y="-616.8" font-family="Arial" font-size="14.00" fill="#666666">[text]</text>
<polygon fill="none" stroke="black" points="374.7,-573.8 374.7,-604.6 695.66,-604.6 695.66,-573.8 374.7,-573.8"/>
<text text-anchor="start" x="381.7" y="-586" font-family="Arial" font-size="14.00">prefecture_id </text>
<text text-anchor="start" x="467.31" y="-586" font-family="Arial" font-size="14.00" fill="#666666">[text]</text>
<polygon fill="none" stroke="black" points="374.7,-543 374.7,-573.8 695.66,-573.8 695.66,-543 374.7,-543"/>
<text text-anchor="start" x="381.7" y="-555.2" font-family="Arial" font-size="14.00">city_id </text>
<text text-anchor="start" x="425.28" y="-555.2" font-family="Arial" font-size="14.00" fill="#666666">[text]</text>
<polygon fill="none" stroke="black" stroke-width="3" points="373.2,-541.5 373.2,-795.7 697.16,-795.7 697.16,-541.5 373.2,-541.5"/>
</g>
<!-- public.countries -->
<g id="node2" class="node">
<title>public.countries</title>
<polygon fill="#efefef" stroke="none" points="43.2,-351.2 43.2,-386.8 297.16,-386.8 297.16,-351.2 43.2,-351.2"/>
<polygon fill="none" stroke="black" points="43.2,-351.2 43.2,-386.8 297.16,-386.8 297.16,-351.2 43.2,-351.2"/>
<text text-anchor="start" x="50.2" y="-364.6" font-family="Arial Bold" font-size="18.00">public.countries</text>
<text text-anchor="start" x="165.67" y="-364.6" font-family="Arial" font-size="14.00">    </text>
<text text-anchor="start" x="196.79" y="-364.6" font-family="Arial" font-size="14.00" fill="#666666">[BASE TABLE]</text>
<polygon fill="none" stroke="black" points="43.2,-320.4 43.2,-351.2 297.16,-351.2 297.16,-320.4 43.2,-320.4"/>
<text text-anchor="start" x="50.2" y="-332.6" font-family="Arial" font-size="14.00">id </text>
<text text-anchor="start" x="64.99" y="-332.6" font-family="Arial" font-size="14.00" fill="#666666">[text]</text>
<polygon fill="none" stroke="black" points="43.2,-289.6 43.2,-320.4 297.16,-320.4 297.16,-289.6 43.2,-289.6"/>
<text text-anchor="start" x="50.2" y="-301.8" font-family="Arial" font-size="14.00">name </text>
<text text-anchor="start" x="89.11" y="-301.8" font-family="Arial" font-size="14.00" fill="#666666">[text]</text>
<polygon fill="none" stroke="black" points="43.2,-258.8 43.2,-289.6 297.16,-289.6 297.16,-258.8 43.2,-258.8"/>
<text text-anchor="start" x="50.2" y="-271" font-family="Arial" font-size="14.00">name_kana </text>
<text text-anchor="start" x="127.25" y="-271" font-family="Arial" font-size="14.00" fill="#666666">[text]</text>
<polygon fill="none" stroke="black" points="43.2,-228 43.2,-258.8 297.16,-258.8 297.16,-228 43.2,-228"/>
<text text-anchor="start" x="50.2" y="-240.2" font-family="Arial" font-size="14.00">latitude </text>
<text text-anchor="start" x="99.23" y="-240.2" font-family="Arial" font-size="14.00" fill="#666666">[double precision]</text>
<polygon fill="none" stroke="black" points="43.2,-197.2 43.2,-228 297.16,-228 297.16,-197.2 43.2,-197.2"/>
<text text-anchor="start" x="50.2" y="-209.4" font-family="Arial" font-size="14.00">longitude </text>
<text text-anchor="start" x="110.92" y="-209.4" font-family="Arial" font-size="14.00" fill="#666666">[double precision]</text>
<polygon fill="none" stroke="black" points="43.2,-166.4 43.2,-197.2 297.16,-197.2 297.16,-166.4 43.2,-166.4"/>
<text text-anchor="start" x="50.2" y="-178.6" font-family="Arial" font-size="14.00">created_at </text>
<text text-anchor="start" x="120.25" y="-178.6" font-family="Arial" font-size="14.00" fill="#666666">[timestamp with time zone]</text>
<polygon fill="none" stroke="black" points="43.2,-135.6 43.2,-166.4 297.16,-166.4 297.16,-135.6 43.2,-135.6"/>
<text text-anchor="start" x="50.2" y="-147.8" font-family="Arial" font-size="14.00">updated_at </text>
<text text-anchor="start" x="124.16" y="-147.8" font-family="Arial" font-size="14.00" fill="#666666">[timestamp with time zone]</text>
<polygon fill="none" stroke="black" points="43.2,-104.8 43.2,-135.6 297.16,-135.6 297.16,-104.8 43.2,-104.8"/>
<text text-anchor="start" x="50.2" y="-117" font-family="Arial" font-size="14.00">continent_id </text>
<text text-anchor="start" x="129.59" y="-117" font-family="Arial" font-size="14.00" fill="#666666">[text]</text>
<polygon fill="none" stroke="black" points="43.2,-74 43.2,-104.8 297.16,-104.8 297.16,-74 43.2,-74"/>
<text text-anchor="start" x="50.2" y="-86.2" font-family="Arial" font-size="14.00">name_translations </text>
<text text-anchor="start" x="168.49" y="-86.2" font-family="Arial" font-size="14.00" fill="#666666">[jsonb]</text>
</g>
<!-- public.admin_boundaries&#45;&gt;public.countries -->
<g id="edge1" class="edge">
<title>public.admin_boundaries:country_id&#45;&gt;public.countries:id</title>
<path fill="none" stroke="black" d="M363.35,-619.33C253.28,-604.13 425.16,-335.8 298.16,-335.8"/>
<polygon fill="black" stroke="black" points="363.39,-619.33 373.08,-624.47 368.72,-619.68 373.04,-619.96 373.04,-619.96 373.04,-619.96 368.72,-619.68 373.66,-615.49 363.39,-619.33"/>
<text text-anchor="start" x="113.86" y="-630" font-family="Arial" font-size="10.00">FOREIGN KEY (country_id) REFERENCES countries(id)</text>
</g>
<!-- public.prefectures -->
<g id="node3" class="node">
<title>public.prefectures</title>
<polygon fill="#efefef" stroke="none" points="401.22,-351.2 401.22,-386.8 669.14,-386.8 669.14,-351.2 401.22,-351.2"/>
<polygon fill="none" stroke="black" points="401.22,-351.2 401.22,-386.8 669.14,-386.8 669.14,-351.2 401.22,-351.2"/>
<text text-anchor="start" x="408.22" y="-364.6" font-family="Arial Bold" font-size="18.00">public.prefectures</text>
<text text-anchor="start" x="537.65" y="-364.6" font-family="Arial" font-size="14.00">    </text>
<text text-anchor="start" x="568.77" y="-364.6" font-family="Arial" font-size="14.00" fill="#666666">[BASE TABLE]</text>
<polygon fill="none" stroke="black" points="401.22,-320.4 401.22,-351.2 669.14,-351.2 669.14,-320.4 401.22,-320.4"/>
<text text-anchor="start" x="408.22" y="-332.6" font-family="Arial" font-size="14.00">id </text>
<text text-anchor="start" x="423" y="-332.6" font-family="Arial" font-size="14.00" fill="#666666">[text]</text>
<polygon fill="none" stroke="black" points="401.22,-289.6 401.22,-320.4 669.14,-320.4 669.14,-289.6 401.22,-289.6"/>
<text text-anchor="start" x="408.22" y="-301.8" font-family="Arial" font-size="14.00">name </text>
<text text-anchor="start" x="447.13" y="-301.8" font-family="Arial" font-size="14.00" fill="#666666">[text]</text>
<polygon fill="none" stroke="black" points="401.22,-258.8 401.22,-289.6 669.14,-289.6 669.14,-258.8 401.22,-258.8"/>
<text text-anchor="start" x="408.22" y="-271" font-family="Arial" font-size="14.00">name_kana </text>
<text text-anchor="start" x="485.27" y="-271" font-family="Arial" font-size="14.00" fill="#666666">[text]</text>
<polygon fill="none" stroke="black" points="401.22,-228 401.22,-258.8 669.14,-258.8 669.14,-228 401.22,-228"/>
<text text-anchor="start" x="408.22" y="-240.2" font-family="Arial" font-size="14.00">region_id </text>
<text text-anchor="start" x="469.71" y="-240.2" font-family="Arial" font-size="14.00" fill="#666666">[text]</text>
<polygon fill="none" stroke="black" points="401.22,-197.2 401.22,-228 669.14,-228 669.14,-197.2 401.22,-197.2"/>
<text text-anchor="start" x="408.22" y="-209.4" font-family="Arial" font-size="14.00">created_at </text>
<text text-anchor="start" x="478.26" y="-209.4" font-family="Arial" font-size="14.00" fill="#666666">[timestamp with time zone]</text>
<polygon fill="none" stroke="black" points="401.22,-166.4 401.22,-197.2 669.14,-197.2 669.14,-166.4 401.22,-166.4"/>
<text text-anchor="start" x="408.22" y="-178.6" font-family="Arial" font-size="14.00">updated_at </text>
<text text-anchor="start" x="482.18" y="-178.6" font-family="Arial" font-size="14.00" fill="#666666">[timestamp with time zone]</text>
<polygon fill="none" stroke="black" points="401.22,-135.6 401.22,-166.4 669.14,-166.4 669.14,-135.6 401.22,-135.6"/>
<text text-anchor="start" x="408.22" y="-147.8" font-family="Arial" font-size="14.00">latitude </text>
<text text-anchor="start" x="457.25" y="-147.8" font-family="Arial" font-size="14.00" fill="#666666">[double precision]</text>
<polygon fill="none" stroke="black" points="401.22,-104.8 401.22,-135.6 669.14,-135.6 669.14,-104.8 401.22,-104.8"/>
<text text-anchor="start" x="408.22" y="-117" font-family="Arial" font-size="14.00">longitude </text>
<text text-anchor="start" x="468.93" y="-117" font-family="Arial" font-size="14.00" fill="#666666">[double precision]</text>
<polygon fill="none" stroke="black" points="401.22,-74 401.22,-104.8 669.14,-104.8 669.14,-74 401.22,-74"/>
<text text-anchor="start" x="408.22" y="-86.2" font-family="Arial" font-size="14.00">name_translations </text>
<text text-anchor="start" x="526.51" y="-86.2" font-family="Arial" font-size="14.00" fill="#666666">[jsonb]</text>
</g>
<!-- public.admin_boundaries&#45;&gt;public.prefectures -->
<g id="edge2" class="edge">
<title>public.admin_boundaries:prefecture_id&#45;&gt;public.prefectures:id</title>
<path fill="none" stroke="black" d="M703.74,-581.62C719.46,-539.45 695.52,-335.8 670.14,-335.8"/>
<polygon fill="black" stroke="black" points="703.71,-581.65 693.6,-585.88 700.07,-585.55 697.11,-588.71 697.11,-588.71 697.11,-588.71 700.07,-585.55 700.17,-592.03 703.71,-581.65"/>
<text text-anchor="start" x="703.66" y="-599.2" font-family="Arial" font-size="10.00">FOREIGN KEY (prefecture_id) REFERENCES prefectures(id)</text>
</g>
<!-- public.cities -->
<g id="node4" class="node">
<title>public.cities</title>
<polygon fill="#efefef" stroke="none" points="773.34,-382 773.34,-417.6 1027.02,-417.6 1027.02,-382 773.34,-382"/>
<polygon fill="none" stroke="black" points="773.34,-382 773.34,-417.6 1027.02,-417.6 1027.02,-382 773.34,-382"/>
<text text-anchor="start" x="794.2" y="-395.4" font-family="Arial Bold" font-size="18.00">public.cities</text>
<text text-anchor="start" x="881.67" y="-395.4" font-family="Arial" font-size="14.00">    </text>
<text text-anchor="start" x="912.79" y="-395.4" font-family="Arial" font-size="14.00" fill="#666666">[BASE TABLE]</text>
<polygon fill="none" stroke="black" points="773.34,-351.2 773.34,-382 1027.02,-382 1027.02,-351.2 773.34,-351.2"/>
<text text-anchor="start" x="780.34" y="-363.4" font-family="Arial" font-size="14.00">id </text>
<text text-anchor="start" x="795.13" y="-363.4" font-family="Arial" font-size="14.00" fill="#666666">[text]</text>
<polygon fill="none" stroke="black" points="773.34,-320.4 773.34,-351.2 1027.02,-351.2 1027.02,-320.4 773.34,-320.4"/>
<text text-anchor="start" x="780.34" y="-332.6" font-family="Arial" font-size="14.00">prefecture_id </text>
<text text-anchor="start" x="865.95" y="-332.6" font-family="Arial" font-size="14.00" fill="#666666">[text]</text>
<polygon fill="none" stroke="black" points="773.34,-289.6 773.34,-320.4 1027.02,-320.4 1027.02,-289.6 773.34,-289.6"/>
<text text-anchor="start" x="780.34" y="-301.8" font-family="Arial" font-size="14.00">name </text>
<text text-anchor="start" x="819.25" y="-301.8" font-family="Arial" font-size="14.00" fill="#666666">[text]</text>
<polygon fill="none" stroke="black" points="773.34,-258.8 773.34,-289.6 1027.02,-289.6 1027.02,-258.8 773.34,-258.8"/>
<text text-anchor="start" x="780.34" y="-271" font-family="Arial" font-size="14.00">name_kana </text>
<text text-anchor="start" x="857.39" y="-271" font-family="Arial" font-size="14.00" fill="#666666">[text]</text>
<polygon fill="none" stroke="black" points="773.34,-228 773.34,-258.8 1027.02,-258.8 1027.02,-228 773.34,-228"/>
<text text-anchor="start" x="780.34" y="-240.2" font-family="Arial" font-size="14.00">type </text>
<text text-anchor="start" x="810.69" y="-240.2" font-family="Arial" font-size="14.00" fill="#666666">[text]</text>
<polygon fill="none" stroke="black" points="773.34,-197.2 773.34,-228 1027.02,-228 1027.02,-197.2 773.34,-197.2"/>
<text text-anchor="start" x="780.34" y="-209.4" font-family="Arial" font-size="14.00">created_at </text>
<text text-anchor="start" x="850.39" y="-209.4" font-family="Arial" font-size="14.00" fill="#666666">[timestamp with time zone]</text>
<polygon fill="none" stroke="black" points="773.34,-166.4 773.34,-197.2 1027.02,-197.2 1027.02,-166.4 773.34,-166.4"/>
<text text-anchor="start" x="780.34" y="-178.6" font-family="Arial" font-size="14.00">updated_at </text>
<text text-anchor="start" x="854.3" y="-178.6" font-family="Arial" font-size="14.00" fill="#666666">[timestamp with time zone]</text>
<polygon fill="none" stroke="black" points="773.34,-135.6 773.34,-166.4 1027.02,-166.4 1027.02,-135.6 773.34,-135.6"/>
<text text-anchor="start" x="780.34" y="-147.8" font-family="Arial" font-size="14.00">name_translations </text>
<text text-anchor="start" x="898.63" y="-147.8" font-family="Arial" font-size="14.00" fill="#666666">[jsonb]</text>
<polygon fill="none" stroke="black" points="773.34,-104.8 773.34,-135.6 1027.02,-135.6 1027.02,-104.8 773.34,-104.8"/>
<text text-anchor="start" x="780.34" y="-117" font-family="Arial" font-size="14.00">latitude </text>
<text text-anchor="start" x="829.37" y="-117" font-family="Arial" font-size="14.00" fill="#666666">[double precision]</text>
<polygon fill="none" stroke="black" points="773.34,-74 773.34,-104.8 1027.02,-104.8 1027.02,-74 773.34,-74"/>
<text text-anchor="start" x="780.34" y="-86.2" font-family="Arial" font-size="14.00">longitude </text>
<text text-anchor="start" x="841.06" y="-86.2" font-family="Arial" font-size="14.00" fill="#666666">[double precision]</text>
<polygon fill="none" stroke="black" points="773.34,-43.2 773.34,-74 1027.02,-74 1027.02,-43.2 773.34,-43.2"/>
<text text-anchor="start" x="780.34" y="-55.4" font-family="Arial" font-size="14.00">tile_id </text>
<text text-anchor="start" x="820.81" y="-55.4" font-family="Arial" font-size="14.00" fill="#666666">[text]</text>
</g>
<!-- public.admin_boundaries&#45;&gt;public.cities -->
<g id="edge3" class="edge">
<title>public.admin_boundaries:city_id&#45;&gt;public.cities:id</title>
<path fill="none" stroke="black" d="M706.95,-557.46C779.8,-542.99 684.46,-366.6 772.34,-366.6"/>
<polygon fill="black" stroke="black" points="706.95,-557.46 696.58,-553.89 701.63,-557.94 697.32,-558.34 697.32,-558.34 697.32,-558.34 701.63,-557.94 697.4,-562.85 706.95,-557.46"/>
<text text-anchor="start" x="703.66" y="-568.4" font-family="Arial" font-size="10.00">FOREIGN KEY (city_id) REFERENCES cities(id)</text>
</g>
</g>
</svg>
