<?xml version="1.0" encoding="UTF-8" standalone="no"?>
<!DOCTYPE svg PUBLIC "-//W3C//DTD SVG 1.1//EN"
 "http://www.w3.org/Graphics/SVG/1.1/DTD/svg11.dtd">
<!-- Generated by graphviz version 12.1.2 (20240928.0832)
 -->
<!-- Title: public.collection_maps Pages: 1 -->
<svg width="1056pt" height="1002pt"
 viewBox="0.00 0.00 1056.34 1002.40" xmlns="http://www.w3.org/2000/svg" xmlns:xlink="http://www.w3.org/1999/xlink">
<g id="graph0" class="graph" transform="scale(1 1) rotate(0) translate(4 998.4)">
<title>public.collection_maps</title>
<polygon fill="white" stroke="none" points="-4,4 -4,-998.4 1052.34,-998.4 1052.34,4 -4,4"/>
<!-- public.collection_maps -->
<g id="node1" class="node">
<title>public.collection_maps</title>
<polygon fill="#efefef" stroke="none" points="393.43,-912.6 393.43,-948.2 699.38,-948.2 699.38,-912.6 393.43,-912.6"/>
<polygon fill="none" stroke="black" points="393.43,-912.6 393.43,-948.2 699.38,-948.2 699.38,-912.6 393.43,-912.6"/>
<text text-anchor="start" x="400.43" y="-926" font-family="Arial Bold" font-size="18.00">public.collection_maps</text>
<text text-anchor="start" x="567.89" y="-926" font-family="Arial" font-size="14.00">    </text>
<text text-anchor="start" x="599.01" y="-926" font-family="Arial" font-size="14.00" fill="#666666">[BASE TABLE]</text>
<polygon fill="none" stroke="black" points="393.43,-881.8 393.43,-912.6 699.38,-912.6 699.38,-881.8 393.43,-881.8"/>
<text text-anchor="start" x="400.43" y="-894" font-family="Arial" font-size="14.00">id </text>
<text text-anchor="start" x="415.22" y="-894" font-family="Arial" font-size="14.00" fill="#666666">[uuid]</text>
<polygon fill="none" stroke="black" points="393.43,-851 393.43,-881.8 699.38,-881.8 699.38,-851 393.43,-851"/>
<text text-anchor="start" x="400.43" y="-863.2" font-family="Arial" font-size="14.00">collection_id </text>
<text text-anchor="start" x="481.37" y="-863.2" font-family="Arial" font-size="14.00" fill="#666666">[uuid]</text>
<polygon fill="none" stroke="black" points="393.43,-820.2 393.43,-851 699.38,-851 699.38,-820.2 393.43,-820.2"/>
<text text-anchor="start" x="400.43" y="-832.4" font-family="Arial" font-size="14.00">map_id </text>
<text text-anchor="start" x="450.24" y="-832.4" font-family="Arial" font-size="14.00" fill="#666666">[uuid]</text>
<polygon fill="none" stroke="black" points="393.43,-789.4 393.43,-820.2 699.38,-820.2 699.38,-789.4 393.43,-789.4"/>
<text text-anchor="start" x="400.43" y="-801.6" font-family="Arial" font-size="14.00">order_index </text>
<text text-anchor="start" x="478.26" y="-801.6" font-family="Arial" font-size="14.00" fill="#666666">[integer]</text>
<polygon fill="none" stroke="black" points="393.43,-758.6 393.43,-789.4 699.38,-789.4 699.38,-758.6 393.43,-758.6"/>
<text text-anchor="start" x="400.43" y="-770.8" font-family="Arial" font-size="14.00">created_at </text>
<text text-anchor="start" x="470.48" y="-770.8" font-family="Arial" font-size="14.00" fill="#666666">[timestamp with time zone]</text>
<polygon fill="none" stroke="black" stroke-width="3" points="391.93,-757.1 391.93,-949.7 700.88,-949.7 700.88,-757.1 391.93,-757.1"/>
</g>
<!-- public.collections -->
<g id="node2" class="node">
<title>public.collections</title>
<polygon fill="#efefef" stroke="none" points="231.43,-474.4 231.43,-510 497.38,-510 497.38,-474.4 231.43,-474.4"/>
<polygon fill="none" stroke="black" points="231.43,-474.4 231.43,-510 497.38,-510 497.38,-474.4 231.43,-474.4"/>
<text text-anchor="start" x="238.43" y="-487.8" font-family="Arial Bold" font-size="18.00">public.collections</text>
<text text-anchor="start" x="365.9" y="-487.8" font-family="Arial" font-size="14.00">    </text>
<text text-anchor="start" x="397.01" y="-487.8" font-family="Arial" font-size="14.00" fill="#666666">[BASE TABLE]</text>
<polygon fill="none" stroke="black" points="231.43,-443.6 231.43,-474.4 497.38,-474.4 497.38,-443.6 231.43,-443.6"/>
<text text-anchor="start" x="238.43" y="-455.8" font-family="Arial" font-size="14.00">id </text>
<text text-anchor="start" x="253.21" y="-455.8" font-family="Arial" font-size="14.00" fill="#666666">[uuid]</text>
<polygon fill="none" stroke="black" points="231.43,-412.8 231.43,-443.6 497.38,-443.6 497.38,-412.8 231.43,-412.8"/>
<text text-anchor="start" x="238.43" y="-425" font-family="Arial" font-size="14.00">user_id </text>
<text text-anchor="start" x="288.23" y="-425" font-family="Arial" font-size="14.00" fill="#666666">[uuid]</text>
<polygon fill="none" stroke="black" points="231.43,-382 231.43,-412.8 497.38,-412.8 497.38,-382 231.43,-382"/>
<text text-anchor="start" x="238.43" y="-394.2" font-family="Arial" font-size="14.00">name </text>
<text text-anchor="start" x="277.34" y="-394.2" font-family="Arial" font-size="14.00" fill="#666666">[text]</text>
<polygon fill="none" stroke="black" points="231.43,-351.2 231.43,-382 497.38,-382 497.38,-351.2 231.43,-351.2"/>
<text text-anchor="start" x="238.43" y="-363.4" font-family="Arial" font-size="14.00">description </text>
<text text-anchor="start" x="310.02" y="-363.4" font-family="Arial" font-size="14.00" fill="#666666">[text]</text>
<polygon fill="none" stroke="black" points="231.43,-320.4 231.43,-351.2 497.38,-351.2 497.38,-320.4 231.43,-320.4"/>
<text text-anchor="start" x="238.43" y="-332.6" font-family="Arial" font-size="14.00">thumbnail_url </text>
<text text-anchor="start" x="326.37" y="-332.6" font-family="Arial" font-size="14.00" fill="#666666">[text]</text>
<polygon fill="none" stroke="black" points="231.43,-289.6 231.43,-320.4 497.38,-320.4 497.38,-289.6 231.43,-289.6"/>
<text text-anchor="start" x="238.43" y="-301.8" font-family="Arial" font-size="14.00">is_public </text>
<text text-anchor="start" x="296.79" y="-301.8" font-family="Arial" font-size="14.00" fill="#666666">[boolean]</text>
<polygon fill="none" stroke="black" points="231.43,-258.8 231.43,-289.6 497.38,-289.6 497.38,-258.8 231.43,-258.8"/>
<text text-anchor="start" x="238.43" y="-271" font-family="Arial" font-size="14.00">maps_count </text>
<text text-anchor="start" x="318.59" y="-271" font-family="Arial" font-size="14.00" fill="#666666">[integer]</text>
<polygon fill="none" stroke="black" points="231.43,-228 231.43,-258.8 497.38,-258.8 497.38,-228 231.43,-228"/>
<text text-anchor="start" x="238.43" y="-240.2" font-family="Arial" font-size="14.00">order_index </text>
<text text-anchor="start" x="316.25" y="-240.2" font-family="Arial" font-size="14.00" fill="#666666">[integer]</text>
<polygon fill="none" stroke="black" points="231.43,-197.2 231.43,-228 497.38,-228 497.38,-197.2 231.43,-197.2"/>
<text text-anchor="start" x="238.43" y="-209.4" font-family="Arial" font-size="14.00">created_at </text>
<text text-anchor="start" x="308.48" y="-209.4" font-family="Arial" font-size="14.00" fill="#666666">[timestamp with time zone]</text>
<polygon fill="none" stroke="black" points="231.43,-166.4 231.43,-197.2 497.38,-197.2 497.38,-166.4 231.43,-166.4"/>
<text text-anchor="start" x="238.43" y="-178.6" font-family="Arial" font-size="14.00">updated_at </text>
<text text-anchor="start" x="312.39" y="-178.6" font-family="Arial" font-size="14.00" fill="#666666">[timestamp with time zone]</text>
</g>
<!-- public.collection_maps&#45;&gt;public.collections -->
<g id="edge1" class="edge">
<title>public.collection_maps:collection_id&#45;&gt;public.collections:id</title>
<path fill="none" stroke="black" d="M382.24,-865.62C329.33,-856.79 374.78,-774.36 393.43,-712.4 417.8,-631.48 472.85,-634.06 497.38,-553.2 509.54,-513.13 540.25,-459 498.38,-459"/>
<polygon fill="black" stroke="black" points="382.13,-865.62 391.76,-870.86 387.45,-866.02 391.77,-866.35 391.77,-866.35 391.77,-866.35 387.45,-866.02 392.44,-861.89 382.13,-865.62"/>
<text text-anchor="start" x="7" y="-876.4" font-family="Arial" font-size="10.00">FOREIGN KEY (collection_id) REFERENCES collections(id) ON DELETE CASCADE</text>
</g>
<!-- public.maps -->
<g id="node3" class="node">
<title>public.maps</title>
<polygon fill="#efefef" stroke="none" points="601.57,-597.6 601.57,-633.2 855.25,-633.2 855.25,-597.6 601.57,-597.6"/>
<polygon fill="none" stroke="black" points="601.57,-597.6 601.57,-633.2 855.25,-633.2 855.25,-597.6 601.57,-597.6"/>
<text text-anchor="start" x="622.42" y="-611" font-family="Arial Bold" font-size="18.00">public.maps</text>
<text text-anchor="start" x="709.9" y="-611" font-family="Arial" font-size="14.00">    </text>
<text text-anchor="start" x="741.02" y="-611" font-family="Arial" font-size="14.00" fill="#666666">[BASE TABLE]</text>
<polygon fill="none" stroke="black" points="601.57,-566.8 601.57,-597.6 855.25,-597.6 855.25,-566.8 601.57,-566.8"/>
<text text-anchor="start" x="608.57" y="-579" font-family="Arial" font-size="14.00">id </text>
<text text-anchor="start" x="623.35" y="-579" font-family="Arial" font-size="14.00" fill="#666666">[uuid]</text>
<polygon fill="none" stroke="black" points="601.57,-536 601.57,-566.8 855.25,-566.8 855.25,-536 601.57,-536"/>
<text text-anchor="start" x="608.57" y="-548.2" font-family="Arial" font-size="14.00">user_id </text>
<text text-anchor="start" x="658.37" y="-548.2" font-family="Arial" font-size="14.00" fill="#666666">[uuid]</text>
<polygon fill="none" stroke="black" points="601.57,-505.2 601.57,-536 855.25,-536 855.25,-505.2 601.57,-505.2"/>
<text text-anchor="start" x="608.57" y="-517.4" font-family="Arial" font-size="14.00">name </text>
<text text-anchor="start" x="647.48" y="-517.4" font-family="Arial" font-size="14.00" fill="#666666">[text]</text>
<polygon fill="none" stroke="black" points="601.57,-474.4 601.57,-505.2 855.25,-505.2 855.25,-474.4 601.57,-474.4"/>
<text text-anchor="start" x="608.57" y="-486.6" font-family="Arial" font-size="14.00">description </text>
<text text-anchor="start" x="680.16" y="-486.6" font-family="Arial" font-size="14.00" fill="#666666">[text]</text>
<polygon fill="none" stroke="black" points="601.57,-443.6 601.57,-474.4 855.25,-474.4 855.25,-443.6 601.57,-443.6"/>
<text text-anchor="start" x="608.57" y="-455.8" font-family="Arial" font-size="14.00">is_public </text>
<text text-anchor="start" x="666.93" y="-455.8" font-family="Arial" font-size="14.00" fill="#666666">[boolean]</text>
<polygon fill="none" stroke="black" points="601.57,-412.8 601.57,-443.6 855.25,-443.6 855.25,-412.8 601.57,-412.8"/>
<text text-anchor="start" x="608.57" y="-425" font-family="Arial" font-size="14.00">is_official </text>
<text text-anchor="start" x="670.03" y="-425" font-family="Arial" font-size="14.00" fill="#666666">[boolean]</text>
<polygon fill="none" stroke="black" points="601.57,-382 601.57,-412.8 855.25,-412.8 855.25,-382 601.57,-382"/>
<text text-anchor="start" x="608.57" y="-394.2" font-family="Arial" font-size="14.00">thumbnail_url </text>
<text text-anchor="start" x="696.5" y="-394.2" font-family="Arial" font-size="14.00" fill="#666666">[text]</text>
<polygon fill="none" stroke="black" points="601.57,-351.2 601.57,-382 855.25,-382 855.25,-351.2 601.57,-351.2"/>
<text text-anchor="start" x="608.57" y="-363.4" font-family="Arial" font-size="14.00">spots_count </text>
<text text-anchor="start" x="687.95" y="-363.4" font-family="Arial" font-size="14.00" fill="#666666">[integer]</text>
<polygon fill="none" stroke="black" points="601.57,-320.4 601.57,-351.2 855.25,-351.2 855.25,-320.4 601.57,-320.4"/>
<text text-anchor="start" x="608.57" y="-332.6" font-family="Arial" font-size="14.00">likes_count </text>
<text text-anchor="start" x="682.5" y="-332.6" font-family="Arial" font-size="14.00" fill="#666666">[integer]</text>
<polygon fill="none" stroke="black" points="601.57,-289.6 601.57,-320.4 855.25,-320.4 855.25,-289.6 601.57,-289.6"/>
<text text-anchor="start" x="608.57" y="-301.8" font-family="Arial" font-size="14.00">created_at </text>
<text text-anchor="start" x="678.61" y="-301.8" font-family="Arial" font-size="14.00" fill="#666666">[timestamp with time zone]</text>
<polygon fill="none" stroke="black" points="601.57,-258.8 601.57,-289.6 855.25,-289.6 855.25,-258.8 601.57,-258.8"/>
<text text-anchor="start" x="608.57" y="-271" font-family="Arial" font-size="14.00">updated_at </text>
<text text-anchor="start" x="682.52" y="-271" font-family="Arial" font-size="14.00" fill="#666666">[timestamp with time zone]</text>
<polygon fill="none" stroke="black" points="601.57,-228 601.57,-258.8 855.25,-258.8 855.25,-228 601.57,-228"/>
<text text-anchor="start" x="608.57" y="-240.2" font-family="Arial" font-size="14.00">comments_count </text>
<text text-anchor="start" x="719.06" y="-240.2" font-family="Arial" font-size="14.00" fill="#666666">[integer]</text>
<polygon fill="none" stroke="black" points="601.57,-197.2 601.57,-228 855.25,-228 855.25,-197.2 601.57,-197.2"/>
<text text-anchor="start" x="608.57" y="-209.4" font-family="Arial" font-size="14.00">is_article_public </text>
<text text-anchor="start" x="712.06" y="-209.4" font-family="Arial" font-size="14.00" fill="#666666">[boolean]</text>
<polygon fill="none" stroke="black" points="601.57,-166.4 601.57,-197.2 855.25,-197.2 855.25,-166.4 601.57,-166.4"/>
<text text-anchor="start" x="608.57" y="-178.6" font-family="Arial" font-size="14.00">bookmarks_count </text>
<text text-anchor="start" x="722.96" y="-178.6" font-family="Arial" font-size="14.00" fill="#666666">[integer]</text>
<polygon fill="none" stroke="black" points="601.57,-135.6 601.57,-166.4 855.25,-166.4 855.25,-135.6 601.57,-135.6"/>
<text text-anchor="start" x="608.57" y="-147.8" font-family="Arial" font-size="14.00">category_id </text>
<text text-anchor="start" x="684.83" y="-147.8" font-family="Arial" font-size="14.00" fill="#666666">[text]</text>
<polygon fill="none" stroke="black" points="601.57,-104.8 601.57,-135.6 855.25,-135.6 855.25,-104.8 601.57,-104.8"/>
<text text-anchor="start" x="608.57" y="-117" font-family="Arial" font-size="14.00">article_intro </text>
<text text-anchor="start" x="684.82" y="-117" font-family="Arial" font-size="14.00" fill="#666666">[jsonb]</text>
<polygon fill="none" stroke="black" points="601.57,-74 601.57,-104.8 855.25,-104.8 855.25,-74 601.57,-74"/>
<text text-anchor="start" x="608.57" y="-86.2" font-family="Arial" font-size="14.00">article_outro </text>
<text text-anchor="start" x="689.5" y="-86.2" font-family="Arial" font-size="14.00" fill="#666666">[jsonb]</text>
<polygon fill="none" stroke="black" points="601.57,-43.2 601.57,-74 855.25,-74 855.25,-43.2 601.57,-43.2"/>
<text text-anchor="start" x="608.57" y="-55.4" font-family="Arial" font-size="14.00">show_label_chips </text>
<text text-anchor="start" x="722.97" y="-55.4" font-family="Arial" font-size="14.00" fill="#666666">[boolean]</text>
</g>
<!-- public.collection_maps&#45;&gt;public.maps -->
<g id="edge2" class="edge">
<title>public.collection_maps:map_id&#45;&gt;public.maps:id</title>
<path fill="none" stroke="black" d="M710.52,-834.54C751.79,-825.04 728.73,-754.12 699.38,-712.4 672.72,-674.51 628.27,-714.25 601.57,-676.4 577.43,-642.19 558.7,-582.2 600.57,-582.2"/>
<polygon fill="black" stroke="black" points="710.66,-834.52 700.24,-831.09 705.35,-835.08 701.05,-835.53 701.05,-835.53 701.05,-835.53 705.35,-835.08 701.18,-840.04 710.66,-834.52"/>
<text text-anchor="start" x="707.38" y="-845.6" font-family="Arial" font-size="10.00">FOREIGN KEY (map_id) REFERENCES maps(id) ON DELETE CASCADE</text>
</g>
</g>
</svg>
