<?xml version="1.0" encoding="UTF-8" standalone="no"?>
<!DOCTYPE svg PUBLIC "-//W3C//DTD SVG 1.1//EN"
 "http://www.w3.org/Graphics/SVG/1.1/DTD/svg11.dtd">
<!-- Generated by graphviz version 12.1.2 (20240928.0832)
 -->
<!-- Title: public.regions Pages: 1 -->
<svg width="664pt" height="1314pt"
 viewBox="0.00 0.00 663.87 1314.40" xmlns="http://www.w3.org/2000/svg" xmlns:xlink="http://www.w3.org/1999/xlink">
<g id="graph0" class="graph" transform="scale(1 1) rotate(0) translate(4 1310.4)">
<title>public.regions</title>
<polygon fill="white" stroke="none" points="-4,4 -4,-1310.4 659.87,-1310.4 659.87,4 -4,4"/>
<!-- public.regions -->
<g id="node1" class="node">
<title>public.regions</title>
<polygon fill="#efefef" stroke="none" points="140,-789.4 140,-825 393.68,-825 393.68,-789.4 140,-789.4"/>
<polygon fill="none" stroke="black" points="140,-789.4 140,-825 393.68,-825 393.68,-789.4 140,-789.4"/>
<text text-anchor="start" x="153.36" y="-802.8" font-family="Arial Bold" font-size="18.00">public.regions</text>
<text text-anchor="start" x="255.84" y="-802.8" font-family="Arial" font-size="14.00">    </text>
<text text-anchor="start" x="286.95" y="-802.8" font-family="Arial" font-size="14.00" fill="#666666">[BASE TABLE]</text>
<polygon fill="none" stroke="black" points="140,-758.6 140,-789.4 393.68,-789.4 393.68,-758.6 140,-758.6"/>
<text text-anchor="start" x="147" y="-770.8" font-family="Arial" font-size="14.00">id </text>
<text text-anchor="start" x="161.79" y="-770.8" font-family="Arial" font-size="14.00" fill="#666666">[text]</text>
<polygon fill="none" stroke="black" points="140,-727.8 140,-758.6 393.68,-758.6 393.68,-727.8 140,-727.8"/>
<text text-anchor="start" x="147" y="-740" font-family="Arial" font-size="14.00">name </text>
<text text-anchor="start" x="185.91" y="-740" font-family="Arial" font-size="14.00" fill="#666666">[text]</text>
<polygon fill="none" stroke="black" points="140,-697 140,-727.8 393.68,-727.8 393.68,-697 140,-697"/>
<text text-anchor="start" x="147" y="-709.2" font-family="Arial" font-size="14.00">name_kana </text>
<text text-anchor="start" x="224.06" y="-709.2" font-family="Arial" font-size="14.00" fill="#666666">[text]</text>
<polygon fill="none" stroke="black" points="140,-666.2 140,-697 393.68,-697 393.68,-666.2 140,-666.2"/>
<text text-anchor="start" x="147" y="-678.4" font-family="Arial" font-size="14.00">display_order </text>
<text text-anchor="start" x="234.94" y="-678.4" font-family="Arial" font-size="14.00" fill="#666666">[integer]</text>
<polygon fill="none" stroke="black" points="140,-635.4 140,-666.2 393.68,-666.2 393.68,-635.4 140,-635.4"/>
<text text-anchor="start" x="147" y="-647.6" font-family="Arial" font-size="14.00">created_at </text>
<text text-anchor="start" x="217.05" y="-647.6" font-family="Arial" font-size="14.00" fill="#666666">[timestamp with time zone]</text>
<polygon fill="none" stroke="black" points="140,-604.6 140,-635.4 393.68,-635.4 393.68,-604.6 140,-604.6"/>
<text text-anchor="start" x="147" y="-616.8" font-family="Arial" font-size="14.00">updated_at </text>
<text text-anchor="start" x="220.96" y="-616.8" font-family="Arial" font-size="14.00" fill="#666666">[timestamp with time zone]</text>
<polygon fill="none" stroke="black" points="140,-573.8 140,-604.6 393.68,-604.6 393.68,-573.8 140,-573.8"/>
<text text-anchor="start" x="147" y="-586" font-family="Arial" font-size="14.00">latitude </text>
<text text-anchor="start" x="196.04" y="-586" font-family="Arial" font-size="14.00" fill="#666666">[double precision]</text>
<polygon fill="none" stroke="black" points="140,-543 140,-573.8 393.68,-573.8 393.68,-543 140,-543"/>
<text text-anchor="start" x="147" y="-555.2" font-family="Arial" font-size="14.00">longitude </text>
<text text-anchor="start" x="207.72" y="-555.2" font-family="Arial" font-size="14.00" fill="#666666">[double precision]</text>
<polygon fill="none" stroke="black" points="140,-512.2 140,-543 393.68,-543 393.68,-512.2 140,-512.2"/>
<text text-anchor="start" x="147" y="-524.4" font-family="Arial" font-size="14.00">name_translations </text>
<text text-anchor="start" x="265.29" y="-524.4" font-family="Arial" font-size="14.00" fill="#666666">[jsonb]</text>
<polygon fill="none" stroke="black" points="140,-481.4 140,-512.2 393.68,-512.2 393.68,-481.4 140,-481.4"/>
<text text-anchor="start" x="147" y="-493.6" font-family="Arial" font-size="14.00">country_id </text>
<text text-anchor="start" x="215.48" y="-493.6" font-family="Arial" font-size="14.00" fill="#666666">[text]</text>
<polygon fill="none" stroke="black" stroke-width="3" points="138.5,-479.9 138.5,-826.5 395.18,-826.5 395.18,-479.9 138.5,-479.9"/>
</g>
<!-- public.countries -->
<g id="node3" class="node">
<title>public.countries</title>
<polygon fill="#efefef" stroke="none" points="139.86,-320.4 139.86,-356 393.82,-356 393.82,-320.4 139.86,-320.4"/>
<polygon fill="none" stroke="black" points="139.86,-320.4 139.86,-356 393.82,-356 393.82,-320.4 139.86,-320.4"/>
<text text-anchor="start" x="146.86" y="-333.8" font-family="Arial Bold" font-size="18.00">public.countries</text>
<text text-anchor="start" x="262.33" y="-333.8" font-family="Arial" font-size="14.00">    </text>
<text text-anchor="start" x="293.45" y="-333.8" font-family="Arial" font-size="14.00" fill="#666666">[BASE TABLE]</text>
<polygon fill="none" stroke="black" points="139.86,-289.6 139.86,-320.4 393.82,-320.4 393.82,-289.6 139.86,-289.6"/>
<text text-anchor="start" x="146.86" y="-301.8" font-family="Arial" font-size="14.00">id </text>
<text text-anchor="start" x="161.65" y="-301.8" font-family="Arial" font-size="14.00" fill="#666666">[text]</text>
<polygon fill="none" stroke="black" points="139.86,-258.8 139.86,-289.6 393.82,-289.6 393.82,-258.8 139.86,-258.8"/>
<text text-anchor="start" x="146.86" y="-271" font-family="Arial" font-size="14.00">name </text>
<text text-anchor="start" x="185.77" y="-271" font-family="Arial" font-size="14.00" fill="#666666">[text]</text>
<polygon fill="none" stroke="black" points="139.86,-228 139.86,-258.8 393.82,-258.8 393.82,-228 139.86,-228"/>
<text text-anchor="start" x="146.86" y="-240.2" font-family="Arial" font-size="14.00">name_kana </text>
<text text-anchor="start" x="223.92" y="-240.2" font-family="Arial" font-size="14.00" fill="#666666">[text]</text>
<polygon fill="none" stroke="black" points="139.86,-197.2 139.86,-228 393.82,-228 393.82,-197.2 139.86,-197.2"/>
<text text-anchor="start" x="146.86" y="-209.4" font-family="Arial" font-size="14.00">latitude </text>
<text text-anchor="start" x="195.9" y="-209.4" font-family="Arial" font-size="14.00" fill="#666666">[double precision]</text>
<polygon fill="none" stroke="black" points="139.86,-166.4 139.86,-197.2 393.82,-197.2 393.82,-166.4 139.86,-166.4"/>
<text text-anchor="start" x="146.86" y="-178.6" font-family="Arial" font-size="14.00">longitude </text>
<text text-anchor="start" x="207.58" y="-178.6" font-family="Arial" font-size="14.00" fill="#666666">[double precision]</text>
<polygon fill="none" stroke="black" points="139.86,-135.6 139.86,-166.4 393.82,-166.4 393.82,-135.6 139.86,-135.6"/>
<text text-anchor="start" x="146.86" y="-147.8" font-family="Arial" font-size="14.00">created_at </text>
<text text-anchor="start" x="216.91" y="-147.8" font-family="Arial" font-size="14.00" fill="#666666">[timestamp with time zone]</text>
<polygon fill="none" stroke="black" points="139.86,-104.8 139.86,-135.6 393.82,-135.6 393.82,-104.8 139.86,-104.8"/>
<text text-anchor="start" x="146.86" y="-117" font-family="Arial" font-size="14.00">updated_at </text>
<text text-anchor="start" x="220.82" y="-117" font-family="Arial" font-size="14.00" fill="#666666">[timestamp with time zone]</text>
<polygon fill="none" stroke="black" points="139.86,-74 139.86,-104.8 393.82,-104.8 393.82,-74 139.86,-74"/>
<text text-anchor="start" x="146.86" y="-86.2" font-family="Arial" font-size="14.00">continent_id </text>
<text text-anchor="start" x="226.25" y="-86.2" font-family="Arial" font-size="14.00" fill="#666666">[text]</text>
<polygon fill="none" stroke="black" points="139.86,-43.2 139.86,-74 393.82,-74 393.82,-43.2 139.86,-43.2"/>
<text text-anchor="start" x="146.86" y="-55.4" font-family="Arial" font-size="14.00">name_translations </text>
<text text-anchor="start" x="265.15" y="-55.4" font-family="Arial" font-size="14.00" fill="#666666">[jsonb]</text>
</g>
<!-- public.regions&#45;&gt;public.countries -->
<g id="edge2" class="edge">
<title>public.regions:country_id&#45;&gt;public.countries:id</title>
<path fill="none" stroke="black" d="M267.72,-470.05C277.35,-418.11 363.18,-454.47 393.82,-399.2 414.12,-362.58 436.69,-305 394.82,-305"/>
<polygon fill="black" stroke="black" points="267.72,-470.1 262.39,-479.68 267.27,-475.42 266.9,-479.73 266.9,-479.73 266.9,-479.73 267.27,-475.42 271.35,-480.45 267.72,-470.1"/>
<text text-anchor="start" x="7" y="-490.4" font-family="Arial" font-size="10.00">FOREIGN KEY (country_id) REFERENCES countries(id)</text>
</g>
<!-- public.prefectures -->
<g id="node2" class="node">
<title>public.prefectures</title>
<polygon fill="#efefef" stroke="none" points="132.88,-1227.6 132.88,-1263.2 400.8,-1263.2 400.8,-1227.6 132.88,-1227.6"/>
<polygon fill="none" stroke="black" points="132.88,-1227.6 132.88,-1263.2 400.8,-1263.2 400.8,-1227.6 132.88,-1227.6"/>
<text text-anchor="start" x="139.88" y="-1241" font-family="Arial Bold" font-size="18.00">public.prefectures</text>
<text text-anchor="start" x="269.32" y="-1241" font-family="Arial" font-size="14.00">    </text>
<text text-anchor="start" x="300.43" y="-1241" font-family="Arial" font-size="14.00" fill="#666666">[BASE TABLE]</text>
<polygon fill="none" stroke="black" points="132.88,-1196.8 132.88,-1227.6 400.8,-1227.6 400.8,-1196.8 132.88,-1196.8"/>
<text text-anchor="start" x="139.88" y="-1209" font-family="Arial" font-size="14.00">id </text>
<text text-anchor="start" x="154.67" y="-1209" font-family="Arial" font-size="14.00" fill="#666666">[text]</text>
<polygon fill="none" stroke="black" points="132.88,-1166 132.88,-1196.8 400.8,-1196.8 400.8,-1166 132.88,-1166"/>
<text text-anchor="start" x="139.88" y="-1178.2" font-family="Arial" font-size="14.00">name </text>
<text text-anchor="start" x="178.79" y="-1178.2" font-family="Arial" font-size="14.00" fill="#666666">[text]</text>
<polygon fill="none" stroke="black" points="132.88,-1135.2 132.88,-1166 400.8,-1166 400.8,-1135.2 132.88,-1135.2"/>
<text text-anchor="start" x="139.88" y="-1147.4" font-family="Arial" font-size="14.00">name_kana </text>
<text text-anchor="start" x="216.93" y="-1147.4" font-family="Arial" font-size="14.00" fill="#666666">[text]</text>
<polygon fill="none" stroke="black" points="132.88,-1104.4 132.88,-1135.2 400.8,-1135.2 400.8,-1104.4 132.88,-1104.4"/>
<text text-anchor="start" x="139.88" y="-1116.6" font-family="Arial" font-size="14.00">region_id </text>
<text text-anchor="start" x="201.37" y="-1116.6" font-family="Arial" font-size="14.00" fill="#666666">[text]</text>
<polygon fill="none" stroke="black" points="132.88,-1073.6 132.88,-1104.4 400.8,-1104.4 400.8,-1073.6 132.88,-1073.6"/>
<text text-anchor="start" x="139.88" y="-1085.8" font-family="Arial" font-size="14.00">created_at </text>
<text text-anchor="start" x="209.93" y="-1085.8" font-family="Arial" font-size="14.00" fill="#666666">[timestamp with time zone]</text>
<polygon fill="none" stroke="black" points="132.88,-1042.8 132.88,-1073.6 400.8,-1073.6 400.8,-1042.8 132.88,-1042.8"/>
<text text-anchor="start" x="139.88" y="-1055" font-family="Arial" font-size="14.00">updated_at </text>
<text text-anchor="start" x="213.84" y="-1055" font-family="Arial" font-size="14.00" fill="#666666">[timestamp with time zone]</text>
<polygon fill="none" stroke="black" points="132.88,-1012 132.88,-1042.8 400.8,-1042.8 400.8,-1012 132.88,-1012"/>
<text text-anchor="start" x="139.88" y="-1024.2" font-family="Arial" font-size="14.00">latitude </text>
<text text-anchor="start" x="188.91" y="-1024.2" font-family="Arial" font-size="14.00" fill="#666666">[double precision]</text>
<polygon fill="none" stroke="black" points="132.88,-981.2 132.88,-1012 400.8,-1012 400.8,-981.2 132.88,-981.2"/>
<text text-anchor="start" x="139.88" y="-993.4" font-family="Arial" font-size="14.00">longitude </text>
<text text-anchor="start" x="200.6" y="-993.4" font-family="Arial" font-size="14.00" fill="#666666">[double precision]</text>
<polygon fill="none" stroke="black" points="132.88,-950.4 132.88,-981.2 400.8,-981.2 400.8,-950.4 132.88,-950.4"/>
<text text-anchor="start" x="139.88" y="-962.6" font-family="Arial" font-size="14.00">name_translations </text>
<text text-anchor="start" x="258.17" y="-962.6" font-family="Arial" font-size="14.00" fill="#666666">[jsonb]</text>
</g>
<!-- public.prefectures&#45;&gt;public.regions -->
<g id="edge1" class="edge">
<title>public.prefectures:region_id&#45;&gt;public.regions:id</title>
<path fill="none" stroke="black" d="M411.66,-1117.77C477.88,-1089.43 468.09,-774 394.68,-774"/>
<polygon fill="black" stroke="black" points="411.93,-1117.71 401.22,-1115.33 406.7,-1118.79 402.46,-1119.66 402.46,-1119.66 402.46,-1119.66 406.7,-1118.79 403.04,-1124.14 411.93,-1117.71"/>
<text text-anchor="start" x="408.8" y="-1129.8" font-family="Arial" font-size="10.00">FOREIGN KEY (region_id) REFERENCES regions(id)</text>
</g>
</g>
</svg>
