<?xml version="1.0" encoding="UTF-8" standalone="no"?>
<!DOCTYPE svg PUBLIC "-//W3C//DTD SVG 1.1//EN"
 "http://www.w3.org/Graphics/SVG/1.1/DTD/svg11.dtd">
<!-- Generated by graphviz version 12.1.2 (20240928.0832)
 -->
<!-- Title: public.terms_agreements Pages: 1 -->
<svg width="1129pt" height="941pt"
 viewBox="0.00 0.00 1129.34 940.80" xmlns="http://www.w3.org/2000/svg" xmlns:xlink="http://www.w3.org/1999/xlink">
<g id="graph0" class="graph" transform="scale(1 1) rotate(0) translate(4 936.8)">
<title>public.terms_agreements</title>
<polygon fill="white" stroke="none" points="-4,4 -4,-936.8 1125.34,-936.8 1125.34,4 -4,4"/>
<!-- public.terms_agreements -->
<g id="node1" class="node">
<title>public.terms_agreements</title>
<polygon fill="#efefef" stroke="none" points="470.67,-851 470.67,-886.6 789.59,-886.6 789.59,-851 470.67,-851"/>
<polygon fill="none" stroke="black" points="470.67,-851 470.67,-886.6 789.59,-886.6 789.59,-851 470.67,-851"/>
<text text-anchor="start" x="477.67" y="-864.4" font-family="Arial Bold" font-size="18.00">public.terms_agreements</text>
<text text-anchor="start" x="658.11" y="-864.4" font-family="Arial" font-size="14.00">    </text>
<text text-anchor="start" x="689.22" y="-864.4" font-family="Arial" font-size="14.00" fill="#666666">[BASE TABLE]</text>
<polygon fill="none" stroke="black" points="470.67,-820.2 470.67,-851 789.59,-851 789.59,-820.2 470.67,-820.2"/>
<text text-anchor="start" x="477.67" y="-832.4" font-family="Arial" font-size="14.00">id </text>
<text text-anchor="start" x="492.45" y="-832.4" font-family="Arial" font-size="14.00" fill="#666666">[uuid]</text>
<polygon fill="none" stroke="black" points="470.67,-789.4 470.67,-820.2 789.59,-820.2 789.59,-789.4 470.67,-789.4"/>
<text text-anchor="start" x="477.67" y="-801.6" font-family="Arial" font-size="14.00">user_id </text>
<text text-anchor="start" x="527.47" y="-801.6" font-family="Arial" font-size="14.00" fill="#666666">[uuid]</text>
<polygon fill="none" stroke="black" points="470.67,-758.6 470.67,-789.4 789.59,-789.4 789.59,-758.6 470.67,-758.6"/>
<text text-anchor="start" x="477.67" y="-770.8" font-family="Arial" font-size="14.00">terms_version_id </text>
<text text-anchor="start" x="588.16" y="-770.8" font-family="Arial" font-size="14.00" fill="#666666">[uuid]</text>
<polygon fill="none" stroke="black" points="470.67,-727.8 470.67,-758.6 789.59,-758.6 789.59,-727.8 470.67,-727.8"/>
<text text-anchor="start" x="477.67" y="-740" font-family="Arial" font-size="14.00">privacy_version_id </text>
<text text-anchor="start" x="597.5" y="-740" font-family="Arial" font-size="14.00" fill="#666666">[uuid]</text>
<polygon fill="none" stroke="black" points="470.67,-697 470.67,-727.8 789.59,-727.8 789.59,-697 470.67,-697"/>
<text text-anchor="start" x="477.67" y="-709.2" font-family="Arial" font-size="14.00">agreed_at </text>
<text text-anchor="start" x="544.61" y="-709.2" font-family="Arial" font-size="14.00" fill="#666666">[timestamp with time zone]</text>
<polygon fill="none" stroke="black" points="470.67,-666.2 470.67,-697 789.59,-697 789.59,-666.2 470.67,-666.2"/>
<text text-anchor="start" x="477.67" y="-678.4" font-family="Arial" font-size="14.00">ip_address </text>
<text text-anchor="start" x="550.04" y="-678.4" font-family="Arial" font-size="14.00" fill="#666666">[inet]</text>
<polygon fill="none" stroke="black" points="470.67,-635.4 470.67,-666.2 789.59,-666.2 789.59,-635.4 470.67,-635.4"/>
<text text-anchor="start" x="477.67" y="-647.6" font-family="Arial" font-size="14.00">user_agent </text>
<text text-anchor="start" x="551.61" y="-647.6" font-family="Arial" font-size="14.00" fill="#666666">[text]</text>
<polygon fill="none" stroke="black" points="470.67,-604.6 470.67,-635.4 789.59,-635.4 789.59,-604.6 470.67,-604.6"/>
<text text-anchor="start" x="477.67" y="-616.8" font-family="Arial" font-size="14.00">created_at </text>
<text text-anchor="start" x="547.71" y="-616.8" font-family="Arial" font-size="14.00" fill="#666666">[timestamp with time zone]</text>
<polygon fill="none" stroke="black" stroke-width="3" points="469.17,-603.1 469.17,-888.1 791.09,-888.1 791.09,-603.1 469.17,-603.1"/>
</g>
<!-- public.users -->
<g id="node2" class="node">
<title>public.users</title>
<polygon fill="#efefef" stroke="none" points="43.2,-443.6 43.2,-479.2 377.06,-479.2 377.06,-443.6 43.2,-443.6"/>
<polygon fill="none" stroke="black" points="43.2,-443.6 43.2,-479.2 377.06,-479.2 377.06,-443.6 43.2,-443.6"/>
<text text-anchor="start" x="104.64" y="-457" font-family="Arial Bold" font-size="18.00">public.users</text>
<text text-anchor="start" x="191.13" y="-457" font-family="Arial" font-size="14.00">    </text>
<text text-anchor="start" x="222.24" y="-457" font-family="Arial" font-size="14.00" fill="#666666">[BASE TABLE]</text>
<polygon fill="none" stroke="black" points="43.2,-412.8 43.2,-443.6 377.06,-443.6 377.06,-412.8 43.2,-412.8"/>
<text text-anchor="start" x="50.2" y="-425" font-family="Arial" font-size="14.00">id </text>
<text text-anchor="start" x="64.99" y="-425" font-family="Arial" font-size="14.00" fill="#666666">[uuid]</text>
<polygon fill="none" stroke="black" points="43.2,-382 43.2,-412.8 377.06,-412.8 377.06,-382 43.2,-382"/>
<text text-anchor="start" x="50.2" y="-394.2" font-family="Arial" font-size="14.00">email </text>
<text text-anchor="start" x="87.54" y="-394.2" font-family="Arial" font-size="14.00" fill="#666666">[text]</text>
<polygon fill="none" stroke="black" points="43.2,-351.2 43.2,-382 377.06,-382 377.06,-351.2 43.2,-351.2"/>
<text text-anchor="start" x="50.2" y="-363.4" font-family="Arial" font-size="14.00">username </text>
<text text-anchor="start" x="116.34" y="-363.4" font-family="Arial" font-size="14.00" fill="#666666">[text]</text>
<polygon fill="none" stroke="black" points="43.2,-320.4 43.2,-351.2 377.06,-351.2 377.06,-320.4 43.2,-320.4"/>
<text text-anchor="start" x="50.2" y="-332.6" font-family="Arial" font-size="14.00">display_name </text>
<text text-anchor="start" x="140.48" y="-332.6" font-family="Arial" font-size="14.00" fill="#666666">[text]</text>
<polygon fill="none" stroke="black" points="43.2,-289.6 43.2,-320.4 377.06,-320.4 377.06,-289.6 43.2,-289.6"/>
<text text-anchor="start" x="50.2" y="-301.8" font-family="Arial" font-size="14.00">avatar_url </text>
<text text-anchor="start" x="116.34" y="-301.8" font-family="Arial" font-size="14.00" fill="#666666">[text]</text>
<polygon fill="none" stroke="black" points="43.2,-258.8 43.2,-289.6 377.06,-289.6 377.06,-258.8 43.2,-258.8"/>
<text text-anchor="start" x="50.2" y="-271" font-family="Arial" font-size="14.00">bio </text>
<text text-anchor="start" x="72.77" y="-271" font-family="Arial" font-size="14.00" fill="#666666">[text]</text>
<polygon fill="none" stroke="black" points="43.2,-228 43.2,-258.8 377.06,-258.8 377.06,-228 43.2,-228"/>
<text text-anchor="start" x="50.2" y="-240.2" font-family="Arial" font-size="14.00">is_premium </text>
<text text-anchor="start" x="126.44" y="-240.2" font-family="Arial" font-size="14.00" fill="#666666">[boolean]</text>
<polygon fill="none" stroke="black" points="43.2,-197.2 43.2,-228 377.06,-228 377.06,-197.2 43.2,-197.2"/>
<text text-anchor="start" x="50.2" y="-209.4" font-family="Arial" font-size="14.00">premium_started_at </text>
<text text-anchor="start" x="178.59" y="-209.4" font-family="Arial" font-size="14.00" fill="#666666">[timestamp with time zone]</text>
<polygon fill="none" stroke="black" points="43.2,-166.4 43.2,-197.2 377.06,-197.2 377.06,-166.4 43.2,-166.4"/>
<text text-anchor="start" x="50.2" y="-178.6" font-family="Arial" font-size="14.00">premium_expires_at </text>
<text text-anchor="start" x="180.92" y="-178.6" font-family="Arial" font-size="14.00" fill="#666666">[timestamp with time zone]</text>
<polygon fill="none" stroke="black" points="43.2,-135.6 43.2,-166.4 377.06,-166.4 377.06,-135.6 43.2,-135.6"/>
<text text-anchor="start" x="50.2" y="-147.8" font-family="Arial" font-size="14.00">created_at </text>
<text text-anchor="start" x="120.25" y="-147.8" font-family="Arial" font-size="14.00" fill="#666666">[timestamp with time zone]</text>
<polygon fill="none" stroke="black" points="43.2,-104.8 43.2,-135.6 377.06,-135.6 377.06,-104.8 43.2,-104.8"/>
<text text-anchor="start" x="50.2" y="-117" font-family="Arial" font-size="14.00">updated_at </text>
<text text-anchor="start" x="124.16" y="-117" font-family="Arial" font-size="14.00" fill="#666666">[timestamp with time zone]</text>
<polygon fill="none" stroke="black" points="43.2,-74 43.2,-104.8 377.06,-104.8 377.06,-74 43.2,-74"/>
<text text-anchor="start" x="50.2" y="-86.2" font-family="Arial" font-size="14.00">push_token </text>
<text text-anchor="start" x="126.48" y="-86.2" font-family="Arial" font-size="14.00" fill="#666666">[text]</text>
<polygon fill="none" stroke="black" points="43.2,-43.2 43.2,-74 377.06,-74 377.06,-43.2 43.2,-43.2"/>
<text text-anchor="start" x="50.2" y="-55.4" font-family="Arial" font-size="14.00">push_token_updated_at </text>
<text text-anchor="start" x="204.34" y="-55.4" font-family="Arial" font-size="14.00" fill="#666666">[timestamp with time zone]</text>
</g>
<!-- public.terms_agreements&#45;&gt;public.users -->
<g id="edge1" class="edge">
<title>public.terms_agreements:user_id&#45;&gt;public.users:id</title>
<path fill="none" stroke="black" d="M459.46,-802.77C390.16,-773.13 460.49,-428.2 378.06,-428.2"/>
<polygon fill="black" stroke="black" points="459.53,-802.79 468.46,-809.15 464.76,-803.83 469.01,-804.67 469.01,-804.67 469.01,-804.67 464.76,-803.83 470.21,-800.32 459.53,-802.79"/>
<text text-anchor="start" x="128.71" y="-814.8" font-family="Arial" font-size="10.00">FOREIGN KEY (user_id) REFERENCES users(id) ON DELETE CASCADE</text>
</g>
<!-- public.terms_versions -->
<g id="node3" class="node">
<title>public.terms_versions</title>
<polygon fill="#efefef" stroke="none" points="481.65,-366.6 481.65,-402.2 778.61,-402.2 778.61,-366.6 481.65,-366.6"/>
<polygon fill="none" stroke="black" points="481.65,-366.6 481.65,-402.2 778.61,-402.2 778.61,-366.6 481.65,-366.6"/>
<text text-anchor="start" x="488.65" y="-380" font-family="Arial Bold" font-size="18.00">public.terms_versions</text>
<text text-anchor="start" x="647.12" y="-380" font-family="Arial" font-size="14.00">    </text>
<text text-anchor="start" x="678.24" y="-380" font-family="Arial" font-size="14.00" fill="#666666">[BASE TABLE]</text>
<polygon fill="none" stroke="black" points="481.65,-335.8 481.65,-366.6 778.61,-366.6 778.61,-335.8 481.65,-335.8"/>
<text text-anchor="start" x="488.65" y="-348" font-family="Arial" font-size="14.00">id </text>
<text text-anchor="start" x="503.43" y="-348" font-family="Arial" font-size="14.00" fill="#666666">[uuid]</text>
<polygon fill="none" stroke="black" points="481.65,-305 481.65,-335.8 778.61,-335.8 778.61,-305 481.65,-305"/>
<text text-anchor="start" x="488.65" y="-317.2" font-family="Arial" font-size="14.00">type </text>
<text text-anchor="start" x="519" y="-317.2" font-family="Arial" font-size="14.00" fill="#666666">[text]</text>
<polygon fill="none" stroke="black" points="481.65,-274.2 481.65,-305 778.61,-305 778.61,-274.2 481.65,-274.2"/>
<text text-anchor="start" x="488.65" y="-286.4" font-family="Arial" font-size="14.00">version </text>
<text text-anchor="start" x="537.67" y="-286.4" font-family="Arial" font-size="14.00" fill="#666666">[text]</text>
<polygon fill="none" stroke="black" points="481.65,-243.4 481.65,-274.2 778.61,-274.2 778.61,-243.4 481.65,-243.4"/>
<text text-anchor="start" x="488.65" y="-255.6" font-family="Arial" font-size="14.00">content </text>
<text text-anchor="start" x="538.46" y="-255.6" font-family="Arial" font-size="14.00" fill="#666666">[text]</text>
<polygon fill="none" stroke="black" points="481.65,-212.6 481.65,-243.4 778.61,-243.4 778.61,-212.6 481.65,-212.6"/>
<text text-anchor="start" x="488.65" y="-224.8" font-family="Arial" font-size="14.00">summary </text>
<text text-anchor="start" x="550.1" y="-224.8" font-family="Arial" font-size="14.00" fill="#666666">[text]</text>
<polygon fill="none" stroke="black" points="481.65,-181.8 481.65,-212.6 778.61,-212.6 778.61,-181.8 481.65,-181.8"/>
<text text-anchor="start" x="488.65" y="-194" font-family="Arial" font-size="14.00">effective_at </text>
<text text-anchor="start" x="564.14" y="-194" font-family="Arial" font-size="14.00" fill="#666666">[timestamp with time zone]</text>
<polygon fill="none" stroke="black" points="481.65,-151 481.65,-181.8 778.61,-181.8 778.61,-151 481.65,-151"/>
<text text-anchor="start" x="488.65" y="-163.2" font-family="Arial" font-size="14.00">created_at </text>
<text text-anchor="start" x="558.7" y="-163.2" font-family="Arial" font-size="14.00" fill="#666666">[timestamp with time zone]</text>
<polygon fill="none" stroke="black" points="481.65,-120.2 481.65,-151 778.61,-151 778.61,-120.2 481.65,-120.2"/>
<text text-anchor="start" x="488.65" y="-132.4" font-family="Arial" font-size="14.00">created_by </text>
<text text-anchor="start" x="561.81" y="-132.4" font-family="Arial" font-size="14.00" fill="#666666">[uuid]</text>
</g>
<!-- public.terms_agreements&#45;&gt;public.terms_versions -->
<g id="edge2" class="edge">
<title>public.terms_agreements:terms_version_id&#45;&gt;public.terms_versions:id</title>
<path fill="none" stroke="black" d="M800.88,-772.21C883.62,-742.41 870.02,-351.2 779.61,-351.2"/>
<polygon fill="black" stroke="black" points="800.78,-772.22 790.15,-769.51 795.52,-773.14 791.25,-773.89 791.25,-773.89 791.25,-773.89 795.52,-773.14 791.7,-778.38 800.78,-772.22"/>
<text text-anchor="start" x="797.59" y="-784" font-family="Arial" font-size="10.00">FOREIGN KEY (terms_version_id) REFERENCES terms_versions(id)</text>
</g>
<!-- public.terms_agreements&#45;&gt;public.terms_versions -->
<g id="edge3" class="edge">
<title>public.terms_agreements:privacy_version_id&#45;&gt;public.terms_versions:id</title>
<path fill="none" stroke="black" d="M800.82,-741.28C876.71,-711.7 863.18,-351.2 779.61,-351.2"/>
<polygon fill="black" stroke="black" points="800.75,-741.29 790.09,-738.72 795.51,-742.28 791.25,-743.08 791.25,-743.08 791.25,-743.08 795.51,-742.28 791.76,-747.56 800.75,-741.29"/>
<text text-anchor="start" x="797.59" y="-753.2" font-family="Arial" font-size="10.00">FOREIGN KEY (privacy_version_id) REFERENCES terms_versions(id)</text>
</g>
</g>
</svg>
