<?xml version="1.0" encoding="UTF-8" standalone="no"?>
<!DOCTYPE svg PUBLIC "-//W3C//DTD SVG 1.1//EN"
 "http://www.w3.org/Graphics/SVG/1.1/DTD/svg11.dtd">
<!-- Generated by graphviz version 12.1.2 (20240928.0832)
 -->
<!-- Title: public.map_labels Pages: 1 -->
<svg width="698pt" height="2054pt"
 viewBox="0.00 0.00 697.94 2053.60" xmlns="http://www.w3.org/2000/svg" xmlns:xlink="http://www.w3.org/1999/xlink">
<g id="graph0" class="graph" transform="scale(1 1) rotate(0) translate(4 2049.6)">
<title>public.map_labels</title>
<polygon fill="white" stroke="none" points="-4,4 -4,-2049.6 693.94,-2049.6 693.94,4 -4,4"/>
<!-- public.map_labels -->
<g id="node1" class="node">
<title>public.map_labels</title>
<polygon fill="#efefef" stroke="none" points="46.2,-974.2 46.2,-1009.8 316.16,-1009.8 316.16,-974.2 46.2,-974.2"/>
<polygon fill="none" stroke="black" points="46.2,-974.2 46.2,-1009.8 316.16,-1009.8 316.16,-974.2 46.2,-974.2"/>
<text text-anchor="start" x="53.2" y="-987.6" font-family="Arial Bold" font-size="18.00">public.map_labels</text>
<text text-anchor="start" x="184.67" y="-987.6" font-family="Arial" font-size="14.00">    </text>
<text text-anchor="start" x="215.78" y="-987.6" font-family="Arial" font-size="14.00" fill="#666666">[BASE TABLE]</text>
<polygon fill="none" stroke="black" points="46.2,-943.4 46.2,-974.2 316.16,-974.2 316.16,-943.4 46.2,-943.4"/>
<text text-anchor="start" x="53.2" y="-955.6" font-family="Arial" font-size="14.00">id </text>
<text text-anchor="start" x="67.99" y="-955.6" font-family="Arial" font-size="14.00" fill="#666666">[uuid]</text>
<polygon fill="none" stroke="black" points="46.2,-912.6 46.2,-943.4 316.16,-943.4 316.16,-912.6 46.2,-912.6"/>
<text text-anchor="start" x="53.2" y="-924.8" font-family="Arial" font-size="14.00">map_id </text>
<text text-anchor="start" x="103.01" y="-924.8" font-family="Arial" font-size="14.00" fill="#666666">[uuid]</text>
<polygon fill="none" stroke="black" points="46.2,-881.8 46.2,-912.6 316.16,-912.6 316.16,-881.8 46.2,-881.8"/>
<text text-anchor="start" x="53.2" y="-894" font-family="Arial" font-size="14.00">name </text>
<text text-anchor="start" x="92.11" y="-894" font-family="Arial" font-size="14.00" fill="#666666">[text]</text>
<polygon fill="none" stroke="black" points="46.2,-851 46.2,-881.8 316.16,-881.8 316.16,-851 46.2,-851"/>
<text text-anchor="start" x="53.2" y="-863.2" font-family="Arial" font-size="14.00">color </text>
<text text-anchor="start" x="87.43" y="-863.2" font-family="Arial" font-size="14.00" fill="#666666">[text]</text>
<polygon fill="none" stroke="black" points="46.2,-820.2 46.2,-851 316.16,-851 316.16,-820.2 46.2,-820.2"/>
<text text-anchor="start" x="53.2" y="-832.4" font-family="Arial" font-size="14.00">sort_order </text>
<text text-anchor="start" x="120.9" y="-832.4" font-family="Arial" font-size="14.00" fill="#666666">[integer]</text>
<polygon fill="none" stroke="black" points="46.2,-789.4 46.2,-820.2 316.16,-820.2 316.16,-789.4 46.2,-789.4"/>
<text text-anchor="start" x="53.2" y="-801.6" font-family="Arial" font-size="14.00">created_at </text>
<text text-anchor="start" x="123.25" y="-801.6" font-family="Arial" font-size="14.00" fill="#666666">[timestamp with time zone]</text>
<polygon fill="none" stroke="black" points="46.2,-758.6 46.2,-789.4 316.16,-789.4 316.16,-758.6 46.2,-758.6"/>
<text text-anchor="start" x="53.2" y="-770.8" font-family="Arial" font-size="14.00">updated_at </text>
<text text-anchor="start" x="127.16" y="-770.8" font-family="Arial" font-size="14.00" fill="#666666">[timestamp with time zone]</text>
<polygon fill="none" stroke="black" stroke-width="3" points="44.7,-757.1 44.7,-1011.3 317.66,-1011.3 317.66,-757.1 44.7,-757.1"/>
</g>
<!-- public.maps -->
<g id="node3" class="node">
<title>public.maps</title>
<polygon fill="#efefef" stroke="none" points="54.34,-597.6 54.34,-633.2 308.02,-633.2 308.02,-597.6 54.34,-597.6"/>
<polygon fill="none" stroke="black" points="54.34,-597.6 54.34,-633.2 308.02,-633.2 308.02,-597.6 54.34,-597.6"/>
<text text-anchor="start" x="75.19" y="-611" font-family="Arial Bold" font-size="18.00">public.maps</text>
<text text-anchor="start" x="162.68" y="-611" font-family="Arial" font-size="14.00">    </text>
<text text-anchor="start" x="193.79" y="-611" font-family="Arial" font-size="14.00" fill="#666666">[BASE TABLE]</text>
<polygon fill="none" stroke="black" points="54.34,-566.8 54.34,-597.6 308.02,-597.6 308.02,-566.8 54.34,-566.8"/>
<text text-anchor="start" x="61.34" y="-579" font-family="Arial" font-size="14.00">id </text>
<text text-anchor="start" x="76.12" y="-579" font-family="Arial" font-size="14.00" fill="#666666">[uuid]</text>
<polygon fill="none" stroke="black" points="54.34,-536 54.34,-566.8 308.02,-566.8 308.02,-536 54.34,-536"/>
<text text-anchor="start" x="61.34" y="-548.2" font-family="Arial" font-size="14.00">user_id </text>
<text text-anchor="start" x="111.14" y="-548.2" font-family="Arial" font-size="14.00" fill="#666666">[uuid]</text>
<polygon fill="none" stroke="black" points="54.34,-505.2 54.34,-536 308.02,-536 308.02,-505.2 54.34,-505.2"/>
<text text-anchor="start" x="61.34" y="-517.4" font-family="Arial" font-size="14.00">name </text>
<text text-anchor="start" x="100.25" y="-517.4" font-family="Arial" font-size="14.00" fill="#666666">[text]</text>
<polygon fill="none" stroke="black" points="54.34,-474.4 54.34,-505.2 308.02,-505.2 308.02,-474.4 54.34,-474.4"/>
<text text-anchor="start" x="61.34" y="-486.6" font-family="Arial" font-size="14.00">description </text>
<text text-anchor="start" x="132.93" y="-486.6" font-family="Arial" font-size="14.00" fill="#666666">[text]</text>
<polygon fill="none" stroke="black" points="54.34,-443.6 54.34,-474.4 308.02,-474.4 308.02,-443.6 54.34,-443.6"/>
<text text-anchor="start" x="61.34" y="-455.8" font-family="Arial" font-size="14.00">is_public </text>
<text text-anchor="start" x="119.7" y="-455.8" font-family="Arial" font-size="14.00" fill="#666666">[boolean]</text>
<polygon fill="none" stroke="black" points="54.34,-412.8 54.34,-443.6 308.02,-443.6 308.02,-412.8 54.34,-412.8"/>
<text text-anchor="start" x="61.34" y="-425" font-family="Arial" font-size="14.00">is_official </text>
<text text-anchor="start" x="122.81" y="-425" font-family="Arial" font-size="14.00" fill="#666666">[boolean]</text>
<polygon fill="none" stroke="black" points="54.34,-382 54.34,-412.8 308.02,-412.8 308.02,-382 54.34,-382"/>
<text text-anchor="start" x="61.34" y="-394.2" font-family="Arial" font-size="14.00">thumbnail_url </text>
<text text-anchor="start" x="149.27" y="-394.2" font-family="Arial" font-size="14.00" fill="#666666">[text]</text>
<polygon fill="none" stroke="black" points="54.34,-351.2 54.34,-382 308.02,-382 308.02,-351.2 54.34,-351.2"/>
<text text-anchor="start" x="61.34" y="-363.4" font-family="Arial" font-size="14.00">spots_count </text>
<text text-anchor="start" x="140.72" y="-363.4" font-family="Arial" font-size="14.00" fill="#666666">[integer]</text>
<polygon fill="none" stroke="black" points="54.34,-320.4 54.34,-351.2 308.02,-351.2 308.02,-320.4 54.34,-320.4"/>
<text text-anchor="start" x="61.34" y="-332.6" font-family="Arial" font-size="14.00">likes_count </text>
<text text-anchor="start" x="135.27" y="-332.6" font-family="Arial" font-size="14.00" fill="#666666">[integer]</text>
<polygon fill="none" stroke="black" points="54.34,-289.6 54.34,-320.4 308.02,-320.4 308.02,-289.6 54.34,-289.6"/>
<text text-anchor="start" x="61.34" y="-301.8" font-family="Arial" font-size="14.00">created_at </text>
<text text-anchor="start" x="131.39" y="-301.8" font-family="Arial" font-size="14.00" fill="#666666">[timestamp with time zone]</text>
<polygon fill="none" stroke="black" points="54.34,-258.8 54.34,-289.6 308.02,-289.6 308.02,-258.8 54.34,-258.8"/>
<text text-anchor="start" x="61.34" y="-271" font-family="Arial" font-size="14.00">updated_at </text>
<text text-anchor="start" x="135.3" y="-271" font-family="Arial" font-size="14.00" fill="#666666">[timestamp with time zone]</text>
<polygon fill="none" stroke="black" points="54.34,-228 54.34,-258.8 308.02,-258.8 308.02,-228 54.34,-228"/>
<text text-anchor="start" x="61.34" y="-240.2" font-family="Arial" font-size="14.00">comments_count </text>
<text text-anchor="start" x="171.83" y="-240.2" font-family="Arial" font-size="14.00" fill="#666666">[integer]</text>
<polygon fill="none" stroke="black" points="54.34,-197.2 54.34,-228 308.02,-228 308.02,-197.2 54.34,-197.2"/>
<text text-anchor="start" x="61.34" y="-209.4" font-family="Arial" font-size="14.00">is_article_public </text>
<text text-anchor="start" x="164.83" y="-209.4" font-family="Arial" font-size="14.00" fill="#666666">[boolean]</text>
<polygon fill="none" stroke="black" points="54.34,-166.4 54.34,-197.2 308.02,-197.2 308.02,-166.4 54.34,-166.4"/>
<text text-anchor="start" x="61.34" y="-178.6" font-family="Arial" font-size="14.00">bookmarks_count </text>
<text text-anchor="start" x="175.73" y="-178.6" font-family="Arial" font-size="14.00" fill="#666666">[integer]</text>
<polygon fill="none" stroke="black" points="54.34,-135.6 54.34,-166.4 308.02,-166.4 308.02,-135.6 54.34,-135.6"/>
<text text-anchor="start" x="61.34" y="-147.8" font-family="Arial" font-size="14.00">category_id </text>
<text text-anchor="start" x="137.61" y="-147.8" font-family="Arial" font-size="14.00" fill="#666666">[text]</text>
<polygon fill="none" stroke="black" points="54.34,-104.8 54.34,-135.6 308.02,-135.6 308.02,-104.8 54.34,-104.8"/>
<text text-anchor="start" x="61.34" y="-117" font-family="Arial" font-size="14.00">article_intro </text>
<text text-anchor="start" x="137.59" y="-117" font-family="Arial" font-size="14.00" fill="#666666">[jsonb]</text>
<polygon fill="none" stroke="black" points="54.34,-74 54.34,-104.8 308.02,-104.8 308.02,-74 54.34,-74"/>
<text text-anchor="start" x="61.34" y="-86.2" font-family="Arial" font-size="14.00">article_outro </text>
<text text-anchor="start" x="142.27" y="-86.2" font-family="Arial" font-size="14.00" fill="#666666">[jsonb]</text>
<polygon fill="none" stroke="black" points="54.34,-43.2 54.34,-74 308.02,-74 308.02,-43.2 54.34,-43.2"/>
<text text-anchor="start" x="61.34" y="-55.4" font-family="Arial" font-size="14.00">show_label_chips </text>
<text text-anchor="start" x="175.74" y="-55.4" font-family="Arial" font-size="14.00" fill="#666666">[boolean]</text>
</g>
<!-- public.map_labels&#45;&gt;public.maps -->
<g id="edge2" class="edge">
<title>public.map_labels:map_id&#45;&gt;public.maps:id</title>
<path fill="none" stroke="black" d="M327,-925.97C393.15,-897.63 382.43,-582.2 309.02,-582.2"/>
<polygon fill="black" stroke="black" points="327.28,-925.91 316.57,-923.53 322.05,-926.99 317.81,-927.86 317.81,-927.86 317.81,-927.86 322.05,-926.99 318.39,-932.34 327.28,-925.91"/>
<text text-anchor="start" x="324.16" y="-938" font-family="Arial" font-size="10.00">FOREIGN KEY (map_id) REFERENCES maps(id) ON DELETE CASCADE</text>
</g>
<!-- public.user_spots -->
<g id="node2" class="node">
<title>public.user_spots</title>
<polygon fill="#efefef" stroke="none" points="49.19,-1966.8 49.19,-2002.4 313.17,-2002.4 313.17,-1966.8 49.19,-1966.8"/>
<polygon fill="none" stroke="black" points="49.19,-1966.8 49.19,-2002.4 313.17,-2002.4 313.17,-1966.8 49.19,-1966.8"/>
<text text-anchor="start" x="56.19" y="-1980.2" font-family="Arial Bold" font-size="18.00">public.user_spots</text>
<text text-anchor="start" x="181.68" y="-1980.2" font-family="Arial" font-size="14.00">    </text>
<text text-anchor="start" x="212.8" y="-1980.2" font-family="Arial" font-size="14.00" fill="#666666">[BASE TABLE]</text>
<polygon fill="none" stroke="black" points="49.19,-1936 49.19,-1966.8 313.17,-1966.8 313.17,-1936 49.19,-1936"/>
<text text-anchor="start" x="56.19" y="-1948.2" font-family="Arial" font-size="14.00">id </text>
<text text-anchor="start" x="70.97" y="-1948.2" font-family="Arial" font-size="14.00" fill="#666666">[uuid]</text>
<polygon fill="none" stroke="black" points="49.19,-1905.2 49.19,-1936 313.17,-1936 313.17,-1905.2 49.19,-1905.2"/>
<text text-anchor="start" x="56.19" y="-1917.4" font-family="Arial" font-size="14.00">user_id </text>
<text text-anchor="start" x="105.99" y="-1917.4" font-family="Arial" font-size="14.00" fill="#666666">[uuid]</text>
<polygon fill="none" stroke="black" points="49.19,-1874.4 49.19,-1905.2 313.17,-1905.2 313.17,-1874.4 49.19,-1874.4"/>
<text text-anchor="start" x="56.19" y="-1886.6" font-family="Arial" font-size="14.00">map_id </text>
<text text-anchor="start" x="105.99" y="-1886.6" font-family="Arial" font-size="14.00" fill="#666666">[uuid]</text>
<polygon fill="none" stroke="black" points="49.19,-1843.6 49.19,-1874.4 313.17,-1874.4 313.17,-1843.6 49.19,-1843.6"/>
<text text-anchor="start" x="56.19" y="-1855.8" font-family="Arial" font-size="14.00">master_spot_id </text>
<text text-anchor="start" x="155.79" y="-1855.8" font-family="Arial" font-size="14.00" fill="#666666">[uuid]</text>
<polygon fill="none" stroke="black" points="49.19,-1812.8 49.19,-1843.6 313.17,-1843.6 313.17,-1812.8 49.19,-1812.8"/>
<text text-anchor="start" x="56.19" y="-1825" font-family="Arial" font-size="14.00">machi_id </text>
<text text-anchor="start" x="116.11" y="-1825" font-family="Arial" font-size="14.00" fill="#666666">[text]</text>
<polygon fill="none" stroke="black" points="49.19,-1782 49.19,-1812.8 313.17,-1812.8 313.17,-1782 49.19,-1782"/>
<text text-anchor="start" x="56.19" y="-1794.2" font-family="Arial" font-size="14.00">custom_name </text>
<text text-anchor="start" x="148.01" y="-1794.2" font-family="Arial" font-size="14.00" fill="#666666">[text]</text>
<polygon fill="none" stroke="black" points="49.19,-1751.2 49.19,-1782 313.17,-1782 313.17,-1751.2 49.19,-1751.2"/>
<text text-anchor="start" x="56.19" y="-1763.4" font-family="Arial" font-size="14.00">description </text>
<text text-anchor="start" x="127.78" y="-1763.4" font-family="Arial" font-size="14.00" fill="#666666">[text]</text>
<polygon fill="none" stroke="black" points="49.19,-1720.4 49.19,-1751.2 313.17,-1751.2 313.17,-1720.4 49.19,-1720.4"/>
<text text-anchor="start" x="56.19" y="-1732.6" font-family="Arial" font-size="14.00">images_count </text>
<text text-anchor="start" x="147.24" y="-1732.6" font-family="Arial" font-size="14.00" fill="#666666">[integer]</text>
<polygon fill="none" stroke="black" points="49.19,-1689.6 49.19,-1720.4 313.17,-1720.4 313.17,-1689.6 49.19,-1689.6"/>
<text text-anchor="start" x="56.19" y="-1701.8" font-family="Arial" font-size="14.00">likes_count </text>
<text text-anchor="start" x="130.12" y="-1701.8" font-family="Arial" font-size="14.00" fill="#666666">[integer]</text>
<polygon fill="none" stroke="black" points="49.19,-1658.8 49.19,-1689.6 313.17,-1689.6 313.17,-1658.8 49.19,-1658.8"/>
<text text-anchor="start" x="56.19" y="-1671" font-family="Arial" font-size="14.00">comments_count </text>
<text text-anchor="start" x="166.68" y="-1671" font-family="Arial" font-size="14.00" fill="#666666">[integer]</text>
<polygon fill="none" stroke="black" points="49.19,-1628 49.19,-1658.8 313.17,-1658.8 313.17,-1628 49.19,-1628"/>
<text text-anchor="start" x="56.19" y="-1640.2" font-family="Arial" font-size="14.00">order_index </text>
<text text-anchor="start" x="134.02" y="-1640.2" font-family="Arial" font-size="14.00" fill="#666666">[integer]</text>
<polygon fill="none" stroke="black" points="49.19,-1597.2 49.19,-1628 313.17,-1628 313.17,-1597.2 49.19,-1597.2"/>
<text text-anchor="start" x="56.19" y="-1609.4" font-family="Arial" font-size="14.00">created_at </text>
<text text-anchor="start" x="126.24" y="-1609.4" font-family="Arial" font-size="14.00" fill="#666666">[timestamp with time zone]</text>
<polygon fill="none" stroke="black" points="49.19,-1566.4 49.19,-1597.2 313.17,-1597.2 313.17,-1566.4 49.19,-1566.4"/>
<text text-anchor="start" x="56.19" y="-1578.6" font-family="Arial" font-size="14.00">updated_at </text>
<text text-anchor="start" x="130.15" y="-1578.6" font-family="Arial" font-size="14.00" fill="#666666">[timestamp with time zone]</text>
<polygon fill="none" stroke="black" points="49.19,-1535.6 49.19,-1566.4 313.17,-1566.4 313.17,-1535.6 49.19,-1535.6"/>
<text text-anchor="start" x="56.19" y="-1547.8" font-family="Arial" font-size="14.00">article_content </text>
<text text-anchor="start" x="151.13" y="-1547.8" font-family="Arial" font-size="14.00" fill="#666666">[jsonb]</text>
<polygon fill="none" stroke="black" points="49.19,-1504.8 49.19,-1535.6 313.17,-1535.6 313.17,-1504.8 49.19,-1504.8"/>
<text text-anchor="start" x="56.19" y="-1517" font-family="Arial" font-size="14.00">latitude </text>
<text text-anchor="start" x="105.22" y="-1517" font-family="Arial" font-size="14.00" fill="#666666">[double precision]</text>
<polygon fill="none" stroke="black" points="49.19,-1474 49.19,-1504.8 313.17,-1504.8 313.17,-1474 49.19,-1474"/>
<text text-anchor="start" x="56.19" y="-1486.2" font-family="Arial" font-size="14.00">longitude </text>
<text text-anchor="start" x="116.91" y="-1486.2" font-family="Arial" font-size="14.00" fill="#666666">[double precision]</text>
<polygon fill="none" stroke="black" points="49.19,-1443.2 49.19,-1474 313.17,-1474 313.17,-1443.2 49.19,-1443.2"/>
<text text-anchor="start" x="56.19" y="-1455.4" font-family="Arial" font-size="14.00">google_formatted_address </text>
<text text-anchor="start" x="226.64" y="-1455.4" font-family="Arial" font-size="14.00" fill="#666666">[text]</text>
<polygon fill="none" stroke="black" points="49.19,-1412.4 49.19,-1443.2 313.17,-1443.2 313.17,-1412.4 49.19,-1412.4"/>
<text text-anchor="start" x="56.19" y="-1424.6" font-family="Arial" font-size="14.00">google_short_address </text>
<text text-anchor="start" x="198.62" y="-1424.6" font-family="Arial" font-size="14.00" fill="#666666">[text]</text>
<polygon fill="none" stroke="black" points="49.19,-1381.6 49.19,-1412.4 313.17,-1412.4 313.17,-1381.6 49.19,-1381.6"/>
<text text-anchor="start" x="56.19" y="-1393.8" font-family="Arial" font-size="14.00">bookmarks_count </text>
<text text-anchor="start" x="170.58" y="-1393.8" font-family="Arial" font-size="14.00" fill="#666666">[integer]</text>
<polygon fill="none" stroke="black" points="49.19,-1350.8 49.19,-1381.6 313.17,-1381.6 313.17,-1350.8 49.19,-1350.8"/>
<text text-anchor="start" x="56.19" y="-1363" font-family="Arial" font-size="14.00">prefecture_id </text>
<text text-anchor="start" x="141.79" y="-1363" font-family="Arial" font-size="14.00" fill="#666666">[text]</text>
<polygon fill="none" stroke="black" points="49.19,-1320 49.19,-1350.8 313.17,-1350.8 313.17,-1320 49.19,-1320"/>
<text text-anchor="start" x="56.19" y="-1332.2" font-family="Arial" font-size="14.00">color </text>
<text text-anchor="start" x="90.42" y="-1332.2" font-family="Arial" font-size="14.00" fill="#666666">[text]</text>
<polygon fill="none" stroke="black" points="49.19,-1289.2 49.19,-1320 313.17,-1320 313.17,-1289.2 49.19,-1289.2"/>
<text text-anchor="start" x="56.19" y="-1301.4" font-family="Arial" font-size="14.00">spot_color </text>
<text text-anchor="start" x="124.67" y="-1301.4" font-family="Arial" font-size="14.00" fill="#666666">[text]</text>
<polygon fill="none" stroke="black" points="49.19,-1258.4 49.19,-1289.2 313.17,-1289.2 313.17,-1258.4 49.19,-1258.4"/>
<text text-anchor="start" x="56.19" y="-1270.6" font-family="Arial" font-size="14.00">label_id </text>
<text text-anchor="start" x="108.34" y="-1270.6" font-family="Arial" font-size="14.00" fill="#666666">[uuid]</text>
<polygon fill="none" stroke="black" points="49.19,-1227.6 49.19,-1258.4 313.17,-1258.4 313.17,-1227.6 49.19,-1227.6"/>
<text text-anchor="start" x="56.19" y="-1239.8" font-family="Arial" font-size="14.00">city_id </text>
<text text-anchor="start" x="99.76" y="-1239.8" font-family="Arial" font-size="14.00" fill="#666666">[text]</text>
<polygon fill="none" stroke="black" points="49.19,-1196.8 49.19,-1227.6 313.17,-1227.6 313.17,-1196.8 49.19,-1196.8"/>
<text text-anchor="start" x="56.19" y="-1209" font-family="Arial" font-size="14.00">prefecture_name </text>
<text text-anchor="start" x="165.92" y="-1209" font-family="Arial" font-size="14.00" fill="#666666">[text]</text>
<polygon fill="none" stroke="black" points="49.19,-1166 49.19,-1196.8 313.17,-1196.8 313.17,-1166 49.19,-1166"/>
<text text-anchor="start" x="56.19" y="-1178.2" font-family="Arial" font-size="14.00">city_name </text>
<text text-anchor="start" x="123.88" y="-1178.2" font-family="Arial" font-size="14.00" fill="#666666">[text]</text>
<polygon fill="none" stroke="black" points="49.19,-1135.2 49.19,-1166 313.17,-1166 313.17,-1135.2 49.19,-1135.2"/>
<text text-anchor="start" x="56.19" y="-1147.4" font-family="Arial" font-size="14.00">machi_name </text>
<text text-anchor="start" x="140.23" y="-1147.4" font-family="Arial" font-size="14.00" fill="#666666">[text]</text>
</g>
<!-- public.user_spots&#45;&gt;public.map_labels -->
<g id="edge1" class="edge">
<title>public.user_spots:label_id&#45;&gt;public.map_labels:id</title>
<path fill="none" stroke="black" d="M324.31,-1271.45C384.29,-1242.62 383.6,-958.8 317.16,-958.8"/>
<polygon fill="black" stroke="black" points="324.23,-1271.46 313.48,-1269.34 319.04,-1272.67 314.82,-1273.65 314.82,-1273.65 314.82,-1273.65 319.04,-1272.67 315.51,-1278.11 324.23,-1271.46"/>
<text text-anchor="start" x="321.17" y="-1283.8" font-family="Arial" font-size="10.00">FOREIGN KEY (label_id) REFERENCES map_labels(id) ON DELETE SET NULL</text>
</g>
</g>
</svg>
