<?xml version="1.0" encoding="UTF-8" standalone="no"?>
<!DOCTYPE svg PUBLIC "-//W3C//DTD SVG 1.1//EN"
 "http://www.w3.org/Graphics/SVG/1.1/DTD/svg11.dtd">
<!-- Generated by graphviz version 12.1.2 (20240928.0832)
 -->
<!-- Title: public.map_tags Pages: 1 -->
<svg width="952pt" height="972pt"
 viewBox="0.00 0.00 951.78 971.60" xmlns="http://www.w3.org/2000/svg" xmlns:xlink="http://www.w3.org/1999/xlink">
<g id="graph0" class="graph" transform="scale(1 1) rotate(0) translate(4 967.6)">
<title>public.map_tags</title>
<polygon fill="white" stroke="none" points="-4,4 -4,-967.6 947.78,-967.6 947.78,4 -4,4"/>
<!-- public.map_tags -->
<g id="node1" class="node">
<title>public.map_tags</title>
<polygon fill="#efefef" stroke="none" points="348.96,-881.8 348.96,-917.4 605.93,-917.4 605.93,-881.8 348.96,-881.8"/>
<polygon fill="none" stroke="black" points="348.96,-881.8 348.96,-917.4 605.93,-917.4 605.93,-881.8 348.96,-881.8"/>
<text text-anchor="start" x="355.96" y="-895.2" font-family="Arial Bold" font-size="18.00">public.map_tags</text>
<text text-anchor="start" x="474.44" y="-895.2" font-family="Arial" font-size="14.00">    </text>
<text text-anchor="start" x="505.55" y="-895.2" font-family="Arial" font-size="14.00" fill="#666666">[BASE TABLE]</text>
<polygon fill="none" stroke="black" points="348.96,-851 348.96,-881.8 605.93,-881.8 605.93,-851 348.96,-851"/>
<text text-anchor="start" x="355.96" y="-863.2" font-family="Arial" font-size="14.00">id </text>
<text text-anchor="start" x="370.75" y="-863.2" font-family="Arial" font-size="14.00" fill="#666666">[uuid]</text>
<polygon fill="none" stroke="black" points="348.96,-820.2 348.96,-851 605.93,-851 605.93,-820.2 348.96,-820.2"/>
<text text-anchor="start" x="355.96" y="-832.4" font-family="Arial" font-size="14.00">map_id </text>
<text text-anchor="start" x="405.77" y="-832.4" font-family="Arial" font-size="14.00" fill="#666666">[uuid]</text>
<polygon fill="none" stroke="black" points="348.96,-789.4 348.96,-820.2 605.93,-820.2 605.93,-789.4 348.96,-789.4"/>
<text text-anchor="start" x="355.96" y="-801.6" font-family="Arial" font-size="14.00">tag_id </text>
<text text-anchor="start" x="397.99" y="-801.6" font-family="Arial" font-size="14.00" fill="#666666">[uuid]</text>
<polygon fill="none" stroke="black" points="348.96,-758.6 348.96,-789.4 605.93,-789.4 605.93,-758.6 348.96,-758.6"/>
<text text-anchor="start" x="355.96" y="-770.8" font-family="Arial" font-size="14.00">created_at </text>
<text text-anchor="start" x="426.01" y="-770.8" font-family="Arial" font-size="14.00" fill="#666666">[timestamp with time zone]</text>
<polygon fill="none" stroke="black" stroke-width="3" points="347.46,-757.1 347.46,-918.9 607.43,-918.9 607.43,-757.1 347.46,-757.1"/>
</g>
<!-- public.maps -->
<g id="node2" class="node">
<title>public.maps</title>
<polygon fill="#efefef" stroke="none" points="171.6,-597.6 171.6,-633.2 425.28,-633.2 425.28,-597.6 171.6,-597.6"/>
<polygon fill="none" stroke="black" points="171.6,-597.6 171.6,-633.2 425.28,-633.2 425.28,-597.6 171.6,-597.6"/>
<text text-anchor="start" x="192.46" y="-611" font-family="Arial Bold" font-size="18.00">public.maps</text>
<text text-anchor="start" x="279.94" y="-611" font-family="Arial" font-size="14.00">    </text>
<text text-anchor="start" x="311.06" y="-611" font-family="Arial" font-size="14.00" fill="#666666">[BASE TABLE]</text>
<polygon fill="none" stroke="black" points="171.6,-566.8 171.6,-597.6 425.28,-597.6 425.28,-566.8 171.6,-566.8"/>
<text text-anchor="start" x="178.6" y="-579" font-family="Arial" font-size="14.00">id </text>
<text text-anchor="start" x="193.39" y="-579" font-family="Arial" font-size="14.00" fill="#666666">[uuid]</text>
<polygon fill="none" stroke="black" points="171.6,-536 171.6,-566.8 425.28,-566.8 425.28,-536 171.6,-536"/>
<text text-anchor="start" x="178.6" y="-548.2" font-family="Arial" font-size="14.00">user_id </text>
<text text-anchor="start" x="228.41" y="-548.2" font-family="Arial" font-size="14.00" fill="#666666">[uuid]</text>
<polygon fill="none" stroke="black" points="171.6,-505.2 171.6,-536 425.28,-536 425.28,-505.2 171.6,-505.2"/>
<text text-anchor="start" x="178.6" y="-517.4" font-family="Arial" font-size="14.00">name </text>
<text text-anchor="start" x="217.51" y="-517.4" font-family="Arial" font-size="14.00" fill="#666666">[text]</text>
<polygon fill="none" stroke="black" points="171.6,-474.4 171.6,-505.2 425.28,-505.2 425.28,-474.4 171.6,-474.4"/>
<text text-anchor="start" x="178.6" y="-486.6" font-family="Arial" font-size="14.00">description </text>
<text text-anchor="start" x="250.19" y="-486.6" font-family="Arial" font-size="14.00" fill="#666666">[text]</text>
<polygon fill="none" stroke="black" points="171.6,-443.6 171.6,-474.4 425.28,-474.4 425.28,-443.6 171.6,-443.6"/>
<text text-anchor="start" x="178.6" y="-455.8" font-family="Arial" font-size="14.00">is_public </text>
<text text-anchor="start" x="236.97" y="-455.8" font-family="Arial" font-size="14.00" fill="#666666">[boolean]</text>
<polygon fill="none" stroke="black" points="171.6,-412.8 171.6,-443.6 425.28,-443.6 425.28,-412.8 171.6,-412.8"/>
<text text-anchor="start" x="178.6" y="-425" font-family="Arial" font-size="14.00">is_official </text>
<text text-anchor="start" x="240.07" y="-425" font-family="Arial" font-size="14.00" fill="#666666">[boolean]</text>
<polygon fill="none" stroke="black" points="171.6,-382 171.6,-412.8 425.28,-412.8 425.28,-382 171.6,-382"/>
<text text-anchor="start" x="178.6" y="-394.2" font-family="Arial" font-size="14.00">thumbnail_url </text>
<text text-anchor="start" x="266.54" y="-394.2" font-family="Arial" font-size="14.00" fill="#666666">[text]</text>
<polygon fill="none" stroke="black" points="171.6,-351.2 171.6,-382 425.28,-382 425.28,-351.2 171.6,-351.2"/>
<text text-anchor="start" x="178.6" y="-363.4" font-family="Arial" font-size="14.00">spots_count </text>
<text text-anchor="start" x="257.99" y="-363.4" font-family="Arial" font-size="14.00" fill="#666666">[integer]</text>
<polygon fill="none" stroke="black" points="171.6,-320.4 171.6,-351.2 425.28,-351.2 425.28,-320.4 171.6,-320.4"/>
<text text-anchor="start" x="178.6" y="-332.6" font-family="Arial" font-size="14.00">likes_count </text>
<text text-anchor="start" x="252.53" y="-332.6" font-family="Arial" font-size="14.00" fill="#666666">[integer]</text>
<polygon fill="none" stroke="black" points="171.6,-289.6 171.6,-320.4 425.28,-320.4 425.28,-289.6 171.6,-289.6"/>
<text text-anchor="start" x="178.6" y="-301.8" font-family="Arial" font-size="14.00">created_at </text>
<text text-anchor="start" x="248.65" y="-301.8" font-family="Arial" font-size="14.00" fill="#666666">[timestamp with time zone]</text>
<polygon fill="none" stroke="black" points="171.6,-258.8 171.6,-289.6 425.28,-289.6 425.28,-258.8 171.6,-258.8"/>
<text text-anchor="start" x="178.6" y="-271" font-family="Arial" font-size="14.00">updated_at </text>
<text text-anchor="start" x="252.56" y="-271" font-family="Arial" font-size="14.00" fill="#666666">[timestamp with time zone]</text>
<polygon fill="none" stroke="black" points="171.6,-228 171.6,-258.8 425.28,-258.8 425.28,-228 171.6,-228"/>
<text text-anchor="start" x="178.6" y="-240.2" font-family="Arial" font-size="14.00">comments_count </text>
<text text-anchor="start" x="289.1" y="-240.2" font-family="Arial" font-size="14.00" fill="#666666">[integer]</text>
<polygon fill="none" stroke="black" points="171.6,-197.2 171.6,-228 425.28,-228 425.28,-197.2 171.6,-197.2"/>
<text text-anchor="start" x="178.6" y="-209.4" font-family="Arial" font-size="14.00">is_article_public </text>
<text text-anchor="start" x="282.1" y="-209.4" font-family="Arial" font-size="14.00" fill="#666666">[boolean]</text>
<polygon fill="none" stroke="black" points="171.6,-166.4 171.6,-197.2 425.28,-197.2 425.28,-166.4 171.6,-166.4"/>
<text text-anchor="start" x="178.6" y="-178.6" font-family="Arial" font-size="14.00">bookmarks_count </text>
<text text-anchor="start" x="292.99" y="-178.6" font-family="Arial" font-size="14.00" fill="#666666">[integer]</text>
<polygon fill="none" stroke="black" points="171.6,-135.6 171.6,-166.4 425.28,-166.4 425.28,-135.6 171.6,-135.6"/>
<text text-anchor="start" x="178.6" y="-147.8" font-family="Arial" font-size="14.00">category_id </text>
<text text-anchor="start" x="254.87" y="-147.8" font-family="Arial" font-size="14.00" fill="#666666">[text]</text>
<polygon fill="none" stroke="black" points="171.6,-104.8 171.6,-135.6 425.28,-135.6 425.28,-104.8 171.6,-104.8"/>
<text text-anchor="start" x="178.6" y="-117" font-family="Arial" font-size="14.00">article_intro </text>
<text text-anchor="start" x="254.86" y="-117" font-family="Arial" font-size="14.00" fill="#666666">[jsonb]</text>
<polygon fill="none" stroke="black" points="171.6,-74 171.6,-104.8 425.28,-104.8 425.28,-74 171.6,-74"/>
<text text-anchor="start" x="178.6" y="-86.2" font-family="Arial" font-size="14.00">article_outro </text>
<text text-anchor="start" x="259.53" y="-86.2" font-family="Arial" font-size="14.00" fill="#666666">[jsonb]</text>
<polygon fill="none" stroke="black" points="171.6,-43.2 171.6,-74 425.28,-74 425.28,-43.2 171.6,-43.2"/>
<text text-anchor="start" x="178.6" y="-55.4" font-family="Arial" font-size="14.00">show_label_chips </text>
<text text-anchor="start" x="293.01" y="-55.4" font-family="Arial" font-size="14.00" fill="#666666">[boolean]</text>
</g>
<!-- public.map_tags&#45;&gt;public.maps -->
<g id="edge1" class="edge">
<title>public.map_tags:map_id&#45;&gt;public.maps:id</title>
<path fill="none" stroke="black" d="M337.58,-834.49C296.91,-824.91 321.53,-755.28 348.96,-712.4 369.17,-680.81 405.03,-707.97 425.28,-676.4 447.89,-641.16 468.15,-582.2 426.28,-582.2"/>
<polygon fill="black" stroke="black" points="337.68,-834.5 347.15,-840.04 342.99,-835.07 347.29,-835.53 347.29,-835.53 347.29,-835.53 342.99,-835.07 348.1,-831.09 337.68,-834.5"/>
<text text-anchor="start" x="7" y="-845.6" font-family="Arial" font-size="10.00">FOREIGN KEY (map_id) REFERENCES maps(id) ON DELETE CASCADE</text>
</g>
<!-- public.tags -->
<g id="node3" class="node">
<title>public.tags</title>
<polygon fill="#efefef" stroke="none" points="529.6,-428.2 529.6,-463.8 783.28,-463.8 783.28,-428.2 529.6,-428.2"/>
<polygon fill="none" stroke="black" points="529.6,-428.2 529.6,-463.8 783.28,-463.8 783.28,-428.2 529.6,-428.2"/>
<text text-anchor="start" x="554.96" y="-441.6" font-family="Arial Bold" font-size="18.00">public.tags</text>
<text text-anchor="start" x="633.44" y="-441.6" font-family="Arial" font-size="14.00">    </text>
<text text-anchor="start" x="664.56" y="-441.6" font-family="Arial" font-size="14.00" fill="#666666">[BASE TABLE]</text>
<polygon fill="none" stroke="black" points="529.6,-397.4 529.6,-428.2 783.28,-428.2 783.28,-397.4 529.6,-397.4"/>
<text text-anchor="start" x="536.6" y="-409.6" font-family="Arial" font-size="14.00">id </text>
<text text-anchor="start" x="551.39" y="-409.6" font-family="Arial" font-size="14.00" fill="#666666">[uuid]</text>
<polygon fill="none" stroke="black" points="529.6,-366.6 529.6,-397.4 783.28,-397.4 783.28,-366.6 529.6,-366.6"/>
<text text-anchor="start" x="536.6" y="-378.8" font-family="Arial" font-size="14.00">name </text>
<text text-anchor="start" x="575.51" y="-378.8" font-family="Arial" font-size="14.00" fill="#666666">[text]</text>
<polygon fill="none" stroke="black" points="529.6,-335.8 529.6,-366.6 783.28,-366.6 783.28,-335.8 529.6,-335.8"/>
<text text-anchor="start" x="536.6" y="-348" font-family="Arial" font-size="14.00">name_translations </text>
<text text-anchor="start" x="654.89" y="-348" font-family="Arial" font-size="14.00" fill="#666666">[jsonb]</text>
<polygon fill="none" stroke="black" points="529.6,-305 529.6,-335.8 783.28,-335.8 783.28,-305 529.6,-305"/>
<text text-anchor="start" x="536.6" y="-317.2" font-family="Arial" font-size="14.00">slug </text>
<text text-anchor="start" x="566.17" y="-317.2" font-family="Arial" font-size="14.00" fill="#666666">[text]</text>
<polygon fill="none" stroke="black" points="529.6,-274.2 529.6,-305 783.28,-305 783.28,-274.2 529.6,-274.2"/>
<text text-anchor="start" x="536.6" y="-286.4" font-family="Arial" font-size="14.00">usage_count </text>
<text text-anchor="start" x="620.67" y="-286.4" font-family="Arial" font-size="14.00" fill="#666666">[integer]</text>
<polygon fill="none" stroke="black" points="529.6,-243.4 529.6,-274.2 783.28,-274.2 783.28,-243.4 529.6,-243.4"/>
<text text-anchor="start" x="536.6" y="-255.6" font-family="Arial" font-size="14.00">created_at </text>
<text text-anchor="start" x="606.65" y="-255.6" font-family="Arial" font-size="14.00" fill="#666666">[timestamp with time zone]</text>
<polygon fill="none" stroke="black" points="529.6,-212.6 529.6,-243.4 783.28,-243.4 783.28,-212.6 529.6,-212.6"/>
<text text-anchor="start" x="536.6" y="-224.8" font-family="Arial" font-size="14.00">updated_at </text>
<text text-anchor="start" x="610.56" y="-224.8" font-family="Arial" font-size="14.00" fill="#666666">[timestamp with time zone]</text>
</g>
<!-- public.map_tags&#45;&gt;public.tags -->
<g id="edge2" class="edge">
<title>public.map_tags:tag_id&#45;&gt;public.tags:id</title>
<path fill="none" stroke="black" d="M617.1,-804.31C767.06,-788.89 354.58,-412.8 528.6,-412.8"/>
<polygon fill="black" stroke="black" points="617.25,-804.3 607.04,-800.29 611.92,-804.56 607.59,-804.77 607.59,-804.77 607.59,-804.77 611.92,-804.56 607.48,-809.28 617.25,-804.3"/>
<text text-anchor="start" x="613.93" y="-814.8" font-family="Arial" font-size="10.00">FOREIGN KEY (tag_id) REFERENCES tags(id) ON DELETE CASCADE</text>
</g>
</g>
</svg>
