<?xml version="1.0" encoding="UTF-8" standalone="no"?>
<!DOCTYPE svg PUBLIC "-//W3C//DTD SVG 1.1//EN"
 "http://www.w3.org/Graphics/SVG/1.1/DTD/svg11.dtd">
<!-- Generated by graphviz version 12.1.2 (20240928.0832)
 -->
<!-- Title: public.countries Pages: 1 -->
<svg width="892pt" height="1314pt"
 viewBox="0.00 0.00 891.69 1314.40" xmlns="http://www.w3.org/2000/svg" xmlns:xlink="http://www.w3.org/1999/xlink">
<g id="graph0" class="graph" transform="scale(1 1) rotate(0) translate(4 1310.4)">
<title>public.countries</title>
<polygon fill="white" stroke="none" points="-4,4 -4,-1310.4 887.69,-1310.4 887.69,4 -4,4"/>
<!-- public.countries -->
<g id="node1" class="node">
<title>public.countries</title>
<polygon fill="#efefef" stroke="none" points="239.06,-758.6 239.06,-794.2 493.02,-794.2 493.02,-758.6 239.06,-758.6"/>
<polygon fill="none" stroke="black" points="239.06,-758.6 239.06,-794.2 493.02,-794.2 493.02,-758.6 239.06,-758.6"/>
<text text-anchor="start" x="246.06" y="-772" font-family="Arial Bold" font-size="18.00">public.countries</text>
<text text-anchor="start" x="361.53" y="-772" font-family="Arial" font-size="14.00">    </text>
<text text-anchor="start" x="392.65" y="-772" font-family="Arial" font-size="14.00" fill="#666666">[BASE TABLE]</text>
<polygon fill="none" stroke="black" points="239.06,-727.8 239.06,-758.6 493.02,-758.6 493.02,-727.8 239.06,-727.8"/>
<text text-anchor="start" x="246.06" y="-740" font-family="Arial" font-size="14.00">id </text>
<text text-anchor="start" x="260.85" y="-740" font-family="Arial" font-size="14.00" fill="#666666">[text]</text>
<polygon fill="none" stroke="black" points="239.06,-697 239.06,-727.8 493.02,-727.8 493.02,-697 239.06,-697"/>
<text text-anchor="start" x="246.06" y="-709.2" font-family="Arial" font-size="14.00">name </text>
<text text-anchor="start" x="284.97" y="-709.2" font-family="Arial" font-size="14.00" fill="#666666">[text]</text>
<polygon fill="none" stroke="black" points="239.06,-666.2 239.06,-697 493.02,-697 493.02,-666.2 239.06,-666.2"/>
<text text-anchor="start" x="246.06" y="-678.4" font-family="Arial" font-size="14.00">name_kana </text>
<text text-anchor="start" x="323.12" y="-678.4" font-family="Arial" font-size="14.00" fill="#666666">[text]</text>
<polygon fill="none" stroke="black" points="239.06,-635.4 239.06,-666.2 493.02,-666.2 493.02,-635.4 239.06,-635.4"/>
<text text-anchor="start" x="246.06" y="-647.6" font-family="Arial" font-size="14.00">latitude </text>
<text text-anchor="start" x="295.1" y="-647.6" font-family="Arial" font-size="14.00" fill="#666666">[double precision]</text>
<polygon fill="none" stroke="black" points="239.06,-604.6 239.06,-635.4 493.02,-635.4 493.02,-604.6 239.06,-604.6"/>
<text text-anchor="start" x="246.06" y="-616.8" font-family="Arial" font-size="14.00">longitude </text>
<text text-anchor="start" x="306.78" y="-616.8" font-family="Arial" font-size="14.00" fill="#666666">[double precision]</text>
<polygon fill="none" stroke="black" points="239.06,-573.8 239.06,-604.6 493.02,-604.6 493.02,-573.8 239.06,-573.8"/>
<text text-anchor="start" x="246.06" y="-586" font-family="Arial" font-size="14.00">created_at </text>
<text text-anchor="start" x="316.11" y="-586" font-family="Arial" font-size="14.00" fill="#666666">[timestamp with time zone]</text>
<polygon fill="none" stroke="black" points="239.06,-543 239.06,-573.8 493.02,-573.8 493.02,-543 239.06,-543"/>
<text text-anchor="start" x="246.06" y="-555.2" font-family="Arial" font-size="14.00">updated_at </text>
<text text-anchor="start" x="320.02" y="-555.2" font-family="Arial" font-size="14.00" fill="#666666">[timestamp with time zone]</text>
<polygon fill="none" stroke="black" points="239.06,-512.2 239.06,-543 493.02,-543 493.02,-512.2 239.06,-512.2"/>
<text text-anchor="start" x="246.06" y="-524.4" font-family="Arial" font-size="14.00">continent_id </text>
<text text-anchor="start" x="325.45" y="-524.4" font-family="Arial" font-size="14.00" fill="#666666">[text]</text>
<polygon fill="none" stroke="black" points="239.06,-481.4 239.06,-512.2 493.02,-512.2 493.02,-481.4 239.06,-481.4"/>
<text text-anchor="start" x="246.06" y="-493.6" font-family="Arial" font-size="14.00">name_translations </text>
<text text-anchor="start" x="364.35" y="-493.6" font-family="Arial" font-size="14.00" fill="#666666">[jsonb]</text>
<polygon fill="none" stroke="black" stroke-width="3" points="237.56,-479.9 237.56,-795.7 494.52,-795.7 494.52,-479.9 237.56,-479.9"/>
</g>
<!-- public.continents -->
<g id="node4" class="node">
<title>public.continents</title>
<polygon fill="#efefef" stroke="none" points="235.06,-320.4 235.06,-356 497.02,-356 497.02,-320.4 235.06,-320.4"/>
<polygon fill="none" stroke="black" points="235.06,-320.4 235.06,-356 497.02,-356 497.02,-320.4 235.06,-320.4"/>
<text text-anchor="start" x="242.06" y="-333.8" font-family="Arial Bold" font-size="18.00">public.continents</text>
<text text-anchor="start" x="365.53" y="-333.8" font-family="Arial" font-size="14.00">    </text>
<text text-anchor="start" x="396.65" y="-333.8" font-family="Arial" font-size="14.00" fill="#666666">[BASE TABLE]</text>
<polygon fill="none" stroke="black" points="235.06,-289.6 235.06,-320.4 497.02,-320.4 497.02,-289.6 235.06,-289.6"/>
<text text-anchor="start" x="242.06" y="-301.8" font-family="Arial" font-size="14.00">id </text>
<text text-anchor="start" x="256.84" y="-301.8" font-family="Arial" font-size="14.00" fill="#666666">[text]</text>
<polygon fill="none" stroke="black" points="235.06,-258.8 235.06,-289.6 497.02,-289.6 497.02,-258.8 235.06,-258.8"/>
<text text-anchor="start" x="242.06" y="-271" font-family="Arial" font-size="14.00">name </text>
<text text-anchor="start" x="280.97" y="-271" font-family="Arial" font-size="14.00" fill="#666666">[text]</text>
<polygon fill="none" stroke="black" points="235.06,-228 235.06,-258.8 497.02,-258.8 497.02,-228 235.06,-228"/>
<text text-anchor="start" x="242.06" y="-240.2" font-family="Arial" font-size="14.00">display_order </text>
<text text-anchor="start" x="329.99" y="-240.2" font-family="Arial" font-size="14.00" fill="#666666">[integer]</text>
<polygon fill="none" stroke="black" points="235.06,-197.2 235.06,-228 497.02,-228 497.02,-197.2 235.06,-197.2"/>
<text text-anchor="start" x="242.06" y="-209.4" font-family="Arial" font-size="14.00">created_at </text>
<text text-anchor="start" x="312.11" y="-209.4" font-family="Arial" font-size="14.00" fill="#666666">[timestamp with time zone]</text>
<polygon fill="none" stroke="black" points="235.06,-166.4 235.06,-197.2 497.02,-197.2 497.02,-166.4 235.06,-166.4"/>
<text text-anchor="start" x="242.06" y="-178.6" font-family="Arial" font-size="14.00">updated_at </text>
<text text-anchor="start" x="316.02" y="-178.6" font-family="Arial" font-size="14.00" fill="#666666">[timestamp with time zone]</text>
<polygon fill="none" stroke="black" points="235.06,-135.6 235.06,-166.4 497.02,-166.4 497.02,-135.6 235.06,-135.6"/>
<text text-anchor="start" x="242.06" y="-147.8" font-family="Arial" font-size="14.00">name_translations </text>
<text text-anchor="start" x="360.35" y="-147.8" font-family="Arial" font-size="14.00" fill="#666666">[jsonb]</text>
<polygon fill="none" stroke="black" points="235.06,-104.8 235.06,-135.6 497.02,-135.6 497.02,-104.8 235.06,-104.8"/>
<text text-anchor="start" x="242.06" y="-117" font-family="Arial" font-size="14.00">name_kana </text>
<text text-anchor="start" x="319.11" y="-117" font-family="Arial" font-size="14.00" fill="#666666">[text]</text>
<polygon fill="none" stroke="black" points="235.06,-74 235.06,-104.8 497.02,-104.8 497.02,-74 235.06,-74"/>
<text text-anchor="start" x="242.06" y="-86.2" font-family="Arial" font-size="14.00">latitude </text>
<text text-anchor="start" x="291.09" y="-86.2" font-family="Arial" font-size="14.00" fill="#666666">[double precision]</text>
<polygon fill="none" stroke="black" points="235.06,-43.2 235.06,-74 497.02,-74 497.02,-43.2 235.06,-43.2"/>
<text text-anchor="start" x="242.06" y="-55.4" font-family="Arial" font-size="14.00">longitude </text>
<text text-anchor="start" x="302.77" y="-55.4" font-family="Arial" font-size="14.00" fill="#666666">[double precision]</text>
</g>
<!-- public.countries&#45;&gt;public.continents -->
<g id="edge3" class="edge">
<title>public.countries:continent_id&#45;&gt;public.continents:id</title>
<path fill="none" stroke="black" d="M504.37,-526.75C593.13,-511.8 593.4,-305 498.02,-305"/>
<polygon fill="black" stroke="black" points="504.32,-526.75 493.99,-523.09 499,-527.19 494.69,-527.55 494.69,-527.55 494.69,-527.55 499,-527.19 494.72,-532.06 504.32,-526.75"/>
<text text-anchor="start" x="501.02" y="-537.6" font-family="Arial" font-size="10.00">FOREIGN KEY (continent_id) REFERENCES continents(id) ON DELETE SET NULL</text>
</g>
<!-- public.regions -->
<g id="node2" class="node">
<title>public.regions</title>
<polygon fill="#efefef" stroke="none" points="43.2,-1227.6 43.2,-1263.2 296.88,-1263.2 296.88,-1227.6 43.2,-1227.6"/>
<polygon fill="none" stroke="black" points="43.2,-1227.6 43.2,-1263.2 296.88,-1263.2 296.88,-1227.6 43.2,-1227.6"/>
<text text-anchor="start" x="56.56" y="-1241" font-family="Arial Bold" font-size="18.00">public.regions</text>
<text text-anchor="start" x="159.04" y="-1241" font-family="Arial" font-size="14.00">    </text>
<text text-anchor="start" x="190.15" y="-1241" font-family="Arial" font-size="14.00" fill="#666666">[BASE TABLE]</text>
<polygon fill="none" stroke="black" points="43.2,-1196.8 43.2,-1227.6 296.88,-1227.6 296.88,-1196.8 43.2,-1196.8"/>
<text text-anchor="start" x="50.2" y="-1209" font-family="Arial" font-size="14.00">id </text>
<text text-anchor="start" x="64.99" y="-1209" font-family="Arial" font-size="14.00" fill="#666666">[text]</text>
<polygon fill="none" stroke="black" points="43.2,-1166 43.2,-1196.8 296.88,-1196.8 296.88,-1166 43.2,-1166"/>
<text text-anchor="start" x="50.2" y="-1178.2" font-family="Arial" font-size="14.00">name </text>
<text text-anchor="start" x="89.11" y="-1178.2" font-family="Arial" font-size="14.00" fill="#666666">[text]</text>
<polygon fill="none" stroke="black" points="43.2,-1135.2 43.2,-1166 296.88,-1166 296.88,-1135.2 43.2,-1135.2"/>
<text text-anchor="start" x="50.2" y="-1147.4" font-family="Arial" font-size="14.00">name_kana </text>
<text text-anchor="start" x="127.25" y="-1147.4" font-family="Arial" font-size="14.00" fill="#666666">[text]</text>
<polygon fill="none" stroke="black" points="43.2,-1104.4 43.2,-1135.2 296.88,-1135.2 296.88,-1104.4 43.2,-1104.4"/>
<text text-anchor="start" x="50.2" y="-1116.6" font-family="Arial" font-size="14.00">display_order </text>
<text text-anchor="start" x="138.14" y="-1116.6" font-family="Arial" font-size="14.00" fill="#666666">[integer]</text>
<polygon fill="none" stroke="black" points="43.2,-1073.6 43.2,-1104.4 296.88,-1104.4 296.88,-1073.6 43.2,-1073.6"/>
<text text-anchor="start" x="50.2" y="-1085.8" font-family="Arial" font-size="14.00">created_at </text>
<text text-anchor="start" x="120.25" y="-1085.8" font-family="Arial" font-size="14.00" fill="#666666">[timestamp with time zone]</text>
<polygon fill="none" stroke="black" points="43.2,-1042.8 43.2,-1073.6 296.88,-1073.6 296.88,-1042.8 43.2,-1042.8"/>
<text text-anchor="start" x="50.2" y="-1055" font-family="Arial" font-size="14.00">updated_at </text>
<text text-anchor="start" x="124.16" y="-1055" font-family="Arial" font-size="14.00" fill="#666666">[timestamp with time zone]</text>
<polygon fill="none" stroke="black" points="43.2,-1012 43.2,-1042.8 296.88,-1042.8 296.88,-1012 43.2,-1012"/>
<text text-anchor="start" x="50.2" y="-1024.2" font-family="Arial" font-size="14.00">latitude </text>
<text text-anchor="start" x="99.23" y="-1024.2" font-family="Arial" font-size="14.00" fill="#666666">[double precision]</text>
<polygon fill="none" stroke="black" points="43.2,-981.2 43.2,-1012 296.88,-1012 296.88,-981.2 43.2,-981.2"/>
<text text-anchor="start" x="50.2" y="-993.4" font-family="Arial" font-size="14.00">longitude </text>
<text text-anchor="start" x="110.92" y="-993.4" font-family="Arial" font-size="14.00" fill="#666666">[double precision]</text>
<polygon fill="none" stroke="black" points="43.2,-950.4 43.2,-981.2 296.88,-981.2 296.88,-950.4 43.2,-950.4"/>
<text text-anchor="start" x="50.2" y="-962.6" font-family="Arial" font-size="14.00">name_translations </text>
<text text-anchor="start" x="168.49" y="-962.6" font-family="Arial" font-size="14.00" fill="#666666">[jsonb]</text>
<polygon fill="none" stroke="black" points="43.2,-919.6 43.2,-950.4 296.88,-950.4 296.88,-919.6 43.2,-919.6"/>
<text text-anchor="start" x="50.2" y="-931.8" font-family="Arial" font-size="14.00">country_id </text>
<text text-anchor="start" x="118.68" y="-931.8" font-family="Arial" font-size="14.00" fill="#666666">[text]</text>
</g>
<!-- public.regions&#45;&gt;public.countries -->
<g id="edge1" class="edge">
<title>public.regions:country_id&#45;&gt;public.countries:id</title>
<path fill="none" stroke="black" d="M307.64,-932.32C319.3,-923.57 307.62,-895.35 296.88,-876.4 281.96,-850.06 253.89,-866.79 239.06,-840.4 217.89,-802.74 194.86,-743.2 238.06,-743.2"/>
<polygon fill="black" stroke="black" points="307.85,-932.26 297.01,-930.57 302.7,-933.67 298.53,-934.82 298.53,-934.82 298.53,-934.82 302.7,-933.67 299.4,-939.25 307.85,-932.26"/>
<text text-anchor="start" x="304.88" y="-919" font-family="Arial" font-size="10.00">FOREIGN KEY (country_id) REFERENCES countries(id)</text>
</g>
<!-- public.admin_boundaries -->
<g id="node3" class="node">
<title>public.admin_boundaries</title>
<polygon fill="#efefef" stroke="none" points="401.57,-1181.4 401.57,-1217 722.52,-1217 722.52,-1181.4 401.57,-1181.4"/>
<polygon fill="none" stroke="black" points="401.57,-1181.4 401.57,-1217 722.52,-1217 722.52,-1181.4 401.57,-1181.4"/>
<text text-anchor="start" x="408.57" y="-1194.8" font-family="Arial Bold" font-size="18.00">public.admin_boundaries</text>
<text text-anchor="start" x="591.03" y="-1194.8" font-family="Arial" font-size="14.00">    </text>
<text text-anchor="start" x="622.14" y="-1194.8" font-family="Arial" font-size="14.00" fill="#666666">[BASE TABLE]</text>
<polygon fill="none" stroke="black" points="401.57,-1150.6 401.57,-1181.4 722.52,-1181.4 722.52,-1150.6 401.57,-1150.6"/>
<text text-anchor="start" x="408.57" y="-1162.8" font-family="Arial" font-size="14.00">id </text>
<text text-anchor="start" x="423.35" y="-1162.8" font-family="Arial" font-size="14.00" fill="#666666">[integer]</text>
<polygon fill="none" stroke="black" points="401.57,-1119.8 401.57,-1150.6 722.52,-1150.6 722.52,-1119.8 401.57,-1119.8"/>
<text text-anchor="start" x="408.57" y="-1132" font-family="Arial" font-size="14.00">geom </text>
<text text-anchor="start" x="447.48" y="-1132" font-family="Arial" font-size="14.00" fill="#666666">[geometry(MultiPolygon,4326)]</text>
<polygon fill="none" stroke="black" points="401.57,-1089 401.57,-1119.8 722.52,-1119.8 722.52,-1089 401.57,-1089"/>
<text text-anchor="start" x="408.57" y="-1101.2" font-family="Arial" font-size="14.00">created_at </text>
<text text-anchor="start" x="478.61" y="-1101.2" font-family="Arial" font-size="14.00" fill="#666666">[timestamp with time zone]</text>
<polygon fill="none" stroke="black" points="401.57,-1058.2 401.57,-1089 722.52,-1089 722.52,-1058.2 401.57,-1058.2"/>
<text text-anchor="start" x="408.57" y="-1070.4" font-family="Arial" font-size="14.00">admin_level </text>
<text text-anchor="start" x="487.17" y="-1070.4" font-family="Arial" font-size="14.00" fill="#666666">[integer]</text>
<polygon fill="none" stroke="black" points="401.57,-1027.4 401.57,-1058.2 722.52,-1058.2 722.52,-1027.4 401.57,-1027.4"/>
<text text-anchor="start" x="408.57" y="-1039.6" font-family="Arial" font-size="14.00">country_id </text>
<text text-anchor="start" x="477.05" y="-1039.6" font-family="Arial" font-size="14.00" fill="#666666">[text]</text>
<polygon fill="none" stroke="black" points="401.57,-996.6 401.57,-1027.4 722.52,-1027.4 722.52,-996.6 401.57,-996.6"/>
<text text-anchor="start" x="408.57" y="-1008.8" font-family="Arial" font-size="14.00">prefecture_id </text>
<text text-anchor="start" x="494.17" y="-1008.8" font-family="Arial" font-size="14.00" fill="#666666">[text]</text>
<polygon fill="none" stroke="black" points="401.57,-965.8 401.57,-996.6 722.52,-996.6 722.52,-965.8 401.57,-965.8"/>
<text text-anchor="start" x="408.57" y="-978" font-family="Arial" font-size="14.00">city_id </text>
<text text-anchor="start" x="452.14" y="-978" font-family="Arial" font-size="14.00" fill="#666666">[text]</text>
</g>
<!-- public.admin_boundaries&#45;&gt;public.countries -->
<g id="edge2" class="edge">
<title>public.admin_boundaries:country_id&#45;&gt;public.countries:id</title>
<path fill="none" stroke="black" d="M390.54,-1041.77C351.66,-1032.86 381.16,-967.88 401.57,-922.6 424.02,-872.78 470.51,-890.2 493.02,-840.4 510.81,-801.03 537.22,-743.2 494.02,-743.2"/>
<polygon fill="black" stroke="black" points="390.29,-1041.75 399.77,-1047.24 395.59,-1042.29 399.9,-1042.73 399.9,-1042.73 399.9,-1042.73 395.59,-1042.29 400.69,-1038.29 390.29,-1041.75"/>
<text text-anchor="start" x="407.57" y="-1052.8" font-family="Arial" font-size="10.00">FOREIGN KEY (country_id) REFERENCES countries(id)</text>
</g>
</g>
</svg>
