<?xml version="1.0" encoding="UTF-8" standalone="no"?>
<!DOCTYPE svg PUBLIC "-//W3C//DTD SVG 1.1//EN"
 "http://www.w3.org/Graphics/SVG/1.1/DTD/svg11.dtd">
<!-- Generated by graphviz version 12.1.2 (20240928.0832)
 -->
<!-- Title: public.user_latest_agreements Pages: 1 -->
<svg width="406pt" height="352pt"
 viewBox="0.00 0.00 406.50 351.60" xmlns="http://www.w3.org/2000/svg" xmlns:xlink="http://www.w3.org/1999/xlink">
<g id="graph0" class="graph" transform="scale(1 1) rotate(0) translate(4 347.6)">
<title>public.user_latest_agreements</title>
<polygon fill="white" stroke="none" points="-4,4 -4,-347.6 402.5,-347.6 402.5,4 -4,4"/>
<!-- public.user_latest_agreements -->
<g id="node1" class="node">
<title>public.user_latest_agreements</title>
<polygon fill="#efefef" stroke="none" points="46.2,-261.8 46.2,-297.4 352.3,-297.4 352.3,-261.8 46.2,-261.8"/>
<polygon fill="none" stroke="black" points="46.2,-261.8 46.2,-297.4 352.3,-297.4 352.3,-261.8 46.2,-261.8"/>
<text text-anchor="start" x="53.2" y="-275.2" font-family="Arial Bold" font-size="18.00">public.user_latest_agreements</text>
<text text-anchor="start" x="270.62" y="-275.2" font-family="Arial" font-size="14.00">    </text>
<text text-anchor="start" x="301.74" y="-275.2" font-family="Arial" font-size="14.00" fill="#666666">[VIEW]</text>
<polygon fill="none" stroke="black" points="46.2,-231 46.2,-261.8 352.3,-261.8 352.3,-231 46.2,-231"/>
<text text-anchor="start" x="53.2" y="-243.2" font-family="Arial" font-size="14.00">id </text>
<text text-anchor="start" x="67.99" y="-243.2" font-family="Arial" font-size="14.00" fill="#666666">[uuid]</text>
<polygon fill="none" stroke="black" points="46.2,-200.2 46.2,-231 352.3,-231 352.3,-200.2 46.2,-200.2"/>
<text text-anchor="start" x="53.2" y="-212.4" font-family="Arial" font-size="14.00">user_id </text>
<text text-anchor="start" x="103.01" y="-212.4" font-family="Arial" font-size="14.00" fill="#666666">[uuid]</text>
<polygon fill="none" stroke="black" points="46.2,-169.4 46.2,-200.2 352.3,-200.2 352.3,-169.4 46.2,-169.4"/>
<text text-anchor="start" x="53.2" y="-181.6" font-family="Arial" font-size="14.00">terms_version_id </text>
<text text-anchor="start" x="163.69" y="-181.6" font-family="Arial" font-size="14.00" fill="#666666">[uuid]</text>
<polygon fill="none" stroke="black" points="46.2,-138.6 46.2,-169.4 352.3,-169.4 352.3,-138.6 46.2,-138.6"/>
<text text-anchor="start" x="53.2" y="-150.8" font-family="Arial" font-size="14.00">privacy_version_id </text>
<text text-anchor="start" x="173.03" y="-150.8" font-family="Arial" font-size="14.00" fill="#666666">[uuid]</text>
<polygon fill="none" stroke="black" points="46.2,-107.8 46.2,-138.6 352.3,-138.6 352.3,-107.8 46.2,-107.8"/>
<text text-anchor="start" x="53.2" y="-120" font-family="Arial" font-size="14.00">agreed_at </text>
<text text-anchor="start" x="120.14" y="-120" font-family="Arial" font-size="14.00" fill="#666666">[timestamp with time zone]</text>
<polygon fill="none" stroke="black" points="46.2,-77 46.2,-107.8 352.3,-107.8 352.3,-77 46.2,-77"/>
<text text-anchor="start" x="53.2" y="-89.2" font-family="Arial" font-size="14.00">terms_version </text>
<text text-anchor="start" x="145.01" y="-89.2" font-family="Arial" font-size="14.00" fill="#666666">[text]</text>
<polygon fill="none" stroke="black" points="46.2,-46.2 46.2,-77 352.3,-77 352.3,-46.2 46.2,-46.2"/>
<text text-anchor="start" x="53.2" y="-58.4" font-family="Arial" font-size="14.00">privacy_version </text>
<text text-anchor="start" x="154.35" y="-58.4" font-family="Arial" font-size="14.00" fill="#666666">[text]</text>
<polygon fill="none" stroke="black" stroke-width="3" points="44.7,-44.7 44.7,-298.9 353.8,-298.9 353.8,-44.7 44.7,-44.7"/>
</g>
</g>
</svg>
