<?xml version="1.0" encoding="UTF-8" standalone="no"?>
<!DOCTYPE svg PUBLIC "-//W3C//DTD SVG 1.1//EN"
 "http://www.w3.org/Graphics/SVG/1.1/DTD/svg11.dtd">
<!-- Generated by graphviz version 12.1.2 (20240928.0832)
 -->
<!-- Title: public.follows Pages: 1 -->
<svg width="709pt" height="818pt"
 viewBox="0.00 0.00 709.21 817.60" xmlns="http://www.w3.org/2000/svg" xmlns:xlink="http://www.w3.org/1999/xlink">
<g id="graph0" class="graph" transform="scale(1 1) rotate(0) translate(4 813.6)">
<title>public.follows</title>
<polygon fill="white" stroke="none" points="-4,4 -4,-813.6 705.21,-813.6 705.21,4 -4,4"/>
<!-- public.follows -->
<g id="node1" class="node">
<title>public.follows</title>
<polygon fill="#efefef" stroke="none" points="85.24,-727.8 85.24,-763.4 335.02,-763.4 335.02,-727.8 85.24,-727.8"/>
<polygon fill="none" stroke="black" points="85.24,-727.8 85.24,-763.4 335.02,-763.4 335.02,-727.8 85.24,-727.8"/>
<text text-anchor="start" x="96.14" y="-741.2" font-family="Arial Bold" font-size="18.00">public.follows</text>
<text text-anchor="start" x="199.63" y="-741.2" font-family="Arial" font-size="14.00">    </text>
<text text-anchor="start" x="230.75" y="-741.2" font-family="Arial" font-size="14.00" fill="#666666">[BASE TABLE]</text>
<polygon fill="none" stroke="black" points="85.24,-697 85.24,-727.8 335.02,-727.8 335.02,-697 85.24,-697"/>
<text text-anchor="start" x="92.24" y="-709.2" font-family="Arial" font-size="14.00">id </text>
<text text-anchor="start" x="107.03" y="-709.2" font-family="Arial" font-size="14.00" fill="#666666">[uuid]</text>
<polygon fill="none" stroke="black" points="85.24,-666.2 85.24,-697 335.02,-697 335.02,-666.2 85.24,-666.2"/>
<text text-anchor="start" x="92.24" y="-678.4" font-family="Arial" font-size="14.00">follower_id </text>
<text text-anchor="start" x="163.06" y="-678.4" font-family="Arial" font-size="14.00" fill="#666666">[uuid]</text>
<polygon fill="none" stroke="black" points="85.24,-635.4 85.24,-666.2 335.02,-666.2 335.02,-635.4 85.24,-635.4"/>
<text text-anchor="start" x="92.24" y="-647.6" font-family="Arial" font-size="14.00">followee_id </text>
<text text-anchor="start" x="166.18" y="-647.6" font-family="Arial" font-size="14.00" fill="#666666">[uuid]</text>
<polygon fill="none" stroke="black" points="85.24,-604.6 85.24,-635.4 335.02,-635.4 335.02,-604.6 85.24,-604.6"/>
<text text-anchor="start" x="92.24" y="-616.8" font-family="Arial" font-size="14.00">created_at </text>
<text text-anchor="start" x="162.29" y="-616.8" font-family="Arial" font-size="14.00" fill="#666666">[timestamp with time zone]</text>
<polygon fill="none" stroke="black" stroke-width="3" points="83.74,-603.1 83.74,-764.9 336.52,-764.9 336.52,-603.1 83.74,-603.1"/>
</g>
<!-- public.users -->
<g id="node2" class="node">
<title>public.users</title>
<polygon fill="#efefef" stroke="none" points="43.2,-443.6 43.2,-479.2 377.06,-479.2 377.06,-443.6 43.2,-443.6"/>
<polygon fill="none" stroke="black" points="43.2,-443.6 43.2,-479.2 377.06,-479.2 377.06,-443.6 43.2,-443.6"/>
<text text-anchor="start" x="104.64" y="-457" font-family="Arial Bold" font-size="18.00">public.users</text>
<text text-anchor="start" x="191.13" y="-457" font-family="Arial" font-size="14.00">    </text>
<text text-anchor="start" x="222.24" y="-457" font-family="Arial" font-size="14.00" fill="#666666">[BASE TABLE]</text>
<polygon fill="none" stroke="black" points="43.2,-412.8 43.2,-443.6 377.06,-443.6 377.06,-412.8 43.2,-412.8"/>
<text text-anchor="start" x="50.2" y="-425" font-family="Arial" font-size="14.00">id </text>
<text text-anchor="start" x="64.99" y="-425" font-family="Arial" font-size="14.00" fill="#666666">[uuid]</text>
<polygon fill="none" stroke="black" points="43.2,-382 43.2,-412.8 377.06,-412.8 377.06,-382 43.2,-382"/>
<text text-anchor="start" x="50.2" y="-394.2" font-family="Arial" font-size="14.00">email </text>
<text text-anchor="start" x="87.54" y="-394.2" font-family="Arial" font-size="14.00" fill="#666666">[text]</text>
<polygon fill="none" stroke="black" points="43.2,-351.2 43.2,-382 377.06,-382 377.06,-351.2 43.2,-351.2"/>
<text text-anchor="start" x="50.2" y="-363.4" font-family="Arial" font-size="14.00">username </text>
<text text-anchor="start" x="116.34" y="-363.4" font-family="Arial" font-size="14.00" fill="#666666">[text]</text>
<polygon fill="none" stroke="black" points="43.2,-320.4 43.2,-351.2 377.06,-351.2 377.06,-320.4 43.2,-320.4"/>
<text text-anchor="start" x="50.2" y="-332.6" font-family="Arial" font-size="14.00">display_name </text>
<text text-anchor="start" x="140.48" y="-332.6" font-family="Arial" font-size="14.00" fill="#666666">[text]</text>
<polygon fill="none" stroke="black" points="43.2,-289.6 43.2,-320.4 377.06,-320.4 377.06,-289.6 43.2,-289.6"/>
<text text-anchor="start" x="50.2" y="-301.8" font-family="Arial" font-size="14.00">avatar_url </text>
<text text-anchor="start" x="116.34" y="-301.8" font-family="Arial" font-size="14.00" fill="#666666">[text]</text>
<polygon fill="none" stroke="black" points="43.2,-258.8 43.2,-289.6 377.06,-289.6 377.06,-258.8 43.2,-258.8"/>
<text text-anchor="start" x="50.2" y="-271" font-family="Arial" font-size="14.00">bio </text>
<text text-anchor="start" x="72.77" y="-271" font-family="Arial" font-size="14.00" fill="#666666">[text]</text>
<polygon fill="none" stroke="black" points="43.2,-228 43.2,-258.8 377.06,-258.8 377.06,-228 43.2,-228"/>
<text text-anchor="start" x="50.2" y="-240.2" font-family="Arial" font-size="14.00">is_premium </text>
<text text-anchor="start" x="126.44" y="-240.2" font-family="Arial" font-size="14.00" fill="#666666">[boolean]</text>
<polygon fill="none" stroke="black" points="43.2,-197.2 43.2,-228 377.06,-228 377.06,-197.2 43.2,-197.2"/>
<text text-anchor="start" x="50.2" y="-209.4" font-family="Arial" font-size="14.00">premium_started_at </text>
<text text-anchor="start" x="178.59" y="-209.4" font-family="Arial" font-size="14.00" fill="#666666">[timestamp with time zone]</text>
<polygon fill="none" stroke="black" points="43.2,-166.4 43.2,-197.2 377.06,-197.2 377.06,-166.4 43.2,-166.4"/>
<text text-anchor="start" x="50.2" y="-178.6" font-family="Arial" font-size="14.00">premium_expires_at </text>
<text text-anchor="start" x="180.92" y="-178.6" font-family="Arial" font-size="14.00" fill="#666666">[timestamp with time zone]</text>
<polygon fill="none" stroke="black" points="43.2,-135.6 43.2,-166.4 377.06,-166.4 377.06,-135.6 43.2,-135.6"/>
<text text-anchor="start" x="50.2" y="-147.8" font-family="Arial" font-size="14.00">created_at </text>
<text text-anchor="start" x="120.25" y="-147.8" font-family="Arial" font-size="14.00" fill="#666666">[timestamp with time zone]</text>
<polygon fill="none" stroke="black" points="43.2,-104.8 43.2,-135.6 377.06,-135.6 377.06,-104.8 43.2,-104.8"/>
<text text-anchor="start" x="50.2" y="-117" font-family="Arial" font-size="14.00">updated_at </text>
<text text-anchor="start" x="124.16" y="-117" font-family="Arial" font-size="14.00" fill="#666666">[timestamp with time zone]</text>
<polygon fill="none" stroke="black" points="43.2,-74 43.2,-104.8 377.06,-104.8 377.06,-74 43.2,-74"/>
<text text-anchor="start" x="50.2" y="-86.2" font-family="Arial" font-size="14.00">push_token </text>
<text text-anchor="start" x="126.48" y="-86.2" font-family="Arial" font-size="14.00" fill="#666666">[text]</text>
<polygon fill="none" stroke="black" points="43.2,-43.2 43.2,-74 377.06,-74 377.06,-43.2 43.2,-43.2"/>
<text text-anchor="start" x="50.2" y="-55.4" font-family="Arial" font-size="14.00">push_token_updated_at </text>
<text text-anchor="start" x="204.34" y="-55.4" font-family="Arial" font-size="14.00" fill="#666666">[timestamp with time zone]</text>
</g>
<!-- public.follows&#45;&gt;public.users -->
<g id="edge1" class="edge">
<title>public.follows:follower_id&#45;&gt;public.users:id</title>
<path fill="none" stroke="black" d="M345.88,-679.09C397.68,-652.77 431.8,-428.2 378.06,-428.2"/>
<polygon fill="black" stroke="black" points="346.03,-679.05 335.23,-677.16 340.86,-680.37 336.66,-681.44 336.66,-681.44 336.66,-681.44 340.86,-680.37 337.45,-685.88 346.03,-679.05"/>
<text text-anchor="start" x="343.02" y="-691.6" font-family="Arial" font-size="10.00">FOREIGN KEY (follower_id) REFERENCES users(id) ON DELETE CASCADE</text>
</g>
<!-- public.follows&#45;&gt;public.users -->
<g id="edge2" class="edge">
<title>public.follows:followee_id&#45;&gt;public.users:id</title>
<path fill="none" stroke="black" d="M346.41,-649.99C439.48,-635.42 475.2,-428.2 378.06,-428.2"/>
<polygon fill="black" stroke="black" points="346.32,-650 336,-646.29 341,-650.41 336.68,-650.75 336.68,-650.75 336.68,-650.75 341,-650.41 336.7,-655.26 346.32,-650"/>
<text text-anchor="start" x="343.02" y="-660.8" font-family="Arial" font-size="10.00">FOREIGN KEY (followee_id) REFERENCES users(id) ON DELETE CASCADE</text>
</g>
</g>
</svg>
