<?xml version="1.0" encoding="UTF-8" standalone="no"?>
<!DOCTYPE svg PUBLIC "-//W3C//DTD SVG 1.1//EN"
 "http://www.w3.org/Graphics/SVG/1.1/DTD/svg11.dtd">
<!-- Generated by graphviz version 12.1.2 (20240928.0832)
 -->
<!-- Title: public.terms_versions Pages: 1 -->
<svg width="753pt" height="1345pt"
 viewBox="0.00 0.00 753.27 1345.20" xmlns="http://www.w3.org/2000/svg" xmlns:xlink="http://www.w3.org/1999/xlink">
<g id="graph0" class="graph" transform="scale(1 1) rotate(0) translate(4 1341.2)">
<title>public.terms_versions</title>
<polygon fill="white" stroke="none" points="-4,4 -4,-1341.2 749.27,-1341.2 749.27,4 -4,4"/>
<!-- public.terms_versions -->
<g id="node1" class="node">
<title>public.terms_versions</title>
<polygon fill="#efefef" stroke="none" points="105.58,-851 105.58,-886.6 402.54,-886.6 402.54,-851 105.58,-851"/>
<polygon fill="none" stroke="black" points="105.58,-851 105.58,-886.6 402.54,-886.6 402.54,-851 105.58,-851"/>
<text text-anchor="start" x="112.58" y="-864.4" font-family="Arial Bold" font-size="18.00">public.terms_versions</text>
<text text-anchor="start" x="271.05" y="-864.4" font-family="Arial" font-size="14.00">    </text>
<text text-anchor="start" x="302.17" y="-864.4" font-family="Arial" font-size="14.00" fill="#666666">[BASE TABLE]</text>
<polygon fill="none" stroke="black" points="105.58,-820.2 105.58,-851 402.54,-851 402.54,-820.2 105.58,-820.2"/>
<text text-anchor="start" x="112.58" y="-832.4" font-family="Arial" font-size="14.00">id </text>
<text text-anchor="start" x="127.36" y="-832.4" font-family="Arial" font-size="14.00" fill="#666666">[uuid]</text>
<polygon fill="none" stroke="black" points="105.58,-789.4 105.58,-820.2 402.54,-820.2 402.54,-789.4 105.58,-789.4"/>
<text text-anchor="start" x="112.58" y="-801.6" font-family="Arial" font-size="14.00">type </text>
<text text-anchor="start" x="142.93" y="-801.6" font-family="Arial" font-size="14.00" fill="#666666">[text]</text>
<polygon fill="none" stroke="black" points="105.58,-758.6 105.58,-789.4 402.54,-789.4 402.54,-758.6 105.58,-758.6"/>
<text text-anchor="start" x="112.58" y="-770.8" font-family="Arial" font-size="14.00">version </text>
<text text-anchor="start" x="161.6" y="-770.8" font-family="Arial" font-size="14.00" fill="#666666">[text]</text>
<polygon fill="none" stroke="black" points="105.58,-727.8 105.58,-758.6 402.54,-758.6 402.54,-727.8 105.58,-727.8"/>
<text text-anchor="start" x="112.58" y="-740" font-family="Arial" font-size="14.00">content </text>
<text text-anchor="start" x="162.39" y="-740" font-family="Arial" font-size="14.00" fill="#666666">[text]</text>
<polygon fill="none" stroke="black" points="105.58,-697 105.58,-727.8 402.54,-727.8 402.54,-697 105.58,-697"/>
<text text-anchor="start" x="112.58" y="-709.2" font-family="Arial" font-size="14.00">summary </text>
<text text-anchor="start" x="174.02" y="-709.2" font-family="Arial" font-size="14.00" fill="#666666">[text]</text>
<polygon fill="none" stroke="black" points="105.58,-666.2 105.58,-697 402.54,-697 402.54,-666.2 105.58,-666.2"/>
<text text-anchor="start" x="112.58" y="-678.4" font-family="Arial" font-size="14.00">effective_at </text>
<text text-anchor="start" x="188.07" y="-678.4" font-family="Arial" font-size="14.00" fill="#666666">[timestamp with time zone]</text>
<polygon fill="none" stroke="black" points="105.58,-635.4 105.58,-666.2 402.54,-666.2 402.54,-635.4 105.58,-635.4"/>
<text text-anchor="start" x="112.58" y="-647.6" font-family="Arial" font-size="14.00">created_at </text>
<text text-anchor="start" x="182.62" y="-647.6" font-family="Arial" font-size="14.00" fill="#666666">[timestamp with time zone]</text>
<polygon fill="none" stroke="black" points="105.58,-604.6 105.58,-635.4 402.54,-635.4 402.54,-604.6 105.58,-604.6"/>
<text text-anchor="start" x="112.58" y="-616.8" font-family="Arial" font-size="14.00">created_by </text>
<text text-anchor="start" x="185.73" y="-616.8" font-family="Arial" font-size="14.00" fill="#666666">[uuid]</text>
<polygon fill="none" stroke="black" stroke-width="3" points="104.08,-603.1 104.08,-888.1 404.04,-888.1 404.04,-603.1 104.08,-603.1"/>
</g>
<!-- public.users -->
<g id="node3" class="node">
<title>public.users</title>
<polygon fill="#efefef" stroke="none" points="87.13,-443.6 87.13,-479.2 420.99,-479.2 420.99,-443.6 87.13,-443.6"/>
<polygon fill="none" stroke="black" points="87.13,-443.6 87.13,-479.2 420.99,-479.2 420.99,-443.6 87.13,-443.6"/>
<text text-anchor="start" x="148.57" y="-457" font-family="Arial Bold" font-size="18.00">public.users</text>
<text text-anchor="start" x="235.06" y="-457" font-family="Arial" font-size="14.00">    </text>
<text text-anchor="start" x="266.17" y="-457" font-family="Arial" font-size="14.00" fill="#666666">[BASE TABLE]</text>
<polygon fill="none" stroke="black" points="87.13,-412.8 87.13,-443.6 420.99,-443.6 420.99,-412.8 87.13,-412.8"/>
<text text-anchor="start" x="94.13" y="-425" font-family="Arial" font-size="14.00">id </text>
<text text-anchor="start" x="108.91" y="-425" font-family="Arial" font-size="14.00" fill="#666666">[uuid]</text>
<polygon fill="none" stroke="black" points="87.13,-382 87.13,-412.8 420.99,-412.8 420.99,-382 87.13,-382"/>
<text text-anchor="start" x="94.13" y="-394.2" font-family="Arial" font-size="14.00">email </text>
<text text-anchor="start" x="131.47" y="-394.2" font-family="Arial" font-size="14.00" fill="#666666">[text]</text>
<polygon fill="none" stroke="black" points="87.13,-351.2 87.13,-382 420.99,-382 420.99,-351.2 87.13,-351.2"/>
<text text-anchor="start" x="94.13" y="-363.4" font-family="Arial" font-size="14.00">username </text>
<text text-anchor="start" x="160.27" y="-363.4" font-family="Arial" font-size="14.00" fill="#666666">[text]</text>
<polygon fill="none" stroke="black" points="87.13,-320.4 87.13,-351.2 420.99,-351.2 420.99,-320.4 87.13,-320.4"/>
<text text-anchor="start" x="94.13" y="-332.6" font-family="Arial" font-size="14.00">display_name </text>
<text text-anchor="start" x="184.4" y="-332.6" font-family="Arial" font-size="14.00" fill="#666666">[text]</text>
<polygon fill="none" stroke="black" points="87.13,-289.6 87.13,-320.4 420.99,-320.4 420.99,-289.6 87.13,-289.6"/>
<text text-anchor="start" x="94.13" y="-301.8" font-family="Arial" font-size="14.00">avatar_url </text>
<text text-anchor="start" x="160.27" y="-301.8" font-family="Arial" font-size="14.00" fill="#666666">[text]</text>
<polygon fill="none" stroke="black" points="87.13,-258.8 87.13,-289.6 420.99,-289.6 420.99,-258.8 87.13,-258.8"/>
<text text-anchor="start" x="94.13" y="-271" font-family="Arial" font-size="14.00">bio </text>
<text text-anchor="start" x="116.7" y="-271" font-family="Arial" font-size="14.00" fill="#666666">[text]</text>
<polygon fill="none" stroke="black" points="87.13,-228 87.13,-258.8 420.99,-258.8 420.99,-228 87.13,-228"/>
<text text-anchor="start" x="94.13" y="-240.2" font-family="Arial" font-size="14.00">is_premium </text>
<text text-anchor="start" x="170.37" y="-240.2" font-family="Arial" font-size="14.00" fill="#666666">[boolean]</text>
<polygon fill="none" stroke="black" points="87.13,-197.2 87.13,-228 420.99,-228 420.99,-197.2 87.13,-197.2"/>
<text text-anchor="start" x="94.13" y="-209.4" font-family="Arial" font-size="14.00">premium_started_at </text>
<text text-anchor="start" x="222.52" y="-209.4" font-family="Arial" font-size="14.00" fill="#666666">[timestamp with time zone]</text>
<polygon fill="none" stroke="black" points="87.13,-166.4 87.13,-197.2 420.99,-197.2 420.99,-166.4 87.13,-166.4"/>
<text text-anchor="start" x="94.13" y="-178.6" font-family="Arial" font-size="14.00">premium_expires_at </text>
<text text-anchor="start" x="224.85" y="-178.6" font-family="Arial" font-size="14.00" fill="#666666">[timestamp with time zone]</text>
<polygon fill="none" stroke="black" points="87.13,-135.6 87.13,-166.4 420.99,-166.4 420.99,-135.6 87.13,-135.6"/>
<text text-anchor="start" x="94.13" y="-147.8" font-family="Arial" font-size="14.00">created_at </text>
<text text-anchor="start" x="164.18" y="-147.8" font-family="Arial" font-size="14.00" fill="#666666">[timestamp with time zone]</text>
<polygon fill="none" stroke="black" points="87.13,-104.8 87.13,-135.6 420.99,-135.6 420.99,-104.8 87.13,-104.8"/>
<text text-anchor="start" x="94.13" y="-117" font-family="Arial" font-size="14.00">updated_at </text>
<text text-anchor="start" x="168.09" y="-117" font-family="Arial" font-size="14.00" fill="#666666">[timestamp with time zone]</text>
<polygon fill="none" stroke="black" points="87.13,-74 87.13,-104.8 420.99,-104.8 420.99,-74 87.13,-74"/>
<text text-anchor="start" x="94.13" y="-86.2" font-family="Arial" font-size="14.00">push_token </text>
<text text-anchor="start" x="170.41" y="-86.2" font-family="Arial" font-size="14.00" fill="#666666">[text]</text>
<polygon fill="none" stroke="black" points="87.13,-43.2 87.13,-74 420.99,-74 420.99,-43.2 87.13,-43.2"/>
<text text-anchor="start" x="94.13" y="-55.4" font-family="Arial" font-size="14.00">push_token_updated_at </text>
<text text-anchor="start" x="248.27" y="-55.4" font-family="Arial" font-size="14.00" fill="#666666">[timestamp with time zone]</text>
</g>
<!-- public.terms_versions&#45;&gt;public.users -->
<g id="edge3" class="edge">
<title>public.terms_versions:created_by&#45;&gt;public.users:id</title>
<path fill="none" stroke="black" d="M254.78,-593.38C264.93,-527.19 378.84,-588.98 420.99,-522.4 443.38,-487.02 463.86,-428.2 421.99,-428.2"/>
<polygon fill="black" stroke="black" points="254.79,-593.29 249.59,-602.95 254.41,-598.61 254.11,-602.93 254.11,-602.93 254.11,-602.93 254.41,-598.61 258.57,-603.59 254.79,-593.29"/>
<text text-anchor="start" x="7" y="-613.6" font-family="Arial" font-size="10.00">FOREIGN KEY (created_by) REFERENCES users(id)</text>
</g>
<!-- public.terms_agreements -->
<g id="node2" class="node">
<title>public.terms_agreements</title>
<polygon fill="#efefef" stroke="none" points="94.59,-1258.4 94.59,-1294 413.52,-1294 413.52,-1258.4 94.59,-1258.4"/>
<polygon fill="none" stroke="black" points="94.59,-1258.4 94.59,-1294 413.52,-1294 413.52,-1258.4 94.59,-1258.4"/>
<text text-anchor="start" x="101.59" y="-1271.8" font-family="Arial Bold" font-size="18.00">public.terms_agreements</text>
<text text-anchor="start" x="282.03" y="-1271.8" font-family="Arial" font-size="14.00">    </text>
<text text-anchor="start" x="313.15" y="-1271.8" font-family="Arial" font-size="14.00" fill="#666666">[BASE TABLE]</text>
<polygon fill="none" stroke="black" points="94.59,-1227.6 94.59,-1258.4 413.52,-1258.4 413.52,-1227.6 94.59,-1227.6"/>
<text text-anchor="start" x="101.59" y="-1239.8" font-family="Arial" font-size="14.00">id </text>
<text text-anchor="start" x="116.38" y="-1239.8" font-family="Arial" font-size="14.00" fill="#666666">[uuid]</text>
<polygon fill="none" stroke="black" points="94.59,-1196.8 94.59,-1227.6 413.52,-1227.6 413.52,-1196.8 94.59,-1196.8"/>
<text text-anchor="start" x="101.59" y="-1209" font-family="Arial" font-size="14.00">user_id </text>
<text text-anchor="start" x="151.4" y="-1209" font-family="Arial" font-size="14.00" fill="#666666">[uuid]</text>
<polygon fill="none" stroke="black" points="94.59,-1166 94.59,-1196.8 413.52,-1196.8 413.52,-1166 94.59,-1166"/>
<text text-anchor="start" x="101.59" y="-1178.2" font-family="Arial" font-size="14.00">terms_version_id </text>
<text text-anchor="start" x="212.08" y="-1178.2" font-family="Arial" font-size="14.00" fill="#666666">[uuid]</text>
<polygon fill="none" stroke="black" points="94.59,-1135.2 94.59,-1166 413.52,-1166 413.52,-1135.2 94.59,-1135.2"/>
<text text-anchor="start" x="101.59" y="-1147.4" font-family="Arial" font-size="14.00">privacy_version_id </text>
<text text-anchor="start" x="221.43" y="-1147.4" font-family="Arial" font-size="14.00" fill="#666666">[uuid]</text>
<polygon fill="none" stroke="black" points="94.59,-1104.4 94.59,-1135.2 413.52,-1135.2 413.52,-1104.4 94.59,-1104.4"/>
<text text-anchor="start" x="101.59" y="-1116.6" font-family="Arial" font-size="14.00">agreed_at </text>
<text text-anchor="start" x="168.54" y="-1116.6" font-family="Arial" font-size="14.00" fill="#666666">[timestamp with time zone]</text>
<polygon fill="none" stroke="black" points="94.59,-1073.6 94.59,-1104.4 413.52,-1104.4 413.52,-1073.6 94.59,-1073.6"/>
<text text-anchor="start" x="101.59" y="-1085.8" font-family="Arial" font-size="14.00">ip_address </text>
<text text-anchor="start" x="173.97" y="-1085.8" font-family="Arial" font-size="14.00" fill="#666666">[inet]</text>
<polygon fill="none" stroke="black" points="94.59,-1042.8 94.59,-1073.6 413.52,-1073.6 413.52,-1042.8 94.59,-1042.8"/>
<text text-anchor="start" x="101.59" y="-1055" font-family="Arial" font-size="14.00">user_agent </text>
<text text-anchor="start" x="175.54" y="-1055" font-family="Arial" font-size="14.00" fill="#666666">[text]</text>
<polygon fill="none" stroke="black" points="94.59,-1012 94.59,-1042.8 413.52,-1042.8 413.52,-1012 94.59,-1012"/>
<text text-anchor="start" x="101.59" y="-1024.2" font-family="Arial" font-size="14.00">created_at </text>
<text text-anchor="start" x="171.64" y="-1024.2" font-family="Arial" font-size="14.00" fill="#666666">[timestamp with time zone]</text>
</g>
<!-- public.terms_agreements&#45;&gt;public.terms_versions -->
<g id="edge1" class="edge">
<title>public.terms_agreements:privacy_version_id&#45;&gt;public.terms_versions:id</title>
<path fill="none" stroke="black" d="M424.57,-1148.25C483.3,-1119.42 470.03,-835.6 403.54,-835.6"/>
<polygon fill="black" stroke="black" points="424.58,-1148.24 413.82,-1146.14 419.39,-1149.46 415.17,-1150.45 415.17,-1150.45 415.17,-1150.45 419.39,-1149.46 415.88,-1154.9 424.58,-1148.24"/>
<text text-anchor="start" x="421.52" y="-1160.6" font-family="Arial" font-size="10.00">FOREIGN KEY (privacy_version_id) REFERENCES terms_versions(id)</text>
</g>
<!-- public.terms_agreements&#45;&gt;public.terms_versions -->
<g id="edge2" class="edge">
<title>public.terms_agreements:terms_version_id&#45;&gt;public.terms_versions:id</title>
<path fill="none" stroke="black" d="M424.35,-1179.37C490.29,-1151.03 476.97,-835.6 403.54,-835.6"/>
<polygon fill="black" stroke="black" points="424.64,-1179.31 413.94,-1176.93 419.42,-1180.39 415.18,-1181.26 415.18,-1181.26 415.18,-1181.26 419.42,-1180.39 415.76,-1185.74 424.64,-1179.31"/>
<text text-anchor="start" x="421.52" y="-1191.4" font-family="Arial" font-size="10.00">FOREIGN KEY (terms_version_id) REFERENCES terms_versions(id)</text>
</g>
</g>
</svg>
