<?xml version="1.0" encoding="UTF-8" standalone="no"?>
<!DOCTYPE svg PUBLIC "-//W3C//DTD SVG 1.1//EN"
 "http://www.w3.org/Graphics/SVG/1.1/DTD/svg11.dtd">
<!-- Generated by graphviz version 12.1.2 (20240928.0832)
 -->
<!-- Title: public.machi Pages: 1 -->
<svg width="1520pt" height="2146pt"
 viewBox="0.00 0.00 1519.61 2146.00" xmlns="http://www.w3.org/2000/svg" xmlns:xlink="http://www.w3.org/1999/xlink">
<g id="graph0" class="graph" transform="scale(1 1) rotate(0) translate(4 2142)">
<title>public.machi</title>
<polygon fill="white" stroke="none" points="-4,4 -4,-2142 1515.61,-2142 1515.61,4 -4,4"/>
<!-- public.machi -->
<g id="node1" class="node">
<title>public.machi</title>
<polygon fill="#efefef" stroke="none" points="603.2,-1066.6 603.2,-1102.2 856.88,-1102.2 856.88,-1066.6 603.2,-1066.6"/>
<polygon fill="none" stroke="black" points="603.2,-1066.6 603.2,-1102.2 856.88,-1102.2 856.88,-1066.6 603.2,-1066.6"/>
<text text-anchor="start" x="621.06" y="-1080" font-family="Arial Bold" font-size="18.00">public.machi</text>
<text text-anchor="start" x="714.53" y="-1080" font-family="Arial" font-size="14.00">    </text>
<text text-anchor="start" x="745.65" y="-1080" font-family="Arial" font-size="14.00" fill="#666666">[BASE TABLE]</text>
<polygon fill="none" stroke="black" points="603.2,-1035.8 603.2,-1066.6 856.88,-1066.6 856.88,-1035.8 603.2,-1035.8"/>
<text text-anchor="start" x="610.2" y="-1048" font-family="Arial" font-size="14.00">id </text>
<text text-anchor="start" x="624.99" y="-1048" font-family="Arial" font-size="14.00" fill="#666666">[text]</text>
<polygon fill="none" stroke="black" points="603.2,-1005 603.2,-1035.8 856.88,-1035.8 856.88,-1005 603.2,-1005"/>
<text text-anchor="start" x="610.2" y="-1017.2" font-family="Arial" font-size="14.00">name </text>
<text text-anchor="start" x="649.11" y="-1017.2" font-family="Arial" font-size="14.00" fill="#666666">[text]</text>
<polygon fill="none" stroke="black" points="603.2,-974.2 603.2,-1005 856.88,-1005 856.88,-974.2 603.2,-974.2"/>
<text text-anchor="start" x="610.2" y="-986.4" font-family="Arial" font-size="14.00">latitude </text>
<text text-anchor="start" x="659.23" y="-986.4" font-family="Arial" font-size="14.00" fill="#666666">[double precision]</text>
<polygon fill="none" stroke="black" points="603.2,-943.4 603.2,-974.2 856.88,-974.2 856.88,-943.4 603.2,-943.4"/>
<text text-anchor="start" x="610.2" y="-955.6" font-family="Arial" font-size="14.00">longitude </text>
<text text-anchor="start" x="670.92" y="-955.6" font-family="Arial" font-size="14.00" fill="#666666">[double precision]</text>
<polygon fill="none" stroke="black" points="603.2,-912.6 603.2,-943.4 856.88,-943.4 856.88,-912.6 603.2,-912.6"/>
<text text-anchor="start" x="610.2" y="-924.8" font-family="Arial" font-size="14.00">prefecture_id </text>
<text text-anchor="start" x="695.81" y="-924.8" font-family="Arial" font-size="14.00" fill="#666666">[text]</text>
<polygon fill="none" stroke="black" points="603.2,-881.8 603.2,-912.6 856.88,-912.6 856.88,-881.8 603.2,-881.8"/>
<text text-anchor="start" x="610.2" y="-894" font-family="Arial" font-size="14.00">city_id </text>
<text text-anchor="start" x="653.77" y="-894" font-family="Arial" font-size="14.00" fill="#666666">[text]</text>
<polygon fill="none" stroke="black" points="603.2,-851 603.2,-881.8 856.88,-881.8 856.88,-851 603.2,-851"/>
<text text-anchor="start" x="610.2" y="-863.2" font-family="Arial" font-size="14.00">name_kana </text>
<text text-anchor="start" x="687.25" y="-863.2" font-family="Arial" font-size="14.00" fill="#666666">[text]</text>
<polygon fill="none" stroke="black" points="603.2,-820.2 603.2,-851 856.88,-851 856.88,-820.2 603.2,-820.2"/>
<text text-anchor="start" x="610.2" y="-832.4" font-family="Arial" font-size="14.00">name_translations </text>
<text text-anchor="start" x="728.49" y="-832.4" font-family="Arial" font-size="14.00" fill="#666666">[jsonb]</text>
<polygon fill="none" stroke="black" points="603.2,-789.4 603.2,-820.2 856.88,-820.2 856.88,-789.4 603.2,-789.4"/>
<text text-anchor="start" x="610.2" y="-801.6" font-family="Arial" font-size="14.00">prefecture_name </text>
<text text-anchor="start" x="719.93" y="-801.6" font-family="Arial" font-size="14.00" fill="#666666">[text]</text>
<polygon fill="none" stroke="black" points="603.2,-758.6 603.2,-789.4 856.88,-789.4 856.88,-758.6 603.2,-758.6"/>
<text text-anchor="start" x="610.2" y="-770.8" font-family="Arial" font-size="14.00">prefecture_name_translations </text>
<text text-anchor="start" x="799.31" y="-770.8" font-family="Arial" font-size="14.00" fill="#666666">[jsonb]</text>
<polygon fill="none" stroke="black" points="603.2,-727.8 603.2,-758.6 856.88,-758.6 856.88,-727.8 603.2,-727.8"/>
<text text-anchor="start" x="610.2" y="-740" font-family="Arial" font-size="14.00">city_name </text>
<text text-anchor="start" x="677.9" y="-740" font-family="Arial" font-size="14.00" fill="#666666">[text]</text>
<polygon fill="none" stroke="black" points="603.2,-697 603.2,-727.8 856.88,-727.8 856.88,-697 603.2,-697"/>
<text text-anchor="start" x="610.2" y="-709.2" font-family="Arial" font-size="14.00">city_name_translations </text>
<text text-anchor="start" x="757.28" y="-709.2" font-family="Arial" font-size="14.00" fill="#666666">[jsonb]</text>
<polygon fill="none" stroke="black" points="603.2,-666.2 603.2,-697 856.88,-697 856.88,-666.2 603.2,-666.2"/>
<text text-anchor="start" x="610.2" y="-678.4" font-family="Arial" font-size="14.00">created_at </text>
<text text-anchor="start" x="680.25" y="-678.4" font-family="Arial" font-size="14.00" fill="#666666">[timestamp with time zone]</text>
<polygon fill="none" stroke="black" points="603.2,-635.4 603.2,-666.2 856.88,-666.2 856.88,-635.4 603.2,-635.4"/>
<text text-anchor="start" x="610.2" y="-647.6" font-family="Arial" font-size="14.00">updated_at </text>
<text text-anchor="start" x="684.16" y="-647.6" font-family="Arial" font-size="14.00" fill="#666666">[timestamp with time zone]</text>
<polygon fill="none" stroke="black" points="603.2,-604.6 603.2,-635.4 856.88,-635.4 856.88,-604.6 603.2,-604.6"/>
<text text-anchor="start" x="610.2" y="-616.8" font-family="Arial" font-size="14.00">osm_id </text>
<text text-anchor="start" x="659.22" y="-616.8" font-family="Arial" font-size="14.00" fill="#666666">[bigint]</text>
<polygon fill="none" stroke="black" points="603.2,-573.8 603.2,-604.6 856.88,-604.6 856.88,-573.8 603.2,-573.8"/>
<text text-anchor="start" x="610.2" y="-586" font-family="Arial" font-size="14.00">place_type </text>
<text text-anchor="start" x="681.81" y="-586" font-family="Arial" font-size="14.00" fill="#666666">[text]</text>
<polygon fill="none" stroke="black" points="603.2,-543 603.2,-573.8 856.88,-573.8 856.88,-543 603.2,-543"/>
<text text-anchor="start" x="610.2" y="-555.2" font-family="Arial" font-size="14.00">tile_id </text>
<text text-anchor="start" x="650.67" y="-555.2" font-family="Arial" font-size="14.00" fill="#666666">[text]</text>
<polygon fill="none" stroke="black" stroke-width="3" points="601.7,-541.5 601.7,-1103.7 858.38,-1103.7 858.38,-541.5 601.7,-541.5"/>
</g>
<!-- public.prefectures -->
<g id="node6" class="node">
<title>public.prefectures</title>
<polygon fill="#efefef" stroke="none" points="414.08,-351.2 414.08,-386.8 682,-386.8 682,-351.2 414.08,-351.2"/>
<polygon fill="none" stroke="black" points="414.08,-351.2 414.08,-386.8 682,-386.8 682,-351.2 414.08,-351.2"/>
<text text-anchor="start" x="421.08" y="-364.6" font-family="Arial Bold" font-size="18.00">public.prefectures</text>
<text text-anchor="start" x="550.51" y="-364.6" font-family="Arial" font-size="14.00">    </text>
<text text-anchor="start" x="581.63" y="-364.6" font-family="Arial" font-size="14.00" fill="#666666">[BASE TABLE]</text>
<polygon fill="none" stroke="black" points="414.08,-320.4 414.08,-351.2 682,-351.2 682,-320.4 414.08,-320.4"/>
<text text-anchor="start" x="421.08" y="-332.6" font-family="Arial" font-size="14.00">id </text>
<text text-anchor="start" x="435.86" y="-332.6" font-family="Arial" font-size="14.00" fill="#666666">[text]</text>
<polygon fill="none" stroke="black" points="414.08,-289.6 414.08,-320.4 682,-320.4 682,-289.6 414.08,-289.6"/>
<text text-anchor="start" x="421.08" y="-301.8" font-family="Arial" font-size="14.00">name </text>
<text text-anchor="start" x="459.99" y="-301.8" font-family="Arial" font-size="14.00" fill="#666666">[text]</text>
<polygon fill="none" stroke="black" points="414.08,-258.8 414.08,-289.6 682,-289.6 682,-258.8 414.08,-258.8"/>
<text text-anchor="start" x="421.08" y="-271" font-family="Arial" font-size="14.00">name_kana </text>
<text text-anchor="start" x="498.13" y="-271" font-family="Arial" font-size="14.00" fill="#666666">[text]</text>
<polygon fill="none" stroke="black" points="414.08,-228 414.08,-258.8 682,-258.8 682,-228 414.08,-228"/>
<text text-anchor="start" x="421.08" y="-240.2" font-family="Arial" font-size="14.00">region_id </text>
<text text-anchor="start" x="482.57" y="-240.2" font-family="Arial" font-size="14.00" fill="#666666">[text]</text>
<polygon fill="none" stroke="black" points="414.08,-197.2 414.08,-228 682,-228 682,-197.2 414.08,-197.2"/>
<text text-anchor="start" x="421.08" y="-209.4" font-family="Arial" font-size="14.00">created_at </text>
<text text-anchor="start" x="491.13" y="-209.4" font-family="Arial" font-size="14.00" fill="#666666">[timestamp with time zone]</text>
<polygon fill="none" stroke="black" points="414.08,-166.4 414.08,-197.2 682,-197.2 682,-166.4 414.08,-166.4"/>
<text text-anchor="start" x="421.08" y="-178.6" font-family="Arial" font-size="14.00">updated_at </text>
<text text-anchor="start" x="495.04" y="-178.6" font-family="Arial" font-size="14.00" fill="#666666">[timestamp with time zone]</text>
<polygon fill="none" stroke="black" points="414.08,-135.6 414.08,-166.4 682,-166.4 682,-135.6 414.08,-135.6"/>
<text text-anchor="start" x="421.08" y="-147.8" font-family="Arial" font-size="14.00">latitude </text>
<text text-anchor="start" x="470.11" y="-147.8" font-family="Arial" font-size="14.00" fill="#666666">[double precision]</text>
<polygon fill="none" stroke="black" points="414.08,-104.8 414.08,-135.6 682,-135.6 682,-104.8 414.08,-104.8"/>
<text text-anchor="start" x="421.08" y="-117" font-family="Arial" font-size="14.00">longitude </text>
<text text-anchor="start" x="481.79" y="-117" font-family="Arial" font-size="14.00" fill="#666666">[double precision]</text>
<polygon fill="none" stroke="black" points="414.08,-74 414.08,-104.8 682,-104.8 682,-74 414.08,-74"/>
<text text-anchor="start" x="421.08" y="-86.2" font-family="Arial" font-size="14.00">name_translations </text>
<text text-anchor="start" x="539.37" y="-86.2" font-family="Arial" font-size="14.00" fill="#666666">[jsonb]</text>
</g>
<!-- public.machi&#45;&gt;public.prefectures -->
<g id="edge5" class="edge">
<title>public.machi:prefecture_id&#45;&gt;public.prefectures:id</title>
<path fill="none" stroke="black" d="M591.84,-927.74C414.7,-918.48 523.94,-667.37 603.2,-496.8 622.55,-455.16 662.48,-471.56 682,-430 699.8,-392.1 724.87,-335.8 683,-335.8"/>
<polygon fill="black" stroke="black" points="591.87,-927.74 601.75,-932.49 597.2,-927.87 601.53,-927.98 601.53,-927.98 601.53,-927.98 597.2,-927.87 601.98,-923.49 591.87,-927.74"/>
<text text-anchor="start" x="320.68" y="-938" font-family="Arial" font-size="10.00">FOREIGN KEY (prefecture_id) REFERENCES prefectures(id)</text>
</g>
<!-- public.cities -->
<g id="node7" class="node">
<title>public.cities</title>
<polygon fill="#efefef" stroke="none" points="786.2,-382 786.2,-417.6 1039.88,-417.6 1039.88,-382 786.2,-382"/>
<polygon fill="none" stroke="black" points="786.2,-382 786.2,-417.6 1039.88,-417.6 1039.88,-382 786.2,-382"/>
<text text-anchor="start" x="807.06" y="-395.4" font-family="Arial Bold" font-size="18.00">public.cities</text>
<text text-anchor="start" x="894.53" y="-395.4" font-family="Arial" font-size="14.00">    </text>
<text text-anchor="start" x="925.65" y="-395.4" font-family="Arial" font-size="14.00" fill="#666666">[BASE TABLE]</text>
<polygon fill="none" stroke="black" points="786.2,-351.2 786.2,-382 1039.88,-382 1039.88,-351.2 786.2,-351.2"/>
<text text-anchor="start" x="793.2" y="-363.4" font-family="Arial" font-size="14.00">id </text>
<text text-anchor="start" x="807.99" y="-363.4" font-family="Arial" font-size="14.00" fill="#666666">[text]</text>
<polygon fill="none" stroke="black" points="786.2,-320.4 786.2,-351.2 1039.88,-351.2 1039.88,-320.4 786.2,-320.4"/>
<text text-anchor="start" x="793.2" y="-332.6" font-family="Arial" font-size="14.00">prefecture_id </text>
<text text-anchor="start" x="878.81" y="-332.6" font-family="Arial" font-size="14.00" fill="#666666">[text]</text>
<polygon fill="none" stroke="black" points="786.2,-289.6 786.2,-320.4 1039.88,-320.4 1039.88,-289.6 786.2,-289.6"/>
<text text-anchor="start" x="793.2" y="-301.8" font-family="Arial" font-size="14.00">name </text>
<text text-anchor="start" x="832.11" y="-301.8" font-family="Arial" font-size="14.00" fill="#666666">[text]</text>
<polygon fill="none" stroke="black" points="786.2,-258.8 786.2,-289.6 1039.88,-289.6 1039.88,-258.8 786.2,-258.8"/>
<text text-anchor="start" x="793.2" y="-271" font-family="Arial" font-size="14.00">name_kana </text>
<text text-anchor="start" x="870.25" y="-271" font-family="Arial" font-size="14.00" fill="#666666">[text]</text>
<polygon fill="none" stroke="black" points="786.2,-228 786.2,-258.8 1039.88,-258.8 1039.88,-228 786.2,-228"/>
<text text-anchor="start" x="793.2" y="-240.2" font-family="Arial" font-size="14.00">type </text>
<text text-anchor="start" x="823.55" y="-240.2" font-family="Arial" font-size="14.00" fill="#666666">[text]</text>
<polygon fill="none" stroke="black" points="786.2,-197.2 786.2,-228 1039.88,-228 1039.88,-197.2 786.2,-197.2"/>
<text text-anchor="start" x="793.2" y="-209.4" font-family="Arial" font-size="14.00">created_at </text>
<text text-anchor="start" x="863.25" y="-209.4" font-family="Arial" font-size="14.00" fill="#666666">[timestamp with time zone]</text>
<polygon fill="none" stroke="black" points="786.2,-166.4 786.2,-197.2 1039.88,-197.2 1039.88,-166.4 786.2,-166.4"/>
<text text-anchor="start" x="793.2" y="-178.6" font-family="Arial" font-size="14.00">updated_at </text>
<text text-anchor="start" x="867.16" y="-178.6" font-family="Arial" font-size="14.00" fill="#666666">[timestamp with time zone]</text>
<polygon fill="none" stroke="black" points="786.2,-135.6 786.2,-166.4 1039.88,-166.4 1039.88,-135.6 786.2,-135.6"/>
<text text-anchor="start" x="793.2" y="-147.8" font-family="Arial" font-size="14.00">name_translations </text>
<text text-anchor="start" x="911.49" y="-147.8" font-family="Arial" font-size="14.00" fill="#666666">[jsonb]</text>
<polygon fill="none" stroke="black" points="786.2,-104.8 786.2,-135.6 1039.88,-135.6 1039.88,-104.8 786.2,-104.8"/>
<text text-anchor="start" x="793.2" y="-117" font-family="Arial" font-size="14.00">latitude </text>
<text text-anchor="start" x="842.23" y="-117" font-family="Arial" font-size="14.00" fill="#666666">[double precision]</text>
<polygon fill="none" stroke="black" points="786.2,-74 786.2,-104.8 1039.88,-104.8 1039.88,-74 786.2,-74"/>
<text text-anchor="start" x="793.2" y="-86.2" font-family="Arial" font-size="14.00">longitude </text>
<text text-anchor="start" x="853.92" y="-86.2" font-family="Arial" font-size="14.00" fill="#666666">[double precision]</text>
<polygon fill="none" stroke="black" points="786.2,-43.2 786.2,-74 1039.88,-74 1039.88,-43.2 786.2,-43.2"/>
<text text-anchor="start" x="793.2" y="-55.4" font-family="Arial" font-size="14.00">tile_id </text>
<text text-anchor="start" x="833.67" y="-55.4" font-family="Arial" font-size="14.00" fill="#666666">[text]</text>
</g>
<!-- public.machi&#45;&gt;public.cities -->
<g id="edge6" class="edge">
<title>public.machi:city_id&#45;&gt;public.cities:id</title>
<path fill="none" stroke="black" d="M868.01,-896.92C1032.48,-887.52 948.24,-645.45 856.88,-496.8 838.42,-466.77 804.78,-490.76 786.2,-460.8 764.13,-425.22 743.33,-366.6 785.2,-366.6"/>
<polygon fill="black" stroke="black" points="868.21,-896.91 858.09,-892.69 862.88,-897.06 858.55,-897.18 858.55,-897.18 858.55,-897.18 862.88,-897.06 858.34,-901.69 868.21,-896.91"/>
<text text-anchor="start" x="864.88" y="-907.2" font-family="Arial" font-size="10.00">FOREIGN KEY (city_id) REFERENCES cities(id)</text>
</g>
<!-- public.visits -->
<g id="node2" class="node">
<title>public.visits</title>
<polygon fill="#efefef" stroke="none" points="43.2,-1735.8 43.2,-1771.4 296.88,-1771.4 296.88,-1735.8 43.2,-1735.8"/>
<polygon fill="none" stroke="black" points="43.2,-1735.8 43.2,-1771.4 296.88,-1771.4 296.88,-1735.8 43.2,-1735.8"/>
<text text-anchor="start" x="64.04" y="-1749.2" font-family="Arial Bold" font-size="18.00">public.visits</text>
<text text-anchor="start" x="151.55" y="-1749.2" font-family="Arial" font-size="14.00">    </text>
<text text-anchor="start" x="182.67" y="-1749.2" font-family="Arial" font-size="14.00" fill="#666666">[BASE TABLE]</text>
<polygon fill="none" stroke="black" points="43.2,-1705 43.2,-1735.8 296.88,-1735.8 296.88,-1705 43.2,-1705"/>
<text text-anchor="start" x="50.2" y="-1717.2" font-family="Arial" font-size="14.00">id </text>
<text text-anchor="start" x="64.99" y="-1717.2" font-family="Arial" font-size="14.00" fill="#666666">[uuid]</text>
<polygon fill="none" stroke="black" points="43.2,-1674.2 43.2,-1705 296.88,-1705 296.88,-1674.2 43.2,-1674.2"/>
<text text-anchor="start" x="50.2" y="-1686.4" font-family="Arial" font-size="14.00">user_id </text>
<text text-anchor="start" x="100.01" y="-1686.4" font-family="Arial" font-size="14.00" fill="#666666">[uuid]</text>
<polygon fill="none" stroke="black" points="43.2,-1643.4 43.2,-1674.2 296.88,-1674.2 296.88,-1643.4 43.2,-1643.4"/>
<text text-anchor="start" x="50.2" y="-1655.6" font-family="Arial" font-size="14.00">machi_id </text>
<text text-anchor="start" x="110.12" y="-1655.6" font-family="Arial" font-size="14.00" fill="#666666">[text]</text>
<polygon fill="none" stroke="black" points="43.2,-1612.6 43.2,-1643.4 296.88,-1643.4 296.88,-1612.6 43.2,-1612.6"/>
<text text-anchor="start" x="50.2" y="-1624.8" font-family="Arial" font-size="14.00">visited_at </text>
<text text-anchor="start" x="113.23" y="-1624.8" font-family="Arial" font-size="14.00" fill="#666666">[timestamp with time zone]</text>
<polygon fill="none" stroke="black" points="43.2,-1581.8 43.2,-1612.6 296.88,-1612.6 296.88,-1581.8 43.2,-1581.8"/>
<text text-anchor="start" x="50.2" y="-1594" font-family="Arial" font-size="14.00">created_at </text>
<text text-anchor="start" x="120.25" y="-1594" font-family="Arial" font-size="14.00" fill="#666666">[timestamp with time zone]</text>
<polygon fill="none" stroke="black" points="43.2,-1551 43.2,-1581.8 296.88,-1581.8 296.88,-1551 43.2,-1551"/>
<text text-anchor="start" x="50.2" y="-1563.2" font-family="Arial" font-size="14.00">updated_at </text>
<text text-anchor="start" x="124.16" y="-1563.2" font-family="Arial" font-size="14.00" fill="#666666">[timestamp with time zone]</text>
</g>
<!-- public.visits&#45;&gt;public.machi -->
<g id="edge1" class="edge">
<title>public.visits:machi_id&#45;&gt;public.machi:id</title>
<path fill="none" stroke="black" d="M308,-1657.47C396.29,-1632.71 291.48,-1269.1 349.04,-1184.4 420.51,-1079.25 475.06,-1051.2 602.2,-1051.2"/>
<polygon fill="black" stroke="black" points="308.13,-1657.45 297.63,-1654.29 302.84,-1658.15 298.54,-1658.71 298.54,-1658.71 298.54,-1658.71 302.84,-1658.15 298.8,-1663.22 308.13,-1657.45"/>
<text text-anchor="start" x="304.88" y="-1668.8" font-family="Arial" font-size="10.00">FOREIGN KEY (machi_id) REFERENCES machi(id)</text>
</g>
<!-- public.master_spots -->
<g id="node3" class="node">
<title>public.master_spots</title>
<polygon fill="#efefef" stroke="none" points="401.06,-1889.8 401.06,-1925.4 683.03,-1925.4 683.03,-1889.8 401.06,-1889.8"/>
<polygon fill="none" stroke="black" points="401.06,-1889.8 401.06,-1925.4 683.03,-1925.4 683.03,-1889.8 401.06,-1889.8"/>
<text text-anchor="start" x="408.06" y="-1903.2" font-family="Arial Bold" font-size="18.00">public.master_spots</text>
<text text-anchor="start" x="551.54" y="-1903.2" font-family="Arial" font-size="14.00">    </text>
<text text-anchor="start" x="582.65" y="-1903.2" font-family="Arial" font-size="14.00" fill="#666666">[BASE TABLE]</text>
<polygon fill="none" stroke="black" points="401.06,-1859 401.06,-1889.8 683.03,-1889.8 683.03,-1859 401.06,-1859"/>
<text text-anchor="start" x="408.06" y="-1871.2" font-family="Arial" font-size="14.00">id </text>
<text text-anchor="start" x="422.84" y="-1871.2" font-family="Arial" font-size="14.00" fill="#666666">[uuid]</text>
<polygon fill="none" stroke="black" points="401.06,-1828.2 401.06,-1859 683.03,-1859 683.03,-1828.2 401.06,-1828.2"/>
<text text-anchor="start" x="408.06" y="-1840.4" font-family="Arial" font-size="14.00">name </text>
<text text-anchor="start" x="446.97" y="-1840.4" font-family="Arial" font-size="14.00" fill="#666666">[text]</text>
<polygon fill="none" stroke="black" points="401.06,-1797.4 401.06,-1828.2 683.03,-1828.2 683.03,-1797.4 401.06,-1797.4"/>
<text text-anchor="start" x="408.06" y="-1809.6" font-family="Arial" font-size="14.00">latitude </text>
<text text-anchor="start" x="457.09" y="-1809.6" font-family="Arial" font-size="14.00" fill="#666666">[double precision]</text>
<polygon fill="none" stroke="black" points="401.06,-1766.6 401.06,-1797.4 683.03,-1797.4 683.03,-1766.6 401.06,-1766.6"/>
<text text-anchor="start" x="408.06" y="-1778.8" font-family="Arial" font-size="14.00">longitude </text>
<text text-anchor="start" x="468.77" y="-1778.8" font-family="Arial" font-size="14.00" fill="#666666">[double precision]</text>
<polygon fill="none" stroke="black" points="401.06,-1735.8 401.06,-1766.6 683.03,-1766.6 683.03,-1735.8 401.06,-1735.8"/>
<text text-anchor="start" x="408.06" y="-1748" font-family="Arial" font-size="14.00">google_place_id </text>
<text text-anchor="start" x="513.92" y="-1748" font-family="Arial" font-size="14.00" fill="#666666">[text]</text>
<polygon fill="none" stroke="black" points="401.06,-1705 401.06,-1735.8 683.03,-1735.8 683.03,-1705 401.06,-1705"/>
<text text-anchor="start" x="408.06" y="-1717.2" font-family="Arial" font-size="14.00">google_formatted_address </text>
<text text-anchor="start" x="578.5" y="-1717.2" font-family="Arial" font-size="14.00" fill="#666666">[text]</text>
<polygon fill="none" stroke="black" points="401.06,-1674.2 401.06,-1705 683.03,-1705 683.03,-1674.2 401.06,-1674.2"/>
<text text-anchor="start" x="408.06" y="-1686.4" font-family="Arial" font-size="14.00">google_types </text>
<text text-anchor="start" x="495.23" y="-1686.4" font-family="Arial" font-size="14.00" fill="#666666">[text[]]</text>
<polygon fill="none" stroke="black" points="401.06,-1643.4 401.06,-1674.2 683.03,-1674.2 683.03,-1643.4 401.06,-1643.4"/>
<text text-anchor="start" x="408.06" y="-1655.6" font-family="Arial" font-size="14.00">google_phone_number </text>
<text text-anchor="start" x="555.96" y="-1655.6" font-family="Arial" font-size="14.00" fill="#666666">[text]</text>
<polygon fill="none" stroke="black" points="401.06,-1612.6 401.06,-1643.4 683.03,-1643.4 683.03,-1612.6 401.06,-1612.6"/>
<text text-anchor="start" x="408.06" y="-1624.8" font-family="Arial" font-size="14.00">google_website_uri </text>
<text text-anchor="start" x="532.59" y="-1624.8" font-family="Arial" font-size="14.00" fill="#666666">[text]</text>
<polygon fill="none" stroke="black" points="401.06,-1581.8 401.06,-1612.6 683.03,-1612.6 683.03,-1581.8 401.06,-1581.8"/>
<text text-anchor="start" x="408.06" y="-1594" font-family="Arial" font-size="14.00">google_rating </text>
<text text-anchor="start" x="496.79" y="-1594" font-family="Arial" font-size="14.00" fill="#666666">[double precision]</text>
<polygon fill="none" stroke="black" points="401.06,-1551 401.06,-1581.8 683.03,-1581.8 683.03,-1551 401.06,-1551"/>
<text text-anchor="start" x="408.06" y="-1563.2" font-family="Arial" font-size="14.00">google_user_rating_count </text>
<text text-anchor="start" x="573.85" y="-1563.2" font-family="Arial" font-size="14.00" fill="#666666">[integer]</text>
<polygon fill="none" stroke="black" points="401.06,-1520.2 401.06,-1551 683.03,-1551 683.03,-1520.2 401.06,-1520.2"/>
<text text-anchor="start" x="408.06" y="-1532.4" font-family="Arial" font-size="14.00">created_at </text>
<text text-anchor="start" x="478.1" y="-1532.4" font-family="Arial" font-size="14.00" fill="#666666">[timestamp with time zone]</text>
<polygon fill="none" stroke="black" points="401.06,-1489.4 401.06,-1520.2 683.03,-1520.2 683.03,-1489.4 401.06,-1489.4"/>
<text text-anchor="start" x="408.06" y="-1501.6" font-family="Arial" font-size="14.00">updated_at </text>
<text text-anchor="start" x="482.01" y="-1501.6" font-family="Arial" font-size="14.00" fill="#666666">[timestamp with time zone]</text>
<polygon fill="none" stroke="black" points="401.06,-1458.6 401.06,-1489.4 683.03,-1489.4 683.03,-1458.6 401.06,-1458.6"/>
<text text-anchor="start" x="408.06" y="-1470.8" font-family="Arial" font-size="14.00">machi_id </text>
<text text-anchor="start" x="467.97" y="-1470.8" font-family="Arial" font-size="14.00" fill="#666666">[text]</text>
<polygon fill="none" stroke="black" points="401.06,-1427.8 401.06,-1458.6 683.03,-1458.6 683.03,-1427.8 401.06,-1427.8"/>
<text text-anchor="start" x="408.06" y="-1440" font-family="Arial" font-size="14.00">google_short_address </text>
<text text-anchor="start" x="550.49" y="-1440" font-family="Arial" font-size="14.00" fill="#666666">[text]</text>
<polygon fill="none" stroke="black" points="401.06,-1397 401.06,-1427.8 683.03,-1427.8 683.03,-1397 401.06,-1397"/>
<text text-anchor="start" x="408.06" y="-1409.2" font-family="Arial" font-size="14.00">favorites_count </text>
<text text-anchor="start" x="506.89" y="-1409.2" font-family="Arial" font-size="14.00" fill="#666666">[integer]</text>
</g>
<!-- public.master_spots&#45;&gt;public.machi -->
<g id="edge2" class="edge">
<title>public.master_spots:machi_id&#45;&gt;public.machi:id</title>
<path fill="none" stroke="black" d="M694.01,-1473.57C858.41,-1458.46 414.35,-1051.2 602.2,-1051.2"/>
<polygon fill="black" stroke="black" points="694.35,-1473.55 684.17,-1469.49 689.02,-1473.78 684.69,-1473.97 684.69,-1473.97 684.69,-1473.97 689.02,-1473.78 684.55,-1478.48 694.35,-1473.55"/>
<text text-anchor="start" x="334.17" y="-1484" font-family="Arial" font-size="10.00">FOREIGN KEY (machi_id) REFERENCES machi(id) ON DELETE SET NULL</text>
</g>
<!-- public.user_spots -->
<g id="node4" class="node">
<title>public.user_spots</title>
<polygon fill="#efefef" stroke="none" points="787.05,-2059.2 787.05,-2094.8 1051.03,-2094.8 1051.03,-2059.2 787.05,-2059.2"/>
<polygon fill="none" stroke="black" points="787.05,-2059.2 787.05,-2094.8 1051.03,-2094.8 1051.03,-2059.2 787.05,-2059.2"/>
<text text-anchor="start" x="794.05" y="-2072.6" font-family="Arial Bold" font-size="18.00">public.user_spots</text>
<text text-anchor="start" x="919.54" y="-2072.6" font-family="Arial" font-size="14.00">    </text>
<text text-anchor="start" x="950.66" y="-2072.6" font-family="Arial" font-size="14.00" fill="#666666">[BASE TABLE]</text>
<polygon fill="none" stroke="black" points="787.05,-2028.4 787.05,-2059.2 1051.03,-2059.2 1051.03,-2028.4 787.05,-2028.4"/>
<text text-anchor="start" x="794.05" y="-2040.6" font-family="Arial" font-size="14.00">id </text>
<text text-anchor="start" x="808.84" y="-2040.6" font-family="Arial" font-size="14.00" fill="#666666">[uuid]</text>
<polygon fill="none" stroke="black" points="787.05,-1997.6 787.05,-2028.4 1051.03,-2028.4 1051.03,-1997.6 787.05,-1997.6"/>
<text text-anchor="start" x="794.05" y="-2009.8" font-family="Arial" font-size="14.00">user_id </text>
<text text-anchor="start" x="843.86" y="-2009.8" font-family="Arial" font-size="14.00" fill="#666666">[uuid]</text>
<polygon fill="none" stroke="black" points="787.05,-1966.8 787.05,-1997.6 1051.03,-1997.6 1051.03,-1966.8 787.05,-1966.8"/>
<text text-anchor="start" x="794.05" y="-1979" font-family="Arial" font-size="14.00">map_id </text>
<text text-anchor="start" x="843.86" y="-1979" font-family="Arial" font-size="14.00" fill="#666666">[uuid]</text>
<polygon fill="none" stroke="black" points="787.05,-1936 787.05,-1966.8 1051.03,-1966.8 1051.03,-1936 787.05,-1936"/>
<text text-anchor="start" x="794.05" y="-1948.2" font-family="Arial" font-size="14.00">master_spot_id </text>
<text text-anchor="start" x="893.66" y="-1948.2" font-family="Arial" font-size="14.00" fill="#666666">[uuid]</text>
<polygon fill="none" stroke="black" points="787.05,-1905.2 787.05,-1936 1051.03,-1936 1051.03,-1905.2 787.05,-1905.2"/>
<text text-anchor="start" x="794.05" y="-1917.4" font-family="Arial" font-size="14.00">machi_id </text>
<text text-anchor="start" x="853.97" y="-1917.4" font-family="Arial" font-size="14.00" fill="#666666">[text]</text>
<polygon fill="none" stroke="black" points="787.05,-1874.4 787.05,-1905.2 1051.03,-1905.2 1051.03,-1874.4 787.05,-1874.4"/>
<text text-anchor="start" x="794.05" y="-1886.6" font-family="Arial" font-size="14.00">custom_name </text>
<text text-anchor="start" x="885.87" y="-1886.6" font-family="Arial" font-size="14.00" fill="#666666">[text]</text>
<polygon fill="none" stroke="black" points="787.05,-1843.6 787.05,-1874.4 1051.03,-1874.4 1051.03,-1843.6 787.05,-1843.6"/>
<text text-anchor="start" x="794.05" y="-1855.8" font-family="Arial" font-size="14.00">description </text>
<text text-anchor="start" x="865.64" y="-1855.8" font-family="Arial" font-size="14.00" fill="#666666">[text]</text>
<polygon fill="none" stroke="black" points="787.05,-1812.8 787.05,-1843.6 1051.03,-1843.6 1051.03,-1812.8 787.05,-1812.8"/>
<text text-anchor="start" x="794.05" y="-1825" font-family="Arial" font-size="14.00">images_count </text>
<text text-anchor="start" x="885.11" y="-1825" font-family="Arial" font-size="14.00" fill="#666666">[integer]</text>
<polygon fill="none" stroke="black" points="787.05,-1782 787.05,-1812.8 1051.03,-1812.8 1051.03,-1782 787.05,-1782"/>
<text text-anchor="start" x="794.05" y="-1794.2" font-family="Arial" font-size="14.00">likes_count </text>
<text text-anchor="start" x="867.98" y="-1794.2" font-family="Arial" font-size="14.00" fill="#666666">[integer]</text>
<polygon fill="none" stroke="black" points="787.05,-1751.2 787.05,-1782 1051.03,-1782 1051.03,-1751.2 787.05,-1751.2"/>
<text text-anchor="start" x="794.05" y="-1763.4" font-family="Arial" font-size="14.00">comments_count </text>
<text text-anchor="start" x="904.55" y="-1763.4" font-family="Arial" font-size="14.00" fill="#666666">[integer]</text>
<polygon fill="none" stroke="black" points="787.05,-1720.4 787.05,-1751.2 1051.03,-1751.2 1051.03,-1720.4 787.05,-1720.4"/>
<text text-anchor="start" x="794.05" y="-1732.6" font-family="Arial" font-size="14.00">order_index </text>
<text text-anchor="start" x="871.88" y="-1732.6" font-family="Arial" font-size="14.00" fill="#666666">[integer]</text>
<polygon fill="none" stroke="black" points="787.05,-1689.6 787.05,-1720.4 1051.03,-1720.4 1051.03,-1689.6 787.05,-1689.6"/>
<text text-anchor="start" x="794.05" y="-1701.8" font-family="Arial" font-size="14.00">created_at </text>
<text text-anchor="start" x="864.1" y="-1701.8" font-family="Arial" font-size="14.00" fill="#666666">[timestamp with time zone]</text>
<polygon fill="none" stroke="black" points="787.05,-1658.8 787.05,-1689.6 1051.03,-1689.6 1051.03,-1658.8 787.05,-1658.8"/>
<text text-anchor="start" x="794.05" y="-1671" font-family="Arial" font-size="14.00">updated_at </text>
<text text-anchor="start" x="868.01" y="-1671" font-family="Arial" font-size="14.00" fill="#666666">[timestamp with time zone]</text>
<polygon fill="none" stroke="black" points="787.05,-1628 787.05,-1658.8 1051.03,-1658.8 1051.03,-1628 787.05,-1628"/>
<text text-anchor="start" x="794.05" y="-1640.2" font-family="Arial" font-size="14.00">article_content </text>
<text text-anchor="start" x="889" y="-1640.2" font-family="Arial" font-size="14.00" fill="#666666">[jsonb]</text>
<polygon fill="none" stroke="black" points="787.05,-1597.2 787.05,-1628 1051.03,-1628 1051.03,-1597.2 787.05,-1597.2"/>
<text text-anchor="start" x="794.05" y="-1609.4" font-family="Arial" font-size="14.00">latitude </text>
<text text-anchor="start" x="843.09" y="-1609.4" font-family="Arial" font-size="14.00" fill="#666666">[double precision]</text>
<polygon fill="none" stroke="black" points="787.05,-1566.4 787.05,-1597.2 1051.03,-1597.2 1051.03,-1566.4 787.05,-1566.4"/>
<text text-anchor="start" x="794.05" y="-1578.6" font-family="Arial" font-size="14.00">longitude </text>
<text text-anchor="start" x="854.77" y="-1578.6" font-family="Arial" font-size="14.00" fill="#666666">[double precision]</text>
<polygon fill="none" stroke="black" points="787.05,-1535.6 787.05,-1566.4 1051.03,-1566.4 1051.03,-1535.6 787.05,-1535.6"/>
<text text-anchor="start" x="794.05" y="-1547.8" font-family="Arial" font-size="14.00">google_formatted_address </text>
<text text-anchor="start" x="964.5" y="-1547.8" font-family="Arial" font-size="14.00" fill="#666666">[text]</text>
<polygon fill="none" stroke="black" points="787.05,-1504.8 787.05,-1535.6 1051.03,-1535.6 1051.03,-1504.8 787.05,-1504.8"/>
<text text-anchor="start" x="794.05" y="-1517" font-family="Arial" font-size="14.00">google_short_address </text>
<text text-anchor="start" x="936.48" y="-1517" font-family="Arial" font-size="14.00" fill="#666666">[text]</text>
<polygon fill="none" stroke="black" points="787.05,-1474 787.05,-1504.8 1051.03,-1504.8 1051.03,-1474 787.05,-1474"/>
<text text-anchor="start" x="794.05" y="-1486.2" font-family="Arial" font-size="14.00">bookmarks_count </text>
<text text-anchor="start" x="908.44" y="-1486.2" font-family="Arial" font-size="14.00" fill="#666666">[integer]</text>
<polygon fill="none" stroke="black" points="787.05,-1443.2 787.05,-1474 1051.03,-1474 1051.03,-1443.2 787.05,-1443.2"/>
<text text-anchor="start" x="794.05" y="-1455.4" font-family="Arial" font-size="14.00">prefecture_id </text>
<text text-anchor="start" x="879.66" y="-1455.4" font-family="Arial" font-size="14.00" fill="#666666">[text]</text>
<polygon fill="none" stroke="black" points="787.05,-1412.4 787.05,-1443.2 1051.03,-1443.2 1051.03,-1412.4 787.05,-1412.4"/>
<text text-anchor="start" x="794.05" y="-1424.6" font-family="Arial" font-size="14.00">color </text>
<text text-anchor="start" x="828.29" y="-1424.6" font-family="Arial" font-size="14.00" fill="#666666">[text]</text>
<polygon fill="none" stroke="black" points="787.05,-1381.6 787.05,-1412.4 1051.03,-1412.4 1051.03,-1381.6 787.05,-1381.6"/>
<text text-anchor="start" x="794.05" y="-1393.8" font-family="Arial" font-size="14.00">spot_color </text>
<text text-anchor="start" x="862.53" y="-1393.8" font-family="Arial" font-size="14.00" fill="#666666">[text]</text>
<polygon fill="none" stroke="black" points="787.05,-1350.8 787.05,-1381.6 1051.03,-1381.6 1051.03,-1350.8 787.05,-1350.8"/>
<text text-anchor="start" x="794.05" y="-1363" font-family="Arial" font-size="14.00">label_id </text>
<text text-anchor="start" x="846.2" y="-1363" font-family="Arial" font-size="14.00" fill="#666666">[uuid]</text>
<polygon fill="none" stroke="black" points="787.05,-1320 787.05,-1350.8 1051.03,-1350.8 1051.03,-1320 787.05,-1320"/>
<text text-anchor="start" x="794.05" y="-1332.2" font-family="Arial" font-size="14.00">city_id </text>
<text text-anchor="start" x="837.62" y="-1332.2" font-family="Arial" font-size="14.00" fill="#666666">[text]</text>
<polygon fill="none" stroke="black" points="787.05,-1289.2 787.05,-1320 1051.03,-1320 1051.03,-1289.2 787.05,-1289.2"/>
<text text-anchor="start" x="794.05" y="-1301.4" font-family="Arial" font-size="14.00">prefecture_name </text>
<text text-anchor="start" x="903.78" y="-1301.4" font-family="Arial" font-size="14.00" fill="#666666">[text]</text>
<polygon fill="none" stroke="black" points="787.05,-1258.4 787.05,-1289.2 1051.03,-1289.2 1051.03,-1258.4 787.05,-1258.4"/>
<text text-anchor="start" x="794.05" y="-1270.6" font-family="Arial" font-size="14.00">city_name </text>
<text text-anchor="start" x="861.75" y="-1270.6" font-family="Arial" font-size="14.00" fill="#666666">[text]</text>
<polygon fill="none" stroke="black" points="787.05,-1227.6 787.05,-1258.4 1051.03,-1258.4 1051.03,-1227.6 787.05,-1227.6"/>
<text text-anchor="start" x="794.05" y="-1239.8" font-family="Arial" font-size="14.00">machi_name </text>
<text text-anchor="start" x="878.09" y="-1239.8" font-family="Arial" font-size="14.00" fill="#666666">[text]</text>
</g>
<!-- public.user_spots&#45;&gt;public.machi -->
<g id="edge3" class="edge">
<title>public.user_spots:machi_id&#45;&gt;public.machi:id</title>
<path fill="none" stroke="black" d="M776.59,-1917.32C707.55,-1866.94 746.18,-1251.35 787.05,-1184.4 805.24,-1154.6 838.56,-1178.12 856.88,-1148.4 879.56,-1111.63 901.08,-1051.2 857.88,-1051.2"/>
<polygon fill="black" stroke="black" points="776.29,-1917.22 784.26,-1924.74 781.33,-1918.96 785.42,-1920.38 785.42,-1920.38 785.42,-1920.38 781.33,-1918.96 787.21,-1916.24 776.29,-1917.22"/>
<text text-anchor="start" x="793.05" y="-1930.6" font-family="Arial" font-size="10.00">FOREIGN KEY (machi_id) REFERENCES machi(id) ON DELETE SET NULL</text>
</g>
<!-- public.schedules -->
<g id="node5" class="node">
<title>public.schedules</title>
<polygon fill="#efefef" stroke="none" points="1155.21,-1797.4 1155.21,-1833 1422.87,-1833 1422.87,-1797.4 1155.21,-1797.4"/>
<polygon fill="none" stroke="black" points="1155.21,-1797.4 1155.21,-1833 1422.87,-1833 1422.87,-1797.4 1155.21,-1797.4"/>
<text text-anchor="start" x="1167.06" y="-1810.8" font-family="Arial Bold" font-size="18.00">public.schedules</text>
<text text-anchor="start" x="1286.53" y="-1810.8" font-family="Arial" font-size="14.00">    </text>
<text text-anchor="start" x="1317.65" y="-1810.8" font-family="Arial" font-size="14.00" fill="#666666">[BASE TABLE]</text>
<polygon fill="none" stroke="black" points="1155.21,-1766.6 1155.21,-1797.4 1422.87,-1797.4 1422.87,-1766.6 1155.21,-1766.6"/>
<text text-anchor="start" x="1162.21" y="-1778.8" font-family="Arial" font-size="14.00">id </text>
<text text-anchor="start" x="1176.99" y="-1778.8" font-family="Arial" font-size="14.00" fill="#666666">[uuid]</text>
<polygon fill="none" stroke="black" points="1155.21,-1735.8 1155.21,-1766.6 1422.87,-1766.6 1422.87,-1735.8 1155.21,-1735.8"/>
<text text-anchor="start" x="1162.21" y="-1748" font-family="Arial" font-size="14.00">user_id </text>
<text text-anchor="start" x="1212.01" y="-1748" font-family="Arial" font-size="14.00" fill="#666666">[uuid]</text>
<polygon fill="none" stroke="black" points="1155.21,-1705 1155.21,-1735.8 1422.87,-1735.8 1422.87,-1705 1155.21,-1705"/>
<text text-anchor="start" x="1162.21" y="-1717.2" font-family="Arial" font-size="14.00">machi_id </text>
<text text-anchor="start" x="1222.12" y="-1717.2" font-family="Arial" font-size="14.00" fill="#666666">[text]</text>
<polygon fill="none" stroke="black" points="1155.21,-1674.2 1155.21,-1705 1422.87,-1705 1422.87,-1674.2 1155.21,-1674.2"/>
<text text-anchor="start" x="1162.21" y="-1686.4" font-family="Arial" font-size="14.00">scheduled_at </text>
<text text-anchor="start" x="1249.39" y="-1686.4" font-family="Arial" font-size="14.00" fill="#666666">[timestamp with time zone]</text>
<polygon fill="none" stroke="black" points="1155.21,-1643.4 1155.21,-1674.2 1422.87,-1674.2 1422.87,-1643.4 1155.21,-1643.4"/>
<text text-anchor="start" x="1162.21" y="-1655.6" font-family="Arial" font-size="14.00">title </text>
<text text-anchor="start" x="1187.88" y="-1655.6" font-family="Arial" font-size="14.00" fill="#666666">[text]</text>
<polygon fill="none" stroke="black" points="1155.21,-1612.6 1155.21,-1643.4 1422.87,-1643.4 1422.87,-1612.6 1155.21,-1612.6"/>
<text text-anchor="start" x="1162.21" y="-1624.8" font-family="Arial" font-size="14.00">memo </text>
<text text-anchor="start" x="1204.99" y="-1624.8" font-family="Arial" font-size="14.00" fill="#666666">[text]</text>
<polygon fill="none" stroke="black" points="1155.21,-1581.8 1155.21,-1612.6 1422.87,-1612.6 1422.87,-1581.8 1155.21,-1581.8"/>
<text text-anchor="start" x="1162.21" y="-1594" font-family="Arial" font-size="14.00">is_completed </text>
<text text-anchor="start" x="1248.59" y="-1594" font-family="Arial" font-size="14.00" fill="#666666">[boolean]</text>
<polygon fill="none" stroke="black" points="1155.21,-1551 1155.21,-1581.8 1422.87,-1581.8 1422.87,-1551 1155.21,-1551"/>
<text text-anchor="start" x="1162.21" y="-1563.2" font-family="Arial" font-size="14.00">completed_at </text>
<text text-anchor="start" x="1250.15" y="-1563.2" font-family="Arial" font-size="14.00" fill="#666666">[timestamp with time zone]</text>
<polygon fill="none" stroke="black" points="1155.21,-1520.2 1155.21,-1551 1422.87,-1551 1422.87,-1520.2 1155.21,-1520.2"/>
<text text-anchor="start" x="1162.21" y="-1532.4" font-family="Arial" font-size="14.00">created_at </text>
<text text-anchor="start" x="1232.25" y="-1532.4" font-family="Arial" font-size="14.00" fill="#666666">[timestamp with time zone]</text>
<polygon fill="none" stroke="black" points="1155.21,-1489.4 1155.21,-1520.2 1422.87,-1520.2 1422.87,-1489.4 1155.21,-1489.4"/>
<text text-anchor="start" x="1162.21" y="-1501.6" font-family="Arial" font-size="14.00">updated_at </text>
<text text-anchor="start" x="1236.16" y="-1501.6" font-family="Arial" font-size="14.00" fill="#666666">[timestamp with time zone]</text>
</g>
<!-- public.schedules&#45;&gt;public.machi -->
<g id="edge4" class="edge">
<title>public.schedules:machi_id&#45;&gt;public.machi:id</title>
<path fill="none" stroke="black" d="M1144.99,-1715.89C1098.86,-1666.73 1134.16,-1231.48 1103.04,-1184.4 1034.66,-1080.96 981.89,-1051.2 857.88,-1051.2"/>
<polygon fill="black" stroke="black" points="1144.92,-1715.86 1151.93,-1724.3 1149.72,-1718.2 1153.61,-1720.11 1153.61,-1720.11 1153.61,-1720.11 1149.72,-1718.2 1155.88,-1716.21 1144.92,-1715.86"/>
<text text-anchor="start" x="1161.21" y="-1730.4" font-family="Arial" font-size="10.00">FOREIGN KEY (machi_id) REFERENCES machi(id) ON DELETE CASCADE</text>
</g>
</g>
</svg>
