<?xml version="1.0" encoding="UTF-8" standalone="no"?>
<!DOCTYPE svg PUBLIC "-//W3C//DTD SVG 1.1//EN"
 "http://www.w3.org/Graphics/SVG/1.1/DTD/svg11.dtd">
<!-- Generated by graphviz version 12.1.2 (20240928.0832)
 -->
<!-- Title: public.bookmarks Pages: 1 -->
<svg width="1578pt" height="1310pt"
 viewBox="0.00 0.00 1578.30 1310.40" xmlns="http://www.w3.org/2000/svg" xmlns:xlink="http://www.w3.org/1999/xlink">
<g id="graph0" class="graph" transform="scale(1 1) rotate(0) translate(4 1306.4)">
<title>public.bookmarks</title>
<polygon fill="white" stroke="none" points="-4,4 -4,-1306.4 1574.3,-1306.4 1574.3,4 -4,4"/>
<!-- public.bookmarks -->
<g id="node1" class="node">
<title>public.bookmarks</title>
<polygon fill="#efefef" stroke="none" points="655.15,-1220.6 655.15,-1256.2 923.12,-1256.2 923.12,-1220.6 655.15,-1220.6"/>
<polygon fill="none" stroke="black" points="655.15,-1220.6 655.15,-1256.2 923.12,-1256.2 923.12,-1220.6 655.15,-1220.6"/>
<text text-anchor="start" x="662.15" y="-1234" font-family="Arial Bold" font-size="18.00">public.bookmarks</text>
<text text-anchor="start" x="791.63" y="-1234" font-family="Arial" font-size="14.00">    </text>
<text text-anchor="start" x="822.74" y="-1234" font-family="Arial" font-size="14.00" fill="#666666">[BASE TABLE]</text>
<polygon fill="none" stroke="black" points="655.15,-1189.8 655.15,-1220.6 923.12,-1220.6 923.12,-1189.8 655.15,-1189.8"/>
<text text-anchor="start" x="662.15" y="-1202" font-family="Arial" font-size="14.00">id </text>
<text text-anchor="start" x="676.93" y="-1202" font-family="Arial" font-size="14.00" fill="#666666">[uuid]</text>
<polygon fill="none" stroke="black" points="655.15,-1159 655.15,-1189.8 923.12,-1189.8 923.12,-1159 655.15,-1159"/>
<text text-anchor="start" x="662.15" y="-1171.2" font-family="Arial" font-size="14.00">user_id </text>
<text text-anchor="start" x="711.95" y="-1171.2" font-family="Arial" font-size="14.00" fill="#666666">[uuid]</text>
<polygon fill="none" stroke="black" points="655.15,-1128.2 655.15,-1159 923.12,-1159 923.12,-1128.2 655.15,-1128.2"/>
<text text-anchor="start" x="662.15" y="-1140.4" font-family="Arial" font-size="14.00">map_id </text>
<text text-anchor="start" x="711.95" y="-1140.4" font-family="Arial" font-size="14.00" fill="#666666">[uuid]</text>
<polygon fill="none" stroke="black" points="655.15,-1097.4 655.15,-1128.2 923.12,-1128.2 923.12,-1097.4 655.15,-1097.4"/>
<text text-anchor="start" x="662.15" y="-1109.6" font-family="Arial" font-size="14.00">user_spot_id </text>
<text text-anchor="start" x="746.2" y="-1109.6" font-family="Arial" font-size="14.00" fill="#666666">[uuid]</text>
<polygon fill="none" stroke="black" points="655.15,-1066.6 655.15,-1097.4 923.12,-1097.4 923.12,-1066.6 655.15,-1066.6"/>
<text text-anchor="start" x="662.15" y="-1078.8" font-family="Arial" font-size="14.00">created_at </text>
<text text-anchor="start" x="732.19" y="-1078.8" font-family="Arial" font-size="14.00" fill="#666666">[timestamp with time zone]</text>
<polygon fill="none" stroke="black" points="655.15,-1035.8 655.15,-1066.6 923.12,-1066.6 923.12,-1035.8 655.15,-1035.8"/>
<text text-anchor="start" x="662.15" y="-1048" font-family="Arial" font-size="14.00">folder_id </text>
<text text-anchor="start" x="719.74" y="-1048" font-family="Arial" font-size="14.00" fill="#666666">[uuid]</text>
<polygon fill="none" stroke="black" stroke-width="3" points="653.65,-1034.3 653.65,-1257.7 924.62,-1257.7 924.62,-1034.3 653.65,-1034.3"/>
</g>
<!-- public.users -->
<g id="node2" class="node">
<title>public.users</title>
<polygon fill="#efefef" stroke="none" points="43.2,-659.2 43.2,-694.8 377.06,-694.8 377.06,-659.2 43.2,-659.2"/>
<polygon fill="none" stroke="black" points="43.2,-659.2 43.2,-694.8 377.06,-694.8 377.06,-659.2 43.2,-659.2"/>
<text text-anchor="start" x="104.64" y="-672.6" font-family="Arial Bold" font-size="18.00">public.users</text>
<text text-anchor="start" x="191.13" y="-672.6" font-family="Arial" font-size="14.00">    </text>
<text text-anchor="start" x="222.24" y="-672.6" font-family="Arial" font-size="14.00" fill="#666666">[BASE TABLE]</text>
<polygon fill="none" stroke="black" points="43.2,-628.4 43.2,-659.2 377.06,-659.2 377.06,-628.4 43.2,-628.4"/>
<text text-anchor="start" x="50.2" y="-640.6" font-family="Arial" font-size="14.00">id </text>
<text text-anchor="start" x="64.99" y="-640.6" font-family="Arial" font-size="14.00" fill="#666666">[uuid]</text>
<polygon fill="none" stroke="black" points="43.2,-597.6 43.2,-628.4 377.06,-628.4 377.06,-597.6 43.2,-597.6"/>
<text text-anchor="start" x="50.2" y="-609.8" font-family="Arial" font-size="14.00">email </text>
<text text-anchor="start" x="87.54" y="-609.8" font-family="Arial" font-size="14.00" fill="#666666">[text]</text>
<polygon fill="none" stroke="black" points="43.2,-566.8 43.2,-597.6 377.06,-597.6 377.06,-566.8 43.2,-566.8"/>
<text text-anchor="start" x="50.2" y="-579" font-family="Arial" font-size="14.00">username </text>
<text text-anchor="start" x="116.34" y="-579" font-family="Arial" font-size="14.00" fill="#666666">[text]</text>
<polygon fill="none" stroke="black" points="43.2,-536 43.2,-566.8 377.06,-566.8 377.06,-536 43.2,-536"/>
<text text-anchor="start" x="50.2" y="-548.2" font-family="Arial" font-size="14.00">display_name </text>
<text text-anchor="start" x="140.48" y="-548.2" font-family="Arial" font-size="14.00" fill="#666666">[text]</text>
<polygon fill="none" stroke="black" points="43.2,-505.2 43.2,-536 377.06,-536 377.06,-505.2 43.2,-505.2"/>
<text text-anchor="start" x="50.2" y="-517.4" font-family="Arial" font-size="14.00">avatar_url </text>
<text text-anchor="start" x="116.34" y="-517.4" font-family="Arial" font-size="14.00" fill="#666666">[text]</text>
<polygon fill="none" stroke="black" points="43.2,-474.4 43.2,-505.2 377.06,-505.2 377.06,-474.4 43.2,-474.4"/>
<text text-anchor="start" x="50.2" y="-486.6" font-family="Arial" font-size="14.00">bio </text>
<text text-anchor="start" x="72.77" y="-486.6" font-family="Arial" font-size="14.00" fill="#666666">[text]</text>
<polygon fill="none" stroke="black" points="43.2,-443.6 43.2,-474.4 377.06,-474.4 377.06,-443.6 43.2,-443.6"/>
<text text-anchor="start" x="50.2" y="-455.8" font-family="Arial" font-size="14.00">is_premium </text>
<text text-anchor="start" x="126.44" y="-455.8" font-family="Arial" font-size="14.00" fill="#666666">[boolean]</text>
<polygon fill="none" stroke="black" points="43.2,-412.8 43.2,-443.6 377.06,-443.6 377.06,-412.8 43.2,-412.8"/>
<text text-anchor="start" x="50.2" y="-425" font-family="Arial" font-size="14.00">premium_started_at </text>
<text text-anchor="start" x="178.59" y="-425" font-family="Arial" font-size="14.00" fill="#666666">[timestamp with time zone]</text>
<polygon fill="none" stroke="black" points="43.2,-382 43.2,-412.8 377.06,-412.8 377.06,-382 43.2,-382"/>
<text text-anchor="start" x="50.2" y="-394.2" font-family="Arial" font-size="14.00">premium_expires_at </text>
<text text-anchor="start" x="180.92" y="-394.2" font-family="Arial" font-size="14.00" fill="#666666">[timestamp with time zone]</text>
<polygon fill="none" stroke="black" points="43.2,-351.2 43.2,-382 377.06,-382 377.06,-351.2 43.2,-351.2"/>
<text text-anchor="start" x="50.2" y="-363.4" font-family="Arial" font-size="14.00">created_at </text>
<text text-anchor="start" x="120.25" y="-363.4" font-family="Arial" font-size="14.00" fill="#666666">[timestamp with time zone]</text>
<polygon fill="none" stroke="black" points="43.2,-320.4 43.2,-351.2 377.06,-351.2 377.06,-320.4 43.2,-320.4"/>
<text text-anchor="start" x="50.2" y="-332.6" font-family="Arial" font-size="14.00">updated_at </text>
<text text-anchor="start" x="124.16" y="-332.6" font-family="Arial" font-size="14.00" fill="#666666">[timestamp with time zone]</text>
<polygon fill="none" stroke="black" points="43.2,-289.6 43.2,-320.4 377.06,-320.4 377.06,-289.6 43.2,-289.6"/>
<text text-anchor="start" x="50.2" y="-301.8" font-family="Arial" font-size="14.00">push_token </text>
<text text-anchor="start" x="126.48" y="-301.8" font-family="Arial" font-size="14.00" fill="#666666">[text]</text>
<polygon fill="none" stroke="black" points="43.2,-258.8 43.2,-289.6 377.06,-289.6 377.06,-258.8 43.2,-258.8"/>
<text text-anchor="start" x="50.2" y="-271" font-family="Arial" font-size="14.00">push_token_updated_at </text>
<text text-anchor="start" x="204.34" y="-271" font-family="Arial" font-size="14.00" fill="#666666">[timestamp with time zone]</text>
</g>
<!-- public.bookmarks&#45;&gt;public.users -->
<g id="edge1" class="edge">
<title>public.bookmarks:user_id&#45;&gt;public.users:id</title>
<path fill="none" stroke="black" d="M644.1,-1174.23C513.01,-1169.67 492.14,-1074.9 429.13,-953.6 396.96,-891.68 447.83,-643.8 378.06,-643.8"/>
<polygon fill="black" stroke="black" points="643.81,-1174.22 653.73,-1178.89 649.15,-1174.31 653.48,-1174.39 653.48,-1174.39 653.48,-1174.39 649.15,-1174.31 653.89,-1169.89 643.81,-1174.22"/>
<text text-anchor="start" x="313.19" y="-1184.4" font-family="Arial" font-size="10.00">FOREIGN KEY (user_id) REFERENCES users(id) ON DELETE CASCADE</text>
</g>
<!-- public.maps -->
<g id="node3" class="node">
<title>public.maps</title>
<polygon fill="#efefef" stroke="none" points="481.29,-736.2 481.29,-771.8 734.97,-771.8 734.97,-736.2 481.29,-736.2"/>
<polygon fill="none" stroke="black" points="481.29,-736.2 481.29,-771.8 734.97,-771.8 734.97,-736.2 481.29,-736.2"/>
<text text-anchor="start" x="502.14" y="-749.6" font-family="Arial Bold" font-size="18.00">public.maps</text>
<text text-anchor="start" x="589.63" y="-749.6" font-family="Arial" font-size="14.00">    </text>
<text text-anchor="start" x="620.75" y="-749.6" font-family="Arial" font-size="14.00" fill="#666666">[BASE TABLE]</text>
<polygon fill="none" stroke="black" points="481.29,-705.4 481.29,-736.2 734.97,-736.2 734.97,-705.4 481.29,-705.4"/>
<text text-anchor="start" x="488.29" y="-717.6" font-family="Arial" font-size="14.00">id </text>
<text text-anchor="start" x="503.08" y="-717.6" font-family="Arial" font-size="14.00" fill="#666666">[uuid]</text>
<polygon fill="none" stroke="black" points="481.29,-674.6 481.29,-705.4 734.97,-705.4 734.97,-674.6 481.29,-674.6"/>
<text text-anchor="start" x="488.29" y="-686.8" font-family="Arial" font-size="14.00">user_id </text>
<text text-anchor="start" x="538.1" y="-686.8" font-family="Arial" font-size="14.00" fill="#666666">[uuid]</text>
<polygon fill="none" stroke="black" points="481.29,-643.8 481.29,-674.6 734.97,-674.6 734.97,-643.8 481.29,-643.8"/>
<text text-anchor="start" x="488.29" y="-656" font-family="Arial" font-size="14.00">name </text>
<text text-anchor="start" x="527.2" y="-656" font-family="Arial" font-size="14.00" fill="#666666">[text]</text>
<polygon fill="none" stroke="black" points="481.29,-613 481.29,-643.8 734.97,-643.8 734.97,-613 481.29,-613"/>
<text text-anchor="start" x="488.29" y="-625.2" font-family="Arial" font-size="14.00">description </text>
<text text-anchor="start" x="559.88" y="-625.2" font-family="Arial" font-size="14.00" fill="#666666">[text]</text>
<polygon fill="none" stroke="black" points="481.29,-582.2 481.29,-613 734.97,-613 734.97,-582.2 481.29,-582.2"/>
<text text-anchor="start" x="488.29" y="-594.4" font-family="Arial" font-size="14.00">is_public </text>
<text text-anchor="start" x="546.65" y="-594.4" font-family="Arial" font-size="14.00" fill="#666666">[boolean]</text>
<polygon fill="none" stroke="black" points="481.29,-551.4 481.29,-582.2 734.97,-582.2 734.97,-551.4 481.29,-551.4"/>
<text text-anchor="start" x="488.29" y="-563.6" font-family="Arial" font-size="14.00">is_official </text>
<text text-anchor="start" x="549.76" y="-563.6" font-family="Arial" font-size="14.00" fill="#666666">[boolean]</text>
<polygon fill="none" stroke="black" points="481.29,-520.6 481.29,-551.4 734.97,-551.4 734.97,-520.6 481.29,-520.6"/>
<text text-anchor="start" x="488.29" y="-532.8" font-family="Arial" font-size="14.00">thumbnail_url </text>
<text text-anchor="start" x="576.23" y="-532.8" font-family="Arial" font-size="14.00" fill="#666666">[text]</text>
<polygon fill="none" stroke="black" points="481.29,-489.8 481.29,-520.6 734.97,-520.6 734.97,-489.8 481.29,-489.8"/>
<text text-anchor="start" x="488.29" y="-502" font-family="Arial" font-size="14.00">spots_count </text>
<text text-anchor="start" x="567.68" y="-502" font-family="Arial" font-size="14.00" fill="#666666">[integer]</text>
<polygon fill="none" stroke="black" points="481.29,-459 481.29,-489.8 734.97,-489.8 734.97,-459 481.29,-459"/>
<text text-anchor="start" x="488.29" y="-471.2" font-family="Arial" font-size="14.00">likes_count </text>
<text text-anchor="start" x="562.22" y="-471.2" font-family="Arial" font-size="14.00" fill="#666666">[integer]</text>
<polygon fill="none" stroke="black" points="481.29,-428.2 481.29,-459 734.97,-459 734.97,-428.2 481.29,-428.2"/>
<text text-anchor="start" x="488.29" y="-440.4" font-family="Arial" font-size="14.00">created_at </text>
<text text-anchor="start" x="558.34" y="-440.4" font-family="Arial" font-size="14.00" fill="#666666">[timestamp with time zone]</text>
<polygon fill="none" stroke="black" points="481.29,-397.4 481.29,-428.2 734.97,-428.2 734.97,-397.4 481.29,-397.4"/>
<text text-anchor="start" x="488.29" y="-409.6" font-family="Arial" font-size="14.00">updated_at </text>
<text text-anchor="start" x="562.25" y="-409.6" font-family="Arial" font-size="14.00" fill="#666666">[timestamp with time zone]</text>
<polygon fill="none" stroke="black" points="481.29,-366.6 481.29,-397.4 734.97,-397.4 734.97,-366.6 481.29,-366.6"/>
<text text-anchor="start" x="488.29" y="-378.8" font-family="Arial" font-size="14.00">comments_count </text>
<text text-anchor="start" x="598.79" y="-378.8" font-family="Arial" font-size="14.00" fill="#666666">[integer]</text>
<polygon fill="none" stroke="black" points="481.29,-335.8 481.29,-366.6 734.97,-366.6 734.97,-335.8 481.29,-335.8"/>
<text text-anchor="start" x="488.29" y="-348" font-family="Arial" font-size="14.00">is_article_public </text>
<text text-anchor="start" x="591.79" y="-348" font-family="Arial" font-size="14.00" fill="#666666">[boolean]</text>
<polygon fill="none" stroke="black" points="481.29,-305 481.29,-335.8 734.97,-335.8 734.97,-305 481.29,-305"/>
<text text-anchor="start" x="488.29" y="-317.2" font-family="Arial" font-size="14.00">bookmarks_count </text>
<text text-anchor="start" x="602.68" y="-317.2" font-family="Arial" font-size="14.00" fill="#666666">[integer]</text>
<polygon fill="none" stroke="black" points="481.29,-274.2 481.29,-305 734.97,-305 734.97,-274.2 481.29,-274.2"/>
<text text-anchor="start" x="488.29" y="-286.4" font-family="Arial" font-size="14.00">category_id </text>
<text text-anchor="start" x="564.56" y="-286.4" font-family="Arial" font-size="14.00" fill="#666666">[text]</text>
<polygon fill="none" stroke="black" points="481.29,-243.4 481.29,-274.2 734.97,-274.2 734.97,-243.4 481.29,-243.4"/>
<text text-anchor="start" x="488.29" y="-255.6" font-family="Arial" font-size="14.00">article_intro </text>
<text text-anchor="start" x="564.54" y="-255.6" font-family="Arial" font-size="14.00" fill="#666666">[jsonb]</text>
<polygon fill="none" stroke="black" points="481.29,-212.6 481.29,-243.4 734.97,-243.4 734.97,-212.6 481.29,-212.6"/>
<text text-anchor="start" x="488.29" y="-224.8" font-family="Arial" font-size="14.00">article_outro </text>
<text text-anchor="start" x="569.22" y="-224.8" font-family="Arial" font-size="14.00" fill="#666666">[jsonb]</text>
<polygon fill="none" stroke="black" points="481.29,-181.8 481.29,-212.6 734.97,-212.6 734.97,-181.8 481.29,-181.8"/>
<text text-anchor="start" x="488.29" y="-194" font-family="Arial" font-size="14.00">show_label_chips </text>
<text text-anchor="start" x="602.7" y="-194" font-family="Arial" font-size="14.00" fill="#666666">[boolean]</text>
</g>
<!-- public.bookmarks&#45;&gt;public.maps -->
<g id="edge2" class="edge">
<title>public.bookmarks:map_id&#45;&gt;public.maps:id</title>
<path fill="none" stroke="black" d="M643.92,-1142.85C547.12,-1127.46 720.41,-880.19 734.97,-815 744.1,-774.14 777.84,-720.8 735.97,-720.8"/>
<polygon fill="black" stroke="black" points="643.84,-1142.84 653.48,-1148.06 649.16,-1143.23 653.48,-1143.55 653.48,-1143.55 653.48,-1143.55 649.16,-1143.23 654.14,-1139.09 643.84,-1142.84"/>
<text text-anchor="start" x="313.19" y="-1153.6" font-family="Arial" font-size="10.00">FOREIGN KEY (map_id) REFERENCES maps(id) ON DELETE CASCADE</text>
</g>
<!-- public.user_spots -->
<g id="node4" class="node">
<title>public.user_spots</title>
<polygon fill="#efefef" stroke="none" points="839.14,-874.8 839.14,-910.4 1103.12,-910.4 1103.12,-874.8 839.14,-874.8"/>
<polygon fill="none" stroke="black" points="839.14,-874.8 839.14,-910.4 1103.12,-910.4 1103.12,-874.8 839.14,-874.8"/>
<text text-anchor="start" x="846.14" y="-888.2" font-family="Arial Bold" font-size="18.00">public.user_spots</text>
<text text-anchor="start" x="971.63" y="-888.2" font-family="Arial" font-size="14.00">    </text>
<text text-anchor="start" x="1002.75" y="-888.2" font-family="Arial" font-size="14.00" fill="#666666">[BASE TABLE]</text>
<polygon fill="none" stroke="black" points="839.14,-844 839.14,-874.8 1103.12,-874.8 1103.12,-844 839.14,-844"/>
<text text-anchor="start" x="846.14" y="-856.2" font-family="Arial" font-size="14.00">id </text>
<text text-anchor="start" x="860.93" y="-856.2" font-family="Arial" font-size="14.00" fill="#666666">[uuid]</text>
<polygon fill="none" stroke="black" points="839.14,-813.2 839.14,-844 1103.12,-844 1103.12,-813.2 839.14,-813.2"/>
<text text-anchor="start" x="846.14" y="-825.4" font-family="Arial" font-size="14.00">user_id </text>
<text text-anchor="start" x="895.95" y="-825.4" font-family="Arial" font-size="14.00" fill="#666666">[uuid]</text>
<polygon fill="none" stroke="black" points="839.14,-782.4 839.14,-813.2 1103.12,-813.2 1103.12,-782.4 839.14,-782.4"/>
<text text-anchor="start" x="846.14" y="-794.6" font-family="Arial" font-size="14.00">map_id </text>
<text text-anchor="start" x="895.95" y="-794.6" font-family="Arial" font-size="14.00" fill="#666666">[uuid]</text>
<polygon fill="none" stroke="black" points="839.14,-751.6 839.14,-782.4 1103.12,-782.4 1103.12,-751.6 839.14,-751.6"/>
<text text-anchor="start" x="846.14" y="-763.8" font-family="Arial" font-size="14.00">master_spot_id </text>
<text text-anchor="start" x="945.75" y="-763.8" font-family="Arial" font-size="14.00" fill="#666666">[uuid]</text>
<polygon fill="none" stroke="black" points="839.14,-720.8 839.14,-751.6 1103.12,-751.6 1103.12,-720.8 839.14,-720.8"/>
<text text-anchor="start" x="846.14" y="-733" font-family="Arial" font-size="14.00">machi_id </text>
<text text-anchor="start" x="906.06" y="-733" font-family="Arial" font-size="14.00" fill="#666666">[text]</text>
<polygon fill="none" stroke="black" points="839.14,-690 839.14,-720.8 1103.12,-720.8 1103.12,-690 839.14,-690"/>
<text text-anchor="start" x="846.14" y="-702.2" font-family="Arial" font-size="14.00">custom_name </text>
<text text-anchor="start" x="937.96" y="-702.2" font-family="Arial" font-size="14.00" fill="#666666">[text]</text>
<polygon fill="none" stroke="black" points="839.14,-659.2 839.14,-690 1103.12,-690 1103.12,-659.2 839.14,-659.2"/>
<text text-anchor="start" x="846.14" y="-671.4" font-family="Arial" font-size="14.00">description </text>
<text text-anchor="start" x="917.73" y="-671.4" font-family="Arial" font-size="14.00" fill="#666666">[text]</text>
<polygon fill="none" stroke="black" points="839.14,-628.4 839.14,-659.2 1103.12,-659.2 1103.12,-628.4 839.14,-628.4"/>
<text text-anchor="start" x="846.14" y="-640.6" font-family="Arial" font-size="14.00">images_count </text>
<text text-anchor="start" x="937.2" y="-640.6" font-family="Arial" font-size="14.00" fill="#666666">[integer]</text>
<polygon fill="none" stroke="black" points="839.14,-597.6 839.14,-628.4 1103.12,-628.4 1103.12,-597.6 839.14,-597.6"/>
<text text-anchor="start" x="846.14" y="-609.8" font-family="Arial" font-size="14.00">likes_count </text>
<text text-anchor="start" x="920.07" y="-609.8" font-family="Arial" font-size="14.00" fill="#666666">[integer]</text>
<polygon fill="none" stroke="black" points="839.14,-566.8 839.14,-597.6 1103.12,-597.6 1103.12,-566.8 839.14,-566.8"/>
<text text-anchor="start" x="846.14" y="-579" font-family="Arial" font-size="14.00">comments_count </text>
<text text-anchor="start" x="956.64" y="-579" font-family="Arial" font-size="14.00" fill="#666666">[integer]</text>
<polygon fill="none" stroke="black" points="839.14,-536 839.14,-566.8 1103.12,-566.8 1103.12,-536 839.14,-536"/>
<text text-anchor="start" x="846.14" y="-548.2" font-family="Arial" font-size="14.00">order_index </text>
<text text-anchor="start" x="923.97" y="-548.2" font-family="Arial" font-size="14.00" fill="#666666">[integer]</text>
<polygon fill="none" stroke="black" points="839.14,-505.2 839.14,-536 1103.12,-536 1103.12,-505.2 839.14,-505.2"/>
<text text-anchor="start" x="846.14" y="-517.4" font-family="Arial" font-size="14.00">created_at </text>
<text text-anchor="start" x="916.19" y="-517.4" font-family="Arial" font-size="14.00" fill="#666666">[timestamp with time zone]</text>
<polygon fill="none" stroke="black" points="839.14,-474.4 839.14,-505.2 1103.12,-505.2 1103.12,-474.4 839.14,-474.4"/>
<text text-anchor="start" x="846.14" y="-486.6" font-family="Arial" font-size="14.00">updated_at </text>
<text text-anchor="start" x="920.1" y="-486.6" font-family="Arial" font-size="14.00" fill="#666666">[timestamp with time zone]</text>
<polygon fill="none" stroke="black" points="839.14,-443.6 839.14,-474.4 1103.12,-474.4 1103.12,-443.6 839.14,-443.6"/>
<text text-anchor="start" x="846.14" y="-455.8" font-family="Arial" font-size="14.00">article_content </text>
<text text-anchor="start" x="941.08" y="-455.8" font-family="Arial" font-size="14.00" fill="#666666">[jsonb]</text>
<polygon fill="none" stroke="black" points="839.14,-412.8 839.14,-443.6 1103.12,-443.6 1103.12,-412.8 839.14,-412.8"/>
<text text-anchor="start" x="846.14" y="-425" font-family="Arial" font-size="14.00">latitude </text>
<text text-anchor="start" x="895.17" y="-425" font-family="Arial" font-size="14.00" fill="#666666">[double precision]</text>
<polygon fill="none" stroke="black" points="839.14,-382 839.14,-412.8 1103.12,-412.8 1103.12,-382 839.14,-382"/>
<text text-anchor="start" x="846.14" y="-394.2" font-family="Arial" font-size="14.00">longitude </text>
<text text-anchor="start" x="906.86" y="-394.2" font-family="Arial" font-size="14.00" fill="#666666">[double precision]</text>
<polygon fill="none" stroke="black" points="839.14,-351.2 839.14,-382 1103.12,-382 1103.12,-351.2 839.14,-351.2"/>
<text text-anchor="start" x="846.14" y="-363.4" font-family="Arial" font-size="14.00">google_formatted_address </text>
<text text-anchor="start" x="1016.59" y="-363.4" font-family="Arial" font-size="14.00" fill="#666666">[text]</text>
<polygon fill="none" stroke="black" points="839.14,-320.4 839.14,-351.2 1103.12,-351.2 1103.12,-320.4 839.14,-320.4"/>
<text text-anchor="start" x="846.14" y="-332.6" font-family="Arial" font-size="14.00">google_short_address </text>
<text text-anchor="start" x="988.57" y="-332.6" font-family="Arial" font-size="14.00" fill="#666666">[text]</text>
<polygon fill="none" stroke="black" points="839.14,-289.6 839.14,-320.4 1103.12,-320.4 1103.12,-289.6 839.14,-289.6"/>
<text text-anchor="start" x="846.14" y="-301.8" font-family="Arial" font-size="14.00">bookmarks_count </text>
<text text-anchor="start" x="960.53" y="-301.8" font-family="Arial" font-size="14.00" fill="#666666">[integer]</text>
<polygon fill="none" stroke="black" points="839.14,-258.8 839.14,-289.6 1103.12,-289.6 1103.12,-258.8 839.14,-258.8"/>
<text text-anchor="start" x="846.14" y="-271" font-family="Arial" font-size="14.00">prefecture_id </text>
<text text-anchor="start" x="931.75" y="-271" font-family="Arial" font-size="14.00" fill="#666666">[text]</text>
<polygon fill="none" stroke="black" points="839.14,-228 839.14,-258.8 1103.12,-258.8 1103.12,-228 839.14,-228"/>
<text text-anchor="start" x="846.14" y="-240.2" font-family="Arial" font-size="14.00">color </text>
<text text-anchor="start" x="880.37" y="-240.2" font-family="Arial" font-size="14.00" fill="#666666">[text]</text>
<polygon fill="none" stroke="black" points="839.14,-197.2 839.14,-228 1103.12,-228 1103.12,-197.2 839.14,-197.2"/>
<text text-anchor="start" x="846.14" y="-209.4" font-family="Arial" font-size="14.00">spot_color </text>
<text text-anchor="start" x="914.62" y="-209.4" font-family="Arial" font-size="14.00" fill="#666666">[text]</text>
<polygon fill="none" stroke="black" points="839.14,-166.4 839.14,-197.2 1103.12,-197.2 1103.12,-166.4 839.14,-166.4"/>
<text text-anchor="start" x="846.14" y="-178.6" font-family="Arial" font-size="14.00">label_id </text>
<text text-anchor="start" x="898.29" y="-178.6" font-family="Arial" font-size="14.00" fill="#666666">[uuid]</text>
<polygon fill="none" stroke="black" points="839.14,-135.6 839.14,-166.4 1103.12,-166.4 1103.12,-135.6 839.14,-135.6"/>
<text text-anchor="start" x="846.14" y="-147.8" font-family="Arial" font-size="14.00">city_id </text>
<text text-anchor="start" x="889.71" y="-147.8" font-family="Arial" font-size="14.00" fill="#666666">[text]</text>
<polygon fill="none" stroke="black" points="839.14,-104.8 839.14,-135.6 1103.12,-135.6 1103.12,-104.8 839.14,-104.8"/>
<text text-anchor="start" x="846.14" y="-117" font-family="Arial" font-size="14.00">prefecture_name </text>
<text text-anchor="start" x="955.87" y="-117" font-family="Arial" font-size="14.00" fill="#666666">[text]</text>
<polygon fill="none" stroke="black" points="839.14,-74 839.14,-104.8 1103.12,-104.8 1103.12,-74 839.14,-74"/>
<text text-anchor="start" x="846.14" y="-86.2" font-family="Arial" font-size="14.00">city_name </text>
<text text-anchor="start" x="913.84" y="-86.2" font-family="Arial" font-size="14.00" fill="#666666">[text]</text>
<polygon fill="none" stroke="black" points="839.14,-43.2 839.14,-74 1103.12,-74 1103.12,-43.2 839.14,-43.2"/>
<text text-anchor="start" x="846.14" y="-55.4" font-family="Arial" font-size="14.00">machi_name </text>
<text text-anchor="start" x="930.18" y="-55.4" font-family="Arial" font-size="14.00" fill="#666666">[text]</text>
</g>
<!-- public.bookmarks&#45;&gt;public.user_spots -->
<g id="edge3" class="edge">
<title>public.bookmarks:user_spot_id&#45;&gt;public.user_spots:id</title>
<path fill="none" stroke="black" d="M934.24,-1111.75C975.37,-1102.34 951.37,-1032.08 923.12,-989.6 900.63,-955.79 861.67,-987.38 839.14,-953.6 815.91,-918.77 796.27,-859.4 838.14,-859.4"/>
<polygon fill="black" stroke="black" points="934.39,-1111.73 923.98,-1108.29 929.09,-1112.28 924.78,-1112.73 924.78,-1112.73 924.78,-1112.73 929.09,-1112.28 924.91,-1117.24 934.39,-1111.73"/>
<text text-anchor="start" x="931.12" y="-1122.8" font-family="Arial" font-size="10.00">FOREIGN KEY (user_spot_id) REFERENCES user_spots(id) ON DELETE CASCADE</text>
</g>
<!-- public.bookmark_folders -->
<g id="node5" class="node">
<title>public.bookmark_folders</title>
<polygon fill="#efefef" stroke="none" points="1207.16,-566.8 1207.16,-602.4 1527.1,-602.4 1527.1,-566.8 1207.16,-566.8"/>
<polygon fill="none" stroke="black" points="1207.16,-566.8 1207.16,-602.4 1527.1,-602.4 1527.1,-566.8 1207.16,-566.8"/>
<text text-anchor="start" x="1214.16" y="-580.2" font-family="Arial Bold" font-size="18.00">public.bookmark_folders</text>
<text text-anchor="start" x="1395.62" y="-580.2" font-family="Arial" font-size="14.00">    </text>
<text text-anchor="start" x="1426.73" y="-580.2" font-family="Arial" font-size="14.00" fill="#666666">[BASE TABLE]</text>
<polygon fill="none" stroke="black" points="1207.16,-536 1207.16,-566.8 1527.1,-566.8 1527.1,-536 1207.16,-536"/>
<text text-anchor="start" x="1214.16" y="-548.2" font-family="Arial" font-size="14.00">id </text>
<text text-anchor="start" x="1228.94" y="-548.2" font-family="Arial" font-size="14.00" fill="#666666">[uuid]</text>
<polygon fill="none" stroke="black" points="1207.16,-505.2 1207.16,-536 1527.1,-536 1527.1,-505.2 1207.16,-505.2"/>
<text text-anchor="start" x="1214.16" y="-517.4" font-family="Arial" font-size="14.00">user_id </text>
<text text-anchor="start" x="1263.96" y="-517.4" font-family="Arial" font-size="14.00" fill="#666666">[uuid]</text>
<polygon fill="none" stroke="black" points="1207.16,-474.4 1207.16,-505.2 1527.1,-505.2 1527.1,-474.4 1207.16,-474.4"/>
<text text-anchor="start" x="1214.16" y="-486.6" font-family="Arial" font-size="14.00">name </text>
<text text-anchor="start" x="1253.07" y="-486.6" font-family="Arial" font-size="14.00" fill="#666666">[text]</text>
<polygon fill="none" stroke="black" points="1207.16,-443.6 1207.16,-474.4 1527.1,-474.4 1527.1,-443.6 1207.16,-443.6"/>
<text text-anchor="start" x="1214.16" y="-455.8" font-family="Arial" font-size="14.00">order_index </text>
<text text-anchor="start" x="1291.98" y="-455.8" font-family="Arial" font-size="14.00" fill="#666666">[integer]</text>
<polygon fill="none" stroke="black" points="1207.16,-412.8 1207.16,-443.6 1527.1,-443.6 1527.1,-412.8 1207.16,-412.8"/>
<text text-anchor="start" x="1214.16" y="-425" font-family="Arial" font-size="14.00">created_at </text>
<text text-anchor="start" x="1284.2" y="-425" font-family="Arial" font-size="14.00" fill="#666666">[timestamp with time zone]</text>
<polygon fill="none" stroke="black" points="1207.16,-382 1207.16,-412.8 1527.1,-412.8 1527.1,-382 1207.16,-382"/>
<text text-anchor="start" x="1214.16" y="-394.2" font-family="Arial" font-size="14.00">updated_at </text>
<text text-anchor="start" x="1288.11" y="-394.2" font-family="Arial" font-size="14.00" fill="#666666">[timestamp with time zone]</text>
<polygon fill="none" stroke="black" points="1207.16,-351.2 1207.16,-382 1527.1,-382 1527.1,-351.2 1207.16,-351.2"/>
<text text-anchor="start" x="1214.16" y="-363.4" font-family="Arial" font-size="14.00">folder_type </text>
<text text-anchor="start" x="1287.31" y="-363.4" font-family="Arial" font-size="14.00" fill="#666666">[text]</text>
</g>
<!-- public.bookmarks&#45;&gt;public.bookmark_folders -->
<g id="edge4" class="edge">
<title>public.bookmarks:folder_id&#45;&gt;public.bookmark_folders:id</title>
<path fill="none" stroke="black" d="M934.39,-1051.17C1038.85,-1050.57 1089.9,-1039.65 1155.13,-953.6 1209.56,-881.8 1116.06,-551.4 1206.16,-551.4"/>
<polygon fill="black" stroke="black" points="934.45,-1051.17 924.44,-1046.7 929.12,-1051.19 924.78,-1051.2 924.78,-1051.2 924.78,-1051.2 929.12,-1051.19 924.46,-1055.7 934.45,-1051.17"/>
<text text-anchor="start" x="931.12" y="-1061.2" font-family="Arial" font-size="10.00">FOREIGN KEY (folder_id) REFERENCES bookmark_folders(id) ON DELETE SET NULL</text>
</g>
</g>
</svg>
