<?xml version="1.0" encoding="UTF-8" standalone="no"?>
<!DOCTYPE svg PUBLIC "-//W3C//DTD SVG 1.1//EN"
 "http://www.w3.org/Graphics/SVG/1.1/DTD/svg11.dtd">
<!-- Generated by graphviz version 12.1.2 (20240928.0832)
 -->
<!-- Title: public.view_history Pages: 1 -->
<svg width="988pt" height="1064pt"
 viewBox="0.00 0.00 987.89 1064.00" xmlns="http://www.w3.org/2000/svg" xmlns:xlink="http://www.w3.org/1999/xlink">
<g id="graph0" class="graph" transform="scale(1 1) rotate(0) translate(4 1060)">
<title>public.view_history</title>
<polygon fill="white" stroke="none" points="-4,4 -4,-1060 983.89,-1060 983.89,4 -4,4"/>
<!-- public.view_history -->
<g id="node1" class="node">
<title>public.view_history</title>
<polygon fill="#efefef" stroke="none" points="348.96,-974.2 348.96,-1009.8 630.93,-1009.8 630.93,-974.2 348.96,-974.2"/>
<polygon fill="none" stroke="black" points="348.96,-974.2 348.96,-1009.8 630.93,-1009.8 630.93,-974.2 348.96,-974.2"/>
<text text-anchor="start" x="355.96" y="-987.6" font-family="Arial Bold" font-size="18.00">public.view_history</text>
<text text-anchor="start" x="499.44" y="-987.6" font-family="Arial" font-size="14.00">    </text>
<text text-anchor="start" x="530.56" y="-987.6" font-family="Arial" font-size="14.00" fill="#666666">[BASE TABLE]</text>
<polygon fill="none" stroke="black" points="348.96,-943.4 348.96,-974.2 630.93,-974.2 630.93,-943.4 348.96,-943.4"/>
<text text-anchor="start" x="355.96" y="-955.6" font-family="Arial" font-size="14.00">id </text>
<text text-anchor="start" x="370.75" y="-955.6" font-family="Arial" font-size="14.00" fill="#666666">[uuid]</text>
<polygon fill="none" stroke="black" points="348.96,-912.6 348.96,-943.4 630.93,-943.4 630.93,-912.6 348.96,-912.6"/>
<text text-anchor="start" x="355.96" y="-924.8" font-family="Arial" font-size="14.00">user_id </text>
<text text-anchor="start" x="405.77" y="-924.8" font-family="Arial" font-size="14.00" fill="#666666">[uuid]</text>
<polygon fill="none" stroke="black" points="348.96,-881.8 348.96,-912.6 630.93,-912.6 630.93,-881.8 348.96,-881.8"/>
<text text-anchor="start" x="355.96" y="-894" font-family="Arial" font-size="14.00">map_id </text>
<text text-anchor="start" x="405.77" y="-894" font-family="Arial" font-size="14.00" fill="#666666">[uuid]</text>
<polygon fill="none" stroke="black" points="348.96,-851 348.96,-881.8 630.93,-881.8 630.93,-851 348.96,-851"/>
<text text-anchor="start" x="355.96" y="-863.2" font-family="Arial" font-size="14.00">viewed_at </text>
<text text-anchor="start" x="422.89" y="-863.2" font-family="Arial" font-size="14.00" fill="#666666">[timestamp with time zone]</text>
<polygon fill="none" stroke="black" points="348.96,-820.2 348.96,-851 630.93,-851 630.93,-820.2 348.96,-820.2"/>
<text text-anchor="start" x="355.96" y="-832.4" font-family="Arial" font-size="14.00">view_count </text>
<text text-anchor="start" x="429.89" y="-832.4" font-family="Arial" font-size="14.00" fill="#666666">[integer]</text>
<polygon fill="none" stroke="black" points="348.96,-789.4 348.96,-820.2 630.93,-820.2 630.93,-789.4 348.96,-789.4"/>
<text text-anchor="start" x="355.96" y="-801.6" font-family="Arial" font-size="14.00">created_at </text>
<text text-anchor="start" x="426.01" y="-801.6" font-family="Arial" font-size="14.00" fill="#666666">[timestamp with time zone]</text>
<polygon fill="none" stroke="black" points="348.96,-758.6 348.96,-789.4 630.93,-789.4 630.93,-758.6 348.96,-758.6"/>
<text text-anchor="start" x="355.96" y="-770.8" font-family="Arial" font-size="14.00">updated_at </text>
<text text-anchor="start" x="429.92" y="-770.8" font-family="Arial" font-size="14.00" fill="#666666">[timestamp with time zone]</text>
<polygon fill="none" stroke="black" stroke-width="3" points="347.46,-757.1 347.46,-1011.3 632.43,-1011.3 632.43,-757.1 347.46,-757.1"/>
</g>
<!-- public.users -->
<g id="node2" class="node">
<title>public.users</title>
<polygon fill="#efefef" stroke="none" points="124.02,-520.6 124.02,-556.2 457.88,-556.2 457.88,-520.6 124.02,-520.6"/>
<polygon fill="none" stroke="black" points="124.02,-520.6 124.02,-556.2 457.88,-556.2 457.88,-520.6 124.02,-520.6"/>
<text text-anchor="start" x="185.46" y="-534" font-family="Arial Bold" font-size="18.00">public.users</text>
<text text-anchor="start" x="271.94" y="-534" font-family="Arial" font-size="14.00">    </text>
<text text-anchor="start" x="303.06" y="-534" font-family="Arial" font-size="14.00" fill="#666666">[BASE TABLE]</text>
<polygon fill="none" stroke="black" points="124.02,-489.8 124.02,-520.6 457.88,-520.6 457.88,-489.8 124.02,-489.8"/>
<text text-anchor="start" x="131.02" y="-502" font-family="Arial" font-size="14.00">id </text>
<text text-anchor="start" x="145.8" y="-502" font-family="Arial" font-size="14.00" fill="#666666">[uuid]</text>
<polygon fill="none" stroke="black" points="124.02,-459 124.02,-489.8 457.88,-489.8 457.88,-459 124.02,-459"/>
<text text-anchor="start" x="131.02" y="-471.2" font-family="Arial" font-size="14.00">email </text>
<text text-anchor="start" x="168.36" y="-471.2" font-family="Arial" font-size="14.00" fill="#666666">[text]</text>
<polygon fill="none" stroke="black" points="124.02,-428.2 124.02,-459 457.88,-459 457.88,-428.2 124.02,-428.2"/>
<text text-anchor="start" x="131.02" y="-440.4" font-family="Arial" font-size="14.00">username </text>
<text text-anchor="start" x="197.16" y="-440.4" font-family="Arial" font-size="14.00" fill="#666666">[text]</text>
<polygon fill="none" stroke="black" points="124.02,-397.4 124.02,-428.2 457.88,-428.2 457.88,-397.4 124.02,-397.4"/>
<text text-anchor="start" x="131.02" y="-409.6" font-family="Arial" font-size="14.00">display_name </text>
<text text-anchor="start" x="221.29" y="-409.6" font-family="Arial" font-size="14.00" fill="#666666">[text]</text>
<polygon fill="none" stroke="black" points="124.02,-366.6 124.02,-397.4 457.88,-397.4 457.88,-366.6 124.02,-366.6"/>
<text text-anchor="start" x="131.02" y="-378.8" font-family="Arial" font-size="14.00">avatar_url </text>
<text text-anchor="start" x="197.16" y="-378.8" font-family="Arial" font-size="14.00" fill="#666666">[text]</text>
<polygon fill="none" stroke="black" points="124.02,-335.8 124.02,-366.6 457.88,-366.6 457.88,-335.8 124.02,-335.8"/>
<text text-anchor="start" x="131.02" y="-348" font-family="Arial" font-size="14.00">bio </text>
<text text-anchor="start" x="153.59" y="-348" font-family="Arial" font-size="14.00" fill="#666666">[text]</text>
<polygon fill="none" stroke="black" points="124.02,-305 124.02,-335.8 457.88,-335.8 457.88,-305 124.02,-305"/>
<text text-anchor="start" x="131.02" y="-317.2" font-family="Arial" font-size="14.00">is_premium </text>
<text text-anchor="start" x="207.26" y="-317.2" font-family="Arial" font-size="14.00" fill="#666666">[boolean]</text>
<polygon fill="none" stroke="black" points="124.02,-274.2 124.02,-305 457.88,-305 457.88,-274.2 124.02,-274.2"/>
<text text-anchor="start" x="131.02" y="-286.4" font-family="Arial" font-size="14.00">premium_started_at </text>
<text text-anchor="start" x="259.41" y="-286.4" font-family="Arial" font-size="14.00" fill="#666666">[timestamp with time zone]</text>
<polygon fill="none" stroke="black" points="124.02,-243.4 124.02,-274.2 457.88,-274.2 457.88,-243.4 124.02,-243.4"/>
<text text-anchor="start" x="131.02" y="-255.6" font-family="Arial" font-size="14.00">premium_expires_at </text>
<text text-anchor="start" x="261.74" y="-255.6" font-family="Arial" font-size="14.00" fill="#666666">[timestamp with time zone]</text>
<polygon fill="none" stroke="black" points="124.02,-212.6 124.02,-243.4 457.88,-243.4 457.88,-212.6 124.02,-212.6"/>
<text text-anchor="start" x="131.02" y="-224.8" font-family="Arial" font-size="14.00">created_at </text>
<text text-anchor="start" x="201.06" y="-224.8" font-family="Arial" font-size="14.00" fill="#666666">[timestamp with time zone]</text>
<polygon fill="none" stroke="black" points="124.02,-181.8 124.02,-212.6 457.88,-212.6 457.88,-181.8 124.02,-181.8"/>
<text text-anchor="start" x="131.02" y="-194" font-family="Arial" font-size="14.00">updated_at </text>
<text text-anchor="start" x="204.97" y="-194" font-family="Arial" font-size="14.00" fill="#666666">[timestamp with time zone]</text>
<polygon fill="none" stroke="black" points="124.02,-151 124.02,-181.8 457.88,-181.8 457.88,-151 124.02,-151"/>
<text text-anchor="start" x="131.02" y="-163.2" font-family="Arial" font-size="14.00">push_token </text>
<text text-anchor="start" x="207.3" y="-163.2" font-family="Arial" font-size="14.00" fill="#666666">[text]</text>
<polygon fill="none" stroke="black" points="124.02,-120.2 124.02,-151 457.88,-151 457.88,-120.2 124.02,-120.2"/>
<text text-anchor="start" x="131.02" y="-132.4" font-family="Arial" font-size="14.00">push_token_updated_at </text>
<text text-anchor="start" x="285.15" y="-132.4" font-family="Arial" font-size="14.00" fill="#666666">[timestamp with time zone]</text>
</g>
<!-- public.view_history&#45;&gt;public.users -->
<g id="edge1" class="edge">
<title>public.view_history:user_id&#45;&gt;public.users:id</title>
<path fill="none" stroke="black" d="M337.93,-927.48C256.61,-918.64 314.24,-797.88 348.96,-712.4 375.21,-647.77 431.43,-663.95 457.88,-599.4 473.75,-560.66 500.74,-505.2 458.88,-505.2"/>
<polygon fill="black" stroke="black" points="337.64,-927.47 347.39,-932.48 342.97,-927.74 347.29,-927.97 347.29,-927.97 347.29,-927.97 342.97,-927.74 347.86,-923.49 337.64,-927.47"/>
<text text-anchor="start" x="7" y="-938" font-family="Arial" font-size="10.00">FOREIGN KEY (user_id) REFERENCES users(id) ON DELETE CASCADE</text>
</g>
<!-- public.maps -->
<g id="node3" class="node">
<title>public.maps</title>
<polygon fill="#efefef" stroke="none" points="562.1,-597.6 562.1,-633.2 815.79,-633.2 815.79,-597.6 562.1,-597.6"/>
<polygon fill="none" stroke="black" points="562.1,-597.6 562.1,-633.2 815.79,-633.2 815.79,-597.6 562.1,-597.6"/>
<text text-anchor="start" x="582.96" y="-611" font-family="Arial Bold" font-size="18.00">public.maps</text>
<text text-anchor="start" x="670.44" y="-611" font-family="Arial" font-size="14.00">    </text>
<text text-anchor="start" x="701.56" y="-611" font-family="Arial" font-size="14.00" fill="#666666">[BASE TABLE]</text>
<polygon fill="none" stroke="black" points="562.1,-566.8 562.1,-597.6 815.79,-597.6 815.79,-566.8 562.1,-566.8"/>
<text text-anchor="start" x="569.1" y="-579" font-family="Arial" font-size="14.00">id </text>
<text text-anchor="start" x="583.89" y="-579" font-family="Arial" font-size="14.00" fill="#666666">[uuid]</text>
<polygon fill="none" stroke="black" points="562.1,-536 562.1,-566.8 815.79,-566.8 815.79,-536 562.1,-536"/>
<text text-anchor="start" x="569.1" y="-548.2" font-family="Arial" font-size="14.00">user_id </text>
<text text-anchor="start" x="618.91" y="-548.2" font-family="Arial" font-size="14.00" fill="#666666">[uuid]</text>
<polygon fill="none" stroke="black" points="562.1,-505.2 562.1,-536 815.79,-536 815.79,-505.2 562.1,-505.2"/>
<text text-anchor="start" x="569.1" y="-517.4" font-family="Arial" font-size="14.00">name </text>
<text text-anchor="start" x="608.01" y="-517.4" font-family="Arial" font-size="14.00" fill="#666666">[text]</text>
<polygon fill="none" stroke="black" points="562.1,-474.4 562.1,-505.2 815.79,-505.2 815.79,-474.4 562.1,-474.4"/>
<text text-anchor="start" x="569.1" y="-486.6" font-family="Arial" font-size="14.00">description </text>
<text text-anchor="start" x="640.7" y="-486.6" font-family="Arial" font-size="14.00" fill="#666666">[text]</text>
<polygon fill="none" stroke="black" points="562.1,-443.6 562.1,-474.4 815.79,-474.4 815.79,-443.6 562.1,-443.6"/>
<text text-anchor="start" x="569.1" y="-455.8" font-family="Arial" font-size="14.00">is_public </text>
<text text-anchor="start" x="627.47" y="-455.8" font-family="Arial" font-size="14.00" fill="#666666">[boolean]</text>
<polygon fill="none" stroke="black" points="562.1,-412.8 562.1,-443.6 815.79,-443.6 815.79,-412.8 562.1,-412.8"/>
<text text-anchor="start" x="569.1" y="-425" font-family="Arial" font-size="14.00">is_official </text>
<text text-anchor="start" x="630.57" y="-425" font-family="Arial" font-size="14.00" fill="#666666">[boolean]</text>
<polygon fill="none" stroke="black" points="562.1,-382 562.1,-412.8 815.79,-412.8 815.79,-382 562.1,-382"/>
<text text-anchor="start" x="569.1" y="-394.2" font-family="Arial" font-size="14.00">thumbnail_url </text>
<text text-anchor="start" x="657.04" y="-394.2" font-family="Arial" font-size="14.00" fill="#666666">[text]</text>
<polygon fill="none" stroke="black" points="562.1,-351.2 562.1,-382 815.79,-382 815.79,-351.2 562.1,-351.2"/>
<text text-anchor="start" x="569.1" y="-363.4" font-family="Arial" font-size="14.00">spots_count </text>
<text text-anchor="start" x="648.49" y="-363.4" font-family="Arial" font-size="14.00" fill="#666666">[integer]</text>
<polygon fill="none" stroke="black" points="562.1,-320.4 562.1,-351.2 815.79,-351.2 815.79,-320.4 562.1,-320.4"/>
<text text-anchor="start" x="569.1" y="-332.6" font-family="Arial" font-size="14.00">likes_count </text>
<text text-anchor="start" x="643.04" y="-332.6" font-family="Arial" font-size="14.00" fill="#666666">[integer]</text>
<polygon fill="none" stroke="black" points="562.1,-289.6 562.1,-320.4 815.79,-320.4 815.79,-289.6 562.1,-289.6"/>
<text text-anchor="start" x="569.1" y="-301.8" font-family="Arial" font-size="14.00">created_at </text>
<text text-anchor="start" x="639.15" y="-301.8" font-family="Arial" font-size="14.00" fill="#666666">[timestamp with time zone]</text>
<polygon fill="none" stroke="black" points="562.1,-258.8 562.1,-289.6 815.79,-289.6 815.79,-258.8 562.1,-258.8"/>
<text text-anchor="start" x="569.1" y="-271" font-family="Arial" font-size="14.00">updated_at </text>
<text text-anchor="start" x="643.06" y="-271" font-family="Arial" font-size="14.00" fill="#666666">[timestamp with time zone]</text>
<polygon fill="none" stroke="black" points="562.1,-228 562.1,-258.8 815.79,-258.8 815.79,-228 562.1,-228"/>
<text text-anchor="start" x="569.1" y="-240.2" font-family="Arial" font-size="14.00">comments_count </text>
<text text-anchor="start" x="679.6" y="-240.2" font-family="Arial" font-size="14.00" fill="#666666">[integer]</text>
<polygon fill="none" stroke="black" points="562.1,-197.2 562.1,-228 815.79,-228 815.79,-197.2 562.1,-197.2"/>
<text text-anchor="start" x="569.1" y="-209.4" font-family="Arial" font-size="14.00">is_article_public </text>
<text text-anchor="start" x="672.6" y="-209.4" font-family="Arial" font-size="14.00" fill="#666666">[boolean]</text>
<polygon fill="none" stroke="black" points="562.1,-166.4 562.1,-197.2 815.79,-197.2 815.79,-166.4 562.1,-166.4"/>
<text text-anchor="start" x="569.1" y="-178.6" font-family="Arial" font-size="14.00">bookmarks_count </text>
<text text-anchor="start" x="683.5" y="-178.6" font-family="Arial" font-size="14.00" fill="#666666">[integer]</text>
<polygon fill="none" stroke="black" points="562.1,-135.6 562.1,-166.4 815.79,-166.4 815.79,-135.6 562.1,-135.6"/>
<text text-anchor="start" x="569.1" y="-147.8" font-family="Arial" font-size="14.00">category_id </text>
<text text-anchor="start" x="645.37" y="-147.8" font-family="Arial" font-size="14.00" fill="#666666">[text]</text>
<polygon fill="none" stroke="black" points="562.1,-104.8 562.1,-135.6 815.79,-135.6 815.79,-104.8 562.1,-104.8"/>
<text text-anchor="start" x="569.1" y="-117" font-family="Arial" font-size="14.00">article_intro </text>
<text text-anchor="start" x="645.36" y="-117" font-family="Arial" font-size="14.00" fill="#666666">[jsonb]</text>
<polygon fill="none" stroke="black" points="562.1,-74 562.1,-104.8 815.79,-104.8 815.79,-74 562.1,-74"/>
<text text-anchor="start" x="569.1" y="-86.2" font-family="Arial" font-size="14.00">article_outro </text>
<text text-anchor="start" x="650.04" y="-86.2" font-family="Arial" font-size="14.00" fill="#666666">[jsonb]</text>
<polygon fill="none" stroke="black" points="562.1,-43.2 562.1,-74 815.79,-74 815.79,-43.2 562.1,-43.2"/>
<text text-anchor="start" x="569.1" y="-55.4" font-family="Arial" font-size="14.00">show_label_chips </text>
<text text-anchor="start" x="683.51" y="-55.4" font-family="Arial" font-size="14.00" fill="#666666">[boolean]</text>
</g>
<!-- public.view_history&#45;&gt;public.maps -->
<g id="edge2" class="edge">
<title>public.view_history:map_id&#45;&gt;public.maps:id</title>
<path fill="none" stroke="black" d="M642.27,-896.52C710.43,-886.99 671.74,-779.39 630.93,-712.4 612.97,-682.92 580.14,-705.83 562.1,-676.4 540.23,-640.7 519.24,-582.2 561.1,-582.2"/>
<polygon fill="black" stroke="black" points="642.24,-896.52 631.97,-892.69 636.92,-896.87 632.6,-897.16 632.6,-897.16 632.6,-897.16 636.92,-896.87 632.56,-901.67 642.24,-896.52"/>
<text text-anchor="start" x="638.93" y="-907.2" font-family="Arial" font-size="10.00">FOREIGN KEY (map_id) REFERENCES maps(id) ON DELETE CASCADE</text>
</g>
</g>
</svg>
