<?xml version="1.0" encoding="UTF-8" standalone="no"?>
<!DOCTYPE svg PUBLIC "-//W3C//DTD SVG 1.1//EN"
 "http://www.w3.org/Graphics/SVG/1.1/DTD/svg11.dtd">
<!-- Generated by graphviz version 12.1.2 (20240928.0832)
 -->
<!-- Title: public.continents Pages: 1 -->
<svg width="703pt" height="848pt"
 viewBox="0.00 0.00 702.84 848.40" xmlns="http://www.w3.org/2000/svg" xmlns:xlink="http://www.w3.org/1999/xlink">
<g id="graph0" class="graph" transform="scale(1 1) rotate(0) translate(4 844.4)">
<title>public.continents</title>
<polygon fill="white" stroke="none" points="-4,4 -4,-844.4 698.84,-844.4 698.84,4 -4,4"/>
<!-- public.continents -->
<g id="node1" class="node">
<title>public.continents</title>
<polygon fill="#efefef" stroke="none" points="46.2,-323.4 46.2,-359 308.17,-359 308.17,-323.4 46.2,-323.4"/>
<polygon fill="none" stroke="black" points="46.2,-323.4 46.2,-359 308.17,-359 308.17,-323.4 46.2,-323.4"/>
<text text-anchor="start" x="53.2" y="-336.8" font-family="Arial Bold" font-size="18.00">public.continents</text>
<text text-anchor="start" x="176.68" y="-336.8" font-family="Arial" font-size="14.00">    </text>
<text text-anchor="start" x="207.79" y="-336.8" font-family="Arial" font-size="14.00" fill="#666666">[BASE TABLE]</text>
<polygon fill="none" stroke="black" points="46.2,-292.6 46.2,-323.4 308.17,-323.4 308.17,-292.6 46.2,-292.6"/>
<text text-anchor="start" x="53.2" y="-304.8" font-family="Arial" font-size="14.00">id </text>
<text text-anchor="start" x="67.99" y="-304.8" font-family="Arial" font-size="14.00" fill="#666666">[text]</text>
<polygon fill="none" stroke="black" points="46.2,-261.8 46.2,-292.6 308.17,-292.6 308.17,-261.8 46.2,-261.8"/>
<text text-anchor="start" x="53.2" y="-274" font-family="Arial" font-size="14.00">name </text>
<text text-anchor="start" x="92.11" y="-274" font-family="Arial" font-size="14.00" fill="#666666">[text]</text>
<polygon fill="none" stroke="black" points="46.2,-231 46.2,-261.8 308.17,-261.8 308.17,-231 46.2,-231"/>
<text text-anchor="start" x="53.2" y="-243.2" font-family="Arial" font-size="14.00">display_order </text>
<text text-anchor="start" x="141.14" y="-243.2" font-family="Arial" font-size="14.00" fill="#666666">[integer]</text>
<polygon fill="none" stroke="black" points="46.2,-200.2 46.2,-231 308.17,-231 308.17,-200.2 46.2,-200.2"/>
<text text-anchor="start" x="53.2" y="-212.4" font-family="Arial" font-size="14.00">created_at </text>
<text text-anchor="start" x="123.25" y="-212.4" font-family="Arial" font-size="14.00" fill="#666666">[timestamp with time zone]</text>
<polygon fill="none" stroke="black" points="46.2,-169.4 46.2,-200.2 308.17,-200.2 308.17,-169.4 46.2,-169.4"/>
<text text-anchor="start" x="53.2" y="-181.6" font-family="Arial" font-size="14.00">updated_at </text>
<text text-anchor="start" x="127.16" y="-181.6" font-family="Arial" font-size="14.00" fill="#666666">[timestamp with time zone]</text>
<polygon fill="none" stroke="black" points="46.2,-138.6 46.2,-169.4 308.17,-169.4 308.17,-138.6 46.2,-138.6"/>
<text text-anchor="start" x="53.2" y="-150.8" font-family="Arial" font-size="14.00">name_translations </text>
<text text-anchor="start" x="171.49" y="-150.8" font-family="Arial" font-size="14.00" fill="#666666">[jsonb]</text>
<polygon fill="none" stroke="black" points="46.2,-107.8 46.2,-138.6 308.17,-138.6 308.17,-107.8 46.2,-107.8"/>
<text text-anchor="start" x="53.2" y="-120" font-family="Arial" font-size="14.00">name_kana </text>
<text text-anchor="start" x="130.25" y="-120" font-family="Arial" font-size="14.00" fill="#666666">[text]</text>
<polygon fill="none" stroke="black" points="46.2,-77 46.2,-107.8 308.17,-107.8 308.17,-77 46.2,-77"/>
<text text-anchor="start" x="53.2" y="-89.2" font-family="Arial" font-size="14.00">latitude </text>
<text text-anchor="start" x="102.23" y="-89.2" font-family="Arial" font-size="14.00" fill="#666666">[double precision]</text>
<polygon fill="none" stroke="black" points="46.2,-46.2 46.2,-77 308.17,-77 308.17,-46.2 46.2,-46.2"/>
<text text-anchor="start" x="53.2" y="-58.4" font-family="Arial" font-size="14.00">longitude </text>
<text text-anchor="start" x="113.92" y="-58.4" font-family="Arial" font-size="14.00" fill="#666666">[double precision]</text>
<polygon fill="none" stroke="black" stroke-width="3" points="44.7,-44.7 44.7,-360.5 309.67,-360.5 309.67,-44.7 44.7,-44.7"/>
</g>
<!-- public.countries -->
<g id="node2" class="node">
<title>public.countries</title>
<polygon fill="#efefef" stroke="none" points="50.2,-761.6 50.2,-797.2 304.16,-797.2 304.16,-761.6 50.2,-761.6"/>
<polygon fill="none" stroke="black" points="50.2,-761.6 50.2,-797.2 304.16,-797.2 304.16,-761.6 50.2,-761.6"/>
<text text-anchor="start" x="57.2" y="-775" font-family="Arial Bold" font-size="18.00">public.countries</text>
<text text-anchor="start" x="172.67" y="-775" font-family="Arial" font-size="14.00">    </text>
<text text-anchor="start" x="203.79" y="-775" font-family="Arial" font-size="14.00" fill="#666666">[BASE TABLE]</text>
<polygon fill="none" stroke="black" points="50.2,-730.8 50.2,-761.6 304.16,-761.6 304.16,-730.8 50.2,-730.8"/>
<text text-anchor="start" x="57.2" y="-743" font-family="Arial" font-size="14.00">id </text>
<text text-anchor="start" x="71.99" y="-743" font-family="Arial" font-size="14.00" fill="#666666">[text]</text>
<polygon fill="none" stroke="black" points="50.2,-700 50.2,-730.8 304.16,-730.8 304.16,-700 50.2,-700"/>
<text text-anchor="start" x="57.2" y="-712.2" font-family="Arial" font-size="14.00">name </text>
<text text-anchor="start" x="96.11" y="-712.2" font-family="Arial" font-size="14.00" fill="#666666">[text]</text>
<polygon fill="none" stroke="black" points="50.2,-669.2 50.2,-700 304.16,-700 304.16,-669.2 50.2,-669.2"/>
<text text-anchor="start" x="57.2" y="-681.4" font-family="Arial" font-size="14.00">name_kana </text>
<text text-anchor="start" x="134.26" y="-681.4" font-family="Arial" font-size="14.00" fill="#666666">[text]</text>
<polygon fill="none" stroke="black" points="50.2,-638.4 50.2,-669.2 304.16,-669.2 304.16,-638.4 50.2,-638.4"/>
<text text-anchor="start" x="57.2" y="-650.6" font-family="Arial" font-size="14.00">latitude </text>
<text text-anchor="start" x="106.24" y="-650.6" font-family="Arial" font-size="14.00" fill="#666666">[double precision]</text>
<polygon fill="none" stroke="black" points="50.2,-607.6 50.2,-638.4 304.16,-638.4 304.16,-607.6 50.2,-607.6"/>
<text text-anchor="start" x="57.2" y="-619.8" font-family="Arial" font-size="14.00">longitude </text>
<text text-anchor="start" x="117.92" y="-619.8" font-family="Arial" font-size="14.00" fill="#666666">[double precision]</text>
<polygon fill="none" stroke="black" points="50.2,-576.8 50.2,-607.6 304.16,-607.6 304.16,-576.8 50.2,-576.8"/>
<text text-anchor="start" x="57.2" y="-589" font-family="Arial" font-size="14.00">created_at </text>
<text text-anchor="start" x="127.25" y="-589" font-family="Arial" font-size="14.00" fill="#666666">[timestamp with time zone]</text>
<polygon fill="none" stroke="black" points="50.2,-546 50.2,-576.8 304.16,-576.8 304.16,-546 50.2,-546"/>
<text text-anchor="start" x="57.2" y="-558.2" font-family="Arial" font-size="14.00">updated_at </text>
<text text-anchor="start" x="131.16" y="-558.2" font-family="Arial" font-size="14.00" fill="#666666">[timestamp with time zone]</text>
<polygon fill="none" stroke="black" points="50.2,-515.2 50.2,-546 304.16,-546 304.16,-515.2 50.2,-515.2"/>
<text text-anchor="start" x="57.2" y="-527.4" font-family="Arial" font-size="14.00">continent_id </text>
<text text-anchor="start" x="136.6" y="-527.4" font-family="Arial" font-size="14.00" fill="#666666">[text]</text>
<polygon fill="none" stroke="black" points="50.2,-484.4 50.2,-515.2 304.16,-515.2 304.16,-484.4 50.2,-484.4"/>
<text text-anchor="start" x="57.2" y="-496.6" font-family="Arial" font-size="14.00">name_translations </text>
<text text-anchor="start" x="175.49" y="-496.6" font-family="Arial" font-size="14.00" fill="#666666">[jsonb]</text>
</g>
<!-- public.countries&#45;&gt;public.continents -->
<g id="edge1" class="edge">
<title>public.countries:continent_id&#45;&gt;public.continents:id</title>
<path fill="none" stroke="black" d="M314.92,-527.45C354.94,-500.4 355.16,-308 309.17,-308"/>
<polygon fill="black" stroke="black" points="315,-527.43 304.1,-526.21 309.92,-529.07 305.8,-530.39 305.8,-530.39 305.8,-530.39 309.92,-529.07 306.86,-534.78 315,-527.43"/>
<text text-anchor="start" x="312.16" y="-540.6" font-family="Arial" font-size="10.00">FOREIGN KEY (continent_id) REFERENCES continents(id) ON DELETE SET NULL</text>
</g>
</g>
</svg>
