<?xml version="1.0" encoding="UTF-8" standalone="no"?>
<!DOCTYPE svg PUBLIC "-//W3C//DTD SVG 1.1//EN"
 "http://www.w3.org/Graphics/SVG/1.1/DTD/svg11.dtd">
<!-- Generated by graphviz version 12.1.2 (20240928.0832)
 -->
<!-- Title: public.category_featured_tags Pages: 1 -->
<svg width="1091pt" height="756pt"
 viewBox="0.00 0.00 1091.30 756.00" xmlns="http://www.w3.org/2000/svg" xmlns:xlink="http://www.w3.org/1999/xlink">
<g id="graph0" class="graph" transform="scale(1 1) rotate(0) translate(4 752)">
<title>public.category_featured_tags</title>
<polygon fill="white" stroke="none" points="-4,4 -4,-752 1087.3,-752 1087.3,4 -4,4"/>
<!-- public.category_featured_tags -->
<g id="node1" class="node">
<title>public.category_featured_tags</title>
<polygon fill="#efefef" stroke="none" points="389.55,-666.2 389.55,-701.8 745.44,-701.8 745.44,-666.2 389.55,-666.2"/>
<polygon fill="none" stroke="black" points="389.55,-666.2 389.55,-701.8 745.44,-701.8 745.44,-666.2 389.55,-666.2"/>
<text text-anchor="start" x="396.55" y="-679.6" font-family="Arial Bold" font-size="18.00">public.category_featured_tags</text>
<text text-anchor="start" x="613.95" y="-679.6" font-family="Arial" font-size="14.00">    </text>
<text text-anchor="start" x="645.07" y="-679.6" font-family="Arial" font-size="14.00" fill="#666666">[BASE TABLE]</text>
<polygon fill="none" stroke="black" points="389.55,-635.4 389.55,-666.2 745.44,-666.2 745.44,-635.4 389.55,-635.4"/>
<text text-anchor="start" x="396.55" y="-647.6" font-family="Arial" font-size="14.00">id </text>
<text text-anchor="start" x="411.33" y="-647.6" font-family="Arial" font-size="14.00" fill="#666666">[uuid]</text>
<polygon fill="none" stroke="black" points="389.55,-604.6 389.55,-635.4 745.44,-635.4 745.44,-604.6 389.55,-604.6"/>
<text text-anchor="start" x="396.55" y="-616.8" font-family="Arial" font-size="14.00">category_id </text>
<text text-anchor="start" x="472.81" y="-616.8" font-family="Arial" font-size="14.00" fill="#666666">[text]</text>
<polygon fill="none" stroke="black" points="389.55,-573.8 389.55,-604.6 745.44,-604.6 745.44,-573.8 389.55,-573.8"/>
<text text-anchor="start" x="396.55" y="-586" font-family="Arial" font-size="14.00">tag_id </text>
<text text-anchor="start" x="438.58" y="-586" font-family="Arial" font-size="14.00" fill="#666666">[uuid]</text>
<polygon fill="none" stroke="black" points="389.55,-543 389.55,-573.8 745.44,-573.8 745.44,-543 389.55,-543"/>
<text text-anchor="start" x="396.55" y="-555.2" font-family="Arial" font-size="14.00">display_order </text>
<text text-anchor="start" x="484.48" y="-555.2" font-family="Arial" font-size="14.00" fill="#666666">[integer]</text>
<polygon fill="none" stroke="black" points="389.55,-512.2 389.55,-543 745.44,-543 745.44,-512.2 389.55,-512.2"/>
<text text-anchor="start" x="396.55" y="-524.4" font-family="Arial" font-size="14.00">is_active </text>
<text text-anchor="start" x="454.9" y="-524.4" font-family="Arial" font-size="14.00" fill="#666666">[boolean]</text>
<polygon fill="none" stroke="black" points="389.55,-481.4 389.55,-512.2 745.44,-512.2 745.44,-481.4 389.55,-481.4"/>
<text text-anchor="start" x="396.55" y="-493.6" font-family="Arial" font-size="14.00">created_at </text>
<text text-anchor="start" x="466.59" y="-493.6" font-family="Arial" font-size="14.00" fill="#666666">[timestamp with time zone]</text>
<polygon fill="none" stroke="black" points="389.55,-450.6 389.55,-481.4 745.44,-481.4 745.44,-450.6 389.55,-450.6"/>
<text text-anchor="start" x="396.55" y="-462.8" font-family="Arial" font-size="14.00">updated_at </text>
<text text-anchor="start" x="470.5" y="-462.8" font-family="Arial" font-size="14.00" fill="#666666">[timestamp with time zone]</text>
<polygon fill="none" stroke="black" stroke-width="3" points="388.05,-449.1 388.05,-703.3 746.94,-703.3 746.94,-449.1 388.05,-449.1"/>
</g>
<!-- public.categories -->
<g id="node2" class="node">
<title>public.categories</title>
<polygon fill="#efefef" stroke="none" points="256.02,-289.6 256.02,-325.2 516.96,-325.2 516.96,-289.6 256.02,-289.6"/>
<polygon fill="none" stroke="black" points="256.02,-289.6 256.02,-325.2 516.96,-325.2 516.96,-289.6 256.02,-289.6"/>
<text text-anchor="start" x="263.02" y="-303" font-family="Arial Bold" font-size="18.00">public.categories</text>
<text text-anchor="start" x="385.47" y="-303" font-family="Arial" font-size="14.00">    </text>
<text text-anchor="start" x="416.59" y="-303" font-family="Arial" font-size="14.00" fill="#666666">[BASE TABLE]</text>
<polygon fill="none" stroke="black" points="256.02,-258.8 256.02,-289.6 516.96,-289.6 516.96,-258.8 256.02,-258.8"/>
<text text-anchor="start" x="263.02" y="-271" font-family="Arial" font-size="14.00">id </text>
<text text-anchor="start" x="277.81" y="-271" font-family="Arial" font-size="14.00" fill="#666666">[text]</text>
<polygon fill="none" stroke="black" points="256.02,-228 256.02,-258.8 516.96,-258.8 516.96,-228 256.02,-228"/>
<text text-anchor="start" x="263.02" y="-240.2" font-family="Arial" font-size="14.00">slug </text>
<text text-anchor="start" x="292.6" y="-240.2" font-family="Arial" font-size="14.00" fill="#666666">[text]</text>
<polygon fill="none" stroke="black" points="256.02,-197.2 256.02,-228 516.96,-228 516.96,-197.2 256.02,-197.2"/>
<text text-anchor="start" x="263.02" y="-209.4" font-family="Arial" font-size="14.00">name </text>
<text text-anchor="start" x="301.93" y="-209.4" font-family="Arial" font-size="14.00" fill="#666666">[text]</text>
<polygon fill="none" stroke="black" points="256.02,-166.4 256.02,-197.2 516.96,-197.2 516.96,-166.4 256.02,-166.4"/>
<text text-anchor="start" x="263.02" y="-178.6" font-family="Arial" font-size="14.00">name_translations </text>
<text text-anchor="start" x="381.31" y="-178.6" font-family="Arial" font-size="14.00" fill="#666666">[jsonb]</text>
<polygon fill="none" stroke="black" points="256.02,-135.6 256.02,-166.4 516.96,-166.4 516.96,-135.6 256.02,-135.6"/>
<text text-anchor="start" x="263.02" y="-147.8" font-family="Arial" font-size="14.00">display_order </text>
<text text-anchor="start" x="350.96" y="-147.8" font-family="Arial" font-size="14.00" fill="#666666">[integer]</text>
<polygon fill="none" stroke="black" points="256.02,-104.8 256.02,-135.6 516.96,-135.6 516.96,-104.8 256.02,-104.8"/>
<text text-anchor="start" x="263.02" y="-117" font-family="Arial" font-size="14.00">is_active </text>
<text text-anchor="start" x="321.38" y="-117" font-family="Arial" font-size="14.00" fill="#666666">[boolean]</text>
<polygon fill="none" stroke="black" points="256.02,-74 256.02,-104.8 516.96,-104.8 516.96,-74 256.02,-74"/>
<text text-anchor="start" x="263.02" y="-86.2" font-family="Arial" font-size="14.00">created_at </text>
<text text-anchor="start" x="333.07" y="-86.2" font-family="Arial" font-size="14.00" fill="#666666">[timestamp with time zone]</text>
<polygon fill="none" stroke="black" points="256.02,-43.2 256.02,-74 516.96,-74 516.96,-43.2 256.02,-43.2"/>
<text text-anchor="start" x="263.02" y="-55.4" font-family="Arial" font-size="14.00">updated_at </text>
<text text-anchor="start" x="336.98" y="-55.4" font-family="Arial" font-size="14.00" fill="#666666">[timestamp with time zone]</text>
</g>
<!-- public.category_featured_tags&#45;&gt;public.categories -->
<g id="edge1" class="edge">
<title>public.category_featured_tags:category_id&#45;&gt;public.categories:id</title>
<path fill="none" stroke="black" d="M378.18,-619.4C295.71,-609.48 333.76,-477.78 389.55,-404.4 425.16,-357.55 481.21,-415.14 516.96,-368.4 542.4,-335.15 559.83,-274.2 517.96,-274.2"/>
<polygon fill="black" stroke="black" points="378.23,-619.41 387.95,-624.47 383.55,-619.71 387.88,-619.96 387.88,-619.96 387.88,-619.96 383.55,-619.71 388.47,-615.49 378.23,-619.41"/>
<text text-anchor="start" x="7" y="-630" font-family="Arial" font-size="10.00">FOREIGN KEY (category_id) REFERENCES categories(id) ON DELETE CASCADE</text>
</g>
<!-- public.tags -->
<g id="node3" class="node">
<title>public.tags</title>
<polygon fill="#efefef" stroke="none" points="621.65,-274.2 621.65,-309.8 875.33,-309.8 875.33,-274.2 621.65,-274.2"/>
<polygon fill="none" stroke="black" points="621.65,-274.2 621.65,-309.8 875.33,-309.8 875.33,-274.2 621.65,-274.2"/>
<text text-anchor="start" x="647.01" y="-287.6" font-family="Arial Bold" font-size="18.00">public.tags</text>
<text text-anchor="start" x="725.49" y="-287.6" font-family="Arial" font-size="14.00">    </text>
<text text-anchor="start" x="756.61" y="-287.6" font-family="Arial" font-size="14.00" fill="#666666">[BASE TABLE]</text>
<polygon fill="none" stroke="black" points="621.65,-243.4 621.65,-274.2 875.33,-274.2 875.33,-243.4 621.65,-243.4"/>
<text text-anchor="start" x="628.65" y="-255.6" font-family="Arial" font-size="14.00">id </text>
<text text-anchor="start" x="643.44" y="-255.6" font-family="Arial" font-size="14.00" fill="#666666">[uuid]</text>
<polygon fill="none" stroke="black" points="621.65,-212.6 621.65,-243.4 875.33,-243.4 875.33,-212.6 621.65,-212.6"/>
<text text-anchor="start" x="628.65" y="-224.8" font-family="Arial" font-size="14.00">name </text>
<text text-anchor="start" x="667.56" y="-224.8" font-family="Arial" font-size="14.00" fill="#666666">[text]</text>
<polygon fill="none" stroke="black" points="621.65,-181.8 621.65,-212.6 875.33,-212.6 875.33,-181.8 621.65,-181.8"/>
<text text-anchor="start" x="628.65" y="-194" font-family="Arial" font-size="14.00">name_translations </text>
<text text-anchor="start" x="746.94" y="-194" font-family="Arial" font-size="14.00" fill="#666666">[jsonb]</text>
<polygon fill="none" stroke="black" points="621.65,-151 621.65,-181.8 875.33,-181.8 875.33,-151 621.65,-151"/>
<text text-anchor="start" x="628.65" y="-163.2" font-family="Arial" font-size="14.00">slug </text>
<text text-anchor="start" x="658.23" y="-163.2" font-family="Arial" font-size="14.00" fill="#666666">[text]</text>
<polygon fill="none" stroke="black" points="621.65,-120.2 621.65,-151 875.33,-151 875.33,-120.2 621.65,-120.2"/>
<text text-anchor="start" x="628.65" y="-132.4" font-family="Arial" font-size="14.00">usage_count </text>
<text text-anchor="start" x="712.72" y="-132.4" font-family="Arial" font-size="14.00" fill="#666666">[integer]</text>
<polygon fill="none" stroke="black" points="621.65,-89.4 621.65,-120.2 875.33,-120.2 875.33,-89.4 621.65,-89.4"/>
<text text-anchor="start" x="628.65" y="-101.6" font-family="Arial" font-size="14.00">created_at </text>
<text text-anchor="start" x="698.7" y="-101.6" font-family="Arial" font-size="14.00" fill="#666666">[timestamp with time zone]</text>
<polygon fill="none" stroke="black" points="621.65,-58.6 621.65,-89.4 875.33,-89.4 875.33,-58.6 621.65,-58.6"/>
<text text-anchor="start" x="628.65" y="-70.8" font-family="Arial" font-size="14.00">updated_at </text>
<text text-anchor="start" x="702.61" y="-70.8" font-family="Arial" font-size="14.00" fill="#666666">[timestamp with time zone]</text>
</g>
<!-- public.category_featured_tags&#45;&gt;public.tags -->
<g id="edge2" class="edge">
<title>public.category_featured_tags:tag_id&#45;&gt;public.tags:id</title>
<path fill="none" stroke="black" d="M756.8,-588.51C825.2,-578.82 789.17,-469.53 745.44,-404.4 712.23,-354.94 654.99,-402.37 621.65,-353 598.22,-318.3 578.78,-258.8 620.65,-258.8"/>
<polygon fill="black" stroke="black" points="756.75,-588.51 746.48,-584.69 751.43,-588.87 747.11,-589.16 747.11,-589.16 747.11,-589.16 751.43,-588.87 747.07,-593.67 756.75,-588.51"/>
<text text-anchor="start" x="753.44" y="-599.2" font-family="Arial" font-size="10.00">FOREIGN KEY (tag_id) REFERENCES tags(id) ON DELETE CASCADE</text>
</g>
</g>
</svg>
