<?xml version="1.0" encoding="UTF-8" standalone="no"?>
<!DOCTYPE svg PUBLIC "-//W3C//DTD SVG 1.1//EN"
 "http://www.w3.org/Graphics/SVG/1.1/DTD/svg11.dtd">
<!-- Generated by graphviz version 12.1.2 (20240928.0832)
 -->
<!-- Title: public.featured_carousel_items Pages: 1 -->
<svg width="807pt" height="972pt"
 viewBox="0.00 0.00 807.10 971.60" xmlns="http://www.w3.org/2000/svg" xmlns:xlink="http://www.w3.org/1999/xlink">
<g id="graph0" class="graph" transform="scale(1 1) rotate(0) translate(4 967.6)">
<title>public.featured_carousel_items</title>
<polygon fill="white" stroke="none" points="-4,4 -4,-967.6 803.1,-967.6 803.1,4 -4,4"/>
<!-- public.featured_carousel_items -->
<g id="node1" class="node">
<title>public.featured_carousel_items</title>
<polygon fill="#efefef" stroke="none" points="46.2,-881.8 46.2,-917.4 410.1,-917.4 410.1,-881.8 46.2,-881.8"/>
<polygon fill="none" stroke="black" points="46.2,-881.8 46.2,-917.4 410.1,-917.4 410.1,-881.8 46.2,-881.8"/>
<text text-anchor="start" x="53.2" y="-895.2" font-family="Arial Bold" font-size="18.00">public.featured_carousel_items</text>
<text text-anchor="start" x="278.61" y="-895.2" font-family="Arial" font-size="14.00">    </text>
<text text-anchor="start" x="309.73" y="-895.2" font-family="Arial" font-size="14.00" fill="#666666">[BASE TABLE]</text>
<polygon fill="none" stroke="black" points="46.2,-851 46.2,-881.8 410.1,-881.8 410.1,-851 46.2,-851"/>
<text text-anchor="start" x="53.2" y="-863.2" font-family="Arial" font-size="14.00">id </text>
<text text-anchor="start" x="67.99" y="-863.2" font-family="Arial" font-size="14.00" fill="#666666">[uuid]</text>
<polygon fill="none" stroke="black" points="46.2,-820.2 46.2,-851 410.1,-851 410.1,-820.2 46.2,-820.2"/>
<text text-anchor="start" x="53.2" y="-832.4" font-family="Arial" font-size="14.00">title </text>
<text text-anchor="start" x="78.88" y="-832.4" font-family="Arial" font-size="14.00" fill="#666666">[text]</text>
<polygon fill="none" stroke="black" points="46.2,-789.4 46.2,-820.2 410.1,-820.2 410.1,-789.4 46.2,-789.4"/>
<text text-anchor="start" x="53.2" y="-801.6" font-family="Arial" font-size="14.00">description </text>
<text text-anchor="start" x="124.79" y="-801.6" font-family="Arial" font-size="14.00" fill="#666666">[text]</text>
<polygon fill="none" stroke="black" points="46.2,-758.6 46.2,-789.4 410.1,-789.4 410.1,-758.6 46.2,-758.6"/>
<text text-anchor="start" x="53.2" y="-770.8" font-family="Arial" font-size="14.00">image_url </text>
<text text-anchor="start" x="118.57" y="-770.8" font-family="Arial" font-size="14.00" fill="#666666">[text]</text>
<polygon fill="none" stroke="black" points="46.2,-727.8 46.2,-758.6 410.1,-758.6 410.1,-727.8 46.2,-727.8"/>
<text text-anchor="start" x="53.2" y="-740" font-family="Arial" font-size="14.00">link_type </text>
<text text-anchor="start" x="112.34" y="-740" font-family="Arial" font-size="14.00" fill="#666666">[text]</text>
<polygon fill="none" stroke="black" points="46.2,-697 46.2,-727.8 410.1,-727.8 410.1,-697 46.2,-697"/>
<text text-anchor="start" x="53.2" y="-709.2" font-family="Arial" font-size="14.00">link_value </text>
<text text-anchor="start" x="119.35" y="-709.2" font-family="Arial" font-size="14.00" fill="#666666">[text]</text>
<polygon fill="none" stroke="black" points="46.2,-666.2 46.2,-697 410.1,-697 410.1,-666.2 46.2,-666.2"/>
<text text-anchor="start" x="53.2" y="-678.4" font-family="Arial" font-size="14.00">display_order </text>
<text text-anchor="start" x="141.14" y="-678.4" font-family="Arial" font-size="14.00" fill="#666666">[integer]</text>
<polygon fill="none" stroke="black" points="46.2,-635.4 46.2,-666.2 410.1,-666.2 410.1,-635.4 46.2,-635.4"/>
<text text-anchor="start" x="53.2" y="-647.6" font-family="Arial" font-size="14.00">is_active </text>
<text text-anchor="start" x="111.56" y="-647.6" font-family="Arial" font-size="14.00" fill="#666666">[boolean]</text>
<polygon fill="none" stroke="black" points="46.2,-604.6 46.2,-635.4 410.1,-635.4 410.1,-604.6 46.2,-604.6"/>
<text text-anchor="start" x="53.2" y="-616.8" font-family="Arial" font-size="14.00">starts_at </text>
<text text-anchor="start" x="110.78" y="-616.8" font-family="Arial" font-size="14.00" fill="#666666">[timestamp with time zone]</text>
<polygon fill="none" stroke="black" points="46.2,-573.8 46.2,-604.6 410.1,-604.6 410.1,-573.8 46.2,-573.8"/>
<text text-anchor="start" x="53.2" y="-586" font-family="Arial" font-size="14.00">ends_at </text>
<text text-anchor="start" x="106.91" y="-586" font-family="Arial" font-size="14.00" fill="#666666">[timestamp with time zone]</text>
<polygon fill="none" stroke="black" points="46.2,-543 46.2,-573.8 410.1,-573.8 410.1,-543 46.2,-543"/>
<text text-anchor="start" x="53.2" y="-555.2" font-family="Arial" font-size="14.00">created_at </text>
<text text-anchor="start" x="123.25" y="-555.2" font-family="Arial" font-size="14.00" fill="#666666">[timestamp with time zone]</text>
<polygon fill="none" stroke="black" points="46.2,-512.2 46.2,-543 410.1,-543 410.1,-512.2 46.2,-512.2"/>
<text text-anchor="start" x="53.2" y="-524.4" font-family="Arial" font-size="14.00">updated_at </text>
<text text-anchor="start" x="127.16" y="-524.4" font-family="Arial" font-size="14.00" fill="#666666">[timestamp with time zone]</text>
<polygon fill="none" stroke="black" points="46.2,-481.4 46.2,-512.2 410.1,-512.2 410.1,-481.4 46.2,-481.4"/>
<text text-anchor="start" x="53.2" y="-493.6" font-family="Arial" font-size="14.00">category_id </text>
<text text-anchor="start" x="129.47" y="-493.6" font-family="Arial" font-size="14.00" fill="#666666">[text]</text>
<polygon fill="none" stroke="black" points="46.2,-450.6 46.2,-481.4 410.1,-481.4 410.1,-450.6 46.2,-450.6"/>
<text text-anchor="start" x="53.2" y="-462.8" font-family="Arial" font-size="14.00">content </text>
<text text-anchor="start" x="103.01" y="-462.8" font-family="Arial" font-size="14.00" fill="#666666">[text]</text>
<polygon fill="none" stroke="black" stroke-width="3" points="44.7,-449.1 44.7,-918.9 411.6,-918.9 411.6,-449.1 44.7,-449.1"/>
</g>
<!-- public.categories -->
<g id="node2" class="node">
<title>public.categories</title>
<polygon fill="#efefef" stroke="none" points="97.68,-289.6 97.68,-325.2 358.62,-325.2 358.62,-289.6 97.68,-289.6"/>
<polygon fill="none" stroke="black" points="97.68,-289.6 97.68,-325.2 358.62,-325.2 358.62,-289.6 97.68,-289.6"/>
<text text-anchor="start" x="104.68" y="-303" font-family="Arial Bold" font-size="18.00">public.categories</text>
<text text-anchor="start" x="227.13" y="-303" font-family="Arial" font-size="14.00">    </text>
<text text-anchor="start" x="258.25" y="-303" font-family="Arial" font-size="14.00" fill="#666666">[BASE TABLE]</text>
<polygon fill="none" stroke="black" points="97.68,-258.8 97.68,-289.6 358.62,-289.6 358.62,-258.8 97.68,-258.8"/>
<text text-anchor="start" x="104.68" y="-271" font-family="Arial" font-size="14.00">id </text>
<text text-anchor="start" x="119.47" y="-271" font-family="Arial" font-size="14.00" fill="#666666">[text]</text>
<polygon fill="none" stroke="black" points="97.68,-228 97.68,-258.8 358.62,-258.8 358.62,-228 97.68,-228"/>
<text text-anchor="start" x="104.68" y="-240.2" font-family="Arial" font-size="14.00">slug </text>
<text text-anchor="start" x="134.25" y="-240.2" font-family="Arial" font-size="14.00" fill="#666666">[text]</text>
<polygon fill="none" stroke="black" points="97.68,-197.2 97.68,-228 358.62,-228 358.62,-197.2 97.68,-197.2"/>
<text text-anchor="start" x="104.68" y="-209.4" font-family="Arial" font-size="14.00">name </text>
<text text-anchor="start" x="143.59" y="-209.4" font-family="Arial" font-size="14.00" fill="#666666">[text]</text>
<polygon fill="none" stroke="black" points="97.68,-166.4 97.68,-197.2 358.62,-197.2 358.62,-166.4 97.68,-166.4"/>
<text text-anchor="start" x="104.68" y="-178.6" font-family="Arial" font-size="14.00">name_translations </text>
<text text-anchor="start" x="222.97" y="-178.6" font-family="Arial" font-size="14.00" fill="#666666">[jsonb]</text>
<polygon fill="none" stroke="black" points="97.68,-135.6 97.68,-166.4 358.62,-166.4 358.62,-135.6 97.68,-135.6"/>
<text text-anchor="start" x="104.68" y="-147.8" font-family="Arial" font-size="14.00">display_order </text>
<text text-anchor="start" x="192.62" y="-147.8" font-family="Arial" font-size="14.00" fill="#666666">[integer]</text>
<polygon fill="none" stroke="black" points="97.68,-104.8 97.68,-135.6 358.62,-135.6 358.62,-104.8 97.68,-104.8"/>
<text text-anchor="start" x="104.68" y="-117" font-family="Arial" font-size="14.00">is_active </text>
<text text-anchor="start" x="163.04" y="-117" font-family="Arial" font-size="14.00" fill="#666666">[boolean]</text>
<polygon fill="none" stroke="black" points="97.68,-74 97.68,-104.8 358.62,-104.8 358.62,-74 97.68,-74"/>
<text text-anchor="start" x="104.68" y="-86.2" font-family="Arial" font-size="14.00">created_at </text>
<text text-anchor="start" x="174.73" y="-86.2" font-family="Arial" font-size="14.00" fill="#666666">[timestamp with time zone]</text>
<polygon fill="none" stroke="black" points="97.68,-43.2 97.68,-74 358.62,-74 358.62,-43.2 97.68,-43.2"/>
<text text-anchor="start" x="104.68" y="-55.4" font-family="Arial" font-size="14.00">updated_at </text>
<text text-anchor="start" x="178.64" y="-55.4" font-family="Arial" font-size="14.00" fill="#666666">[timestamp with time zone]</text>
</g>
<!-- public.featured_carousel_items&#45;&gt;public.categories -->
<g id="edge1" class="edge">
<title>public.featured_carousel_items:category_id&#45;&gt;public.categories:id</title>
<path fill="none" stroke="black" d="M421.25,-495.99C508.97,-481.42 457.6,-274.2 359.62,-274.2"/>
<polygon fill="black" stroke="black" points="421.4,-495.98 411.08,-492.29 416.09,-496.4 411.77,-496.75 411.77,-496.75 411.77,-496.75 416.09,-496.4 411.79,-501.26 421.4,-495.98"/>
<text text-anchor="start" x="418.1" y="-506.8" font-family="Arial" font-size="10.00">FOREIGN KEY (category_id) REFERENCES categories(id) ON DELETE SET NULL</text>
</g>
</g>
</svg>
