<?xml version="1.0" encoding="UTF-8" standalone="no"?>
<!DOCTYPE svg PUBLIC "-//W3C//DTD SVG 1.1//EN"
 "http://www.w3.org/Graphics/SVG/1.1/DTD/svg11.dtd">
<!-- Generated by graphviz version 12.1.2 (20240928.0832)
 -->
<!-- Title: public.images Pages: 1 -->
<svg width="708pt" height="1434pt"
 viewBox="0.00 0.00 707.92 1433.60" xmlns="http://www.w3.org/2000/svg" xmlns:xlink="http://www.w3.org/1999/xlink">
<g id="graph0" class="graph" transform="scale(1 1) rotate(0) translate(4 1429.6)">
<title>public.images</title>
<polygon fill="white" stroke="none" points="-4,4 -4,-1429.6 703.92,-1429.6 703.92,4 -4,4"/>
<!-- public.images -->
<g id="node1" class="node">
<title>public.images</title>
<polygon fill="#efefef" stroke="none" points="48.35,-1343.8 48.35,-1379.4 302.03,-1379.4 302.03,-1343.8 48.35,-1343.8"/>
<polygon fill="none" stroke="black" points="48.35,-1343.8 48.35,-1379.4 302.03,-1379.4 302.03,-1343.8 48.35,-1343.8"/>
<text text-anchor="start" x="62.71" y="-1357.2" font-family="Arial Bold" font-size="18.00">public.images</text>
<text text-anchor="start" x="163.18" y="-1357.2" font-family="Arial" font-size="14.00">    </text>
<text text-anchor="start" x="194.3" y="-1357.2" font-family="Arial" font-size="14.00" fill="#666666">[BASE TABLE]</text>
<polygon fill="none" stroke="black" points="48.35,-1313 48.35,-1343.8 302.03,-1343.8 302.03,-1313 48.35,-1313"/>
<text text-anchor="start" x="55.35" y="-1325.2" font-family="Arial" font-size="14.00">id </text>
<text text-anchor="start" x="70.14" y="-1325.2" font-family="Arial" font-size="14.00" fill="#666666">[uuid]</text>
<polygon fill="none" stroke="black" points="48.35,-1282.2 48.35,-1313 302.03,-1313 302.03,-1282.2 48.35,-1282.2"/>
<text text-anchor="start" x="55.35" y="-1294.4" font-family="Arial" font-size="14.00">user_spot_id </text>
<text text-anchor="start" x="139.4" y="-1294.4" font-family="Arial" font-size="14.00" fill="#666666">[uuid]</text>
<polygon fill="none" stroke="black" points="48.35,-1251.4 48.35,-1282.2 302.03,-1282.2 302.03,-1251.4 48.35,-1251.4"/>
<text text-anchor="start" x="55.35" y="-1263.6" font-family="Arial" font-size="14.00">local_path </text>
<text text-anchor="start" x="123.07" y="-1263.6" font-family="Arial" font-size="14.00" fill="#666666">[text]</text>
<polygon fill="none" stroke="black" points="48.35,-1220.6 48.35,-1251.4 302.03,-1251.4 302.03,-1220.6 48.35,-1220.6"/>
<text text-anchor="start" x="55.35" y="-1232.8" font-family="Arial" font-size="14.00">cloud_path </text>
<text text-anchor="start" x="127.74" y="-1232.8" font-family="Arial" font-size="14.00" fill="#666666">[text]</text>
<polygon fill="none" stroke="black" points="48.35,-1189.8 48.35,-1220.6 302.03,-1220.6 302.03,-1189.8 48.35,-1189.8"/>
<text text-anchor="start" x="55.35" y="-1202" font-family="Arial" font-size="14.00">width </text>
<text text-anchor="start" x="91.92" y="-1202" font-family="Arial" font-size="14.00" fill="#666666">[integer]</text>
<polygon fill="none" stroke="black" points="48.35,-1159 48.35,-1189.8 302.03,-1189.8 302.03,-1159 48.35,-1159"/>
<text text-anchor="start" x="55.35" y="-1171.2" font-family="Arial" font-size="14.00">height </text>
<text text-anchor="start" x="97.38" y="-1171.2" font-family="Arial" font-size="14.00" fill="#666666">[integer]</text>
<polygon fill="none" stroke="black" points="48.35,-1128.2 48.35,-1159 302.03,-1159 302.03,-1128.2 48.35,-1128.2"/>
<text text-anchor="start" x="55.35" y="-1140.4" font-family="Arial" font-size="14.00">file_size </text>
<text text-anchor="start" x="109.82" y="-1140.4" font-family="Arial" font-size="14.00" fill="#666666">[integer]</text>
<polygon fill="none" stroke="black" points="48.35,-1097.4 48.35,-1128.2 302.03,-1128.2 302.03,-1097.4 48.35,-1097.4"/>
<text text-anchor="start" x="55.35" y="-1109.6" font-family="Arial" font-size="14.00">order_index </text>
<text text-anchor="start" x="133.18" y="-1109.6" font-family="Arial" font-size="14.00" fill="#666666">[integer]</text>
<polygon fill="none" stroke="black" points="48.35,-1066.6 48.35,-1097.4 302.03,-1097.4 302.03,-1066.6 48.35,-1066.6"/>
<text text-anchor="start" x="55.35" y="-1078.8" font-family="Arial" font-size="14.00">created_at </text>
<text text-anchor="start" x="125.4" y="-1078.8" font-family="Arial" font-size="14.00" fill="#666666">[timestamp with time zone]</text>
<polygon fill="none" stroke="black" points="48.35,-1035.8 48.35,-1066.6 302.03,-1066.6 302.03,-1035.8 48.35,-1035.8"/>
<text text-anchor="start" x="55.35" y="-1048" font-family="Arial" font-size="14.00">updated_at </text>
<text text-anchor="start" x="129.31" y="-1048" font-family="Arial" font-size="14.00" fill="#666666">[timestamp with time zone]</text>
<polygon fill="none" stroke="black" stroke-width="3" points="46.85,-1034.3 46.85,-1380.9 303.53,-1380.9 303.53,-1034.3 46.85,-1034.3"/>
</g>
<!-- public.user_spots -->
<g id="node2" class="node">
<title>public.user_spots</title>
<polygon fill="#efefef" stroke="none" points="43.2,-874.8 43.2,-910.4 307.18,-910.4 307.18,-874.8 43.2,-874.8"/>
<polygon fill="none" stroke="black" points="43.2,-874.8 43.2,-910.4 307.18,-910.4 307.18,-874.8 43.2,-874.8"/>
<text text-anchor="start" x="50.2" y="-888.2" font-family="Arial Bold" font-size="18.00">public.user_spots</text>
<text text-anchor="start" x="175.69" y="-888.2" font-family="Arial" font-size="14.00">    </text>
<text text-anchor="start" x="206.81" y="-888.2" font-family="Arial" font-size="14.00" fill="#666666">[BASE TABLE]</text>
<polygon fill="none" stroke="black" points="43.2,-844 43.2,-874.8 307.18,-874.8 307.18,-844 43.2,-844"/>
<text text-anchor="start" x="50.2" y="-856.2" font-family="Arial" font-size="14.00">id </text>
<text text-anchor="start" x="64.99" y="-856.2" font-family="Arial" font-size="14.00" fill="#666666">[uuid]</text>
<polygon fill="none" stroke="black" points="43.2,-813.2 43.2,-844 307.18,-844 307.18,-813.2 43.2,-813.2"/>
<text text-anchor="start" x="50.2" y="-825.4" font-family="Arial" font-size="14.00">user_id </text>
<text text-anchor="start" x="100.01" y="-825.4" font-family="Arial" font-size="14.00" fill="#666666">[uuid]</text>
<polygon fill="none" stroke="black" points="43.2,-782.4 43.2,-813.2 307.18,-813.2 307.18,-782.4 43.2,-782.4"/>
<text text-anchor="start" x="50.2" y="-794.6" font-family="Arial" font-size="14.00">map_id </text>
<text text-anchor="start" x="100.01" y="-794.6" font-family="Arial" font-size="14.00" fill="#666666">[uuid]</text>
<polygon fill="none" stroke="black" points="43.2,-751.6 43.2,-782.4 307.18,-782.4 307.18,-751.6 43.2,-751.6"/>
<text text-anchor="start" x="50.2" y="-763.8" font-family="Arial" font-size="14.00">master_spot_id </text>
<text text-anchor="start" x="149.81" y="-763.8" font-family="Arial" font-size="14.00" fill="#666666">[uuid]</text>
<polygon fill="none" stroke="black" points="43.2,-720.8 43.2,-751.6 307.18,-751.6 307.18,-720.8 43.2,-720.8"/>
<text text-anchor="start" x="50.2" y="-733" font-family="Arial" font-size="14.00">machi_id </text>
<text text-anchor="start" x="110.12" y="-733" font-family="Arial" font-size="14.00" fill="#666666">[text]</text>
<polygon fill="none" stroke="black" points="43.2,-690 43.2,-720.8 307.18,-720.8 307.18,-690 43.2,-690"/>
<text text-anchor="start" x="50.2" y="-702.2" font-family="Arial" font-size="14.00">custom_name </text>
<text text-anchor="start" x="142.02" y="-702.2" font-family="Arial" font-size="14.00" fill="#666666">[text]</text>
<polygon fill="none" stroke="black" points="43.2,-659.2 43.2,-690 307.18,-690 307.18,-659.2 43.2,-659.2"/>
<text text-anchor="start" x="50.2" y="-671.4" font-family="Arial" font-size="14.00">description </text>
<text text-anchor="start" x="121.79" y="-671.4" font-family="Arial" font-size="14.00" fill="#666666">[text]</text>
<polygon fill="none" stroke="black" points="43.2,-628.4 43.2,-659.2 307.18,-659.2 307.18,-628.4 43.2,-628.4"/>
<text text-anchor="start" x="50.2" y="-640.6" font-family="Arial" font-size="14.00">images_count </text>
<text text-anchor="start" x="141.25" y="-640.6" font-family="Arial" font-size="14.00" fill="#666666">[integer]</text>
<polygon fill="none" stroke="black" points="43.2,-597.6 43.2,-628.4 307.18,-628.4 307.18,-597.6 43.2,-597.6"/>
<text text-anchor="start" x="50.2" y="-609.8" font-family="Arial" font-size="14.00">likes_count </text>
<text text-anchor="start" x="124.13" y="-609.8" font-family="Arial" font-size="14.00" fill="#666666">[integer]</text>
<polygon fill="none" stroke="black" points="43.2,-566.8 43.2,-597.6 307.18,-597.6 307.18,-566.8 43.2,-566.8"/>
<text text-anchor="start" x="50.2" y="-579" font-family="Arial" font-size="14.00">comments_count </text>
<text text-anchor="start" x="160.7" y="-579" font-family="Arial" font-size="14.00" fill="#666666">[integer]</text>
<polygon fill="none" stroke="black" points="43.2,-536 43.2,-566.8 307.18,-566.8 307.18,-536 43.2,-536"/>
<text text-anchor="start" x="50.2" y="-548.2" font-family="Arial" font-size="14.00">order_index </text>
<text text-anchor="start" x="128.03" y="-548.2" font-family="Arial" font-size="14.00" fill="#666666">[integer]</text>
<polygon fill="none" stroke="black" points="43.2,-505.2 43.2,-536 307.18,-536 307.18,-505.2 43.2,-505.2"/>
<text text-anchor="start" x="50.2" y="-517.4" font-family="Arial" font-size="14.00">created_at </text>
<text text-anchor="start" x="120.25" y="-517.4" font-family="Arial" font-size="14.00" fill="#666666">[timestamp with time zone]</text>
<polygon fill="none" stroke="black" points="43.2,-474.4 43.2,-505.2 307.18,-505.2 307.18,-474.4 43.2,-474.4"/>
<text text-anchor="start" x="50.2" y="-486.6" font-family="Arial" font-size="14.00">updated_at </text>
<text text-anchor="start" x="124.16" y="-486.6" font-family="Arial" font-size="14.00" fill="#666666">[timestamp with time zone]</text>
<polygon fill="none" stroke="black" points="43.2,-443.6 43.2,-474.4 307.18,-474.4 307.18,-443.6 43.2,-443.6"/>
<text text-anchor="start" x="50.2" y="-455.8" font-family="Arial" font-size="14.00">article_content </text>
<text text-anchor="start" x="145.14" y="-455.8" font-family="Arial" font-size="14.00" fill="#666666">[jsonb]</text>
<polygon fill="none" stroke="black" points="43.2,-412.8 43.2,-443.6 307.18,-443.6 307.18,-412.8 43.2,-412.8"/>
<text text-anchor="start" x="50.2" y="-425" font-family="Arial" font-size="14.00">latitude </text>
<text text-anchor="start" x="99.23" y="-425" font-family="Arial" font-size="14.00" fill="#666666">[double precision]</text>
<polygon fill="none" stroke="black" points="43.2,-382 43.2,-412.8 307.18,-412.8 307.18,-382 43.2,-382"/>
<text text-anchor="start" x="50.2" y="-394.2" font-family="Arial" font-size="14.00">longitude </text>
<text text-anchor="start" x="110.92" y="-394.2" font-family="Arial" font-size="14.00" fill="#666666">[double precision]</text>
<polygon fill="none" stroke="black" points="43.2,-351.2 43.2,-382 307.18,-382 307.18,-351.2 43.2,-351.2"/>
<text text-anchor="start" x="50.2" y="-363.4" font-family="Arial" font-size="14.00">google_formatted_address </text>
<text text-anchor="start" x="220.65" y="-363.4" font-family="Arial" font-size="14.00" fill="#666666">[text]</text>
<polygon fill="none" stroke="black" points="43.2,-320.4 43.2,-351.2 307.18,-351.2 307.18,-320.4 43.2,-320.4"/>
<text text-anchor="start" x="50.2" y="-332.6" font-family="Arial" font-size="14.00">google_short_address </text>
<text text-anchor="start" x="192.63" y="-332.6" font-family="Arial" font-size="14.00" fill="#666666">[text]</text>
<polygon fill="none" stroke="black" points="43.2,-289.6 43.2,-320.4 307.18,-320.4 307.18,-289.6 43.2,-289.6"/>
<text text-anchor="start" x="50.2" y="-301.8" font-family="Arial" font-size="14.00">bookmarks_count </text>
<text text-anchor="start" x="164.59" y="-301.8" font-family="Arial" font-size="14.00" fill="#666666">[integer]</text>
<polygon fill="none" stroke="black" points="43.2,-258.8 43.2,-289.6 307.18,-289.6 307.18,-258.8 43.2,-258.8"/>
<text text-anchor="start" x="50.2" y="-271" font-family="Arial" font-size="14.00">prefecture_id </text>
<text text-anchor="start" x="135.81" y="-271" font-family="Arial" font-size="14.00" fill="#666666">[text]</text>
<polygon fill="none" stroke="black" points="43.2,-228 43.2,-258.8 307.18,-258.8 307.18,-228 43.2,-228"/>
<text text-anchor="start" x="50.2" y="-240.2" font-family="Arial" font-size="14.00">color </text>
<text text-anchor="start" x="84.43" y="-240.2" font-family="Arial" font-size="14.00" fill="#666666">[text]</text>
<polygon fill="none" stroke="black" points="43.2,-197.2 43.2,-228 307.18,-228 307.18,-197.2 43.2,-197.2"/>
<text text-anchor="start" x="50.2" y="-209.4" font-family="Arial" font-size="14.00">spot_color </text>
<text text-anchor="start" x="118.68" y="-209.4" font-family="Arial" font-size="14.00" fill="#666666">[text]</text>
<polygon fill="none" stroke="black" points="43.2,-166.4 43.2,-197.2 307.18,-197.2 307.18,-166.4 43.2,-166.4"/>
<text text-anchor="start" x="50.2" y="-178.6" font-family="Arial" font-size="14.00">label_id </text>
<text text-anchor="start" x="102.35" y="-178.6" font-family="Arial" font-size="14.00" fill="#666666">[uuid]</text>
<polygon fill="none" stroke="black" points="43.2,-135.6 43.2,-166.4 307.18,-166.4 307.18,-135.6 43.2,-135.6"/>
<text text-anchor="start" x="50.2" y="-147.8" font-family="Arial" font-size="14.00">city_id </text>
<text text-anchor="start" x="93.77" y="-147.8" font-family="Arial" font-size="14.00" fill="#666666">[text]</text>
<polygon fill="none" stroke="black" points="43.2,-104.8 43.2,-135.6 307.18,-135.6 307.18,-104.8 43.2,-104.8"/>
<text text-anchor="start" x="50.2" y="-117" font-family="Arial" font-size="14.00">prefecture_name </text>
<text text-anchor="start" x="159.93" y="-117" font-family="Arial" font-size="14.00" fill="#666666">[text]</text>
<polygon fill="none" stroke="black" points="43.2,-74 43.2,-104.8 307.18,-104.8 307.18,-74 43.2,-74"/>
<text text-anchor="start" x="50.2" y="-86.2" font-family="Arial" font-size="14.00">city_name </text>
<text text-anchor="start" x="117.9" y="-86.2" font-family="Arial" font-size="14.00" fill="#666666">[text]</text>
<polygon fill="none" stroke="black" points="43.2,-43.2 43.2,-74 307.18,-74 307.18,-43.2 43.2,-43.2"/>
<text text-anchor="start" x="50.2" y="-55.4" font-family="Arial" font-size="14.00">machi_name </text>
<text text-anchor="start" x="134.24" y="-55.4" font-family="Arial" font-size="14.00" fill="#666666">[text]</text>
</g>
<!-- public.images&#45;&gt;public.user_spots -->
<g id="edge1" class="edge">
<title>public.images:user_spot_id&#45;&gt;public.user_spots:id</title>
<path fill="none" stroke="black" d="M313.23,-1295.93C400.65,-1266.51 402.05,-859.4 308.18,-859.4"/>
<polygon fill="black" stroke="black" points="313.23,-1295.92 302.63,-1293.11 307.96,-1296.79 303.69,-1297.49 303.69,-1297.49 303.69,-1297.49 307.96,-1296.79 304.09,-1301.99 313.23,-1295.92"/>
<text text-anchor="start" x="310.03" y="-1307.6" font-family="Arial" font-size="10.00">FOREIGN KEY (user_spot_id) REFERENCES user_spots(id) ON DELETE CASCADE</text>
</g>
</g>
</svg>
