<?xml version="1.0" encoding="UTF-8" standalone="no"?>
<!DOCTYPE svg PUBLIC "-//W3C//DTD SVG 1.1//EN"
 "http://www.w3.org/Graphics/SVG/1.1/DTD/svg11.dtd">
<!-- Generated by graphviz version 12.1.2 (20240928.0832)
 -->
<!-- Title: public.notifications Pages: 1 -->
<svg width="1520pt" height="1434pt"
 viewBox="0.00 0.00 1520.31 1433.60" xmlns="http://www.w3.org/2000/svg" xmlns:xlink="http://www.w3.org/1999/xlink">
<g id="graph0" class="graph" transform="scale(1 1) rotate(0) translate(4 1429.6)">
<title>public.notifications</title>
<polygon fill="white" stroke="none" points="-4,4 -4,-1429.6 1516.31,-1429.6 1516.31,4 -4,4"/>
<!-- public.notifications -->
<g id="node1" class="node">
<title>public.notifications</title>
<polygon fill="#efefef" stroke="none" points="474.15,-1343.8 474.15,-1379.4 752.11,-1379.4 752.11,-1343.8 474.15,-1343.8"/>
<polygon fill="none" stroke="black" points="474.15,-1343.8 474.15,-1379.4 752.11,-1379.4 752.11,-1343.8 474.15,-1343.8"/>
<text text-anchor="start" x="481.15" y="-1357.2" font-family="Arial Bold" font-size="18.00">public.notifications</text>
<text text-anchor="start" x="620.62" y="-1357.2" font-family="Arial" font-size="14.00">    </text>
<text text-anchor="start" x="651.74" y="-1357.2" font-family="Arial" font-size="14.00" fill="#666666">[BASE TABLE]</text>
<polygon fill="none" stroke="black" points="474.15,-1313 474.15,-1343.8 752.11,-1343.8 752.11,-1313 474.15,-1313"/>
<text text-anchor="start" x="481.15" y="-1325.2" font-family="Arial" font-size="14.00">id </text>
<text text-anchor="start" x="495.93" y="-1325.2" font-family="Arial" font-size="14.00" fill="#666666">[uuid]</text>
<polygon fill="none" stroke="black" points="474.15,-1282.2 474.15,-1313 752.11,-1313 752.11,-1282.2 474.15,-1282.2"/>
<text text-anchor="start" x="481.15" y="-1294.4" font-family="Arial" font-size="14.00">user_id </text>
<text text-anchor="start" x="530.96" y="-1294.4" font-family="Arial" font-size="14.00" fill="#666666">[uuid]</text>
<polygon fill="none" stroke="black" points="474.15,-1251.4 474.15,-1282.2 752.11,-1282.2 752.11,-1251.4 474.15,-1251.4"/>
<text text-anchor="start" x="481.15" y="-1263.6" font-family="Arial" font-size="14.00">actor_id </text>
<text text-anchor="start" x="534.85" y="-1263.6" font-family="Arial" font-size="14.00" fill="#666666">[uuid]</text>
<polygon fill="none" stroke="black" points="474.15,-1220.6 474.15,-1251.4 752.11,-1251.4 752.11,-1220.6 474.15,-1220.6"/>
<text text-anchor="start" x="481.15" y="-1232.8" font-family="Arial" font-size="14.00">type </text>
<text text-anchor="start" x="511.5" y="-1232.8" font-family="Arial" font-size="14.00" fill="#666666">[text]</text>
<polygon fill="none" stroke="black" points="474.15,-1189.8 474.15,-1220.6 752.11,-1220.6 752.11,-1189.8 474.15,-1189.8"/>
<text text-anchor="start" x="481.15" y="-1202" font-family="Arial" font-size="14.00">user_spot_id </text>
<text text-anchor="start" x="565.2" y="-1202" font-family="Arial" font-size="14.00" fill="#666666">[uuid]</text>
<polygon fill="none" stroke="black" points="474.15,-1159 474.15,-1189.8 752.11,-1189.8 752.11,-1159 474.15,-1159"/>
<text text-anchor="start" x="481.15" y="-1171.2" font-family="Arial" font-size="14.00">map_id </text>
<text text-anchor="start" x="530.96" y="-1171.2" font-family="Arial" font-size="14.00" fill="#666666">[uuid]</text>
<polygon fill="none" stroke="black" points="474.15,-1128.2 474.15,-1159 752.11,-1159 752.11,-1128.2 474.15,-1128.2"/>
<text text-anchor="start" x="481.15" y="-1140.4" font-family="Arial" font-size="14.00">comment_id </text>
<text text-anchor="start" x="561.29" y="-1140.4" font-family="Arial" font-size="14.00" fill="#666666">[uuid]</text>
<polygon fill="none" stroke="black" points="474.15,-1097.4 474.15,-1128.2 752.11,-1128.2 752.11,-1097.4 474.15,-1097.4"/>
<text text-anchor="start" x="481.15" y="-1109.6" font-family="Arial" font-size="14.00">content </text>
<text text-anchor="start" x="530.96" y="-1109.6" font-family="Arial" font-size="14.00" fill="#666666">[text]</text>
<polygon fill="none" stroke="black" points="474.15,-1066.6 474.15,-1097.4 752.11,-1097.4 752.11,-1066.6 474.15,-1066.6"/>
<text text-anchor="start" x="481.15" y="-1078.8" font-family="Arial" font-size="14.00">is_read </text>
<text text-anchor="start" x="530.96" y="-1078.8" font-family="Arial" font-size="14.00" fill="#666666">[boolean]</text>
<polygon fill="none" stroke="black" points="474.15,-1035.8 474.15,-1066.6 752.11,-1066.6 752.11,-1035.8 474.15,-1035.8"/>
<text text-anchor="start" x="481.15" y="-1048" font-family="Arial" font-size="14.00">created_at </text>
<text text-anchor="start" x="551.2" y="-1048" font-family="Arial" font-size="14.00" fill="#666666">[timestamp with time zone]</text>
<polygon fill="none" stroke="black" stroke-width="3" points="472.65,-1034.3 472.65,-1380.9 753.61,-1380.9 753.61,-1034.3 472.65,-1034.3"/>
</g>
<!-- public.users -->
<g id="node2" class="node">
<title>public.users</title>
<polygon fill="#efefef" stroke="none" points="43.2,-659.2 43.2,-694.8 377.06,-694.8 377.06,-659.2 43.2,-659.2"/>
<polygon fill="none" stroke="black" points="43.2,-659.2 43.2,-694.8 377.06,-694.8 377.06,-659.2 43.2,-659.2"/>
<text text-anchor="start" x="104.64" y="-672.6" font-family="Arial Bold" font-size="18.00">public.users</text>
<text text-anchor="start" x="191.13" y="-672.6" font-family="Arial" font-size="14.00">    </text>
<text text-anchor="start" x="222.24" y="-672.6" font-family="Arial" font-size="14.00" fill="#666666">[BASE TABLE]</text>
<polygon fill="none" stroke="black" points="43.2,-628.4 43.2,-659.2 377.06,-659.2 377.06,-628.4 43.2,-628.4"/>
<text text-anchor="start" x="50.2" y="-640.6" font-family="Arial" font-size="14.00">id </text>
<text text-anchor="start" x="64.99" y="-640.6" font-family="Arial" font-size="14.00" fill="#666666">[uuid]</text>
<polygon fill="none" stroke="black" points="43.2,-597.6 43.2,-628.4 377.06,-628.4 377.06,-597.6 43.2,-597.6"/>
<text text-anchor="start" x="50.2" y="-609.8" font-family="Arial" font-size="14.00">email </text>
<text text-anchor="start" x="87.54" y="-609.8" font-family="Arial" font-size="14.00" fill="#666666">[text]</text>
<polygon fill="none" stroke="black" points="43.2,-566.8 43.2,-597.6 377.06,-597.6 377.06,-566.8 43.2,-566.8"/>
<text text-anchor="start" x="50.2" y="-579" font-family="Arial" font-size="14.00">username </text>
<text text-anchor="start" x="116.34" y="-579" font-family="Arial" font-size="14.00" fill="#666666">[text]</text>
<polygon fill="none" stroke="black" points="43.2,-536 43.2,-566.8 377.06,-566.8 377.06,-536 43.2,-536"/>
<text text-anchor="start" x="50.2" y="-548.2" font-family="Arial" font-size="14.00">display_name </text>
<text text-anchor="start" x="140.48" y="-548.2" font-family="Arial" font-size="14.00" fill="#666666">[text]</text>
<polygon fill="none" stroke="black" points="43.2,-505.2 43.2,-536 377.06,-536 377.06,-505.2 43.2,-505.2"/>
<text text-anchor="start" x="50.2" y="-517.4" font-family="Arial" font-size="14.00">avatar_url </text>
<text text-anchor="start" x="116.34" y="-517.4" font-family="Arial" font-size="14.00" fill="#666666">[text]</text>
<polygon fill="none" stroke="black" points="43.2,-474.4 43.2,-505.2 377.06,-505.2 377.06,-474.4 43.2,-474.4"/>
<text text-anchor="start" x="50.2" y="-486.6" font-family="Arial" font-size="14.00">bio </text>
<text text-anchor="start" x="72.77" y="-486.6" font-family="Arial" font-size="14.00" fill="#666666">[text]</text>
<polygon fill="none" stroke="black" points="43.2,-443.6 43.2,-474.4 377.06,-474.4 377.06,-443.6 43.2,-443.6"/>
<text text-anchor="start" x="50.2" y="-455.8" font-family="Arial" font-size="14.00">is_premium </text>
<text text-anchor="start" x="126.44" y="-455.8" font-family="Arial" font-size="14.00" fill="#666666">[boolean]</text>
<polygon fill="none" stroke="black" points="43.2,-412.8 43.2,-443.6 377.06,-443.6 377.06,-412.8 43.2,-412.8"/>
<text text-anchor="start" x="50.2" y="-425" font-family="Arial" font-size="14.00">premium_started_at </text>
<text text-anchor="start" x="178.59" y="-425" font-family="Arial" font-size="14.00" fill="#666666">[timestamp with time zone]</text>
<polygon fill="none" stroke="black" points="43.2,-382 43.2,-412.8 377.06,-412.8 377.06,-382 43.2,-382"/>
<text text-anchor="start" x="50.2" y="-394.2" font-family="Arial" font-size="14.00">premium_expires_at </text>
<text text-anchor="start" x="180.92" y="-394.2" font-family="Arial" font-size="14.00" fill="#666666">[timestamp with time zone]</text>
<polygon fill="none" stroke="black" points="43.2,-351.2 43.2,-382 377.06,-382 377.06,-351.2 43.2,-351.2"/>
<text text-anchor="start" x="50.2" y="-363.4" font-family="Arial" font-size="14.00">created_at </text>
<text text-anchor="start" x="120.25" y="-363.4" font-family="Arial" font-size="14.00" fill="#666666">[timestamp with time zone]</text>
<polygon fill="none" stroke="black" points="43.2,-320.4 43.2,-351.2 377.06,-351.2 377.06,-320.4 43.2,-320.4"/>
<text text-anchor="start" x="50.2" y="-332.6" font-family="Arial" font-size="14.00">updated_at </text>
<text text-anchor="start" x="124.16" y="-332.6" font-family="Arial" font-size="14.00" fill="#666666">[timestamp with time zone]</text>
<polygon fill="none" stroke="black" points="43.2,-289.6 43.2,-320.4 377.06,-320.4 377.06,-289.6 43.2,-289.6"/>
<text text-anchor="start" x="50.2" y="-301.8" font-family="Arial" font-size="14.00">push_token </text>
<text text-anchor="start" x="126.48" y="-301.8" font-family="Arial" font-size="14.00" fill="#666666">[text]</text>
<polygon fill="none" stroke="black" points="43.2,-258.8 43.2,-289.6 377.06,-289.6 377.06,-258.8 43.2,-258.8"/>
<text text-anchor="start" x="50.2" y="-271" font-family="Arial" font-size="14.00">push_token_updated_at </text>
<text text-anchor="start" x="204.34" y="-271" font-family="Arial" font-size="14.00" fill="#666666">[timestamp with time zone]</text>
</g>
<!-- public.notifications&#45;&gt;public.users -->
<g id="edge1" class="edge">
<title>public.notifications:user_id&#45;&gt;public.users:id</title>
<path fill="none" stroke="black" d="M463.62,-1293.42C404.31,-1237.74 448.03,-643.8 378.06,-643.8"/>
<polygon fill="black" stroke="black" points="463.68,-1293.45 471.04,-1301.59 468.57,-1295.59 472.54,-1297.33 472.54,-1297.33 472.54,-1297.33 468.57,-1295.59 474.65,-1293.34 463.68,-1293.45"/>
<text text-anchor="start" x="132.19" y="-1307.6" font-family="Arial" font-size="10.00">FOREIGN KEY (user_id) REFERENCES users(id) ON DELETE CASCADE</text>
</g>
<!-- public.notifications&#45;&gt;public.users -->
<g id="edge2" class="edge">
<title>public.notifications:actor_id&#45;&gt;public.users:id</title>
<path fill="none" stroke="black" d="M463.69,-1262.49C407.24,-1207.45 444.67,-643.8 378.06,-643.8"/>
<polygon fill="black" stroke="black" points="463.74,-1262.52 470.98,-1270.76 468.6,-1264.73 472.54,-1266.52 472.54,-1266.52 472.54,-1266.52 468.6,-1264.73 474.71,-1262.57 463.74,-1262.52"/>
<text text-anchor="start" x="129.41" y="-1276.8" font-family="Arial" font-size="10.00">FOREIGN KEY (actor_id) REFERENCES users(id) ON DELETE CASCADE</text>
</g>
<!-- public.user_spots -->
<g id="node3" class="node">
<title>public.user_spots</title>
<polygon fill="#efefef" stroke="none" points="481.14,-874.8 481.14,-910.4 745.12,-910.4 745.12,-874.8 481.14,-874.8"/>
<polygon fill="none" stroke="black" points="481.14,-874.8 481.14,-910.4 745.12,-910.4 745.12,-874.8 481.14,-874.8"/>
<text text-anchor="start" x="488.14" y="-888.2" font-family="Arial Bold" font-size="18.00">public.user_spots</text>
<text text-anchor="start" x="613.63" y="-888.2" font-family="Arial" font-size="14.00">    </text>
<text text-anchor="start" x="644.75" y="-888.2" font-family="Arial" font-size="14.00" fill="#666666">[BASE TABLE]</text>
<polygon fill="none" stroke="black" points="481.14,-844 481.14,-874.8 745.12,-874.8 745.12,-844 481.14,-844"/>
<text text-anchor="start" x="488.14" y="-856.2" font-family="Arial" font-size="14.00">id </text>
<text text-anchor="start" x="502.93" y="-856.2" font-family="Arial" font-size="14.00" fill="#666666">[uuid]</text>
<polygon fill="none" stroke="black" points="481.14,-813.2 481.14,-844 745.12,-844 745.12,-813.2 481.14,-813.2"/>
<text text-anchor="start" x="488.14" y="-825.4" font-family="Arial" font-size="14.00">user_id </text>
<text text-anchor="start" x="537.95" y="-825.4" font-family="Arial" font-size="14.00" fill="#666666">[uuid]</text>
<polygon fill="none" stroke="black" points="481.14,-782.4 481.14,-813.2 745.12,-813.2 745.12,-782.4 481.14,-782.4"/>
<text text-anchor="start" x="488.14" y="-794.6" font-family="Arial" font-size="14.00">map_id </text>
<text text-anchor="start" x="537.95" y="-794.6" font-family="Arial" font-size="14.00" fill="#666666">[uuid]</text>
<polygon fill="none" stroke="black" points="481.14,-751.6 481.14,-782.4 745.12,-782.4 745.12,-751.6 481.14,-751.6"/>
<text text-anchor="start" x="488.14" y="-763.8" font-family="Arial" font-size="14.00">master_spot_id </text>
<text text-anchor="start" x="587.75" y="-763.8" font-family="Arial" font-size="14.00" fill="#666666">[uuid]</text>
<polygon fill="none" stroke="black" points="481.14,-720.8 481.14,-751.6 745.12,-751.6 745.12,-720.8 481.14,-720.8"/>
<text text-anchor="start" x="488.14" y="-733" font-family="Arial" font-size="14.00">machi_id </text>
<text text-anchor="start" x="548.06" y="-733" font-family="Arial" font-size="14.00" fill="#666666">[text]</text>
<polygon fill="none" stroke="black" points="481.14,-690 481.14,-720.8 745.12,-720.8 745.12,-690 481.14,-690"/>
<text text-anchor="start" x="488.14" y="-702.2" font-family="Arial" font-size="14.00">custom_name </text>
<text text-anchor="start" x="579.96" y="-702.2" font-family="Arial" font-size="14.00" fill="#666666">[text]</text>
<polygon fill="none" stroke="black" points="481.14,-659.2 481.14,-690 745.12,-690 745.12,-659.2 481.14,-659.2"/>
<text text-anchor="start" x="488.14" y="-671.4" font-family="Arial" font-size="14.00">description </text>
<text text-anchor="start" x="559.73" y="-671.4" font-family="Arial" font-size="14.00" fill="#666666">[text]</text>
<polygon fill="none" stroke="black" points="481.14,-628.4 481.14,-659.2 745.12,-659.2 745.12,-628.4 481.14,-628.4"/>
<text text-anchor="start" x="488.14" y="-640.6" font-family="Arial" font-size="14.00">images_count </text>
<text text-anchor="start" x="579.2" y="-640.6" font-family="Arial" font-size="14.00" fill="#666666">[integer]</text>
<polygon fill="none" stroke="black" points="481.14,-597.6 481.14,-628.4 745.12,-628.4 745.12,-597.6 481.14,-597.6"/>
<text text-anchor="start" x="488.14" y="-609.8" font-family="Arial" font-size="14.00">likes_count </text>
<text text-anchor="start" x="562.07" y="-609.8" font-family="Arial" font-size="14.00" fill="#666666">[integer]</text>
<polygon fill="none" stroke="black" points="481.14,-566.8 481.14,-597.6 745.12,-597.6 745.12,-566.8 481.14,-566.8"/>
<text text-anchor="start" x="488.14" y="-579" font-family="Arial" font-size="14.00">comments_count </text>
<text text-anchor="start" x="598.64" y="-579" font-family="Arial" font-size="14.00" fill="#666666">[integer]</text>
<polygon fill="none" stroke="black" points="481.14,-536 481.14,-566.8 745.12,-566.8 745.12,-536 481.14,-536"/>
<text text-anchor="start" x="488.14" y="-548.2" font-family="Arial" font-size="14.00">order_index </text>
<text text-anchor="start" x="565.97" y="-548.2" font-family="Arial" font-size="14.00" fill="#666666">[integer]</text>
<polygon fill="none" stroke="black" points="481.14,-505.2 481.14,-536 745.12,-536 745.12,-505.2 481.14,-505.2"/>
<text text-anchor="start" x="488.14" y="-517.4" font-family="Arial" font-size="14.00">created_at </text>
<text text-anchor="start" x="558.19" y="-517.4" font-family="Arial" font-size="14.00" fill="#666666">[timestamp with time zone]</text>
<polygon fill="none" stroke="black" points="481.14,-474.4 481.14,-505.2 745.12,-505.2 745.12,-474.4 481.14,-474.4"/>
<text text-anchor="start" x="488.14" y="-486.6" font-family="Arial" font-size="14.00">updated_at </text>
<text text-anchor="start" x="562.1" y="-486.6" font-family="Arial" font-size="14.00" fill="#666666">[timestamp with time zone]</text>
<polygon fill="none" stroke="black" points="481.14,-443.6 481.14,-474.4 745.12,-474.4 745.12,-443.6 481.14,-443.6"/>
<text text-anchor="start" x="488.14" y="-455.8" font-family="Arial" font-size="14.00">article_content </text>
<text text-anchor="start" x="583.08" y="-455.8" font-family="Arial" font-size="14.00" fill="#666666">[jsonb]</text>
<polygon fill="none" stroke="black" points="481.14,-412.8 481.14,-443.6 745.12,-443.6 745.12,-412.8 481.14,-412.8"/>
<text text-anchor="start" x="488.14" y="-425" font-family="Arial" font-size="14.00">latitude </text>
<text text-anchor="start" x="537.17" y="-425" font-family="Arial" font-size="14.00" fill="#666666">[double precision]</text>
<polygon fill="none" stroke="black" points="481.14,-382 481.14,-412.8 745.12,-412.8 745.12,-382 481.14,-382"/>
<text text-anchor="start" x="488.14" y="-394.2" font-family="Arial" font-size="14.00">longitude </text>
<text text-anchor="start" x="548.86" y="-394.2" font-family="Arial" font-size="14.00" fill="#666666">[double precision]</text>
<polygon fill="none" stroke="black" points="481.14,-351.2 481.14,-382 745.12,-382 745.12,-351.2 481.14,-351.2"/>
<text text-anchor="start" x="488.14" y="-363.4" font-family="Arial" font-size="14.00">google_formatted_address </text>
<text text-anchor="start" x="658.59" y="-363.4" font-family="Arial" font-size="14.00" fill="#666666">[text]</text>
<polygon fill="none" stroke="black" points="481.14,-320.4 481.14,-351.2 745.12,-351.2 745.12,-320.4 481.14,-320.4"/>
<text text-anchor="start" x="488.14" y="-332.6" font-family="Arial" font-size="14.00">google_short_address </text>
<text text-anchor="start" x="630.57" y="-332.6" font-family="Arial" font-size="14.00" fill="#666666">[text]</text>
<polygon fill="none" stroke="black" points="481.14,-289.6 481.14,-320.4 745.12,-320.4 745.12,-289.6 481.14,-289.6"/>
<text text-anchor="start" x="488.14" y="-301.8" font-family="Arial" font-size="14.00">bookmarks_count </text>
<text text-anchor="start" x="602.53" y="-301.8" font-family="Arial" font-size="14.00" fill="#666666">[integer]</text>
<polygon fill="none" stroke="black" points="481.14,-258.8 481.14,-289.6 745.12,-289.6 745.12,-258.8 481.14,-258.8"/>
<text text-anchor="start" x="488.14" y="-271" font-family="Arial" font-size="14.00">prefecture_id </text>
<text text-anchor="start" x="573.75" y="-271" font-family="Arial" font-size="14.00" fill="#666666">[text]</text>
<polygon fill="none" stroke="black" points="481.14,-228 481.14,-258.8 745.12,-258.8 745.12,-228 481.14,-228"/>
<text text-anchor="start" x="488.14" y="-240.2" font-family="Arial" font-size="14.00">color </text>
<text text-anchor="start" x="522.37" y="-240.2" font-family="Arial" font-size="14.00" fill="#666666">[text]</text>
<polygon fill="none" stroke="black" points="481.14,-197.2 481.14,-228 745.12,-228 745.12,-197.2 481.14,-197.2"/>
<text text-anchor="start" x="488.14" y="-209.4" font-family="Arial" font-size="14.00">spot_color </text>
<text text-anchor="start" x="556.62" y="-209.4" font-family="Arial" font-size="14.00" fill="#666666">[text]</text>
<polygon fill="none" stroke="black" points="481.14,-166.4 481.14,-197.2 745.12,-197.2 745.12,-166.4 481.14,-166.4"/>
<text text-anchor="start" x="488.14" y="-178.6" font-family="Arial" font-size="14.00">label_id </text>
<text text-anchor="start" x="540.29" y="-178.6" font-family="Arial" font-size="14.00" fill="#666666">[uuid]</text>
<polygon fill="none" stroke="black" points="481.14,-135.6 481.14,-166.4 745.12,-166.4 745.12,-135.6 481.14,-135.6"/>
<text text-anchor="start" x="488.14" y="-147.8" font-family="Arial" font-size="14.00">city_id </text>
<text text-anchor="start" x="531.71" y="-147.8" font-family="Arial" font-size="14.00" fill="#666666">[text]</text>
<polygon fill="none" stroke="black" points="481.14,-104.8 481.14,-135.6 745.12,-135.6 745.12,-104.8 481.14,-104.8"/>
<text text-anchor="start" x="488.14" y="-117" font-family="Arial" font-size="14.00">prefecture_name </text>
<text text-anchor="start" x="597.87" y="-117" font-family="Arial" font-size="14.00" fill="#666666">[text]</text>
<polygon fill="none" stroke="black" points="481.14,-74 481.14,-104.8 745.12,-104.8 745.12,-74 481.14,-74"/>
<text text-anchor="start" x="488.14" y="-86.2" font-family="Arial" font-size="14.00">city_name </text>
<text text-anchor="start" x="555.84" y="-86.2" font-family="Arial" font-size="14.00" fill="#666666">[text]</text>
<polygon fill="none" stroke="black" points="481.14,-43.2 481.14,-74 745.12,-74 745.12,-43.2 481.14,-43.2"/>
<text text-anchor="start" x="488.14" y="-55.4" font-family="Arial" font-size="14.00">machi_name </text>
<text text-anchor="start" x="572.18" y="-55.4" font-family="Arial" font-size="14.00" fill="#666666">[text]</text>
</g>
<!-- public.notifications&#45;&gt;public.user_spots -->
<g id="edge3" class="edge">
<title>public.notifications:user_spot_id&#45;&gt;public.user_spots:id</title>
<path fill="none" stroke="black" d="M761.29,-1199.2C790.26,-1153.28 781.55,-859.4 746.12,-859.4"/>
<polygon fill="black" stroke="black" points="761.44,-1199.09 750.72,-1201.37 757.14,-1202.24 753.65,-1204.8 753.65,-1204.8 753.65,-1204.8 757.14,-1202.24 756.04,-1208.63 761.44,-1199.09"/>
<text text-anchor="start" x="760.11" y="-1215.2" font-family="Arial" font-size="10.00">FOREIGN KEY (user_spot_id) REFERENCES user_spots(id) ON DELETE CASCADE</text>
</g>
<!-- public.maps -->
<g id="node4" class="node">
<title>public.maps</title>
<polygon fill="#efefef" stroke="none" points="849.29,-736.2 849.29,-771.8 1102.97,-771.8 1102.97,-736.2 849.29,-736.2"/>
<polygon fill="none" stroke="black" points="849.29,-736.2 849.29,-771.8 1102.97,-771.8 1102.97,-736.2 849.29,-736.2"/>
<text text-anchor="start" x="870.14" y="-749.6" font-family="Arial Bold" font-size="18.00">public.maps</text>
<text text-anchor="start" x="957.63" y="-749.6" font-family="Arial" font-size="14.00">    </text>
<text text-anchor="start" x="988.75" y="-749.6" font-family="Arial" font-size="14.00" fill="#666666">[BASE TABLE]</text>
<polygon fill="none" stroke="black" points="849.29,-705.4 849.29,-736.2 1102.97,-736.2 1102.97,-705.4 849.29,-705.4"/>
<text text-anchor="start" x="856.29" y="-717.6" font-family="Arial" font-size="14.00">id </text>
<text text-anchor="start" x="871.08" y="-717.6" font-family="Arial" font-size="14.00" fill="#666666">[uuid]</text>
<polygon fill="none" stroke="black" points="849.29,-674.6 849.29,-705.4 1102.97,-705.4 1102.97,-674.6 849.29,-674.6"/>
<text text-anchor="start" x="856.29" y="-686.8" font-family="Arial" font-size="14.00">user_id </text>
<text text-anchor="start" x="906.1" y="-686.8" font-family="Arial" font-size="14.00" fill="#666666">[uuid]</text>
<polygon fill="none" stroke="black" points="849.29,-643.8 849.29,-674.6 1102.97,-674.6 1102.97,-643.8 849.29,-643.8"/>
<text text-anchor="start" x="856.29" y="-656" font-family="Arial" font-size="14.00">name </text>
<text text-anchor="start" x="895.2" y="-656" font-family="Arial" font-size="14.00" fill="#666666">[text]</text>
<polygon fill="none" stroke="black" points="849.29,-613 849.29,-643.8 1102.97,-643.8 1102.97,-613 849.29,-613"/>
<text text-anchor="start" x="856.29" y="-625.2" font-family="Arial" font-size="14.00">description </text>
<text text-anchor="start" x="927.88" y="-625.2" font-family="Arial" font-size="14.00" fill="#666666">[text]</text>
<polygon fill="none" stroke="black" points="849.29,-582.2 849.29,-613 1102.97,-613 1102.97,-582.2 849.29,-582.2"/>
<text text-anchor="start" x="856.29" y="-594.4" font-family="Arial" font-size="14.00">is_public </text>
<text text-anchor="start" x="914.65" y="-594.4" font-family="Arial" font-size="14.00" fill="#666666">[boolean]</text>
<polygon fill="none" stroke="black" points="849.29,-551.4 849.29,-582.2 1102.97,-582.2 1102.97,-551.4 849.29,-551.4"/>
<text text-anchor="start" x="856.29" y="-563.6" font-family="Arial" font-size="14.00">is_official </text>
<text text-anchor="start" x="917.76" y="-563.6" font-family="Arial" font-size="14.00" fill="#666666">[boolean]</text>
<polygon fill="none" stroke="black" points="849.29,-520.6 849.29,-551.4 1102.97,-551.4 1102.97,-520.6 849.29,-520.6"/>
<text text-anchor="start" x="856.29" y="-532.8" font-family="Arial" font-size="14.00">thumbnail_url </text>
<text text-anchor="start" x="944.23" y="-532.8" font-family="Arial" font-size="14.00" fill="#666666">[text]</text>
<polygon fill="none" stroke="black" points="849.29,-489.8 849.29,-520.6 1102.97,-520.6 1102.97,-489.8 849.29,-489.8"/>
<text text-anchor="start" x="856.29" y="-502" font-family="Arial" font-size="14.00">spots_count </text>
<text text-anchor="start" x="935.68" y="-502" font-family="Arial" font-size="14.00" fill="#666666">[integer]</text>
<polygon fill="none" stroke="black" points="849.29,-459 849.29,-489.8 1102.97,-489.8 1102.97,-459 849.29,-459"/>
<text text-anchor="start" x="856.29" y="-471.2" font-family="Arial" font-size="14.00">likes_count </text>
<text text-anchor="start" x="930.22" y="-471.2" font-family="Arial" font-size="14.00" fill="#666666">[integer]</text>
<polygon fill="none" stroke="black" points="849.29,-428.2 849.29,-459 1102.97,-459 1102.97,-428.2 849.29,-428.2"/>
<text text-anchor="start" x="856.29" y="-440.4" font-family="Arial" font-size="14.00">created_at </text>
<text text-anchor="start" x="926.34" y="-440.4" font-family="Arial" font-size="14.00" fill="#666666">[timestamp with time zone]</text>
<polygon fill="none" stroke="black" points="849.29,-397.4 849.29,-428.2 1102.97,-428.2 1102.97,-397.4 849.29,-397.4"/>
<text text-anchor="start" x="856.29" y="-409.6" font-family="Arial" font-size="14.00">updated_at </text>
<text text-anchor="start" x="930.25" y="-409.6" font-family="Arial" font-size="14.00" fill="#666666">[timestamp with time zone]</text>
<polygon fill="none" stroke="black" points="849.29,-366.6 849.29,-397.4 1102.97,-397.4 1102.97,-366.6 849.29,-366.6"/>
<text text-anchor="start" x="856.29" y="-378.8" font-family="Arial" font-size="14.00">comments_count </text>
<text text-anchor="start" x="966.79" y="-378.8" font-family="Arial" font-size="14.00" fill="#666666">[integer]</text>
<polygon fill="none" stroke="black" points="849.29,-335.8 849.29,-366.6 1102.97,-366.6 1102.97,-335.8 849.29,-335.8"/>
<text text-anchor="start" x="856.29" y="-348" font-family="Arial" font-size="14.00">is_article_public </text>
<text text-anchor="start" x="959.79" y="-348" font-family="Arial" font-size="14.00" fill="#666666">[boolean]</text>
<polygon fill="none" stroke="black" points="849.29,-305 849.29,-335.8 1102.97,-335.8 1102.97,-305 849.29,-305"/>
<text text-anchor="start" x="856.29" y="-317.2" font-family="Arial" font-size="14.00">bookmarks_count </text>
<text text-anchor="start" x="970.68" y="-317.2" font-family="Arial" font-size="14.00" fill="#666666">[integer]</text>
<polygon fill="none" stroke="black" points="849.29,-274.2 849.29,-305 1102.97,-305 1102.97,-274.2 849.29,-274.2"/>
<text text-anchor="start" x="856.29" y="-286.4" font-family="Arial" font-size="14.00">category_id </text>
<text text-anchor="start" x="932.56" y="-286.4" font-family="Arial" font-size="14.00" fill="#666666">[text]</text>
<polygon fill="none" stroke="black" points="849.29,-243.4 849.29,-274.2 1102.97,-274.2 1102.97,-243.4 849.29,-243.4"/>
<text text-anchor="start" x="856.29" y="-255.6" font-family="Arial" font-size="14.00">article_intro </text>
<text text-anchor="start" x="932.54" y="-255.6" font-family="Arial" font-size="14.00" fill="#666666">[jsonb]</text>
<polygon fill="none" stroke="black" points="849.29,-212.6 849.29,-243.4 1102.97,-243.4 1102.97,-212.6 849.29,-212.6"/>
<text text-anchor="start" x="856.29" y="-224.8" font-family="Arial" font-size="14.00">article_outro </text>
<text text-anchor="start" x="937.22" y="-224.8" font-family="Arial" font-size="14.00" fill="#666666">[jsonb]</text>
<polygon fill="none" stroke="black" points="849.29,-181.8 849.29,-212.6 1102.97,-212.6 1102.97,-181.8 849.29,-181.8"/>
<text text-anchor="start" x="856.29" y="-194" font-family="Arial" font-size="14.00">show_label_chips </text>
<text text-anchor="start" x="970.7" y="-194" font-family="Arial" font-size="14.00" fill="#666666">[boolean]</text>
</g>
<!-- public.notifications&#45;&gt;public.maps -->
<g id="edge4" class="edge">
<title>public.notifications:map_id&#45;&gt;public.maps:id</title>
<path fill="none" stroke="black" d="M763.2,-1172.76C848.58,-1143.07 748.92,-720.8 848.29,-720.8"/>
<polygon fill="black" stroke="black" points="763.31,-1172.74 752.72,-1169.9 758.05,-1173.6 753.77,-1174.29 753.77,-1174.29 753.77,-1174.29 758.05,-1173.6 754.16,-1178.79 763.31,-1172.74"/>
<text text-anchor="start" x="760.11" y="-1184.4" font-family="Arial" font-size="10.00">FOREIGN KEY (map_id) REFERENCES maps(id) ON DELETE CASCADE</text>
</g>
<!-- public.comments -->
<g id="node5" class="node">
<title>public.comments</title>
<polygon fill="#efefef" stroke="none" points="1207.15,-643.8 1207.15,-679.4 1469.11,-679.4 1469.11,-643.8 1207.15,-643.8"/>
<polygon fill="none" stroke="black" points="1207.15,-643.8 1207.15,-679.4 1469.11,-679.4 1469.11,-643.8 1207.15,-643.8"/>
<text text-anchor="start" x="1214.15" y="-657.2" font-family="Arial Bold" font-size="18.00">public.comments</text>
<text text-anchor="start" x="1337.62" y="-657.2" font-family="Arial" font-size="14.00">    </text>
<text text-anchor="start" x="1368.74" y="-657.2" font-family="Arial" font-size="14.00" fill="#666666">[BASE TABLE]</text>
<polygon fill="none" stroke="black" points="1207.15,-613 1207.15,-643.8 1469.11,-643.8 1469.11,-613 1207.15,-613"/>
<text text-anchor="start" x="1214.15" y="-625.2" font-family="Arial" font-size="14.00">id </text>
<text text-anchor="start" x="1228.93" y="-625.2" font-family="Arial" font-size="14.00" fill="#666666">[uuid]</text>
<polygon fill="none" stroke="black" points="1207.15,-582.2 1207.15,-613 1469.11,-613 1469.11,-582.2 1207.15,-582.2"/>
<text text-anchor="start" x="1214.15" y="-594.4" font-family="Arial" font-size="14.00">user_id </text>
<text text-anchor="start" x="1263.95" y="-594.4" font-family="Arial" font-size="14.00" fill="#666666">[uuid]</text>
<polygon fill="none" stroke="black" points="1207.15,-551.4 1207.15,-582.2 1469.11,-582.2 1469.11,-551.4 1207.15,-551.4"/>
<text text-anchor="start" x="1214.15" y="-563.6" font-family="Arial" font-size="14.00">map_id </text>
<text text-anchor="start" x="1263.95" y="-563.6" font-family="Arial" font-size="14.00" fill="#666666">[uuid]</text>
<polygon fill="none" stroke="black" points="1207.15,-520.6 1207.15,-551.4 1469.11,-551.4 1469.11,-520.6 1207.15,-520.6"/>
<text text-anchor="start" x="1214.15" y="-532.8" font-family="Arial" font-size="14.00">user_spot_id </text>
<text text-anchor="start" x="1298.2" y="-532.8" font-family="Arial" font-size="14.00" fill="#666666">[uuid]</text>
<polygon fill="none" stroke="black" points="1207.15,-489.8 1207.15,-520.6 1469.11,-520.6 1469.11,-489.8 1207.15,-489.8"/>
<text text-anchor="start" x="1214.15" y="-502" font-family="Arial" font-size="14.00">content </text>
<text text-anchor="start" x="1263.96" y="-502" font-family="Arial" font-size="14.00" fill="#666666">[text]</text>
<polygon fill="none" stroke="black" points="1207.15,-459 1207.15,-489.8 1469.11,-489.8 1469.11,-459 1207.15,-459"/>
<text text-anchor="start" x="1214.15" y="-471.2" font-family="Arial" font-size="14.00">created_at </text>
<text text-anchor="start" x="1284.19" y="-471.2" font-family="Arial" font-size="14.00" fill="#666666">[timestamp with time zone]</text>
<polygon fill="none" stroke="black" points="1207.15,-428.2 1207.15,-459 1469.11,-459 1469.11,-428.2 1207.15,-428.2"/>
<text text-anchor="start" x="1214.15" y="-440.4" font-family="Arial" font-size="14.00">updated_at </text>
<text text-anchor="start" x="1288.1" y="-440.4" font-family="Arial" font-size="14.00" fill="#666666">[timestamp with time zone]</text>
<polygon fill="none" stroke="black" points="1207.15,-397.4 1207.15,-428.2 1469.11,-428.2 1469.11,-397.4 1207.15,-397.4"/>
<text text-anchor="start" x="1214.15" y="-409.6" font-family="Arial" font-size="14.00">parent_id </text>
<text text-anchor="start" x="1276.42" y="-409.6" font-family="Arial" font-size="14.00" fill="#666666">[uuid]</text>
<polygon fill="none" stroke="black" points="1207.15,-366.6 1207.15,-397.4 1469.11,-397.4 1469.11,-366.6 1207.15,-366.6"/>
<text text-anchor="start" x="1214.15" y="-378.8" font-family="Arial" font-size="14.00">root_id </text>
<text text-anchor="start" x="1260.84" y="-378.8" font-family="Arial" font-size="14.00" fill="#666666">[uuid]</text>
<polygon fill="none" stroke="black" points="1207.15,-335.8 1207.15,-366.6 1469.11,-366.6 1469.11,-335.8 1207.15,-335.8"/>
<text text-anchor="start" x="1214.15" y="-348" font-family="Arial" font-size="14.00">depth </text>
<text text-anchor="start" x="1253.07" y="-348" font-family="Arial" font-size="14.00" fill="#666666">[integer]</text>
<polygon fill="none" stroke="black" points="1207.15,-305 1207.15,-335.8 1469.11,-335.8 1469.11,-305 1207.15,-305"/>
<text text-anchor="start" x="1214.15" y="-317.2" font-family="Arial" font-size="14.00">likes_count </text>
<text text-anchor="start" x="1288.08" y="-317.2" font-family="Arial" font-size="14.00" fill="#666666">[integer]</text>
<polygon fill="none" stroke="black" points="1207.15,-274.2 1207.15,-305 1469.11,-305 1469.11,-274.2 1207.15,-274.2"/>
<text text-anchor="start" x="1214.15" y="-286.4" font-family="Arial" font-size="14.00">replies_count </text>
<text text-anchor="start" x="1301.31" y="-286.4" font-family="Arial" font-size="14.00" fill="#666666">[integer]</text>
</g>
<!-- public.notifications&#45;&gt;public.comments -->
<g id="edge5" class="edge">
<title>public.notifications:comment_id&#45;&gt;public.comments:id</title>
<path fill="none" stroke="black" d="M763.43,-1143.57C953.77,-1142.44 1038.8,-1109.04 1155.13,-953.6 1198.96,-895.03 1133,-628.4 1206.15,-628.4"/>
<polygon fill="black" stroke="black" points="763.45,-1143.57 753.43,-1139.1 758.11,-1143.59 753.78,-1143.6 753.78,-1143.6 753.78,-1143.6 758.11,-1143.59 753.46,-1148.1 763.45,-1143.57"/>
<text text-anchor="start" x="760.11" y="-1153.6" font-family="Arial" font-size="10.00">FOREIGN KEY (comment_id) REFERENCES comments(id) ON DELETE CASCADE</text>
</g>
</g>
</svg>
