<?xml version="1.0" encoding="UTF-8" standalone="no"?>
<!DOCTYPE svg PUBLIC "-//W3C//DTD SVG 1.1//EN"
 "http://www.w3.org/Graphics/SVG/1.1/DTD/svg11.dtd">
<!-- Generated by graphviz version 12.1.2 (20240928.0832)
 -->
<!-- Title: public.bookmark_folders Pages: 1 -->
<svg width="925pt" height="1253pt"
 viewBox="0.00 0.00 924.93 1252.80" xmlns="http://www.w3.org/2000/svg" xmlns:xlink="http://www.w3.org/1999/xlink">
<g id="graph0" class="graph" transform="scale(1 1) rotate(0) translate(4 1248.8)">
<title>public.bookmark_folders</title>
<polygon fill="white" stroke="none" points="-4,4 -4,-1248.8 920.93,-1248.8 920.93,4 -4,4"/>
<!-- public.bookmark_folders -->
<g id="node1" class="node">
<title>public.bookmark_folders</title>
<polygon fill="#efefef" stroke="none" points="248.02,-820.2 248.02,-855.8 567.97,-855.8 567.97,-820.2 248.02,-820.2"/>
<polygon fill="none" stroke="black" points="248.02,-820.2 248.02,-855.8 567.97,-855.8 567.97,-820.2 248.02,-820.2"/>
<text text-anchor="start" x="255.02" y="-833.6" font-family="Arial Bold" font-size="18.00">public.bookmark_folders</text>
<text text-anchor="start" x="436.48" y="-833.6" font-family="Arial" font-size="14.00">    </text>
<text text-anchor="start" x="467.6" y="-833.6" font-family="Arial" font-size="14.00" fill="#666666">[BASE TABLE]</text>
<polygon fill="none" stroke="black" points="248.02,-789.4 248.02,-820.2 567.97,-820.2 567.97,-789.4 248.02,-789.4"/>
<text text-anchor="start" x="255.02" y="-801.6" font-family="Arial" font-size="14.00">id </text>
<text text-anchor="start" x="269.81" y="-801.6" font-family="Arial" font-size="14.00" fill="#666666">[uuid]</text>
<polygon fill="none" stroke="black" points="248.02,-758.6 248.02,-789.4 567.97,-789.4 567.97,-758.6 248.02,-758.6"/>
<text text-anchor="start" x="255.02" y="-770.8" font-family="Arial" font-size="14.00">user_id </text>
<text text-anchor="start" x="304.83" y="-770.8" font-family="Arial" font-size="14.00" fill="#666666">[uuid]</text>
<polygon fill="none" stroke="black" points="248.02,-727.8 248.02,-758.6 567.97,-758.6 567.97,-727.8 248.02,-727.8"/>
<text text-anchor="start" x="255.02" y="-740" font-family="Arial" font-size="14.00">name </text>
<text text-anchor="start" x="293.94" y="-740" font-family="Arial" font-size="14.00" fill="#666666">[text]</text>
<polygon fill="none" stroke="black" points="248.02,-697 248.02,-727.8 567.97,-727.8 567.97,-697 248.02,-697"/>
<text text-anchor="start" x="255.02" y="-709.2" font-family="Arial" font-size="14.00">order_index </text>
<text text-anchor="start" x="332.85" y="-709.2" font-family="Arial" font-size="14.00" fill="#666666">[integer]</text>
<polygon fill="none" stroke="black" points="248.02,-666.2 248.02,-697 567.97,-697 567.97,-666.2 248.02,-666.2"/>
<text text-anchor="start" x="255.02" y="-678.4" font-family="Arial" font-size="14.00">created_at </text>
<text text-anchor="start" x="325.07" y="-678.4" font-family="Arial" font-size="14.00" fill="#666666">[timestamp with time zone]</text>
<polygon fill="none" stroke="black" points="248.02,-635.4 248.02,-666.2 567.97,-666.2 567.97,-635.4 248.02,-635.4"/>
<text text-anchor="start" x="255.02" y="-647.6" font-family="Arial" font-size="14.00">updated_at </text>
<text text-anchor="start" x="328.98" y="-647.6" font-family="Arial" font-size="14.00" fill="#666666">[timestamp with time zone]</text>
<polygon fill="none" stroke="black" points="248.02,-604.6 248.02,-635.4 567.97,-635.4 567.97,-604.6 248.02,-604.6"/>
<text text-anchor="start" x="255.02" y="-616.8" font-family="Arial" font-size="14.00">folder_type </text>
<text text-anchor="start" x="328.18" y="-616.8" font-family="Arial" font-size="14.00" fill="#666666">[text]</text>
<polygon fill="none" stroke="black" stroke-width="3" points="246.52,-603.1 246.52,-857.3 569.47,-857.3 569.47,-603.1 246.52,-603.1"/>
</g>
<!-- public.users -->
<g id="node3" class="node">
<title>public.users</title>
<polygon fill="#efefef" stroke="none" points="241.07,-443.6 241.07,-479.2 574.93,-479.2 574.93,-443.6 241.07,-443.6"/>
<polygon fill="none" stroke="black" points="241.07,-443.6 241.07,-479.2 574.93,-479.2 574.93,-443.6 241.07,-443.6"/>
<text text-anchor="start" x="302.51" y="-457" font-family="Arial Bold" font-size="18.00">public.users</text>
<text text-anchor="start" x="389" y="-457" font-family="Arial" font-size="14.00">    </text>
<text text-anchor="start" x="420.11" y="-457" font-family="Arial" font-size="14.00" fill="#666666">[BASE TABLE]</text>
<polygon fill="none" stroke="black" points="241.07,-412.8 241.07,-443.6 574.93,-443.6 574.93,-412.8 241.07,-412.8"/>
<text text-anchor="start" x="248.07" y="-425" font-family="Arial" font-size="14.00">id </text>
<text text-anchor="start" x="262.85" y="-425" font-family="Arial" font-size="14.00" fill="#666666">[uuid]</text>
<polygon fill="none" stroke="black" points="241.07,-382 241.07,-412.8 574.93,-412.8 574.93,-382 241.07,-382"/>
<text text-anchor="start" x="248.07" y="-394.2" font-family="Arial" font-size="14.00">email </text>
<text text-anchor="start" x="285.41" y="-394.2" font-family="Arial" font-size="14.00" fill="#666666">[text]</text>
<polygon fill="none" stroke="black" points="241.07,-351.2 241.07,-382 574.93,-382 574.93,-351.2 241.07,-351.2"/>
<text text-anchor="start" x="248.07" y="-363.4" font-family="Arial" font-size="14.00">username </text>
<text text-anchor="start" x="314.21" y="-363.4" font-family="Arial" font-size="14.00" fill="#666666">[text]</text>
<polygon fill="none" stroke="black" points="241.07,-320.4 241.07,-351.2 574.93,-351.2 574.93,-320.4 241.07,-320.4"/>
<text text-anchor="start" x="248.07" y="-332.6" font-family="Arial" font-size="14.00">display_name </text>
<text text-anchor="start" x="338.34" y="-332.6" font-family="Arial" font-size="14.00" fill="#666666">[text]</text>
<polygon fill="none" stroke="black" points="241.07,-289.6 241.07,-320.4 574.93,-320.4 574.93,-289.6 241.07,-289.6"/>
<text text-anchor="start" x="248.07" y="-301.8" font-family="Arial" font-size="14.00">avatar_url </text>
<text text-anchor="start" x="314.21" y="-301.8" font-family="Arial" font-size="14.00" fill="#666666">[text]</text>
<polygon fill="none" stroke="black" points="241.07,-258.8 241.07,-289.6 574.93,-289.6 574.93,-258.8 241.07,-258.8"/>
<text text-anchor="start" x="248.07" y="-271" font-family="Arial" font-size="14.00">bio </text>
<text text-anchor="start" x="270.64" y="-271" font-family="Arial" font-size="14.00" fill="#666666">[text]</text>
<polygon fill="none" stroke="black" points="241.07,-228 241.07,-258.8 574.93,-258.8 574.93,-228 241.07,-228"/>
<text text-anchor="start" x="248.07" y="-240.2" font-family="Arial" font-size="14.00">is_premium </text>
<text text-anchor="start" x="324.31" y="-240.2" font-family="Arial" font-size="14.00" fill="#666666">[boolean]</text>
<polygon fill="none" stroke="black" points="241.07,-197.2 241.07,-228 574.93,-228 574.93,-197.2 241.07,-197.2"/>
<text text-anchor="start" x="248.07" y="-209.4" font-family="Arial" font-size="14.00">premium_started_at </text>
<text text-anchor="start" x="376.46" y="-209.4" font-family="Arial" font-size="14.00" fill="#666666">[timestamp with time zone]</text>
<polygon fill="none" stroke="black" points="241.07,-166.4 241.07,-197.2 574.93,-197.2 574.93,-166.4 241.07,-166.4"/>
<text text-anchor="start" x="248.07" y="-178.6" font-family="Arial" font-size="14.00">premium_expires_at </text>
<text text-anchor="start" x="378.79" y="-178.6" font-family="Arial" font-size="14.00" fill="#666666">[timestamp with time zone]</text>
<polygon fill="none" stroke="black" points="241.07,-135.6 241.07,-166.4 574.93,-166.4 574.93,-135.6 241.07,-135.6"/>
<text text-anchor="start" x="248.07" y="-147.8" font-family="Arial" font-size="14.00">created_at </text>
<text text-anchor="start" x="318.12" y="-147.8" font-family="Arial" font-size="14.00" fill="#666666">[timestamp with time zone]</text>
<polygon fill="none" stroke="black" points="241.07,-104.8 241.07,-135.6 574.93,-135.6 574.93,-104.8 241.07,-104.8"/>
<text text-anchor="start" x="248.07" y="-117" font-family="Arial" font-size="14.00">updated_at </text>
<text text-anchor="start" x="322.03" y="-117" font-family="Arial" font-size="14.00" fill="#666666">[timestamp with time zone]</text>
<polygon fill="none" stroke="black" points="241.07,-74 241.07,-104.8 574.93,-104.8 574.93,-74 241.07,-74"/>
<text text-anchor="start" x="248.07" y="-86.2" font-family="Arial" font-size="14.00">push_token </text>
<text text-anchor="start" x="324.35" y="-86.2" font-family="Arial" font-size="14.00" fill="#666666">[text]</text>
<polygon fill="none" stroke="black" points="241.07,-43.2 241.07,-74 574.93,-74 574.93,-43.2 241.07,-43.2"/>
<text text-anchor="start" x="248.07" y="-55.4" font-family="Arial" font-size="14.00">push_token_updated_at </text>
<text text-anchor="start" x="402.21" y="-55.4" font-family="Arial" font-size="14.00" fill="#666666">[timestamp with time zone]</text>
</g>
<!-- public.bookmark_folders&#45;&gt;public.users -->
<g id="edge2" class="edge">
<title>public.bookmark_folders:user_id&#45;&gt;public.users:id</title>
<path fill="none" stroke="black" d="M578.91,-771.97C646.29,-743.63 649.34,-428.2 575.93,-428.2"/>
<polygon fill="black" stroke="black" points="579.1,-771.93 568.4,-769.52 573.87,-773 569.63,-773.87 569.63,-773.87 569.63,-773.87 573.87,-773 570.2,-778.34 579.1,-771.93"/>
<text text-anchor="start" x="575.97" y="-784" font-family="Arial" font-size="10.00">FOREIGN KEY (user_id) REFERENCES users(id) ON DELETE CASCADE</text>
</g>
<!-- public.bookmarks -->
<g id="node2" class="node">
<title>public.bookmarks</title>
<polygon fill="#efefef" stroke="none" points="274.01,-1166 274.01,-1201.6 541.98,-1201.6 541.98,-1166 274.01,-1166"/>
<polygon fill="none" stroke="black" points="274.01,-1166 274.01,-1201.6 541.98,-1201.6 541.98,-1166 274.01,-1166"/>
<text text-anchor="start" x="281.01" y="-1179.4" font-family="Arial Bold" font-size="18.00">public.bookmarks</text>
<text text-anchor="start" x="410.49" y="-1179.4" font-family="Arial" font-size="14.00">    </text>
<text text-anchor="start" x="441.61" y="-1179.4" font-family="Arial" font-size="14.00" fill="#666666">[BASE TABLE]</text>
<polygon fill="none" stroke="black" points="274.01,-1135.2 274.01,-1166 541.98,-1166 541.98,-1135.2 274.01,-1135.2"/>
<text text-anchor="start" x="281.01" y="-1147.4" font-family="Arial" font-size="14.00">id </text>
<text text-anchor="start" x="295.8" y="-1147.4" font-family="Arial" font-size="14.00" fill="#666666">[uuid]</text>
<polygon fill="none" stroke="black" points="274.01,-1104.4 274.01,-1135.2 541.98,-1135.2 541.98,-1104.4 274.01,-1104.4"/>
<text text-anchor="start" x="281.01" y="-1116.6" font-family="Arial" font-size="14.00">user_id </text>
<text text-anchor="start" x="330.82" y="-1116.6" font-family="Arial" font-size="14.00" fill="#666666">[uuid]</text>
<polygon fill="none" stroke="black" points="274.01,-1073.6 274.01,-1104.4 541.98,-1104.4 541.98,-1073.6 274.01,-1073.6"/>
<text text-anchor="start" x="281.01" y="-1085.8" font-family="Arial" font-size="14.00">map_id </text>
<text text-anchor="start" x="330.82" y="-1085.8" font-family="Arial" font-size="14.00" fill="#666666">[uuid]</text>
<polygon fill="none" stroke="black" points="274.01,-1042.8 274.01,-1073.6 541.98,-1073.6 541.98,-1042.8 274.01,-1042.8"/>
<text text-anchor="start" x="281.01" y="-1055" font-family="Arial" font-size="14.00">user_spot_id </text>
<text text-anchor="start" x="365.07" y="-1055" font-family="Arial" font-size="14.00" fill="#666666">[uuid]</text>
<polygon fill="none" stroke="black" points="274.01,-1012 274.01,-1042.8 541.98,-1042.8 541.98,-1012 274.01,-1012"/>
<text text-anchor="start" x="281.01" y="-1024.2" font-family="Arial" font-size="14.00">created_at </text>
<text text-anchor="start" x="351.06" y="-1024.2" font-family="Arial" font-size="14.00" fill="#666666">[timestamp with time zone]</text>
<polygon fill="none" stroke="black" points="274.01,-981.2 274.01,-1012 541.98,-1012 541.98,-981.2 274.01,-981.2"/>
<text text-anchor="start" x="281.01" y="-993.4" font-family="Arial" font-size="14.00">folder_id </text>
<text text-anchor="start" x="338.61" y="-993.4" font-family="Arial" font-size="14.00" fill="#666666">[uuid]</text>
</g>
<!-- public.bookmarks&#45;&gt;public.bookmark_folders -->
<g id="edge1" class="edge">
<title>public.bookmarks:folder_id&#45;&gt;public.bookmark_folders:id</title>
<path fill="none" stroke="black" d="M408.76,-970.01C418.87,-907.13 527.7,-965.78 567.97,-902 591.04,-865.47 612.18,-804.8 568.97,-804.8"/>
<polygon fill="black" stroke="black" points="408.76,-969.89 403.54,-979.53 408.37,-975.21 408.05,-979.53 408.05,-979.53 408.05,-979.53 408.37,-975.21 412.51,-980.2 408.76,-969.89"/>
<text text-anchor="start" x="7" y="-990.2" font-family="Arial" font-size="10.00">FOREIGN KEY (folder_id) REFERENCES bookmark_folders(id) ON DELETE SET NULL</text>
</g>
</g>
</svg>
