<?xml version="1.0" encoding="UTF-8" standalone="no"?>
<!DOCTYPE svg PUBLIC "-//W3C//DTD SVG 1.1//EN"
 "http://www.w3.org/Graphics/SVG/1.1/DTD/svg11.dtd">
<!-- Generated by graphviz version 12.1.2 (20240928.0832)
 -->
<!-- Title: public.tags Pages: 1 -->
<svg width="1208pt" height="725pt"
 viewBox="0.00 0.00 1207.52 725.20" xmlns="http://www.w3.org/2000/svg" xmlns:xlink="http://www.w3.org/1999/xlink">
<g id="graph0" class="graph" transform="scale(1 1) rotate(0) translate(4 721.2)">
<title>public.tags</title>
<polygon fill="white" stroke="none" points="-4,4 -4,-721.2 1203.52,-721.2 1203.52,4 -4,4"/>
<!-- public.tags -->
<g id="node1" class="node">
<title>public.tags</title>
<polygon fill="#efefef" stroke="none" points="441.53,-261.8 441.53,-297.4 695.21,-297.4 695.21,-261.8 441.53,-261.8"/>
<polygon fill="none" stroke="black" points="441.53,-261.8 441.53,-297.4 695.21,-297.4 695.21,-261.8 441.53,-261.8"/>
<text text-anchor="start" x="466.89" y="-275.2" font-family="Arial Bold" font-size="18.00">public.tags</text>
<text text-anchor="start" x="545.37" y="-275.2" font-family="Arial" font-size="14.00">    </text>
<text text-anchor="start" x="576.49" y="-275.2" font-family="Arial" font-size="14.00" fill="#666666">[BASE TABLE]</text>
<polygon fill="none" stroke="black" points="441.53,-231 441.53,-261.8 695.21,-261.8 695.21,-231 441.53,-231"/>
<text text-anchor="start" x="448.53" y="-243.2" font-family="Arial" font-size="14.00">id </text>
<text text-anchor="start" x="463.32" y="-243.2" font-family="Arial" font-size="14.00" fill="#666666">[uuid]</text>
<polygon fill="none" stroke="black" points="441.53,-200.2 441.53,-231 695.21,-231 695.21,-200.2 441.53,-200.2"/>
<text text-anchor="start" x="448.53" y="-212.4" font-family="Arial" font-size="14.00">name </text>
<text text-anchor="start" x="487.44" y="-212.4" font-family="Arial" font-size="14.00" fill="#666666">[text]</text>
<polygon fill="none" stroke="black" points="441.53,-169.4 441.53,-200.2 695.21,-200.2 695.21,-169.4 441.53,-169.4"/>
<text text-anchor="start" x="448.53" y="-181.6" font-family="Arial" font-size="14.00">name_translations </text>
<text text-anchor="start" x="566.82" y="-181.6" font-family="Arial" font-size="14.00" fill="#666666">[jsonb]</text>
<polygon fill="none" stroke="black" points="441.53,-138.6 441.53,-169.4 695.21,-169.4 695.21,-138.6 441.53,-138.6"/>
<text text-anchor="start" x="448.53" y="-150.8" font-family="Arial" font-size="14.00">slug </text>
<text text-anchor="start" x="478.1" y="-150.8" font-family="Arial" font-size="14.00" fill="#666666">[text]</text>
<polygon fill="none" stroke="black" points="441.53,-107.8 441.53,-138.6 695.21,-138.6 695.21,-107.8 441.53,-107.8"/>
<text text-anchor="start" x="448.53" y="-120" font-family="Arial" font-size="14.00">usage_count </text>
<text text-anchor="start" x="532.6" y="-120" font-family="Arial" font-size="14.00" fill="#666666">[integer]</text>
<polygon fill="none" stroke="black" points="441.53,-77 441.53,-107.8 695.21,-107.8 695.21,-77 441.53,-77"/>
<text text-anchor="start" x="448.53" y="-89.2" font-family="Arial" font-size="14.00">created_at </text>
<text text-anchor="start" x="518.58" y="-89.2" font-family="Arial" font-size="14.00" fill="#666666">[timestamp with time zone]</text>
<polygon fill="none" stroke="black" points="441.53,-46.2 441.53,-77 695.21,-77 695.21,-46.2 441.53,-46.2"/>
<text text-anchor="start" x="448.53" y="-58.4" font-family="Arial" font-size="14.00">updated_at </text>
<text text-anchor="start" x="522.49" y="-58.4" font-family="Arial" font-size="14.00" fill="#666666">[timestamp with time zone]</text>
<polygon fill="none" stroke="black" stroke-width="3" points="440.03,-44.7 440.03,-298.9 696.71,-298.9 696.71,-44.7 440.03,-44.7"/>
</g>
<!-- public.map_tags -->
<g id="node2" class="node">
<title>public.map_tags</title>
<polygon fill="#efefef" stroke="none" points="78.89,-592.2 78.89,-627.8 335.86,-627.8 335.86,-592.2 78.89,-592.2"/>
<polygon fill="none" stroke="black" points="78.89,-592.2 78.89,-627.8 335.86,-627.8 335.86,-592.2 78.89,-592.2"/>
<text text-anchor="start" x="85.89" y="-605.6" font-family="Arial Bold" font-size="18.00">public.map_tags</text>
<text text-anchor="start" x="204.37" y="-605.6" font-family="Arial" font-size="14.00">    </text>
<text text-anchor="start" x="235.48" y="-605.6" font-family="Arial" font-size="14.00" fill="#666666">[BASE TABLE]</text>
<polygon fill="none" stroke="black" points="78.89,-561.4 78.89,-592.2 335.86,-592.2 335.86,-561.4 78.89,-561.4"/>
<text text-anchor="start" x="85.89" y="-573.6" font-family="Arial" font-size="14.00">id </text>
<text text-anchor="start" x="100.68" y="-573.6" font-family="Arial" font-size="14.00" fill="#666666">[uuid]</text>
<polygon fill="none" stroke="black" points="78.89,-530.6 78.89,-561.4 335.86,-561.4 335.86,-530.6 78.89,-530.6"/>
<text text-anchor="start" x="85.89" y="-542.8" font-family="Arial" font-size="14.00">map_id </text>
<text text-anchor="start" x="135.7" y="-542.8" font-family="Arial" font-size="14.00" fill="#666666">[uuid]</text>
<polygon fill="none" stroke="black" points="78.89,-499.8 78.89,-530.6 335.86,-530.6 335.86,-499.8 78.89,-499.8"/>
<text text-anchor="start" x="85.89" y="-512" font-family="Arial" font-size="14.00">tag_id </text>
<text text-anchor="start" x="127.92" y="-512" font-family="Arial" font-size="14.00" fill="#666666">[uuid]</text>
<polygon fill="none" stroke="black" points="78.89,-469 78.89,-499.8 335.86,-499.8 335.86,-469 78.89,-469"/>
<text text-anchor="start" x="85.89" y="-481.2" font-family="Arial" font-size="14.00">created_at </text>
<text text-anchor="start" x="155.94" y="-481.2" font-family="Arial" font-size="14.00" fill="#666666">[timestamp with time zone]</text>
</g>
<!-- public.map_tags&#45;&gt;public.tags -->
<g id="edge1" class="edge">
<title>public.map_tags:tag_id&#45;&gt;public.tags:id</title>
<path fill="none" stroke="black" d="M347.18,-514.44C397.29,-506.41 366.53,-436.23 388.37,-379.6 411.25,-320.28 376.96,-246.4 440.53,-246.4"/>
<polygon fill="black" stroke="black" points="347.16,-514.44 336.86,-510.69 341.84,-514.83 337.52,-515.15 337.52,-515.15 337.52,-515.15 341.84,-514.83 337.52,-519.66 347.16,-514.44"/>
<text text-anchor="start" x="7" y="-525.2" font-family="Arial" font-size="10.00">FOREIGN KEY (tag_id) REFERENCES tags(id) ON DELETE CASCADE</text>
</g>
<!-- public.spot_tags -->
<g id="node3" class="node">
<title>public.spot_tags</title>
<polygon fill="#efefef" stroke="none" points="440.38,-592.2 440.38,-627.8 696.36,-627.8 696.36,-592.2 440.38,-592.2"/>
<polygon fill="none" stroke="black" points="440.38,-592.2 440.38,-627.8 696.36,-627.8 696.36,-592.2 440.38,-592.2"/>
<text text-anchor="start" x="447.38" y="-605.6" font-family="Arial Bold" font-size="18.00">public.spot_tags</text>
<text text-anchor="start" x="564.88" y="-605.6" font-family="Arial" font-size="14.00">    </text>
<text text-anchor="start" x="595.99" y="-605.6" font-family="Arial" font-size="14.00" fill="#666666">[BASE TABLE]</text>
<polygon fill="none" stroke="black" points="440.38,-561.4 440.38,-592.2 696.36,-592.2 696.36,-561.4 440.38,-561.4"/>
<text text-anchor="start" x="447.38" y="-573.6" font-family="Arial" font-size="14.00">id </text>
<text text-anchor="start" x="462.17" y="-573.6" font-family="Arial" font-size="14.00" fill="#666666">[uuid]</text>
<polygon fill="none" stroke="black" points="440.38,-530.6 440.38,-561.4 696.36,-561.4 696.36,-530.6 440.38,-530.6"/>
<text text-anchor="start" x="447.38" y="-542.8" font-family="Arial" font-size="14.00">user_spot_id </text>
<text text-anchor="start" x="531.44" y="-542.8" font-family="Arial" font-size="14.00" fill="#666666">[uuid]</text>
<polygon fill="none" stroke="black" points="440.38,-499.8 440.38,-530.6 696.36,-530.6 696.36,-499.8 440.38,-499.8"/>
<text text-anchor="start" x="447.38" y="-512" font-family="Arial" font-size="14.00">tag_id </text>
<text text-anchor="start" x="489.42" y="-512" font-family="Arial" font-size="14.00" fill="#666666">[uuid]</text>
<polygon fill="none" stroke="black" points="440.38,-469 440.38,-499.8 696.36,-499.8 696.36,-469 440.38,-469"/>
<text text-anchor="start" x="447.38" y="-481.2" font-family="Arial" font-size="14.00">created_at </text>
<text text-anchor="start" x="517.43" y="-481.2" font-family="Arial" font-size="14.00" fill="#666666">[timestamp with time zone]</text>
</g>
<!-- public.spot_tags&#45;&gt;public.tags -->
<g id="edge2" class="edge">
<title>public.spot_tags:tag_id&#45;&gt;public.tags:id</title>
<path fill="none" stroke="black" d="M707.24,-512.54C756.76,-484.62 752.45,-246.4 696.21,-246.4"/>
<polygon fill="black" stroke="black" points="707.34,-512.51 696.52,-510.77 702.19,-513.9 698.01,-515.03 698.01,-515.03 698.01,-515.03 702.19,-513.9 698.86,-519.46 707.34,-512.51"/>
<text text-anchor="start" x="367.51" y="-525.2" font-family="Arial" font-size="10.00">FOREIGN KEY (tag_id) REFERENCES tags(id) ON DELETE CASCADE</text>
</g>
<!-- public.category_featured_tags -->
<g id="node4" class="node">
<title>public.category_featured_tags</title>
<polygon fill="#efefef" stroke="none" points="800.43,-638.4 800.43,-674 1156.32,-674 1156.32,-638.4 800.43,-638.4"/>
<polygon fill="none" stroke="black" points="800.43,-638.4 800.43,-674 1156.32,-674 1156.32,-638.4 800.43,-638.4"/>
<text text-anchor="start" x="807.43" y="-651.8" font-family="Arial Bold" font-size="18.00">public.category_featured_tags</text>
<text text-anchor="start" x="1024.83" y="-651.8" font-family="Arial" font-size="14.00">    </text>
<text text-anchor="start" x="1055.95" y="-651.8" font-family="Arial" font-size="14.00" fill="#666666">[BASE TABLE]</text>
<polygon fill="none" stroke="black" points="800.43,-607.6 800.43,-638.4 1156.32,-638.4 1156.32,-607.6 800.43,-607.6"/>
<text text-anchor="start" x="807.43" y="-619.8" font-family="Arial" font-size="14.00">id </text>
<text text-anchor="start" x="822.21" y="-619.8" font-family="Arial" font-size="14.00" fill="#666666">[uuid]</text>
<polygon fill="none" stroke="black" points="800.43,-576.8 800.43,-607.6 1156.32,-607.6 1156.32,-576.8 800.43,-576.8"/>
<text text-anchor="start" x="807.43" y="-589" font-family="Arial" font-size="14.00">category_id </text>
<text text-anchor="start" x="883.69" y="-589" font-family="Arial" font-size="14.00" fill="#666666">[text]</text>
<polygon fill="none" stroke="black" points="800.43,-546 800.43,-576.8 1156.32,-576.8 1156.32,-546 800.43,-546"/>
<text text-anchor="start" x="807.43" y="-558.2" font-family="Arial" font-size="14.00">tag_id </text>
<text text-anchor="start" x="849.46" y="-558.2" font-family="Arial" font-size="14.00" fill="#666666">[uuid]</text>
<polygon fill="none" stroke="black" points="800.43,-515.2 800.43,-546 1156.32,-546 1156.32,-515.2 800.43,-515.2"/>
<text text-anchor="start" x="807.43" y="-527.4" font-family="Arial" font-size="14.00">display_order </text>
<text text-anchor="start" x="895.36" y="-527.4" font-family="Arial" font-size="14.00" fill="#666666">[integer]</text>
<polygon fill="none" stroke="black" points="800.43,-484.4 800.43,-515.2 1156.32,-515.2 1156.32,-484.4 800.43,-484.4"/>
<text text-anchor="start" x="807.43" y="-496.6" font-family="Arial" font-size="14.00">is_active </text>
<text text-anchor="start" x="865.78" y="-496.6" font-family="Arial" font-size="14.00" fill="#666666">[boolean]</text>
<polygon fill="none" stroke="black" points="800.43,-453.6 800.43,-484.4 1156.32,-484.4 1156.32,-453.6 800.43,-453.6"/>
<text text-anchor="start" x="807.43" y="-465.8" font-family="Arial" font-size="14.00">created_at </text>
<text text-anchor="start" x="877.47" y="-465.8" font-family="Arial" font-size="14.00" fill="#666666">[timestamp with time zone]</text>
<polygon fill="none" stroke="black" points="800.43,-422.8 800.43,-453.6 1156.32,-453.6 1156.32,-422.8 800.43,-422.8"/>
<text text-anchor="start" x="807.43" y="-435" font-family="Arial" font-size="14.00">updated_at </text>
<text text-anchor="start" x="881.38" y="-435" font-family="Arial" font-size="14.00" fill="#666666">[timestamp with time zone]</text>
</g>
<!-- public.category_featured_tags&#45;&gt;public.tags -->
<g id="edge3" class="edge">
<title>public.category_featured_tags:tag_id&#45;&gt;public.tags:id</title>
<path fill="none" stroke="black" d="M789.38,-560.84C720.46,-552.66 773.91,-455.75 748.37,-379.6 728.16,-319.32 759.79,-246.4 696.21,-246.4"/>
<polygon fill="black" stroke="black" points="789.11,-560.83 798.84,-565.87 794.43,-561.12 798.76,-561.36 798.76,-561.36 798.76,-561.36 794.43,-561.12 799.34,-556.89 789.11,-560.83"/>
<text text-anchor="start" x="469.57" y="-571.4" font-family="Arial" font-size="10.00">FOREIGN KEY (tag_id) REFERENCES tags(id) ON DELETE CASCADE</text>
</g>
</g>
</svg>
