<?xml version="1.0" encoding="UTF-8" standalone="no"?>
<!DOCTYPE svg PUBLIC "-//W3C//DTD SVG 1.1//EN"
 "http://www.w3.org/Graphics/SVG/1.1/DTD/svg11.dtd">
<!-- Generated by graphviz version 12.1.2 (20240928.0832)
 -->
<!-- Title: public.system_announcement_reads Pages: 1 -->
<svg width="1235pt" height="818pt"
 viewBox="0.00 0.00 1235.49 817.60" xmlns="http://www.w3.org/2000/svg" xmlns:xlink="http://www.w3.org/1999/xlink">
<g id="graph0" class="graph" transform="scale(1 1) rotate(0) translate(4 813.6)">
<title>public.system_announcement_reads</title>
<polygon fill="white" stroke="none" points="-4,4 -4,-813.6 1231.49,-813.6 1231.49,4 -4,4"/>
<!-- public.system_announcement_reads -->
<g id="node1" class="node">
<title>public.system_announcement_reads</title>
<polygon fill="#efefef" stroke="none" points="348.96,-727.8 348.96,-763.4 747.88,-763.4 747.88,-727.8 348.96,-727.8"/>
<polygon fill="none" stroke="black" points="348.96,-727.8 348.96,-763.4 747.88,-763.4 747.88,-727.8 348.96,-727.8"/>
<text text-anchor="start" x="355.96" y="-741.2" font-family="Arial Bold" font-size="18.00">public.system_announcement_reads</text>
<text text-anchor="start" x="616.39" y="-741.2" font-family="Arial" font-size="14.00">    </text>
<text text-anchor="start" x="647.51" y="-741.2" font-family="Arial" font-size="14.00" fill="#666666">[BASE TABLE]</text>
<polygon fill="none" stroke="black" points="348.96,-697 348.96,-727.8 747.88,-727.8 747.88,-697 348.96,-697"/>
<text text-anchor="start" x="355.96" y="-709.2" font-family="Arial" font-size="14.00">id </text>
<text text-anchor="start" x="370.75" y="-709.2" font-family="Arial" font-size="14.00" fill="#666666">[uuid]</text>
<polygon fill="none" stroke="black" points="348.96,-666.2 348.96,-697 747.88,-697 747.88,-666.2 348.96,-666.2"/>
<text text-anchor="start" x="355.96" y="-678.4" font-family="Arial" font-size="14.00">user_id </text>
<text text-anchor="start" x="405.77" y="-678.4" font-family="Arial" font-size="14.00" fill="#666666">[uuid]</text>
<polygon fill="none" stroke="black" points="348.96,-635.4 348.96,-666.2 747.88,-666.2 747.88,-635.4 348.96,-635.4"/>
<text text-anchor="start" x="355.96" y="-647.6" font-family="Arial" font-size="14.00">announcement_id </text>
<text text-anchor="start" x="471.16" y="-647.6" font-family="Arial" font-size="14.00" fill="#666666">[uuid]</text>
<polygon fill="none" stroke="black" points="348.96,-604.6 348.96,-635.4 747.88,-635.4 747.88,-604.6 348.96,-604.6"/>
<text text-anchor="start" x="355.96" y="-616.8" font-family="Arial" font-size="14.00">read_at </text>
<text text-anchor="start" x="407.33" y="-616.8" font-family="Arial" font-size="14.00" fill="#666666">[timestamp with time zone]</text>
<polygon fill="none" stroke="black" stroke-width="3" points="347.46,-603.1 347.46,-764.9 749.38,-764.9 749.38,-603.1 347.46,-603.1"/>
</g>
<!-- public.users -->
<g id="node2" class="node">
<title>public.users</title>
<polygon fill="#efefef" stroke="none" points="156.49,-443.6 156.49,-479.2 490.35,-479.2 490.35,-443.6 156.49,-443.6"/>
<polygon fill="none" stroke="black" points="156.49,-443.6 156.49,-479.2 490.35,-479.2 490.35,-443.6 156.49,-443.6"/>
<text text-anchor="start" x="217.93" y="-457" font-family="Arial Bold" font-size="18.00">public.users</text>
<text text-anchor="start" x="304.42" y="-457" font-family="Arial" font-size="14.00">    </text>
<text text-anchor="start" x="335.53" y="-457" font-family="Arial" font-size="14.00" fill="#666666">[BASE TABLE]</text>
<polygon fill="none" stroke="black" points="156.49,-412.8 156.49,-443.6 490.35,-443.6 490.35,-412.8 156.49,-412.8"/>
<text text-anchor="start" x="163.49" y="-425" font-family="Arial" font-size="14.00">id </text>
<text text-anchor="start" x="178.27" y="-425" font-family="Arial" font-size="14.00" fill="#666666">[uuid]</text>
<polygon fill="none" stroke="black" points="156.49,-382 156.49,-412.8 490.35,-412.8 490.35,-382 156.49,-382"/>
<text text-anchor="start" x="163.49" y="-394.2" font-family="Arial" font-size="14.00">email </text>
<text text-anchor="start" x="200.83" y="-394.2" font-family="Arial" font-size="14.00" fill="#666666">[text]</text>
<polygon fill="none" stroke="black" points="156.49,-351.2 156.49,-382 490.35,-382 490.35,-351.2 156.49,-351.2"/>
<text text-anchor="start" x="163.49" y="-363.4" font-family="Arial" font-size="14.00">username </text>
<text text-anchor="start" x="229.63" y="-363.4" font-family="Arial" font-size="14.00" fill="#666666">[text]</text>
<polygon fill="none" stroke="black" points="156.49,-320.4 156.49,-351.2 490.35,-351.2 490.35,-320.4 156.49,-320.4"/>
<text text-anchor="start" x="163.49" y="-332.6" font-family="Arial" font-size="14.00">display_name </text>
<text text-anchor="start" x="253.76" y="-332.6" font-family="Arial" font-size="14.00" fill="#666666">[text]</text>
<polygon fill="none" stroke="black" points="156.49,-289.6 156.49,-320.4 490.35,-320.4 490.35,-289.6 156.49,-289.6"/>
<text text-anchor="start" x="163.49" y="-301.8" font-family="Arial" font-size="14.00">avatar_url </text>
<text text-anchor="start" x="229.63" y="-301.8" font-family="Arial" font-size="14.00" fill="#666666">[text]</text>
<polygon fill="none" stroke="black" points="156.49,-258.8 156.49,-289.6 490.35,-289.6 490.35,-258.8 156.49,-258.8"/>
<text text-anchor="start" x="163.49" y="-271" font-family="Arial" font-size="14.00">bio </text>
<text text-anchor="start" x="186.06" y="-271" font-family="Arial" font-size="14.00" fill="#666666">[text]</text>
<polygon fill="none" stroke="black" points="156.49,-228 156.49,-258.8 490.35,-258.8 490.35,-228 156.49,-228"/>
<text text-anchor="start" x="163.49" y="-240.2" font-family="Arial" font-size="14.00">is_premium </text>
<text text-anchor="start" x="239.73" y="-240.2" font-family="Arial" font-size="14.00" fill="#666666">[boolean]</text>
<polygon fill="none" stroke="black" points="156.49,-197.2 156.49,-228 490.35,-228 490.35,-197.2 156.49,-197.2"/>
<text text-anchor="start" x="163.49" y="-209.4" font-family="Arial" font-size="14.00">premium_started_at </text>
<text text-anchor="start" x="291.88" y="-209.4" font-family="Arial" font-size="14.00" fill="#666666">[timestamp with time zone]</text>
<polygon fill="none" stroke="black" points="156.49,-166.4 156.49,-197.2 490.35,-197.2 490.35,-166.4 156.49,-166.4"/>
<text text-anchor="start" x="163.49" y="-178.6" font-family="Arial" font-size="14.00">premium_expires_at </text>
<text text-anchor="start" x="294.21" y="-178.6" font-family="Arial" font-size="14.00" fill="#666666">[timestamp with time zone]</text>
<polygon fill="none" stroke="black" points="156.49,-135.6 156.49,-166.4 490.35,-166.4 490.35,-135.6 156.49,-135.6"/>
<text text-anchor="start" x="163.49" y="-147.8" font-family="Arial" font-size="14.00">created_at </text>
<text text-anchor="start" x="233.54" y="-147.8" font-family="Arial" font-size="14.00" fill="#666666">[timestamp with time zone]</text>
<polygon fill="none" stroke="black" points="156.49,-104.8 156.49,-135.6 490.35,-135.6 490.35,-104.8 156.49,-104.8"/>
<text text-anchor="start" x="163.49" y="-117" font-family="Arial" font-size="14.00">updated_at </text>
<text text-anchor="start" x="237.45" y="-117" font-family="Arial" font-size="14.00" fill="#666666">[timestamp with time zone]</text>
<polygon fill="none" stroke="black" points="156.49,-74 156.49,-104.8 490.35,-104.8 490.35,-74 156.49,-74"/>
<text text-anchor="start" x="163.49" y="-86.2" font-family="Arial" font-size="14.00">push_token </text>
<text text-anchor="start" x="239.77" y="-86.2" font-family="Arial" font-size="14.00" fill="#666666">[text]</text>
<polygon fill="none" stroke="black" points="156.49,-43.2 156.49,-74 490.35,-74 490.35,-43.2 156.49,-43.2"/>
<text text-anchor="start" x="163.49" y="-55.4" font-family="Arial" font-size="14.00">push_token_updated_at </text>
<text text-anchor="start" x="317.63" y="-55.4" font-family="Arial" font-size="14.00" fill="#666666">[timestamp with time zone]</text>
</g>
<!-- public.system_announcement_reads&#45;&gt;public.users -->
<g id="edge1" class="edge">
<title>public.system_announcement_reads:user_id&#45;&gt;public.users:id</title>
<path fill="none" stroke="black" d="M337.79,-680.51C296.26,-670.82 317.49,-598.55 348.96,-558.4 388.96,-507.36 450.28,-573.39 490.35,-522.4 516.22,-489.48 533.22,-428.2 491.35,-428.2"/>
<polygon fill="black" stroke="black" points="337.68,-680.5 347.15,-686.04 342.99,-681.07 347.29,-681.53 347.29,-681.53 347.29,-681.53 342.99,-681.07 348.1,-677.09 337.68,-680.5"/>
<text text-anchor="start" x="7" y="-691.6" font-family="Arial" font-size="10.00">FOREIGN KEY (user_id) REFERENCES users(id) ON DELETE CASCADE</text>
</g>
<!-- public.system_announcements -->
<g id="node3" class="node">
<title>public.system_announcements</title>
<polygon fill="#efefef" stroke="none" points="594.95,-382 594.95,-417.6 953.89,-417.6 953.89,-382 594.95,-382"/>
<polygon fill="none" stroke="black" points="594.95,-382 594.95,-417.6 953.89,-417.6 953.89,-382 594.95,-382"/>
<text text-anchor="start" x="601.95" y="-395.4" font-family="Arial Bold" font-size="18.00">public.system_announcements</text>
<text text-anchor="start" x="822.4" y="-395.4" font-family="Arial" font-size="14.00">    </text>
<text text-anchor="start" x="853.52" y="-395.4" font-family="Arial" font-size="14.00" fill="#666666">[BASE TABLE]</text>
<polygon fill="none" stroke="black" points="594.95,-351.2 594.95,-382 953.89,-382 953.89,-351.2 594.95,-351.2"/>
<text text-anchor="start" x="601.95" y="-363.4" font-family="Arial" font-size="14.00">id </text>
<text text-anchor="start" x="616.73" y="-363.4" font-family="Arial" font-size="14.00" fill="#666666">[uuid]</text>
<polygon fill="none" stroke="black" points="594.95,-320.4 594.95,-351.2 953.89,-351.2 953.89,-320.4 594.95,-320.4"/>
<text text-anchor="start" x="601.95" y="-332.6" font-family="Arial" font-size="14.00">title </text>
<text text-anchor="start" x="627.62" y="-332.6" font-family="Arial" font-size="14.00" fill="#666666">[text]</text>
<polygon fill="none" stroke="black" points="594.95,-289.6 594.95,-320.4 953.89,-320.4 953.89,-289.6 594.95,-289.6"/>
<text text-anchor="start" x="601.95" y="-301.8" font-family="Arial" font-size="14.00">content </text>
<text text-anchor="start" x="651.76" y="-301.8" font-family="Arial" font-size="14.00" fill="#666666">[text]</text>
<polygon fill="none" stroke="black" points="594.95,-258.8 594.95,-289.6 953.89,-289.6 953.89,-258.8 594.95,-258.8"/>
<text text-anchor="start" x="601.95" y="-271" font-family="Arial" font-size="14.00">type </text>
<text text-anchor="start" x="632.3" y="-271" font-family="Arial" font-size="14.00" fill="#666666">[text]</text>
<polygon fill="none" stroke="black" points="594.95,-228 594.95,-258.8 953.89,-258.8 953.89,-228 594.95,-228"/>
<text text-anchor="start" x="601.95" y="-240.2" font-family="Arial" font-size="14.00">is_active </text>
<text text-anchor="start" x="660.3" y="-240.2" font-family="Arial" font-size="14.00" fill="#666666">[boolean]</text>
<polygon fill="none" stroke="black" points="594.95,-197.2 594.95,-228 953.89,-228 953.89,-197.2 594.95,-197.2"/>
<text text-anchor="start" x="601.95" y="-209.4" font-family="Arial" font-size="14.00">published_at </text>
<text text-anchor="start" x="685.24" y="-209.4" font-family="Arial" font-size="14.00" fill="#666666">[timestamp with time zone]</text>
<polygon fill="none" stroke="black" points="594.95,-166.4 594.95,-197.2 953.89,-197.2 953.89,-166.4 594.95,-166.4"/>
<text text-anchor="start" x="601.95" y="-178.6" font-family="Arial" font-size="14.00">expires_at </text>
<text text-anchor="start" x="670.43" y="-178.6" font-family="Arial" font-size="14.00" fill="#666666">[timestamp with time zone]</text>
<polygon fill="none" stroke="black" points="594.95,-135.6 594.95,-166.4 953.89,-166.4 953.89,-135.6 594.95,-135.6"/>
<text text-anchor="start" x="601.95" y="-147.8" font-family="Arial" font-size="14.00">created_at </text>
<text text-anchor="start" x="671.99" y="-147.8" font-family="Arial" font-size="14.00" fill="#666666">[timestamp with time zone]</text>
<polygon fill="none" stroke="black" points="594.95,-104.8 594.95,-135.6 953.89,-135.6 953.89,-104.8 594.95,-104.8"/>
<text text-anchor="start" x="601.95" y="-117" font-family="Arial" font-size="14.00">updated_at </text>
<text text-anchor="start" x="675.9" y="-117" font-family="Arial" font-size="14.00" fill="#666666">[timestamp with time zone]</text>
</g>
<!-- public.system_announcement_reads&#45;&gt;public.system_announcements -->
<g id="edge2" class="edge">
<title>public.system_announcement_reads:announcement_id&#45;&gt;public.system_announcements:id</title>
<path fill="none" stroke="black" d="M759.16,-649.26C785.64,-639.96 765.87,-590.8 747.88,-558.4 708.74,-487.9 634.08,-531.3 594.95,-460.8 574.63,-424.19 552.08,-366.6 593.95,-366.6"/>
<polygon fill="black" stroke="black" points="759.1,-649.27 748.54,-646.3 753.82,-650.06 749.54,-650.7 749.54,-650.7 749.54,-650.7 753.82,-650.06 749.88,-655.2 759.1,-649.27"/>
<text text-anchor="start" x="755.88" y="-660.8" font-family="Arial" font-size="10.00">FOREIGN KEY (announcement_id) REFERENCES system_announcements(id) ON DELETE CASCADE</text>
</g>
</g>
</svg>
