<?xml version="1.0" encoding="UTF-8" standalone="no"?>
<!DOCTYPE svg PUBLIC "-//W3C//DTD SVG 1.1//EN"
 "http://www.w3.org/Graphics/SVG/1.1/DTD/svg11.dtd">
<!-- Generated by graphviz version 12.1.2 (20240928.0832)
 -->
<!-- Title: public.system_announcements Pages: 1 -->
<svg width="930pt" height="694pt"
 viewBox="0.00 0.00 929.73 694.40" xmlns="http://www.w3.org/2000/svg" xmlns:xlink="http://www.w3.org/1999/xlink">
<g id="graph0" class="graph" transform="scale(1 1) rotate(0) translate(4 690.4)">
<title>public.system_announcements</title>
<polygon fill="white" stroke="none" points="-4,4 -4,-690.4 925.73,-690.4 925.73,4 -4,4"/>
<!-- public.system_announcements -->
<g id="node1" class="node">
<title>public.system_announcements</title>
<polygon fill="#efefef" stroke="none" points="63.19,-323.4 63.19,-359 422.13,-359 422.13,-323.4 63.19,-323.4"/>
<polygon fill="none" stroke="black" points="63.19,-323.4 63.19,-359 422.13,-359 422.13,-323.4 63.19,-323.4"/>
<text text-anchor="start" x="70.19" y="-336.8" font-family="Arial Bold" font-size="18.00">public.system_announcements</text>
<text text-anchor="start" x="290.64" y="-336.8" font-family="Arial" font-size="14.00">    </text>
<text text-anchor="start" x="321.76" y="-336.8" font-family="Arial" font-size="14.00" fill="#666666">[BASE TABLE]</text>
<polygon fill="none" stroke="black" points="63.19,-292.6 63.19,-323.4 422.13,-323.4 422.13,-292.6 63.19,-292.6"/>
<text text-anchor="start" x="70.19" y="-304.8" font-family="Arial" font-size="14.00">id </text>
<text text-anchor="start" x="84.97" y="-304.8" font-family="Arial" font-size="14.00" fill="#666666">[uuid]</text>
<polygon fill="none" stroke="black" points="63.19,-261.8 63.19,-292.6 422.13,-292.6 422.13,-261.8 63.19,-261.8"/>
<text text-anchor="start" x="70.19" y="-274" font-family="Arial" font-size="14.00">title </text>
<text text-anchor="start" x="95.86" y="-274" font-family="Arial" font-size="14.00" fill="#666666">[text]</text>
<polygon fill="none" stroke="black" points="63.19,-231 63.19,-261.8 422.13,-261.8 422.13,-231 63.19,-231"/>
<text text-anchor="start" x="70.19" y="-243.2" font-family="Arial" font-size="14.00">content </text>
<text text-anchor="start" x="120" y="-243.2" font-family="Arial" font-size="14.00" fill="#666666">[text]</text>
<polygon fill="none" stroke="black" points="63.19,-200.2 63.19,-231 422.13,-231 422.13,-200.2 63.19,-200.2"/>
<text text-anchor="start" x="70.19" y="-212.4" font-family="Arial" font-size="14.00">type </text>
<text text-anchor="start" x="100.54" y="-212.4" font-family="Arial" font-size="14.00" fill="#666666">[text]</text>
<polygon fill="none" stroke="black" points="63.19,-169.4 63.19,-200.2 422.13,-200.2 422.13,-169.4 63.19,-169.4"/>
<text text-anchor="start" x="70.19" y="-181.6" font-family="Arial" font-size="14.00">is_active </text>
<text text-anchor="start" x="128.54" y="-181.6" font-family="Arial" font-size="14.00" fill="#666666">[boolean]</text>
<polygon fill="none" stroke="black" points="63.19,-138.6 63.19,-169.4 422.13,-169.4 422.13,-138.6 63.19,-138.6"/>
<text text-anchor="start" x="70.19" y="-150.8" font-family="Arial" font-size="14.00">published_at </text>
<text text-anchor="start" x="153.48" y="-150.8" font-family="Arial" font-size="14.00" fill="#666666">[timestamp with time zone]</text>
<polygon fill="none" stroke="black" points="63.19,-107.8 63.19,-138.6 422.13,-138.6 422.13,-107.8 63.19,-107.8"/>
<text text-anchor="start" x="70.19" y="-120" font-family="Arial" font-size="14.00">expires_at </text>
<text text-anchor="start" x="138.67" y="-120" font-family="Arial" font-size="14.00" fill="#666666">[timestamp with time zone]</text>
<polygon fill="none" stroke="black" points="63.19,-77 63.19,-107.8 422.13,-107.8 422.13,-77 63.19,-77"/>
<text text-anchor="start" x="70.19" y="-89.2" font-family="Arial" font-size="14.00">created_at </text>
<text text-anchor="start" x="140.23" y="-89.2" font-family="Arial" font-size="14.00" fill="#666666">[timestamp with time zone]</text>
<polygon fill="none" stroke="black" points="63.19,-46.2 63.19,-77 422.13,-77 422.13,-46.2 63.19,-46.2"/>
<text text-anchor="start" x="70.19" y="-58.4" font-family="Arial" font-size="14.00">updated_at </text>
<text text-anchor="start" x="144.14" y="-58.4" font-family="Arial" font-size="14.00" fill="#666666">[timestamp with time zone]</text>
<polygon fill="none" stroke="black" stroke-width="3" points="61.69,-44.7 61.69,-360.5 423.63,-360.5 423.63,-44.7 61.69,-44.7"/>
</g>
<!-- public.system_announcement_reads -->
<g id="node2" class="node">
<title>public.system_announcement_reads</title>
<polygon fill="#efefef" stroke="none" points="43.2,-607.6 43.2,-643.2 442.12,-643.2 442.12,-607.6 43.2,-607.6"/>
<polygon fill="none" stroke="black" points="43.2,-607.6 43.2,-643.2 442.12,-643.2 442.12,-607.6 43.2,-607.6"/>
<text text-anchor="start" x="50.2" y="-621" font-family="Arial Bold" font-size="18.00">public.system_announcement_reads</text>
<text text-anchor="start" x="310.63" y="-621" font-family="Arial" font-size="14.00">    </text>
<text text-anchor="start" x="341.75" y="-621" font-family="Arial" font-size="14.00" fill="#666666">[BASE TABLE]</text>
<polygon fill="none" stroke="black" points="43.2,-576.8 43.2,-607.6 442.12,-607.6 442.12,-576.8 43.2,-576.8"/>
<text text-anchor="start" x="50.2" y="-589" font-family="Arial" font-size="14.00">id </text>
<text text-anchor="start" x="64.99" y="-589" font-family="Arial" font-size="14.00" fill="#666666">[uuid]</text>
<polygon fill="none" stroke="black" points="43.2,-546 43.2,-576.8 442.12,-576.8 442.12,-546 43.2,-546"/>
<text text-anchor="start" x="50.2" y="-558.2" font-family="Arial" font-size="14.00">user_id </text>
<text text-anchor="start" x="100.01" y="-558.2" font-family="Arial" font-size="14.00" fill="#666666">[uuid]</text>
<polygon fill="none" stroke="black" points="43.2,-515.2 43.2,-546 442.12,-546 442.12,-515.2 43.2,-515.2"/>
<text text-anchor="start" x="50.2" y="-527.4" font-family="Arial" font-size="14.00">announcement_id </text>
<text text-anchor="start" x="165.4" y="-527.4" font-family="Arial" font-size="14.00" fill="#666666">[uuid]</text>
<polygon fill="none" stroke="black" points="43.2,-484.4 43.2,-515.2 442.12,-515.2 442.12,-484.4 43.2,-484.4"/>
<text text-anchor="start" x="50.2" y="-496.6" font-family="Arial" font-size="14.00">read_at </text>
<text text-anchor="start" x="101.57" y="-496.6" font-family="Arial" font-size="14.00" fill="#666666">[timestamp with time zone]</text>
</g>
<!-- public.system_announcement_reads&#45;&gt;public.system_announcements -->
<g id="edge1" class="edge">
<title>public.system_announcement_reads:announcement_id&#45;&gt;public.system_announcements:id</title>
<path fill="none" stroke="black" d="M453.42,-529.75C540.9,-514.8 518.87,-308 423.13,-308"/>
<polygon fill="black" stroke="black" points="453.42,-529.75 443.08,-526.09 448.1,-530.19 443.78,-530.54 443.78,-530.54 443.78,-530.54 448.1,-530.19 443.82,-535.06 453.42,-529.75"/>
<text text-anchor="start" x="450.12" y="-540.6" font-family="Arial" font-size="10.00">FOREIGN KEY (announcement_id) REFERENCES system_announcements(id) ON DELETE CASCADE</text>
</g>
</g>
</svg>
