<?xml version="1.0" encoding="UTF-8" standalone="no"?>
<!DOCTYPE svg PUBLIC "-//W3C//DTD SVG 1.1//EN"
 "http://www.w3.org/Graphics/SVG/1.1/DTD/svg11.dtd">
<!-- Generated by graphviz version 12.1.2 (20240928.0832)
 -->
<!-- Title: realtime.messages Pages: 1 -->
<svg width="374pt" height="382pt"
 viewBox="0.00 0.00 373.54 382.40" xmlns="http://www.w3.org/2000/svg" xmlns:xlink="http://www.w3.org/1999/xlink">
<g id="graph0" class="graph" transform="scale(1 1) rotate(0) translate(4 378.4)">
<title>realtime.messages</title>
<polygon fill="white" stroke="none" points="-4,4 -4,-378.4 369.54,-378.4 369.54,4 -4,4"/>
<!-- realtime.messages -->
<g id="node1" class="node">
<title>realtime.messages</title>
<polygon fill="#efefef" stroke="none" points="46.2,-292.6 46.2,-328.2 319.34,-328.2 319.34,-292.6 46.2,-292.6"/>
<polygon fill="none" stroke="black" points="46.2,-292.6 46.2,-328.2 319.34,-328.2 319.34,-292.6 46.2,-292.6"/>
<text text-anchor="start" x="54.8" y="-306" font-family="Arial Bold" font-size="18.00">realtime.messages</text>
<text text-anchor="start" x="186.25" y="-306" font-family="Arial" font-size="14.00">    </text>
<text text-anchor="start" x="217.37" y="-306" font-family="Arial" font-size="14.00" fill="#666666">[BASE TABLE]</text>
<polygon fill="none" stroke="black" points="46.2,-261.8 46.2,-292.6 319.34,-292.6 319.34,-261.8 46.2,-261.8"/>
<text text-anchor="start" x="53.2" y="-274" font-family="Arial" font-size="14.00">topic </text>
<text text-anchor="start" x="86.66" y="-274" font-family="Arial" font-size="14.00" fill="#666666">[text]</text>
<polygon fill="none" stroke="black" points="46.2,-231 46.2,-261.8 319.34,-261.8 319.34,-231 46.2,-231"/>
<text text-anchor="start" x="53.2" y="-243.2" font-family="Arial" font-size="14.00">extension </text>
<text text-anchor="start" x="117.02" y="-243.2" font-family="Arial" font-size="14.00" fill="#666666">[text]</text>
<polygon fill="none" stroke="black" points="46.2,-200.2 46.2,-231 319.34,-231 319.34,-200.2 46.2,-200.2"/>
<text text-anchor="start" x="53.2" y="-212.4" font-family="Arial" font-size="14.00">payload </text>
<text text-anchor="start" x="106.13" y="-212.4" font-family="Arial" font-size="14.00" fill="#666666">[jsonb]</text>
<polygon fill="none" stroke="black" points="46.2,-169.4 46.2,-200.2 319.34,-200.2 319.34,-169.4 46.2,-169.4"/>
<text text-anchor="start" x="53.2" y="-181.6" font-family="Arial" font-size="14.00">event </text>
<text text-anchor="start" x="91.34" y="-181.6" font-family="Arial" font-size="14.00" fill="#666666">[text]</text>
<polygon fill="none" stroke="black" points="46.2,-138.6 46.2,-169.4 319.34,-169.4 319.34,-138.6 46.2,-138.6"/>
<text text-anchor="start" x="53.2" y="-150.8" font-family="Arial" font-size="14.00">private </text>
<text text-anchor="start" x="99.11" y="-150.8" font-family="Arial" font-size="14.00" fill="#666666">[boolean]</text>
<polygon fill="none" stroke="black" points="46.2,-107.8 46.2,-138.6 319.34,-138.6 319.34,-107.8 46.2,-107.8"/>
<text text-anchor="start" x="53.2" y="-120" font-family="Arial" font-size="14.00">updated_at </text>
<text text-anchor="start" x="127.16" y="-120" font-family="Arial" font-size="14.00" fill="#666666">[timestamp without time zone]</text>
<polygon fill="none" stroke="black" points="46.2,-77 46.2,-107.8 319.34,-107.8 319.34,-77 46.2,-77"/>
<text text-anchor="start" x="53.2" y="-89.2" font-family="Arial" font-size="14.00">inserted_at </text>
<text text-anchor="start" x="126.36" y="-89.2" font-family="Arial" font-size="14.00" fill="#666666">[timestamp without time zone]</text>
<polygon fill="none" stroke="black" points="46.2,-46.2 46.2,-77 319.34,-77 319.34,-46.2 46.2,-46.2"/>
<text text-anchor="start" x="53.2" y="-58.4" font-family="Arial" font-size="14.00">id </text>
<text text-anchor="start" x="67.99" y="-58.4" font-family="Arial" font-size="14.00" fill="#666666">[uuid]</text>
<polygon fill="none" stroke="black" stroke-width="3" points="44.7,-44.7 44.7,-329.7 320.84,-329.7 320.84,-44.7 44.7,-44.7"/>
</g>
</g>
</svg>
