<?xml version="1.0" encoding="UTF-8" standalone="no"?>
<!DOCTYPE svg PUBLIC "-//W3C//DTD SVG 1.1//EN"
 "http://www.w3.org/Graphics/SVG/1.1/DTD/svg11.dtd">
<!-- Generated by graphviz version 12.1.2 (20240928.0832)
 -->
<!-- Title: storage.migrations Pages: 1 -->
<svg width="380pt" height="259pt"
 viewBox="0.00 0.00 379.76 259.20" xmlns="http://www.w3.org/2000/svg" xmlns:xlink="http://www.w3.org/1999/xlink">
<g id="graph0" class="graph" transform="scale(1 1) rotate(0) translate(4 255.2)">
<title>storage.migrations</title>
<polygon fill="white" stroke="none" points="-4,4 -4,-255.2 375.76,-255.2 375.76,4 -4,4"/>
<!-- storage.migrations -->
<g id="node1" class="node">
<title>storage.migrations</title>
<polygon fill="#efefef" stroke="none" points="46.2,-169.4 46.2,-205 325.56,-205 325.56,-169.4 46.2,-169.4"/>
<polygon fill="none" stroke="black" points="46.2,-169.4 46.2,-205 325.56,-205 325.56,-169.4 46.2,-169.4"/>
<text text-anchor="start" x="56.9" y="-182.8" font-family="Arial Bold" font-size="18.00">storage.migrations</text>
<text text-anchor="start" x="190.37" y="-182.8" font-family="Arial" font-size="14.00">    </text>
<text text-anchor="start" x="221.49" y="-182.8" font-family="Arial" font-size="14.00" fill="#666666">[BASE TABLE]</text>
<polygon fill="none" stroke="black" points="46.2,-138.6 46.2,-169.4 325.56,-169.4 325.56,-138.6 46.2,-138.6"/>
<text text-anchor="start" x="53.2" y="-150.8" font-family="Arial" font-size="14.00">id </text>
<text text-anchor="start" x="67.99" y="-150.8" font-family="Arial" font-size="14.00" fill="#666666">[integer]</text>
<polygon fill="none" stroke="black" points="46.2,-107.8 46.2,-138.6 325.56,-138.6 325.56,-107.8 46.2,-107.8"/>
<text text-anchor="start" x="53.2" y="-120" font-family="Arial" font-size="14.00">name </text>
<text text-anchor="start" x="92.11" y="-120" font-family="Arial" font-size="14.00" fill="#666666">[varchar(100)]</text>
<polygon fill="none" stroke="black" points="46.2,-77 46.2,-107.8 325.56,-107.8 325.56,-77 46.2,-77"/>
<text text-anchor="start" x="53.2" y="-89.2" font-family="Arial" font-size="14.00">hash </text>
<text text-anchor="start" x="87.45" y="-89.2" font-family="Arial" font-size="14.00" fill="#666666">[varchar(40)]</text>
<polygon fill="none" stroke="black" points="46.2,-46.2 46.2,-77 325.56,-77 325.56,-46.2 46.2,-46.2"/>
<text text-anchor="start" x="53.2" y="-58.4" font-family="Arial" font-size="14.00">executed_at </text>
<text text-anchor="start" x="133.37" y="-58.4" font-family="Arial" font-size="14.00" fill="#666666">[timestamp without time zone]</text>
<polygon fill="none" stroke="black" stroke-width="3" points="44.7,-44.7 44.7,-206.5 327.06,-206.5 327.06,-44.7 44.7,-44.7"/>
</g>
</g>
</svg>
