<?xml version="1.0" encoding="UTF-8" standalone="no"?>
<!DOCTYPE svg PUBLIC "-//W3C//DTD SVG 1.1//EN"
 "http://www.w3.org/Graphics/SVG/1.1/DTD/svg11.dtd">
<!-- Generated by graphviz version 12.1.2 (20240928.0832)
 -->
<!-- Title: storage.objects Pages: 1 -->
<svg width="641pt" height="1033pt"
 viewBox="0.00 0.00 640.52 1033.20" xmlns="http://www.w3.org/2000/svg" xmlns:xlink="http://www.w3.org/1999/xlink">
<g id="graph0" class="graph" transform="scale(1 1) rotate(0) translate(4 1029.2)">
<title>storage.objects</title>
<polygon fill="white" stroke="none" points="-4,4 -4,-1029.2 636.52,-1029.2 636.52,4 -4,4"/>
<!-- storage.objects -->
<g id="node1" class="node">
<title>storage.objects</title>
<polygon fill="#efefef" stroke="none" points="46.2,-943.4 46.2,-979 337.99,-979 337.99,-943.4 46.2,-943.4"/>
<polygon fill="none" stroke="black" points="46.2,-943.4 46.2,-979 337.99,-979 337.99,-943.4 46.2,-943.4"/>
<text text-anchor="start" x="76.12" y="-956.8" font-family="Arial Bold" font-size="18.00">storage.objects</text>
<text text-anchor="start" x="183.58" y="-956.8" font-family="Arial" font-size="14.00">    </text>
<text text-anchor="start" x="214.7" y="-956.8" font-family="Arial" font-size="14.00" fill="#666666">[BASE TABLE]</text>
<polygon fill="none" stroke="black" points="46.2,-912.6 46.2,-943.4 337.99,-943.4 337.99,-912.6 46.2,-912.6"/>
<text text-anchor="start" x="53.2" y="-924.8" font-family="Arial" font-size="14.00">id </text>
<text text-anchor="start" x="67.99" y="-924.8" font-family="Arial" font-size="14.00" fill="#666666">[uuid]</text>
<polygon fill="none" stroke="black" points="46.2,-881.8 46.2,-912.6 337.99,-912.6 337.99,-881.8 46.2,-881.8"/>
<text text-anchor="start" x="53.2" y="-894" font-family="Arial" font-size="14.00">bucket_id </text>
<text text-anchor="start" x="117.02" y="-894" font-family="Arial" font-size="14.00" fill="#666666">[text]</text>
<polygon fill="none" stroke="black" points="46.2,-851 46.2,-881.8 337.99,-881.8 337.99,-851 46.2,-851"/>
<text text-anchor="start" x="53.2" y="-863.2" font-family="Arial" font-size="14.00">name </text>
<text text-anchor="start" x="92.11" y="-863.2" font-family="Arial" font-size="14.00" fill="#666666">[text]</text>
<polygon fill="none" stroke="black" points="46.2,-820.2 46.2,-851 337.99,-851 337.99,-820.2 46.2,-820.2"/>
<text text-anchor="start" x="53.2" y="-832.4" font-family="Arial" font-size="14.00">owner </text>
<text text-anchor="start" x="95.22" y="-832.4" font-family="Arial" font-size="14.00" fill="#666666">[uuid]</text>
<polygon fill="none" stroke="black" points="46.2,-789.4 46.2,-820.2 337.99,-820.2 337.99,-789.4 46.2,-789.4"/>
<text text-anchor="start" x="53.2" y="-801.6" font-family="Arial" font-size="14.00">created_at </text>
<text text-anchor="start" x="123.25" y="-801.6" font-family="Arial" font-size="14.00" fill="#666666">[timestamp with time zone]</text>
<polygon fill="none" stroke="black" points="46.2,-758.6 46.2,-789.4 337.99,-789.4 337.99,-758.6 46.2,-758.6"/>
<text text-anchor="start" x="53.2" y="-770.8" font-family="Arial" font-size="14.00">updated_at </text>
<text text-anchor="start" x="127.16" y="-770.8" font-family="Arial" font-size="14.00" fill="#666666">[timestamp with time zone]</text>
<polygon fill="none" stroke="black" points="46.2,-727.8 46.2,-758.6 337.99,-758.6 337.99,-727.8 46.2,-727.8"/>
<text text-anchor="start" x="53.2" y="-740" font-family="Arial" font-size="14.00">last_accessed_at </text>
<text text-anchor="start" x="165.27" y="-740" font-family="Arial" font-size="14.00" fill="#666666">[timestamp with time zone]</text>
<polygon fill="none" stroke="black" points="46.2,-697 46.2,-727.8 337.99,-727.8 337.99,-697 46.2,-697"/>
<text text-anchor="start" x="53.2" y="-709.2" font-family="Arial" font-size="14.00">metadata </text>
<text text-anchor="start" x="115.46" y="-709.2" font-family="Arial" font-size="14.00" fill="#666666">[jsonb]</text>
<polygon fill="none" stroke="black" points="46.2,-666.2 46.2,-697 337.99,-697 337.99,-666.2 46.2,-666.2"/>
<text text-anchor="start" x="53.2" y="-678.4" font-family="Arial" font-size="14.00">path_tokens </text>
<text text-anchor="start" x="133.37" y="-678.4" font-family="Arial" font-size="14.00" fill="#666666">[text[]]</text>
<polygon fill="none" stroke="black" points="46.2,-635.4 46.2,-666.2 337.99,-666.2 337.99,-635.4 46.2,-635.4"/>
<text text-anchor="start" x="53.2" y="-647.6" font-family="Arial" font-size="14.00">version </text>
<text text-anchor="start" x="102.22" y="-647.6" font-family="Arial" font-size="14.00" fill="#666666">[text]</text>
<polygon fill="none" stroke="black" points="46.2,-604.6 46.2,-635.4 337.99,-635.4 337.99,-604.6 46.2,-604.6"/>
<text text-anchor="start" x="53.2" y="-616.8" font-family="Arial" font-size="14.00">owner_id </text>
<text text-anchor="start" x="113.9" y="-616.8" font-family="Arial" font-size="14.00" fill="#666666">[text]</text>
<polygon fill="none" stroke="black" points="46.2,-573.8 46.2,-604.6 337.99,-604.6 337.99,-573.8 46.2,-573.8"/>
<text text-anchor="start" x="53.2" y="-586" font-family="Arial" font-size="14.00">user_metadata </text>
<text text-anchor="start" x="150.48" y="-586" font-family="Arial" font-size="14.00" fill="#666666">[jsonb]</text>
<polygon fill="none" stroke="black" points="46.2,-543 46.2,-573.8 337.99,-573.8 337.99,-543 46.2,-543"/>
<text text-anchor="start" x="53.2" y="-555.2" font-family="Arial" font-size="14.00">level </text>
<text text-anchor="start" x="85.88" y="-555.2" font-family="Arial" font-size="14.00" fill="#666666">[integer]</text>
<polygon fill="none" stroke="black" stroke-width="3" points="44.7,-541.5 44.7,-980.5 339.49,-980.5 339.49,-541.5 44.7,-541.5"/>
</g>
<!-- storage.buckets -->
<g id="node2" class="node">
<title>storage.buckets</title>
<polygon fill="#efefef" stroke="none" points="65.26,-382 65.26,-417.6 318.94,-417.6 318.94,-382 65.26,-382"/>
<polygon fill="none" stroke="black" points="65.26,-382 65.26,-417.6 318.94,-417.6 318.94,-382 65.26,-382"/>
<text text-anchor="start" x="74.12" y="-395.4" font-family="Arial Bold" font-size="18.00">storage.buckets</text>
<text text-anchor="start" x="185.58" y="-395.4" font-family="Arial" font-size="14.00">    </text>
<text text-anchor="start" x="216.7" y="-395.4" font-family="Arial" font-size="14.00" fill="#666666">[BASE TABLE]</text>
<polygon fill="none" stroke="black" points="65.26,-351.2 65.26,-382 318.94,-382 318.94,-351.2 65.26,-351.2"/>
<text text-anchor="start" x="72.26" y="-363.4" font-family="Arial" font-size="14.00">id </text>
<text text-anchor="start" x="87.04" y="-363.4" font-family="Arial" font-size="14.00" fill="#666666">[text]</text>
<polygon fill="none" stroke="black" points="65.26,-320.4 65.26,-351.2 318.94,-351.2 318.94,-320.4 65.26,-320.4"/>
<text text-anchor="start" x="72.26" y="-332.6" font-family="Arial" font-size="14.00">name </text>
<text text-anchor="start" x="111.17" y="-332.6" font-family="Arial" font-size="14.00" fill="#666666">[text]</text>
<polygon fill="none" stroke="black" points="65.26,-289.6 65.26,-320.4 318.94,-320.4 318.94,-289.6 65.26,-289.6"/>
<text text-anchor="start" x="72.26" y="-301.8" font-family="Arial" font-size="14.00">owner </text>
<text text-anchor="start" x="114.28" y="-301.8" font-family="Arial" font-size="14.00" fill="#666666">[uuid]</text>
<polygon fill="none" stroke="black" points="65.26,-258.8 65.26,-289.6 318.94,-289.6 318.94,-258.8 65.26,-258.8"/>
<text text-anchor="start" x="72.26" y="-271" font-family="Arial" font-size="14.00">created_at </text>
<text text-anchor="start" x="142.3" y="-271" font-family="Arial" font-size="14.00" fill="#666666">[timestamp with time zone]</text>
<polygon fill="none" stroke="black" points="65.26,-228 65.26,-258.8 318.94,-258.8 318.94,-228 65.26,-228"/>
<text text-anchor="start" x="72.26" y="-240.2" font-family="Arial" font-size="14.00">updated_at </text>
<text text-anchor="start" x="146.21" y="-240.2" font-family="Arial" font-size="14.00" fill="#666666">[timestamp with time zone]</text>
<polygon fill="none" stroke="black" points="65.26,-197.2 65.26,-228 318.94,-228 318.94,-197.2 65.26,-197.2"/>
<text text-anchor="start" x="72.26" y="-209.4" font-family="Arial" font-size="14.00">public </text>
<text text-anchor="start" x="112.72" y="-209.4" font-family="Arial" font-size="14.00" fill="#666666">[boolean]</text>
<polygon fill="none" stroke="black" points="65.26,-166.4 65.26,-197.2 318.94,-197.2 318.94,-166.4 65.26,-166.4"/>
<text text-anchor="start" x="72.26" y="-178.6" font-family="Arial" font-size="14.00">avif_autodetection </text>
<text text-anchor="start" x="189.79" y="-178.6" font-family="Arial" font-size="14.00" fill="#666666">[boolean]</text>
<polygon fill="none" stroke="black" points="65.26,-135.6 65.26,-166.4 318.94,-166.4 318.94,-135.6 65.26,-135.6"/>
<text text-anchor="start" x="72.26" y="-147.8" font-family="Arial" font-size="14.00">file_size_limit </text>
<text text-anchor="start" x="159.39" y="-147.8" font-family="Arial" font-size="14.00" fill="#666666">[bigint]</text>
<polygon fill="none" stroke="black" points="65.26,-104.8 65.26,-135.6 318.94,-135.6 318.94,-104.8 65.26,-104.8"/>
<text text-anchor="start" x="72.26" y="-117" font-family="Arial" font-size="14.00">allowed_mime_types </text>
<text text-anchor="start" x="206.88" y="-117" font-family="Arial" font-size="14.00" fill="#666666">[text[]]</text>
<polygon fill="none" stroke="black" points="65.26,-74 65.26,-104.8 318.94,-104.8 318.94,-74 65.26,-74"/>
<text text-anchor="start" x="72.26" y="-86.2" font-family="Arial" font-size="14.00">owner_id </text>
<text text-anchor="start" x="132.96" y="-86.2" font-family="Arial" font-size="14.00" fill="#666666">[text]</text>
<polygon fill="none" stroke="black" points="65.26,-43.2 65.26,-74 318.94,-74 318.94,-43.2 65.26,-43.2"/>
<text text-anchor="start" x="72.26" y="-55.4" font-family="Arial" font-size="14.00">type </text>
<text text-anchor="start" x="102.61" y="-55.4" font-family="Arial" font-size="14.00" fill="#666666">[storage.buckettype]</text>
</g>
<!-- storage.objects&#45;&gt;storage.buckets -->
<g id="edge1" class="edge">
<title>storage.objects:bucket_id&#45;&gt;storage.buckets:id</title>
<path fill="none" stroke="black" d="M347.98,-892.61C395.78,-840.75 375.7,-366.6 319.94,-366.6"/>
<polygon fill="black" stroke="black" points="348.2,-892.5 337.24,-893.04 343.45,-894.93 339.59,-896.9 339.59,-896.9 339.59,-896.9 343.45,-894.93 341.34,-901.06 348.2,-892.5"/>
<text text-anchor="start" x="345.99" y="-907.2" font-family="Arial" font-size="10.00">FOREIGN KEY (bucket_id) REFERENCES storage.buckets(id)</text>
</g>
</g>
</svg>
