<?xml version="1.0" encoding="UTF-8" standalone="no"?>
<!DOCTYPE svg PUBLIC "-//W3C//DTD SVG 1.1//EN"
 "http://www.w3.org/Graphics/SVG/1.1/DTD/svg11.dtd">
<!-- Generated by graphviz version 12.1.2 (20240928.0832)
 -->
<!-- Title: storage.s3_multipart_uploads Pages: 1 -->
<svg width="912pt" height="1376pt"
 viewBox="0.00 0.00 912.42 1376.00" xmlns="http://www.w3.org/2000/svg" xmlns:xlink="http://www.w3.org/1999/xlink">
<g id="graph0" class="graph" transform="scale(1 1) rotate(0) translate(4 1372)">
<title>storage.s3_multipart_uploads</title>
<polygon fill="white" stroke="none" points="-4,4 -4,-1372 908.42,-1372 908.42,4 -4,4"/>
<!-- storage.s3_multipart_uploads -->
<g id="node1" class="node">
<title>storage.s3_multipart_uploads</title>
<polygon fill="#efefef" stroke="none" points="65.19,-820.2 65.19,-855.8 416.15,-855.8 416.15,-820.2 65.19,-820.2"/>
<polygon fill="none" stroke="black" points="65.19,-820.2 65.19,-855.8 416.15,-855.8 416.15,-820.2 65.19,-820.2"/>
<text text-anchor="start" x="72.19" y="-833.6" font-family="Arial Bold" font-size="18.00">storage.s3_multipart_uploads</text>
<text text-anchor="start" x="284.66" y="-833.6" font-family="Arial" font-size="14.00">    </text>
<text text-anchor="start" x="315.78" y="-833.6" font-family="Arial" font-size="14.00" fill="#666666">[BASE TABLE]</text>
<polygon fill="none" stroke="black" points="65.19,-789.4 65.19,-820.2 416.15,-820.2 416.15,-789.4 65.19,-789.4"/>
<text text-anchor="start" x="72.19" y="-801.6" font-family="Arial" font-size="14.00">id </text>
<text text-anchor="start" x="86.98" y="-801.6" font-family="Arial" font-size="14.00" fill="#666666">[text]</text>
<polygon fill="none" stroke="black" points="65.19,-758.6 65.19,-789.4 416.15,-789.4 416.15,-758.6 65.19,-758.6"/>
<text text-anchor="start" x="72.19" y="-770.8" font-family="Arial" font-size="14.00">in_progress_size </text>
<text text-anchor="start" x="181.92" y="-770.8" font-family="Arial" font-size="14.00" fill="#666666">[bigint]</text>
<polygon fill="none" stroke="black" points="65.19,-727.8 65.19,-758.6 416.15,-758.6 416.15,-727.8 65.19,-727.8"/>
<text text-anchor="start" x="72.19" y="-740" font-family="Arial" font-size="14.00">upload_signature </text>
<text text-anchor="start" x="183.5" y="-740" font-family="Arial" font-size="14.00" fill="#666666">[text]</text>
<polygon fill="none" stroke="black" points="65.19,-697 65.19,-727.8 416.15,-727.8 416.15,-697 65.19,-697"/>
<text text-anchor="start" x="72.19" y="-709.2" font-family="Arial" font-size="14.00">bucket_id </text>
<text text-anchor="start" x="136.01" y="-709.2" font-family="Arial" font-size="14.00" fill="#666666">[text]</text>
<polygon fill="none" stroke="black" points="65.19,-666.2 65.19,-697 416.15,-697 416.15,-666.2 65.19,-666.2"/>
<text text-anchor="start" x="72.19" y="-678.4" font-family="Arial" font-size="14.00">key </text>
<text text-anchor="start" x="97.87" y="-678.4" font-family="Arial" font-size="14.00" fill="#666666">[text]</text>
<polygon fill="none" stroke="black" points="65.19,-635.4 65.19,-666.2 416.15,-666.2 416.15,-635.4 65.19,-635.4"/>
<text text-anchor="start" x="72.19" y="-647.6" font-family="Arial" font-size="14.00">version </text>
<text text-anchor="start" x="121.22" y="-647.6" font-family="Arial" font-size="14.00" fill="#666666">[text]</text>
<polygon fill="none" stroke="black" points="65.19,-604.6 65.19,-635.4 416.15,-635.4 416.15,-604.6 65.19,-604.6"/>
<text text-anchor="start" x="72.19" y="-616.8" font-family="Arial" font-size="14.00">owner_id </text>
<text text-anchor="start" x="132.9" y="-616.8" font-family="Arial" font-size="14.00" fill="#666666">[text]</text>
<polygon fill="none" stroke="black" points="65.19,-573.8 65.19,-604.6 416.15,-604.6 416.15,-573.8 65.19,-573.8"/>
<text text-anchor="start" x="72.19" y="-586" font-family="Arial" font-size="14.00">created_at </text>
<text text-anchor="start" x="142.24" y="-586" font-family="Arial" font-size="14.00" fill="#666666">[timestamp with time zone]</text>
<polygon fill="none" stroke="black" points="65.19,-543 65.19,-573.8 416.15,-573.8 416.15,-543 65.19,-543"/>
<text text-anchor="start" x="72.19" y="-555.2" font-family="Arial" font-size="14.00">user_metadata </text>
<text text-anchor="start" x="169.48" y="-555.2" font-family="Arial" font-size="14.00" fill="#666666">[jsonb]</text>
<polygon fill="none" stroke="black" stroke-width="3" points="63.69,-541.5 63.69,-857.3 417.65,-857.3 417.65,-541.5 63.69,-541.5"/>
</g>
<!-- storage.buckets -->
<g id="node3" class="node">
<title>storage.buckets</title>
<polygon fill="#efefef" stroke="none" points="113.83,-382 113.83,-417.6 367.51,-417.6 367.51,-382 113.83,-382"/>
<polygon fill="none" stroke="black" points="113.83,-382 113.83,-417.6 367.51,-417.6 367.51,-382 113.83,-382"/>
<text text-anchor="start" x="122.7" y="-395.4" font-family="Arial Bold" font-size="18.00">storage.buckets</text>
<text text-anchor="start" x="234.16" y="-395.4" font-family="Arial" font-size="14.00">    </text>
<text text-anchor="start" x="265.28" y="-395.4" font-family="Arial" font-size="14.00" fill="#666666">[BASE TABLE]</text>
<polygon fill="none" stroke="black" points="113.83,-351.2 113.83,-382 367.51,-382 367.51,-351.2 113.83,-351.2"/>
<text text-anchor="start" x="120.83" y="-363.4" font-family="Arial" font-size="14.00">id </text>
<text text-anchor="start" x="135.62" y="-363.4" font-family="Arial" font-size="14.00" fill="#666666">[text]</text>
<polygon fill="none" stroke="black" points="113.83,-320.4 113.83,-351.2 367.51,-351.2 367.51,-320.4 113.83,-320.4"/>
<text text-anchor="start" x="120.83" y="-332.6" font-family="Arial" font-size="14.00">name </text>
<text text-anchor="start" x="159.74" y="-332.6" font-family="Arial" font-size="14.00" fill="#666666">[text]</text>
<polygon fill="none" stroke="black" points="113.83,-289.6 113.83,-320.4 367.51,-320.4 367.51,-289.6 113.83,-289.6"/>
<text text-anchor="start" x="120.83" y="-301.8" font-family="Arial" font-size="14.00">owner </text>
<text text-anchor="start" x="162.85" y="-301.8" font-family="Arial" font-size="14.00" fill="#666666">[uuid]</text>
<polygon fill="none" stroke="black" points="113.83,-258.8 113.83,-289.6 367.51,-289.6 367.51,-258.8 113.83,-258.8"/>
<text text-anchor="start" x="120.83" y="-271" font-family="Arial" font-size="14.00">created_at </text>
<text text-anchor="start" x="190.88" y="-271" font-family="Arial" font-size="14.00" fill="#666666">[timestamp with time zone]</text>
<polygon fill="none" stroke="black" points="113.83,-228 113.83,-258.8 367.51,-258.8 367.51,-228 113.83,-228"/>
<text text-anchor="start" x="120.83" y="-240.2" font-family="Arial" font-size="14.00">updated_at </text>
<text text-anchor="start" x="194.79" y="-240.2" font-family="Arial" font-size="14.00" fill="#666666">[timestamp with time zone]</text>
<polygon fill="none" stroke="black" points="113.83,-197.2 113.83,-228 367.51,-228 367.51,-197.2 113.83,-197.2"/>
<text text-anchor="start" x="120.83" y="-209.4" font-family="Arial" font-size="14.00">public </text>
<text text-anchor="start" x="161.3" y="-209.4" font-family="Arial" font-size="14.00" fill="#666666">[boolean]</text>
<polygon fill="none" stroke="black" points="113.83,-166.4 113.83,-197.2 367.51,-197.2 367.51,-166.4 113.83,-166.4"/>
<text text-anchor="start" x="120.83" y="-178.6" font-family="Arial" font-size="14.00">avif_autodetection </text>
<text text-anchor="start" x="238.36" y="-178.6" font-family="Arial" font-size="14.00" fill="#666666">[boolean]</text>
<polygon fill="none" stroke="black" points="113.83,-135.6 113.83,-166.4 367.51,-166.4 367.51,-135.6 113.83,-135.6"/>
<text text-anchor="start" x="120.83" y="-147.8" font-family="Arial" font-size="14.00">file_size_limit </text>
<text text-anchor="start" x="207.97" y="-147.8" font-family="Arial" font-size="14.00" fill="#666666">[bigint]</text>
<polygon fill="none" stroke="black" points="113.83,-104.8 113.83,-135.6 367.51,-135.6 367.51,-104.8 113.83,-104.8"/>
<text text-anchor="start" x="120.83" y="-117" font-family="Arial" font-size="14.00">allowed_mime_types </text>
<text text-anchor="start" x="255.45" y="-117" font-family="Arial" font-size="14.00" fill="#666666">[text[]]</text>
<polygon fill="none" stroke="black" points="113.83,-74 113.83,-104.8 367.51,-104.8 367.51,-74 113.83,-74"/>
<text text-anchor="start" x="120.83" y="-86.2" font-family="Arial" font-size="14.00">owner_id </text>
<text text-anchor="start" x="181.53" y="-86.2" font-family="Arial" font-size="14.00" fill="#666666">[text]</text>
<polygon fill="none" stroke="black" points="113.83,-43.2 113.83,-74 367.51,-74 367.51,-43.2 113.83,-43.2"/>
<text text-anchor="start" x="120.83" y="-55.4" font-family="Arial" font-size="14.00">type </text>
<text text-anchor="start" x="151.18" y="-55.4" font-family="Arial" font-size="14.00" fill="#666666">[storage.buckettype]</text>
</g>
<!-- storage.s3_multipart_uploads&#45;&gt;storage.buckets -->
<g id="edge2" class="edge">
<title>storage.s3_multipart_uploads:bucket_id&#45;&gt;storage.buckets:id</title>
<path fill="none" stroke="black" d="M427.3,-711.88C570.11,-697.04 520.23,-366.6 368.51,-366.6"/>
<polygon fill="black" stroke="black" points="427.47,-711.88 417.26,-707.89 422.14,-712.15 417.82,-712.37 417.82,-712.37 417.82,-712.37 422.14,-712.15 417.71,-716.88 427.47,-711.88"/>
<text text-anchor="start" x="424.15" y="-722.4" font-family="Arial" font-size="10.00">FOREIGN KEY (bucket_id) REFERENCES storage.buckets(id)</text>
</g>
<!-- storage.s3_multipart_uploads_parts -->
<g id="node2" class="node">
<title>storage.s3_multipart_uploads_parts</title>
<polygon fill="#efefef" stroke="none" points="43.2,-1289.2 43.2,-1324.8 438.15,-1324.8 438.15,-1289.2 43.2,-1289.2"/>
<polygon fill="none" stroke="black" points="43.2,-1289.2 43.2,-1324.8 438.15,-1324.8 438.15,-1289.2 43.2,-1289.2"/>
<text text-anchor="start" x="50.2" y="-1302.6" font-family="Arial Bold" font-size="18.00">storage.s3_multipart_uploads_parts</text>
<text text-anchor="start" x="306.66" y="-1302.6" font-family="Arial" font-size="14.00">    </text>
<text text-anchor="start" x="337.77" y="-1302.6" font-family="Arial" font-size="14.00" fill="#666666">[BASE TABLE]</text>
<polygon fill="none" stroke="black" points="43.2,-1258.4 43.2,-1289.2 438.15,-1289.2 438.15,-1258.4 43.2,-1258.4"/>
<text text-anchor="start" x="50.2" y="-1270.6" font-family="Arial" font-size="14.00">id </text>
<text text-anchor="start" x="64.99" y="-1270.6" font-family="Arial" font-size="14.00" fill="#666666">[uuid]</text>
<polygon fill="none" stroke="black" points="43.2,-1227.6 43.2,-1258.4 438.15,-1258.4 438.15,-1227.6 43.2,-1227.6"/>
<text text-anchor="start" x="50.2" y="-1239.8" font-family="Arial" font-size="14.00">upload_id </text>
<text text-anchor="start" x="114.81" y="-1239.8" font-family="Arial" font-size="14.00" fill="#666666">[text]</text>
<polygon fill="none" stroke="black" points="43.2,-1196.8 43.2,-1227.6 438.15,-1227.6 438.15,-1196.8 43.2,-1196.8"/>
<text text-anchor="start" x="50.2" y="-1209" font-family="Arial" font-size="14.00">size </text>
<text text-anchor="start" x="78.99" y="-1209" font-family="Arial" font-size="14.00" fill="#666666">[bigint]</text>
<polygon fill="none" stroke="black" points="43.2,-1166 43.2,-1196.8 438.15,-1196.8 438.15,-1166 43.2,-1166"/>
<text text-anchor="start" x="50.2" y="-1178.2" font-family="Arial" font-size="14.00">part_number </text>
<text text-anchor="start" x="133.47" y="-1178.2" font-family="Arial" font-size="14.00" fill="#666666">[integer]</text>
<polygon fill="none" stroke="black" points="43.2,-1135.2 43.2,-1166 438.15,-1166 438.15,-1135.2 43.2,-1135.2"/>
<text text-anchor="start" x="50.2" y="-1147.4" font-family="Arial" font-size="14.00">bucket_id </text>
<text text-anchor="start" x="114.02" y="-1147.4" font-family="Arial" font-size="14.00" fill="#666666">[text]</text>
<polygon fill="none" stroke="black" points="43.2,-1104.4 43.2,-1135.2 438.15,-1135.2 438.15,-1104.4 43.2,-1104.4"/>
<text text-anchor="start" x="50.2" y="-1116.6" font-family="Arial" font-size="14.00">key </text>
<text text-anchor="start" x="75.88" y="-1116.6" font-family="Arial" font-size="14.00" fill="#666666">[text]</text>
<polygon fill="none" stroke="black" points="43.2,-1073.6 43.2,-1104.4 438.15,-1104.4 438.15,-1073.6 43.2,-1073.6"/>
<text text-anchor="start" x="50.2" y="-1085.8" font-family="Arial" font-size="14.00">etag </text>
<text text-anchor="start" x="81.34" y="-1085.8" font-family="Arial" font-size="14.00" fill="#666666">[text]</text>
<polygon fill="none" stroke="black" points="43.2,-1042.8 43.2,-1073.6 438.15,-1073.6 438.15,-1042.8 43.2,-1042.8"/>
<text text-anchor="start" x="50.2" y="-1055" font-family="Arial" font-size="14.00">owner_id </text>
<text text-anchor="start" x="110.9" y="-1055" font-family="Arial" font-size="14.00" fill="#666666">[text]</text>
<polygon fill="none" stroke="black" points="43.2,-1012 43.2,-1042.8 438.15,-1042.8 438.15,-1012 43.2,-1012"/>
<text text-anchor="start" x="50.2" y="-1024.2" font-family="Arial" font-size="14.00">version </text>
<text text-anchor="start" x="99.22" y="-1024.2" font-family="Arial" font-size="14.00" fill="#666666">[text]</text>
<polygon fill="none" stroke="black" points="43.2,-981.2 43.2,-1012 438.15,-1012 438.15,-981.2 43.2,-981.2"/>
<text text-anchor="start" x="50.2" y="-993.4" font-family="Arial" font-size="14.00">created_at </text>
<text text-anchor="start" x="120.25" y="-993.4" font-family="Arial" font-size="14.00" fill="#666666">[timestamp with time zone]</text>
</g>
<!-- storage.s3_multipart_uploads_parts&#45;&gt;storage.s3_multipart_uploads -->
<g id="edge1" class="edge">
<title>storage.s3_multipart_uploads_parts:upload_id&#45;&gt;storage.s3_multipart_uploads:id</title>
<path fill="none" stroke="black" d="M449.25,-1241.33C534.96,-1211.91 511.13,-804.8 417.15,-804.8"/>
<polygon fill="black" stroke="black" points="449.34,-1241.31 438.74,-1238.51 444.08,-1242.18 439.81,-1242.89 439.81,-1242.89 439.81,-1242.89 444.08,-1242.18 440.21,-1247.38 449.34,-1241.31"/>
<text text-anchor="start" x="446.15" y="-1253" font-family="Arial" font-size="10.00">FOREIGN KEY (upload_id) REFERENCES storage.s3_multipart_uploads(id) ON DELETE CASCADE</text>
</g>
</g>
</svg>
