<?xml version="1.0" encoding="UTF-8" standalone="no"?>
<!DOCTYPE svg PUBLIC "-//W3C//DTD SVG 1.1//EN"
 "http://www.w3.org/Graphics/SVG/1.1/DTD/svg11.dtd">
<!-- Generated by graphviz version 12.1.2 (20240928.0832)
 -->
<!-- Title: storage.buckets_vectors Pages: 1 -->
<svg width="694pt" height="694pt"
 viewBox="0.00 0.00 693.95 694.40" xmlns="http://www.w3.org/2000/svg" xmlns:xlink="http://www.w3.org/1999/xlink">
<g id="graph0" class="graph" transform="scale(1 1) rotate(0) translate(4 690.4)">
<title>storage.buckets_vectors</title>
<polygon fill="white" stroke="none" points="-4,4 -4,-690.4 689.95,-690.4 689.95,4 -4,4"/>
<!-- storage.buckets_vectors -->
<g id="node1" class="node">
<title>storage.buckets_vectors</title>
<polygon fill="#efefef" stroke="none" points="46.2,-169.4 46.2,-205 357.13,-205 357.13,-169.4 46.2,-169.4"/>
<polygon fill="none" stroke="black" points="46.2,-169.4 46.2,-205 357.13,-205 357.13,-169.4 46.2,-169.4"/>
<text text-anchor="start" x="53.2" y="-182.8" font-family="Arial Bold" font-size="18.00">storage.buckets_vectors</text>
<text text-anchor="start" x="225.64" y="-182.8" font-family="Arial" font-size="14.00">    </text>
<text text-anchor="start" x="256.76" y="-182.8" font-family="Arial" font-size="14.00" fill="#666666">[BASE TABLE]</text>
<polygon fill="none" stroke="black" points="46.2,-138.6 46.2,-169.4 357.13,-169.4 357.13,-138.6 46.2,-138.6"/>
<text text-anchor="start" x="53.2" y="-150.8" font-family="Arial" font-size="14.00">id </text>
<text text-anchor="start" x="67.99" y="-150.8" font-family="Arial" font-size="14.00" fill="#666666">[text]</text>
<polygon fill="none" stroke="black" points="46.2,-107.8 46.2,-138.6 357.13,-138.6 357.13,-107.8 46.2,-107.8"/>
<text text-anchor="start" x="53.2" y="-120" font-family="Arial" font-size="14.00">type </text>
<text text-anchor="start" x="83.55" y="-120" font-family="Arial" font-size="14.00" fill="#666666">[storage.buckettype]</text>
<polygon fill="none" stroke="black" points="46.2,-77 46.2,-107.8 357.13,-107.8 357.13,-77 46.2,-77"/>
<text text-anchor="start" x="53.2" y="-89.2" font-family="Arial" font-size="14.00">created_at </text>
<text text-anchor="start" x="123.25" y="-89.2" font-family="Arial" font-size="14.00" fill="#666666">[timestamp with time zone]</text>
<polygon fill="none" stroke="black" points="46.2,-46.2 46.2,-77 357.13,-77 357.13,-46.2 46.2,-46.2"/>
<text text-anchor="start" x="53.2" y="-58.4" font-family="Arial" font-size="14.00">updated_at </text>
<text text-anchor="start" x="127.16" y="-58.4" font-family="Arial" font-size="14.00" fill="#666666">[timestamp with time zone]</text>
<polygon fill="none" stroke="black" stroke-width="3" points="44.7,-44.7 44.7,-206.5 358.63,-206.5 358.63,-44.7 44.7,-44.7"/>
</g>
<!-- storage.vector_indexes -->
<g id="node2" class="node">
<title>storage.vector_indexes</title>
<polygon fill="#efefef" stroke="none" points="49.7,-607.6 49.7,-643.2 353.63,-643.2 353.63,-607.6 49.7,-607.6"/>
<polygon fill="none" stroke="black" points="49.7,-607.6 49.7,-643.2 353.63,-643.2 353.63,-607.6 49.7,-607.6"/>
<text text-anchor="start" x="56.7" y="-621" font-family="Arial Bold" font-size="18.00">storage.vector_indexes</text>
<text text-anchor="start" x="222.14" y="-621" font-family="Arial" font-size="14.00">    </text>
<text text-anchor="start" x="253.26" y="-621" font-family="Arial" font-size="14.00" fill="#666666">[BASE TABLE]</text>
<polygon fill="none" stroke="black" points="49.7,-576.8 49.7,-607.6 353.63,-607.6 353.63,-576.8 49.7,-576.8"/>
<text text-anchor="start" x="56.7" y="-589" font-family="Arial" font-size="14.00">id </text>
<text text-anchor="start" x="71.49" y="-589" font-family="Arial" font-size="14.00" fill="#666666">[text]</text>
<polygon fill="none" stroke="black" points="49.7,-546 49.7,-576.8 353.63,-576.8 353.63,-546 49.7,-546"/>
<text text-anchor="start" x="56.7" y="-558.2" font-family="Arial" font-size="14.00">name </text>
<text text-anchor="start" x="95.61" y="-558.2" font-family="Arial" font-size="14.00" fill="#666666">[text]</text>
<polygon fill="none" stroke="black" points="49.7,-515.2 49.7,-546 353.63,-546 353.63,-515.2 49.7,-515.2"/>
<text text-anchor="start" x="56.7" y="-527.4" font-family="Arial" font-size="14.00">bucket_id </text>
<text text-anchor="start" x="120.52" y="-527.4" font-family="Arial" font-size="14.00" fill="#666666">[text]</text>
<polygon fill="none" stroke="black" points="49.7,-484.4 49.7,-515.2 353.63,-515.2 353.63,-484.4 49.7,-484.4"/>
<text text-anchor="start" x="56.7" y="-496.6" font-family="Arial" font-size="14.00">data_type </text>
<text text-anchor="start" x="122.09" y="-496.6" font-family="Arial" font-size="14.00" fill="#666666">[text]</text>
<polygon fill="none" stroke="black" points="49.7,-453.6 49.7,-484.4 353.63,-484.4 353.63,-453.6 49.7,-453.6"/>
<text text-anchor="start" x="56.7" y="-465.8" font-family="Arial" font-size="14.00">dimension </text>
<text text-anchor="start" x="124.41" y="-465.8" font-family="Arial" font-size="14.00" fill="#666666">[integer]</text>
<polygon fill="none" stroke="black" points="49.7,-422.8 49.7,-453.6 353.63,-453.6 353.63,-422.8 49.7,-422.8"/>
<text text-anchor="start" x="56.7" y="-435" font-family="Arial" font-size="14.00">distance_metric </text>
<text text-anchor="start" x="158.63" y="-435" font-family="Arial" font-size="14.00" fill="#666666">[text]</text>
<polygon fill="none" stroke="black" points="49.7,-392 49.7,-422.8 353.63,-422.8 353.63,-392 49.7,-392"/>
<text text-anchor="start" x="56.7" y="-404.2" font-family="Arial" font-size="14.00">metadata_configuration </text>
<text text-anchor="start" x="206.92" y="-404.2" font-family="Arial" font-size="14.00" fill="#666666">[jsonb]</text>
<polygon fill="none" stroke="black" points="49.7,-361.2 49.7,-392 353.63,-392 353.63,-361.2 49.7,-361.2"/>
<text text-anchor="start" x="56.7" y="-373.4" font-family="Arial" font-size="14.00">created_at </text>
<text text-anchor="start" x="126.75" y="-373.4" font-family="Arial" font-size="14.00" fill="#666666">[timestamp with time zone]</text>
<polygon fill="none" stroke="black" points="49.7,-330.4 49.7,-361.2 353.63,-361.2 353.63,-330.4 49.7,-330.4"/>
<text text-anchor="start" x="56.7" y="-342.6" font-family="Arial" font-size="14.00">updated_at </text>
<text text-anchor="start" x="130.66" y="-342.6" font-family="Arial" font-size="14.00" fill="#666666">[timestamp with time zone]</text>
</g>
<!-- storage.vector_indexes&#45;&gt;storage.buckets_vectors -->
<g id="edge1" class="edge">
<title>storage.vector_indexes:bucket_id&#45;&gt;storage.buckets_vectors:id</title>
<path fill="none" stroke="black" d="M364.52,-528.75C438.46,-500.34 438.39,-154 358.13,-154"/>
<polygon fill="black" stroke="black" points="364.79,-528.7 354.13,-526.12 359.54,-529.68 355.29,-530.48 355.29,-530.48 355.29,-530.48 359.54,-529.68 355.78,-534.96 364.79,-528.7"/>
<text text-anchor="start" x="361.63" y="-540.6" font-family="Arial" font-size="10.00">FOREIGN KEY (bucket_id) REFERENCES storage.buckets_vectors(id)</text>
</g>
</g>
</svg>
