<?xml version="1.0" encoding="UTF-8" standalone="no"?>
<!DOCTYPE svg PUBLIC "-//W3C//DTD SVG 1.1//EN"
 "http://www.w3.org/Graphics/SVG/1.1/DTD/svg11.dtd">
<!-- Generated by graphviz version 12.1.2 (20240928.0832)
 -->
<!-- Title: storage.vector_indexes Pages: 1 -->
<svg width="691pt" height="694pt"
 viewBox="0.00 0.00 690.95 694.40" xmlns="http://www.w3.org/2000/svg" xmlns:xlink="http://www.w3.org/1999/xlink">
<g id="graph0" class="graph" transform="scale(1 1) rotate(0) translate(4 690.4)">
<title>storage.vector_indexes</title>
<polygon fill="white" stroke="none" points="-4,4 -4,-690.4 686.95,-690.4 686.95,4 -4,4"/>
<!-- storage.vector_indexes -->
<g id="node1" class="node">
<title>storage.vector_indexes</title>
<polygon fill="#efefef" stroke="none" points="46.7,-604.6 46.7,-640.2 350.63,-640.2 350.63,-604.6 46.7,-604.6"/>
<polygon fill="none" stroke="black" points="46.7,-604.6 46.7,-640.2 350.63,-640.2 350.63,-604.6 46.7,-604.6"/>
<text text-anchor="start" x="53.7" y="-618" font-family="Arial Bold" font-size="18.00">storage.vector_indexes</text>
<text text-anchor="start" x="219.14" y="-618" font-family="Arial" font-size="14.00">    </text>
<text text-anchor="start" x="250.26" y="-618" font-family="Arial" font-size="14.00" fill="#666666">[BASE TABLE]</text>
<polygon fill="none" stroke="black" points="46.7,-573.8 46.7,-604.6 350.63,-604.6 350.63,-573.8 46.7,-573.8"/>
<text text-anchor="start" x="53.7" y="-586" font-family="Arial" font-size="14.00">id </text>
<text text-anchor="start" x="68.49" y="-586" font-family="Arial" font-size="14.00" fill="#666666">[text]</text>
<polygon fill="none" stroke="black" points="46.7,-543 46.7,-573.8 350.63,-573.8 350.63,-543 46.7,-543"/>
<text text-anchor="start" x="53.7" y="-555.2" font-family="Arial" font-size="14.00">name </text>
<text text-anchor="start" x="92.61" y="-555.2" font-family="Arial" font-size="14.00" fill="#666666">[text]</text>
<polygon fill="none" stroke="black" points="46.7,-512.2 46.7,-543 350.63,-543 350.63,-512.2 46.7,-512.2"/>
<text text-anchor="start" x="53.7" y="-524.4" font-family="Arial" font-size="14.00">bucket_id </text>
<text text-anchor="start" x="117.52" y="-524.4" font-family="Arial" font-size="14.00" fill="#666666">[text]</text>
<polygon fill="none" stroke="black" points="46.7,-481.4 46.7,-512.2 350.63,-512.2 350.63,-481.4 46.7,-481.4"/>
<text text-anchor="start" x="53.7" y="-493.6" font-family="Arial" font-size="14.00">data_type </text>
<text text-anchor="start" x="119.09" y="-493.6" font-family="Arial" font-size="14.00" fill="#666666">[text]</text>
<polygon fill="none" stroke="black" points="46.7,-450.6 46.7,-481.4 350.63,-481.4 350.63,-450.6 46.7,-450.6"/>
<text text-anchor="start" x="53.7" y="-462.8" font-family="Arial" font-size="14.00">dimension </text>
<text text-anchor="start" x="121.41" y="-462.8" font-family="Arial" font-size="14.00" fill="#666666">[integer]</text>
<polygon fill="none" stroke="black" points="46.7,-419.8 46.7,-450.6 350.63,-450.6 350.63,-419.8 46.7,-419.8"/>
<text text-anchor="start" x="53.7" y="-432" font-family="Arial" font-size="14.00">distance_metric </text>
<text text-anchor="start" x="155.63" y="-432" font-family="Arial" font-size="14.00" fill="#666666">[text]</text>
<polygon fill="none" stroke="black" points="46.7,-389 46.7,-419.8 350.63,-419.8 350.63,-389 46.7,-389"/>
<text text-anchor="start" x="53.7" y="-401.2" font-family="Arial" font-size="14.00">metadata_configuration </text>
<text text-anchor="start" x="203.92" y="-401.2" font-family="Arial" font-size="14.00" fill="#666666">[jsonb]</text>
<polygon fill="none" stroke="black" points="46.7,-358.2 46.7,-389 350.63,-389 350.63,-358.2 46.7,-358.2"/>
<text text-anchor="start" x="53.7" y="-370.4" font-family="Arial" font-size="14.00">created_at </text>
<text text-anchor="start" x="123.75" y="-370.4" font-family="Arial" font-size="14.00" fill="#666666">[timestamp with time zone]</text>
<polygon fill="none" stroke="black" points="46.7,-327.4 46.7,-358.2 350.63,-358.2 350.63,-327.4 46.7,-327.4"/>
<text text-anchor="start" x="53.7" y="-339.6" font-family="Arial" font-size="14.00">updated_at </text>
<text text-anchor="start" x="127.66" y="-339.6" font-family="Arial" font-size="14.00" fill="#666666">[timestamp with time zone]</text>
<polygon fill="none" stroke="black" stroke-width="3" points="45.2,-325.9 45.2,-641.7 352.13,-641.7 352.13,-325.9 45.2,-325.9"/>
</g>
<!-- storage.buckets_vectors -->
<g id="node2" class="node">
<title>storage.buckets_vectors</title>
<polygon fill="#efefef" stroke="none" points="43.2,-166.4 43.2,-202 354.13,-202 354.13,-166.4 43.2,-166.4"/>
<polygon fill="none" stroke="black" points="43.2,-166.4 43.2,-202 354.13,-202 354.13,-166.4 43.2,-166.4"/>
<text text-anchor="start" x="50.2" y="-179.8" font-family="Arial Bold" font-size="18.00">storage.buckets_vectors</text>
<text text-anchor="start" x="222.64" y="-179.8" font-family="Arial" font-size="14.00">    </text>
<text text-anchor="start" x="253.76" y="-179.8" font-family="Arial" font-size="14.00" fill="#666666">[BASE TABLE]</text>
<polygon fill="none" stroke="black" points="43.2,-135.6 43.2,-166.4 354.13,-166.4 354.13,-135.6 43.2,-135.6"/>
<text text-anchor="start" x="50.2" y="-147.8" font-family="Arial" font-size="14.00">id </text>
<text text-anchor="start" x="64.99" y="-147.8" font-family="Arial" font-size="14.00" fill="#666666">[text]</text>
<polygon fill="none" stroke="black" points="43.2,-104.8 43.2,-135.6 354.13,-135.6 354.13,-104.8 43.2,-104.8"/>
<text text-anchor="start" x="50.2" y="-117" font-family="Arial" font-size="14.00">type </text>
<text text-anchor="start" x="80.55" y="-117" font-family="Arial" font-size="14.00" fill="#666666">[storage.buckettype]</text>
<polygon fill="none" stroke="black" points="43.2,-74 43.2,-104.8 354.13,-104.8 354.13,-74 43.2,-74"/>
<text text-anchor="start" x="50.2" y="-86.2" font-family="Arial" font-size="14.00">created_at </text>
<text text-anchor="start" x="120.25" y="-86.2" font-family="Arial" font-size="14.00" fill="#666666">[timestamp with time zone]</text>
<polygon fill="none" stroke="black" points="43.2,-43.2 43.2,-74 354.13,-74 354.13,-43.2 43.2,-43.2"/>
<text text-anchor="start" x="50.2" y="-55.4" font-family="Arial" font-size="14.00">updated_at </text>
<text text-anchor="start" x="124.16" y="-55.4" font-family="Arial" font-size="14.00" fill="#666666">[timestamp with time zone]</text>
</g>
<!-- storage.vector_indexes&#45;&gt;storage.buckets_vectors -->
<g id="edge1" class="edge">
<title>storage.vector_indexes:bucket_id&#45;&gt;storage.buckets_vectors:id</title>
<path fill="none" stroke="black" d="M361.52,-525.75C435.46,-497.34 435.39,-151 355.13,-151"/>
<polygon fill="black" stroke="black" points="361.79,-525.7 351.13,-523.12 356.54,-526.68 352.29,-527.48 352.29,-527.48 352.29,-527.48 356.54,-526.68 352.78,-531.96 361.79,-525.7"/>
<text text-anchor="start" x="358.63" y="-537.6" font-family="Arial" font-size="10.00">FOREIGN KEY (bucket_id) REFERENCES storage.buckets_vectors(id)</text>
</g>
</g>
</svg>
