<?xml version="1.0" encoding="UTF-8" standalone="no"?>
<!DOCTYPE svg PUBLIC "-//W3C//DTD SVG 1.1//EN"
 "http://www.w3.org/Graphics/SVG/1.1/DTD/svg11.dtd">
<!-- Generated by graphviz version 12.1.2 (20240928.0832)
 -->
<!-- Title: storage.prefixes Pages: 1 -->
<svg width="602pt" height="787pt"
 viewBox="0.00 0.00 602.41 786.80" xmlns="http://www.w3.org/2000/svg" xmlns:xlink="http://www.w3.org/1999/xlink">
<g id="graph0" class="graph" transform="scale(1 1) rotate(0) translate(4 782.8)">
<title>storage.prefixes</title>
<polygon fill="white" stroke="none" points="-4,4 -4,-782.8 598.41,-782.8 598.41,4 -4,4"/>
<!-- storage.prefixes -->
<g id="node1" class="node">
<title>storage.prefixes</title>
<polygon fill="#efefef" stroke="none" points="46.2,-697 46.2,-732.6 299.88,-732.6 299.88,-697 46.2,-697"/>
<polygon fill="none" stroke="black" points="46.2,-697 46.2,-732.6 299.88,-732.6 299.88,-697 46.2,-697"/>
<text text-anchor="start" x="53.57" y="-710.4" font-family="Arial Bold" font-size="18.00">storage.prefixes</text>
<text text-anchor="start" x="168.02" y="-710.4" font-family="Arial" font-size="14.00">    </text>
<text text-anchor="start" x="199.14" y="-710.4" font-family="Arial" font-size="14.00" fill="#666666">[BASE TABLE]</text>
<polygon fill="none" stroke="black" points="46.2,-666.2 46.2,-697 299.88,-697 299.88,-666.2 46.2,-666.2"/>
<text text-anchor="start" x="53.2" y="-678.4" font-family="Arial" font-size="14.00">bucket_id </text>
<text text-anchor="start" x="117.02" y="-678.4" font-family="Arial" font-size="14.00" fill="#666666">[text]</text>
<polygon fill="none" stroke="black" points="46.2,-635.4 46.2,-666.2 299.88,-666.2 299.88,-635.4 46.2,-635.4"/>
<text text-anchor="start" x="53.2" y="-647.6" font-family="Arial" font-size="14.00">name </text>
<text text-anchor="start" x="92.11" y="-647.6" font-family="Arial" font-size="14.00" fill="#666666">[text]</text>
<polygon fill="none" stroke="black" points="46.2,-604.6 46.2,-635.4 299.88,-635.4 299.88,-604.6 46.2,-604.6"/>
<text text-anchor="start" x="53.2" y="-616.8" font-family="Arial" font-size="14.00">level </text>
<text text-anchor="start" x="85.88" y="-616.8" font-family="Arial" font-size="14.00" fill="#666666">[integer]</text>
<polygon fill="none" stroke="black" points="46.2,-573.8 46.2,-604.6 299.88,-604.6 299.88,-573.8 46.2,-573.8"/>
<text text-anchor="start" x="53.2" y="-586" font-family="Arial" font-size="14.00">created_at </text>
<text text-anchor="start" x="123.25" y="-586" font-family="Arial" font-size="14.00" fill="#666666">[timestamp with time zone]</text>
<polygon fill="none" stroke="black" points="46.2,-543 46.2,-573.8 299.88,-573.8 299.88,-543 46.2,-543"/>
<text text-anchor="start" x="53.2" y="-555.2" font-family="Arial" font-size="14.00">updated_at </text>
<text text-anchor="start" x="127.16" y="-555.2" font-family="Arial" font-size="14.00" fill="#666666">[timestamp with time zone]</text>
<polygon fill="none" stroke="black" stroke-width="3" points="44.7,-541.5 44.7,-734.1 301.38,-734.1 301.38,-541.5 44.7,-541.5"/>
</g>
<!-- storage.buckets -->
<g id="node2" class="node">
<title>storage.buckets</title>
<polygon fill="#efefef" stroke="none" points="46.2,-382 46.2,-417.6 299.88,-417.6 299.88,-382 46.2,-382"/>
<polygon fill="none" stroke="black" points="46.2,-382 46.2,-417.6 299.88,-417.6 299.88,-382 46.2,-382"/>
<text text-anchor="start" x="55.06" y="-395.4" font-family="Arial Bold" font-size="18.00">storage.buckets</text>
<text text-anchor="start" x="166.53" y="-395.4" font-family="Arial" font-size="14.00">    </text>
<text text-anchor="start" x="197.64" y="-395.4" font-family="Arial" font-size="14.00" fill="#666666">[BASE TABLE]</text>
<polygon fill="none" stroke="black" points="46.2,-351.2 46.2,-382 299.88,-382 299.88,-351.2 46.2,-351.2"/>
<text text-anchor="start" x="53.2" y="-363.4" font-family="Arial" font-size="14.00">id </text>
<text text-anchor="start" x="67.99" y="-363.4" font-family="Arial" font-size="14.00" fill="#666666">[text]</text>
<polygon fill="none" stroke="black" points="46.2,-320.4 46.2,-351.2 299.88,-351.2 299.88,-320.4 46.2,-320.4"/>
<text text-anchor="start" x="53.2" y="-332.6" font-family="Arial" font-size="14.00">name </text>
<text text-anchor="start" x="92.11" y="-332.6" font-family="Arial" font-size="14.00" fill="#666666">[text]</text>
<polygon fill="none" stroke="black" points="46.2,-289.6 46.2,-320.4 299.88,-320.4 299.88,-289.6 46.2,-289.6"/>
<text text-anchor="start" x="53.2" y="-301.8" font-family="Arial" font-size="14.00">owner </text>
<text text-anchor="start" x="95.22" y="-301.8" font-family="Arial" font-size="14.00" fill="#666666">[uuid]</text>
<polygon fill="none" stroke="black" points="46.2,-258.8 46.2,-289.6 299.88,-289.6 299.88,-258.8 46.2,-258.8"/>
<text text-anchor="start" x="53.2" y="-271" font-family="Arial" font-size="14.00">created_at </text>
<text text-anchor="start" x="123.25" y="-271" font-family="Arial" font-size="14.00" fill="#666666">[timestamp with time zone]</text>
<polygon fill="none" stroke="black" points="46.2,-228 46.2,-258.8 299.88,-258.8 299.88,-228 46.2,-228"/>
<text text-anchor="start" x="53.2" y="-240.2" font-family="Arial" font-size="14.00">updated_at </text>
<text text-anchor="start" x="127.16" y="-240.2" font-family="Arial" font-size="14.00" fill="#666666">[timestamp with time zone]</text>
<polygon fill="none" stroke="black" points="46.2,-197.2 46.2,-228 299.88,-228 299.88,-197.2 46.2,-197.2"/>
<text text-anchor="start" x="53.2" y="-209.4" font-family="Arial" font-size="14.00">public </text>
<text text-anchor="start" x="93.67" y="-209.4" font-family="Arial" font-size="14.00" fill="#666666">[boolean]</text>
<polygon fill="none" stroke="black" points="46.2,-166.4 46.2,-197.2 299.88,-197.2 299.88,-166.4 46.2,-166.4"/>
<text text-anchor="start" x="53.2" y="-178.6" font-family="Arial" font-size="14.00">avif_autodetection </text>
<text text-anchor="start" x="170.73" y="-178.6" font-family="Arial" font-size="14.00" fill="#666666">[boolean]</text>
<polygon fill="none" stroke="black" points="46.2,-135.6 46.2,-166.4 299.88,-166.4 299.88,-135.6 46.2,-135.6"/>
<text text-anchor="start" x="53.2" y="-147.8" font-family="Arial" font-size="14.00">file_size_limit </text>
<text text-anchor="start" x="140.34" y="-147.8" font-family="Arial" font-size="14.00" fill="#666666">[bigint]</text>
<polygon fill="none" stroke="black" points="46.2,-104.8 46.2,-135.6 299.88,-135.6 299.88,-104.8 46.2,-104.8"/>
<text text-anchor="start" x="53.2" y="-117" font-family="Arial" font-size="14.00">allowed_mime_types </text>
<text text-anchor="start" x="187.82" y="-117" font-family="Arial" font-size="14.00" fill="#666666">[text[]]</text>
<polygon fill="none" stroke="black" points="46.2,-74 46.2,-104.8 299.88,-104.8 299.88,-74 46.2,-74"/>
<text text-anchor="start" x="53.2" y="-86.2" font-family="Arial" font-size="14.00">owner_id </text>
<text text-anchor="start" x="113.9" y="-86.2" font-family="Arial" font-size="14.00" fill="#666666">[text]</text>
<polygon fill="none" stroke="black" points="46.2,-43.2 46.2,-74 299.88,-74 299.88,-43.2 46.2,-43.2"/>
<text text-anchor="start" x="53.2" y="-55.4" font-family="Arial" font-size="14.00">type </text>
<text text-anchor="start" x="83.55" y="-55.4" font-family="Arial" font-size="14.00" fill="#666666">[storage.buckettype]</text>
</g>
<!-- storage.prefixes&#45;&gt;storage.buckets -->
<g id="edge1" class="edge">
<title>storage.prefixes:bucket_id&#45;&gt;storage.buckets:id</title>
<path fill="none" stroke="black" d="M311,-679.25C370.7,-650.42 367.33,-366.6 300.88,-366.6"/>
<polygon fill="black" stroke="black" points="310.95,-679.26 300.19,-677.14 305.75,-680.47 301.53,-681.45 301.53,-681.45 301.53,-681.45 305.75,-680.47 302.23,-685.91 310.95,-679.26"/>
<text text-anchor="start" x="307.88" y="-691.6" font-family="Arial" font-size="10.00">FOREIGN KEY (bucket_id) REFERENCES storage.buckets(id)</text>
</g>
</g>
</svg>
