<?xml version="1.0" encoding="UTF-8" standalone="no"?>
<!DOCTYPE svg PUBLIC "-//W3C//DTD SVG 1.1//EN"
 "http://www.w3.org/Graphics/SVG/1.1/DTD/svg11.dtd">
<!-- Generated by graphviz version 12.1.2 (20240928.0832)
 -->
<!-- Title: storage.s3_multipart_uploads_parts Pages: 1 -->
<svg width="1164pt" height="941pt"
 viewBox="0.00 0.00 1163.75 940.80" xmlns="http://www.w3.org/2000/svg" xmlns:xlink="http://www.w3.org/1999/xlink">
<g id="graph0" class="graph" transform="scale(1 1) rotate(0) translate(4 936.8)">
<title>storage.s3_multipart_uploads_parts</title>
<polygon fill="white" stroke="none" points="-4,4 -4,-936.8 1159.75,-936.8 1159.75,4 -4,4"/>
<!-- storage.s3_multipart_uploads_parts -->
<g id="node1" class="node">
<title>storage.s3_multipart_uploads_parts</title>
<polygon fill="#efefef" stroke="none" points="466.27,-851 466.27,-886.6 861.22,-886.6 861.22,-851 466.27,-851"/>
<polygon fill="none" stroke="black" points="466.27,-851 466.27,-886.6 861.22,-886.6 861.22,-851 466.27,-851"/>
<text text-anchor="start" x="473.27" y="-864.4" font-family="Arial Bold" font-size="18.00">storage.s3_multipart_uploads_parts</text>
<text text-anchor="start" x="729.73" y="-864.4" font-family="Arial" font-size="14.00">    </text>
<text text-anchor="start" x="760.85" y="-864.4" font-family="Arial" font-size="14.00" fill="#666666">[BASE TABLE]</text>
<polygon fill="none" stroke="black" points="466.27,-820.2 466.27,-851 861.22,-851 861.22,-820.2 466.27,-820.2"/>
<text text-anchor="start" x="473.27" y="-832.4" font-family="Arial" font-size="14.00">id </text>
<text text-anchor="start" x="488.06" y="-832.4" font-family="Arial" font-size="14.00" fill="#666666">[uuid]</text>
<polygon fill="none" stroke="black" points="466.27,-789.4 466.27,-820.2 861.22,-820.2 861.22,-789.4 466.27,-789.4"/>
<text text-anchor="start" x="473.27" y="-801.6" font-family="Arial" font-size="14.00">upload_id </text>
<text text-anchor="start" x="537.89" y="-801.6" font-family="Arial" font-size="14.00" fill="#666666">[text]</text>
<polygon fill="none" stroke="black" points="466.27,-758.6 466.27,-789.4 861.22,-789.4 861.22,-758.6 466.27,-758.6"/>
<text text-anchor="start" x="473.27" y="-770.8" font-family="Arial" font-size="14.00">size </text>
<text text-anchor="start" x="502.06" y="-770.8" font-family="Arial" font-size="14.00" fill="#666666">[bigint]</text>
<polygon fill="none" stroke="black" points="466.27,-727.8 466.27,-758.6 861.22,-758.6 861.22,-727.8 466.27,-727.8"/>
<text text-anchor="start" x="473.27" y="-740" font-family="Arial" font-size="14.00">part_number </text>
<text text-anchor="start" x="556.54" y="-740" font-family="Arial" font-size="14.00" fill="#666666">[integer]</text>
<polygon fill="none" stroke="black" points="466.27,-697 466.27,-727.8 861.22,-727.8 861.22,-697 466.27,-697"/>
<text text-anchor="start" x="473.27" y="-709.2" font-family="Arial" font-size="14.00">bucket_id </text>
<text text-anchor="start" x="537.09" y="-709.2" font-family="Arial" font-size="14.00" fill="#666666">[text]</text>
<polygon fill="none" stroke="black" points="466.27,-666.2 466.27,-697 861.22,-697 861.22,-666.2 466.27,-666.2"/>
<text text-anchor="start" x="473.27" y="-678.4" font-family="Arial" font-size="14.00">key </text>
<text text-anchor="start" x="498.95" y="-678.4" font-family="Arial" font-size="14.00" fill="#666666">[text]</text>
<polygon fill="none" stroke="black" points="466.27,-635.4 466.27,-666.2 861.22,-666.2 861.22,-635.4 466.27,-635.4"/>
<text text-anchor="start" x="473.27" y="-647.6" font-family="Arial" font-size="14.00">etag </text>
<text text-anchor="start" x="504.41" y="-647.6" font-family="Arial" font-size="14.00" fill="#666666">[text]</text>
<polygon fill="none" stroke="black" points="466.27,-604.6 466.27,-635.4 861.22,-635.4 861.22,-604.6 466.27,-604.6"/>
<text text-anchor="start" x="473.27" y="-616.8" font-family="Arial" font-size="14.00">owner_id </text>
<text text-anchor="start" x="533.98" y="-616.8" font-family="Arial" font-size="14.00" fill="#666666">[text]</text>
<polygon fill="none" stroke="black" points="466.27,-573.8 466.27,-604.6 861.22,-604.6 861.22,-573.8 466.27,-573.8"/>
<text text-anchor="start" x="473.27" y="-586" font-family="Arial" font-size="14.00">version </text>
<text text-anchor="start" x="522.29" y="-586" font-family="Arial" font-size="14.00" fill="#666666">[text]</text>
<polygon fill="none" stroke="black" points="466.27,-543 466.27,-573.8 861.22,-573.8 861.22,-543 466.27,-543"/>
<text text-anchor="start" x="473.27" y="-555.2" font-family="Arial" font-size="14.00">created_at </text>
<text text-anchor="start" x="543.32" y="-555.2" font-family="Arial" font-size="14.00" fill="#666666">[timestamp with time zone]</text>
<polygon fill="none" stroke="black" stroke-width="3" points="464.77,-541.5 464.77,-888.1 862.72,-888.1 862.72,-541.5 464.77,-541.5"/>
</g>
<!-- storage.s3_multipart_uploads -->
<g id="node2" class="node">
<title>storage.s3_multipart_uploads</title>
<polygon fill="#efefef" stroke="none" points="285.27,-351.2 285.27,-386.8 636.23,-386.8 636.23,-351.2 285.27,-351.2"/>
<polygon fill="none" stroke="black" points="285.27,-351.2 285.27,-386.8 636.23,-386.8 636.23,-351.2 285.27,-351.2"/>
<text text-anchor="start" x="292.27" y="-364.6" font-family="Arial Bold" font-size="18.00">storage.s3_multipart_uploads</text>
<text text-anchor="start" x="504.74" y="-364.6" font-family="Arial" font-size="14.00">    </text>
<text text-anchor="start" x="535.85" y="-364.6" font-family="Arial" font-size="14.00" fill="#666666">[BASE TABLE]</text>
<polygon fill="none" stroke="black" points="285.27,-320.4 285.27,-351.2 636.23,-351.2 636.23,-320.4 285.27,-320.4"/>
<text text-anchor="start" x="292.27" y="-332.6" font-family="Arial" font-size="14.00">id </text>
<text text-anchor="start" x="307.06" y="-332.6" font-family="Arial" font-size="14.00" fill="#666666">[text]</text>
<polygon fill="none" stroke="black" points="285.27,-289.6 285.27,-320.4 636.23,-320.4 636.23,-289.6 285.27,-289.6"/>
<text text-anchor="start" x="292.27" y="-301.8" font-family="Arial" font-size="14.00">in_progress_size </text>
<text text-anchor="start" x="401.99" y="-301.8" font-family="Arial" font-size="14.00" fill="#666666">[bigint]</text>
<polygon fill="none" stroke="black" points="285.27,-258.8 285.27,-289.6 636.23,-289.6 636.23,-258.8 285.27,-258.8"/>
<text text-anchor="start" x="292.27" y="-271" font-family="Arial" font-size="14.00">upload_signature </text>
<text text-anchor="start" x="403.58" y="-271" font-family="Arial" font-size="14.00" fill="#666666">[text]</text>
<polygon fill="none" stroke="black" points="285.27,-228 285.27,-258.8 636.23,-258.8 636.23,-228 285.27,-228"/>
<text text-anchor="start" x="292.27" y="-240.2" font-family="Arial" font-size="14.00">bucket_id </text>
<text text-anchor="start" x="356.09" y="-240.2" font-family="Arial" font-size="14.00" fill="#666666">[text]</text>
<polygon fill="none" stroke="black" points="285.27,-197.2 285.27,-228 636.23,-228 636.23,-197.2 285.27,-197.2"/>
<text text-anchor="start" x="292.27" y="-209.4" font-family="Arial" font-size="14.00">key </text>
<text text-anchor="start" x="317.94" y="-209.4" font-family="Arial" font-size="14.00" fill="#666666">[text]</text>
<polygon fill="none" stroke="black" points="285.27,-166.4 285.27,-197.2 636.23,-197.2 636.23,-166.4 285.27,-166.4"/>
<text text-anchor="start" x="292.27" y="-178.6" font-family="Arial" font-size="14.00">version </text>
<text text-anchor="start" x="341.29" y="-178.6" font-family="Arial" font-size="14.00" fill="#666666">[text]</text>
<polygon fill="none" stroke="black" points="285.27,-135.6 285.27,-166.4 636.23,-166.4 636.23,-135.6 285.27,-135.6"/>
<text text-anchor="start" x="292.27" y="-147.8" font-family="Arial" font-size="14.00">owner_id </text>
<text text-anchor="start" x="352.97" y="-147.8" font-family="Arial" font-size="14.00" fill="#666666">[text]</text>
<polygon fill="none" stroke="black" points="285.27,-104.8 285.27,-135.6 636.23,-135.6 636.23,-104.8 285.27,-104.8"/>
<text text-anchor="start" x="292.27" y="-117" font-family="Arial" font-size="14.00">created_at </text>
<text text-anchor="start" x="362.32" y="-117" font-family="Arial" font-size="14.00" fill="#666666">[timestamp with time zone]</text>
<polygon fill="none" stroke="black" points="285.27,-74 285.27,-104.8 636.23,-104.8 636.23,-74 285.27,-74"/>
<text text-anchor="start" x="292.27" y="-86.2" font-family="Arial" font-size="14.00">user_metadata </text>
<text text-anchor="start" x="389.55" y="-86.2" font-family="Arial" font-size="14.00" fill="#666666">[jsonb]</text>
</g>
<!-- storage.s3_multipart_uploads_parts&#45;&gt;storage.s3_multipart_uploads -->
<g id="edge1" class="edge">
<title>storage.s3_multipart_uploads_parts:upload_id&#45;&gt;storage.s3_multipart_uploads:id</title>
<path fill="none" stroke="black" d="M454.85,-804.4C331.59,-794.57 391.04,-606.82 466.27,-496.8 512.08,-429.81 590.17,-496.82 636.23,-430 659.99,-395.53 679.09,-335.8 637.23,-335.8"/>
<polygon fill="black" stroke="black" points="454.95,-804.4 464.77,-809.28 460.28,-804.61 464.61,-804.77 464.61,-804.77 464.61,-804.77 460.28,-804.61 465.11,-800.29 454.95,-804.4"/>
<text text-anchor="start" x="7" y="-814.8" font-family="Arial" font-size="10.00">FOREIGN KEY (upload_id) REFERENCES storage.s3_multipart_uploads(id) ON DELETE CASCADE</text>
</g>
<!-- storage.buckets -->
<g id="node3" class="node">
<title>storage.buckets</title>
<polygon fill="#efefef" stroke="none" points="740.91,-382 740.91,-417.6 994.59,-417.6 994.59,-382 740.91,-382"/>
<polygon fill="none" stroke="black" points="740.91,-382 740.91,-417.6 994.59,-417.6 994.59,-382 740.91,-382"/>
<text text-anchor="start" x="749.77" y="-395.4" font-family="Arial Bold" font-size="18.00">storage.buckets</text>
<text text-anchor="start" x="861.23" y="-395.4" font-family="Arial" font-size="14.00">    </text>
<text text-anchor="start" x="892.35" y="-395.4" font-family="Arial" font-size="14.00" fill="#666666">[BASE TABLE]</text>
<polygon fill="none" stroke="black" points="740.91,-351.2 740.91,-382 994.59,-382 994.59,-351.2 740.91,-351.2"/>
<text text-anchor="start" x="747.91" y="-363.4" font-family="Arial" font-size="14.00">id </text>
<text text-anchor="start" x="762.69" y="-363.4" font-family="Arial" font-size="14.00" fill="#666666">[text]</text>
<polygon fill="none" stroke="black" points="740.91,-320.4 740.91,-351.2 994.59,-351.2 994.59,-320.4 740.91,-320.4"/>
<text text-anchor="start" x="747.91" y="-332.6" font-family="Arial" font-size="14.00">name </text>
<text text-anchor="start" x="786.82" y="-332.6" font-family="Arial" font-size="14.00" fill="#666666">[text]</text>
<polygon fill="none" stroke="black" points="740.91,-289.6 740.91,-320.4 994.59,-320.4 994.59,-289.6 740.91,-289.6"/>
<text text-anchor="start" x="747.91" y="-301.8" font-family="Arial" font-size="14.00">owner </text>
<text text-anchor="start" x="789.93" y="-301.8" font-family="Arial" font-size="14.00" fill="#666666">[uuid]</text>
<polygon fill="none" stroke="black" points="740.91,-258.8 740.91,-289.6 994.59,-289.6 994.59,-258.8 740.91,-258.8"/>
<text text-anchor="start" x="747.91" y="-271" font-family="Arial" font-size="14.00">created_at </text>
<text text-anchor="start" x="817.95" y="-271" font-family="Arial" font-size="14.00" fill="#666666">[timestamp with time zone]</text>
<polygon fill="none" stroke="black" points="740.91,-228 740.91,-258.8 994.59,-258.8 994.59,-228 740.91,-228"/>
<text text-anchor="start" x="747.91" y="-240.2" font-family="Arial" font-size="14.00">updated_at </text>
<text text-anchor="start" x="821.86" y="-240.2" font-family="Arial" font-size="14.00" fill="#666666">[timestamp with time zone]</text>
<polygon fill="none" stroke="black" points="740.91,-197.2 740.91,-228 994.59,-228 994.59,-197.2 740.91,-197.2"/>
<text text-anchor="start" x="747.91" y="-209.4" font-family="Arial" font-size="14.00">public </text>
<text text-anchor="start" x="788.38" y="-209.4" font-family="Arial" font-size="14.00" fill="#666666">[boolean]</text>
<polygon fill="none" stroke="black" points="740.91,-166.4 740.91,-197.2 994.59,-197.2 994.59,-166.4 740.91,-166.4"/>
<text text-anchor="start" x="747.91" y="-178.6" font-family="Arial" font-size="14.00">avif_autodetection </text>
<text text-anchor="start" x="865.44" y="-178.6" font-family="Arial" font-size="14.00" fill="#666666">[boolean]</text>
<polygon fill="none" stroke="black" points="740.91,-135.6 740.91,-166.4 994.59,-166.4 994.59,-135.6 740.91,-135.6"/>
<text text-anchor="start" x="747.91" y="-147.8" font-family="Arial" font-size="14.00">file_size_limit </text>
<text text-anchor="start" x="835.04" y="-147.8" font-family="Arial" font-size="14.00" fill="#666666">[bigint]</text>
<polygon fill="none" stroke="black" points="740.91,-104.8 740.91,-135.6 994.59,-135.6 994.59,-104.8 740.91,-104.8"/>
<text text-anchor="start" x="747.91" y="-117" font-family="Arial" font-size="14.00">allowed_mime_types </text>
<text text-anchor="start" x="882.53" y="-117" font-family="Arial" font-size="14.00" fill="#666666">[text[]]</text>
<polygon fill="none" stroke="black" points="740.91,-74 740.91,-104.8 994.59,-104.8 994.59,-74 740.91,-74"/>
<text text-anchor="start" x="747.91" y="-86.2" font-family="Arial" font-size="14.00">owner_id </text>
<text text-anchor="start" x="808.61" y="-86.2" font-family="Arial" font-size="14.00" fill="#666666">[text]</text>
<polygon fill="none" stroke="black" points="740.91,-43.2 740.91,-74 994.59,-74 994.59,-43.2 740.91,-43.2"/>
<text text-anchor="start" x="747.91" y="-55.4" font-family="Arial" font-size="14.00">type </text>
<text text-anchor="start" x="778.26" y="-55.4" font-family="Arial" font-size="14.00" fill="#666666">[storage.buckettype]</text>
</g>
<!-- storage.s3_multipart_uploads_parts&#45;&gt;storage.buckets -->
<g id="edge2" class="edge">
<title>storage.s3_multipart_uploads_parts:bucket_id&#45;&gt;storage.buckets:id</title>
<path fill="none" stroke="black" d="M872.59,-711.81C955.01,-701.91 916.44,-570.6 861.22,-496.8 827.78,-452.11 774.48,-505.39 740.91,-460.8 715.72,-427.35 698.04,-366.6 739.91,-366.6"/>
<polygon fill="black" stroke="black" points="872.54,-711.81 862.3,-707.89 867.21,-712.11 862.89,-712.36 862.89,-712.36 862.89,-712.36 867.21,-712.11 862.81,-716.87 872.54,-711.81"/>
<text text-anchor="start" x="869.22" y="-722.4" font-family="Arial" font-size="10.00">FOREIGN KEY (bucket_id) REFERENCES storage.buckets(id)</text>
</g>
</g>
</svg>
