<?xml version="1.0" encoding="UTF-8" standalone="no"?>
<!DOCTYPE svg PUBLIC "-//W3C//DTD SVG 1.1//EN"
 "http://www.w3.org/Graphics/SVG/1.1/DTD/svg11.dtd">
<!-- Generated by graphviz version 12.1.2 (20240928.0832)
 -->
<!-- Title: storage.buckets Pages: 1 -->
<svg width="1699pt" height="1033pt"
 viewBox="0.00 0.00 1699.14 1033.20" xmlns="http://www.w3.org/2000/svg" xmlns:xlink="http://www.w3.org/1999/xlink">
<g id="graph0" class="graph" transform="scale(1 1) rotate(0) translate(4 1029.2)">
<title>storage.buckets</title>
<polygon fill="white" stroke="none" points="-4,4 -4,-1029.2 1695.14,-1029.2 1695.14,4 -4,4"/>
<!-- storage.buckets -->
<g id="node1" class="node">
<title>storage.buckets</title>
<polygon fill="#efefef" stroke="none" points="726.26,-385 726.26,-420.6 979.94,-420.6 979.94,-385 726.26,-385"/>
<polygon fill="none" stroke="black" points="726.26,-385 726.26,-420.6 979.94,-420.6 979.94,-385 726.26,-385"/>
<text text-anchor="start" x="735.12" y="-398.4" font-family="Arial Bold" font-size="18.00">storage.buckets</text>
<text text-anchor="start" x="846.58" y="-398.4" font-family="Arial" font-size="14.00">    </text>
<text text-anchor="start" x="877.7" y="-398.4" font-family="Arial" font-size="14.00" fill="#666666">[BASE TABLE]</text>
<polygon fill="none" stroke="black" points="726.26,-354.2 726.26,-385 979.94,-385 979.94,-354.2 726.26,-354.2"/>
<text text-anchor="start" x="733.26" y="-366.4" font-family="Arial" font-size="14.00">id </text>
<text text-anchor="start" x="748.04" y="-366.4" font-family="Arial" font-size="14.00" fill="#666666">[text]</text>
<polygon fill="none" stroke="black" points="726.26,-323.4 726.26,-354.2 979.94,-354.2 979.94,-323.4 726.26,-323.4"/>
<text text-anchor="start" x="733.26" y="-335.6" font-family="Arial" font-size="14.00">name </text>
<text text-anchor="start" x="772.17" y="-335.6" font-family="Arial" font-size="14.00" fill="#666666">[text]</text>
<polygon fill="none" stroke="black" points="726.26,-292.6 726.26,-323.4 979.94,-323.4 979.94,-292.6 726.26,-292.6"/>
<text text-anchor="start" x="733.26" y="-304.8" font-family="Arial" font-size="14.00">owner </text>
<text text-anchor="start" x="775.28" y="-304.8" font-family="Arial" font-size="14.00" fill="#666666">[uuid]</text>
<polygon fill="none" stroke="black" points="726.26,-261.8 726.26,-292.6 979.94,-292.6 979.94,-261.8 726.26,-261.8"/>
<text text-anchor="start" x="733.26" y="-274" font-family="Arial" font-size="14.00">created_at </text>
<text text-anchor="start" x="803.3" y="-274" font-family="Arial" font-size="14.00" fill="#666666">[timestamp with time zone]</text>
<polygon fill="none" stroke="black" points="726.26,-231 726.26,-261.8 979.94,-261.8 979.94,-231 726.26,-231"/>
<text text-anchor="start" x="733.26" y="-243.2" font-family="Arial" font-size="14.00">updated_at </text>
<text text-anchor="start" x="807.21" y="-243.2" font-family="Arial" font-size="14.00" fill="#666666">[timestamp with time zone]</text>
<polygon fill="none" stroke="black" points="726.26,-200.2 726.26,-231 979.94,-231 979.94,-200.2 726.26,-200.2"/>
<text text-anchor="start" x="733.26" y="-212.4" font-family="Arial" font-size="14.00">public </text>
<text text-anchor="start" x="773.72" y="-212.4" font-family="Arial" font-size="14.00" fill="#666666">[boolean]</text>
<polygon fill="none" stroke="black" points="726.26,-169.4 726.26,-200.2 979.94,-200.2 979.94,-169.4 726.26,-169.4"/>
<text text-anchor="start" x="733.26" y="-181.6" font-family="Arial" font-size="14.00">avif_autodetection </text>
<text text-anchor="start" x="850.79" y="-181.6" font-family="Arial" font-size="14.00" fill="#666666">[boolean]</text>
<polygon fill="none" stroke="black" points="726.26,-138.6 726.26,-169.4 979.94,-169.4 979.94,-138.6 726.26,-138.6"/>
<text text-anchor="start" x="733.26" y="-150.8" font-family="Arial" font-size="14.00">file_size_limit </text>
<text text-anchor="start" x="820.39" y="-150.8" font-family="Arial" font-size="14.00" fill="#666666">[bigint]</text>
<polygon fill="none" stroke="black" points="726.26,-107.8 726.26,-138.6 979.94,-138.6 979.94,-107.8 726.26,-107.8"/>
<text text-anchor="start" x="733.26" y="-120" font-family="Arial" font-size="14.00">allowed_mime_types </text>
<text text-anchor="start" x="867.88" y="-120" font-family="Arial" font-size="14.00" fill="#666666">[text[]]</text>
<polygon fill="none" stroke="black" points="726.26,-77 726.26,-107.8 979.94,-107.8 979.94,-77 726.26,-77"/>
<text text-anchor="start" x="733.26" y="-89.2" font-family="Arial" font-size="14.00">owner_id </text>
<text text-anchor="start" x="793.96" y="-89.2" font-family="Arial" font-size="14.00" fill="#666666">[text]</text>
<polygon fill="none" stroke="black" points="726.26,-46.2 726.26,-77 979.94,-77 979.94,-46.2 726.26,-46.2"/>
<text text-anchor="start" x="733.26" y="-58.4" font-family="Arial" font-size="14.00">type </text>
<text text-anchor="start" x="763.61" y="-58.4" font-family="Arial" font-size="14.00" fill="#666666">[storage.buckettype]</text>
<polygon fill="none" stroke="black" stroke-width="3" points="724.76,-44.7 724.76,-422.1 981.44,-422.1 981.44,-44.7 724.76,-44.7"/>
</g>
<!-- storage.objects -->
<g id="node2" class="node">
<title>storage.objects</title>
<polygon fill="#efefef" stroke="none" points="43.2,-946.4 43.2,-982 334.99,-982 334.99,-946.4 43.2,-946.4"/>
<polygon fill="none" stroke="black" points="43.2,-946.4 43.2,-982 334.99,-982 334.99,-946.4 43.2,-946.4"/>
<text text-anchor="start" x="73.12" y="-959.8" font-family="Arial Bold" font-size="18.00">storage.objects</text>
<text text-anchor="start" x="180.58" y="-959.8" font-family="Arial" font-size="14.00">    </text>
<text text-anchor="start" x="211.7" y="-959.8" font-family="Arial" font-size="14.00" fill="#666666">[BASE TABLE]</text>
<polygon fill="none" stroke="black" points="43.2,-915.6 43.2,-946.4 334.99,-946.4 334.99,-915.6 43.2,-915.6"/>
<text text-anchor="start" x="50.2" y="-927.8" font-family="Arial" font-size="14.00">id </text>
<text text-anchor="start" x="64.99" y="-927.8" font-family="Arial" font-size="14.00" fill="#666666">[uuid]</text>
<polygon fill="none" stroke="black" points="43.2,-884.8 43.2,-915.6 334.99,-915.6 334.99,-884.8 43.2,-884.8"/>
<text text-anchor="start" x="50.2" y="-897" font-family="Arial" font-size="14.00">bucket_id </text>
<text text-anchor="start" x="114.02" y="-897" font-family="Arial" font-size="14.00" fill="#666666">[text]</text>
<polygon fill="none" stroke="black" points="43.2,-854 43.2,-884.8 334.99,-884.8 334.99,-854 43.2,-854"/>
<text text-anchor="start" x="50.2" y="-866.2" font-family="Arial" font-size="14.00">name </text>
<text text-anchor="start" x="89.11" y="-866.2" font-family="Arial" font-size="14.00" fill="#666666">[text]</text>
<polygon fill="none" stroke="black" points="43.2,-823.2 43.2,-854 334.99,-854 334.99,-823.2 43.2,-823.2"/>
<text text-anchor="start" x="50.2" y="-835.4" font-family="Arial" font-size="14.00">owner </text>
<text text-anchor="start" x="92.22" y="-835.4" font-family="Arial" font-size="14.00" fill="#666666">[uuid]</text>
<polygon fill="none" stroke="black" points="43.2,-792.4 43.2,-823.2 334.99,-823.2 334.99,-792.4 43.2,-792.4"/>
<text text-anchor="start" x="50.2" y="-804.6" font-family="Arial" font-size="14.00">created_at </text>
<text text-anchor="start" x="120.25" y="-804.6" font-family="Arial" font-size="14.00" fill="#666666">[timestamp with time zone]</text>
<polygon fill="none" stroke="black" points="43.2,-761.6 43.2,-792.4 334.99,-792.4 334.99,-761.6 43.2,-761.6"/>
<text text-anchor="start" x="50.2" y="-773.8" font-family="Arial" font-size="14.00">updated_at </text>
<text text-anchor="start" x="124.16" y="-773.8" font-family="Arial" font-size="14.00" fill="#666666">[timestamp with time zone]</text>
<polygon fill="none" stroke="black" points="43.2,-730.8 43.2,-761.6 334.99,-761.6 334.99,-730.8 43.2,-730.8"/>
<text text-anchor="start" x="50.2" y="-743" font-family="Arial" font-size="14.00">last_accessed_at </text>
<text text-anchor="start" x="162.27" y="-743" font-family="Arial" font-size="14.00" fill="#666666">[timestamp with time zone]</text>
<polygon fill="none" stroke="black" points="43.2,-700 43.2,-730.8 334.99,-730.8 334.99,-700 43.2,-700"/>
<text text-anchor="start" x="50.2" y="-712.2" font-family="Arial" font-size="14.00">metadata </text>
<text text-anchor="start" x="112.46" y="-712.2" font-family="Arial" font-size="14.00" fill="#666666">[jsonb]</text>
<polygon fill="none" stroke="black" points="43.2,-669.2 43.2,-700 334.99,-700 334.99,-669.2 43.2,-669.2"/>
<text text-anchor="start" x="50.2" y="-681.4" font-family="Arial" font-size="14.00">path_tokens </text>
<text text-anchor="start" x="130.37" y="-681.4" font-family="Arial" font-size="14.00" fill="#666666">[text[]]</text>
<polygon fill="none" stroke="black" points="43.2,-638.4 43.2,-669.2 334.99,-669.2 334.99,-638.4 43.2,-638.4"/>
<text text-anchor="start" x="50.2" y="-650.6" font-family="Arial" font-size="14.00">version </text>
<text text-anchor="start" x="99.22" y="-650.6" font-family="Arial" font-size="14.00" fill="#666666">[text]</text>
<polygon fill="none" stroke="black" points="43.2,-607.6 43.2,-638.4 334.99,-638.4 334.99,-607.6 43.2,-607.6"/>
<text text-anchor="start" x="50.2" y="-619.8" font-family="Arial" font-size="14.00">owner_id </text>
<text text-anchor="start" x="110.9" y="-619.8" font-family="Arial" font-size="14.00" fill="#666666">[text]</text>
<polygon fill="none" stroke="black" points="43.2,-576.8 43.2,-607.6 334.99,-607.6 334.99,-576.8 43.2,-576.8"/>
<text text-anchor="start" x="50.2" y="-589" font-family="Arial" font-size="14.00">user_metadata </text>
<text text-anchor="start" x="147.48" y="-589" font-family="Arial" font-size="14.00" fill="#666666">[jsonb]</text>
<polygon fill="none" stroke="black" points="43.2,-546 43.2,-576.8 334.99,-576.8 334.99,-546 43.2,-546"/>
<text text-anchor="start" x="50.2" y="-558.2" font-family="Arial" font-size="14.00">level </text>
<text text-anchor="start" x="82.88" y="-558.2" font-family="Arial" font-size="14.00" fill="#666666">[integer]</text>
</g>
<!-- storage.objects&#45;&gt;storage.buckets -->
<g id="edge1" class="edge">
<title>storage.objects:bucket_id&#45;&gt;storage.buckets:id</title>
<path fill="none" stroke="black" d="M346.05,-898.59C417.68,-873.8 334.63,-570.16 387.1,-502.8 486.35,-375.36 563.72,-369.6 725.26,-369.6"/>
<polygon fill="black" stroke="black" points="346.2,-898.57 335.61,-895.7 340.93,-899.41 336.65,-900.09 336.65,-900.09 336.65,-900.09 340.93,-899.41 337.03,-904.59 346.2,-898.57"/>
<text text-anchor="start" x="342.99" y="-910.2" font-family="Arial" font-size="10.00">FOREIGN KEY (bucket_id) REFERENCES storage.buckets(id)</text>
</g>
<!-- storage.s3_multipart_uploads -->
<g id="node3" class="node">
<title>storage.s3_multipart_uploads</title>
<polygon fill="#efefef" stroke="none" points="439.62,-884.8 439.62,-920.4 790.57,-920.4 790.57,-884.8 439.62,-884.8"/>
<polygon fill="none" stroke="black" points="439.62,-884.8 439.62,-920.4 790.57,-920.4 790.57,-884.8 439.62,-884.8"/>
<text text-anchor="start" x="446.62" y="-898.2" font-family="Arial Bold" font-size="18.00">storage.s3_multipart_uploads</text>
<text text-anchor="start" x="659.08" y="-898.2" font-family="Arial" font-size="14.00">    </text>
<text text-anchor="start" x="690.2" y="-898.2" font-family="Arial" font-size="14.00" fill="#666666">[BASE TABLE]</text>
<polygon fill="none" stroke="black" points="439.62,-854 439.62,-884.8 790.57,-884.8 790.57,-854 439.62,-854"/>
<text text-anchor="start" x="446.62" y="-866.2" font-family="Arial" font-size="14.00">id </text>
<text text-anchor="start" x="461.4" y="-866.2" font-family="Arial" font-size="14.00" fill="#666666">[text]</text>
<polygon fill="none" stroke="black" points="439.62,-823.2 439.62,-854 790.57,-854 790.57,-823.2 439.62,-823.2"/>
<text text-anchor="start" x="446.62" y="-835.4" font-family="Arial" font-size="14.00">in_progress_size </text>
<text text-anchor="start" x="556.34" y="-835.4" font-family="Arial" font-size="14.00" fill="#666666">[bigint]</text>
<polygon fill="none" stroke="black" points="439.62,-792.4 439.62,-823.2 790.57,-823.2 790.57,-792.4 439.62,-792.4"/>
<text text-anchor="start" x="446.62" y="-804.6" font-family="Arial" font-size="14.00">upload_signature </text>
<text text-anchor="start" x="557.93" y="-804.6" font-family="Arial" font-size="14.00" fill="#666666">[text]</text>
<polygon fill="none" stroke="black" points="439.62,-761.6 439.62,-792.4 790.57,-792.4 790.57,-761.6 439.62,-761.6"/>
<text text-anchor="start" x="446.62" y="-773.8" font-family="Arial" font-size="14.00">bucket_id </text>
<text text-anchor="start" x="510.44" y="-773.8" font-family="Arial" font-size="14.00" fill="#666666">[text]</text>
<polygon fill="none" stroke="black" points="439.62,-730.8 439.62,-761.6 790.57,-761.6 790.57,-730.8 439.62,-730.8"/>
<text text-anchor="start" x="446.62" y="-743" font-family="Arial" font-size="14.00">key </text>
<text text-anchor="start" x="472.29" y="-743" font-family="Arial" font-size="14.00" fill="#666666">[text]</text>
<polygon fill="none" stroke="black" points="439.62,-700 439.62,-730.8 790.57,-730.8 790.57,-700 439.62,-700"/>
<text text-anchor="start" x="446.62" y="-712.2" font-family="Arial" font-size="14.00">version </text>
<text text-anchor="start" x="495.64" y="-712.2" font-family="Arial" font-size="14.00" fill="#666666">[text]</text>
<polygon fill="none" stroke="black" points="439.62,-669.2 439.62,-700 790.57,-700 790.57,-669.2 439.62,-669.2"/>
<text text-anchor="start" x="446.62" y="-681.4" font-family="Arial" font-size="14.00">owner_id </text>
<text text-anchor="start" x="507.32" y="-681.4" font-family="Arial" font-size="14.00" fill="#666666">[text]</text>
<polygon fill="none" stroke="black" points="439.62,-638.4 439.62,-669.2 790.57,-669.2 790.57,-638.4 439.62,-638.4"/>
<text text-anchor="start" x="446.62" y="-650.6" font-family="Arial" font-size="14.00">created_at </text>
<text text-anchor="start" x="516.67" y="-650.6" font-family="Arial" font-size="14.00" fill="#666666">[timestamp with time zone]</text>
<polygon fill="none" stroke="black" points="439.62,-607.6 439.62,-638.4 790.57,-638.4 790.57,-607.6 439.62,-607.6"/>
<text text-anchor="start" x="446.62" y="-619.8" font-family="Arial" font-size="14.00">user_metadata </text>
<text text-anchor="start" x="543.9" y="-619.8" font-family="Arial" font-size="14.00" fill="#666666">[jsonb]</text>
</g>
<!-- storage.s3_multipart_uploads&#45;&gt;storage.buckets -->
<g id="edge2" class="edge">
<title>storage.s3_multipart_uploads:bucket_id&#45;&gt;storage.buckets:id</title>
<path fill="none" stroke="black" d="M801.91,-776.45C880.8,-767.5 816.86,-651.31 790.57,-564.4 775.54,-514.67 741.43,-516.48 726.26,-466.8 713.63,-425.48 682.05,-369.6 725.26,-369.6"/>
<polygon fill="black" stroke="black" points="801.89,-776.45 791.67,-772.49 796.57,-776.73 792.24,-776.96 792.24,-776.96 792.24,-776.96 796.57,-776.73 792.15,-781.48 801.89,-776.45"/>
<text text-anchor="start" x="798.57" y="-787" font-family="Arial" font-size="10.00">FOREIGN KEY (bucket_id) REFERENCES storage.buckets(id)</text>
</g>
<!-- storage.s3_multipart_uploads_parts -->
<g id="node4" class="node">
<title>storage.s3_multipart_uploads_parts</title>
<polygon fill="#efefef" stroke="none" points="894.62,-900.2 894.62,-935.8 1289.57,-935.8 1289.57,-900.2 894.62,-900.2"/>
<polygon fill="none" stroke="black" points="894.62,-900.2 894.62,-935.8 1289.57,-935.8 1289.57,-900.2 894.62,-900.2"/>
<text text-anchor="start" x="901.62" y="-913.6" font-family="Arial Bold" font-size="18.00">storage.s3_multipart_uploads_parts</text>
<text text-anchor="start" x="1158.08" y="-913.6" font-family="Arial" font-size="14.00">    </text>
<text text-anchor="start" x="1189.2" y="-913.6" font-family="Arial" font-size="14.00" fill="#666666">[BASE TABLE]</text>
<polygon fill="none" stroke="black" points="894.62,-869.4 894.62,-900.2 1289.57,-900.2 1289.57,-869.4 894.62,-869.4"/>
<text text-anchor="start" x="901.62" y="-881.6" font-family="Arial" font-size="14.00">id </text>
<text text-anchor="start" x="916.41" y="-881.6" font-family="Arial" font-size="14.00" fill="#666666">[uuid]</text>
<polygon fill="none" stroke="black" points="894.62,-838.6 894.62,-869.4 1289.57,-869.4 1289.57,-838.6 894.62,-838.6"/>
<text text-anchor="start" x="901.62" y="-850.8" font-family="Arial" font-size="14.00">upload_id </text>
<text text-anchor="start" x="966.24" y="-850.8" font-family="Arial" font-size="14.00" fill="#666666">[text]</text>
<polygon fill="none" stroke="black" points="894.62,-807.8 894.62,-838.6 1289.57,-838.6 1289.57,-807.8 894.62,-807.8"/>
<text text-anchor="start" x="901.62" y="-820" font-family="Arial" font-size="14.00">size </text>
<text text-anchor="start" x="930.41" y="-820" font-family="Arial" font-size="14.00" fill="#666666">[bigint]</text>
<polygon fill="none" stroke="black" points="894.62,-777 894.62,-807.8 1289.57,-807.8 1289.57,-777 894.62,-777"/>
<text text-anchor="start" x="901.62" y="-789.2" font-family="Arial" font-size="14.00">part_number </text>
<text text-anchor="start" x="984.89" y="-789.2" font-family="Arial" font-size="14.00" fill="#666666">[integer]</text>
<polygon fill="none" stroke="black" points="894.62,-746.2 894.62,-777 1289.57,-777 1289.57,-746.2 894.62,-746.2"/>
<text text-anchor="start" x="901.62" y="-758.4" font-family="Arial" font-size="14.00">bucket_id </text>
<text text-anchor="start" x="965.44" y="-758.4" font-family="Arial" font-size="14.00" fill="#666666">[text]</text>
<polygon fill="none" stroke="black" points="894.62,-715.4 894.62,-746.2 1289.57,-746.2 1289.57,-715.4 894.62,-715.4"/>
<text text-anchor="start" x="901.62" y="-727.6" font-family="Arial" font-size="14.00">key </text>
<text text-anchor="start" x="927.3" y="-727.6" font-family="Arial" font-size="14.00" fill="#666666">[text]</text>
<polygon fill="none" stroke="black" points="894.62,-684.6 894.62,-715.4 1289.57,-715.4 1289.57,-684.6 894.62,-684.6"/>
<text text-anchor="start" x="901.62" y="-696.8" font-family="Arial" font-size="14.00">etag </text>
<text text-anchor="start" x="932.76" y="-696.8" font-family="Arial" font-size="14.00" fill="#666666">[text]</text>
<polygon fill="none" stroke="black" points="894.62,-653.8 894.62,-684.6 1289.57,-684.6 1289.57,-653.8 894.62,-653.8"/>
<text text-anchor="start" x="901.62" y="-666" font-family="Arial" font-size="14.00">owner_id </text>
<text text-anchor="start" x="962.33" y="-666" font-family="Arial" font-size="14.00" fill="#666666">[text]</text>
<polygon fill="none" stroke="black" points="894.62,-623 894.62,-653.8 1289.57,-653.8 1289.57,-623 894.62,-623"/>
<text text-anchor="start" x="901.62" y="-635.2" font-family="Arial" font-size="14.00">version </text>
<text text-anchor="start" x="950.64" y="-635.2" font-family="Arial" font-size="14.00" fill="#666666">[text]</text>
<polygon fill="none" stroke="black" points="894.62,-592.2 894.62,-623 1289.57,-623 1289.57,-592.2 894.62,-592.2"/>
<text text-anchor="start" x="901.62" y="-604.4" font-family="Arial" font-size="14.00">created_at </text>
<text text-anchor="start" x="971.67" y="-604.4" font-family="Arial" font-size="14.00" fill="#666666">[timestamp with time zone]</text>
</g>
<!-- storage.s3_multipart_uploads_parts&#45;&gt;storage.buckets -->
<g id="edge3" class="edge">
<title>storage.s3_multipart_uploads_parts:bucket_id&#45;&gt;storage.buckets:id</title>
<path fill="none" stroke="black" d="M883.92,-758.64C850.94,-735.94 877.49,-589.04 894.62,-549 915.34,-500.59 959.09,-515.15 979.94,-466.8 997.04,-427.13 1024.14,-369.6 980.94,-369.6"/>
<polygon fill="black" stroke="black" points="883.74,-758.59 891.99,-765.81 888.84,-760.14 892.98,-761.41 892.98,-761.41 892.98,-761.41 888.84,-760.14 894.61,-757.2 883.74,-758.59"/>
<text text-anchor="start" x="900.62" y="-745.6" font-family="Arial" font-size="10.00">FOREIGN KEY (bucket_id) REFERENCES storage.buckets(id)</text>
</g>
<!-- storage.prefixes -->
<g id="node5" class="node">
<title>storage.prefixes</title>
<polygon fill="#efefef" stroke="none" points="1394.26,-823.2 1394.26,-858.8 1647.94,-858.8 1647.94,-823.2 1394.26,-823.2"/>
<polygon fill="none" stroke="black" points="1394.26,-823.2 1394.26,-858.8 1647.94,-858.8 1647.94,-823.2 1394.26,-823.2"/>
<text text-anchor="start" x="1401.63" y="-836.6" font-family="Arial Bold" font-size="18.00">storage.prefixes</text>
<text text-anchor="start" x="1516.08" y="-836.6" font-family="Arial" font-size="14.00">    </text>
<text text-anchor="start" x="1547.19" y="-836.6" font-family="Arial" font-size="14.00" fill="#666666">[BASE TABLE]</text>
<polygon fill="none" stroke="black" points="1394.26,-792.4 1394.26,-823.2 1647.94,-823.2 1647.94,-792.4 1394.26,-792.4"/>
<text text-anchor="start" x="1401.26" y="-804.6" font-family="Arial" font-size="14.00">bucket_id </text>
<text text-anchor="start" x="1465.08" y="-804.6" font-family="Arial" font-size="14.00" fill="#666666">[text]</text>
<polygon fill="none" stroke="black" points="1394.26,-761.6 1394.26,-792.4 1647.94,-792.4 1647.94,-761.6 1394.26,-761.6"/>
<text text-anchor="start" x="1401.26" y="-773.8" font-family="Arial" font-size="14.00">name </text>
<text text-anchor="start" x="1440.17" y="-773.8" font-family="Arial" font-size="14.00" fill="#666666">[text]</text>
<polygon fill="none" stroke="black" points="1394.26,-730.8 1394.26,-761.6 1647.94,-761.6 1647.94,-730.8 1394.26,-730.8"/>
<text text-anchor="start" x="1401.26" y="-743" font-family="Arial" font-size="14.00">level </text>
<text text-anchor="start" x="1433.94" y="-743" font-family="Arial" font-size="14.00" fill="#666666">[integer]</text>
<polygon fill="none" stroke="black" points="1394.26,-700 1394.26,-730.8 1647.94,-730.8 1647.94,-700 1394.26,-700"/>
<text text-anchor="start" x="1401.26" y="-712.2" font-family="Arial" font-size="14.00">created_at </text>
<text text-anchor="start" x="1471.3" y="-712.2" font-family="Arial" font-size="14.00" fill="#666666">[timestamp with time zone]</text>
<polygon fill="none" stroke="black" points="1394.26,-669.2 1394.26,-700 1647.94,-700 1647.94,-669.2 1394.26,-669.2"/>
<text text-anchor="start" x="1401.26" y="-681.4" font-family="Arial" font-size="14.00">updated_at </text>
<text text-anchor="start" x="1475.21" y="-681.4" font-family="Arial" font-size="14.00" fill="#666666">[timestamp with time zone]</text>
</g>
<!-- storage.prefixes&#45;&gt;storage.buckets -->
<g id="edge4" class="edge">
<title>storage.prefixes:bucket_id&#45;&gt;storage.buckets:id</title>
<path fill="none" stroke="black" d="M1383.11,-805.61C1330.93,-780.82 1383.54,-552.83 1342.1,-502.8 1232.95,-371.05 1152.02,-369.6 980.94,-369.6"/>
<polygon fill="black" stroke="black" points="1383.15,-805.62 1391.98,-812.13 1388.37,-806.75 1392.6,-807.66 1392.6,-807.66 1392.6,-807.66 1388.37,-806.75 1393.88,-803.33 1383.15,-805.62"/>
<text text-anchor="start" x="1400.26" y="-817.8" font-family="Arial" font-size="10.00">FOREIGN KEY (bucket_id) REFERENCES storage.buckets(id)</text>
</g>
</g>
</svg>
