<?xml version="1.0" encoding="UTF-8" standalone="no"?>
<!DOCTYPE svg PUBLIC "-//W3C//DTD SVG 1.1//EN"
 "http://www.w3.org/Graphics/SVG/1.1/DTD/svg11.dtd">
<!-- Generated by graphviz version 12.1.2 (20240928.0832)
 -->
<!-- Title: supabase_functions.migrations Pages: 1 -->
<svg width="461pt" height="198pt"
 viewBox="0.00 0.00 461.35 197.60" xmlns="http://www.w3.org/2000/svg" xmlns:xlink="http://www.w3.org/1999/xlink">
<g id="graph0" class="graph" transform="scale(1 1) rotate(0) translate(4 193.6)">
<title>supabase_functions.migrations</title>
<polygon fill="white" stroke="none" points="-4,4 -4,-193.6 457.35,-193.6 457.35,4 -4,4"/>
<!-- supabase_functions.migrations -->
<g id="node1" class="node">
<title>supabase_functions.migrations</title>
<polygon fill="#efefef" stroke="none" points="46.2,-107.8 46.2,-143.4 407.15,-143.4 407.15,-107.8 46.2,-107.8"/>
<polygon fill="none" stroke="black" points="46.2,-107.8 46.2,-143.4 407.15,-143.4 407.15,-107.8 46.2,-107.8"/>
<text text-anchor="start" x="53.2" y="-121.2" font-family="Arial Bold" font-size="18.00">supabase_functions.migrations</text>
<text text-anchor="start" x="275.66" y="-121.2" font-family="Arial" font-size="14.00">    </text>
<text text-anchor="start" x="306.78" y="-121.2" font-family="Arial" font-size="14.00" fill="#666666">[BASE TABLE]</text>
<polygon fill="none" stroke="black" points="46.2,-77 46.2,-107.8 407.15,-107.8 407.15,-77 46.2,-77"/>
<text text-anchor="start" x="53.2" y="-89.2" font-family="Arial" font-size="14.00">version </text>
<text text-anchor="start" x="102.22" y="-89.2" font-family="Arial" font-size="14.00" fill="#666666">[text]</text>
<polygon fill="none" stroke="black" points="46.2,-46.2 46.2,-77 407.15,-77 407.15,-46.2 46.2,-46.2"/>
<text text-anchor="start" x="53.2" y="-58.4" font-family="Arial" font-size="14.00">inserted_at </text>
<text text-anchor="start" x="126.36" y="-58.4" font-family="Arial" font-size="14.00" fill="#666666">[timestamp with time zone]</text>
<polygon fill="none" stroke="black" stroke-width="3" points="44.7,-44.7 44.7,-144.9 408.65,-144.9 408.65,-44.7 44.7,-44.7"/>
</g>
</g>
</svg>
