<?xml version="1.0" encoding="UTF-8" standalone="no"?>
<!DOCTYPE svg PUBLIC "-//W3C//DTD SVG 1.1//EN"
 "http://www.w3.org/Graphics/SVG/1.1/DTD/svg11.dtd">
<!-- Generated by graphviz version 12.1.2 (20240928.0832)
 -->
<!-- Title: vault.decrypted_secrets Pages: 1 -->
<svg width="359pt" height="413pt"
 viewBox="0.00 0.00 358.50 413.20" xmlns="http://www.w3.org/2000/svg" xmlns:xlink="http://www.w3.org/1999/xlink">
<g id="graph0" class="graph" transform="scale(1 1) rotate(0) translate(4 409.2)">
<title>vault.decrypted_secrets</title>
<polygon fill="white" stroke="none" points="-4,4 -4,-409.2 354.5,-409.2 354.5,4 -4,4"/>
<!-- vault.decrypted_secrets -->
<g id="node1" class="node">
<title>vault.decrypted_secrets</title>
<polygon fill="#efefef" stroke="none" points="46.2,-323.4 46.2,-359 304.3,-359 304.3,-323.4 46.2,-323.4"/>
<polygon fill="none" stroke="black" points="46.2,-323.4 46.2,-359 304.3,-359 304.3,-323.4 46.2,-323.4"/>
<text text-anchor="start" x="53.2" y="-336.8" font-family="Arial Bold" font-size="18.00">vault.decrypted_secrets</text>
<text text-anchor="start" x="222.63" y="-336.8" font-family="Arial" font-size="14.00">    </text>
<text text-anchor="start" x="253.74" y="-336.8" font-family="Arial" font-size="14.00" fill="#666666">[VIEW]</text>
<polygon fill="none" stroke="black" points="46.2,-292.6 46.2,-323.4 304.3,-323.4 304.3,-292.6 46.2,-292.6"/>
<text text-anchor="start" x="53.2" y="-304.8" font-family="Arial" font-size="14.00">id </text>
<text text-anchor="start" x="67.99" y="-304.8" font-family="Arial" font-size="14.00" fill="#666666">[uuid]</text>
<polygon fill="none" stroke="black" points="46.2,-261.8 46.2,-292.6 304.3,-292.6 304.3,-261.8 46.2,-261.8"/>
<text text-anchor="start" x="53.2" y="-274" font-family="Arial" font-size="14.00">name </text>
<text text-anchor="start" x="92.11" y="-274" font-family="Arial" font-size="14.00" fill="#666666">[text]</text>
<polygon fill="none" stroke="black" points="46.2,-231 46.2,-261.8 304.3,-261.8 304.3,-231 46.2,-231"/>
<text text-anchor="start" x="53.2" y="-243.2" font-family="Arial" font-size="14.00">description </text>
<text text-anchor="start" x="124.79" y="-243.2" font-family="Arial" font-size="14.00" fill="#666666">[text]</text>
<polygon fill="none" stroke="black" points="46.2,-200.2 46.2,-231 304.3,-231 304.3,-200.2 46.2,-200.2"/>
<text text-anchor="start" x="53.2" y="-212.4" font-family="Arial" font-size="14.00">secret </text>
<text text-anchor="start" x="95.21" y="-212.4" font-family="Arial" font-size="14.00" fill="#666666">[text]</text>
<polygon fill="none" stroke="black" points="46.2,-169.4 46.2,-200.2 304.3,-200.2 304.3,-169.4 46.2,-169.4"/>
<text text-anchor="start" x="53.2" y="-181.6" font-family="Arial" font-size="14.00">decrypted_secret </text>
<text text-anchor="start" x="164.48" y="-181.6" font-family="Arial" font-size="14.00" fill="#666666">[text]</text>
<polygon fill="none" stroke="black" points="46.2,-138.6 46.2,-169.4 304.3,-169.4 304.3,-138.6 46.2,-138.6"/>
<text text-anchor="start" x="53.2" y="-150.8" font-family="Arial" font-size="14.00">key_id </text>
<text text-anchor="start" x="97.56" y="-150.8" font-family="Arial" font-size="14.00" fill="#666666">[uuid]</text>
<polygon fill="none" stroke="black" points="46.2,-107.8 46.2,-138.6 304.3,-138.6 304.3,-107.8 46.2,-107.8"/>
<text text-anchor="start" x="53.2" y="-120" font-family="Arial" font-size="14.00">nonce </text>
<text text-anchor="start" x="95.23" y="-120" font-family="Arial" font-size="14.00" fill="#666666">[bytea]</text>
<polygon fill="none" stroke="black" points="46.2,-77 46.2,-107.8 304.3,-107.8 304.3,-77 46.2,-77"/>
<text text-anchor="start" x="53.2" y="-89.2" font-family="Arial" font-size="14.00">created_at </text>
<text text-anchor="start" x="123.25" y="-89.2" font-family="Arial" font-size="14.00" fill="#666666">[timestamp with time zone]</text>
<polygon fill="none" stroke="black" points="46.2,-46.2 46.2,-77 304.3,-77 304.3,-46.2 46.2,-46.2"/>
<text text-anchor="start" x="53.2" y="-58.4" font-family="Arial" font-size="14.00">updated_at </text>
<text text-anchor="start" x="127.16" y="-58.4" font-family="Arial" font-size="14.00" fill="#666666">[timestamp with time zone]</text>
<polygon fill="none" stroke="black" stroke-width="3" points="44.7,-44.7 44.7,-360.5 305.8,-360.5 305.8,-44.7 44.7,-44.7"/>
</g>
</g>
</svg>
